<?xml version="1.0" encoding="UTF-8" standalone="no"?>
<!-- Created with Inkscape (http://www.inkscape.org/) -->

<svg
   xmlns:dc="http://purl.org/dc/elements/1.1/"
   xmlns:cc="http://creativecommons.org/ns#"
   xmlns:rdf="http://www.w3.org/1999/02/22-rdf-syntax-ns#"
   xmlns:svg="http://www.w3.org/2000/svg"
   xmlns="http://www.w3.org/2000/svg"
   xmlns:sodipodi="http://sodipodi.sourceforge.net/DTD/sodipodi-0.dtd"
   xmlns:inkscape="http://www.inkscape.org/namespaces/inkscape"
   width="194.73331mm"
   height="262.46671mm"
   version="1.1"
   viewBox="0 0 194.73129 262.46487"
   id="svg8"
   sodipodi:docname="A.svg"
   inkscape:version="0.91 r13725">
  <defs
     id="defs12" />
  <sodipodi:namedview
     pagecolor="#ffffff"
     bordercolor="#666666"
     borderopacity="1"
     objecttolerance="10"
     gridtolerance="10"
     guidetolerance="10"
     inkscape:pageopacity="0"
     inkscape:pageshadow="2"
     inkscape:window-width="1807"
     inkscape:window-height="1036"
     id="namedview10"
     showgrid="false"
     inkscape:zoom="0.70710678"
     inkscape:cx="-172.45715"
     inkscape:cy="639.61168"
     inkscape:window-x="59"
     inkscape:window-y="0"
     inkscape:window-maximized="0"
     inkscape:current-layer="g6"
     fit-margin-top="0"
     fit-margin-left="0"
     fit-margin-right="0"
     fit-margin-bottom="0" />
  <metadata
     id="metadata2">
    <rdf:RDF>
      <cc:Work
         rdf:about="">
        <dc:format>image/svg+xml</dc:format>
        <dc:type
           rdf:resource="http://purl.org/dc/dcmitype/StillImage" />
        <dc:title></dc:title>
      </cc:Work>
    </rdf:RDF>
  </metadata>
  <g
     transform="matrix(4.4965782,0,0,4.4965782,-315.03276,-271.64121)"
     id="g6">
    <path
       d="m 106.96499,118.0614 c -1.93959,-2.76677 -2.40082,-1.47507 -3.53088,-7.35864 -0.34569,-2.47174 -1.35227,-4.35378 -1.9198,-5.00516 -2.915827,-2.95793 -12.462515,-1.18357 -16.727824,-0.56095 -8.367318,1.03155 -5.64107,11.69412 -12.145014,12.48229 -4.2772,-0.57574 -2.157704,-6.86919 -1.234525,-8.57703 6.133006,-11.642116 9.924483,-26.897692 13.737437,-38.18583 0.602911,-1.652921 1.155294,-3.640279 2.187541,-5.599627 12.596918,-20.63817 20.016185,30.660758 23.641085,41.399457 1.03796,4.2149 2.48048,6.48818 2.39013,8.9312 0.0896,3.05005 -5.46271,4.00578 -6.39815,2.47429 z M 97.395998,98.077667 c 1.371297,-0.16624 2.625292,-0.726302 2.456208,-2.002628 -0.84897,-6.874017 -2.074391,-14.964259 -5.444361,-19.538179 -0.980789,-1.269758 -1.622145,-2.442549 -2.67014,-0.914984 -1.42829,2.087701 -8.559612,16.180141 -6.094798,22.003747 2.451159,3.968067 8.281645,0.922275 11.753091,0.452044 z m -27.08024,15.374993 c -0.375392,3.67329 -0.187697,1.83665 0,0 z"
       id="path4"
       inkscape:connector-curvature="0"
       style="stroke-width:0.2421353"
       sodipodi:nodetypes="ccccccccccccccccccc" />
  </g>
</svg>
