<?xml version="1.0" encoding="UTF-8" standalone="no"?>
<!-- Created with Inkscape (http://www.inkscape.org/) -->

<svg
   xmlns:dc="http://purl.org/dc/elements/1.1/"
   xmlns:cc="http://creativecommons.org/ns#"
   xmlns:rdf="http://www.w3.org/1999/02/22-rdf-syntax-ns#"
   xmlns:svg="http://www.w3.org/2000/svg"
   xmlns="http://www.w3.org/2000/svg"
   xmlns:sodipodi="http://sodipodi.sourceforge.net/DTD/sodipodi-0.dtd"
   xmlns:inkscape="http://www.inkscape.org/namespaces/inkscape"
   version="1.1"
   id="svg2"
   width="561.16803"
   height="930"
   viewBox="0 0 561.16803 930"
   sodipodi:docname="D.svg"
   inkscape:version="0.92.2 5c3e80d, 2017-08-06">
  <metadata
     id="metadata8">
    <rdf:RDF>
      <cc:Work
         rdf:about="">
        <dc:format>image/svg+xml</dc:format>
        <dc:type
           rdf:resource="http://purl.org/dc/dcmitype/StillImage" />
        <dc:title></dc:title>
      </cc:Work>
    </rdf:RDF>
  </metadata>
  <defs
     id="defs6" />
  <sodipodi:namedview
     pagecolor="#ffffff"
     bordercolor="#666666"
     borderopacity="1"
     objecttolerance="10"
     gridtolerance="10"
     guidetolerance="10"
     inkscape:pageopacity="0"
     inkscape:pageshadow="2"
     inkscape:window-width="1765"
     inkscape:window-height="938"
     id="namedview4"
     showgrid="false"
     fit-margin-top="0"
     fit-margin-left="0"
     fit-margin-right="0"
     fit-margin-bottom="0"
     inkscape:zoom="0.77372592"
     inkscape:cx="43.158277"
     inkscape:cy="327.38788"
     inkscape:window-x="65"
     inkscape:window-y="126"
     inkscape:window-maximized="0"
     inkscape:current-layer="svg2"
     inkscape:measure-start="442.017,482.083"
     inkscape:measure-end="560.922,476.913" />
  <path
     style="fill:#000000;stroke-width:3.81440091"
     d="M 20.226587,896.17889 C -3.1425901,721.77434 17.728444,542.879 8.367345,435.16789 7.187045,421.85742 5.553362,390.15125 4.736935,364.70978 1.906481,221.87332 1.562704,189.89423 0.47173801,109.10996 -2.618898,43.058173 9.353386,8.2703641 40.037733,1.6242695 460.99442,-15.818818 545.57069,105.80331 559.13819,435.58838 565.90336,525.30892 554.11062,552.22893 547.82937,622.73436 504.89326,776.32178 506.17121,838.21388 309.24418,911.74818 237.67781,932.13475 20.828438,945.20021 20.226587,896.17889 Z M 429.06375,622.30025 C 472.97118,327.68844 456.1673,81.842391 115.79906,105.51669 c -1.46185,48.94347 -1.0023,159.13573 6.15869,201.00989 11.74029,141.70764 1.98664,384.148 3.65769,502.21029 189.46863,19.74458 291.17709,-71.41519 303.44831,-186.43662 z"
     id="path12"
     inkscape:connector-curvature="0"
     sodipodi:nodetypes="cccccccccccccc" />
</svg>
