<?xml version="1.0" encoding="UTF-8" standalone="no"?>
<!-- Created with Inkscape (http://www.inkscape.org/) -->

<svg
   xmlns:dc="http://purl.org/dc/elements/1.1/"
   xmlns:cc="http://creativecommons.org/ns#"
   xmlns:rdf="http://www.w3.org/1999/02/22-rdf-syntax-ns#"
   xmlns:svg="http://www.w3.org/2000/svg"
   xmlns="http://www.w3.org/2000/svg"
   xmlns:sodipodi="http://sodipodi.sourceforge.net/DTD/sodipodi-0.dtd"
   xmlns:inkscape="http://www.inkscape.org/namespaces/inkscape"
   id="svg3941"
   version="1.1"
   inkscape:version="0.91 r13725"
   width="728.71582"
   height="933.47131"
   viewBox="0 0 728.71582 933.47131"
   sodipodi:docname="en_lower_a.svg">
  <metadata
     id="metadata3947">
    <rdf:RDF>
      <cc:Work
         rdf:about="">
        <dc:format>image/svg+xml</dc:format>
        <dc:type
           rdf:resource="http://purl.org/dc/dcmitype/StillImage" />
        <dc:title></dc:title>
      </cc:Work>
    </rdf:RDF>
  </metadata>
  <defs
     id="defs3945" />
  <sodipodi:namedview
     pagecolor="#ffffff"
     bordercolor="#666666"
     borderopacity="1"
     objecttolerance="10"
     gridtolerance="10"
     guidetolerance="10"
     inkscape:pageopacity="0"
     inkscape:pageshadow="2"
     inkscape:window-width="1671"
     inkscape:window-height="1017"
     id="namedview3943"
     showgrid="false"
     fit-margin-top="0"
     fit-margin-left="0"
     fit-margin-right="0"
     fit-margin-bottom="0"
     inkscape:zoom="0.46825397"
     inkscape:cx="485.05359"
     inkscape:cy="673.04592"
     inkscape:window-x="55"
     inkscape:window-y="15"
     inkscape:window-maximized="0"
     inkscape:current-layer="svg3941" />
  <path
     style="fill:#000000"
     d="m 578.26034,876.21147 c -4.64663,-23.28756 -4.3527,-48.8719 -34.09067,-50.29199 C 303.39947,897.5129 30.894393,969.69854 0,625.13591 1.4062872,344.05383 257.56289,318.23138 453.90153,363.21476 528.08057,390.72966 585.59171,350.96274 588.25856,293.33948 574.17792,87.549117 367.51614,127.59936 267.35365,185.9706 212.65026,216.20773 151.67463,240.88848 124.55286,194.05775 98.210579,130.75339 121.779,95.72485 203.6744,57.55672 413.81682,-64.089691 742.70245,4.4540967 726.66099,288.33416 c 2.81998,319.64166 3.76176,307.36958 -3.98605,589.25096 -6.35982,69.96165 -136.9162,79.41789 -144.4146,-1.37365 z m -77.4027,-184.59135 c 42.85362,-14.92025 80.58742,-49.1215 80.0962,-86.2884 -4.69696,-37.31497 -19.7437,-80.92335 -82.41248,-88.4405 -188.45541,-29.45231 -364.08869,-58.11846 -358.86609,107.17463 3.22442,207.80032 225.26121,99.95567 361.18237,67.55427 z"
     id="path3951"
     inkscape:connector-curvature="0"
     sodipodi:nodetypes="cccccccccccccccc" />
</svg>
