<?xml version="1.0" encoding="UTF-8" standalone="no"?>
<!-- Created with Inkscape (http://www.inkscape.org/) -->

<svg
   xmlns:dc="http://purl.org/dc/elements/1.1/"
   xmlns:cc="http://creativecommons.org/ns#"
   xmlns:rdf="http://www.w3.org/1999/02/22-rdf-syntax-ns#"
   xmlns:svg="http://www.w3.org/2000/svg"
   xmlns="http://www.w3.org/2000/svg"
   xmlns:sodipodi="http://sodipodi.sourceforge.net/DTD/sodipodi-0.dtd"
   xmlns:inkscape="http://www.inkscape.org/namespaces/inkscape"
   id="svg3626"
   version="1.1"
   inkscape:version="0.91 r13725"
   width="1254.1753"
   height="930"
   viewBox="0 0 1254.1753 929.99999"
   sodipodi:docname="en_lower_m.svg">
  <metadata
     id="metadata3632">
    <rdf:RDF>
      <cc:Work
         rdf:about="">
        <dc:format>image/svg+xml</dc:format>
        <dc:type
           rdf:resource="http://purl.org/dc/dcmitype/StillImage" />
        <dc:title></dc:title>
      </cc:Work>
    </rdf:RDF>
  </metadata>
  <defs
     id="defs3630" />
  <sodipodi:namedview
     pagecolor="#ffffff"
     bordercolor="#666666"
     borderopacity="1"
     objecttolerance="10"
     gridtolerance="10"
     guidetolerance="10"
     inkscape:pageopacity="0"
     inkscape:pageshadow="2"
     inkscape:window-width="1723"
     inkscape:window-height="1000"
     id="namedview3628"
     showgrid="false"
     inkscape:zoom="0.1552462"
     inkscape:cx="603.38295"
     inkscape:cy="843.34759"
     inkscape:window-x="106"
     inkscape:window-y="0"
     inkscape:window-maximized="0"
     inkscape:current-layer="svg3626"
     fit-margin-top="0"
     fit-margin-left="0"
     fit-margin-right="0"
     fit-margin-bottom="0" />
  <path
     style="fill:#000000"
     d="M 563.38733,867.58251 C 561.40852,688.76726 557.11242,539.1375 557.28577,388.26803 551.12466,167.04144 272.10143,42.588915 146.87534,380.33266 c -8.47873,244.44283 4.3944,185.49355 -6.73715,507.74669 C 132.80668,948.48681 6.2626864,940.30863 2.3321962,884.66902 6.9431749,591.05816 0.89120792,525.29828 0.06816367,201.72726 1.1457804,159.38323 -0.90222207,92.519634 0.52873902,57.018027 0.80746662,-5.4702994 119.02486,-28.971026 140.79998,50.868362 147.2869,113.24486 141.22953,137.57321 144.96692,169.21622 257.96108,-56.296966 592.15334,25.944181 630.90383,217.27504 794.78758,-124.10565 1277.8747,62.867842 1248.874,400.34878 c 3.1265,252.4423 7.6665,189.74252 3.8374,455.83142 -8.6556,110.00026 -141.9189,80.76135 -137.8667,-2.22492 -2.2193,-345.82059 -1.1803,-191.13542 -7.8939,-455.3702 -27.8923,-287.36682 -362.85526,-298.11131 -405.65164,-8.13184 0.52939,206.63101 7.81748,331.98759 4.08794,479.37906 -8.99282,84.3754 -143.47769,68.30406 -141.99977,-2.24979 z"
     id="path3636"
     inkscape:connector-curvature="0"
     sodipodi:nodetypes="ccccccccccccccccc" />
</svg>
