<?xml version="1.0" encoding="UTF-8" standalone="no"?>
<!-- Created with Inkscape (http://www.inkscape.org/) -->

<svg
   xmlns:dc="http://purl.org/dc/elements/1.1/"
   xmlns:cc="http://creativecommons.org/ns#"
   xmlns:rdf="http://www.w3.org/1999/02/22-rdf-syntax-ns#"
   xmlns:svg="http://www.w3.org/2000/svg"
   xmlns="http://www.w3.org/2000/svg"
   xmlns:sodipodi="http://sodipodi.sourceforge.net/DTD/sodipodi-0.dtd"
   xmlns:inkscape="http://www.inkscape.org/namespaces/inkscape"
   id="svg5154"
   version="1.1"
   inkscape:version="0.91 r13725"
   width="1208.2709"
   height="930"
   viewBox="0 0 1208.2709 930.00001"
   sodipodi:docname="en_lower_w.svg">
  <metadata
     id="metadata5160">
    <rdf:RDF>
      <cc:Work
         rdf:about="">
        <dc:format>image/svg+xml</dc:format>
        <dc:type
           rdf:resource="http://purl.org/dc/dcmitype/StillImage" />
        <dc:title></dc:title>
      </cc:Work>
    </rdf:RDF>
  </metadata>
  <defs
     id="defs5158" />
  <sodipodi:namedview
     pagecolor="#ffffff"
     bordercolor="#666666"
     borderopacity="1"
     objecttolerance="10"
     gridtolerance="10"
     guidetolerance="10"
     inkscape:pageopacity="0"
     inkscape:pageshadow="2"
     inkscape:window-width="1541"
     inkscape:window-height="1035"
     id="namedview5156"
     showgrid="false"
     fit-margin-top="0"
     fit-margin-left="0"
     fit-margin-right="0"
     fit-margin-bottom="0"
     inkscape:zoom="0.44771242"
     inkscape:cx="125.00488"
     inkscape:cy="790.50043"
     inkscape:window-x="280"
     inkscape:window-y="0"
     inkscape:window-maximized="0"
     inkscape:current-layer="svg5154" />
  <path
     style="fill:#000000"
     d="M 224.80174,833.28964 C 128.78235,597.96768 61.209442,313.91136 1.9927803,116.97731 -15.233658,40.716899 91.164581,-1.2727615 123.04679,79.361962 183.73385,267.06554 257.49601,499.77809 314.05616,679.56076 c 7.92825,33.56649 11.94369,26.15543 22.31903,-0.98826 51.59837,-181.003 90.98409,-410.60248 161.9091,-571.56548 30.02785,-58.186662 38.66203,-83.030758 68.7093,-102.481839 8.75308,-5.46641004 9.0477,-3.63032295 13.4364,0.1667058 31.77347,16.2876962 54.06514,73.2428082 65.92326,94.7894492 83.55025,204.141424 165.63399,451.993804 257.21135,640.824674 2.84211,12.74707 4.814,7.12199 6.62135,-0.1014 21.78263,-30.98186 20.64845,-105.78552 59.83695,-80.05497 3.86314,2.69834 7.25682,-0.79645 9.51648,-9.79979 4.59194,-18.29559 -0.54214,-22.89093 -10.18843,-9.1191 -4.20825,6.00817 -13.37631,10.92392 -20.37349,10.92392 -10.33399,0 -12.18982,-2.1107 -9.88638,-11.2431 1.55975,-6.18373 5.42554,-13.21004 8.59075,-15.61407 4.03115,-3.06166 3.7088,-5.19649 -1.07616,-7.12702 -4.89952,-1.97667 -3.54848,-5.60314 4.77769,-12.82437 10.80016,-9.36696 10.90745,-10.074 1.54035,-10.14934 -6.68315,-0.0529 -7.92848,-1.44123 -3.70364,-4.12671 3.50079,-2.22498 7.99228,-14.68837 9.98133,-27.69609 1.98902,-13.00772 5.61619,-26.20764 8.06044,-29.33327 2.44403,-3.1255 3.43413,-10.9271 2.19959,-17.33668 -1.27545,-6.62293 -0.0423,-10.29289 2.85636,-8.50137 2.80522,1.73364 3.50327,5.73658 1.55129,8.89512 -2.12129,3.43237 -1.08604,4.22039 2.57348,1.95868 4.55798,-2.81686 4.60962,-6.61115 0.20105,-14.84693 -5.04629,-9.42904 -4.6171,-10.56266 2.90575,-7.67578 4.85466,1.86274 7.48337,1.21372 5.84162,-1.44265 -1.64159,-2.65637 1.21055,-5.92429 6.33881,-7.26197 7.19178,-1.87614 6.6397,-2.57242 -2.41475,-3.04578 -7.71032,-0.40316 -10.77031,-3.13643 -8.91727,-7.96537 1.631,-4.25037 7.14077,-6.222 13.06108,-4.67378 7.70845,2.01582 10.24005,-0.0494 10.24005,-8.35496 0,-7.63321 -2.4454,-10.09438 -7.9363,-7.98731 -5.50698,2.11317 -7.93631,-0.36684 -7.93631,-8.10237 8.9e-4,-6.13167 3.34948,-11.14819 7.44186,-11.14819 5.01605,0 6.46865,-3.71818 4.45746,-11.40906 -2.28601,-8.74119 -1.2423,-10.41551 4.46349,-7.16014 5.8071,3.3135 6.0816,2.77101 1.2469,-2.46272 -6.86969,-7.43661 -3.3897,-22.94133 4.1091,-18.30688 2.6049,1.61019 4.7365,0.40598 4.7365,-2.67577 0,-3.08176 -2.1005,-5.60314 -4.6674,-5.60314 -4.7379,0 4.9759,-33.81736 11.6231,-40.46456 1.9943,-1.9943 3.5896,-8.58624 3.545,-14.6487 -0.067,-9.24438 -0.9904,-9.74229 -5.7188,-3.08634 -4.2727,6.01474 -4.7921,4.10597 -2.1449,-7.88329 1.9209,-8.70081 6.2801,-17.62915 9.6869,-19.84077 4.6949,-3.0479 4.6351,-5.03145 -0.2469,-8.19521 -4.8574,-3.14772 -3.9008,-8.35194 3.8904,-21.1635 6.9787,-11.47562 8.2107,-17.01573 3.7961,-17.07048 -4.7832,-0.06 -4.6411,-1.28215 0.5298,-4.55968 3.886,-2.46326 6.8347,-6.00254 6.5526,-7.86504 -1.8825,-12.42945 7.1226,-44.94468 11.6692,-42.13476 3.0313,1.87353 3.8611,0.79994 1.8708,-2.42061 -4.6496,-7.52319 2.0081,-49.33989 7.3316,-46.04976 2.2377,1.38282 3.948,-2.82699 3.8011,-9.3552 -0.261,-11.6037 7.7657,-45.175166 15.3098,-74.590279 23.3752,-86.595547 143.3278,-55.36502 118.3812,31.469979 -4.7541,27.55956 -4.7592,30.11404 -10.5399,46.9159 -5.7807,16.80187 -9.3132,32.48588 -7.85,34.85337 1.4631,2.36749 0.4639,5.66186 -2.22,7.32082 -2.6842,1.65897 -3.5949,7.93215 -2.0239,13.94042 1.5714,6.00827 0.4063,16.12469 -2.5883,22.48094 -2.9947,6.35625 -8.5136,25.48996 -12.2644,42.51938 -3.7506,17.02941 -9.9385,32.15948 -13.7507,33.62237 -3.8122,1.46275 -5.7851,4.51439 -4.3842,6.78114 1.401,2.26661 -0.8712,15.4795 -5.0492,29.36177 -4.1779,13.88222 -7.2128,26.65872 -6.7443,28.39223 0.4688,1.73329 -2.2183,8.69484 -5.9704,15.4697 -3.7523,6.77482 -5.4554,15.88009 -3.7847,20.23388 1.6709,4.35379 -0.5269,11.48049 -4.8834,15.8371 -6.736,6.73595 -10.8094,25.90912 -8.5477,40.23321 0.3457,2.18266 -1.2828,3.96815 -3.6163,3.96815 -2.3336,0 -3.8329,9.52361 -3.3318,21.16353 0.703,16.32925 -1.0472,21.182 -7.6616,21.24447 -7.0537,0.067 -7.2555,0.91497 -1.1393,4.78715 6.1755,3.90967 5.4206,8.11757 -4.461,24.86562 -6.5419,11.08776 -12.3574,29.77068 -12.9232,41.51762 -0.5657,11.7469 -3.086,24.68636 -5.5999,28.75438 -2.5143,4.06794 -5.339,15.95293 -6.2774,26.41097 -2.825,31.4808 -7.6688,47.82335 -16.9159,57.07035 -5.9557,5.95573 -6.7911,9.4422 -2.5974,10.84016 7.9443,2.64825 -1.7436,32.67791 -13.818,42.83169 -4.5822,3.85324 -5.3551,5.49842 -1.7178,3.65589 8.9323,-4.52462 8.3388,3.03872 -1.3209,16.82973 -4.364,6.23036 -11.3499,24.02162 -15.5244,39.53605 -4.1745,15.51443 -7.8399,24.63674 -8.1453,20.27177 -0.3069,-4.36497 -4.48776,0.39681 -9.29416,10.58174 -8.72881,18.49693 -10.2516,23.26728 -11.40014,35.71339 -0.33509,3.63748 -3.13184,6.61359 -6.21342,6.61359 -3.08176,0 -4.14847,-2.35373 -2.37067,-5.23031 1.87191,-3.02884 -0.31745,-3.86798 -5.20227,-1.9936 -4.63907,1.78021 -7.55762,5.86793 -6.48565,9.0839 1.93469,5.80338 -1.25429,11.00703 -18.30452,29.87174 -8.47375,9.37546 -24.75634,9.50008 -38.75144,0.29629 -2.90998,-1.91353 -13.624,-4.18938 -23.80893,-5.05712 -10.18493,-0.86771 -19.7085,-3.29833 -21.16349,-5.40142 -4.25023,-6.14313 -22.14759,-11.5699 -18.45552,-5.59598 4.72116,7.63889 -11.09506,21.57237 -20.42382,17.99257 -12.19649,-4.68028 -14.59897,-17.16307 -4.55065,-23.64424 8.45774,-5.45514 8.44706,-5.64635 -0.16578,-2.97206 -6.74459,2.09412 -10.14433,-0.98093 -12.71908,-11.50501 -1.93258,-7.89969 -6.12355,-16.33006 -9.31296,-18.73406 -4.16691,-3.14066 -4.07983,-5.07881 0.3104,-6.88614 3.90001,-1.60596 1.55199,-7.43156 -6.49476,-16.11413 C 703.20031,606.94683 605.43183,342.37004 580.69911,300.11805 575.6388,290.3828 575.52102,285.3918 569.8246,300.5444 507.65858,564.14079 499.58034,638.86078 423.69636,828.78703 389.1994,917.14819 286.26249,968.67743 224.80174,833.28964 Z m 813.28886,-121.6129 c -1.7985,-2.90998 -6.1056,-5.25444 -9.5713,-5.20989 -3.7862,0.0459 -3.1336,2.12799 1.6349,5.20989 10.1644,6.56876 11.996,6.56876 7.9363,0 z m 2.1923,-74.95406 c -0.7341,-0.97 1.5318,-7.1206 5.0361,-13.66806 6.8328,-12.76719 6.141,-13.65722 -6.7653,-8.70465 -4.5862,1.7601 -7.0213,5.3313 -5.4113,7.93631 1.6102,2.60523 0.3104,4.7365 -2.8846,4.7365 -3.7402,0 -3.3802,2.63873 1.0105,7.40267 5.6409,6.1208 13.4068,8.09983 9.0145,2.2973 z m 5.744,-42.06964 c 0,-2.90998 -2.3809,-3.81941 -5.2909,-2.02076 -2.9099,1.79855 -5.2908,5.6508 -5.2908,8.56078 0,2.90998 2.3809,3.81944 5.2908,2.02111 2.91,-1.79854 5.2909,-5.65083 5.2909,-8.56081 z m 5.2909,-20.68519 c 0,-2.64685 -3.5577,-3.44753 -7.906,-1.77879 -4.3482,1.66874 -6.5645,5.20406 -4.9252,7.85659 3.4288,5.5479 12.8312,1.09415 12.8312,-6.0778 z m -26.4544,-81.86233 c 0,-4.4602 -4.7262,-7.93631 -10.7904,-7.93631 -9.0503,0 -9.6902,1.24724 -3.9681,7.73505 8.8734,10.0607 14.7585,10.14094 14.7585,0.20105 z m 66.1359,-39.68161 c 1.7986,-2.90998 -1.7728,-5.29087 -7.9363,-5.29087 -6.1634,0 -9.7348,2.38089 -7.9363,5.29087 1.7986,2.90998 5.3698,5.29087 7.9363,5.29087 2.5664,0 6.1379,-2.38089 7.9363,-5.29087 z m 2.6455,-12.91492 c 0,-5.58437 -10.1538,-7.93056 -13.1739,-3.04401 -1.8278,2.9576 0.3887,5.37718 4.9253,5.37718 4.5367,0 8.2486,-1.05006 8.2486,-2.33327 z m 3.3775,-21.47572 c -1.6751,-4.36497 -1.2493,-7.93631 0.9457,-7.93631 2.195,0 3.991,-4.76178 3.991,-10.58174 0,-12.6532 -5.9048,-13.91031 -10.3936,-2.21265 -5.1316,13.37279 -3.7202,28.66708 2.6455,28.66708 3.221,0 4.4864,-3.57134 2.8115,-7.93631 z m -35.1228,-61.54403 c 0,-2.18195 -2.7854,-5.68889 -6.19,-7.79299 -4.1377,-2.55726 -5.0914,-0.96259 -2.8764,4.80919 1.8221,4.74915 1.0366,10.042 -1.7464,11.76192 -2.783,1.71989 -4.9841,5.96275 -4.8915,9.42848 0.1763,6.63549 15.7043,-11.36564 15.7043,-18.2066 z m 51.8194,-7.99817 c -1.5418,-7.27396 -2.8722,-5.94352 -5.1301,5.13006 -1.9685,9.65489 -1.231,13.13381 2.0818,9.82102 2.8215,-2.82144 4.1933,-9.54949 3.0483,-14.95108 z m -11.9203,-129.21751 c 5.608,-9.0739 0.5859,-9.96425 -10.4961,-1.86084 -8.5823,6.2755 -8.8485,7.50373 -1.6268,7.50373 4.7495,0 10.2047,-2.5393 12.1228,-5.64288 z m -21.8471,-36.6211 c -3.4433,-3.44327 -5.5186,-1.36787 -6.0796,6.07964 -0.6416,8.51636 0.649,9.80681 5.2278,5.22787 4.0043,-4.00425 4.2951,-7.86426 0.8519,-11.30751 z m 77.1837,10.51874 c 0,-2.90998 -2.3809,-5.29087 -5.2908,-5.29087 -2.91,0 -5.2909,2.38089 -5.2909,5.29087 0,2.90998 2.3809,5.29087 5.2909,5.29087 2.9099,0 5.2908,-2.38089 5.2908,-5.29087 z"
     id="path5164"
     inkscape:connector-curvature="0"
     sodipodi:nodetypes="ccccccccccccssssscsccscccccccccssssccsccscssscccscsccscccsccscccccccscccccsscssscsssscsscscssccscscsssccccccccccccccccccscccssscsssscscsscccscscccscccssssccsccscsccsccsscccccccsssss" />
</svg>
