<?xml version="1.0" encoding="UTF-8" standalone="no"?>
<!-- Created with Inkscape (http://www.inkscape.org/) -->

<svg
   xmlns:dc="http://purl.org/dc/elements/1.1/"
   xmlns:cc="http://creativecommons.org/ns#"
   xmlns:rdf="http://www.w3.org/1999/02/22-rdf-syntax-ns#"
   xmlns:svg="http://www.w3.org/2000/svg"
   xmlns="http://www.w3.org/2000/svg"
   xmlns:sodipodi="http://sodipodi.sourceforge.net/DTD/sodipodi-0.dtd"
   xmlns:inkscape="http://www.inkscape.org/namespaces/inkscape"
   id="svg4707"
   version="1.1"
   inkscape:version="0.91 r13725"
   width="749.37109"
   height="934.49805"
   viewBox="0 0 749.37109 934.49804"
   sodipodi:docname="en_lower_e.svg">
  <metadata
     id="metadata4713">
    <rdf:RDF>
      <cc:Work
         rdf:about="">
        <dc:format>image/svg+xml</dc:format>
        <dc:type
           rdf:resource="http://purl.org/dc/dcmitype/StillImage" />
        <dc:title></dc:title>
      </cc:Work>
    </rdf:RDF>
  </metadata>
  <defs
     id="defs4711" />
  <sodipodi:namedview
     pagecolor="#ffffff"
     bordercolor="#666666"
     borderopacity="1"
     objecttolerance="10"
     gridtolerance="10"
     guidetolerance="10"
     inkscape:pageopacity="0"
     inkscape:pageshadow="2"
     inkscape:window-width="1664"
     inkscape:window-height="1044"
     id="namedview4709"
     showgrid="false"
     inkscape:zoom="0.48202614"
     inkscape:cx="126.68161"
     inkscape:cy="745.20148"
     inkscape:window-x="166"
     inkscape:window-y="0"
     inkscape:window-maximized="0"
     inkscape:current-layer="svg4707"
     fit-margin-top="0"
     fit-margin-left="0"
     fit-margin-right="0"
     fit-margin-bottom="0" />
  <path
     style="fill:#000000"
     d="M 1.6478478,435.55537 C 19.018061,287.54535 61.326408,25.744461 405.8554,2.9552207 677.59756,20.027298 729.71558,159.75243 745.17889,356.2447 c 7.05058,96.67546 -64.78586,91.80581 -86.89859,94.09089 -154.00783,7.94504 -403.48793,10.7108 -507.35847,4.75359 -13.63212,0.50141 -32.80154,-13.25425 -29.88577,13.67366 36.72768,339.19058 301.22615,387.49989 512.87249,295.23159 122.45179,-23.47171 107.71148,106.78324 45.72972,128.54972 C 107.72427,1057.5372 -6.6943137,679.75885 1.6478478,435.55537 Z M 585.65818,341.43331 c 14.88785,-3.96829 16.13679,-6.13871 15.74235,-27.35783 11.95468,-127.22161 -75.28847,-200.5118 -191.45479,-202.41598 -108.90042,0.93556 -198.95714,48.57107 -276.21375,215.77929 -4.73009,10.23744 -4.94041,22.18772 16.77233,24.40713 114.35889,0.41672 245.8999,20.6509 435.15386,-10.41261 z"
     id="path4717"
     inkscape:connector-curvature="0"
     sodipodi:nodetypes="cccccsccccccscc" />
</svg>
