<?xml version="1.0" encoding="UTF-8" standalone="no"?>
<!-- Created with Inkscape (http://www.inkscape.org/) -->

<svg
   xmlns:dc="http://purl.org/dc/elements/1.1/"
   xmlns:cc="http://creativecommons.org/ns#"
   xmlns:rdf="http://www.w3.org/1999/02/22-rdf-syntax-ns#"
   xmlns:svg="http://www.w3.org/2000/svg"
   xmlns="http://www.w3.org/2000/svg"
   xmlns:sodipodi="http://sodipodi.sourceforge.net/DTD/sodipodi-0.dtd"
   xmlns:inkscape="http://www.inkscape.org/namespaces/inkscape"
   id="svg3626"
   version="1.1"
   inkscape:version="0.91 r13725"
   width="1261.0392"
   height="930"
   viewBox="0 0 1261.0392 929.99999"
   sodipodi:docname="en_lower_m.svg">
  <metadata
     id="metadata3632">
    <rdf:RDF>
      <cc:Work
         rdf:about="">
        <dc:format>image/svg+xml</dc:format>
        <dc:type
           rdf:resource="http://purl.org/dc/dcmitype/StillImage" />
        <dc:title></dc:title>
      </cc:Work>
    </rdf:RDF>
  </metadata>
  <defs
     id="defs3630" />
  <sodipodi:namedview
     pagecolor="#ffffff"
     bordercolor="#666666"
     borderopacity="1"
     objecttolerance="10"
     gridtolerance="10"
     guidetolerance="10"
     inkscape:pageopacity="0"
     inkscape:pageshadow="2"
     inkscape:window-width="1723"
     inkscape:window-height="1000"
     id="namedview3628"
     showgrid="false"
     inkscape:zoom="0.3104924"
     inkscape:cx="881.88327"
     inkscape:cy="1105.3822"
     inkscape:window-x="106"
     inkscape:window-y="0"
     inkscape:window-maximized="0"
     inkscape:current-layer="svg3626"
     fit-margin-top="0"
     fit-margin-left="0"
     fit-margin-right="0"
     fit-margin-bottom="0" />
  <path
     style="fill:#000000"
     d="m 574.53214,874.91014 c -2.3867,-61.2635 -6.53934,-102.15566 -5.98323,-159.67068 3.07632,0 4.05519,-4.1208 6.11384,-25.73612 0.53908,-5.66194 2.54307,-10.29445 4.45269,-10.29445 7.00307,0 1.76001,-18.27504 -7.75265,-27.02292 -5.38739,-4.95421 -7.28064,-9.00764 -4.20727,-9.00764 3.07324,0 7.24204,-5.21157 9.2637,-11.58126 3.61634,-11.39403 2.33204,-17.64201 -3.24412,-15.78328 -1.55961,0.51987 -5.63268,-3.53356 -9.05126,-9.00764 -5.09822,-8.1635 -4.83963,-9.95284 1.43848,-9.95284 6.35322,0 6.62907,-2.24968 1.62309,-13.23664 -4.6756,-10.26181 -4.61161,-14.11396 0.28481,-17.14001 3.47359,-2.14674 4.83637,-7.75831 3.02828,-12.46991 -1.80804,-4.71156 -5.2119,-7.377 -7.56429,-5.92318 -2.35228,1.45392 -2.13918,-4.81073 0.47355,-13.92129 3.42874,-11.95487 2.97852,-17.69022 -1.6176,-20.60938 -4.39934,-2.79425 -3.38859,-4.06912 3.26951,-4.12358 7.04913,-0.0583 8.24085,-1.80702 4.43681,-6.51285 -2.86049,-3.53871 -3.69392,-54.06805 -3.34192,-157.31724 17.99543,-205.07432 -350.78837,-363.31665 -447.00061,-12.76466 -8.47686,244.3889 3.25474,232.13875 -7.87435,554.32079 C 103.94971,947.54949 7.2822401,943.06547 3.3526171,887.43813 7.9625785,593.89206 1.9119468,528.14669 1.0890841,204.64706 2.1664631,162.31237 0.11891247,95.463525 1.5495578,59.969751 1.8282239,-2.5047872 81.314036,-32.108197 103.08434,47.713575 109.56983,110.07631 103.5138,134.39929 107.25036,166.03532 220.21959,-59.428108 593.04363,28.902762 631.78557,220.19141 678.3557,191.44171 733.30619,30.149739 765.86722,54.946605 c 6.37086,6.37086 2.89171,11.74229 -7.60581,11.74229 -5.92315,0 -16.92534,4.85766 -24.44932,10.7948 -17.89203,12.877045 -12.52832,10.613115 5.94007,7.69838 12.55425,-1.98133 18.46917,-1.23471 16.42476,2.07327 -5.70855,9.23654 16.0989,5.45357 27.98415,-4.85447 6.35689,-5.51328 14.0768,-10.86375 17.15529,-11.88993 3.07838,-1.02618 4.10519,-5.7544 2.28125,-10.50716 -2.68616,-7.00007 -5.86725,-7.67139 -16.74838,-3.53439 -11.32873,4.30719 -13.1713,3.76355 -11.76487,-3.47122 0.91723,-4.71802 7.45819,-9.25879 14.53562,-10.09058 7.07743,-0.8318 18.53876,-2.19097 25.4696,-3.02039 6.93084,-0.82943 20.51879,-10.19398 30.19547,-20.81013 19.06854,-20.9198603 36.01193,-24.6870003 49.65815,-11.0408203 9.38775,9.3877703 43.94628,5.9460003 43.94628,-4.37672 0,-8.11373 10.63502,2.59918 12.0827,12.1712003 1.82898,12.09343 8.73971,19.97482 17.51459,19.97482 7.03849,0 6.78055,-1.21056 -1.59049,-7.46482 -9.74857,-7.28342 -9.72715,-7.39843 0.88086,-4.73227 8.15063,2.04849 11.83069,-0.2704 14.70044,-9.26365 3.08799,-9.6769203 4.28249,-10.3098703 6.17856,-3.27388 1.41343,5.24445 5.42301,7.54332 10.05613,5.76543 4.46423,-1.7131 14.07193,3.14238 22.84003,11.54273 8.3239,7.97482 15.2048,12.32914 15.2909,9.67626 0.086,-2.65288 2.4635,-0.86618 5.2834,3.97044 2.8196,4.83662 8.2355,7.60093 12.0351,6.14291 4.1421,-1.58949 8.2095,2.10282 10.1581,9.22142 2.7023,9.87182 4.1041,10.57138 8.3185,4.15154 4.3392,-6.60982 5.0799,-6.42465 5.1474,1.28681 0.072,8.20143 5.944,11.44321 17.1898,9.48964 2.3338,-0.40539 2.6807,1.79069 0.7714,4.88016 -1.9092,3.08947 0.8136,8.75834 6.0515,12.59747 8.3538,6.12317 10.0107,5.67335 13.4941,-3.66337 4.3772,-11.7325 9.7699,-9.40498 11.2207,4.84292 2.0751,20.378455 9.4896,37.480275 16.2496,37.480275 4.5868,0 7.1629,5.76931 7.1629,16.04172 0,14.28324 1.3935,15.77534 12.7123,13.61161 6.9917,-1.33656 11.5948,-0.62202 10.229,1.58785 -4.1861,6.77314 9.0773,30.41357 15.1287,26.96527 3.1247,-1.7806 3.9361,-1.31381 1.8029,1.03734 -2.133,2.35111 -0.3431,9.67122 3.9791,16.26689 4.3216,6.59568 6.5645,11.99214 4.9842,11.99214 -1.5802,0 -0.6623,4.1316 2.0403,9.18134 7.8859,14.73486 12.3803,51.44504 12.9486,105.76456 0.4619,44.12973 1.8462,51.62848 10.8168,58.59875 6.3804,4.9575 7.2347,6.95544 2.2494,5.26074 -6.3503,-2.15875 -7.5785,0.39771 -5.8499,12.17558 1.3846,9.43493 5.2805,14.93694 10.6115,14.9868 6.8227,0.0652 7.0684,0.93714 1.2927,4.59475 -4.5659,2.89172 -5.9879,9.06934 -3.9533,17.17561 1.7476,6.96278 4.6091,21.68796 6.3591,32.72262 1.7501,11.03461 4.7502,21.22107 6.6672,22.63656 1.9172,1.41549 3.3149,8.9433 3.1059,16.72848 -0.2093,7.78518 1.6021,14.15487 4.0239,14.15487 2.4219,0 2.972,2.31625 1.2223,5.14722 -1.7497,2.83097 -1.3757,8.04254 0.8307,11.58125 7.0866,11.36524 5.746,29.59654 -2.1762,29.59654 -4.5312,0 -6.3095,3.04166 -4.5139,7.72083 1.6296,4.24646 0.7192,7.72084 -2.0229,7.72084 -2.7421,0 -4.9857,-4.49579 -4.9857,-9.99066 0,-5.49487 -2.4092,-11.47958 -5.3535,-13.29933 -3.5229,-2.17727 -4.1096,1.64746 -1.7157,11.18544 2.0009,7.97174 3.6378,17.53051 3.6378,21.24166 0,3.90644 3.4316,5.56532 8.1498,3.93983 6.4228,-2.21297 6.241,-1.32147 -0.8579,4.20638 -10.2749,8.00084 -12.3136,16.19371 -2.5736,10.34214 4.9056,-2.9473 5.0723,-2.10247 0.7017,3.55663 -3.1528,4.08216 -5.6621,11.782 -5.5762,17.11078 0.1441,8.86736 0.6867,8.96362 6.4106,1.13548 5.3462,-7.31146 6.6781,-7.44855 9.174,-0.94435 1.657,4.31842 -3.3186,14.28726 -11.5064,23.05205 -10.0668,10.77661 -12.421,16.21263 -7.7908,17.98941 3.6495,1.40039 7.688,-0.21961 8.9747,-3.59869 2.9439,62.28084 15.9775,103.83172 14.3531,181.3231 -8.6537,109.97599 -151.9404,79.27132 -147.8891,-3.69664 2.6512,-57.2964 -4.0822,-141.46119 8.025,-176.04984 2.9981,0 5.451,-3.61108 5.451,-8.02462 0,-4.41354 -2.3162,-6.59308 -5.1472,-4.84344 -2.831,1.74972 -5.1472,0.72817 -5.1472,-2.26992 0,-2.99809 2.3162,-5.45101 5.1472,-5.45101 2.831,0 4.5682,-2.79014 3.8604,-6.20008 -0.7079,-3.4102 1.967,-6.30535 5.9434,-6.43403 11.0856,-0.35893 10.5257,-14.48346 -1.0295,-25.97008 -5.6957,-5.66194 -8.7052,-7.39913 -6.6877,-3.86041 2.0174,3.53871 1.2154,6.43403 -1.7827,6.43403 -2.998,0 -5.451,-4.71397 -5.451,-10.47553 0,-8.76185 1.6286,-9.6039 9.9561,-5.14723 14.4802,7.74956 24.6844,6.6369 13.5824,-1.48102 -9.2586,-6.77008 -14.2394,-24.18805 -14.5663,-50.9392 -0.096,-7.84128 -2.4,-12.61955 -5.2394,-10.86475 -2.7877,1.72294 -3.9275,-0.0858 -2.5331,-4.01813 1.3942,-3.93279 -0.6808,-13.52022 -4.6117,-21.30539 -3.9307,-7.78518 -5.3501,-14.0812 -3.1542,-13.99119 6.8194,0.27795 24.3374,15.27799 17.8444,15.27799 -3.3721,0 -6.131,2.45283 -6.131,5.45102 0,2.99808 2.3163,4.01946 5.1472,2.26992 2.831,-1.74971 5.1473,-0.59159 5.1473,2.57361 0,3.1652 2.2287,4.37727 4.9531,2.69372 3.1113,-1.92301 2.8313,-7.71806 -0.7525,-15.58405 -3.1381,-6.8876 -7.541,-11.38864 -9.784,-10.00239 -2.2432,1.38632 -6.166,-1.21029 -8.7177,-5.76983 -2.5516,-4.55962 -6.7475,-8.66182 -9.324,-9.11591 -2.5763,-0.45399 -4.2974,-10.79397 -3.8243,-22.97755 0.7285,-18.75645 -0.2779,-21.20818 -6.5584,-15.99497 -4.0803,3.38619 -9.0999,4.35164 -11.1547,2.14502 -2.0547,-2.20644 -0.8263,-5.05062 2.7301,-6.32034 3.5564,-1.26965 4.9357,-4.78486 3.065,-7.81143 -2.0101,-3.25236 -0.9707,-4.00101 2.5417,-1.83035 3.2685,2.02011 5.9425,1.29229 5.9425,-1.61692 0,-2.90921 3.3917,-3.98796 7.5371,-2.39723 5.9245,2.27336 7.0735,-0.78959 5.3706,-14.31639 -4.8741,-38.71694 -8.9302,-55.92826 -13.9051,-59.00287 -3.3069,-2.04379 -2.6649,-4.88115 1.7346,-7.66898 5.4401,-3.44707 4.9928,-4.44244 -2.0242,-4.50383 -4.9542,-0.0446 -9.0077,-2.48645 -9.0077,-5.42898 0,-3.09108 -2.9878,-2.5592 -7.0759,1.25969 -7.6002,7.09975 -5.4756,17.80275 5.7972,29.20344 3.8599,3.90375 5.7993,10.27344 4.3099,14.15486 -1.4896,3.88146 -0.4646,7.05719 2.2775,7.05719 2.7421,0 4.9857,4.48855 4.9857,9.97453 0,6.60828 -3.2832,9.72723 -9.7289,9.24171 -6.1405,-0.46257 -8.695,-3.42737 -6.9256,-8.03812 1.5417,-4.01788 -1.1304,-9.50668 -5.9384,-12.19734 -5.9033,-3.30383 -7.6537,-8.31983 -5.391,-15.44908 2.5431,-8.01183 1.6667,-9.54292 -3.6348,-6.35075 -5.7852,3.48354 -5.7717,2.70984 0.079,-4.50266 6.0551,-7.46591 5.9364,-8.70917 -0.8321,-8.70917 -13.1583,0 -6.4593,-16.32209 9.6084,-23.41092 13.1727,-5.81166 13.6405,-6.6883 3.7645,-7.0544 -6.2026,-0.22991 -12.709,1.89829 -14.4586,4.7292 -1.7497,2.83097 -5.7468,5.14722 -8.8825,5.14722 -3.1357,0 -4.2495,-1.45186 -2.4751,-3.22628 1.7744,-1.77442 -0.2162,-9.8813 -4.4215,-18.01528 -4.8405,-9.3603 -5.5983,-14.78901 -2.0647,-14.78901 3.0708,0 4.1161,-2.37356 2.3231,-5.27478 -1.793,-2.90097 -1.3507,-4.94305 0.9831,-4.53769 10.0224,1.74114 11.4058,-1.2796 6.498,-14.18822 -3.7456,-9.85148 -3.4967,-15.28002 0.8849,-19.30209 4.5327,-4.16075 5.3639,-3.49607 3.2411,2.59177 -1.5703,4.50318 -0.7886,11.45193 1.7373,15.44167 3.3927,5.35919 4.6128,3.82552 4.671,-5.87136 0.041,-7.21898 -2.7005,-15.90492 -6.0978,-19.30209 -4.8041,-4.80407 -4.2036,-6.17667 2.7023,-6.17667 5.7613,0 9.9709,5.45959 11.9887,15.54878 3.9338,19.66938 12.2846,25.65247 8.977,6.4318 -4.372,-25.40543 -7.5946,-31.79937 -14.6607,-29.08786 -8.9159,3.42136 -15.2241,-6.42963 -7.2666,-11.34764 3.7637,-2.32614 4.6475,-1.49342 2.3536,2.21794 -2.0201,3.26838 -2.4593,5.94251 -0.9762,5.94251 1.4831,0 4.9933,-4.29205 7.8008,-9.53789 4.4749,-8.36155 3.4507,-9.22175 -8.3047,-6.97455 -9.3323,1.78396 -12.2861,0.74593 -9.7151,-3.41412 2.0318,-3.2876 5.8505,-4.64487 8.4859,-3.01614 2.6354,1.62876 4.7916,-2.96596 4.7916,-10.21048 0,-7.24451 -1.9979,-13.17184 -4.4395,-13.17184 -2.4415,0 -3.8037,-5.79062 -3.0269,-12.86806 0.7769,-7.07743 -0.6997,-12.86806 -3.2815,-12.86806 -2.5819,0 -4.694,5.92733 -4.694,13.17184 0,7.2445 -1.9302,11.97889 -4.2893,10.52087 -2.3592,-1.45804 -4.2894,0.7215 -4.2894,4.84345 0,4.12192 1.9302,7.49441 4.2894,7.49441 10.3242,0 3.0739,8.14973 -8.0708,9.0721 -9.9895,0.82675 -11.8488,-0.93233 -9.6941,-9.1718 1.9765,-7.5583 0.1,-10.19475 -7.2583,-10.19475 -5.4583,0 -14.8966,-4.6325 -20.97394,-10.29444 -6.0774,-5.66195 -12.47018,-10.29445 -14.20631,-10.29445 -1.73599,0 -6.63086,-3.47438 -10.87732,-7.72084 -4.24646,-4.24646 -12.32455,-7.72084 -17.95139,-7.72084 -5.62681,0 -8.99755,-1.99499 -7.49062,-4.43328 1.50814,-2.43811 -8.59143,-3.75424 -22.44189,-2.92452 -18.88805,1.1315 -25.94085,-0.46706 -28.21571,-6.39522 -1.66805,-4.34708 -6.00579,-6.763 -9.63921,-5.36872 -3.63349,1.39428 -11.00538,-0.68163 -16.38207,-4.61317 -13.11808,-9.59216 -15.76924,-9.04338 -16.71105,3.45913 -0.43957,5.83406 -7.00365,15.48797 -14.58713,21.45312 -7.58344,5.96515 -17.15395,18.9013 -21.26774,28.74698 -8.81943,21.10784 -19.32914,32.79755 -24.93717,27.73703 -2.2037,-1.9884 -2.552,0.43814 -0.77449,5.39233 1.77785,4.95421 0.98861,9.00764 -1.75349,9.00764 -2.74209,0 -4.9857,-2.75894 -4.9857,-6.13101 0,-3.37205 -3.31241,-1.63486 -7.36111,3.86042 -4.04864,5.49529 -5.20677,10.76351 -2.57362,11.70717 2.63298,0.94366 4.7875,3.97567 4.7875,6.7378 0,2.76214 -2.31625,3.59055 -5.14722,1.84093 -2.83097,-1.74965 -5.14722,1.58805 -5.14722,7.41706 0,6.63203 -3.37075,10.62772 -9.00765,10.67704 -7.39748,0.0649 -7.68665,0.91469 -1.61794,4.75492 6.42168,4.06346 6.42168,5.86533 0,13.75296 -6.58018,8.08227 -6.41114,8.71013 1.54245,5.72996 7.75601,-2.90612 8.09974,-2.0136 2.61033,6.77635 -6.21294,9.94849 -6.47624,9.92299 -15.25188,-1.47725 l -8.92944,-11.60047 -0.11323,14.09602 c -0.10638,13.01954 -39.80856,14.0919 -48.62432,55.65253 -7.41252,63.83909 -21.18593,123.49672 6.57342,178.47444 3.88999,7.26856 3.74525,11.81339 -0.51164,16.07045 -4.48289,4.48289 -4.23912,7.51062 0.99616,12.36981 5.63384,5.22927 6.15395,4.98835 2.77779,-1.28681 -2.41645,-4.49157 -2.22532,-5.95784 0.45741,-3.50577 6.26627,5.7278 7.33325,34.38912 1.28029,34.38912 -2.66695,0 -3.62097,1.98648 -2.12031,4.41443 1.50058,2.42777 0.64065,11.69288 -1.91065,20.5889 -3.23383,11.27612 -2.89068,16.17446 1.13307,16.17446 3.17447,0 1.50059,3.12299 -3.71935,6.94 -6.28376,4.59483 -8.02167,9.37801 -5.14293,14.15487 3.6361,6.03354 2.86666,6.01227 -4.69901,-0.1304 -8.43475,-6.84779 -8.85741,-5.80267 -6.2443,15.44168 1.54142,12.53263 4.2023,40.1585 5.91282,61.3908 15.78208,67.50003 10.81187,80.7737 9.30426,150.48733 -4.15979,75.90247 -120.6723,69.42768 -119.19471,-1.11061 z M 1131.1988,671.48789 c -1.6296,-4.24646 -3.873,-7.72084 -4.9857,-7.72084 -1.1125,0 -2.0228,3.47438 -2.0228,7.72084 0,4.24646 2.2435,7.72083 4.9857,7.72083 2.7421,0 3.6524,-3.47437 2.0228,-7.72083 z m -529.72354,-8.16041 c -1.65707,-2.68171 -5.20718,-3.51957 -7.88874,-1.86227 -2.68136,1.65741 -3.51957,5.20717 -1.86227,7.88874 1.65741,2.68136 5.20721,3.51957 7.88874,1.86227 2.6817,-1.65741 3.51957,-5.20721 1.86227,-7.88874 z m -15.16994,-15.0021 c -1.74971,-2.83098 -5.49741,-5.14723 -8.32838,-5.14723 -2.83097,0 -3.71571,2.31625 -1.9659,5.14723 1.74972,2.83097 5.49738,5.14722 8.32835,5.14722 2.83097,0 3.71575,-2.31625 1.9659,-5.14722 z m 4.065,-46.32502 c 1.48069,-5.66195 0.59262,-10.29445 -1.9731,-10.29445 -2.56606,0 -4.66534,4.6325 -4.66534,10.29445 0,5.66195 0.88807,10.29445 1.9731,10.29445 1.08538,0 3.18476,-4.6325 4.66534,-10.29445 z m 44.83363,-25.73612 c 0,-2.83097 -2.17968,-5.14722 -4.84343,-5.14722 -2.66386,0 -6.27498,2.31625 -8.02463,5.14722 -1.74971,2.83097 0.42997,5.14722 4.84344,5.14722 4.41353,0 8.02462,-2.31625 8.02462,-5.14722 z m -52.88749,-25.73612 c -0.42653,-5.66194 -3.77655,-10.29444 -7.44456,-10.29444 -5.3806,0 -5.427,1.98888 -0.24021,10.29444 3.53594,5.66195 6.88599,10.29445 7.44457,10.29445 0.55864,0 0.66674,-4.6325 0.2402,-10.29445 z m 59.89609,-2.57361 c 1.62961,-4.24646 0.9766,-7.72083 -1.45083,-7.72083 -2.42743,0 -4.09208,-3.7815 -3.6989,-8.40336 0.39325,-4.6219 -3.33849,-9.04944 -8.29273,-9.83902 -11.30203,-1.80119 -12.46685,17.23805 -1.31631,21.5169 4.23019,1.62344 6.40973,5.02496 4.84343,7.55925 -1.56613,2.53449 -0.64272,4.60789 2.05237,4.60789 2.69509,0 6.23356,-3.47437 7.86297,-7.72083 z m 578.45175,-39.82606 c 0.6818,-9.05088 -0.1682,-9.87739 -3.9731,-3.86042 -5.9502,9.41112 -6.3174,15.37675 -0.9464,15.37675 2.2284,0 4.4423,-5.18236 4.9195,-11.51633 z m -581.98004,-0.0652 c 0.0257,-3.53872 1.72261,-12.22466 3.76866,-19.30209 2.55783,-8.84839 2.17934,-10.641 -1.21131,-5.73864 -3.99188,5.77148 -6.05138,5.03614 -10.8127,-3.86042 -3.23486,-6.04442 -8.13598,-10.98984 -10.89132,-10.98984 -3.10618,0 -3.2479,3.42256 -0.37266,9.00764 2.55027,4.95421 7.15282,15.37733 10.22774,23.16251 6.03728,15.28547 9.21428,17.92538 9.29159,7.72084 z m 473.55884,-37.0165 c -0.5604,-10.78007 -2.7795,-15.87301 -5.6686,-13.0103 -7.0953,7.03029 -6.8243,30.72471 0.3517,30.72471 3.856,0 5.8865,-6.76452 5.3169,-17.71441 z m -463.6796,-3.66949 c 2.02012,-3.26849 1.55206,-4.63189 -1.03974,-3.03 -2.5918,1.60181 -9.31942,-0.64615 -14.95018,-4.99521 -10.04978,-7.76257 -10.02514,-7.85748 1.34343,-5.17265 6.36969,1.50436 11.58125,0.63551 11.58125,-1.93021 1.4e-4,-2.56607 -4.73393,-4.66552 -10.51996,-4.66552 -5.78603,0 -9.85519,-2.89548 -9.04254,-6.43403 0.81257,-3.53871 -0.68836,-6.43403 -3.33575,-6.43403 -2.64739,0 -5.39563,5.46272 -6.10742,12.13939 -0.89081,8.35491 1.82418,12.95488 8.70852,14.7552 5.50156,1.43882 10.00281,4.66188 10.00281,7.16267 0,6.54422 9.03591,5.60029 13.35958,-1.39558 z m 561.1073,-1.62927 c -1.7606,-11.99636 -6.041,-13.55429 -6.8736,-2.50155 -0.4173,5.54047 1.2086,10.07356 3.6131,10.07356 2.4044,0 3.8717,-3.40746 3.2606,-7.57201 z M 645.4984,434.71561 c 0,-4.24646 -0.91037,-7.72083 -2.02286,-7.72083 -1.11249,0 -3.35599,3.47437 -4.9857,7.72083 -1.62962,4.24646 -0.71924,7.72084 2.02286,7.72084 2.74209,0 4.9857,-3.47438 4.9857,-7.72084 z m 549.0472,-9.0179 c 0.6352,-12.23721 -0.1613,-14.05058 -2.9724,-6.76544 -2.6381,6.83726 -5.0189,8.04569 -7.6055,3.86042 -2.0713,-3.35085 -6.3489,-6.09236 -9.5062,-6.09236 -3.1573,0 -0.302,5.79063 6.3482,12.86806 6.6489,7.07743 12.2642,12.86343 12.4785,12.8578 0.2127,-0.006 0.7799,-7.53341 1.2573,-16.72848 z m -13.7359,-35.03729 c 0,-5.82903 -2.3162,-9.16669 -5.1472,-7.41705 -2.831,1.74972 -5.1472,0.72816 -5.1472,-2.26992 0,-2.99809 -2.2665,-5.45098 -5.0369,-5.45098 -3.064,0 -2.7404,5.04016 0.8263,12.86806 7.1068,15.59801 14.505,16.75572 14.505,2.26992 z m -89.1339,-62.42801 c -1.643,-4.10611 -2.8629,-2.88656 -3.1099,3.10961 -0.2231,5.42603 0.993,8.46609 2.7033,6.75573 1.7102,-1.71025 1.8931,-6.14987 0.4066,-9.86534 z m -32.2554,-16.31347 c -4.0185,-10.47181 -10.7228,-11.074 -10.7228,-0.96322 0,4.12193 1.9302,6.3015 4.2894,4.84347 2.3591,-1.45804 4.2893,0.18873 4.2893,3.65789 0,3.46988 1.2127,5.09623 2.6948,3.61411 1.482,-1.48206 1.2343,-6.50067 -0.5508,-11.15225 z m 28.9405,-5.3547 c -2.5802,-6.78632 -3.5845,-13.44556 -2.2319,-14.79825 1.3527,-1.35269 -3.2664,-2.45935 -10.2648,-2.45935 -10.9915,0 -11.9319,1.26897 -6.9051,9.31809 3.2005,5.12494 7.6719,8.17309 9.9362,6.77367 2.2645,-1.39936 4.117,1.0665 4.117,5.48014 0,4.41354 2.259,8.02463 5.0199,8.02463 3.1703,0 3.2914,-4.54637 0.3294,-12.33882 z M 748.44288,221.10583 c 0,-2.83098 -1.02155,-5.14723 -2.26992,-5.14723 -1.24838,0 -3.70137,2.31625 -5.45102,5.14723 -1.74971,2.83097 -0.72816,5.14722 2.26993,5.14722 2.99809,0 5.45101,-2.31625 5.45101,-5.14722 z m 11.86274,-26.03029 c 2.27199,-8.68835 1.45598,-9.49898 -4.54685,-4.51697 -8.18841,6.79577 -9.71168,15.10559 -2.76886,15.10559 2.50086,0 5.79292,-4.76488 7.31571,-10.58862 z m 49.86092,-51.04257 c 6.53893,-4.13403 6.61779,-5.84026 0.53188,-11.50243 -5.34021,-4.96821 -6.22814,-5.02237 -3.51366,-0.21447 2.40821,4.26543 -0.0412,6.43403 -7.26946,6.43403 -5.99611,0 -9.47048,2.31626 -7.72084,5.14723 3.9286,6.35666 8.08258,6.38798 17.97208,0.13554 z m 251.42116,-1.33 c 6.136,2.35458 5.6535,0.49893 -1.914,-7.36079 -11.0686,-11.49616 -33.2807,-19.09815 -33.2807,-11.39019 0,2.6548 3.4744,6.16013 7.7208,7.78965 4.2465,1.62951 7.7209,6.65258 7.7209,11.16235 0,6.06015 1.5067,6.69291 5.7744,2.42513 3.1759,-3.17594 9.4663,-4.35772 13.9786,-2.62615 z M 828.22486,123.30856 c -1.74972,-2.83097 -5.49741,-5.14722 -8.32838,-5.14722 -2.83098,0 -3.71572,2.31625 -1.9659,5.14722 1.74971,2.83098 5.49737,5.14723 8.32838,5.14723 2.83097,0 3.71571,-2.31625 1.9659,-5.14723 z M 737.28425,102.7386 c 0.95876,-2.876645 4.21969,-3.699855 7.24633,-1.82932 3.36217,2.07786 3.98968,0.95258 1.61348,-2.892425 -2.13953,-3.4614 -6.84752,-5.15841 -10.46269,-3.77116 -47.40642,-3.935145 -7.77942,29.970825 1.60288,8.492905 z m 42.04198,0.14275 c 0,-2.74213 -3.47438,-3.652435 -7.72084,-2.02293 -4.24646,1.62951 -7.72083,3.87308 -7.72083,4.98568 0,1.11259 3.47437,2.02293 7.72083,2.02293 4.24646,0 7.72084,-2.24354 7.72084,-4.98568 z M 966.94255,77.413725 c -5.19774,-5.01404 -15.40451,-7.23658 -28.05237,-6.10844 -6.86297,0.61215 -6.86297,1.24309 0,5.67827 9.99086,6.45657 34.69222,6.83536 28.05237,0.43017 z M 820.50402,51.247435 c 0,-2.83098 -4.76921,-5.14723 -10.59824,-5.14723 -5.82902,0 -9.16669,2.31625 -7.41704,5.14723 1.74971,2.83097 6.51885,5.14722 10.59823,5.14722 4.07939,0 7.41705,-2.31625 7.41705,-5.14722 z m 176.29243,1.73832 c -3.53872,-1.42791 -6.43403,-7.03567 -6.43403,-12.4617 0,-5.42604 -2.31625,-9.86552 -5.14723,-9.86552 -5.75034,0 -7.0553,16.96506 -1.71574,22.30464 1.88732,1.88731 7.09888,3.24861 11.58126,3.02512 5.31579,-0.26525 5.91249,-1.30911 1.71574,-3.00255 z M 1098.8605,645.32286 c 0.247,-5.99627 1.4666,-7.21589 3.1096,-3.10995 1.4868,3.71565 1.304,8.15513 -0.406,9.86555 -1.7106,1.71025 -2.927,-1.3297 -2.7036,-6.7556 z m 117.9798,-306.13469 c 0,-5.82902 2.3162,-9.16669 5.1472,-7.41704 2.831,1.74971 5.1472,6.51882 5.1472,10.5982 0,4.07938 -2.3162,7.41708 -5.1472,7.41708 -2.831,0 -5.1472,-4.76921 -5.1472,-10.59824 z m -178.2047,-93.63304 c -6.4302,-19.12981 -6.5726,-25.13294 -0.5487,-23.12495 3.1466,1.04891 6.5641,9.28692 7.5941,18.30667 2.1759,19.05354 -1.4313,21.5204 -7.0454,4.81828 z"
     id="path3636"
     inkscape:connector-curvature="0"
     sodipodi:nodetypes="cccsssssssssscccccccccccccccscccsccscsssssssssscssccssscsscssssscsccscsssccccsccsssscssccscscccccssccccscssccscsssscccccsscscscccscccscssssccssscssssccscsssssscsscssscccssssssssscsssssssssssssssscscsscssccssscsssccssscccccccccsssssscsccccssccccsccscsccssscsscssccssssscsccscsccscccsscscccsccssccscsccscccsssscsscccscccscsscsscsscscscccsscsscscssscssssscsscsccssssscsssscssscsscccccccsccsssscssssssssssscsscssssscsscss" />
</svg>
