<?xml version="1.0" encoding="UTF-8" standalone="no"?>
<!-- Created with Inkscape (http://www.inkscape.org/) -->

<svg
   xmlns:dc="http://purl.org/dc/elements/1.1/"
   xmlns:cc="http://creativecommons.org/ns#"
   xmlns:rdf="http://www.w3.org/1999/02/22-rdf-syntax-ns#"
   xmlns:svg="http://www.w3.org/2000/svg"
   xmlns="http://www.w3.org/2000/svg"
   xmlns:sodipodi="http://sodipodi.sourceforge.net/DTD/sodipodi-0.dtd"
   xmlns:inkscape="http://www.inkscape.org/namespaces/inkscape"
   id="svg4832"
   version="1.1"
   inkscape:version="0.91 r13725"
   width="454.96396"
   height="930"
   viewBox="0 0 454.96396 929.99999"
   sodipodi:docname="en_lower_f.svg">
  <metadata
     id="metadata4838">
    <rdf:RDF>
      <cc:Work
         rdf:about="">
        <dc:format>image/svg+xml</dc:format>
        <dc:type
           rdf:resource="http://purl.org/dc/dcmitype/StillImage" />
        <dc:title></dc:title>
      </cc:Work>
    </rdf:RDF>
  </metadata>
  <defs
     id="defs4836" />
  <sodipodi:namedview
     pagecolor="#ffffff"
     bordercolor="#666666"
     borderopacity="1"
     objecttolerance="10"
     gridtolerance="10"
     guidetolerance="10"
     inkscape:pageopacity="0"
     inkscape:pageshadow="2"
     inkscape:window-width="1685"
     inkscape:window-height="1036"
     id="namedview4834"
     showgrid="false"
     fit-margin-top="0"
     fit-margin-left="0"
     fit-margin-right="0"
     fit-margin-bottom="0"
     inkscape:zoom="0.7804233"
     inkscape:cx="238.92472"
     inkscape:cy="609.16677"
     inkscape:window-x="127"
     inkscape:window-y="1"
     inkscape:window-maximized="0"
     inkscape:current-layer="svg4832" />
  <path
     style="fill:#000000"
     d="m 100.42001,872.88583 c 1.10557,-196.53595 -1.305415,-274.34761 1.58241,-457.13161 -0.48211,-15.07241 3.87355,-24.40488 -15.154079,-23.90633 -28.977508,1.24246 -5.334144,3.48898 -53.561615,2.07944 -51.603539,-1.57132 -37.725882,-104.05225 -0.878689,-105.92172 35.881771,2.17143 36.003679,-1.13004 59.365008,2.00629 10.766905,1.5803 7.683258,-10.72671 12.242995,-25.24529 C 116.54433,104.0974 175.73971,-14.665943 418.8263,1.467714 c 45.37844,5.2141691 49.57045,92.750208 3.73816,101.643936 -126.80636,1.49338 -201.42977,-5.296948 -213.56369,170.73017 1.03085,17.47066 2.88706,18.64924 30.1075,19.11602 45.90936,0.88509 120.15495,-3.27371 161.32575,-3.66597 49.78118,2.40178 47.7931,97.21377 1.02246,102.96454 -60.30067,1.56139 -117.27975,8.54266 -178.70653,0.38074 -23.38221,-3.42819 -16.4076,7.64158 -17.18266,20.29758 0.68323,34.49783 1.1483,60.49338 1.35544,99.3268 1.0821,150.14966 -1.89629,259.40361 -1.42006,362.63631 14.9471,72.79394 -112.875504,74.81582 -105.08266,-2.01201 z"
     id="path4842"
     inkscape:connector-curvature="0"
     sodipodi:nodetypes="cccccccccccccccccc" />
</svg>
