<?xml version="1.0" encoding="UTF-8" standalone="no"?>
<!-- Created with Inkscape (http://www.inkscape.org/) -->

<svg
   xmlns:dc="http://purl.org/dc/elements/1.1/"
   xmlns:cc="http://creativecommons.org/ns#"
   xmlns:rdf="http://www.w3.org/1999/02/22-rdf-syntax-ns#"
   xmlns:svg="http://www.w3.org/2000/svg"
   xmlns="http://www.w3.org/2000/svg"
   xmlns:sodipodi="http://sodipodi.sourceforge.net/DTD/sodipodi-0.dtd"
   xmlns:inkscape="http://www.inkscape.org/namespaces/inkscape"
   id="svg3941"
   version="1.1"
   inkscape:version="0.91 r13725"
   width="709.73828"
   height="930"
   viewBox="0 0 709.73828 930"
   sodipodi:docname="en_lower_a.svg">
  <metadata
     id="metadata3947">
    <rdf:RDF>
      <cc:Work
         rdf:about="">
        <dc:format>image/svg+xml</dc:format>
        <dc:type
           rdf:resource="http://purl.org/dc/dcmitype/StillImage" />
        <dc:title></dc:title>
      </cc:Work>
    </rdf:RDF>
  </metadata>
  <defs
     id="defs3945" />
  <sodipodi:namedview
     pagecolor="#ffffff"
     bordercolor="#666666"
     borderopacity="1"
     objecttolerance="10"
     gridtolerance="10"
     guidetolerance="10"
     inkscape:pageopacity="0"
     inkscape:pageshadow="2"
     inkscape:window-width="1671"
     inkscape:window-height="1017"
     id="namedview3943"
     showgrid="false"
     fit-margin-top="0"
     fit-margin-left="0"
     fit-margin-right="0"
     fit-margin-bottom="0"
     inkscape:zoom="0.46825397"
     inkscape:cx="53.983188"
     inkscape:cy="478.06206"
     inkscape:window-x="76"
     inkscape:window-y="0"
     inkscape:window-maximized="0"
     inkscape:current-layer="svg3941" />
  <path
     style="fill:#000000"
     d="m 626.51749,892.35856 c -4.4595,-22.34974 1.292,-57.12325 -27.24838,-58.48615 C 351.58405,890.50192 10.833762,957.46676 0,605.87296 18.075406,298.4775 340.51763,342.31003 533.47971,329.60844 630.17302,327.29666 610.31506,220.17171 526.60089,183.70541 439.99364,122.36555 421.78335,121.99291 327.81274,130.6463 220.78745,134.7081 191.53849,265.93987 123.01454,218.4746 81.383885,182.85175 98.319736,106.31374 169.1472,66.842302 305.7734,-32.91971 498.90032,-10.91111 590.55717,46.771615 c 61.589,15.610824 97.15498,53.143964 114.6709,155.740295 2.70641,306.76924 8.2091,415.88318 0.77331,686.4128 7.48597,39.96485 -69.15139,66.33676 -79.48389,3.43385 z M 580.50789,705.23091 C 607.07404,645.26105 600.72279,538.72137 591.53963,524.65958 578.77402,478.82675 573.827,452.22153 528.8448,459.29562 409.31887,481.56244 135.90593,438.7888 124.37181,612.73424 c 2.98949,226.12201 298.64513,148.50248 456.13608,92.49667 z"
     id="path3951"
     inkscape:connector-curvature="0"
     sodipodi:nodetypes="ccccccccccccccccc" />
</svg>
