<?xml version="1.0" encoding="UTF-8" standalone="no"?>
<!-- Created with Inkscape (http://www.inkscape.org/) -->

<svg
   xmlns:dc="http://purl.org/dc/elements/1.1/"
   xmlns:cc="http://creativecommons.org/ns#"
   xmlns:rdf="http://www.w3.org/1999/02/22-rdf-syntax-ns#"
   xmlns:svg="http://www.w3.org/2000/svg"
   xmlns="http://www.w3.org/2000/svg"
   xmlns:sodipodi="http://sodipodi.sourceforge.net/DTD/sodipodi-0.dtd"
   xmlns:inkscape="http://www.inkscape.org/namespaces/inkscape"
   id="svg5015"
   version="1.1"
   inkscape:version="0.91 r13725"
   width="518.28516"
   height="930.00098"
   viewBox="0 0 518.28516 930.00099"
   sodipodi:docname="en_lower_g.svg">
  <metadata
     id="metadata5021">
    <rdf:RDF>
      <cc:Work
         rdf:about="">
        <dc:format>image/svg+xml</dc:format>
        <dc:type
           rdf:resource="http://purl.org/dc/dcmitype/StillImage" />
        <dc:title></dc:title>
      </cc:Work>
    </rdf:RDF>
  </metadata>
  <defs
     id="defs5019" />
  <sodipodi:namedview
     pagecolor="#ffffff"
     bordercolor="#666666"
     borderopacity="1"
     objecttolerance="10"
     gridtolerance="10"
     guidetolerance="10"
     inkscape:pageopacity="0"
     inkscape:pageshadow="2"
     inkscape:window-width="1241"
     inkscape:window-height="865"
     id="namedview5017"
     showgrid="false"
     inkscape:zoom="0.67583045"
     inkscape:cx="226.98058"
     inkscape:cy="412.09663"
     inkscape:window-x="274"
     inkscape:window-y="3"
     inkscape:window-maximized="0"
     inkscape:current-layer="svg5015"
     fit-margin-top="0"
     fit-margin-left="0"
     fit-margin-right="0"
     fit-margin-bottom="0" />
  <path
     style="fill:#000000"
     d="m 304.84101,927.78437 c -6.27249,-6.27249 -32.76947,-10.27117 -72.36536,-10.92074 -18.22042,-0.29896 -34.69725,-0.98152 -36.61519,-1.51714 -1.91794,-0.5354 -5.05638,-0.55539 -6.97432,-0.0442 -7.87464,2.09834 -17.56971,1.45716 -19.58308,-1.29537 -1.18099,-1.61455 -7.4579,-3.49855 -13.94864,-4.18668 -14.19279,-1.5046 -28.83784,2.18517 -33.72145,1.3065 -86.939717,-13.31966 -55.862975,-114.76687 -3.04884,-112.08367 15.72233,-0.55586 30.19955,-4.64851 30.19955,-1.0805 0,1.82727 1.03243,2.2899 2.29455,1.02802 3.64966,-3.64976 11.65411,4.806 11.65411,12.31111 0,3.99799 1.8103,6.17411 4.35895,5.23962 2.39743,-0.87899 3.8781,-3.62925 3.29039,-6.11159 -0.84296,-3.55997 0.13484,-3.51527 4.62472,0.21155 4.80743,3.9898 6.18623,3.946 8.86127,-0.2813 1.74242,-2.7536 3.19203,-3.91122 3.2214,-2.57254 0.0302,1.3386 4.79384,0.78135 10.58771,-1.23841 7.90814,-2.75679 11.86925,-2.56439 15.88899,0.77159 4.37421,3.63023 5.159,3.57727 4.28612,-0.28943 -2.14623,-9.50689 67.77703,-16.5271 79.46794,-7.97849 3.42756,2.5063 4.95526,4.55689 3.39485,4.55689 -1.56039,0 -0.88365,2.35383 1.50413,5.23074 3.51275,4.2326 3.39461,5.23074 -0.61909,5.23074 -7.06643,0 -13.1097,6.97662 -10.94029,12.63 1.0143,2.64315 4.12273,4.8058 6.90762,4.8058 3.03853,0 4.0793,-1.74312 2.60249,-4.35895 -1.95653,-3.4654 -1.50808,-3.47517 2.18761,-0.0488 3.71367,3.4442 5.92057,3.16016 10.9731,-1.4123 5.87414,-5.31606 6.32447,-5.298 6.32447,0.25363 0,3.79471 -1.59154,5.06113 -4.35895,3.46854 -2.39742,-1.37975 -3.13663,-1.16518 -1.64268,0.47635 4.41621,4.85271 12.39123,4.78324 16.48009,-0.14414 2.77775,-3.34698 2.67314,-5.29128 -0.38638,-7.18218 -2.83643,-1.75311 -3.28154,-1.11426 -1.37417,1.97187 1.86679,3.02047 1.45926,3.72299 -1.2047,2.07649 -5.65057,-3.4922 -5.01705,-9.05088 1.0315,-9.05088 2.78159,0 6.65694,-2.74614 8.61184,-6.10253 3.38518,-5.81195 3.55947,-5.81195 3.66045,0 0.0581,3.35639 1.62595,6.10253 3.48377,6.10253 1.85773,0 2.36992,-2.62625 1.13821,-5.83615 -1.68523,-4.3918 -0.82018,-5.29149 3.49567,-3.63532 3.15437,1.21051 8.01789,-0.0814 10.80778,-2.87175 2.78991,-2.78991 7.38427,-4.18547 10.20969,-3.10125 7.97527,3.0604 10.80505,-5.37441 3.57638,-10.6602 -6.21658,-4.54577 -6.16665,-5.02116 1.36999,-13.04363 5.50727,-5.86227 6.72848,-9.41912 4.1271,-12.02052 -2.6014,-2.60138 -1.6464,-7.06264 3.22739,-15.07697 3.80712,-6.26029 6.07296,-13.59502 5.03518,-16.29938 -1.22562,-3.19378 1.92933,-6.35745 9.00208,-9.0271 5.98888,-2.26061 10.88889,-5.28605 10.88889,-6.72329 0,-1.43718 2.25806,-1.7466 5.01807,-0.68767 3.57855,1.37324 5.69051,-1.65919 7.3624,-10.57095 1.28932,-6.87308 3.72038,-12.49652 5.40221,-12.49652 2.87066,0 8.92344,-26.56268 7.35015,-32.25624 -0.39754,-1.43833 0.84645,-2.61516 2.76446,-2.61516 1.91793,0 3.48716,1.51994 3.48716,3.37774 0,1.85772 2.09229,2.57482 4.64952,1.5934 5.43865,-2.08695 6.36595,-11.87964 1.03034,-10.88001 -3.4677,0.64954 -4.2784,-1.43369 -5.24395,-13.47641 -0.23968,-2.9901 -2.06904,-4.42726 -4.06491,-3.19368 -1.99605,1.23352 -2.79503,5.64152 -1.77566,9.7955 1.01918,4.15395 0.93061,5.52561 -0.19761,3.04813 -1.67569,-3.68121 -3.06384,-3.68121 -7.59503,0 -4.72931,3.8422 -5.21061,3.61339 -3.27354,-1.55621 2.62276,-6.99945 -3.37873,-6.87447 -10.99169,0.23015 -2.72898,2.54633 -8.25864,3.7447 -12.2881,2.66299 -4.02942,-1.08172 -9.11767,-1.98815 -11.30714,-2.01442 -2.18948,-0.0279 -4.88807,-3.66187 -5.99678,-8.07929 -1.75753,-7.00275 -3.92808,-7.92392 -16.94202,-7.19038 -8.20943,0.46263 -23.55696,1.267 -34.10562,1.78705 -10.54866,0.52005 -22.71671,2.74914 -27.04014,4.95333 -8.17258,4.16667 -43.76416,3.07365 -45.35507,-1.39277 -0.4996,-1.40277 -8.1634,-2.12578 -17.03053,-1.60689 -16.62536,0.97385 -51.87012,-7.39175 -55.43295,-13.15657 -1.10752,-1.79216 -5.84418,-3.25861 -10.52583,-3.25861 -4.68165,0 -8.51209,-1.73707 -8.51209,-3.86024 0,-2.12321 -2.43534,-2.92572 -5.41186,-1.78356 -2.97652,1.14216 -4.52015,0.63396 -3.43027,-1.12961 1.08985,-1.76334 0.28106,-4.25715 -1.79705,-5.54166 -2.11717,-1.30838 -4.61656,0.86831 -5.68407,4.95059 -1.04801,4.00728 -3.3019,6.42283 -5.00884,5.3679 -1.70685,-1.05498 -2.24899,-5.35265 -1.2047,-9.5505 1.50576,-6.05241 -0.34523,-8.61686 -8.9425,-12.3886 -5.96274,-2.61597 -12.30986,-8.61873 -14.10468,-13.33948 -1.79472,-4.72073 -5.66217,-10.98205 -8.59415,-13.914 -4.78301,-4.78299 -5.14428,-4.27196 -3.51557,4.9729 1.65687,9.40412 0.98175,10.27305 -7.73248,9.95242 -7.313133,-0.26921 -9.825883,-2.32012 -10.736203,-8.76321 -1.43903,-10.1856 -9.61338,-19.3463 -12.74364,-14.28141 -1.19447,1.93259 -3.96218,3.5139 -6.15051,3.5139 -2.94063,0 -2.95804,-1.02081 -0.0674,-3.91211 2.15158,-2.15158 2.98343,-6.33212 1.84843,-9.28993 -1.35488,-3.53078 -0.66233,-4.51185 2.01604,-2.85643 2.24387,1.38673 4.07977,1.68453 4.07977,0.66163 0,-1.0229 -4.5132,-4.19373 -10.02935,-7.04623 -8.7813,-4.54097 -17.69748,-22.88999 -11.12277,-22.88999 1.26003,0 2.65973,-5.4771 3.11058,-12.17138 0.83645,-12.41961 -9.77919,-38.46101 -12.45203,-30.54634 -0.80972,2.39742 -2.92382,4.35895 -4.69818,4.35895 -1.77427,0 -1.393,-2.93514 0.84738,-6.52259 3.33645,-5.34249 2.75723,-7.93536 -3.20137,-14.33119 -4.00115,-4.29471 -6.4376,-9.99025 -5.41436,-12.65678 1.02337,-2.66652 0.38661,-4.84823 -1.41485,-4.84823 -1.80124,0 -5.04269,5.75912 -7.20299,12.79802 -3.30125,10.7564 -3.03838,13.44842 1.6478,16.87498 5.01349,3.66598 5.02802,4.28706 0.14414,6.16118 -5.19968,1.99535 -11.44393,-5.96986 -9.92695,-12.6629 0.37173,-1.64036 -0.80088,-4.77878 -2.60574,-6.97432 -1.80496,-2.19552 -4.06178,-8.99569 -5.01519,-15.11145 -0.95339,-6.11573 -2.7516702,-12.76693 -3.9961002,-14.78047 -1.29141,-2.08927 -0.26061,-2.89274 2.4009802,-1.87144 3.14858,1.20818 4.91515,-1.51227 5.43806,-8.37469 0.50192,-6.58758 -1.16936,-10.91026 -4.7496,-12.28409 -4.0559202,-1.55643 -5.2898402,-6.06061 -4.6426702,-16.94715 0.48472,-8.15508 2.28316,-16.68858 3.9963102,-18.96341 1.81449,-2.40947 1.82564,-6.7766 0.0256,-10.46148 -3.5726602,-7.31765 -3.5558102,-11.67109 0.0674,-17.36606 2.84989,-4.47968 -2.0730002,-20.21465 -7.3437002,-23.47206 -3.47198,-2.14576 1.92026,-30.18281 6.44055,-33.48694 1.3118702,-0.95897 2.6648402,-4.09742 3.0065602,-6.97432 0.34174,-2.87691 1.22748,-10.72302 1.96839,-17.4358 4.41965,-40.04142 14.19711,-59.97386 33.62345,-68.54474 7.5142,-3.31527 13.66218,-7.29673 13.66218,-8.8477 0,-1.55097 5.88459,-8.84048 13.07686,-16.19894 7.19226,-7.35845 15.85098,-17.49665 19.24161,-22.52934 3.4134,-5.0665 8.270663,-8.34223 10.883273,-7.33967 2.59519,0.99586 5.72343,-0.80807 6.95165,-4.00875 1.62083,-4.22403 0.78833,-5.26497 -3.03718,-3.79701 -5.89837,2.26342 -6.67696,-0.59996 -2.11949,-7.79517 1.7731,-2.79951 4.88732,-3.6664 7.45973,-2.07658 2.87224,1.77515 3.54761,1.32433 1.93212,-1.28966 -1.36604,-2.21035 0.21388,-8.58505 3.51036,-14.16602 4.99164,-8.45018 7.02623,-9.50264 12.16559,-6.29307 5.50967,3.44085 5.66821,5.05869 1.47832,15.08639 -2.58122,6.17772 -4.00519,11.92017 -3.16436,12.76099 4.14397,4.14397 19.65342,-2.7489 22.39191,-9.95163 1.68941,-4.44364 6.98369,-10.64254 11.76491,-13.77533 4.78125,-3.13279 11.3173,-12.56715 14.52456,-20.96525 5.9248,-15.5139 9.68161,-17.40384 18.41609,-9.26459 5.02542,4.68293 23.02807,2.81086 30.48513,-3.17011 2.09439,-1.67984 4.58024,-2.282 5.52408,-1.33817 0.94386,0.94384 9.33562,0.29258 18.64838,-1.44721 21.4246,-4.00255 40.19062,-1.34656 37.63018,5.32586 -1.24933,3.25572 1.67895,5.53605 8.98574,6.99741 5.96148,1.19228 10.83905,4.32549 10.83905,6.96266 0,2.63716 2.74613,4.77081 6.10253,4.74144 5.21521,-0.0456 5.34198,-0.5449 0.87179,-3.43376 -8.16319,-5.27546 -0.7809,-4.07009 10.36133,1.69179 7.71592,3.99006 10.4148,4.19019 11.75658,0.87179 0.96246,-2.38043 1.86471,-1.4104 2.01698,2.16845 0.18133,4.27224 2.0551,5.79265 5.50606,4.4684 2.87691,-1.10397 5.23075,-0.39466 5.23075,1.57629 0,1.97092 1.40579,2.71462 3.12421,1.65263 1.71824,-1.06198 7.49038,0.33433 12.82682,3.10289 5.33645,2.76858 11.06079,4.19438 12.72075,3.16845 1.65989,-1.02592 5.04173,-0.18598 7.51497,1.86668 3.31406,2.75041 4.49681,2.42173 4.49681,-1.24964 0,-2.7399 -0.91527,-4.88299 -2.03418,-4.76242 -1.11891,0.12065 -4.38801,-0.0143 -7.26492,-0.29978 -3.9868,-0.39556 -3.64582,-1.43906 1.43369,-4.38786 5.34047,-3.10026 7.58483,-2.61019 11.29726,2.46685 2.54802,3.48464 5.71713,5.25137 7.04239,3.92608 1.32535,-1.32531 6.7063,1.70682 11.95775,6.73803 5.25146,5.03121 10.93123,8.29283 12.62173,7.24804 1.67608,-18.19585 0.52591,-44.060039 -0.44251,-70.885914 0.40049,-50.2455015 77.8276,-75.536985 89.0731,-0.787028 1.2582,25.943019 -0.76909,44.028312 -5.1343,51.015922 -1.56341,2.50275 -1.078,4.35895 1.14007,4.35895 3.81698,0 3.09358,39.66404 -1.18703,65.08908 -1.29792,7.70879 -0.34197,11.62001 3.16927,12.96741 6.42535,2.46563 6.55675,9.12252 0.17901,9.12252 -3.65831,0 -4.54237,4.27779 -3.60338,17.43578 0.7072,9.9093 -0.23015,17.43582 -2.17343,17.43582 -1.87981,0 -0.9936,5.80161 1.96909,12.8925 2.96276,7.09086 4.3722,15.32928 3.13207,18.30759 -5.1125,12.27822 -7.50911,28.23626 -4.51822,30.08473 1.74963,1.08125 2.35955,3.29509 1.35558,4.91955 -1.00407,1.62455 -0.18366,7.27043 1.82192,12.54657 2.75814,7.25445 2.5517,10.26922 -0.84691,12.36689 -6.35375,3.92168 -6.43361,16.98414 -0.10462,16.98414 4.06519,0 4.30179,-1.06009 1.09822,-4.92029 -2.81253,-3.38889 -2.93774,-5.62837 -0.40241,-7.19533 4.45756,-2.75493 7.40291,4.31512 5.77376,13.8592 -0.74556,4.36774 -3.41993,6.56914 -7.15566,5.89026 -7.09197,-1.28886 -16.65556,5.77313 -13.88626,10.25397 1.07032,1.73196 3.40693,2.2462 5.19235,1.14263 1.78543,-1.10334 3.2462,2.98617 3.2462,9.08802 0,10.06441 -0.56654,10.65 -6.10253,6.30832 -5.63948,-4.42276 -5.70567,-4.28223 -0.87202,1.85238 2.87679,3.65106 4.76325,9.3966 4.19208,12.76792 -0.5712,3.37136 0.68371,7.19405 2.78859,8.49493 2.54388,1.57224 1.6829,4.30648 -2.56772,8.15505 -5.22048,4.72663 -6.3728,10.97314 -6.27551,34.01755 0.079,18.64215 1.74451,30.18784 4.90511,33.99984 3.62102,4.36678 3.72931,5.77204 0.44496,5.77204 -3.28814,0 -3.18027,1.43113 0.44473,5.90013 2.72642,3.36121 3.01388,4.83732 0.6679,3.4303 -2.26502,-1.35837 -5.10366,-0.87505 -6.30834,1.07428 -1.2047,1.94932 -0.28525,3.54402 2.04301,3.54402 2.75923,0 2.22365,2.22063 -1.53783,6.37711 -5.64446,6.23707 -8.32588,23.50402 -3.15584,20.32217 1.43857,-0.88527 2.94047,2.89407 3.33787,8.39855 0.3973,5.5045 -0.80507,10.95233 -2.67224,12.10626 -1.86702,1.15402 -2.32712,3.82553 -1.0222,5.93689 1.52668,2.47023 0.30361,3.04496 -3.43028,1.612 -3.19151,-1.22469 -5.80277,-0.61421 -5.80277,1.35673 0,1.97095 -1.57387,2.61077 -3.49769,1.42183 -2.06254,-1.27467 -2.9945,1.14472 -2.2713,5.89672 0.67441,4.43211 4.04203,8.60901 7.48351,9.28196 4.89477,0.95711 5.82877,-0.4152 4.28935,-6.30169 -1.27328,-4.86894 -0.5261,-7.04692 2.1167,-6.17025 2.41135,0.79995 4.48359,10.52381 5.05862,23.73745 0.53563,12.31042 2.76878,27.87482 4.96227,34.58761 2.19343,6.71278 4.26382,18.63982 4.60068,26.50449 0.33686,7.86468 1.72708,16.1031 3.08963,18.30759 1.36255,2.20458 1.00546,4.00816 -0.79298,4.00816 -2.00442,0 -1.92003,6.33066 0.21853,16.35639 2.54899,11.95133 2.3658,18.15406 -0.68023,23.03144 -2.29269,3.67128 -2.6538,5.73886 -0.80228,4.59454 1.85145,-1.14425 4.01718,3.49446 4.81268,10.3083 0.79553,6.8138 0.0139,13.27427 -1.73777,14.35655 -1.75125,1.08218 -1.05475,3.31685 1.54737,4.96567 2.87725,1.82309 3.17129,3.01876 0.7502,3.05126 -2.18947,0.0279 -4.97422,4.01101 -6.18824,8.84812 -1.89051,7.5321 -3.20598,8.26024 -9.16345,5.07193 -6.208,-3.32245 -6.91148,-2.67444 -6.54145,6.02572 0.22783,5.36167 -0.39521,17.71408 -1.38486,27.44976 -0.98966,9.73571 -0.47426,19.84529 1.14518,22.46583 1.89376,3.06416 0.85645,6.48409 -2.90662,9.58283 -4.06556,3.34781 -4.25491,4.07254 -0.62048,2.37482 2.87691,-1.34395 1.30769,1.40626 -3.48716,6.11142 -4.79485,4.70515 -11.76594,12.65588 -15.49129,17.66823 -3.72538,5.01237 -8.04074,8.33015 -9.58969,7.37283 -1.549,-0.95734 -2.8163,-0.16738 -2.8163,1.75521 0,1.92258 -4.70767,6.27668 -10.46148,9.67554 -5.75382,3.39887 -10.46149,8.19525 -10.46149,10.65865 0,2.46337 -1.83796,4.47888 -4.08437,4.47888 -2.24643,0 -6.95407,2.59703 -10.46148,5.77121 -5.99615,5.42644 -6.37711,5.30857 -6.37711,-1.97281 0,-4.25921 1.62432,-10.77932 3.60984,-14.4891 4.60633,-8.60699 -1.51505,-8.99518 -17.34179,-1.09985 -12.11095,6.04171 -26.69595,32.49208 -20.22176,36.67279 4.2409,2.73854 -25.27347,20.45078 -34.07772,20.45078 -3.51636,0 -8.87076,2.05045 -11.89868,4.55646 -11.38981,9.4267 -24.11929,12.94657 -29.03684,8.029 z m 9.45248,-33.29738 c 1.11357,-1.80193 -1.1475,-3.03715 -5.02497,-2.74507 -3.8773,0.29223 -7.04967,1.76636 -7.04967,3.2761 0,3.85598 9.62491,3.43269 12.07464,-0.53098 z m 15.82265,-16.04077 c 0,-7.22638 -0.85529,-8.05639 -4.64955,-4.51204 -2.55728,2.38882 -4.64957,6.37374 -4.64957,8.85536 0,2.48165 2.09229,4.51209 4.64957,4.51209 2.65398,0 4.64955,-3.80066 4.64955,-8.85541 z m 84.13667,-35.60589 c 4.33756,-5.53084 4.21423,-5.6542 -1.31652,-1.31652 -3.35639,2.63227 -6.10253,5.37841 -6.10253,6.10253 0,2.87008 2.86363,1.0229 7.41914,-4.78591 z m 37.91394,-0.87179 c 0,-1.91794 -2.44645,-3.48716 -5.43655,-3.48716 -2.9901,0 -4.4667,1.56922 -3.28135,3.48716 1.1854,1.91794 3.63181,3.48716 5.43655,3.48716 1.80473,0 3.28135,-1.56922 3.28135,-3.48716 z m -249.33197,-3.48716 c 1.1854,-1.91794 0.58585,-3.48716 -1.33186,-3.48716 -1.91794,0 -4.45699,1.56922 -5.64234,3.48716 -1.1854,1.91794 -0.58585,3.48716 1.33186,3.48716 1.91794,0 4.45699,-1.56922 5.64234,-3.48716 z m -25.69647,-8.16697 c -2.13623,-2.57388 -3.12596,-5.72539 -2.1997,-7.00336 0.92643,-1.27793 -0.25107,-0.67605 -2.61648,1.33791 -6.70979,6.36652 12.27847,14.78013 4.81611,5.66554 z m 16.97857,1.1926 c 0,-1.91793 -0.69208,-3.48716 -1.53784,-3.48716 -0.84575,0 -2.50762,1.56923 -3.69297,3.48716 -1.1854,1.91794 -0.49332,3.48717 1.53784,3.48717 2.03115,0 3.69297,-1.56923 3.69297,-3.48717 z m 73.23037,-1.53783 c 0,-2.76372 1.83587,-6.15958 4.07977,-7.5464 2.73737,-1.69174 3.35225,-0.6256 1.86865,3.24038 -1.72475,4.49442 -0.51261,5.4443 5.50992,4.31836 4.24653,-0.79391 8.50556,-1.5841 9.46453,-1.7559 0.95897,-0.17203 -0.61025,-1.83378 -3.48716,-3.6929 -3.48716,-2.25364 -3.77776,-3.39817 -0.87179,-3.43379 2.39742,-0.0279 4.35895,-1.5734 4.35895,-3.43111 0,-1.85772 -2.37383,-2.46679 -5.27515,-1.35348 -2.90134,1.11333 -7.47703,0.19761 -10.16823,-2.0365 -3.88604,-3.22516 -5.3606,-2.58778 -7.16491,3.09702 -2.28385,7.1961 -12.26331,10.18325 -12.26331,3.67077 0,-1.91794 1.56922,-3.48716 3.48716,-3.48716 1.91793,0 3.48716,-1.56923 3.48716,-3.48716 0,-6.1166 -10.08006,-3.74138 -13.82594,3.25791 -5.59864,10.46109 -4.38904,15.19505 3.36445,13.16747 3.83588,-1.00314 6.97433,-0.40149 6.97433,1.33698 0,1.73846 2.35383,3.16069 5.23074,3.16069 2.8769,0 5.23074,-2.26131 5.23074,-5.02493 z m 146.46074,1.53783 c 0,-1.91793 -1.56922,-3.48716 -3.48716,-3.48716 -1.91794,0 -3.48716,1.56923 -3.48716,3.48716 0,1.91794 1.56922,3.48717 3.48716,3.48717 1.91794,0 3.48716,-1.56923 3.48716,-3.48717 z m 22.07326,-1.45507 c 1.04312,-2.71817 -0.35825,-5.80738 -3.11406,-6.86489 -3.31029,-1.27026 -5.01056,0.40683 -5.01056,4.94214 0,7.93496 5.33319,9.19706 8.12462,1.92282 z m -196.05295,-6.2263 c 4.34303,-8.115 1.65315,-12.25342 -4.65301,-7.15858 -2.44378,1.97443 -11.50472,4.77041 -20.13545,6.21328 -17.26235,2.88597 -12.36814,6.9178 9.09166,7.48963 8.60438,0.23015 13.06755,-1.63153 15.6968,-6.54433 z M 194.11688,822.995 c 0,-0.84576 -1.56922,-2.50762 -3.48716,-3.69298 -1.91794,-1.1854 -3.48716,-0.49331 -3.48716,1.53784 0,2.03116 1.56922,3.69297 3.48716,3.69297 1.91794,0 3.48716,-0.69208 3.48716,-1.53783 z m 258.04987,-3.69298 c 3.53398,-4.25821 3.35856,-5.23074 -0.94362,-5.23074 -2.90653,0 -6.18785,2.35384 -7.29184,5.23074 -1.10404,2.87691 -0.6793,5.23074 0.94362,5.23074 1.62293,0 4.90423,-2.35383 7.29187,-5.23074 z M 431.24379,751.3024 c 0,-4.36914 -3.70071,-4.36914 -10.46148,0 -4.22979,2.73347 -3.72931,3.39056 2.61537,3.43376 4.31536,0.0302 7.84611,-1.51576 7.84611,-3.43376 z m 76.71753,-41.84595 c 0,-1.91794 -1.66175,-3.48716 -3.69297,-3.48716 -2.03116,0 -2.72313,1.56922 -1.53784,3.48716 1.1854,1.91794 2.84719,3.48716 3.69297,3.48716 0.84575,0 1.53784,-1.56922 1.53784,-3.48716 z m -48.18096,-49.5758 c -2.50222,-2.50224 -4.12645,-2.70813 -4.12645,-0.52307 0,1.98187 1.04615,4.64957 2.32478,5.92817 1.27862,1.27863 3.13551,1.51389 4.12647,0.52307 0.99105,-0.99081 -0.0558,-3.65858 -2.3248,-5.92817 z m -78.80982,-72.47481 c 8.47091,0 15.40165,-1.56923 15.40165,-3.48716 0,-1.91794 -1.56923,-3.68331 -3.48716,-3.92306 -1.91794,-0.23968 -5.31792,-0.63211 -7.55554,-0.87179 -5.51857,-0.59119 -7.6344,-7.97502 -3.09004,-10.78363 2.01929,-1.24793 3.67126,-3.85763 3.67126,-5.79938 0,-4.80249 -8.52444,4.14519 -11.54599,12.11924 -1.3407,3.53849 -5.56837,7.25224 -9.3946,8.25283 -7.25429,1.89701 -8.73578,5.03866 -4.41398,9.36044 1.39859,1.39858 3.09848,0.87551 3.77776,-1.16239 0.6793,-2.03789 8.16577,-3.7051 16.63664,-3.7051 z M 246.7773,585.76385 c -0.093,-1.76613 -4.52656,-3.70197 -9.85122,-4.30158 -9.28882,-1.04614 -9.40425,-0.87527 -2.84788,4.21731 7.13408,5.54116 12.99012,5.58001 12.6991,0.0837 z m 88.56958,-1.84517 c 1.1854,-1.91794 -1.16843,-3.48716 -5.23074,-3.48716 -4.06227,0 -6.4161,1.56922 -5.23074,3.48716 1.1854,1.91793 3.53918,3.48716 5.23074,3.48716 1.6915,0 4.04538,-1.56923 5.23074,-3.48716 z m -7.35921,-22.41212 c -1.43741,-3.74598 0.0976,-4.45862 6.21195,-2.88242 7.53664,1.94305 7.74485,1.62548 2.89084,-4.41098 -3.35521,-4.17248 -3.61303,-5.53203 -0.71906,-3.79168 2.48147,1.49227 6.65971,0.9306 9.28501,-1.24841 3.5971,-2.98531 7.73973,-2.722 16.81188,1.0687 6.62126,2.76653 13.66793,4.02181 15.65931,2.78948 1.9914,-1.23237 12.40336,-2.05045 23.1377,-1.81798 10.73436,0.23248 19.51701,-0.94455 19.51701,-2.61537 0,-1.67081 -2.74614,-3.22002 -6.10253,-3.4425 -5.81194,-0.38521 -5.81194,-0.48053 0,-1.9993 3.35639,-0.87714 6.12657,-4.22581 6.15593,-7.44158 0.0418,-4.63146 0.67953,-4.85873 3.06503,-1.09334 2.54262,4.01325 3.3489,4.01325 5.17736,0 1.67709,-3.68112 2.6246,-3.77016 4.19987,-0.39452 1.11891,2.39743 3.56522,4.35895 5.43655,4.35895 1.87121,0 2.26782,-1.83587 0.88086,-4.07976 -1.75428,-2.83858 -0.52308,-3.31295 4.04685,-1.55923 3.61255,1.38626 5.45282,1.40509 4.08948,0.0418 -1.36348,-1.36325 -0.88318,-4.40147 1.06707,-6.7514 2.50309,-3.01604 1.98141,-4.87289 -1.7738,-6.31392 -2.92582,-1.12263 -5.29569,-4.05215 -5.26633,-6.50978 0.0372,-3.12448 1.07009,-2.89518 3.43376,0.76229 1.85912,2.87691 3.40442,3.58306 3.43378,1.56922 0.0279,-2.01395 -1.5741,-5.28905 -3.56336,-7.27826 -2.44223,-2.44225 -2.49088,-6.57804 -0.14879,-12.73558 2.91887,-7.67719 2.59958,-8.78599 -2.01976,-7.0134 -4.53622,1.74056 -4.84058,0.89806 -1.75707,-4.86345 2.59538,-4.84952 2.62053,-8.07796 0.0837,-10.61584 -2.53793,-2.53793 -2.37877,-6.01675 0.52331,-11.43919 3.13036,-5.84908 3.16962,-8.41066 0.15809,-10.27224 -3.4913,-2.15763 -5.16591,-8.92214 -6.77116,-27.35148 -0.21853,-2.51061 -1.94886,-3.606 -3.84485,-2.43424 -1.97676,1.22167 -2.56132,-0.17901 -1.37046,-3.28135 1.14193,-2.97636 0.64606,-5.41168 -1.10194,-5.41168 -1.74823,0 -3.54735,-6.25148 -3.99819,-13.89213 -0.70418,-11.93322 0.0604,-13.6171 5.42079,-11.94178 5.88649,1.83983 5.89432,1.72778 0.13716,-1.97326 -8.94271,-5.74989 -7.77367,-13.70852 1.74358,-11.87027 l 7.84609,1.51552 -7.84609,-3.47319 c -10.06357,-4.45473 -10.18086,-16.45542 -0.26409,-27.01148 8.42049,-8.96314 6.56123,-11.2546 -2.1023,-2.59103 -4.80021,4.80022 -5.47981,4.82574 -5.47981,0.20458 0,-2.90072 1.77078,-6.36842 3.93498,-7.706 2.69032,-1.66268 2.13879,-3.43708 -1.74358,-5.60979 -3.12478,-1.74707 -5.68012,-6.33018 -5.68012,-10.18395 0,-3.85376 1.42276,-6.12746 3.16195,-5.05264 1.73916,1.07474 2.27153,-1.45113 1.18307,-5.61312 -1.56992,-6.00371 -0.78228,-7.10811 3.81238,-5.34501 3.83938,1.47345 5.79126,0.42683 5.79126,-3.10478 0,-3.33356 -1.63129,-4.34709 -4.35895,-2.70831 -3.10822,1.86726 -3.02206,0.96966 0.30013,-3.12861 2.56253,-3.16104 3.64683,-7.38534 2.40956,-9.3873 -1.23725,-2.00186 -0.5877,-3.6399 1.44322,-3.6399 2.03115,0 3.71699,-2.74614 3.74635,-6.10253 0.0418,-4.88465 0.66837,-5.13119 3.13523,-1.23538 3.37613,5.33189 14.24719,2.87502 14.24719,-3.21986 0,-2.09137 -1.42764,-2.9201 -3.17248,-1.84169 -5.11712,3.16256 -14.82026,-2.04231 -12.94034,-6.94123 0.94805,-2.47068 -0.70557,-5.42442 -3.675,-6.56389 -3.78354,-1.45182 -4.79854,-0.50749 -3.39247,3.15674 1.13937,2.96897 0.2455,4.8698 -2.06858,4.3985 -2.24132,-0.45635 -4.34247,1.1317 -4.66941,3.529 -1.23631,9.06713 -1.65616,9.45802 -4.80723,4.47589 -1.81914,-2.87628 -1.92189,-6.69523 -0.23457,-8.72815 1.728,-2.08207 1.06358,-7.23177 -1.5669,-12.14704 -3.84573,-7.1858 -3.7308,-9.80812 0.72789,-16.61313 4.56948,-6.97386 4.59203,-7.81091 0.16506,-6.11204 -3.10674,1.19214 -11.75034,-4.28528 -21.91767,-13.88924 -9.23332,-8.72181 -18.94134,-15.8578 -21.57336,-15.8578 -2.63202,0 -5.68872,-2.35383 -6.79269,-5.23074 -1.10403,-2.8769 -4.08744,-5.23074 -6.62988,-5.23074 -2.54246,0 -5.61877,-3.13844 -6.83623,-6.97431 -2.31036,-7.27961 -8.7179,-9.69133 -8.7179,-3.28136 0,2.03113 -1.53691,2.74317 -3.41509,1.58231 -1.87842,-1.16085 -6.55377,-0.43088 -10.38993,1.62218 -7.27863,3.89541 -25.69826,1.26275 -22.89542,-3.27237 0.88551,-1.43289 -2.26363,-4.37029 -6.99842,-6.52757 -4.73471,-2.15727 -8.60855,-5.69307 -8.60855,-7.85732 0,-2.16425 -2.27386,-3.06243 -5.05315,-1.99594 -3.47586,1.33382 -4.41019,0.26361 -2.99333,-3.42869 1.60944,-4.19434 -0.14414,-5.13649 -8.02582,-4.30984 -5.54707,0.58184 -12.31286,-0.31863 -15.03505,-2.00103 -3.62321,-2.23926 -4.40991,-1.65289 -2.93591,2.18831 1.10752,2.88598 0.94827,6.97069 -0.35337,9.07714 -3.1068,5.02676 -21.39793,8.29113 -21.39793,3.81881 0,-1.90413 -1.56923,-2.49221 -3.48716,-1.30685 -1.91794,1.18536 -3.48716,-1.07588 -3.48716,-5.02494 0,-3.94906 -1.66175,-7.18012 -3.69298,-7.18012 -2.03115,0 -2.55829,1.8359 -1.17145,4.07976 1.69546,2.74319 0.62048,3.35026 -3.28135,1.85303 -4.62711,-1.77557 -5.80287,-0.0816 -5.80287,8.36028 0,8.84509 -1.09915,10.23814 -6.68084,8.46661 -3.67449,-1.16623 -7.69014,-0.48737 -8.92371,1.50859 -1.23353,1.99596 -4.98669,3.62901 -8.34027,3.62901 -3.7632,0 -8.45336,5.33984 -12.25155,13.94863 -5.66234,12.83396 -14.9728,20.64023 -10.39776,8.71791 1.10403,-2.87691 1.11519,-5.23075 0.0256,-5.23075 -1.09032,0 -3.66633,6.25416 -5.72464,13.89808 -2.08137,7.73001 -9.10547,19.10669 -15.82662,25.63419 -8.14772,7.91283 -12.0844,14.93469 -12.0844,21.55469 0,5.40024 -1.0043,8.81431 -2.23178,7.58683 -2.22248,-2.22248 -9.74764,9.22994 -21.3248,32.45387 -3.34635,6.71278 -7.09458,12.67262 -8.32943,13.24404 -1.23492,0.57143 -1.45229,4.07078 -0.48332,7.77635 0.96896,3.70553 -1.63734,13.25895 -5.79211,21.22985 -4.154643,7.97089 -6.732543,16.63304 -5.728633,19.24918 1.00383,2.61614 0.30524,4.75663 -1.55249,4.75663 -1.85772,0 -3.37771,2.44645 -3.37771,5.43655 0,2.9901 -1.17703,4.70969 -2.61537,3.82132 -2.32528,-1.43601 -3.05556,28.932 -0.90945,37.81879 0.4631,1.91794 1.09799,5.05638 1.41091,6.97432 2.19505,13.45835 6.62707,26.1537 9.13031,26.1537 1.63618,0 3.892163,2.88947 5.013053,6.42105 1.12077,3.53154 9.83709,14.77203 19.36939,24.97881 14.48603,15.51108 16.62317,19.43309 13.01745,23.88921 -3.58106,4.42567 -3.4253,4.7882 0.91666,2.13368 9.48033,-5.79566 18.90635,-1.88586 38.1097,15.80758 19.71539,18.16517 42.10398,34.8716 46.73207,34.8716 2.97703,0 6.22902,1.3207 7.22665,2.93491 2.34805,3.79919 36.4568,4.18196 38.77248,0.43519 0.97083,-1.57085 6.05943,-1.68662 11.30791,-0.25735 5.24845,1.42927 15.81955,2.02139 23.4913,1.31559 8.82879,-0.81228 16.50857,0.65884 20.92296,4.00772 8.70126,6.60113 8.92358,6.61924 6.58944,0.53656 z m 99.76896,-49.07467 c 0,-2.87691 1.51994,-5.23074 3.37773,-5.23074 1.85773,0 2.47445,2.35383 1.37046,5.23074 -1.10404,2.87691 -2.62395,5.23074 -3.37774,5.23074 -0.75369,0 -1.37045,-2.35383 -1.37045,-5.23074 z m -8.49372,-11.18286 c -1.89237,-4.9699 -1.49181,-5.37044 1.95211,-1.95211 2.38319,2.36548 3.45464,5.17927 2.38096,6.25292 -1.07358,1.07358 -3.02353,-0.8618 -4.33307,-4.30081 z m -0.36755,-15.20283 c -1.26421,-2.04557 -1.55062,-4.46706 -0.63652,-5.38116 0.9141,-0.9141 2.59117,0.75951 3.72691,3.71918 2.35795,6.14474 0.34825,7.2256 -3.09032,1.66198 z m 9.5411,-11.97308 c 0.0721,-5.75381 0.8525,-7.68549 1.73684,-4.29257 0.88411,3.39289 0.82599,8.10055 -0.13019,10.46148 -0.95525,2.3609 -1.67871,-0.41521 -1.60758,-6.16891 z m -10.59069,-5.23074 c 0,-4.79484 0.79159,-6.75637 1.75892,-4.35895 0.96734,2.39743 0.96734,6.32048 0,8.7179 -0.96733,2.39743 -1.75892,0.4359 -1.75892,-4.35895 z m 0.13019,-19.17938 c 0.0721,-5.75381 0.85249,-7.68549 1.73684,-4.2926 0.88411,3.39291 0.82599,8.10058 -0.13019,10.46148 -0.95525,2.36093 -1.67872,-0.41497 -1.60758,-6.16888 z m -0.40451,-17.7264 c 0.16738,-4.06235 0.99361,-4.88865 2.10694,-2.10671 1.00732,2.51727 0.88341,5.52494 -0.27525,6.68373 -1.15867,1.15866 -1.9828,-0.90085 -1.83146,-4.5769 z m 0.24735,-15.83752 c -0.28734,-5.0346 -1.30187,-14.44993 -2.25433,-20.92296 l -1.73172,-11.76917 3.67116,11.70424 c 2.01907,6.43732 3.03355,15.85265 2.25434,20.92296 l -1.41695,9.21873 -0.52261,-9.1538 z m -1.68592,-75.11927 c -1.27886,-1.27862 -2.32498,-7.81702 -2.32498,-14.52981 0,-15.15694 2.16482,-13.4809 4.87946,3.77776 2.07905,13.21822 1.66291,14.96975 -2.55469,10.75205 z m -2.04952,-34.58098 c 0.16738,-4.06236 0.99361,-4.88865 2.10671,-2.10671 1.00732,2.51726 0.88341,5.52494 -0.27502,6.68372 -1.1589,1.15867 -1.98304,-0.90085 -1.83146,-4.57689 z M 97.679927,547.15308 c -1.13565,-2.95962 -2.81282,-4.63325 -3.72689,-3.71917 -0.9141,0.9141 -0.62769,3.3356 0.63652,5.38115 3.4385,5.56362 5.448273,4.48277 3.0903,-1.66198 z m -3.42965,-13.79825 c 1.10404,-2.87691 0.48727,-5.23074 -1.37045,-5.23074 -1.85773,0 -3.37771,2.35383 -3.37771,5.23074 0,2.8769 0.61676,5.23074 1.37045,5.23074 0.75369,0 2.27363,-2.35384 3.37771,-5.23074 z M 480.01063,520.27798 c 0.0279,-3.3564 -1.60851,-6.10253 -3.63957,-6.10253 -2.03115,0 -2.61467,1.74474 -1.29676,3.87702 1.31792,2.13252 0.42474,5.09537 -1.98442,6.58446 -2.4094,1.48901 -3.19889,4.61962 -1.75451,6.95674 3.21407,5.20052 8.59225,-1.81448 8.67538,-11.31569 z m 10.51489,6.30834 c 0,-2.76372 -1.56923,-5.99478 -3.48716,-7.18013 -1.91794,-1.18541 -3.48716,1.0759 -3.48716,5.02492 0,3.94907 1.56922,7.18014 3.48716,7.18014 1.91793,0 3.48716,-2.26131 3.48716,-5.02493 z m -338.25457,-19.3852 c 0,-1.91793 -0.69208,-3.48716 -1.53783,-3.48716 -0.84576,0 -2.50762,1.56923 -3.69298,3.48716 -1.18539,1.91794 -0.49331,3.48716 1.53784,3.48716 2.03116,0 3.69297,-1.56922 3.69297,-3.48716 z m 316.15392,-39.23055 c -0.96734,-2.39742 -1.75892,-0.43589 -1.75892,4.35895 0,4.79485 0.79158,6.75637 1.75892,4.35895 0.96734,-2.39742 0.96734,-6.32048 0,-8.7179 z m 2.18808,-27.02549 c -1.83239,-7.00722 -5.0326,-8.76407 -8.90684,-4.88982 -3.28874,3.28875 1.19215,11.86414 6.1995,11.86414 2.81432,0 3.84015,-2.6425 2.70734,-6.97432 z M 35.805167,421.53457 c -0.36406,-7.97172 -3.404,-18.67902 -6.75546,-23.79394 -3.35144,-5.11497 -5.25274,-10.66044 -4.22507,-12.32321 1.02755,-1.66291 -0.2255,-3.82716 -2.78689,-4.8097 -3.54466,-1.36023 -4.31541,1.61339 -3.23044,12.46306 1.33372,13.33693 1.01895,13.93432 -4.91427,9.32725 -6.1173402,-4.74995 -6.1190602,-4.66338 -0.0488,2.47351 3.4594,4.06771 6.5395,10.70989 6.8446,14.76036 0.30501,4.0505 1.95792,7.36454 3.67293,7.36454 1.71499,0 2.2548,2.24945 1.19982,4.99907 -1.267,3.30162 0.25898,4.83507 4.49386,4.51606 5.23639,-0.39451 6.29081,-3.14072 5.75028,-14.977 z m 10.1074,-8.48678 c 1.1854,-1.91793 0.49331,-3.48716 -1.53784,-3.48716 -2.03116,0 -3.69297,1.56923 -3.69297,3.48716 0,1.91794 0.69208,3.48717 1.53783,3.48717 0.84576,0 2.50762,-1.56923 3.69298,-3.48717 z m 429.719893,1.38022 c -1.1589,-1.15866 -4.16646,-1.28257 -6.68375,-0.27525 -2.78182,1.1131 -1.9556,1.93956 2.10694,2.10671 3.67603,0.15111 5.73566,-0.67279 4.57692,-1.83146 z m 20.76232,-29.93143 c -1.1131,-2.78183 -1.93956,-1.9556 -2.10671,2.10671 -0.15111,3.67602 0.67279,5.73565 1.83146,4.57689 1.15866,-1.15866 1.28257,-4.16646 0.27502,-6.68372 z M 66.609887,371.55742 c -2.18878,-2.18877 -8.41341,6.6678 -8.32797,11.84951 0.0325,1.91794 2.34523,0.46333 5.14131,-3.2326 2.79609,-3.69587 4.23008,-7.57348 3.18666,-8.61691 z M 457.39749,357.25323 c 1.1854,-1.91794 -0.38382,-3.48716 -3.48716,-3.48716 -3.10329,0 -4.67251,1.56922 -3.48716,3.48716 1.1854,1.91794 2.75458,3.48716 3.48716,3.48716 0.73254,0 2.30176,-1.56922 3.48716,-3.48716 z M 53.298487,339.15145 c 1.41183,-2.28432 0.80786,-4.73947 -1.34186,-5.45606 -2.14972,-0.71649 -2.96218,-3.94763 -1.80542,-7.18013 1.15681,-3.23246 0.94572,-4.83888 -0.46914,-3.56976 -3.65082,3.27467 -5.12117,20.35909 -1.75218,20.35909 1.54109,0 3.95688,-1.86889 5.36862,-4.15314 z M 463.99871,320.35282 c 3.12924,-8.15466 2.57071,-18.20196 -1.13937,-20.49486 -1.8031,-1.11449 -2.76555,2.29479 -2.15693,7.64032 0.60445,5.30893 -0.47634,11.61413 -2.40174,14.01155 -2.34819,2.92378 -2.33494,4.35896 0.0395,4.35896 1.94746,0 4.49355,-2.48217 5.65771,-5.51597 z m 34.83169,-6.87022 c 1.19075,-3.10329 0.6063,-4.50304 -1.37046,-3.28135 -1.89608,1.17169 -3.44722,3.60712 -3.44722,5.41187 0,5.01602 2.49948,3.91071 4.81772,-2.13043 z M 42.432587,313.17852 c 3.47221,-1.33256 4.35412,-3.12763 2.19273,-4.46347 -1.98861,-1.22911 -4.46906,-11.02231 -5.51211,-21.76288 -1.46693,-15.10571 -0.28246,-23.1769 5.23,-35.6389 3.91956,-8.86089 8.8144,-16.11065 10.87745,-16.11065 2.65766,0 2.66823,-1.30467 0.0372,-4.47591 -2.35481,-2.83744 -2.53067,-6.34791 -0.48029,-9.5897 5.61016,-8.87035 3.61725,-11.6754 -3.63325,-5.11378 -3.83588,3.4714 -6.97432,8.42229 -6.97432,11.00195 0,2.57964 -1.73707,4.69028 -3.86024,4.69028 -2.12322,0 -2.97397,2.30966 -1.89074,5.13247 1.08311,2.82285 0.50285,9.49205 -1.28979,14.82043 -1.79263,5.32838 -3.78071,15.23782 -4.41809,22.02098 -0.63745,6.78317 -2.22411,14.05672 -3.52619,16.16345 -2.08137,3.36776 3.40828,25.55451 6.32296,25.55451 0.61444,0 3.73099,-1.0029 6.92557,-2.22876 z m 8.71072,-11.71986 c 0,-1.91794 -1.56922,-3.48716 -3.48716,-3.48716 -1.91794,0 -3.48716,1.56922 -3.48716,3.48716 0,1.91794 1.56922,3.48716 3.48716,3.48716 1.91794,0 3.48716,-1.56922 3.48716,-3.48716 z m -2.02883,-9.091 c 3.03376,-1.16425 5.51594,-5.03797 5.51594,-8.60845 0,-4.41844 -1.7187,-5.8323 -5.38113,-4.42686 -2.95964,1.13565 -4.54247,2.90362 -3.51743,3.92866 1.025,1.02499 0.11624,3.96964 -2.02023,6.54352 -4.27005,5.14509 -2.95343,5.76971 5.40278,2.56313 z M 452.16675,256.12558 c 0,-1.91794 -1.56922,-3.48716 -3.48716,-3.48716 -1.91794,0 -3.48716,1.56922 -3.48716,3.48716 0,1.91794 1.56922,3.48716 3.48716,3.48716 1.91794,0 3.48716,-1.56922 3.48716,-3.48716 z m -346.04048,-7.6655 c -1.74172,-5.22521 -7.789273,-3.72638 -9.031443,2.23829 -0.77624,3.72726 0.62118,4.73257 4.506343,3.24171 3.09732,-1.18866 5.13361,-3.65457 4.5251,-5.48002 z m 325.11752,-2.79598 c 0,-6.7716 -5.95758,-12.64063 -9.36872,-9.22949 -1.06173,1.06172 -0.91131,5.99068 0.33453,10.95328 2.49339,9.93553 9.03419,8.68752 9.03419,-1.72382 z M 88.988987,223.10335 c 5.34733,-14.78781 5.14931,-15.79804 -3.09678,-15.79804 -6.15103,0 -6.56946,0.9857 -3.13926,7.39515 2.55995,4.78327 2.65573,6.59043 0.2713,5.11673 -3.92215,-2.42404 -15.54083,16.61442 -12.18644,19.96881 3.81365,3.81365 14.1874,-5.72076 18.15128,-16.68265 z M 483.5512,236.9462 c 0,-2.87691 -0.61677,-5.23074 -1.37046,-5.23074 -0.75369,0 -2.27363,2.35383 -3.37771,5.23074 -1.10403,2.8769 -0.48727,5.23074 1.37046,5.23074 1.85772,0 3.37773,-2.35384 3.37773,-5.23074 z M 96.476387,202.2804 c 0,-0.84575 -1.56922,-2.50761 -3.48716,-3.69297 -1.91794,-1.1854 -3.48716,-0.49332 -3.48716,1.53784 0,2.03115 1.56922,3.69295 3.48716,3.69295 1.91794,0 3.48716,-0.69209 3.48716,-1.53784 z m 10.348223,-19.17356 c 3.58638,-6.70121 -1.12961,-14.07968 -5.93068,-9.27872 -1.151003,1.15102 -0.31129,2.09276 1.86609,2.09276 2.17739,0 3.05913,2.34482 1.95932,5.21071 -1.09985,2.8659 -3.40433,4.34251 -5.121293,3.28137 -1.71684,-1.06114 -3.12175,-0.26751 -3.12175,1.76357 0,6.09219 6.472473,4.17218 10.348223,-3.06973 z m 352.31646,-8.92953 c 0,-0.54858 -2.35383,-1.90066 -5.23074,-3.00463 -3.15432,-1.21041 -5.23074,-0.0178 -5.23074,3.00463 0,3.02231 2.07649,4.21505 5.23074,3.00463 2.87691,-1.10397 5.23074,-2.45606 5.23074,-3.00463 z M 174.6933,165.06429 c -3.51796,-5.69219 -8.4737,-3.17197 -8.4737,4.30927 0,6.15922 0.87132,6.67813 5.19233,3.09204 2.8558,-2.3701 4.3324,-5.70069 3.28137,-7.40131 z m 308.58257,1.0611 c -0.17203,-3.66554 -0.94362,-4.23918 -2.04138,-1.51606 -0.97129,2.40937 -3.18334,3.50479 -4.9155,2.43426 -1.73219,-1.07054 -2.2183,0.4799 -1.08032,3.4454 2.58559,6.73794 8.40796,3.57684 8.03723,-4.36361 z m -57.72424,-2.35453 c -1.91678,-4.9948 -13.61932,-9.22203 -16.78008,-6.06129 -1.07428,1.07421 0.55167,4.72077 3.61286,8.10346 6.13445,6.77847 15.96685,5.25351 13.16722,-2.04217 z m -118.10204,-1.79861 c -1.1854,-1.91794 -3.72438,-3.48716 -5.64234,-3.48716 -1.91794,0 -2.51733,1.56922 -1.33186,3.48716 1.1854,1.91794 3.72438,3.48716 5.64234,3.48716 1.91794,0 2.51734,-1.56922 1.33186,-3.48716 z m -181.74538,-5.41186 c 1.19075,-3.10331 0.6063,-4.50304 -1.37045,-3.28136 -1.89585,1.17178 -3.44722,3.60711 -3.44722,5.41186 0,5.01605 2.49948,3.91072 4.8177,-2.13049 z m 375.28279,-6.7932 c 0,-2.87691 -0.61677,-5.23074 -1.37046,-5.23074 -0.75369,0 -2.27363,2.35383 -3.37771,5.23074 -1.10403,2.87691 -0.48727,5.23074 1.37046,5.23074 1.85772,0 3.37773,-2.35383 3.37773,-5.23074 z m -300.8546,-5.23074 c -0.28897,-3.83588 -2.45264,-6.97432 -4.80822,-6.97432 -6.68014,0 -9.61168,7.41423 -4.26942,10.79796 7.42233,4.70123 9.64913,3.76326 9.07764,-3.82364 z m 37.09146,-1.74358 c -1.10404,-2.87691 -3.40856,-5.23074 -5.12129,-5.23074 -1.71266,0 -3.11408,2.35383 -3.11408,5.23074 0,2.87691 2.30454,5.23074 5.12129,5.23074 3.11959,0 4.33677,-2.04448 3.11408,-5.23074 z m 117.41736,-3.48716 c 4.73212,-6.45127 4.65813,-6.61539 -0.98686,-2.18838 -3.3564,2.63226 -6.10254,6.42455 -6.10254,8.4273 0,2.00275 0.44404,2.98753 0.98664,2.18838 0.54283,-0.79914 3.28886,-4.59143 6.10253,-8.4273 z m -26.18562,0.41513 c 4.74063,-4.74066 3.48369,-9.13304 -2.61361,-9.13304 -1.7115,0 -2.14204,1.56923 -0.95664,3.48717 1.1854,1.91794 0.49332,3.48716 -1.53784,3.48716 -2.03115,0 -3.69297,1.56922 -3.69297,3.48716 0,4.82833 3.1142,4.35826 8.80092,-1.32845 z m -108.66755,-7.38946 c 1.10404,-2.8769 0.48728,-5.23074 -1.37045,-5.23074 -1.85773,0 -3.37771,2.35384 -3.37771,5.23074 0,2.87691 0.61676,5.23075 1.37045,5.23075 0.7537,0 2.27363,-2.35384 3.37771,-5.23075 z m -9.97895,-1.74358 c 1.18541,-1.91793 0.49332,-3.48716 -1.53783,-3.48716 -2.03116,0 -3.69298,1.56923 -3.69298,3.48716 0,1.91794 0.69209,3.48717 1.53784,3.48717 0.84575,0 2.50762,-1.56922 3.69297,-3.48717 z m 47.07667,2.17058 c 0,-0.72412 -2.38975,-3.29992 -5.31057,-5.72398 -4.44037,-3.68518 -4.95066,-3.46944 -3.11406,1.31659 1.87562,4.88808 8.42463,8.31417 8.42463,4.40739 z m 10.46148,-5.65773 c 0,-1.91794 -1.66175,-3.48716 -3.69297,-3.48716 -2.03116,0 -2.72313,1.56922 -1.53784,3.48716 1.1854,1.91794 2.84717,3.48716 3.69297,3.48716 0.84575,0 1.53784,-1.56922 1.53784,-3.48716 z m 64.65714,-10.30161 c -4.53654,-5.01284 -4.80471,-6.80994 -1.22958,-8.24082 2.64439,-1.05837 2.91429,-1.94602 0.64025,-2.10524 -4.03674,-0.28262 -10.26048,5.73642 -12.33548,11.92976 -0.64257,1.91794 -2.34526,3.09486 -3.78371,2.61537 -1.43857,-0.47948 -2.61537,0.86533 -2.61537,2.98846 0,2.12315 1.96141,3.1249 4.35895,2.22616 2.39742,-0.89876 7.49739,-0.49255 11.33327,0.90268 9.07326,3.30023 11.00048,-2.1741 3.63183,-10.31637 z m 87.01497,3.30591 c -3.48204,-3.84764 -7.08732,-6.23939 -8.0117,-5.31501 -2.34314,2.34314 6.35437,12.31071 10.7421,12.31071 1.98025,0 0.7516,-3.14807 -2.7304,-6.9957 z M 256.88577,98.45611 c 0,-1.50694 -3.13845,-2.73991 -6.97432,-2.73991 -3.83588,0 -6.97432,1.23297 -6.97432,2.73991 0,1.50694 3.13844,2.73991 6.97432,2.73991 3.83587,0 6.97432,-1.23296 6.97432,-2.73991 z m 54.85012,2.12759 c -1.15866,-1.15876 -4.16645,-1.28265 -6.68372,-0.27533 -2.78182,1.1132 -1.9556,1.93949 2.10694,2.10683 3.67603,0.15134 5.73566,-0.67277 4.5769,-1.83153 z m 79.88806,774.51287 c -1.10403,-2.87691 -0.48727,-5.23074 1.37046,-5.23074 1.85772,0 3.37773,2.35383 3.37773,5.23074 0,2.8769 -0.61676,5.23074 -1.37045,5.23074 -0.7537,0 -2.27363,-2.35384 -3.37774,-5.23074 z m 98.90157,-83.15041 c 0,-3.4011 1.56922,-5.21396 3.48716,-4.0286 1.96954,1.21725 3.48716,-1.63874 3.48716,-6.56275 0,-4.79484 1.63222,-9.72659 3.62692,-10.95944 5.18841,-3.20661 0.20226,16.23724 -5.80345,22.62839 -4.18824,4.45743 -4.79779,4.32052 -4.79779,-1.07753 z m 9.15379,-29.47704 c -0.94572,-1.52993 -0.27758,-5.06078 1.48437,-7.84611 2.50132,-3.95391 3.21537,-3.34405 3.25708,2.78189 0.0558,8.0659 -1.71685,9.95822 -4.74145,5.06422 z M 117.39935,604.84161 c -4.64954,-3.00477 -4.64954,-3.38033 0,-3.38033 2.87691,0 7.58458,1.5211 10.46149,3.38033 4.64954,3.0048 4.64954,3.38036 0,3.38036 -2.87691,0 -7.58458,-1.52109 -10.46149,-3.38036 z M 62.124787,553.91575 c -2.59091,-2.93014 -4.01974,-6.01851 -3.17519,-6.86308 0.84459,-0.84459 4.38452,1.61246 7.86659,5.46017 3.48204,3.84762 4.91087,6.93599 3.17517,6.86304 -1.73567,-0.0721 -5.27568,-2.53001 -7.86657,-5.46013 z m -19.62997,-25.64276 c 0.7251,-5.7302 -0.1697,-11.33895 -1.9907,-12.46383 -1.82006,-1.12496 -3.26163,-4.69886 -3.2033,-7.94206 0.0907,-5.05826 0.66232,-4.93784 4.0192,0.84692 5.18334,8.9325 6.97139,25.5802 3.0104,28.02826 -1.73475,1.07218 -2.56069,-2.73907 -1.83541,-8.46931 z m -19.1954,-26.96858 c -0.0302,-2.28433 1.44741,-5.08061 3.28147,-6.21422 1.83425,-1.13356 2.45089,-4.36464 1.37045,-7.18013 -1.08032,-2.81546 -0.22782,-5.11906 1.89586,-5.11906 2.12321,0 3.86024,1.4409 3.86024,3.20196 0,1.76102 1.05126,5.94156 2.33618,9.28996 1.68663,4.39519 1.09335,5.31987 -2.13344,3.32561 -2.63699,-1.62967 -5.71769,-0.79205 -7.51353,2.04324 -2.00116,3.15963 -3.06217,3.38315 -3.09727,0.65257 z M 499.24342,426.99644 c -1.18541,-1.91794 -0.49332,-3.48716 1.53783,-3.48716 2.03116,0 3.69298,1.56922 3.69298,3.48716 0,1.91793 -0.69209,3.48716 -1.53784,3.48716 -0.84575,0 -2.50762,-1.56923 -3.69297,-3.48716 z M 2.3230568,422.13878 c 0,-0.7537 2.43534,-2.30502 5.41187,-3.44723 3.1032902,-1.19074 4.5030402,-0.6063 3.2813402,1.37046 -2.0478902,3.31357 -8.6932102,4.90106 -8.6932102,2.07672 z m -1.19284,-80.75539 c 1.06661,-2.77922 3.3404,-5.05312 5.05315,-5.05312 5.0132102,0 3.57667,6.05064 -1.93909,8.16721 -3.37741,1.29606 -4.4101,0.26316 -3.11408,-3.11409 z m -0.55074,-12.02744 c 1.1854,-1.91794 2.84718,-3.48716 3.69295,-3.48716 0.84575,0 1.53784,1.56922 1.53784,3.48716 0,1.91793 -1.66175,3.48716 -3.69295,3.48716 -2.03115,0 -2.72312,-1.56923 -1.53784,-3.48716 z M 134.83516,95.922 c 0,-1.80474 1.56922,-4.25119 3.48716,-5.43654 1.91793,-1.18536 3.48716,0.29125 3.48716,3.28136 0,2.9901 -1.56923,5.43654 -3.48716,5.43654 -1.91794,0 -3.48716,-1.4766 -3.48716,-3.28136 z m 66.87076,-26.97615 c 0.66488,-3.45267 3.93707,-6.80297 7.27145,-7.44511 8.31834,-1.60198 7.62486,3.6648 -1.20888,9.18162 -6.41222,4.00449 -7.1286,3.79929 -6.0625,-1.73649 z"
     id="path7047"
     inkscape:connector-curvature="0"
     sodipodi:nodetypes="csccssccscscccccsscsscsssccssccccscsscssccssssssssccscssccccccsscscscsscccssscccccscsccscscscsssscssscssssccscsscscccscssssssscscsscssscssssssssssssccsscsccsccsscsccccsssssssscccsscsssccsssscsccsscssscccscsscsscssscsccssccccscscscssssssssscssssccccsccsssssccsccsscsscscsccccccsscssccsscccssccsssssssccssssscssccscscsscssscscsccsscssscsscscccsscccscssssccccccscscccssccsssscccccscccscccccccscsccscssccscssssccscccscccscssccccccsccccsscscscscssscssccsssssssscsscscsssscsccsscccscsscssscsssccsscsscssccsscccccccsssscccccccccccscscccccssccccccccsscccsssccsccsccscsssssssssssssssscsccssccscccccssscccccccccccscsssscssccccsccccscsccccsccccsssccssscsccsccssssscscscccssssscsccccsccccsssscccscsccccssccccsccsccssssssssscssscccccccscscccscccscsccsssscsssccssccccsssscccsssccssscsscssscsscssscscsccssssssssscsccccssscsssccsscccccssscssscsccccccccccssscccccssscccscccsccccssscssssscsscc" />
</svg>
