<?xml version="1.0" encoding="UTF-8" standalone="no"?>
<!-- Created with Inkscape (http://www.inkscape.org/) -->

<svg
   xmlns:dc="http://purl.org/dc/elements/1.1/"
   xmlns:cc="http://creativecommons.org/ns#"
   xmlns:rdf="http://www.w3.org/1999/02/22-rdf-syntax-ns#"
   xmlns:svg="http://www.w3.org/2000/svg"
   xmlns="http://www.w3.org/2000/svg"
   xmlns:sodipodi="http://sodipodi.sourceforge.net/DTD/sodipodi-0.dtd"
   xmlns:inkscape="http://www.inkscape.org/namespaces/inkscape"
   id="svg5015"
   version="1.1"
   inkscape:version="0.91 r13725"
   width="527.87384"
   height="930"
   viewBox="0 0 527.87384 930.00001"
   sodipodi:docname="en_lower_g.svg">
  <metadata
     id="metadata5021">
    <rdf:RDF>
      <cc:Work
         rdf:about="">
        <dc:format>image/svg+xml</dc:format>
        <dc:type
           rdf:resource="http://purl.org/dc/dcmitype/StillImage" />
        <dc:title></dc:title>
      </cc:Work>
    </rdf:RDF>
  </metadata>
  <defs
     id="defs5019" />
  <sodipodi:namedview
     pagecolor="#ffffff"
     bordercolor="#666666"
     borderopacity="1"
     objecttolerance="10"
     gridtolerance="10"
     guidetolerance="10"
     inkscape:pageopacity="0"
     inkscape:pageshadow="2"
     inkscape:window-width="1422"
     inkscape:window-height="1035"
     id="namedview5017"
     showgrid="false"
     inkscape:zoom="0.47788429"
     inkscape:cx="-136.79336"
     inkscape:cy="446.52599"
     inkscape:window-x="274"
     inkscape:window-y="0"
     inkscape:window-maximized="0"
     inkscape:current-layer="svg5015"
     fit-margin-top="0"
     fit-margin-left="0"
     fit-margin-right="0"
     fit-margin-bottom="0" />
  <path
     style="fill:#000000"
     d="M 123.07998,929.20455 C 34.42609,915.62227 66.115568,823.4911 119.97103,826.22721 c 275.58036,12.04014 305.59402,0.11223 304.94891,-208.64374 -604.434,168.29362 -525.62492,-660.145487 -5.61803,-494.00174 1.70913,-18.55462 1.60319,-48.129495 0.61567,-75.484292 0.40839,-51.2361857 93.23192,-75.959431 104.69915,0.264362 4.36054,72.52279 0.66036,154.08864 0.69529,182.15142 -0.95326,112.37658 3.19435,151.37539 1.72466,318.90056 7.44842,339.97036 -27.58799,387.83394 -403.9567,379.79077 z m 299.50059,-406.2566 c -0.66409,-134.0301 0.34214,-134.28317 -2.81731,-290.64456 -325.855683,-193.118919 -533.10187,430.4393 2.81731,290.64456 z"
     id="path7047"
     inkscape:connector-curvature="0"
     sodipodi:nodetypes="cccccccccccc" />
</svg>
