<?xml version="1.0" encoding="UTF-8" standalone="no"?>
<!-- Created with Inkscape (http://www.inkscape.org/) -->

<svg
   xmlns:dc="http://purl.org/dc/elements/1.1/"
   xmlns:cc="http://creativecommons.org/ns#"
   xmlns:rdf="http://www.w3.org/1999/02/22-rdf-syntax-ns#"
   xmlns:svg="http://www.w3.org/2000/svg"
   xmlns="http://www.w3.org/2000/svg"
   xmlns:sodipodi="http://sodipodi.sourceforge.net/DTD/sodipodi-0.dtd"
   xmlns:inkscape="http://www.inkscape.org/namespaces/inkscape"
   id="svg3411"
   version="1.1"
   inkscape:version="0.91 r13725"
   width="159.50093"
   height="930"
   viewBox="0 0 159.50093 930.00001"
   sodipodi:docname="en_lower_l.svg">
  <metadata
     id="metadata3417">
    <rdf:RDF>
      <cc:Work
         rdf:about="">
        <dc:format>image/svg+xml</dc:format>
        <dc:type
           rdf:resource="http://purl.org/dc/dcmitype/StillImage" />
        <dc:title></dc:title>
      </cc:Work>
    </rdf:RDF>
  </metadata>
  <defs
     id="defs3415" />
  <sodipodi:namedview
     pagecolor="#ffffff"
     bordercolor="#666666"
     borderopacity="1"
     objecttolerance="10"
     gridtolerance="10"
     guidetolerance="10"
     inkscape:pageopacity="0"
     inkscape:pageshadow="2"
     inkscape:window-width="1687"
     inkscape:window-height="992"
     id="namedview3413"
     showgrid="false"
     fit-margin-top="0"
     fit-margin-left="0"
     fit-margin-right="0"
     fit-margin-bottom="0"
     inkscape:zoom="0.65348305"
     inkscape:cx="-83.690215"
     inkscape:cy="512.88599"
     inkscape:window-x="0"
     inkscape:window-y="1"
     inkscape:window-maximized="0"
     inkscape:current-layer="svg3411" />
  <path
     style="fill:#000000"
     d="m 102.40736,923.18855 c -4.275353,-5.0188 -9.046332,-8.33833 -10.602165,-7.37678 -1.55578,0.96152 -3.946608,-0.0606 -5.3128,-2.27079 -3.645602,-5.89868 -9.926645,-4.89687 -9.926645,1.5832 0,3.08134 -2.224388,6.36414 -4.943378,7.29508 -6.198046,2.12209 -22.739537,-8.31492 -22.739537,-14.3479 0,-2.47248 -8.04049,-8.7608 -17.86774,-13.97412 -9.82725,-5.21338 -17.021407,-10.32518 -15.986989,-11.35962 1.03455,-1.03429 -1.771443,-4.83821 -6.2354583,-8.45289 -5.609218,-4.54205 -8.305824,-11.72036 -8.729926,-23.23901 -0.337468,-9.16676 0.721074,-16.66607 2.352257,-16.66512 1.631446,9.5e-4 2.966027,-3.45245 2.966027,-7.67426 0,-4.2218 1.594272,-8.6614 3.542991,-9.86571 1.9960703,-1.2336 2.1471403,-8.37859 0.345905,-16.36551 -1.758525,-7.79669 -2.194069,-13.17269 -0.967848,-11.94665 1.225958,1.22596 4.2333243,-0.51174 6.6828143,-3.86153 3.749321,-5.12746 4.588773,-4.45801 5.30808,4.23332 0.496975,6.00603 -0.788567,9.30858 -3.073937,7.89615 -4.815667,-2.97626 -5.072275,5.92886 -0.384133,13.32908 2.594812,4.09586 5.211954,4.36423 10.814871,1.1089 4.065434,-2.36201 5.167161,-4.34864 2.448224,-4.41477 -2.718857,-0.0659 -4.943377,-3.78451 -4.943377,-8.26306 0,-4.47854 1.779616,-7.04293 3.954702,-5.69864 6.004319,3.71085 4.724972,-1.77197 -1.977351,-8.47438 -6.677515,-6.67743 -8.031631,-21.18584 -1.977351,-21.18584 2.175086,0 3.954702,-1.72372 3.954702,-3.8306 0,-2.1068 -2.224388,-2.98042 -4.943378,-1.9415 -3.665139,1.40076 -4.890174,-5.02255 -4.737601,-24.84098 0.113368,-14.70161 -1.431603,-28.94523 -3.432787,-31.65249 -2.001343,-2.70728 -2.727611,-8.40572 -1.61431,-12.66319 1.113381,-4.25745 -0.01147,-8.57551 -2.499371,-9.59561 -2.4880353,-1.02005 -1.180347,-1.99528 2.905677,-2.16692 6.719066,-0.28236 7.21314,-2.77063 5.168664,-26.03093 -1.243358,-14.14525 -3.675104,-27.93728 -5.403968,-30.64894 -3.83448,-6.01415 -4.339785,-89.87401 -0.527294,-87.52202 1.49145,0.92013 0.992103,-4.14508 -1.109953,-11.25611 -5.7494523,-19.44994 -7.9010473,-94.725 -2.880473,-100.77443 2.323519,-2.79959 2.671796,-5.09018 0.774067,-5.09026 -1.8977303,-8e-5 -3.4502673,-29.3635 -3.4502673,-65.25203 0,-35.88852 -0.982084,-65.25213 -2.182205,-65.25242 -1.20012,-3.2e-4 -2.358584,-6.22531 -2.574247,-13.83334 -0.26892,-9.49007 1.036923,-12.95236 4.159608,-11.0284 2.503327,1.54234 1.396274,-2.02059 -2.460088,-7.91808 -3.856547,-5.89735 -5.36922,-10.72246 -3.361497,-10.72246 2.007671,0 3.650401,-6.11065 3.650401,-13.57923 0,-7.46856 1.096771,-15.35387 2.437415,-17.5229 1.340644,-2.16902 0.75983,-4.98045 -1.290551,-6.24762 -2.304537,-1.4243 -2.34382,-7.12993 -0.102822,-14.94391 2.070418,-7.21905 2.141603,-14.12345 0.166097,-16.09898 -3.807007,-3.80709 -1.04246,-19.46181 2.996531,-16.96849 1.3838823,0.85435 2.7723253,-2.71311 3.0850893,-7.92771 0.342477,-5.70966 -1.080425,-8.46188 -3.5770543,-6.91888 -2.439261,1.50759 -2.967873,0.65635 -1.28396,-2.06802 1.573971,-2.54664 4.7763043,-3.44691 7.1164603,-2.00063 2.785692,1.72167 3.57136,-0.94575 2.275272,-7.72522 -1.088598,-5.69516 -0.4569,-9.41386 1.403919,-8.26377 1.860819,1.15008 3.503866,5.10036 3.65106,8.7784 0.197735,4.95458 1.414202,4.30421 4.692571,-2.51 3.351162,-6.9655 3.253718,-9.92118 -0.401534,-12.18029 -2.827586,-1.74755 -3.673787,-5.98694 -2.043263,-10.23625 1.923303,-5.011954 1.353563,-6.369684 -1.843419,-4.3938 -2.544719,1.57273 -4.62679,0.97486 -4.62679,-1.328604 0,-2.30345 1.814417,-4.18809 4.032056,-4.18809 2.217533,0 3.22527,-4.44904 2.239152,-9.88676 -1.079633,-5.95357 0.06855,-9.9346 2.888673,-10.00701 2.574775,-0.0662 1.502523,-1.97042 -2.383104,-4.23172 -5.175149,-3.01187 -6.821017,-8.23926 -6.153885,-19.54555 0.500929,-8.48875 -0.176644,-16.52067 -1.503842,-17.84871 -3.362498,-3.36251 10.181381,-16.22762 20.547499,-19.51769 5.579347,-1.77081 11.101482,-0.44522 15.77884,3.78773 6.772058,6.12863 7.510559,5.80042 12.546081,-5.5756 2.942747,-6.6481605 7.140558,-12.03095045 9.328458,-11.96178045 6.332216,0.20011 17.955798,10.28376045 15.121515,13.11804045 -1.41631,1.41626 2.997823,2.57499 9.809085,2.57499 12.246845,0 20.019125,7.95129 18.361915,18.78483 -0.41603,2.71887 -0.97865,6.66716 -1.25047,8.77398 -0.27182,2.10682 -3.16376,2.80623 -6.42639,1.55425 -4.11624,-1.57954 -5.93206,0.27424 -5.93206,6.05617 0,4.58288 -1.72372,8.33251 -3.83057,8.33251 -2.106805,0 -2.798483,-2.6896 -1.537064,-5.9769 1.610884,-4.19777 0.476937,-5.27984 -3.808959,-3.63514 -8.229524,3.15795 -6.744612,16.57219 2.090192,18.88255 9.077381,2.3738 9.183851,16.71712 0.166098,22.31626 -6.327181,3.92835 -6.242392,4.19676 0.988675,3.12964 6.019818,-0.88835 8.202838,-4.70592 9.137708,-15.97966 1.15266,-13.90069 1.88297,-14.65232 11.86411,-12.21098 5.84969,1.43081 11.74805,4.29707 13.10749,6.36947 1.5012,2.28848 3.53384,2.0494 5.17676,-0.60892 1.48775,-2.40731 1.2017,-4.37692 -0.63566,-4.37692 -5.03713,0 -4.01088,-15.36578 1.15873,-17.34955 2.60615,-1.0001 4.70531,2.70264 4.98875,8.80016 0.26919,5.78971 1.37861,22.09425 2.46536,36.23231 1.08676,14.138064 2.21016,38.162884 2.49674,53.388484 0.28658,15.2256 2.09573,30.65368 4.02045,34.28462 2.33222,4.39931 1.86109,7.1512 -1.41209,8.24884 -6.17508,2.07079 -7.08084,118.01577 -0.95704,122.51482 2.50992,1.84395 2.28398,2.92759 -0.61851,2.96603 -2.51519,0.0343 -3.87084,3.17489 -3.01246,6.98129 3.22636,14.30695 4.01906,64.2639 1.01979,64.2639 -1.71871,0 -1.43371,4.44904 0.63381,9.88676 2.43847,6.41384 2.38547,9.88675 -0.15028,9.88675 -2.17324,0 -1.16901,6.56001 2.26077,14.76831 3.61731,8.65748 4.57633,15.29972 2.31772,16.05261 -2.49463,0.83154 -2.50227,5.15899 -0.0217,12.27453 2.35726,6.7618 2.46931,17.05201 0.29133,26.74554 -1.94703,8.66547 -3.03189,20.521 -2.41079,26.34567 0.62089,5.82465 -0.52914,10.5903 -2.55579,10.5903 -2.02665,0 -3.65768,3.11433 -3.62435,6.92073 0.0527,5.92319 0.62036,6.0657 3.945,0.98868 2.82439,-4.31324 3.77442,-1.07568 3.48122,11.8641 -0.89377,39.44149 1.33009,71.27874 5.1433,73.63537 2.54129,1.57055 2.04853,3.75025 -1.33247,5.89248 -4.14606,2.62698 -4.21042,3.41355 -0.28316,3.46037 3.79759,0.0448 4.04753,1.99449 0.98867,7.70995 -4.82225,9.01045 -5.27399,13.31989 -1.12788,10.75869 1.63145,-1.00766 3.33376,15.29139 3.78326,36.22017 0.56025,26.08211 -0.67362,38.97367 -3.92164,40.98116 -3.66032,2.26209 -3.6213,4.04637 0.17137,7.83911 6.49206,6.49207 6.34887,13.40019 -0.1661,7.99359 -3.51879,-2.92031 -6.85519,-2.95443 -10.87543,-0.11073 -4.80389,3.39748 -4.63315,3.72775 0.99474,1.92383 3.73674,-1.19775 8.14072,-0.0316 9.78662,2.59296 4.88026,7.77993 5.76535,22.56677 1.35093,22.56677 -2.24944,0 -4.09001,4.30074 -4.09001,9.5572 0,5.25643 -1.50437,10.15038 -3.34288,10.87543 -4.37678,1.72583 -9.58607,23.0691 -5.63055,23.0691 3.97819,-5e-5 3.22013,45.50283 -1.05406,63.27523 -1.83076,7.6128 -2.88475,16.19799 -2.34198,19.07822 0.54285,2.88021 -0.98762,7.61573 -3.40059,10.52336 -2.69655,3.24918 -2.93244,6.18587 -0.61193,7.61995 6.42721,3.97223 0.14765,18.1443 -8.04072,18.1443 -4.22486,0 -6.63689,1.69024 -5.36005,3.75628 1.27684,2.06594 -0.84261,5.41455 -4.70999,7.4413 -5.33142,2.79403 -8.91095,1.4788 -14.80485,-5.44008 z M 91.658581,763.13712 c 5.751719,-0.0527 5.850534,-0.59057 0.726083,-3.9547 -4.855056,-3.18713 -4.974356,-4.51224 -0.657007,-7.29851 4.180357,-2.6979 3.837959,-3.95579 -1.649902,-6.06169 -7.814281,-2.99861 -16.587366,3.14375 -10.162029,7.11482 2.221488,1.37281 3.500017,8.2473 2.841401,15.27647 -0.65859,7.02919 -0.423154,8.77619 0.523075,3.88225 0.964156,-4.98678 4.647223,-8.92471 8.378616,-8.95864 z m 56.091809,-19.71295 c 0,-2.17509 -1.77962,-3.95471 -3.9547,-3.95471 -2.17509,0 -3.95471,1.77962 -3.95471,3.95471 0,2.17508 1.77962,3.9547 3.95471,3.9547 2.17508,0 3.9547,-1.77962 3.9547,-3.9547 z m -57.060685,-9.60429 c 7.482508,-7.48248 7.145224,-11.04129 -0.897453,-9.47051 -3.600915,0.70315 -7.002671,4.39296 -7.559493,8.19937 -1.228594,8.39831 0.995531,8.73261 8.457026,1.27104 z m -4.028444,-17.74087 c -1.229385,-1.98922 -0.129187,-4.31885 2.44427,-5.17679 5.163734,-1.72135 1.062496,-10.9798 -4.863625,-10.9798 -4.241418,0 -5.073751,13.14817 -1.084906,17.13704 3.850509,3.85053 6.100892,3.22092 3.50434,-0.9805 z m 40.551859,-14.28388 c -1.21752,-1.21753 -3.42891,0.97733 -4.91403,4.87746 -2.14609,5.63624 -1.69183,6.09048 2.21384,2.21384 2.70272,-2.68263 3.91782,-5.87368 2.70022,-7.0913 z m 28.44667,-17.45812 c 0,-2.04669 -1.48301,-4.63786 -3.29558,-5.75807 -1.81257,-1.12023 -3.29559,0.55419 -3.29559,3.7213 0,3.16692 1.48302,5.75807 3.29559,5.75807 1.81257,0 3.29558,-1.67469 3.29558,-3.7213 z m -64.829455,-6.4889 c -1.320344,-3.44051 -2.400505,-6.99974 -2.400505,-7.9094 0,-0.90958 -1.622218,-1.65386 -3.604763,-1.65386 -2.864417,0 -3.156881,6.64712 -0.652526,14.83013 0.166097,0.54391 2.272635,0.98868 4.68039,0.98868 2.407886,0 3.297615,-2.81496 1.977351,-6.2555 z m 37.614885,-0.66518 c 0.25837,-3.8064 0.16346,-8.53725 -0.20828,-10.51302 -0.37227,-1.97577 1.64146,-5.06284 4.47503,-6.86017 3.57745,-2.26894 2.36123,-3.28636 -3.97932,-3.32844 -5.88613,-0.0395 -8.12863,-1.68312 -6.3097,-4.62629 1.55209,-2.51123 1.1524,-3.534 -0.88797,-2.27289 -4.61479,2.8521 -1.95151,34.52162 2.9031,34.52162 1.9465,0 3.75006,-3.11433 4.00764,-6.92073 z M 46.905484,672.2395 c 1.344335,-2.17509 0.559458,-3.9547 -1.744024,-3.9547 -2.303482,0 -4.188082,1.77961 -4.188082,3.9547 0,2.17509 0.784877,3.9547 1.744024,3.9547 0.959147,0 2.8438,-1.77961 4.188082,-3.9547 z m 2.945278,-17.79616 c 1.039559,-5.43771 0.523602,-9.88675 -1.146073,-9.88675 -1.669939,0 -2.157686,-3.35836 -1.084379,-7.46308 1.073306,-4.10469 0.402061,-8.42077 -1.491978,-9.59126 -1.894038,-1.17059 -3.241221,3.96749 -2.994026,11.41778 0.247828,7.45026 -1.027695,13.54596 -2.833096,13.54596 -1.805453,0 -3.282561,2.66942 -3.282561,5.93205 0,9.9388 10.813184,6.60631 12.832033,-3.9547 z m 36.884241,1.97735 c 0,-4.35017 -1.398382,-7.9094 -3.107288,-7.9094 -1.708959,0 -3.107263,3.55923 -3.107263,7.9094 0,4.35017 1.398383,7.90941 3.107263,7.90941 1.708958,0 3.107288,-3.55924 3.107288,-7.90941 z m 1.694986,-25.47216 c 0,-0.95914 -1.779616,-2.84382 -3.954703,-4.1881 -2.175086,-1.34434 -3.954702,-0.55946 -3.954702,1.74402 0,2.30348 1.779616,4.18811 3.954702,4.18811 2.175087,0 3.954703,-0.78488 3.954703,-1.74403 z M 43.055581,601.81865 c -1.217521,-1.21752 -4.408702,-0.003 -7.091308,2.70019 -3.876663,3.90574 -3.422399,4.35998 2.213842,2.21384 3.900233,-1.48512 6.095093,-3.69643 4.877466,-4.91403 z m 77.358959,-43.49073 c -2.36597,-0.78857 -4.30164,-3.95502 -4.30164,-7.03637 0,-3.0814 -1.8421,-5.60252 -4.09383,-5.60252 -2.76164,0 -2.70214,2.60035 0.18192,7.99116 2.35226,4.3951 3.1514,9.81193 1.77593,12.03732 -1.37545,2.22545 -0.12392,6.93584 2.78313,10.46755 4.69666,5.70774 5.43226,5.15197 6.61943,-5.00096 0.73452,-6.28228 -0.60006,-12.06759 -2.96602,-12.85618 z M 38.383549,547.49583 c -1.287915,-3.35644 -3.189968,-5.25446 -4.226601,-4.21783 -1.036659,1.03666 -0.711847,3.78284 0.721865,6.10264 3.899547,6.30957 6.178747,5.0838 3.504657,-1.88481 z m 81.684061,-13.67091 c 0,-4.35017 -1.77962,-7.9094 -3.95471,-7.9094 -2.17508,0 -3.9547,0.74427 -3.9547,1.65385 0,0.90958 -1.08016,4.46889 -2.4005,7.90941 -1.57529,4.10492 -0.21619,6.25549 3.9547,6.25549 3.71868,5e-5 6.35515,-3.28119 6.35515,-7.90935 z m -4.5163,-28.55361 c 0.54153,-9.17923 0.25046,-15.85279 -0.64435,-14.83013 -3.24286,3.70107 -6.13174,31.51963 -3.27321,31.51963 1.613,0 3.37603,-7.51029 3.91764,-16.6895 z m 0.56157,-60.00409 c 0,-0.85474 -2.76184,-2.61406 -6.13744,-3.90941 -3.51939,-1.35039 -5.10681,-0.68759 -3.72132,1.5542 2.32247,3.75781 9.85876,5.55815 9.85876,2.35516 z M 70.086577,432.98001 c -1.252059,-3.26262 -4.083467,-5.93205 -6.292169,-5.93205 -2.314819,0 -1.930422,2.51282 0.907209,5.93205 2.707758,3.26263 5.53922,5.93206 6.292169,5.93206 0.752975,0 0.344586,-2.66943 -0.907209,-5.93206 z m 0.07909,-19.97891 c 1.350399,-3.51937 0.687591,-5.10679 -1.554198,-3.7213 -2.15004,1.32878 -3.909408,4.09074 -3.909408,6.13746 0,5.68855 2.834599,4.43504 5.463659,-2.41606 z M 68.65682,383.12311 c 0,-5.68536 -6.861856,-4.05621 -9.262229,2.19908 -1.469831,3.83021 -0.298711,5.00141 3.531602,3.5316 3.151845,-1.20961 5.730627,-3.78829 5.730627,-5.73068 z m 1.949405,-11.39571 c 1.385464,-2.24179 -0.203008,-2.90473 -3.721296,-1.5542 -6.851205,2.62909 -8.104714,5.46366 -2.416059,5.46366 2.04669,0 4.808575,-1.75932 6.13746,-3.90943 z m -5.904054,-23.5401 c 0,-2.04669 -1.483014,-4.63786 -3.295585,-5.75807 -1.812572,-1.12024 -3.295586,0.55445 -3.295586,3.72129 0,3.16695 1.483014,5.7581 3.295586,5.7581 1.812571,0 3.295585,-1.67468 3.295585,-3.72132 z m 44.130569,-15.18347 c -3.52276,-1.17428 -3.72656,-3.06824 -0.72001,-6.69101 3.21477,-3.87358 1.86872,-5.05314 -5.76701,-5.05314 -6.582896,0 -9.940175,2.17931 -9.900153,6.42639 0.05009,5.2045 0.718701,5.3871 3.522348,0.96047 2.71659,-4.2893 4.041815,-3.63846 6.156235,3.02345 1.57265,4.95503 4.55281,7.3408 7.15827,5.73052 3.21847,-1.98922 3.09297,-3.21578 -0.44978,-4.39671 z M 70.992916,317.33409 c -2.742586,-2.74256 -10.245447,2.82977 -10.245447,7.60924 0,2.62223 2.269208,2.3222 6.027625,-0.797 3.3152,-2.75137 5.21322,-5.8169 4.217822,-6.8123 z m -2.614059,-29.92278 c 0.152916,-1.75958 -1.501732,-2.09942 -3.676765,-0.75535 -2.175087,1.34433 -3.829602,6.34324 -3.67674,11.10881 0.267865,8.35378 0.399953,8.38088 3.67674,0.75535 1.869256,-4.35017 3.523877,-9.34915 3.676765,-11.10884 z m 55.643763,-54.14375 c 0,-2.17509 -0.78487,-3.9547 -1.74402,-3.9547 -0.95915,0 -2.8438,1.77961 -4.18808,3.9547 -1.34434,2.17509 -0.55946,3.9547 1.74402,3.9547 2.30348,0 4.18808,-1.77961 4.18808,-3.9547 z M 99.040771,149.47729 c -1.262341,-3.1548 -2.199605,-2.21769 -2.389167,2.3893 -0.171371,4.16891 0.762993,6.50466 2.077009,5.19054 1.314017,-1.31412 1.454537,-4.72504 0.312158,-7.57984 z m 34.399769,-9.35065 c 1.3504,-3.51939 0.68759,-5.1068 -1.5542,-3.72131 -2.15004,1.32889 -3.90941,4.09073 -3.90941,6.13745 0,5.68857 2.8346,4.43505 5.46366,-2.41613 z M 97.720797,124.63988 c 1.225167,-3.19297 0.525712,-6.85723 -1.554198,-8.1428 -2.080174,-1.28557 -3.781987,1.32685 -3.781987,5.8054 0,9.54889 2.199341,10.51221 5.336238,2.33739 z m 36.521463,-9.08529 c 6.76244,-4.5821 -1.10626,-28.623764 -9.34446,-28.550484 -4.98638,0.0443 -5.46036,0.91565 -1.77171,3.25668 8.10867,5.14618 9.10787,19.830264 1.64569,24.182754 -5.38338,3.13993 -5.52902,3.90872 -0.74955,3.95682 3.26263,0.0327 7.86166,-1.24776 10.22006,-2.84577 z M 98.975729,104.91368 c 0,-3.16695 -1.512014,-4.8236 -3.360073,-3.68144 -1.848164,1.14217 -2.336174,3.7333 -1.084907,5.75809 3.197852,5.17426 4.444928,4.59164 4.444928,-2.07664 z M 117.47746,72.931536 c -1.28791,-3.35644 -3.18997,-5.25446 -4.2266,-4.21781 -1.03666,1.03663 -0.71185,3.78281 0.72186,6.10261 3.89955,6.30957 6.17878,5.08381 3.50466,-1.88481 z M 26.963107,55.579196 c 1.251268,-2.02478 0.763258,-4.61593 -1.084906,-5.75809 -1.848164,-1.14217 -3.3601,0.51448 -3.3601,3.68144 0,6.66829 1.24705,7.25091 4.444954,2.07664 z M 9.3358127,648.51129 c 0,-2.17509 1.8845483,-3.9547 4.1881093,-3.9547 2.303482,0 3.088227,1.77961 1.744024,3.9547 -1.344335,2.17508 -3.228909,3.9547 -4.188109,3.9547 -0.959147,0 -1.7440243,-1.77962 -1.7440243,-3.9547 z M 1.4292037,78.045476 c -0.0039,-4.18662 14.8934873,-3.70343 17.5338043,0.56868 1.201439,1.94411 -2.251543,3.27881 -7.673203,2.96603 -5.4217913,-0.31277 -9.8590463,-1.9034 -9.8606013,-3.53471 z M 120.06747,45.880206 c 0,-0.83397 4.39521,-2.35653 9.76709,-3.38342 5.37188,-1.0269 8.8261,-0.34458 7.67602,1.51631 -2.02507,3.27674 -17.44311,4.92706 -17.44311,1.8671 z M 51.350859,12.598096 C 47.419806,6.2375555 51.748966,-0.07398445 59.991672,6.5554985e-4 64.160482,0.03835555 65.040614,1.1554255 62.328638,2.9666855 c -2.392595,1.59801 -5.181214,5.48724 -6.196676,8.6427405 -1.364899,4.24121 -2.611685,4.49901 -4.781076,0.98867 z"
     id="path3421"
     inkscape:connector-curvature="0" />
</svg>
