<?xml version="1.0" encoding="UTF-8" standalone="no"?>
<!-- Created with Inkscape (http://www.inkscape.org/) -->

<svg
   xmlns:dc="http://purl.org/dc/elements/1.1/"
   xmlns:cc="http://creativecommons.org/ns#"
   xmlns:rdf="http://www.w3.org/1999/02/22-rdf-syntax-ns#"
   xmlns:svg="http://www.w3.org/2000/svg"
   xmlns="http://www.w3.org/2000/svg"
   xmlns:sodipodi="http://sodipodi.sourceforge.net/DTD/sodipodi-0.dtd"
   xmlns:inkscape="http://www.inkscape.org/namespaces/inkscape"
   id="svg3406"
   version="1.1"
   inkscape:version="0.91 r13725"
   width="577.15204"
   height="930"
   viewBox="0 0 577.15205 930"
   sodipodi:docname="en_lower_h.svg">
  <metadata
     id="metadata3412">
    <rdf:RDF>
      <cc:Work
         rdf:about="">
        <dc:format>image/svg+xml</dc:format>
        <dc:type
           rdf:resource="http://purl.org/dc/dcmitype/StillImage" />
        <dc:title></dc:title>
      </cc:Work>
    </rdf:RDF>
  </metadata>
  <defs
     id="defs3410" />
  <sodipodi:namedview
     pagecolor="#ffffff"
     bordercolor="#666666"
     borderopacity="1"
     objecttolerance="10"
     gridtolerance="10"
     guidetolerance="10"
     inkscape:pageopacity="0"
     inkscape:pageshadow="2"
     inkscape:window-width="1798"
     inkscape:window-height="984"
     id="namedview3408"
     showgrid="false"
     inkscape:zoom="0.32802288"
     inkscape:cx="-162.95709"
     inkscape:cy="605.95327"
     inkscape:window-x="0"
     inkscape:window-y="0"
     inkscape:window-maximized="0"
     inkscape:current-layer="svg3406"
     fit-margin-top="0"
     fit-margin-left="0"
     fit-margin-right="0"
     fit-margin-bottom="0" />
  <path
     style="fill:#000000"
     d="M 469.5362,869.81213 C 473.10327,731.1541 463.70788,684.79591 468.39476,516.41308 488.05773,336.33899 120.23396,320.40167 116.16619,513.71602 111.87886,748.12046 113.11225,667.18211 112.64166,875.60635 103.60713,952.21905 6.2961055,944.51117 4.4020762,876.45294 0.59232535,700.6834 8.1442947,534.20647 5.3485411,358.55429 9.7190964,250.24586 3.821485,220.78137 6.89688,60.069975 c 2.976147,-81.713599 108.50543,-77.676566 105.61699,3.450816 -2.52954,126.512199 0.27937,185.527129 -0.73236,288.704039 43.13432,-131.35097 494.75766,-113.99514 459.40146,167.33635 6.55334,201.87981 -1.74642,97.25215 -0.66973,350.79762 -1.92932,86.42797 -103.77235,72.48581 -100.97704,-0.54667 z"
     id="path3416"
     inkscape:connector-curvature="0"
     sodipodi:nodetypes="cccccccccccc" />
</svg>
