<?xml version="1.0" encoding="UTF-8" standalone="no"?>
<!-- Created with Inkscape (http://www.inkscape.org/) -->

<svg
   xmlns:dc="http://purl.org/dc/elements/1.1/"
   xmlns:cc="http://creativecommons.org/ns#"
   xmlns:rdf="http://www.w3.org/1999/02/22-rdf-syntax-ns#"
   xmlns:svg="http://www.w3.org/2000/svg"
   xmlns="http://www.w3.org/2000/svg"
   xmlns:sodipodi="http://sodipodi.sourceforge.net/DTD/sodipodi-0.dtd"
   xmlns:inkscape="http://www.inkscape.org/namespaces/inkscape"
   id="svg3477"
   version="1.1"
   inkscape:version="0.91 r13725"
   width="27"
   height="41.849998"
   viewBox="0 0 27 41.849998"
   sodipodi:docname="en_lower_y.svg">
  <metadata
     id="metadata3483">
    <rdf:RDF>
      <cc:Work
         rdf:about="">
        <dc:format>image/svg+xml</dc:format>
        <dc:type
           rdf:resource="http://purl.org/dc/dcmitype/StillImage" />
        <dc:title></dc:title>
      </cc:Work>
    </rdf:RDF>
  </metadata>
  <defs
     id="defs3481" />
  <sodipodi:namedview
     pagecolor="#ffffff"
     bordercolor="#666666"
     borderopacity="1"
     objecttolerance="10"
     gridtolerance="10"
     guidetolerance="10"
     inkscape:pageopacity="0"
     inkscape:pageshadow="2"
     inkscape:window-width="1659"
     inkscape:window-height="971"
     id="namedview3479"
     showgrid="false"
     inkscape:zoom="0.35244924"
     inkscape:cx="-98.781168"
     inkscape:cy="83.411243"
     inkscape:window-x="149"
     inkscape:window-y="0"
     inkscape:window-maximized="0"
     inkscape:current-layer="svg3477" />
  <path
     style="fill:#000000"
     d="m -195.0843,472.34992 c -89.70436,-6.91504 -79.41738,-105.94916 -1.94398,-104.89011 66.87744,-1.69267 94.06237,-57.10148 129.913655,-121.81704 27.590228,-55.7995 67.62257373,-130.37351 30.83775,-180.39488 -118.822805,-228.83134 -141.746625,-248.48296 -245.183105,-457.10057 -17.0066,-70.78925 78.76815,-87.38394 100.81801,-35.30662 104.052523,200.91463 131.239982,232.69838 201.844434,376.665124 4.009804,12.841844 20.088027,16.8266 24.755238,5.299068 85.246308,-236.809322 68.329368,-195.280552 134.260838,-371.423362 31.7833,-70.84596 120.09705,-42.45312 99.7396,31.71193 C 162.46328,-29.436559 155.47093,-43.169943 65.20594,200.06077 29.367129,281.95748 22.257028,334.5352 -41.649626,406.79306 -65.58609,432.00381 -121.92304,473.6668 -195.0843,472.34992 Z"
     id="path3487"
     inkscape:connector-curvature="0"
     sodipodi:nodetypes="ccccccccccccc" />
</svg>
