<?xml version="1.0" encoding="UTF-8" standalone="no"?>
<!-- Created with Inkscape (http://www.inkscape.org/) -->

<svg
   xmlns:dc="http://purl.org/dc/elements/1.1/"
   xmlns:cc="http://creativecommons.org/ns#"
   xmlns:rdf="http://www.w3.org/1999/02/22-rdf-syntax-ns#"
   xmlns:svg="http://www.w3.org/2000/svg"
   xmlns="http://www.w3.org/2000/svg"
   xmlns:sodipodi="http://sodipodi.sourceforge.net/DTD/sodipodi-0.dtd"
   xmlns:inkscape="http://www.inkscape.org/namespaces/inkscape"
   id="svg4027"
   version="1.1"
   inkscape:version="0.91 r13725"
   width="697.12653"
   height="1162.5012"
   viewBox="0 0 697.12653 1162.5012"
   sodipodi:docname="en_lower_k.svg">
  <metadata
     id="metadata4033">
    <rdf:RDF>
      <cc:Work
         rdf:about="">
        <dc:format>image/svg+xml</dc:format>
        <dc:type
           rdf:resource="http://purl.org/dc/dcmitype/StillImage" />
        <dc:title></dc:title>
      </cc:Work>
    </rdf:RDF>
  </metadata>
  <defs
     id="defs4031" />
  <sodipodi:namedview
     pagecolor="#ffffff"
     bordercolor="#666666"
     borderopacity="1"
     objecttolerance="10"
     gridtolerance="10"
     guidetolerance="10"
     inkscape:pageopacity="0"
     inkscape:pageshadow="2"
     inkscape:window-width="1303"
     inkscape:window-height="1038"
     id="namedview4029"
     showgrid="false"
     inkscape:zoom="0.52279823"
     inkscape:cx="145.1455"
     inkscape:cy="641.77741"
     inkscape:window-x="312"
     inkscape:window-y="0"
     inkscape:window-maximized="0"
     inkscape:current-layer="svg4027"
     fit-margin-top="0"
     fit-margin-left="0"
     fit-margin-right="0"
     fit-margin-bottom="0" />
  <path
     style="fill:#000000"
     d="m 194.7542,793.77989 c -13.42348,-10.88437 -19.70797,-13.86406 -18.4311,9.85529 6.33752,107.7744 8.41051,207.94402 9.02902,301.48302 2.8312,64.679 -131.252868,82.521 -138.629863,4.2221 2.921301,-150.55629 0.03716,-324.23644 -1.10699,-456.79267 0.173636,-209.16254 -11.158164,-407.81122 0.457972,-593.579746 0.0015,-69.078043 116.776061,-82.375321 122.535661,0.266593 -0.91577,369.434723 0.42572,310.390983 0.5905,579.829633 -2.03547,18.54158 2.59512,30.15935 10.77055,27.0222 8.65443,-5.94914 2.55959,-4.55125 15.36775,-13.04494 110.31996,-108.3863 290.35917,-272.2637 351.61292,-325.87744 73.17689,-55.49419 112.01488,25.10493 76.9603,60.83655 -80.8332,102.7765 -274.66408,251.00886 -334.74849,319.08146 -7.78988,6.1835 -10.35911,8.99863 -5.74679,12.38772 126.6102,106.49192 254.66669,216.84586 378.47287,319.70514 70.21441,46.5371 2.82219,150.4538 -64.0601,111.277 C 423.58083,991.03606 269.86271,854.81935 194.7542,793.77989 Z"
     id="path4037"
     inkscape:connector-curvature="0"
     sodipodi:nodetypes="ccccccccccccccccc" />
</svg>
