<?xml version="1.0" encoding="UTF-8" standalone="no"?>
<!-- Created with Inkscape (http://www.inkscape.org/) -->

<svg
   xmlns:dc="http://purl.org/dc/elements/1.1/"
   xmlns:cc="http://creativecommons.org/ns#"
   xmlns:rdf="http://www.w3.org/1999/02/22-rdf-syntax-ns#"
   xmlns:svg="http://www.w3.org/2000/svg"
   xmlns="http://www.w3.org/2000/svg"
   xmlns:sodipodi="http://sodipodi.sourceforge.net/DTD/sodipodi-0.dtd"
   xmlns:inkscape="http://www.inkscape.org/namespaces/inkscape"
   id="svg3442"
   version="1.1"
   inkscape:version="0.91 r13725"
   width="24.75"
   height="29.4"
   viewBox="0 0 24.75 29.4"
   sodipodi:docname="en_lower_x.svg">
  <metadata
     id="metadata3448">
    <rdf:RDF>
      <cc:Work
         rdf:about="">
        <dc:format>image/svg+xml</dc:format>
        <dc:type
           rdf:resource="http://purl.org/dc/dcmitype/StillImage" />
        <dc:title />
      </cc:Work>
    </rdf:RDF>
  </metadata>
  <defs
     id="defs3446" />
  <sodipodi:namedview
     pagecolor="#ffffff"
     bordercolor="#666666"
     borderopacity="1"
     objecttolerance="10"
     gridtolerance="10"
     guidetolerance="10"
     inkscape:pageopacity="0"
     inkscape:pageshadow="2"
     inkscape:window-width="1670"
     inkscape:window-height="1026"
     id="namedview3444"
     showgrid="false"
     inkscape:zoom="1.0034014"
     inkscape:cx="-7.6816196"
     inkscape:cy="269.06985"
     inkscape:window-x="156"
     inkscape:window-y="0"
     inkscape:window-maximized="0"
     inkscape:current-layer="svg3442" />
  <path
     style="fill:#000000"
     d="M 244.34197,439.74661 C 176.41176,301.37966 133.66924,239.87172 39.875823,120.48123 29.086811,102.0812 20.153861,113.98184 17.103034,118.89948 -52.032256,226.31506 -113.68164,330.07105 -180.07256,438.89106 -245.87459,523.44575 -342.07929,434.04224 -311.05944,381.68862 -167.41569,180.00494 -141.5797,139.83914 -55.363422,12.514044 -45.19589,10.751301 -42.626549,6.7061216 -49.352369,-2.8748112 -140.38249,-111.87237 -222.89181,-214.37401 -315.07297,-343.51707 c -36.60706,-117.21518 98.01353,-142.93844 139.12173,-79.733 92.731505,104.41788 105.124757,150.06694 185.4380584,236.80736 10.2215326,14.61263 33.3510606,17.86793 40.8955296,3.34914 53.534392,-94.20143 114.185292,-160.55597 169.931072,-239.35224 64.02978,-76.3749 153.6044,-9.08348 105.53237,68.47237 -103.95613,198.32366 -115.73821,168.18634 -205.7029,339.519711 -3.70621,10.8494706 -5.05206,12.4158835 8.66512,17.7315229 C 213.60932,126.76196 290.98344,248.49318 369.51952,375.89511 c 43.22826,90.27571 -85.26896,132.90858 -125.17755,63.8515 z"
     id="path3452"
     inkscape:connector-curvature="0"
     sodipodi:nodetypes="ccccccccccccccccc" />
</svg>
