<?xml version="1.0" encoding="UTF-8" standalone="no"?>
<!-- Created with Inkscape (http://www.inkscape.org/) -->

<svg
   xmlns:dc="http://purl.org/dc/elements/1.1/"
   xmlns:cc="http://creativecommons.org/ns#"
   xmlns:rdf="http://www.w3.org/1999/02/22-rdf-syntax-ns#"
   xmlns:svg="http://www.w3.org/2000/svg"
   xmlns="http://www.w3.org/2000/svg"
   xmlns:sodipodi="http://sodipodi.sourceforge.net/DTD/sodipodi-0.dtd"
   xmlns:inkscape="http://www.inkscape.org/namespaces/inkscape"
   id="svg4026"
   version="1.1"
   inkscape:version="0.91 r13725"
   width="519.32544"
   height="930.80817"
   viewBox="0 0 519.32545 930.80816"
   sodipodi:docname="en_lower_b.svg">
  <metadata
     id="metadata4032">
    <rdf:RDF>
      <cc:Work
         rdf:about="">
        <dc:format>image/svg+xml</dc:format>
        <dc:type
           rdf:resource="http://purl.org/dc/dcmitype/StillImage" />
        <dc:title></dc:title>
      </cc:Work>
    </rdf:RDF>
  </metadata>
  <defs
     id="defs4030" />
  <sodipodi:namedview
     pagecolor="#ffffff"
     bordercolor="#666666"
     borderopacity="1"
     objecttolerance="10"
     gridtolerance="10"
     guidetolerance="10"
     inkscape:pageopacity="0"
     inkscape:pageshadow="2"
     inkscape:window-width="1489"
     inkscape:window-height="1019"
     id="namedview4028"
     showgrid="false"
     fit-margin-top="0"
     fit-margin-left="0"
     fit-margin-right="0"
     fit-margin-bottom="0"
     inkscape:zoom="1.0225319"
     inkscape:cx="209.38645"
     inkscape:cy="585.45161"
     inkscape:window-x="25"
     inkscape:window-y="35"
     inkscape:window-maximized="0"
     inkscape:current-layer="svg4026" />
  <path
     style="fill:#000000"
     d="M 1.78119,895.15588 C 2.85372,603.70722 3.07409,299.13276 0,40.310573 19.57605,-28.430067 69.924097,3.8965671 64.896867,40.491666 67.204547,169.96689 62.554556,252.61683 63.133566,351.2849 273.78866,294.91177 496.83193,317.93077 519.32545,622.87755 c -8.92611,234.01063 -252.62658,317.4184 -454.549273,243.3215 -1.42117,18.4797 -1.2966,19.8915 -1.11187,29.3713 6.09507,40.5451 -54.383357,53.16813 -61.883117,-0.41447 z M 453.5699,618.93051 C 455.66347,406.21932 244.4623,329.3761 72.094526,422.95124 55.442696,506.12906 68.382207,703.77486 63.958827,797.2644 284.26544,898.5743 462.65047,755.10255 453.5699,618.93051 Z"
     id="path4036"
     inkscape:connector-curvature="0"
     sodipodi:nodetypes="cccccccccccc" />
</svg>
