<?xml version="1.0" encoding="UTF-8" standalone="no"?>
<!-- Created with Inkscape (http://www.inkscape.org/) -->

<svg
   xmlns:dc="http://purl.org/dc/elements/1.1/"
   xmlns:cc="http://creativecommons.org/ns#"
   xmlns:rdf="http://www.w3.org/1999/02/22-rdf-syntax-ns#"
   xmlns:svg="http://www.w3.org/2000/svg"
   xmlns="http://www.w3.org/2000/svg"
   xmlns:sodipodi="http://sodipodi.sourceforge.net/DTD/sodipodi-0.dtd"
   xmlns:inkscape="http://www.inkscape.org/namespaces/inkscape"
   id="svg3442"
   version="1.1"
   inkscape:version="0.91 r13725"
   width="695.54816"
   height="930"
   viewBox="0 0 695.54816 930.00001"
   sodipodi:docname="en_lower_x.svg">
  <metadata
     id="metadata3448">
    <rdf:RDF>
      <cc:Work
         rdf:about="">
        <dc:format>image/svg+xml</dc:format>
        <dc:type
           rdf:resource="http://purl.org/dc/dcmitype/StillImage" />
        <dc:title></dc:title>
      </cc:Work>
    </rdf:RDF>
  </metadata>
  <defs
     id="defs3446" />
  <sodipodi:namedview
     pagecolor="#ffffff"
     bordercolor="#666666"
     borderopacity="1"
     objecttolerance="10"
     gridtolerance="10"
     guidetolerance="10"
     inkscape:pageopacity="0"
     inkscape:pageshadow="2"
     inkscape:window-width="1670"
     inkscape:window-height="1026"
     id="namedview3444"
     showgrid="false"
     inkscape:zoom="0.50170069"
     inkscape:cx="198.17391"
     inkscape:cy="526.75179"
     inkscape:window-x="178"
     inkscape:window-y="20"
     inkscape:window-maximized="0"
     inkscape:current-layer="svg3442"
     fit-margin-top="0"
     fit-margin-left="0"
     fit-margin-right="0"
     fit-margin-bottom="0" />
  <path
     style="fill:#000000"
     d="M 537.67519,881.73448 C 458.23862,753.07069 445.46723,736.50466 359.14232,606.89054 c -10.72784,-18.2957 -16.63726,-3.48966 -19.67079,1.4001 C 270.72822,715.09719 226.27469,772.68076 160.2602,880.88377 91.858381,983.78728 -37.493469,906.78219 14.160651,804.18647 155.999,602.65535 146.01396,614.24719 231.7414,487.644 255.72472,459.13535 258.27949,434.30296 240.69125,413.87579 150.17726,305.49623 97.864541,245.19606 6.2060409,116.78523 -30.193469,0.2346385 103.66384,-25.342772 144.53897,37.504298 236.7447,141.33015 249.06768,186.72038 328.92562,272.969 c 10.16357,14.52978 30.18908,11.82086 37.69078,-2.61561 60.16757,-90.69444 94.82987,-151.2577 149.26862,-233.571042 79.52209,-89.8153 184.44418,2.85953 135.65376,85.921412 -115.25823,185.30768 -90.42824,135.06178 -189.79243,292.54124 -21.52247,21.68851 -7.70605,47.46871 6.63407,68.16992 84.3205,122.78403 134.50001,194.27708 212.59081,320.95666 62.80235,108.59209 -94.69509,176.74818 -143.29604,77.3629 z"
     id="path3452"
     inkscape:connector-curvature="0"
     sodipodi:nodetypes="ccccccccccccccccc" />
</svg>
