<?xml version="1.0" encoding="UTF-8" standalone="no"?>
<!-- Created with Inkscape (http://www.inkscape.org/) -->

<svg
   xmlns:dc="http://purl.org/dc/elements/1.1/"
   xmlns:cc="http://creativecommons.org/ns#"
   xmlns:rdf="http://www.w3.org/1999/02/22-rdf-syntax-ns#"
   xmlns:svg="http://www.w3.org/2000/svg"
   xmlns="http://www.w3.org/2000/svg"
   xmlns:sodipodi="http://sodipodi.sourceforge.net/DTD/sodipodi-0.dtd"
   xmlns:inkscape="http://www.inkscape.org/namespaces/inkscape"
   id="svg3778"
   version="1.1"
   inkscape:version="0.91 r13725"
   width="215.53203"
   height="930.00098"
   viewBox="0 0 215.53202 930.00098"
   sodipodi:docname="en_lower_j.svg">
  <metadata
     id="metadata3784">
    <rdf:RDF>
      <cc:Work
         rdf:about="">
        <dc:format>image/svg+xml</dc:format>
        <dc:type
           rdf:resource="http://purl.org/dc/dcmitype/StillImage" />
        <dc:title></dc:title>
      </cc:Work>
    </rdf:RDF>
  </metadata>
  <defs
     id="defs3782" />
  <sodipodi:namedview
     pagecolor="#ffffff"
     bordercolor="#666666"
     borderopacity="1"
     objecttolerance="10"
     gridtolerance="10"
     guidetolerance="10"
     inkscape:pageopacity="0"
     inkscape:pageshadow="2"
     inkscape:window-width="1391"
     inkscape:window-height="1043"
     id="namedview3780"
     showgrid="false"
     fit-margin-top="0"
     fit-margin-left="0"
     fit-margin-right="0"
     fit-margin-bottom="0"
     inkscape:zoom="0.86107945"
     inkscape:cx="245.29575"
     inkscape:cy="507.12626"
     inkscape:window-x="220"
     inkscape:window-y="0"
     inkscape:window-maximized="0"
     inkscape:current-layer="svg3778" />
  <path
     style="fill:#000000"
     d="m 22.08162,927.31484 c -5.07382,-1.6351 -10.975606,-3.44067 -13.1150978,-4.01213 -2.139472,-0.57155 -5.385118,-4.87991 -7.212534,-9.57425 -2.61286203,-6.71202 -2.28744203,-10.37232 1.523377,-17.1358 2.665324,-4.73034 3.584987,-7.82125 2.043673,-6.86868 -1.541211,0.95265 -3.671499,0.32554 -4.73382203,-1.3932 -1.06233,-1.71895 -0.64289,-3.12519 0.93194203,-3.12519 1.574832,0 3.736218,-5.45764 4.802868,-12.12807 l 1.939327,-12.12809 12.8895128,1.55372 c 7.089245,0.85445 14.239273,2.38783 15.888972,3.40739 1.741499,1.07627 2.17588,-0.29254 1.035879,-3.26326 -2.017843,-5.25832 2.315589,-7.24461 5.29344,-2.42633 2.349313,3.80108 17.150314,3.35877 17.150314,-0.51271 0,-1.76179 0.77573,-2.4274 1.723869,-1.4793 1.730224,1.73043 16.726367,-11.74578 16.726367,-15.03099 0,-5.00824 21.972263,-47.74675 23.672783,-46.04623 1.09759,1.09759 6.06479,-6.48325 11.03846,-16.84609 7.31947,-15.25034 8.24337,-19.34814 4.8474,-21.49963 -3.33222,-2.1111 -3.14095,-2.66784 0.92948,-2.70524 7.939,-0.0738 8.41291,-6.78742 1.23145,-17.44843 -5.60395,-8.31928 -6.29717,-12.64695 -4.82882,-30.1455 1.03609,-12.34617 3.37701,-21.45925 5.91563,-23.0282 2.4447,-1.51087 3.49355,-5.3024 2.50868,-9.06854 -1.05392,-4.03001 0.0881,-7.46908 3.02896,-9.11435 3.26604,-1.8278 3.65183,-3.30333 1.25154,-4.78679 -1.90837,-1.17959 -3.63364,-0.33313 -3.83374,1.88069 -0.2009,2.21391 -1.33867,-0.12505 -2.53006,-5.19983 -1.19148,-5.07382 -1.15355,-11.32047 0.0841,-13.8814 1.2376,-2.56096 0.44014,-7.13154 -1.77184,-10.15689 -3.00254,-4.10621 -4.4204,-4.48489 -5.59324,-1.49386 -0.86409,2.20372 -1.47971,-0.96494 -1.36798,-7.04148 0.1107,-6.07653 -0.80751,-12.99537 -2.04245,-15.37521 -1.23514,-2.37984 -0.0266,-1.5857 2.68456,1.76467 4.83038,5.96828 4.91281,5.9404 4.07183,-1.37762 -0.47213,-4.10814 -3.33042,-10.01331 -6.35183,-13.12261 -3.02142,-3.10929 -4.68715,-6.95798 -3.7016,-8.55261 0.98545,-1.59472 0.34031,-5.61148 -1.43358,-8.92632 -2.31772,-4.3307 -2.22402,-6.64603 0.33292,-8.22629 2.33599,-1.44384 2.72,-0.84256 1.11788,1.7499 -1.62587,2.63058 -1.01435,3.4788 1.83109,2.54054 6.99408,-2.30616 6.90107,-14.0306 -0.14555,-18.43168 -3.48966,-2.17941 -6.34474,-5.18278 -6.34474,-6.6743 0,-1.4916 2.27525,-0.8235 5.05613,1.48422 4.52757,3.75758 4.80691,3.39514 2.67221,-3.46725 -1.3112,-4.21494 -4.355,-8.81301 -6.76415,-10.218 -3.41038,-1.98894 -3.57826,-3.52086 -0.7581,-6.91884 2.25719,-2.71976 2.42398,-4.36435 0.4426,-4.36435 -1.74867,0 -2.7159,-2.4216 -2.14933,-5.38133 0.56663,-2.95972 1.13592,-6.58858 1.26548,-8.06411 0.12916,-1.47561 2.65688,-0.82555 5.61661,1.44445 3.14889,2.41512 2.59564,0.97663 -1.33354,-3.46725 -5.08612,-5.75241 -5.97811,-8.9058 -3.67739,-13.00024 1.67057,-2.97314 2.14325,-6.85271 1.05023,-8.62129 -3.05294,-4.93975 -5.101472,-46.6738 -2.20306,-44.88251 1.40407,0.86778 2.75575,-2.1278 3.0037,-6.65687 0.38889,-7.10347 0.10045,-7.38986 -2.098,-2.08461 -1.7989,4.3404 -2.41815,1.85199 -2.10476,-8.45631 0.24436,-8.03343 1.8278,-14.62753 3.51914,-14.65344 1.69127,-0.0246 0.99939,-1.38848 -1.53752,-3.02803 -3.599114,-2.32593 -3.689233,-2.99122 -0.41021,-3.02796 2.9275,-0.0328 3.56328,-2.14617 2.09564,-6.96593 -4.78399,-15.71079 -10.978744,-79.7953 -8.594684,-88.91188 0.816731,-3.12313 -0.180402,-7.68611 -2.217762,-10.13993 -2.036498,-2.45382 -2.933406,-5.70623 -1.993243,-7.22758 0.940144,-1.52133 1.967208,-10.6492 2.28199,-20.28411 0.445266,-13.62832 1.940147,-18.47607 6.732439,-21.83268 4.57367,-3.20352 5.31193,-5.33957 2.8668,-8.2947 -1.8112,-2.18906 -3.2807,-7.43954 -3.26545,-11.66772 0.0154,-4.22818 -0.66011,-12.86641 -1.500827,-19.19608 -2.059663,-15.50693 7.007797,-27.97401 17.456527,-24.0014 3.87738,1.47417 8.8403,1.5738 11.02868,0.2212 7.22363,-4.46443 46.50676,3.01054 45.77255,8.70983 -1.21649,9.44249 11.41624,24.59302 19.47952,23.362 3.01863,-0.46085 4.56691,0.7784 3.72234,2.97935 -0.79541,2.07264 2.25669,7.4712 6.78232,11.99683 7.16729,7.16729 7.46405,9.2856 1.23965,8.8488 -0.84564,-0.0594 -1.58201,5.65781 -1.63654,12.70479 -0.0553,7.04697 -0.95654,17.21497 -2.00472,22.59555 -1.04819,5.38063 -1.21116,10.47764 -0.36204,11.32672 1.75872,1.75872 4.92743,33.9242 5.26663,53.4602 0.12505,7.18791 1.22141,13.06893 2.43693,13.06893 3.39585,0 1.50493,25.8346 -2.07848,28.39707 -2.01949,1.44404 -1.77246,2.27617 0.6845,2.30629 2.11409,0.0246 3.8438,2.0793 3.8438,4.56313 0,2.75092 -1.80279,3.82423 -4.61256,2.74606 -2.53691,-0.97356 -4.61256,-0.19475 -4.61256,1.73043 0,1.92518 2.15517,4.32757 4.78929,5.33837 2.97261,1.14064 4.02251,3.72851 2.76785,6.82231 -1.11173,2.74151 -2.24819,15.3628 -2.52533,28.04735 -0.27716,12.68455 -1.33313,24.44661 -2.34671,26.13788 -1.01353,1.69127 -1.44814,6.53447 -0.96597,10.76265 4.91336,43.07618 6.93279,128.76606 3.17775,134.84181 -1.15847,1.87434 -0.62588,6.17395 1.18327,9.55457 1.80936,3.38064 2.65676,9.6362 1.88337,13.90124 -0.77348,4.26509 -0.46003,7.75643 0.69639,7.75856 1.15642,0.002 2.4118,7.95879 2.78964,17.6815 0.37782,9.72269 1.21874,23.90458 1.86839,31.51531 0.78107,9.14825 -0.33538,15.5957 -3.29449,19.02525 -2.46182,2.85315 -3.56691,6.65851 -2.45579,8.45637 1.11111,1.79787 0.47314,3.26881 -1.4178,3.26881 -1.89095,0 -2.41668,1.65253 -1.16832,3.6723 2.78675,4.50906 2.1501,19.24878 -1.96413,45.47408 -1.71997,10.96339 -2.45407,21.6876 -1.63141,23.83158 0.89566,2.33392 -0.93317,3.89811 -4.55773,3.89811 -4.67616,0 -6.05357,2.09904 -6.05357,9.22513 0,5.07382 1.22182,9.22513 2.7152,9.22513 6.11372,0 1.45593,18.8013 -6.48098,26.16082 -4.54629,4.21556 -9.20553,7.66465 -10.35385,7.66465 -1.14843,0 -5.09038,3.23976 -8.76011,7.19947 -3.66955,3.95984 -8.97826,8.49022 -11.79693,10.06761 -2.81869,1.5775 -5.50994,6.29435 -5.98055,10.48202 -0.47069,4.18772 -5.69887,12.06585 -11.61833,17.50696 -9.10893,8.37285 -11.28723,9.19973 -14.17671,5.38132 -3.85924,-5.09991 -13.49868,-6.12579 -13.49868,-1.43666 0,1.69128 -2.07565,3.07505 -4.61256,3.07505 -2.53691,0 -4.61256,2.15732 -4.61256,4.79405 0,2.63672 -1.4709,3.88491 -3.26882,2.77381 -1.797871,-1.11112 -5.603216,0.0154 -8.456364,2.50407 -2.853168,2.48834 -10.357031,5.45047 -16.67526,6.58244 -6.318229,1.13202 -11.161421,3.54505 -10.76265,5.36234 1.000414,4.55942 -9.190688,5.82843 -18.471146,2.30001 -4.286405,-1.62978 -9.225395,-1.76426 -11.159515,-0.30402 -1.934612,1.46064 -7.551342,1.30402 -12.694884,-0.35363 z m 32.287949,-5.20881 c 0,-1.69128 -0.610293,-3.07505 -1.356093,-3.07505 -0.745801,0 -2.211264,1.38377 -3.256532,3.07505 -1.04531,1.69127 -0.435016,3.07504 1.356094,3.07504 1.79111,0 3.256531,-1.38377 3.256531,-3.07504 z m -3.075042,-8.71263 c 0,-1.40939 -2.014768,-2.56255 -4.477304,-2.56255 -2.462514,0 -3.76461,1.15314 -2.893553,2.56255 0.871057,1.4094 2.885825,2.56254 4.477282,2.56254 1.591438,0 2.893575,-1.15314 2.893575,-2.56254 z M 190.24813,816.3526 c -0.91,-3.47984 -2.2221,-4.62437 -2.91577,-2.54337 -0.69373,2.081 -2.51096,3.01129 -4.03839,2.06725 -1.52748,-0.94404 -2.04163,0.2009 -1.14249,2.54341 2.67708,6.97631 9.97446,5.11314 8.09674,-2.06729 z m 5.57342,-178.90769 c 0,-0.96639 -2.1831,-3.94026 -4.85133,-6.60847 -2.66824,-2.66826 -4.18782,-7.38859 -3.37687,-10.48969 1.24703,-4.76843 0.54161,-5.13904 -4.57235,-2.40217 -6.30592,3.3748 -6.35539,3.20787 5.11294,17.25663 3.22221,3.94721 7.68761,5.25047 7.68761,2.2437 z m -58.37874,-14.3868 c 0.0307,-2.56253 1.0408,-2.30628 3.02796,0.76877 1.9873,3.07504 2.99657,3.33127 3.02795,0.76876 0.0943,-7.69577 -0.44362,-8.43823 -5.37052,-7.41424 -3.73987,0.77717 -4.22683,-0.003 -1.91596,-3.07504 3.40943,-4.53057 3.37441,-7.57726 -0.1804,-15.64859 -1.30341,-2.95973 -1.57319,-7.45698 -0.59963,-9.99389 0.97356,-2.53691 0.59881,-4.61256 -0.83272,-4.61256 -4.58245,0 -2.09811,-24.65176 2.79585,-27.74289 3.32176,-2.09806 1.17036,-2.82673 -7.68761,-2.60377 -6.7651,0.17016 -9.87858,0.9424 -6.91885,1.71588 6.15177,1.60763 7.32844,7.08156 1.53752,7.15249 -2.84486,0.0349 -2.76569,0.73022 0.30464,2.67606 2.72457,1.72654 3.64345,6.37617 2.67715,13.54649 -0.80915,6.00463 0.08,12.46876 1.97602,14.36471 2.54626,2.54626 2.37086,4.11244 -0.67118,5.9925 -3.39915,2.10081 -3.33392,3.27806 0.37352,6.74132 3.18455,2.97483 3.78189,6.67161 2.05243,12.70189 -1.85364,6.46331 -1.38336,8.50586 1.95839,8.50586 2.41885,0 4.4191,-1.72982 4.44499,-3.84381 z m 52.22865,-14.27746 c 0,-4.35631 -8.80836,-6.56614 -11.13928,-2.79462 -1.2784,2.06846 -0.71075,2.55038 1.43912,1.22182 1.95265,-1.20685 3.55016,-0.72858 3.55016,1.06232 0,1.79111 1.38377,3.25653 3.07504,3.25653 1.69127,0 3.07504,-1.23575 3.07504,-2.74605 z m -0.78291,-10.32288 c -0.79254,-2.11409 -0.43501,-6.61134 0.79439,-9.99389 1.2294,-3.38254 1.07237,-9.26356 -0.34932,-13.06893 -1.61235,-4.31562 -1.41575,-6.91884 0.52234,-6.91884 1.97234,0 1.83252,-2.38148 -0.38294,-6.52119 -2.45288,-4.58327 -2.48505,-5.90006 -0.10865,-4.43107 1.85999,1.14945 3.38183,0.62464 3.38183,-1.16647 0,-1.79111 -2.04388,-3.25653 -4.54176,-3.25653 -3.5347,0 -4.4836,4.13073 -4.2795,18.62972 0.14351,10.24631 -0.56744,19.45944 -1.58159,20.47359 -1.01415,1.01415 -0.30279,3.70094 1.58098,5.97063 4.30375,5.18569 6.8564,5.3312 4.9639,0.2829 z m -70.19296,-3.99823 c 1.26487,0.78168 2.29991,-0.46146 2.29991,-2.76272 0,-2.30126 -1.84503,-3.47611 -4.10006,-2.61077 -2.25503,0.86531 -3.99081,3.84687 -3.85729,6.62567 0.15375,3.22035 0.8075,3.65159 1.80013,1.18942 0.8565,-2.12462 2.59234,-3.22332 3.85729,-2.44154 z m -2.82516,-10.60822 c 0,-1.69127 -1.46536,-3.07504 -3.25654,-3.07504 -1.79111,0 -2.4013,1.38377 -1.35609,3.07504 1.04531,1.69127 2.51069,3.07504 3.25653,3.07504 0.7458,0 1.3561,-1.38377 1.3561,-3.07504 z m 89.17625,-6.15009 c 0,-1.69127 -1.38377,-3.07504 -3.07504,-3.07504 -1.69128,0 -3.07505,1.38377 -3.07505,3.07504 0,1.69128 1.38377,3.07505 3.07505,3.07505 1.69127,0 3.07504,-1.38377 3.07504,-3.07505 z m -46.12566,-3.07504 c 0,-1.69127 -1.46536,-3.07504 -3.25653,-3.07504 -1.79111,0 -2.4013,1.38377 -1.35609,3.07504 1.04531,1.69127 2.51069,3.07504 3.25653,3.07504 0.7458,0 1.35609,-1.38377 1.35609,-3.07504 z m -23.99015,-34.13701 c -1.04326,-7.10882 -2.14994,-8.47877 -4.34673,-5.38132 -2.11637,2.98408 -2.50575,2.1521 -1.38152,-2.95161 0.99304,-4.50777 -0.0635,-7.73179 -2.88677,-8.81548 -3.33898,-1.28126 -3.60024,-2.73527 -1.04469,-5.81443 1.87414,-2.25823 2.45313,-7.11311 1.2866,-10.7886 -1.56704,-4.93754 -1.10784,-6.05659 1.75851,-4.28501 2.54054,1.57011 3.1116,1.15498 1.65458,-1.20255 -7.05583,-11.41659 -12.31977,17.4016 -6.0202,32.95839 2.29856,5.67632 3.41484,11.55734 2.48062,13.06893 -0.9342,1.51169 0.91103,2.74839 4.10041,2.74839 4.73628,0 5.54247,-1.74765 4.3993,-9.53667 z m 54.74059,3.02363 c 0,-1.69128 -1.38377,-2.21984 -3.07504,-1.17447 -1.69128,1.04531 -3.07504,3.28423 -3.07504,4.97551 0,1.69127 1.38376,2.21985 3.07504,1.17466 1.69127,-1.04531 3.07504,-3.28425 3.07504,-4.97552 z m 1.53752,-8.86217 c -1.04531,-1.69128 -3.28425,-3.07504 -4.97552,-3.07504 -1.69127,0 -2.21983,1.38376 -1.17446,3.07504 1.04531,1.69127 3.28425,3.07504 4.97552,3.07504 1.69127,0 2.21983,-1.38377 1.17446,-3.07504 z m -29.21291,-18.45026 c 0,-3.38255 -1.6144,-6.15008 -3.58755,-6.15008 -1.97315,0 -2.67705,0.91062 -1.56417,2.02337 1.11275,1.11296 0.48216,3.8804 -1.40161,6.15009 -2.6258,3.16391 -2.26085,4.12675 1.56417,4.12675 2.93905,0 4.98908,-2.52711 4.98908,-6.15009 z m -0.0472,-14.60645 c -0.0266,-1.26856 -1.33437,-4.34188 -2.90785,-6.8298 -3.54285,-5.60209 -7.69929,-2.09851 -5.20908,4.39088 1.83908,4.79268 8.20403,6.70517 8.11693,2.43892 z m -38.39089,-6.91885 c 1.04531,-1.69127 -0.33846,-3.07504 -3.07504,-3.07504 -2.73654,0 -4.12031,1.38377 -3.07504,3.07504 1.04531,1.69128 2.42901,3.07504 3.07504,3.07504 0.64596,0 2.02973,-1.38376 3.07504,-3.07504 z m 35.36299,-15.5567 c 0,-1.59144 -1.38376,-2.89356 -3.07504,-2.89356 -1.69127,0 -3.07504,2.15733 -3.07504,4.79406 0,2.63672 1.38377,3.93882 3.07504,2.89355 1.69128,-1.04531 3.07504,-3.20259 3.07504,-4.79405 z m -43.05059,-12.48164 c 0,-1.69127 -1.38377,-2.21983 -3.07505,-1.17446 -1.69127,1.04531 -3.07504,3.28423 -3.07504,4.9755 0,1.69127 1.38377,2.21985 3.07504,1.17467 1.69128,-1.04531 3.07505,-3.28425 3.07505,-4.97553 z m -6.15009,-10.5812 c 0,-2.63673 -1.40632,-3.92486 -3.12521,-2.86256 -1.71895,1.06232 -2.32908,3.21963 -1.35609,4.79405 2.63603,4.26523 4.48124,3.46992 4.48124,-1.93153 z m 30.75043,-39.61258 c 0,-0.7458 -1.38377,-2.21126 -3.07504,-3.25653 -1.69128,-1.04531 -3.07505,-0.43502 -3.07505,1.35609 0,1.79111 1.38377,3.25653 3.07505,3.25653 1.69127,0 3.07504,-0.61029 3.07504,-1.35609 z m 46.10336,-23.12242 c 2.03138,-11.10908 1.62527,-12.42206 -3.84218,-12.42206 -4.76587,0 -5.35865,0.9098 -2.68882,4.12675 1.88377,2.26969 2.47433,5.07728 1.31264,6.23907 -2.85077,2.85077 -4.00312,11.71643 -1.95389,15.03217 2.61859,4.23697 4.71993,0.43522 7.17236,-12.97593 z m -39.95328,6.21639 c 1.88418,-0.34605 -6.97655,-6.22543 -9.48138,-6.29119 -0.98647,-0.0246 -1.79377,1.87229 -1.79377,4.21816 0,2.34589 2.19096,3.83552 4.86881,3.31034 2.67785,-0.52521 5.56071,-1.082 6.40634,-1.23739 z m 6.15009,-7.49929 c 0,-0.63859 -1.95245,-2.78138 -4.3388,-4.76185 -3.32234,-2.75731 -4.87446,-2.73421 -6.62522,0.0984 -1.44958,2.34535 -0.98689,2.89638 1.26384,1.50533 1.95265,-1.20664 3.55018,-0.72858 3.55018,1.06253 0,1.79111 1.38376,3.25654 3.07504,3.25654 1.69127,0 3.07504,-0.52235 3.07504,-1.16094 z m -13.97199,-9.12318 c 4.16478,-3.04534 5.11398,-6.28472 3.6042,-12.30018 -1.12725,-4.49132 -3.43333,-8.16606 -5.1246,-8.16606 -1.69128,0 -2.34302,3.11348 -1.44835,6.91885 1.80977,7.69718 -0.7212,12.79892 -7.65962,15.44014 -3.98889,1.51845 -3.96441,1.78865 0.1804,1.99857 2.63648,0.13325 7.33777,-1.61768 10.44733,-3.89134 z m 50.78346,-8.04596 c 2.48793,-1.57339 3.86953,-3.51473 3.0702,-4.31406 -0.7993,-0.7993 -4.1372,0.50923 -7.41751,2.90785 -6.56042,4.7971 -2.89118,5.98397 4.34731,1.40611 z m -19.47028,-2.47346 c 2.55302,-1.64638 2.38857,-3.29372 -0.60619,-6.07239 -2.58659,-2.39997 -4.80705,-2.68488 -5.99127,-0.76876 -1.03486,1.67446 -0.0697,3.06561 2.14371,3.09151 2.92496,0.0349 2.76442,0.86203 -0.58733,3.02795 -2.53691,1.63941 -3.2288,2.98086 -1.53752,2.98086 1.69127,0 4.65161,-1.0166 6.57854,-2.25917 z m 1.46024,-23.27592 c 2.8438,-10.63379 0.21627,-20.18241 -3.80715,-13.83536 -1.94671,3.07111 -2.61184,3.13589 -2.6471,0.25769 -0.11275,-9.21867 -5.24072,-2.77896 -5.61005,7.04538 -0.29418,7.82713 0.64658,10.25527 3.34554,8.63484 2.08103,-1.24929 1.74232,0.22325 -0.75974,3.30319 -4.0725,5.0132 -3.94355,5.4475 1.31633,4.43409 3.31088,-0.63797 6.83856,-4.89073 8.16212,-9.83999 z m -31.1016,0.88151 c 0,-5.55186 -5.54072,-5.58991 -6.98996,-0.0471 -1.0775,4.12052 -0.26036,5.39469 2.72543,4.24897 2.3455,-0.90078 4.26453,-2.7913 4.26453,-4.20182 z m -33.4439,-16.04781 c -3.03697,-3.01434 -3.39017,-2.66114 -1.72141,1.72141 1.15478,3.03267 2.87422,4.73932 3.82099,3.79253 0.9467,-0.9467 0.002,-3.42801 -2.0996,-5.51394 z m 39.59398,-111.41905 c 0,-2.53691 -1.15314,-4.61256 -2.56253,-4.61256 -1.4094,0 -2.56254,2.07565 -2.56254,4.61256 0,2.53691 1.15314,4.61257 2.56254,4.61257 1.40939,0 2.56253,-2.07566 2.56253,-4.61257 z m 29.21292,638.0714 c 1.04531,-1.69127 3.28425,-3.07504 4.97552,-3.07504 1.69127,0 2.21983,1.38377 1.17446,3.07504 -1.04531,1.69127 -3.28425,3.07504 -4.97552,3.07504 -1.69127,0 -2.21984,-1.38377 -1.17446,-3.07504 z M 116.35595,743.75354 c 0,-4.22818 0.69804,-5.95789 1.55106,-3.8438 0.85301,2.11409 0.85301,5.57352 0,7.68761 -0.85302,2.11409 -1.55106,0.38438 -1.55106,-3.84381 z m -3.3178,-84.81993 c 0.1476,-3.58226 0.87618,-4.3109 1.85773,-1.85794 0.88828,2.21977 0.77901,4.872 -0.24272,5.89383 -1.02173,1.02174 -1.74867,-0.79438 -1.61501,-4.03599 z m -7.89938,-93.58271 c 1.06233,-1.71895 3.21963,-2.3291 4.79403,-1.3561 4.26523,2.63603 3.46992,4.48124 -1.93153,4.48124 -2.63671,0 -3.92486,-1.40632 -2.86256,-3.1252 z M 171.2212,131.16562 c 0,-1.33129 -2.07566,-2.42066 -4.61257,-2.42066 -2.53691,0 -4.61256,-1.46544 -4.61256,-3.25652 0,-1.79109 -1.21567,-2.50519 -2.70155,-1.58689 -2.96268,1.83104 -20.75861,-6.19917 -23.47367,-10.59224 -0.93338,-1.51031 -3.72847,-1.96653 -6.21122,-1.0138 -2.48274,0.95271 -4.51408,0.29203 -4.51408,-1.46819 0,-1.78073 3.75115,-2.57933 8.45637,-1.80029 6.40372,1.06025 7.33675,0.64904 3.84381,-1.69406 -2.53692,-1.70179 -6.88613,-3.11537 -9.66491,-3.14126 -6.69502,-0.0623 -9.98521,-9.004806 -4.13861,-11.248356 2.49867,-0.95884 3.68615,-3.12985 2.63881,-4.82447 -1.20131,-1.94361 -2.76239,-1.69258 -4.22871,0.67996 -1.72162,2.78561 -3.81513,2.89501 -8.07199,0.42181 -3.38942,-1.96924 -4.08036,-3.37763 -1.6841,-3.43277 3.05643,-0.0703 2.86592,-1.29105 -0.76876,-4.92572 -5.3926,-5.39261 -6.47586,-13.61805 -1.79336,-13.61805 1.67138,0 2.70917,-2.96094 2.30628,-6.57988 -0.40283,-3.61893 1.18983,-7.25787 3.53933,-8.08653 2.60788,-0.91979 3.43554,-0.15355 2.12481,1.96731 -1.18081,1.91068 -0.68163,3.47397 1.10948,3.47397 1.79111,0 3.25651,1.46544 3.25651,3.25652 0,1.79109 -1.59759,2.26917 -3.55016,1.06241 -2.30138,-1.42233 -2.71095,-0.83623 -1.16441,1.6662 1.81468,2.93635 3.67918,2.49806 7.78943,-1.83117 7.31405,-7.70372 10.73208,-22.60422 5.18516,-22.60422 -2.48855,0 -3.84924,-2.77717 -3.38987,-6.91885 0.4221,-3.80537 0.88274,-8.43683 1.02358,-10.29214 0.40304,-5.30511 11.40421,-16.7416803 13.79989,-14.3460103 1.18615,1.18615 1.18389,-0.37837 -0.005,-3.47669 -1.9217,-5.00809004 -1.00123,-5.39080004 8.29384,-3.44823 15.5483,3.24943 23.50046,9.4257403 33.90283,26.3317203 5.15264,8.37388 11.3253,15.22524 13.71713,15.22524 2.58869,0 4.34881,3.11143 4.34881,7.68761 0,4.22818 -1.15315,7.6876 -2.56254,7.6876 -3.84764,0 -3.08781,9.21039 0.76876,9.31864 1.83232,0.0515 0.90981,1.50396 -2.05003,3.22784 -6.99808,4.07601 -6.79648,7.82732 0.76876,14.30488 7.39828,6.33459 8.35597,12.61135 1.00431,6.58188 -4.57626,-3.75319 -4.95274,-3.47082 -3.40149,2.55108 0.96967,3.76407 0.18246,7.411906 -1.77307,8.213596 -1.93461,0.79319 -0.8813,1.55144 2.34056,1.68496 5.55559,0.23021 5.58556,0.54372 0.58077,6.07393 -4.1347,4.56878 -4.4043,6.23308 -1.24539,7.68761 3.18446,1.46628 3.21994,2.23476 0.1681,3.6566 -2.12462,0.99008 -3.08078,3.06574 -2.12479,4.61256 1.57299,2.5452 -2.68289,4.11379 -8.61869,3.17655 -1.26855,-0.20029 -2.30628,0.93363 -2.30628,2.51978 0,1.58611 -2.76754,2.67547 -6.15008,2.42068 -3.38256,-0.25482 -6.1501,-1.55249 -6.1501,-2.88394 z M 158.92102,48.975324 c 0,-1.59145 -1.38376,-3.74877 -3.07504,-4.79404 -1.69127,-1.04527 -3.07504,0.25685 -3.07504,2.89356 0,2.63673 1.38377,4.79405 3.07504,4.79405 1.69128,0 3.07504,-1.3021 3.07504,-2.89357 z m -45.06452,-8.0017 c -1.00144,-2.60986 -1.13387,-5.43228 -0.29398,-6.27205 0.8397,-0.83978 2.26496,1.29555 3.16705,4.74518 1.91616,7.32761 -0.21279,8.45911 -2.87301,1.52686 z"
     id="path3788"
     inkscape:connector-curvature="0" />
</svg>
