<?xml version="1.0" encoding="UTF-8" standalone="no"?>
<!-- Created with Inkscape (http://www.inkscape.org/) -->

<svg
   xmlns:dc="http://purl.org/dc/elements/1.1/"
   xmlns:cc="http://creativecommons.org/ns#"
   xmlns:rdf="http://www.w3.org/1999/02/22-rdf-syntax-ns#"
   xmlns:svg="http://www.w3.org/2000/svg"
   xmlns="http://www.w3.org/2000/svg"
   xmlns:sodipodi="http://sodipodi.sourceforge.net/DTD/sodipodi-0.dtd"
   xmlns:inkscape="http://www.inkscape.org/namespaces/inkscape"
   id="svg4377"
   version="1.1"
   inkscape:version="0.91 r13725"
   width="573.29602"
   height="930"
   viewBox="0 0 573.29602 930.00001"
   sodipodi:docname="en_lower_d.svg">
  <metadata
     id="metadata4383">
    <rdf:RDF>
      <cc:Work
         rdf:about="">
        <dc:format>image/svg+xml</dc:format>
        <dc:type
           rdf:resource="http://purl.org/dc/dcmitype/StillImage" />
        <dc:title></dc:title>
      </cc:Work>
    </rdf:RDF>
  </metadata>
  <defs
     id="defs4381" />
  <sodipodi:namedview
     pagecolor="#ffffff"
     bordercolor="#666666"
     borderopacity="1"
     objecttolerance="10"
     gridtolerance="10"
     guidetolerance="10"
     inkscape:pageopacity="0"
     inkscape:pageshadow="2"
     inkscape:window-width="1573"
     inkscape:window-height="997"
     id="namedview4379"
     showgrid="false"
     fit-margin-top="0"
     fit-margin-left="0"
     fit-margin-right="0"
     fit-margin-bottom="0"
     inkscape:zoom="0.72570724"
     inkscape:cx="120.19944"
     inkscape:cy="416.14649"
     inkscape:window-x="34"
     inkscape:window-y="95"
     inkscape:window-maximized="0"
     inkscape:current-layer="svg4377" />
  <path
     style="fill:#000000"
     d="m 468.31552,894.41108 c 1.22578,-24.26496 -1.73026,-29.65581 0.66967,-51.03416 C 345.26016,908.97128 32.954867,985.14417 2.6931751e-5,604.52711 -0.11881557,233.09346 393.11334,273.44859 459.82526,341.36554 c 3.70434,-44.28987 -4.38231,-221.8363 0.36996,-286.949062 1.90573,-69.680116 110.09064,-73.971007 113.10078,-4.008724 -1.68087,191.583926 -1.34647,470.976356 -6.06467,703.163516 0.84667,45.54971 1.73298,101.17431 -0.67765,140.07711 0.81326,47.62561 -96.33202,49.04539 -98.23816,0.7627 z M 483.91059,709.35541 C 488.34654,588.97128 483.07737,625.30045 471.76514,468.07189 349.53454,326.52445 76.559206,411.8482 92.292165,603.33186 78.100812,798.35472 339.12373,870.78734 483.91059,709.35541 Z"
     id="path4387"
     inkscape:connector-curvature="0"
     sodipodi:nodetypes="ccccccccccccc" />
</svg>
