<?xml version="1.0" encoding="UTF-8" standalone="no"?>
<!-- Created with Inkscape (http://www.inkscape.org/) -->

<svg
   xmlns:dc="http://purl.org/dc/elements/1.1/"
   xmlns:cc="http://creativecommons.org/ns#"
   xmlns:rdf="http://www.w3.org/1999/02/22-rdf-syntax-ns#"
   xmlns:svg="http://www.w3.org/2000/svg"
   xmlns="http://www.w3.org/2000/svg"
   xmlns:sodipodi="http://sodipodi.sourceforge.net/DTD/sodipodi-0.dtd"
   xmlns:inkscape="http://www.inkscape.org/namespaces/inkscape"
   id="svg3829"
   version="1.1"
   inkscape:version="0.91 r13725"
   width="689.62018"
   height="930"
   viewBox="0 0 689.62016 929.99999"
   sodipodi:docname="en_lower_z.svg">
  <metadata
     id="metadata3835">
    <rdf:RDF>
      <cc:Work
         rdf:about="">
        <dc:format>image/svg+xml</dc:format>
        <dc:type
           rdf:resource="http://purl.org/dc/dcmitype/StillImage" />
        <dc:title></dc:title>
      </cc:Work>
    </rdf:RDF>
  </metadata>
  <defs
     id="defs3833" />
  <sodipodi:namedview
     pagecolor="#ffffff"
     bordercolor="#666666"
     borderopacity="1"
     objecttolerance="10"
     gridtolerance="10"
     guidetolerance="10"
     inkscape:pageopacity="0"
     inkscape:pageshadow="2"
     inkscape:window-width="1703"
     inkscape:window-height="1041"
     id="namedview3831"
     showgrid="false"
     fit-margin-top="0"
     fit-margin-left="0"
     fit-margin-right="0"
     fit-margin-bottom="0"
     inkscape:zoom="0.69881574"
     inkscape:cx="21.813949"
     inkscape:cy="470.21875"
     inkscape:window-x="152"
     inkscape:window-y="9"
     inkscape:window-maximized="0"
     inkscape:current-layer="svg3829" />
  <path
     style="fill:#000000"
     d="M 81.497875,929.79231 C -36.548041,922.29163 8.3594873,837.82694 35.318665,796.62795 59.747092,752.02427 82.745439,724.24727 93.995163,705.33983 247.87577,474.23336 281.90083,397.12289 402.22123,214.15223 c 9.39338,-14.25969 27.69516,-34.09716 6.47368,-35.75101 C 307.90157,160.77533 176.78732,181.42797 90.936515,174.70369 -25.485455,167.38299 -31.837808,19.420515 81.813574,7.8144906 293.95324,-7.1402494 520.00392,3.6196196 623.75783,5.5422036 713.72635,9.4010496 692.39792,79.425968 670.37401,110.87842 545.55379,305.41377 387.85679,542.87377 290.00351,726.34896 c -18.88557,38.88905 -1.83442,30.33107 41.11398,33.14849 106.00204,-2.85043 191.73835,1.09619 272.30637,0.65851 126.23152,6.61181 95.00787,172.42552 0.30589,168.08357 -169.27853,4.39246 -364.73229,-1.15998 -522.231875,1.55278 z"
     id="path3839"
     inkscape:connector-curvature="0"
     sodipodi:nodetypes="cccccccccccccc" />
</svg>
