<?xml version="1.0" encoding="UTF-8" standalone="no"?>
<!-- Created with Inkscape (http://www.inkscape.org/) -->

<svg
   xmlns:dc="http://purl.org/dc/elements/1.1/"
   xmlns:cc="http://creativecommons.org/ns#"
   xmlns:rdf="http://www.w3.org/1999/02/22-rdf-syntax-ns#"
   xmlns:svg="http://www.w3.org/2000/svg"
   xmlns="http://www.w3.org/2000/svg"
   xmlns:sodipodi="http://sodipodi.sourceforge.net/DTD/sodipodi-0.dtd"
   xmlns:inkscape="http://www.inkscape.org/namespaces/inkscape"
   id="svg5154"
   version="1.1"
   inkscape:version="0.91 r13725"
   width="1208.2709"
   height="930"
   viewBox="0 0 1208.2709 930.00001"
   sodipodi:docname="en_lower_w.svg">
  <metadata
     id="metadata5160">
    <rdf:RDF>
      <cc:Work
         rdf:about="">
        <dc:format>image/svg+xml</dc:format>
        <dc:type
           rdf:resource="http://purl.org/dc/dcmitype/StillImage" />
        <dc:title></dc:title>
      </cc:Work>
    </rdf:RDF>
  </metadata>
  <defs
     id="defs5158" />
  <sodipodi:namedview
     pagecolor="#ffffff"
     bordercolor="#666666"
     borderopacity="1"
     objecttolerance="10"
     gridtolerance="10"
     guidetolerance="10"
     inkscape:pageopacity="0"
     inkscape:pageshadow="2"
     inkscape:window-width="1071"
     inkscape:window-height="748"
     id="namedview5156"
     showgrid="false"
     fit-margin-top="0"
     fit-margin-left="0"
     fit-margin-right="0"
     fit-margin-bottom="0"
     inkscape:zoom="0.22385621"
     inkscape:cx="563.7155"
     inkscape:cy="428.60871"
     inkscape:window-x="280"
     inkscape:window-y="0"
     inkscape:window-maximized="0"
     inkscape:current-layer="svg5154" />
  <path
     style="fill:#000000"
     d="m 261.65503,929.83931 c -10.31079,-2.24121 -11.27238,-5.73918 -4.51164,-16.41119 3.04649,-4.80902 0.91074,-10.91264 -6.36393,-18.18738 -7.14222,-7.14225 -8.76472,-11.67748 -4.66637,-13.04358 3.45564,-1.152 6.28291,-4.67364 6.28291,-7.82609 0,-3.15265 -1.60878,-4.12282 -3.5755,-2.1562 -4.36335,4.36334 -18.09101,-33.75365 -14.3413,-39.82084 1.46769,-2.37489 -0.10582,-4.31799 -3.50044,-4.31799 -3.40168,0 -4.75572,-3.6834 -3.01827,-8.21111 1.73294,-4.51608 1.0871,-6.93567 -1.43524,-5.37676 -3.77828,2.33503 -11.4978,-20.70386 -10.6858,-31.8919 0.12346,-1.70613 -3.85344,-6.08419 -8.8384,-9.72921 -6.06016,-4.43132 -8.19009,-11.19676 -6.4276,-20.41663 1.70966,-8.94316 0.005,-14.79889 -4.8513,-16.66234 -4.11803,-1.5802 -6.15858,-5.02304 -4.5346,-7.6507 1.62395,-2.6278 -0.59117,-11.57284 -4.92294,-19.87813 -4.33161,-8.30529 -7.89028,-20.59811 -7.90824,-27.3173 -0.018,-6.7192 -1.81829,-11.11771 -4.00074,-9.77454 -2.18266,1.34318 -4.55273,-3.87327 -5.26724,-11.59219 -1.61231,-17.41685 -3.88506,-27.24059 -9.07992,-39.24509 -2.22252,-5.13595 -2.83485,-13.95019 -1.36081,-19.58713 1.47404,-5.63696 0.42115,-11.00194 -2.33962,-11.92231 -2.76078,-0.92026 -5.48431,-10.54735 -6.05191,-21.39343 -0.56754,-10.84608 -2.81757,-19.73083 -5.0002,-19.74388 -2.18266,-0.0106 -3.96815,-3.34031 -3.96815,-7.39396 0,-4.05366 -3.57134,-8.74066 -7.93631,-10.41572 -4.36497,-1.67509 -7.93631,-6.62093 -7.93631,-10.99097 0,-4.37005 -5.95223,-20.95849 -13.22718,-36.86317 -7.27495,-15.90465 -13.227176,-31.45103 -13.227176,-34.54746 0,-3.09657 -2.52128,-5.62991 -5.60311,-5.62991 -3.08175,0 -4.28194,-2.13787 -2.66695,-4.7505 2.97453,-4.81265 -9.55535,-51.80597 -19.42851,-72.86756 -2.96042,-6.31522 -3.97108,-19.41012 -2.2458,-29.09979 3.22391,-18.10791 -6.84374,-39.54123 -15.07115,-32.0853 -2.35832,2.13716 -2.81933,-0.21163 -1.02432,-5.21997 1.79502,-5.00828 0.38871,-12.15096 -3.12514,-15.87263 -6.68255,-7.07785 -6.95711,-8.37147 -8.2406,-38.82421 -0.46454,-11.02437 -2.9837,-17.47681 -6.07657,-15.56526 -2.90575,1.79576 -4.81515,-1.03983 -4.24342,-6.30134 0.57127,-5.26151 -4.41262,-21.11776 -11.07577,-35.2361 C 6.7026544,157.50625 2.1635144,123.89486 9.2519044,105.25103 c 4.8724396,-12.815533 -2.18936,-23.088713 -7.7791,-11.316663 -1.73575998,3.65561 -1.97172998,0.69434 -0.52414998,-6.58062 1.44758998,-7.27495 2.66448998,-17.05107 2.70398998,-21.7247 0.0529,-6.42079 4.92118,-8.30524 19.9130096,-7.71074 24.4481,0.9695 32.86472,-4.58958 29.04777,-19.18566 -2.72585,-10.42323 -1.44017,-10.95806 18.62585,-7.74935 15.0555,2.40748 22.27835,1.45495 23.95725,-3.15943 4.3419,-11.93335 22.016616,3.72085 25.982346,23.01209 2.03522,9.89986 6.64484,32.28511 10.24383,49.744983 3.59899,17.45989 6.44534,36.70544 6.32527,42.76789 -0.11992,6.06246 2.78124,11.02266 6.44707,11.02266 3.69197,0 5.4592,-3.73708 3.96149,-8.37722 -1.48709,-4.60748 2.3689,-0.48662 8.56938,9.15752 10.77176,16.75463 22.19084,58.24753 20.65564,75.05552 -1.53859,16.84634 1.16822,26.93909 6.36411,23.72791 6.90476,-4.26739 4.30701,9.3457 -2.77665,14.54991 -3.27682,2.40734 -2.77313,3.91796 1.32271,3.96815 3.80319,0.0459 6.6136,6.826 6.6136,15.95364 0,8.72995 2.15797,15.87259 4.79554,15.87259 2.63767,0 3.45705,5.11783 1.82147,11.37295 -1.75516,6.71228 0.13051,13.75898 4.59914,17.19533 4.16526,3.20239 7.42853,9.39373 7.25167,13.7587 -0.17636,4.36497 3.65758,14.66796 8.52102,22.89551 4.86341,8.22756 7.64658,19.5326 6.18486,25.1223 -1.4617,5.5897 1.19009,16.03575 5.89322,23.21349 4.70302,7.1777 8.55093,18.93138 8.55093,26.11928 0,18.58426 9.60346,41.44125 15.80211,37.61027 2.88211,-1.78126 4.04025,-0.11287 2.57383,3.71007 -1.46663,3.82177 2.25497,24.77825 8.2703,46.5699 6.01527,21.79174 11.409,44.90206 11.98612,51.35629 0.57706,6.4543 5.21585,16.60028 10.30832,22.5467 5.09246,5.94644 9.25904,13.16538 9.25904,16.04206 0,2.87683 2.116,5.23042 4.70204,5.23042 4.22239,0 6.23395,7.22313 14.63123,52.53798 2.88071,15.54539 6.27547,21.53424 12.20665,21.53424 5.02647,0 16.49757,-29.56198 12.87629,-33.1833 -1.28569,-1.28568 4.76584,-16.36865 13.44788,-33.51775 16.08506,-31.77183 20.82667,-35.87395 10.44743,-9.03833 -8.58402,22.19405 -10.1007,33.41239 -4.51725,33.41239 2.74279,0 4.98708,-4.76178 4.98708,-10.58174 0,-5.81996 2.52127,-10.58175 5.60314,-10.58175 3.08175,0 4.13164,2.3809 2.33327,5.29088 -1.79854,2.90998 -1.00315,5.29087 1.76715,5.29087 2.7703,0 6.45497,-3.69501 8.18798,-8.21112 1.73294,-4.51607 0.96188,-6.85813 -1.71389,-5.20459 -2.67577,1.65357 -6.20598,0.83631 -7.84534,-1.81618 -1.63947,-2.65249 0.84513,-6.29092 5.52117,-8.08527 6.51147,-2.4987 7.10229,-4.94876 2.52374,-10.46549 -3.28775,-3.96177 -4.52193,-11.67145 -2.74208,-17.13276 2.35691,-7.23213 1.86274,-8.01243 -1.81795,-2.87224 -4.07062,5.68441 -5.72677,5.30312 -8.51403,-1.96044 -2.67295,-6.96536 -1.16752,-8.41799 6.61433,-6.38302 5.54109,1.449 13.31437,0.582 17.27396,-1.92693 5.2817,-3.3463 5.43771,-4.58292 0.58587,-4.64239 -3.63747,-0.0423 -6.61359,-3.53402 -6.61359,-7.75441 0,-4.22035 -4.16656,-10.1002 -9.25902,-13.06627 -5.09247,-2.96606 -6.35762,-5.46533 -2.81157,-5.55379 3.54615,-0.0882 5.07708,-3.73222 3.40203,-8.09719 -1.92835,-5.02548 0.0741,-7.93631 5.45693,-7.93631 4.67629,0 8.22043,-1.78585 7.87582,-3.96815 -0.34567,-2.18267 -0.30687,-11.11084 0.0811,-19.84078 0.48393,-10.85898 2.12128,-13.64237 5.18339,-8.8118 3.34066,5.2703 5.2986,3.92854 7.72027,-5.29088 1.78443,-6.79341 1.40667,-12.9845 -0.83913,-13.75792 -2.24616,-0.77353 -3.10645,-9.7768 -1.91213,-20.00744 1.87192,-16.03582 3.73085,-18.17556 13.47773,-15.51513 11.07027,3.02179 11.09132,2.91421 1.00879,-5.14407 -7.99116,-6.38686 -8.87988,-9.64759 -3.96815,-14.55932 3.48068,-3.48104 6.3289,-10.61476 6.3289,-15.85272 0,-5.38367 4.02487,-9.70512 9.25903,-9.94127 5.53129,-0.25043 6.59634,-1.49202 2.64544,-3.08634 -7.82753,-3.1583 -9.00232,-28.2412 -1.32272,-28.2412 2.90998,0 5.00894,-1.78584 4.66432,-3.96815 -1.8906,-11.97423 1.89132,-17.21241 12.53101,-17.35621 10.00018,-0.13404 10.53663,-0.96012 3.35371,-5.15744 -5.61771,-3.28246 -7.6748,-9.57972 -5.99689,-18.35717 2.43627,-12.74381 11.90221,-19.16182 11.90221,-8.06975 0,2.90998 1.96856,5.29087 4.37453,5.29087 2.40594,0 3.23942,-7.73324 1.85216,-17.18496 -2.15374,-14.67417 -3.12514,-15.64047 -6.64809,-6.61359 -6.67475,17.10214 -5.28692,1.92199 2.07402,-22.68763 3.73077,-12.47249 7.86115,-21.62161 9.17871,-20.33141 1.31743,1.29027 2.96924,-7.39819 3.67003,-19.30759 0.70087,-11.9094 3.08176,-22.99785 5.29088,-24.64101 6.83919,-5.08718 7.69455,-26.79648 1.0557,-26.79648 -4.42782,0 -4.65265,-1.95032 -0.7647,-6.63483 3.02849,-3.64916 6.29617,-14.9584 7.26144,-25.13165 0.96505,-10.17325 4.01799,-17.72501 6.78392,-16.78169 6.90826,2.35606 12.6205,-14.89018 10.70665,-32.32514 -0.87017,-7.928013 0.48887,-13.134543 3.02003,-11.570063 2.5315,1.56448 8.22759,-4.16558 12.6582,-12.73347 6.3015,-12.18577 10.67105,-14.95976 20.06613,-12.73895 11.67455,2.75965 11.72133,2.61556 1.67297,-5.15343 -8.38681,-6.48437 -9.31123,-10.29219 -4.89896,-20.18039 3.67314,-8.23183 6.70064,-10.14561 9.32707,-5.89595 2.13857,3.46059 1.22678,6.29199 -2.02676,6.29199 -3.25353,0 -4.44391,2.3809 -2.64543,5.29088 5.66444,9.16531 11.77303,5.75966 11.86245,-6.61359 0.16578,-23.02734 1.41266,-26.24537 9.03155,-23.32173 4.59816,1.76448 6.69081,0.39841 5.22823,-3.41296 -1.34141,-3.49526 2.35127,-9.3464202 8.20579,-13.0025702 8.75308,-5.46641 10.64443,-5.33757 10.64443,0.7251 0,4.05495 6.50188,11.6328402 14.44863,16.8397602 19.59722,12.8406 32.0004,28.60315 35.89402,45.61574 1.78549,7.80137 6.66453,17.02125 10.84248,20.48862 4.17792,3.46735 7.59621,9.58411 7.59621,13.592773 0,4.00865 1.99889,7.28846 4.44158,7.28846 8.68077,0 21.3801,36.54345 23.36365,67.23095 0.22574,3.51226 3.27223,7.48318 6.76703,8.82428 3.49479,1.3411 9.46088,21.56791 13.25779,44.94844 3.79694,23.38054 8.89064,41.28197 11.31936,39.78095 6.92068,-4.27721 11.70811,13.85436 5.33959,20.22284 -4.06925,4.0693 -4.87642,2.55797 -2.82462,-5.28801 2.44579,-9.35218 1.04547,-10.50757 -9.4186,-7.77116 -6.76022,1.76785 -9.37659,4.18582 -5.81421,5.3733 3.56245,1.18763 6.47715,9.1033 6.47715,17.59075 0,8.48744 2.52128,15.43171 5.60314,15.43171 3.08176,0 3.90432,2.74879 1.82782,6.10839 -2.28601,3.69885 -1.45675,4.67551 2.10224,2.47612 3.23237,-1.99783 4.53608,-7.12747 2.89693,-11.39922 -1.63911,-4.27178 -0.34567,-7.76689 2.87647,-7.76689 5.07787,0 7.04889,7.091 5.38287,19.36516 -0.26102,1.92094 3.31067,5.61054 7.93631,8.19923 4.6257,2.58865 8.41037,8.24346 8.41037,12.56621 0,4.32278 3.84516,13.72801 8.54479,20.9006 4.69967,7.17255 7.02568,13.04101 5.16894,13.04101 -1.85675,0 0.51215,5.93386 5.2641,13.18634 4.75198,7.25248 7.30934,16.65397 5.68296,20.89217 -1.62641,4.23824 0.84407,15.32523 5.48977,24.63776 6.61522,13.26055 7.12057,19.0555 2.33046,26.72568 -5.21172,8.34533 -4.49848,9.7938 4.82252,9.7938 6.01636,0 9.6205,2.13292 8.00922,4.74019 -1.61125,2.60699 0.54884,11.44462 4.79998,19.63898 5.96821,11.50377 6.26323,15.83043 1.2945,18.98767 -4.59431,2.91951 -4.04469,4.11211 1.92165,4.16999 5.24114,0.0529 8.19979,4.519 7.93631,11.98548 -0.3104,8.80581 2.33433,11.66197 10.16165,10.97285 9.90726,-0.87229 9.98783,-0.49523 1.26416,5.9171 -7.98258,5.8673 -8.23549,7.74679 -1.76468,13.11703 6.02447,4.9998 8.05349,4.33777 10.02666,-3.27152 1.57668,-6.08035 2.69623,-4.15027 3.0874,5.32219 0.35873,8.68585 -1.58479,13.50326 -4.67713,11.5922 -2.90998,-1.79855 -5.29087,-0.74849 -5.29087,2.33327 0,3.08176 3.57134,5.60314 7.93631,5.60314 4.36497,0 7.93631,2.38089 7.93631,5.29087 0,2.90998 -2.74526,5.29088 -6.10041,5.29088 -3.35512,0 -0.97423,4.44581 5.29087,9.87964 6.26524,5.43376 11.39128,13.57215 11.39128,18.0853 0,14.12896 6.11569,24.94378 14.10554,24.94378 4.22533,0 6.18697,2.41969 4.35919,5.37715 -1.82782,2.9576 -6.0079,3.718 -9.28912,1.69026 -3.28104,-2.02782 -0.34567,4.20772 6.52661,13.8569 11.9578,16.79312 12.82529,17.1171 20.27039,7.56891 6.75024,-8.65703 7.35633,-8.75163 4.5868,-0.71603 -1.75516,5.09246 -1.03101,9.25903 1.60948,9.25903 2.6405,0 6.40729,10.71401 8.37101,23.80892 2.41758,16.12119 6.14814,23.80893 11.55379,23.80893 6.27257,0 6.6557,1.59996 1.78796,7.46525 -4.23542,5.10336 -4.44039,8.55012 -0.64796,10.89401 5.06164,3.12831 6.04045,0.6148 7.66415,-19.68198 0.29276,-3.63747 2.90998,-8.36282 5.81996,-10.50076 3.43095,-2.52092 3.27611,-3.9156 -0.44091,-3.96815 -3.15265,-0.0423 -5.73181,-3.42461 -5.73181,-7.51145 0,-5.72529 2.10471,-6.11597 9.17204,-1.70261 5.34206,3.33608 7.85907,9.20055 6.02779,14.04403 -2.35444,6.22746 -0.59858,5.79114 6.99122,-1.73753 13.80166,-13.69017 23.91358,-34.13971 18.52747,-37.46851 -2.42851,-1.50085 -7.11312,5.00633 -10.41053,14.46031 -4.53255,12.99519 -7.12296,15.36607 -10.61699,9.71739 -2.97664,-4.81223 -1.82852,-10.26472 3.22532,-15.31877 6.06408,-6.06405 6.36111,-8.76549 1.3072,-11.88898 -4.92394,-3.04331 -4.15443,-6.42728 3.11456,-13.6962 10.35088,-10.35092 22.76324,-12.5679 32.45679,-5.79717 3.86314,2.69834 7.25682,-0.79645 9.51648,-9.79979 4.59194,-18.29559 -0.54214,-22.89093 -10.18843,-9.1191 -4.20825,6.00817 -13.37631,10.92392 -20.37349,10.92392 -10.33399,0 -12.18982,-2.1107 -9.88638,-11.2431 1.55975,-6.18373 5.42554,-13.21004 8.59075,-15.61407 4.03115,-3.06166 3.7088,-5.19649 -1.07616,-7.12702 -4.89952,-1.97667 -3.54848,-5.60314 4.77769,-12.82437 10.80016,-9.36696 10.90745,-10.074 1.54035,-10.14934 -6.68315,-0.0529 -7.92848,-1.44123 -3.70364,-4.12671 3.50079,-2.22498 7.99228,-14.68837 9.98133,-27.69609 1.98902,-13.00772 5.61619,-26.20764 8.06044,-29.33327 2.44403,-3.1255 3.43413,-10.9271 2.19959,-17.33668 -1.27545,-6.62293 -0.0423,-10.29289 2.85636,-8.50137 2.80522,1.73364 3.50327,5.73658 1.55129,8.89512 -2.12129,3.43237 -1.08604,4.22039 2.57348,1.95868 4.55798,-2.81686 4.60962,-6.61115 0.20105,-14.84693 -5.04629,-9.42904 -4.6171,-10.56266 2.90575,-7.67578 4.85466,1.86274 7.48337,1.21372 5.84162,-1.44265 -1.64159,-2.65637 1.21055,-5.92429 6.33881,-7.26197 7.19178,-1.87614 6.6397,-2.57242 -2.41475,-3.04578 -7.71032,-0.40316 -10.77031,-3.13643 -8.91727,-7.96537 1.631,-4.25037 7.14077,-6.222 13.06108,-4.67378 7.70845,2.01582 10.24005,-0.0494 10.24005,-8.35496 0,-7.63321 -2.4454,-10.09438 -7.9363,-7.98731 -5.50698,2.11317 -7.93631,-0.36684 -7.93631,-8.10237 8.9e-4,-6.13167 3.34948,-11.14819 7.44186,-11.14819 5.01605,0 6.46865,-3.71818 4.45746,-11.40906 -2.28601,-8.74119 -1.2423,-10.41551 4.46349,-7.16014 5.8071,3.3135 6.0816,2.77101 1.2469,-2.46272 -6.86969,-7.43661 -3.3897,-22.94133 4.1091,-18.30688 2.6049,1.61019 4.7365,0.40598 4.7365,-2.67577 0,-3.08176 -2.1005,-5.60314 -4.6674,-5.60314 -4.7379,0 4.9759,-33.81736 11.6231,-40.46456 1.9943,-1.9943 3.5896,-8.58624 3.545,-14.6487 -0.067,-9.24438 -0.9904,-9.74229 -5.7188,-3.08634 -4.2727,6.01474 -4.7921,4.10597 -2.1449,-7.88329 1.9209,-8.70081 6.2801,-17.62915 9.6869,-19.84077 4.6949,-3.0479 4.6351,-5.03145 -0.2469,-8.19521 -4.8574,-3.14772 -3.9008,-8.35194 3.8904,-21.1635 6.9787,-11.47562 8.2107,-17.01573 3.7961,-17.07048 -4.7832,-0.06 -4.6411,-1.28215 0.5298,-4.55968 3.886,-2.46326 6.8347,-6.00254 6.5526,-7.86504 -1.8825,-12.42945 7.1226,-44.94468 11.6692,-42.13476 3.0313,1.87353 3.8611,0.79994 1.8708,-2.42061 -4.6496,-7.52319 2.0081,-49.33989 7.3316,-46.04976 2.2377,1.38282 3.948,-2.82699 3.8011,-9.3552 -0.261,-11.6037 1.843,-23.45873 9.3871,-52.873843 3.4722,-13.53812 18.4573,-21.05534 18.4573,-9.25903 0,2.90998 2.0719,5.29087 4.6044,5.29087 2.5325,0 4.318,-7.4622 3.9681,-16.58267 -0.7379,-19.23145 11.3063,-29.71226 26.4218,-22.99233 16.1809,7.19361 29.3431,7.0865 26.5409,-0.21587 -1.7015,-4.43421 0.97,-5.71029 8.0686,-3.85397 7.2235,1.88902 9.79,5.91989 8.0371,12.62307 -3.1343,11.98599 4.6839,18.26873 8.9381,7.18256 1.6687,-4.34826 6.0846,-7.71795 9.8134,-7.48822 5.3102,0.32733 5.3461,0.99613 0.1658,3.08634 -3.6375,1.46776 -6.5978,6.6368 -6.5787,11.48677 0.021,5.98471 3.2771,3.89997 10.1254,-6.4881 5.5498,-8.41842 8.7551,-19.13244 7.1228,-23.80893 -2.267,-6.49478 -1.4346,-7.0907 3.5255,-2.52346 4.9176,4.52826 5.1138,10.94795 0.8081,26.45436 -3.1269,11.26131 -5.6985,27.84027 -5.7147,36.842153 -0.016,9.00188 -4.7592,30.11404 -10.5399,46.9159 -5.7807,16.80187 -9.3132,32.48588 -7.85,34.85337 1.4631,2.36749 0.4639,5.66186 -2.22,7.32082 -2.6842,1.65897 -3.5949,7.93215 -2.0239,13.94042 1.5714,6.00827 0.4063,16.12469 -2.5883,22.48094 -2.9947,6.35625 -8.5136,25.48996 -12.2644,42.51938 -3.7506,17.02941 -9.9385,32.15948 -13.7507,33.62237 -3.8122,1.46275 -5.7851,4.51439 -4.3842,6.78114 1.401,2.26661 -0.8712,15.4795 -5.0492,29.36177 -4.1779,13.88222 -7.2128,26.65872 -6.7443,28.39223 0.4688,1.73329 -2.2183,8.69484 -5.9704,15.4697 -3.7523,6.77482 -5.4554,15.88009 -3.7847,20.23388 1.6709,4.35379 -0.5269,11.48049 -4.8834,15.8371 -6.736,6.73595 -10.8094,25.90912 -8.5477,40.23321 0.3457,2.18266 -1.2828,3.96815 -3.6163,3.96815 -2.3336,0 -3.8329,9.52361 -3.3318,21.16353 0.703,16.32925 -1.0472,21.182 -7.6616,21.24447 -7.0537,0.067 -7.2555,0.91497 -1.1393,4.78715 6.1755,3.90967 5.4206,8.11757 -4.461,24.86562 -6.5419,11.08776 -12.3574,29.77068 -12.9232,41.51762 -0.5657,11.7469 -3.086,24.68636 -5.5999,28.75438 -2.5143,4.06794 -5.339,15.95293 -6.2774,26.41097 -2.825,31.4808 -7.6688,47.82335 -16.9159,57.07035 -5.9557,5.95573 -6.7911,9.4422 -2.5974,10.84016 7.9443,2.64825 -1.7436,32.67791 -13.818,42.83169 -4.5822,3.85324 -5.3551,5.49842 -1.7178,3.65589 8.9323,-4.52462 8.3388,3.03872 -1.3209,16.82973 -4.364,6.23036 -11.3499,24.02162 -15.5244,39.53605 -4.1745,15.51443 -7.8399,24.63674 -8.1453,20.27177 -0.3069,-4.36497 -4.48776,0.39681 -9.29416,10.58174 -8.72881,18.49693 -10.2516,23.26728 -11.40014,35.71339 -0.33509,3.63748 -3.13184,6.61359 -6.21342,6.61359 -3.08176,0 -4.14847,-2.35373 -2.37067,-5.23031 1.87191,-3.02884 -0.31745,-3.86798 -5.20227,-1.9936 -4.63907,1.78021 -7.55762,5.86793 -6.48565,9.0839 1.93469,5.80338 -1.25429,11.00703 -18.30452,29.87174 -8.47375,9.37546 -24.75634,9.50008 -38.75144,0.29629 -2.90998,-1.91353 -13.624,-4.18938 -23.80893,-5.05712 -10.18493,-0.86771 -19.7085,-3.29833 -21.16349,-5.40142 -4.25023,-6.14313 -22.14759,-11.5699 -18.45552,-5.59598 4.72116,7.63889 -11.09506,21.57237 -20.42382,17.99257 -12.19649,-4.68028 -14.59897,-17.16307 -4.55065,-23.64424 8.45774,-5.45514 8.44706,-5.64635 -0.16578,-2.97206 -6.74459,2.09412 -10.14433,-0.98093 -12.71908,-11.50501 -1.93258,-7.89969 -6.12355,-16.33006 -9.31296,-18.73406 -4.16691,-3.14066 -4.07983,-5.07881 0.3104,-6.88614 3.90001,-1.60596 1.55199,-7.43156 -6.49476,-16.11413 -6.93168,-7.47946 -14.11693,-21.66845 -15.96722,-31.53117 -1.85004,-9.86268 -5.51386,-19.26078 -8.14141,-20.88473 -2.62745,-1.62394 -3.40768,-5.16897 -1.73329,-7.8779 1.67367,-2.70857 0.38164,-4.92499 -2.87189,-4.92499 -3.25353,0 -4.40282,-2.44755 -2.55408,-5.4387 1.84863,-2.9911 -2.17737,-10.05474 -8.9468,-15.6966 -6.76942,-5.6418 -9.33193,-10.3371 -5.69446,-10.43392 3.63748,-0.0952 6.61359,-2.69729 6.61359,-5.77915 0,-3.08176 -2.35373,-4.14847 -5.23031,-2.37067 -2.99921,1.85357 -3.88614,-0.27159 -2.07931,-4.9786 1.73752,-4.52772 0.38341,-8.21112 -3.01826,-8.21112 -3.39287,0 -4.68729,-2.39782 -2.87612,-5.32822 1.81124,-2.93044 -0.66948,-6.84883 -5.5126,-8.7073 -5.02523,-1.92835 -10.75821,-0.21869 -13.35363,3.97972 -3.69726,5.98236 -5.99431,5.38431 -12.28029,-3.19709 -6.7883,-9.26728 -6.77998,-11.09147 0.067,-14.94206 4.67646,-2.62957 10.98491,-1.74317 15.75199,2.21299 6.97672,5.79016 7.1546,4.85004 1.45076,-7.66855 -4.39986,-9.65662 -7.78383,-12.19176 -10.47075,-7.84418 -3.07752,4.97949 -5.85787,4.8567 -12.36815,-0.54637 -6.73782,-5.59185 -7.06653,-8.1398 -1.66275,-12.88698 3.7046,-3.25424 5.75206,-5.35881 4.54998,-4.67653 -1.20209,0.68217 -5.59154,-2.88917 -9.75429,-7.93631 -7.14487,-8.66296 -7.39974,-8.64296 -4.55191,0.35731 1.65921,5.24357 0.94741,8.25485 -1.58162,6.69179 -6.32192,-3.90717 -10.76989,-29.45291 -5.12851,-29.45291 2.50646,0 4.5572,2.38089 4.5572,5.29087 0,2.90998 2.05568,5.29087 4.56846,5.29087 7.91073,0 3.75539,-22.8268 -4.56846,-25.09619 -7.05446,-1.92341 -7.05446,-1.54 0,3.44894 4.88464,3.45459 5.51334,5.64377 1.63488,5.69365 -9.95435,0.12698 -14.32225,-11.20886 -6.281,-16.30213 5.72324,-3.62503 5.80186,-4.63576 0.36577,-4.69935 -3.80921,-0.0423 -5.55605,-2.2973 -3.88188,-5.00626 1.67439,-2.70893 0.776,-6.32715 -1.99642,-8.04051 -2.77242,-1.71353 -5.05447,-7.23488 -5.07151,-12.27006 -0.0159,-5.03515 -2.56114,-20.91158 -5.65351,-35.28092 -4.3425,-20.17815 -4.1109,-27.0857 1.01691,-30.34149 4.75945,-3.0218 4.01774,-4.23838 -2.61934,-4.29648 -5.09246,-0.0459 -9.25903,-2.46201 -9.25903,-5.37185 0,-2.90998 2.36608,-5.29088 5.25768,-5.29088 6.67377,0 4.29863,-15.33055 -4.50838,-29.09983 -6.3918,-9.99322 -6.6155,-9.84607 -4.02191,2.64544 2.66413,12.83096 2.50717,12.91022 -5.23592,2.64543 -4.39019,-5.81996 -6.98282,-15.93875 -5.76137,-22.48621 1.22148,-6.54745 0.45854,-11.90446 -1.69449,-11.90446 -6.69444,0 -17.18035,-31.11284 -14.25545,-42.29756 1.52836,-5.84416 0.86912,-9.44569 -1.46451,-8.0034 -2.33363,1.44229 -5.7636,-1.34036 -7.62207,-6.1833 -1.85851,-4.84309 -0.32098,-10.7452 3.41367,-13.11576 6.19339,-3.92985 2.05745,-6.6484 -7.75709,-5.09874 -3.57151,0.564 -4.76453,-3.91814 -3.53134,-13.26651 0.23986,-1.82112 -5.59943,-7.27103 -12.9771,-12.11067 -12.27281,-8.05087 -12.63079,-9.2884 -4.20793,-14.54856 9.8352,-6.1422 15.58708,-44.10169 6.68258,-44.10169 -2.80839,0 -3.99232,6.14288 -2.63097,13.65084 1.53752,8.47878 0.42538,12.38394 -2.93538,10.30699 -2.97947,-1.84158 -4.22099,-0.24338 -2.76289,3.55532 1.45604,3.79462 -2.73785,10.25301 -9.31966,14.35202 -10.74887,6.69405 -11.26769,6.60626 -5.0966,-0.86241 4.61678,-5.58762 5.05067,-9.44005 1.32272,-11.74404 -3.05142,-1.88567 -5.71559,-8.64523 -5.92059,-15.02094 -0.26102,-8.11306 -2.66942,-5.3204 -8.02509,9.30496 -4.20871,11.49347 -6.84766,23.31102 -5.8643,26.26125 0.9834,2.95019 -4.04127,10.76643 -11.166,17.3694 -11.03894,10.23057 -11.69558,12.48833 -4.44158,15.27196 6.79299,2.60664 7.34691,5.44452 2.74209,14.04882 -3.17382,5.93022 -6.90396,17.97419 -8.28932,26.76434 -1.38515,8.79011 -5.16241,22.15203 -8.39355,29.69312 -3.23131,7.54104 -6.11487,16.0919 -6.4083,19.00188 -0.29276,2.90998 -3.64541,10.9507 -7.44881,17.86823 -4.50631,8.19599 -5.04908,13.73066 -1.55799,15.88817 3.23661,2.00031 1.01091,8.54014 -5.62292,16.52248 -6.03901,7.26638 -9.57246,9.31451 -7.85208,4.55142 2.4472,-6.77545 0.65289,-8.01299 -8.24431,-5.68627 -6.25463,1.63558 -8.64596,3.88261 -5.31398,4.99327 4.38229,1.46064 4.05285,5.96102 -1.1908,16.26806 -9.75961,19.18358 -21.72915,61.57839 -26.05642,92.28901 -2.59217,18.39789 -5.93512,25.24353 -12.47598,25.54935 -5.84917,0.27512 -6.57543,1.36434 -2.10295,3.159 4.79978,1.92588 2.83238,6.44788 -6.61359,15.20226 -7.39502,6.85348 -13.47127,17.93155 -13.50276,24.61794 -0.0317,6.68639 -3.50609,23.52354 -7.72147,37.41585 -4.21534,13.89228 -6.31571,28.77286 -4.66754,33.06796 1.64829,4.29506 0.36119,7.80922 -2.86024,7.80922 -3.22144,0 -5.85693,7.03065 -5.85693,15.62366 0,17.42401 -9.87851,42.57594 -16.72187,42.57594 -2.44297,0 -4.25365,4.16656 -4.02392,9.25902 0.25043,5.53129 1.49203,6.59635 3.08634,2.64544 5.726,-14.19044 11.49809,-5.69559 6.28708,9.25271 -3.31244,9.50206 -7.97712,14.49643 -11.62924,12.45101 -3.77472,-2.11423 -3.57835,-0.70051 0.51533,3.70993 3.63748,3.91884 6.6136,12.60127 6.6136,19.29422 0,6.69296 2.83484,11.57379 6.29934,10.84629 3.46482,-0.72767 7.21058,2.84367 8.32427,7.93631 1.60279,7.32959 -1.5474,9.25903 -15.1175,9.25903 -9.4283,0 -15.63887,1.50331 -13.80128,3.34101 1.8377,1.8377 0.81021,8.07027 -2.28318,13.85038 -4.7832,8.93751 -9.58767,10.12852 -32.12304,7.96315 -14.57424,-1.40032 -28.26413,-5.4028 -30.42192,-8.89417 -2.8278,-4.57562 -8.21006,-2.84649 -19.27682,6.19311 -8.44444,6.8976 -19.52011,11.63544 -24.61258,10.52848 z m 27.55676,-40.60956 c -3.23342,-3.23343 -7.45064,-2.69059 -11.63991,1.49873 -5.2319,5.23193 -4.99106,7.54482 1.18303,11.36059 9.28824,5.7405 18.15399,-5.16223 10.45685,-12.85939 z m -18.29774,-9.42523 c 3.01933,-2.25356 1.31567,-3.9835 -3.96815,-4.02974 -5.14693,-0.0494 -9.25903,3.83532 -9.25903,8.73713 0,4.84993 1.78549,6.66333 3.96816,4.02971 2.18266,-2.6338 6.34904,-6.56534 9.25902,-8.7371 z m 587.28688,-35.85596 c 0,-11.76973 -10.90509,-11.51464 -11.79321,0.27512 -0.48288,6.4112 1.80031,10.1097 5.48282,8.88214 3.47082,-1.15623 6.31039,-5.27733 6.31039,-9.15726 z M 257.68687,820.13963 c 0,-13.07477 -7.16885,-17.73889 -12.93209,-8.41376 -3.82403,6.1874 2.03663,21.64094 8.20727,21.64094 2.59853,0 4.72482,-5.95223 4.72482,-13.22718 z m 669.80785,-52.90026 c 1.6571,-15.54391 0.43702,-16.07452 -10.89892,-4.73879 -6.63595,6.63592 -7.13298,10.14024 -2.26943,16.00045 7.63864,9.20396 11.32215,6.05378 13.16827,-11.26166 z m -638.06261,10.88555 c 0,-1.28322 -2.3809,-3.80467 -5.29088,-5.60314 -2.90998,-1.79855 -5.29087,-0.74849 -5.29087,2.33327 0,3.08176 2.38089,5.60314 5.29087,5.60314 2.90998,0 5.29088,-1.05006 5.29088,-2.33327 z m 47.61787,-18.83033 c 0,-2.90998 -1.05006,-5.29087 -2.33328,-5.29087 -1.28321,0 -3.80466,2.38089 -5.60314,5.29087 -1.79854,2.90998 -0.74848,5.29088 2.33328,5.29088 3.08176,0 5.60314,-2.3809 5.60314,-5.29088 z m 15.87262,-5.29087 c 0,-2.90998 -1.05007,-5.29087 -2.33328,-5.29087 -1.28321,0 -3.80467,2.38089 -5.60314,5.29087 -1.79854,2.90998 -0.74848,5.29087 2.33328,5.29087 3.08175,0 5.60314,-2.38089 5.60314,-5.29087 z m 685.168,-42.32698 c -1.7985,-2.90998 -6.1056,-5.25444 -9.5713,-5.20989 -3.7862,0.0459 -3.1336,2.12799 1.6349,5.20989 10.1644,6.56876 11.996,6.56876 7.9363,0 z m -69.22288,-13.98448 c 4.86072,-12.66681 1.07193,-13.63955 -6.4172,-1.64758 -3.55197,5.68762 -4.31178,10.34112 -1.68849,10.34112 2.62321,0 6.27085,-3.91214 8.10565,-8.69361 z m -555.8322,-30.98794 c 1.67509,-4.36497 0.73931,-7.93631 -2.07932,-7.93631 -2.81862,0 -5.12481,3.57134 -5.12481,7.93631 0,4.36497 0.93578,7.93631 2.07932,7.93631 1.14353,0 3.45,-3.57134 5.12481,-7.93631 z m 627.24738,-29.98164 c -0.7341,-0.97 1.5318,-7.1206 5.0361,-13.66806 6.8328,-12.76719 6.141,-13.65722 -6.7653,-8.70465 -4.5862,1.7601 -7.0213,5.3313 -5.4113,7.93631 1.6102,2.60523 0.3104,4.7365 -2.8846,4.7365 -3.7402,0 -3.3802,2.63873 1.0105,7.40267 5.6409,6.1208 13.4068,8.09983 9.0145,2.2973 z M 393.48595,608.50472 c 0,-4.36497 -1.98407,-7.9363 -4.40906,-7.9363 -5.28406,0 -5.81361,7.41357 -0.88181,12.34533 4.90422,4.90422 5.29087,4.582 5.29087,-4.40903 z m 652.54095,-13.85168 c 0,-2.90998 -2.3809,-3.81941 -5.2909,-2.02076 -2.9099,1.79855 -5.2908,5.6508 -5.2908,8.56078 0,2.90998 2.3809,3.81944 5.2908,2.02111 2.91,-1.79854 5.2909,-5.65083 5.2909,-8.56081 z m 5.2909,-20.68519 c 0,-2.64685 -3.5577,-3.44753 -7.906,-1.77879 -4.3482,1.66874 -6.5645,5.20406 -4.9252,7.85659 3.4288,5.5479 12.8312,1.09415 12.8312,-6.0778 z M 757.39503,526.04428 c -1.70331,-2.75654 -5.35249,-3.61779 -8.1089,-1.91423 -2.75619,1.70366 -3.61779,5.35253 -1.91424,8.10889 1.70367,2.75655 5.35253,3.6178 8.1089,1.91424 2.75655,-1.70331 3.61779,-5.35249 1.91424,-8.1089 z m 267.46837,-33.93876 c 0,-4.4602 -4.7262,-7.93631 -10.7904,-7.93631 -9.0503,0 -9.6902,1.24724 -3.9681,7.73505 8.8734,10.0607 14.7585,10.14094 14.7585,0.20105 z M 734.39853,471.58438 c -4.86435,-5.86123 -4.7372,-8.16293 0.5686,-10.29191 4.34627,-1.74387 3.4634,-2.89446 -2.42463,-3.16006 -10.83268,-0.48888 -12.03505,7.59713 -2.64544,17.79003 8.63326,9.37183 12.65929,5.49164 4.50126,-4.3382 z m -26.98747,-3.60005 c 0,-5.9917 -2.27684,-9.48678 -5.05984,-7.76686 -2.78299,1.71989 -3.71856,6.6222 -2.07931,10.89398 4.19686,10.93683 7.13915,9.64804 7.13915,-3.12726 z M 206.99372,450.56618 c -1.82853,-4.76475 -5.5714,-7.27446 -8.31775,-5.57711 -2.977,1.83981 -2.44897,6.15205 1.30826,10.67924 7.73987,9.32597 11.49664,6.59144 7.00941,-5.10213 z m 297.69823,5.14795 c -1.53894,-4.01038 -0.12698,-9.96261 3.13749,-13.22719 4.38698,-4.38687 3.67028,-5.93561 -2.74667,-5.93561 -12.27038,0 -16.36714,9.05709 -8.25503,18.25005 8.73082,9.89404 11.43082,10.2074 7.86407,0.91285 z m 586.30735,-3.29022 c 1.7986,-2.90998 -1.7728,-5.29087 -7.9363,-5.29087 -6.1634,0 -9.7348,2.38089 -7.9363,5.29087 1.7986,2.90998 5.3698,5.29087 7.9363,5.29087 2.5664,0 6.1379,-2.38089 7.9363,-5.29087 z m -362.42475,-5.29087 c 0,-2.90998 -3.57134,-5.29088 -7.93631,-5.29088 -11.04628,0 -9.92144,-4.58408 3.96816,-16.1712 6.54745,-5.46212 9.29733,-10.01033 6.11089,-10.10712 -3.18652,-0.0952 -10.29756,4.8008 -15.80239,10.88358 -9.82163,10.85278 -9.81803,11.19912 0.19047,18.51805 12.1374,8.87452 13.46918,9.08887 13.46918,2.1675 z m 365.07025,-7.62405 c 0,-5.58437 -10.1538,-7.93056 -13.1739,-3.04401 -1.8278,2.9576 0.3887,5.37718 4.9253,5.37718 4.5367,0 8.2486,-1.05006 8.2486,-2.33327 z M 494.34322,428.06388 c -1.75798,-1.75798 -6.32154,-1.94598 -10.14085,-0.41762 -4.22067,1.68884 -2.96712,2.94278 3.1964,3.19639 5.57743,0.22927 8.70239,-1.02079 6.94427,-2.77877 z m 602.67908,-10.03061 c -1.6751,-4.36497 -1.2493,-7.93631 0.9457,-7.93631 2.195,0 3.991,-4.76178 3.991,-10.58174 0,-12.6532 -5.9048,-13.91031 -10.3936,-2.21265 -5.1316,13.37279 -3.7202,28.66708 2.6455,28.66708 3.221,0 4.4864,-3.57134 2.8115,-7.93631 z m -391.3447,-8.74585 c -4.22921,-6.77203 -7.57287,-7.73532 -12.54022,-3.61282 -8.72478,7.24095 -4.18099,14.54098 8.45827,13.5889 8.00319,-0.6028 8.76814,-2.47224 4.08195,-9.97608 z m -188.73795,-2.14809 c 0,-4.53671 -2.41969,-6.75309 -5.37718,-4.92527 -2.9576,1.82782 -4.00742,5.53965 -2.33328,8.24854 4.53562,7.33868 7.71046,5.97029 7.71046,-3.32338 z m 209.52547,-3.65592 c 2.09342,-3.63748 1.98019,-4.97103 -0.25044,-2.9636 -4.88947,4.39795 -18.70584,-7.26743 -15.29037,-12.90902 1.3213,-2.18266 -0.11993,-3.96816 -3.20063,-3.96816 -9.04513,0 -6.42414,14.86866 3.65589,20.73973 11.67949,6.80269 10.61741,6.86597 15.0859,-0.89909 z m -29.6358,-20.15301 c 0,-8.5582 -2.12623,-15.56038 -4.72482,-15.56038 -2.59853,0 -6.2245,-3.90809 -8.0574,-8.68465 -2.70469,-7.04815 -1.90295,-7.49823 4.25375,-2.38866 5.26104,4.36628 8.65368,4.5692 11.06844,0.66207 1.91529,-3.09869 5.69844,-4.2643 8.40737,-2.59006 2.70893,1.67403 4.92527,0.24338 4.92527,-3.17629 0,-3.77041 -4.50443,-5.04227 -11.4371,-3.22919 -6.29042,1.64511 -15.32095,0.91215 -20.06774,-1.62818 -11.50183,-6.15561 -12.92614,10.50792 -2.59147,30.3192 4.16723,7.98852 7.59144,17.64118 7.60936,21.4504 0.0159,3.80922 2.41334,5.45436 5.32346,3.65589 2.90998,-1.79855 5.29088,-10.27209 5.29088,-18.83029 z M 188.90553,365.12454 c 0,-8.45276 -2.97735,-13.22718 -8.24854,-13.22718 -4.53672,0 -7.07471,-1.89942 -5.64,-4.22077 3.35723,-5.43217 -5.6884,-20.29286 -9.8308,-16.15049 -4.03214,4.03217 8.13271,30.95301 13.98688,30.95301 2.44297,0 4.44158,3.57134 4.44158,7.93631 0,4.36497 1.19045,7.93631 2.64544,7.93631 1.45499,0 2.64544,-5.95224 2.64544,-13.22719 z m 546.01807,-3.70361 c -4.93815,-4.93814 -6.34905,-3.52724 -6.34905,6.34905 0,9.8763 1.4109,11.2872 6.34905,6.34905 4.93811,-4.93815 4.93811,-7.75995 0,-12.6981 z m 326.9759,-4.93169 c 0,-2.18195 -2.7854,-5.68889 -6.19,-7.79299 -4.1377,-2.55726 -5.0914,-0.96259 -2.8764,4.80919 1.8221,4.74915 1.0366,10.042 -1.7464,11.76192 -2.783,1.71989 -4.9841,5.96275 -4.8915,9.42848 0.1763,6.63549 15.7043,-11.36564 15.7043,-18.2066 z m -410.83972,3.17488 c -4.48102,-11.67727 -11.85078,-9.33991 -8.68779,2.75548 1.51354,5.78723 4.75787,9.28235 7.20994,7.7669 2.45215,-1.51566 3.11703,-6.25046 1.47792,-10.52224 z m 462.65912,-11.17305 c -1.5418,-7.27396 -2.8722,-5.94352 -5.1301,5.13006 -1.9685,9.65489 -1.231,13.13381 2.0818,9.82102 2.8215,-2.82144 4.1933,-9.54949 3.0483,-14.95108 z m -385.14435,1.07299 c 0,-1.28322 -2.38089,-3.80467 -5.29087,-5.60314 -2.90998,-1.79855 -5.29087,-0.74849 -5.29087,2.33327 0,3.08176 2.38089,5.6031 5.29087,5.6031 2.90998,0 5.29087,-1.05006 5.29087,-2.33327 z m -230.95357,-83.6849 c 0.93966,-9.70551 -0.35519,-12.82383 -3.86604,-9.31261 -5.80684,5.80684 -8.48124,15.73093 -10.71924,39.77669 -0.81268,8.7299 -2.13152,18.25347 -2.93114,21.16345 -0.79963,2.90998 -0.95906,7.67177 -0.35449,10.58175 1.47368,7.0903 16.08616,-43.77648 17.87088,-62.20928 z m -329.87894,48.9821 c 0,-5.81996 -2.3809,-10.58175 -5.29088,-10.58175 -2.90998,0 -5.29087,-5.15856 -5.29087,-11.46353 0,-6.30496 -1.47615,-9.98733 -3.28069,-8.183 -4.84672,4.84672 2.91809,40.81002 8.81117,40.81002 2.77806,0 5.05113,-4.76178 5.05113,-10.58174 z m 446.34664,-44.97239 c -1.67509,-4.36497 -3.98117,-7.93631 -5.12484,-7.93631 -1.14354,0 -2.07932,3.57134 -2.07932,7.93631 0,4.36497 2.30612,7.9363 5.12485,7.9363 2.81862,0 3.75433,-3.57133 2.07931,-7.9363 z M 172.81115,252.69352 c -0.12345,-2.18248 -5.02986,-12.30128 -10.90636,-22.48621 -5.87653,-10.18493 -9.08767,-13.75626 -7.13587,-7.93631 1.95163,5.81996 4.17489,15.34354 4.94023,21.1635 1.75234,13.32626 1.69238,13.22718 8.03289,13.22718 2.90998,0 5.19108,-1.78584 5.06911,-3.96816 z m 334.20328,-13.31536 c -5.22537,-5.18647 -5.83308,-4.57874 -2.96183,2.96179 1.9869,5.21797 4.94535,8.1544 6.57434,6.52541 1.62888,-1.62899 0.003,-5.89824 -3.61247,-9.48721 z m 89.94484,0 c -5.22537,-5.18647 -5.83308,-4.57874 -2.96183,2.96179 1.9869,5.21797 4.94534,8.1544 6.57433,6.52541 1.62888,-1.62899 0.003,-5.89824 -3.6125,-9.48721 z m 504.83933,-20.1046 c 5.608,-9.0739 0.5859,-9.96425 -10.4961,-1.86084 -8.5823,6.2755 -8.8485,7.50373 -1.6268,7.50373 4.7495,0 10.2047,-2.5393 12.1228,-5.64288 z M 64.253944,201.73183 c -3.33677,-13.29487 -12.9111,-19.58981 -12.9111,-8.48883 0,6.56079 12.13257,26.59538 14.60711,24.12083 0.97916,-0.97927 0.21516,-8.01368 -1.6959,-15.632 z M 1079.9515,182.65246 c -3.4433,-3.44327 -5.5186,-1.36787 -6.0796,6.07964 -0.6416,8.51636 0.649,9.80681 5.2278,5.22787 4.0043,-4.00425 4.2951,-7.86426 0.8519,-11.30751 z m 77.1837,10.51874 c 0,-2.90998 -2.3809,-5.29087 -5.2908,-5.29087 -2.91,0 -5.2909,2.38089 -5.2909,5.29087 0,2.90998 2.3809,5.29087 5.2909,5.29087 2.9099,0 5.2908,-2.38089 5.2908,-5.29087 z m -52.0394,-28.0524 c -3.1445,-3.78889 -4.391,-11.96071 -2.7699,-18.15958 2.4567,-9.39375 1.098,-10.78705 -8.1578,-8.36662 -8.885,2.3235 -11.105,0.48894 -11.105,-9.1766 0,-16.48564 -6.6148,-8.70409 -8.6863,10.21853 -1.3925,12.71867 1.1961,16.70122 15.4109,23.70931 20.9282,10.31807 22.5548,10.50667 15.3081,1.77498 z m -27.3236,-19.8777 c 0,-3.08173 2.3808,-4.13166 5.2908,-2.33317 2.91,1.79847 5.2909,4.31987 5.2909,5.60312 0,1.28325 -2.3809,2.3332 -5.2909,2.3332 -2.91,0 -5.2908,-2.52142 -5.2908,-5.60312 z M 63.837904,153.48966 c 1.67509,-4.36497 0.99398,-7.93631 -1.51319,-7.93631 -2.50716,0 -5.92919,3.57134 -7.60418,7.93631 -1.67509,4.36497 -0.99398,7.93631 1.51319,7.93631 2.50717,0 5.9292,-3.57134 7.60418,-7.93631 z m -7.21156,-15.87719 c 8.49425,5.24974 12.51365,-12.4649 4.90767,-21.62954 -5.53228,-6.666 -5.56109,-9.07824 -0.14828,-12.42352 5.22128,-3.22693 4.94848,-4.829963 -1.22509,-7.198983 -12.15095,-4.66276 -16.4513,13.231243 -5.16336,21.485173 8.0665,5.89837 8.35118,7.68519 1.86344,11.69493 -4.21185,2.60308 -9.39274,3.66067 -11.51308,2.35021 -6.28255,-3.88284 -11.10843,8.15311 -7.17071,17.88411 3.14701,7.77706 4.28761,7.33521 8.36039,-3.23872 2.59393,-6.7344 7.13407,-10.75006 10.0892,-8.92368 z m 1118.799056,0.043 c -0.7697,-17.58477 -7.7084,-23.96924 -7.7084,-7.09296 0,10.59242 3.6643,20.28168 7.6701,20.28168 0.3386,0 0.3559,-5.93501 0.035,-13.18891 z M 572.24324,137.1158 c -3.0479,-1.27118 -4.57297,-10.60679 -3.38933,-20.74578 1.31531,-11.26768 -0.13051,-18.434543 -3.71758,-18.434543 -5.81615,0 -6.9321,3.331203 -7.97582,23.808933 -0.55483,10.88888 6.017,18.61217 15.33327,18.01934 3.2165,-0.20458 3.11844,-1.2428 -0.25044,-2.64795 z M 43.570794,105.8684 c 0.0917,-10.183073 -1.83593,-18.514683 -4.28038,-18.514683 -2.44439,0 -3.21826,-1.98408 -1.71954,-4.40906 1.49873,-2.42498 -0.63913,-4.40907 -4.75095,-4.40907 -4.11175,0 -8.69407,3.17453 -10.18296,7.05451 -1.48885,3.87996 -0.26101,7.05449 2.73009,7.05449 2.9904,0 4.02547,2.28403 2.30012,5.07566 -3.03978,4.918333 7.60193,26.673013 13.04415,26.666213 1.48251,-0.002 2.76925,-8.33497 2.8599,-18.51806 z M 1119.0056,103.07447 c 6.5197,-15.977953 6.4145,-17.041423 -1.0709,-10.828993 -4.5654,3.78894 -6.7685,9.367963 -4.896,12.397843 1.9851,3.21216 0.8413,3.9245 -2.7442,1.7086 -6.3164,-3.90376 -23.6297,9.29412 -18.6823,14.2415 7.1982,7.19814 20.8778,-1.55037 27.3936,-17.51896 z m 50.6439,-8.324563 c -0.4931,-10.482 -3.5786,-21.74032 -6.8567,-25.0185 -4.4199,-4.41984 -5.3391,-2.57094 -3.5567,7.15371 1.3221,7.21272 2.5806,18.47105 2.7968,25.018503 0.2152,6.54746 2.22,11.90447 4.453,11.90447 2.2331,0 3.6565,-8.57618 3.1636,-19.058183 z m -73.3593,3.18556 c 1.7985,-2.90998 0.7485,-5.29087 -2.3333,-5.29087 -3.0817,0 -5.6031,2.38089 -5.6031,5.29087 0,2.909983 1.0501,5.290873 2.3333,5.290873 1.2832,0 3.8046,-2.38089 5.6031,-5.290873 z M 137.9771,603.38835 c -1.63805,-4.26899 -1.95727,-10.81645 -0.70933,-14.5499 1.24794,-3.73345 3.52337,-0.23985 5.05628,7.76178 2.99322,15.62511 0.52415,19.48121 -4.34681,6.78812 z m 230.81811,-34.5652 c -6.78237,-4.38314 -6.59002,-5.14061 1.32272,-5.20989 5.09247,-0.0458 9.25903,2.29977 9.25903,5.20989 0,6.45278 -0.59681,6.45278 -10.58175,0 z M 389.9587,441.84217 c 0,-2.90998 2.52128,-5.29087 5.60314,-5.29087 3.08176,0 4.13165,2.38089 2.33328,5.29087 -1.79854,2.90998 -4.31986,5.29087 -5.60314,5.29087 -1.28321,0 -2.33328,-2.38089 -2.33328,-5.29087 z M 55.030154,323.36302 c -2.16502,-5.50896 -2.68988,-11.26279 -1.16646,-12.78628 4.8256,-4.82559 9.07152,3.08247 7.04953,13.12945 -1.85322,9.20784 -2.13611,9.19134 -5.88314,-0.34215 z M 1090.3876,69.149347 c -2.7791,-7.24209 -4.4341,-7.6735 -7.9799,-2.07999 -3.051,4.81348 -4.4993,5.05379 -4.5546,0.75586 -0.042,-3.46574 2.0303,-7.60609 4.6104,-9.20078 5.6703,-3.50446 19.3512,11.74126 14.7052,16.38724 -1.801,1.80116 -4.8527,-0.83687 -6.7811,-5.86235 z M 35.470224,45.026757 c 0,-2.90998 2.38089,-5.29087 5.29087,-5.29087 2.90998,0 5.29088,2.38089 5.29088,5.29087 0,2.90998 -2.3809,5.29088 -5.29088,5.29088 -2.90998,0 -5.29087,-2.3809 -5.29087,-5.29088 z M 1182.0566,39.735887 c 1.522,-5.81996 3.6799,-10.58174 4.7955,-10.58174 1.1157,0 2.0285,4.76178 2.0285,10.58174 0,5.81996 -2.158,10.58175 -4.7955,10.58175 -2.6377,0 -3.5504,-4.76179 -2.0285,-10.58175 z"
     id="path5164"
     inkscape:connector-curvature="0" />
</svg>
