<?xml version="1.0" encoding="UTF-8" standalone="no"?>
<!-- Created with Inkscape (http://www.inkscape.org/) -->

<svg
   xmlns:dc="http://purl.org/dc/elements/1.1/"
   xmlns:cc="http://creativecommons.org/ns#"
   xmlns:rdf="http://www.w3.org/1999/02/22-rdf-syntax-ns#"
   xmlns:svg="http://www.w3.org/2000/svg"
   xmlns="http://www.w3.org/2000/svg"
   xmlns:sodipodi="http://sodipodi.sourceforge.net/DTD/sodipodi-0.dtd"
   xmlns:inkscape="http://www.inkscape.org/namespaces/inkscape"
   id="svg4026"
   version="1.1"
   inkscape:version="0.91 r13725"
   width="519.32544"
   height="930.80817"
   viewBox="0 0 519.32545 930.80816"
   sodipodi:docname="en_lower_b.svg">
  <metadata
     id="metadata4032">
    <rdf:RDF>
      <cc:Work
         rdf:about="">
        <dc:format>image/svg+xml</dc:format>
        <dc:type
           rdf:resource="http://purl.org/dc/dcmitype/StillImage" />
        <dc:title />
      </cc:Work>
    </rdf:RDF>
  </metadata>
  <defs
     id="defs4030" />
  <sodipodi:namedview
     pagecolor="#ffffff"
     bordercolor="#666666"
     borderopacity="1"
     objecttolerance="10"
     gridtolerance="10"
     guidetolerance="10"
     inkscape:pageopacity="0"
     inkscape:pageshadow="2"
     inkscape:window-width="1489"
     inkscape:window-height="1019"
     id="namedview4028"
     showgrid="false"
     fit-margin-top="0"
     fit-margin-left="0"
     fit-margin-right="0"
     fit-margin-bottom="0"
     inkscape:zoom="1.0225319"
     inkscape:cx="235.45118"
     inkscape:cy="500.82189"
     inkscape:window-x="89"
     inkscape:window-y="13"
     inkscape:window-maximized="0"
     inkscape:current-layer="svg4026" />
  <path
     style="fill:#000000"
     d="M 1.78119,895.15588 C 2.85372,603.70722 3.07409,299.13276 0,40.310573 c 19.57605,-68.74064 110.03257,-33.6479043 105.00534,2.947195 2.30768,129.475222 0.59158,219.948882 1.17059,318.616952 213.58899,-80.82225 390.656,-43.94395 413.14952,261.00283 -8.92611,234.01063 -182.21313,322.30822 -414.45272,230.60797 -1.42117,18.4797 -3.25253,31.62707 -3.0678,41.10687 C 107.9,935.13749 9.28095,948.73848 1.78119,895.15588 Z M 412.49539,620.88644 C 408.72117,411.10914 273.80123,390.00991 108.27922,478.69523 91.627386,561.87305 107.50078,649.00884 103.0774,742.49838 332.18569,851.632 421.57596,757.05848 412.49539,620.88644 Z"
     id="path4036"
     inkscape:connector-curvature="0"
     sodipodi:nodetypes="cccccccccccc" />
</svg>
