<?xml version="1.0" encoding="UTF-8" standalone="no"?>
<!-- Created with Inkscape (http://www.inkscape.org/) -->

<svg
   xmlns:dc="http://purl.org/dc/elements/1.1/"
   xmlns:cc="http://creativecommons.org/ns#"
   xmlns:rdf="http://www.w3.org/1999/02/22-rdf-syntax-ns#"
   xmlns:svg="http://www.w3.org/2000/svg"
   xmlns="http://www.w3.org/2000/svg"
   xmlns:sodipodi="http://sodipodi.sourceforge.net/DTD/sodipodi-0.dtd"
   xmlns:inkscape="http://www.inkscape.org/namespaces/inkscape"
   id="svg3941"
   version="1.1"
   inkscape:version="0.91 r13725"
   width="681.85614"
   height="901.30817"
   viewBox="0 0 681.85614 901.30817"
   sodipodi:docname="en_lower_a.svg">
  <metadata
     id="metadata3947">
    <rdf:RDF>
      <cc:Work
         rdf:about="">
        <dc:format>image/svg+xml</dc:format>
        <dc:type
           rdf:resource="http://purl.org/dc/dcmitype/StillImage" />
        <dc:title></dc:title>
      </cc:Work>
    </rdf:RDF>
  </metadata>
  <defs
     id="defs3945" />
  <sodipodi:namedview
     pagecolor="#ffffff"
     bordercolor="#666666"
     borderopacity="1"
     objecttolerance="10"
     gridtolerance="10"
     guidetolerance="10"
     inkscape:pageopacity="0"
     inkscape:pageshadow="2"
     inkscape:window-width="1671"
     inkscape:window-height="1017"
     id="namedview3943"
     showgrid="false"
     fit-margin-top="0"
     fit-margin-left="0"
     fit-margin-right="0"
     fit-margin-bottom="0"
     inkscape:zoom="0.33110556"
     inkscape:cx="-418.60698"
     inkscape:cy="795.14965"
     inkscape:window-x="42"
     inkscape:window-y="0"
     inkscape:window-maximized="0"
     inkscape:current-layer="svg3941" />
  <path
     style="fill:#000000"
     d="m 605.59963,866.95059 c -4.07045,-20.39993 1.17928,-52.13976 -24.8712,-53.38376 C 354.65169,865.25592 9.8886136,885.7135 0,564.79313 16.498488,284.21519 344.55071,364.8889 520.67857,353.29541 608.93625,351.18531 591.69531,200.96369 515.28445,167.67875 436.23292,111.69025 379.63915,115.48517 293.86664,123.38363 196.17836,127.09107 142.29945,246.87404 79.753598,203.54969 41.75485,171.03462 57.213199,101.17387 121.8616,65.145956 246.56838,-25.912707 490.00051,-9.9592125 573.66112,42.691208 629.87703,56.940128 662.34019,91.19884 678.328,184.84455 c 2.4703,280.00635 6.60834,432.04344 -0.17874,678.97176 6.83288,36.47827 -63.11855,60.54947 -72.54963,3.13428 z M 563.60396,696.14816 C 587.85245,641.41014 582.05529,544.1651 573.67328,531.33007 562.02135,489.49575 557.50592,465.2116 516.44801,471.66854 407.34966,491.99277 124.04934,412.28557 113.52147,571.05582 116.25016,777.4507 419.85269,747.26796 563.60396,696.14816 Z"
     id="path3951"
     inkscape:connector-curvature="0"
     sodipodi:nodetypes="ccccccccccccccccc" />
</svg>
