<?xml version="1.0" encoding="UTF-8" standalone="no"?>
<!-- Created with Inkscape (http://www.inkscape.org/) -->

<svg
   xmlns:dc="http://purl.org/dc/elements/1.1/"
   xmlns:cc="http://creativecommons.org/ns#"
   xmlns:rdf="http://www.w3.org/1999/02/22-rdf-syntax-ns#"
   xmlns:svg="http://www.w3.org/2000/svg"
   xmlns="http://www.w3.org/2000/svg"
   xmlns:sodipodi="http://sodipodi.sourceforge.net/DTD/sodipodi-0.dtd"
   xmlns:inkscape="http://www.inkscape.org/namespaces/inkscape"
   id="svg5154"
   version="1.1"
   inkscape:version="0.91 r13725"
   width="1226.97"
   height="929.18475"
   viewBox="0 0 1226.97 929.18476"
   sodipodi:docname="en_lower_w.svg">
  <metadata
     id="metadata5160">
    <rdf:RDF>
      <cc:Work
         rdf:about="">
        <dc:format>image/svg+xml</dc:format>
        <dc:type
           rdf:resource="http://purl.org/dc/dcmitype/StillImage" />
        <dc:title></dc:title>
      </cc:Work>
    </rdf:RDF>
  </metadata>
  <defs
     id="defs5158" />
  <sodipodi:namedview
     pagecolor="#ffffff"
     bordercolor="#666666"
     borderopacity="1"
     objecttolerance="10"
     gridtolerance="10"
     guidetolerance="10"
     inkscape:pageopacity="0"
     inkscape:pageshadow="2"
     inkscape:window-width="1541"
     inkscape:window-height="1035"
     id="namedview5156"
     showgrid="false"
     fit-margin-top="0"
     fit-margin-left="0"
     fit-margin-right="0"
     fit-margin-bottom="0"
     inkscape:zoom="0.31658049"
     inkscape:cx="1197.4371"
     inkscape:cy="963.33511"
     inkscape:window-x="280"
     inkscape:window-y="0"
     inkscape:window-maximized="0"
     inkscape:current-layer="svg5154" />
  <path
     style="fill:#000000"
     d="M 229.88048,841.49236 C 130.65199,598.30562 61.825518,304.2332 0.6297543,100.71735 -10.471688,-26.113691 128.51901,-25.95196 155.88283,64.078417 220.83172,264.75604 265.90102,452.16287 324.35148,637.95412 c 3.72608,13.46935 6.75892,14.74491 14.13066,-1.02129 53.32285,-187.05237 83.93648,-414.31456 157.2319,-580.657165 38.48088,-68.755804 148.48037,-79.510262 196.6097,-4.240214 86.34262,210.964109 127.61497,388.778529 222.25297,583.920389 7.40425,29.92492 15.13822,8.4768 17.00597,1.01199 74.02202,-274.23791 81.12912,-347.17399 140.10962,-577.902914 40.74,-102.124708 171.4912,-57.6779828 153.6078,33.638536 C 1172.0825,366.88088 1115.4471,586.62722 1046.1905,811.31974 996.29512,967.19262 860.92963,968.49302 806.44052,815.04033 717.73914,584.73459 623.23175,334.16555 597.67243,290.50144 c -5.22943,-10.06061 -5.35115,-15.21842 -11.23795,0.4406 -64.2437,272.40615 -72.59192,349.62338 -151.01205,545.89723 -35.6499,91.31431 -142.0271,144.56573 -205.54195,4.65309 z"
     id="path5164"
     inkscape:connector-curvature="0"
     sodipodi:nodetypes="ccccccccccccccccc" />
</svg>
