<?xml version="1.0" encoding="UTF-8" standalone="no"?>
<!-- Created with Inkscape (http://www.inkscape.org/) -->

<svg
   xmlns:dc="http://purl.org/dc/elements/1.1/"
   xmlns:cc="http://creativecommons.org/ns#"
   xmlns:rdf="http://www.w3.org/1999/02/22-rdf-syntax-ns#"
   xmlns:svg="http://www.w3.org/2000/svg"
   xmlns="http://www.w3.org/2000/svg"
   xmlns:sodipodi="http://sodipodi.sourceforge.net/DTD/sodipodi-0.dtd"
   xmlns:inkscape="http://www.inkscape.org/namespaces/inkscape"
   id="svg3477"
   version="1.1"
   inkscape:version="0.91 r13725"
   width="27"
   height="41.849998"
   viewBox="0 0 27 41.849998"
   sodipodi:docname="en_lower_y.svg">
  <metadata
     id="metadata3483">
    <rdf:RDF>
      <cc:Work
         rdf:about="">
        <dc:format>image/svg+xml</dc:format>
        <dc:type
           rdf:resource="http://purl.org/dc/dcmitype/StillImage" />
        <dc:title></dc:title>
      </cc:Work>
    </rdf:RDF>
  </metadata>
  <defs
     id="defs3481" />
  <sodipodi:namedview
     pagecolor="#ffffff"
     bordercolor="#666666"
     borderopacity="1"
     objecttolerance="10"
     gridtolerance="10"
     guidetolerance="10"
     inkscape:pageopacity="0"
     inkscape:pageshadow="2"
     inkscape:window-width="1659"
     inkscape:window-height="971"
     id="namedview3479"
     showgrid="false"
     inkscape:zoom="0.99687698"
     inkscape:cx="-70.078984"
     inkscape:cy="-84.987344"
     inkscape:window-x="149"
     inkscape:window-y="0"
     inkscape:window-maximized="0"
     inkscape:current-layer="svg3477" />
  <path
     style="fill:#000000"
     d="m -163.7086,472.37746 c -10.60033,-1.55874 -23.78259,-3.44834 -30.60355,-4.22701 -53.46499,-8.56357 -56.24934,-78.90072 -1.34185,-75.89019 28.42276,-0.75428 30.87728,-2.91179 44.76102,-6.15104 69.252837,-8.79662 88.736995,-109.18793 107.300112,-123.70168 6.448723,-4.96764 13.823816,-17.9009 17.273103,-30.29096 0.413695,-1.48661 1.147151,-3.91891 1.629556,-5.4054 0.482404,-1.48662 0.685168,-3.91894 0.450452,-5.40543 -0.235436,-1.48661 4.032737,-2.83076 9.483209,-2.98723 5.4504729,-0.15618 7.8829148,-1.10247 5.4054274,-2.10213 -2.4775354,-0.99963 -4.5045704,-3.39964 -4.5045704,-5.33346 0,-1.9337 1.621628,-2.51376 3.603618,-1.28889 1.98199,1.22497 3.6036179,0.41417 3.6036179,-1.80181 0,-2.21598 1.8721997,-2.87192 4.1604013,-1.45778 2.62821467,1.62427 3.18009677,0.98499 1.49862456,-1.73577 -1.50727326,-2.43898 -6.04691926,-3.35958 -10.46675676,-2.12251 -5.636996,1.57767 -6.418212,1.22547 -2.812598,-1.26847 3.283136,-2.27076 4.18493,-6.66965 2.63405,-12.84875 -1.344389,-5.35668 -0.834117,-9.39581 1.187273,-9.39581 1.9500375,0 5.2614024,-3.20623 7.358636,-7.12493 4.7560551,-8.88678 -4.0833079,-32.51487 -12.163941,-32.51487 -3.59999,0 -6.169586,-5.342 -7.800296,-16.2163 -1.337422,-8.91895 -3.978562,-16.21626 -5.869068,-16.21626 -1.921209,0 -2.306075,-3.56398 -0.872796,-8.079895 2.163612,-6.816869 1.737904,-7.393832 -2.723831,-3.690968 -4.48749,3.724267 -5.049966,2.765008 -3.714417,-6.334634 0.865589,-5.897898 0.122523,-10.723454 -1.652139,-10.723454 -1.774181,0 -5.497031,-7.702732 -8.272876,-17.117184 -2.775817,-9.414454 -7.183907,-19.260041 -9.795761,-21.879129 -2.611832,-2.619037 -4.951515,-7.078515 -5.199252,-9.909949 -0.497059,-5.681681 -1.767695,-11.386088 -3.153166,-14.157054 -0.495618,-0.990993 -1.243731,-3.018028 -1.662711,-4.504523 -0.418979,-1.486612 -1.7146,-5.1351554 -2.879433,-8.1081404 -1.164692,-2.97298482 -4.025025,-11.5976923 -6.356112,-19.1660106 -2.998184,-9.734453 -5.790389,-13.164739 -9.543659,-11.724443 -9.679776,3.714465 -20.067567,-4.793389 -17.643747,-14.450655 1.6209,-6.457825 0.71495,-8.712948 -3.49996,-8.712948 -3.1277,0 -4.62137,-1.72373 -3.31924,-3.83067 1.30211,-2.106913 -0.12493,-6.583375 -3.16837,-9.947761 -3.04473,-3.364412 -5.06386,-10.417075 -4.48694,-15.672639 0.74859,-6.818769 -0.34739,-9.019736 -3.8262,-7.68479 -2.68131,1.028953 -4.8751,0.07448 -4.8751,-2.118447 0,-2.194123 -2.18982,-3.989181 -4.8663,-3.989181 -2.67645,0 -10.28612,-10.945995 -16.91036,-24.324435 -6.62427,-13.37843 -14.41553,-27.16227 -17.31394,-30.63073 -3.78052,-4.52407 -4.01967,-6.30635 -0.84613,-6.30635 2.72536,0 1.55628,-3.64526 -3.04511,-9.49501 -8.11119,-10.31173 -9.77474,-19.33394 -3.56487,-19.33394 2.14704,0 3.22824,-2.02691 2.40242,-4.5045 -0.82595,-2.47751 -3.62207,-4.50454 -6.21389,-4.50454 -2.59182,0 -6.51075,-3.24326 -8.70874,-7.20722 -2.19797,-3.964 -5.08401,-8.03431 -6.41336,-9.04515 -1.32926,-1.01091 -3.5322,-6.28113 -4.89521,-11.71174 -1.36289,-5.43064 -3.77219,-9.87386 -5.35375,-9.87386 -1.58151,0 -1.96109,-3.49682 -0.84348,-7.77072 1.39219,-5.32418 0.7188,-6.9591 -2.13911,-5.19278 -2.74423,1.69601 -4.17129,-0.57689 -4.17129,-6.64371 0,-5.07196 -1.79508,-9.22174 -3.98915,-9.22174 -2.19413,0 -3.1316,-2.23484 -2.08338,-4.9663 2.53097,-6.59557 -4.24338,-13.01549 -10.99867,-10.42325 -4.13847,1.58807 -4.81359,0.27392 -2.92167,-5.68701 1.61082,-5.0753 0.92493,-7.75238 -1.98655,-7.75238 -2.44588,0 -3.42998,-1.01709 -2.18692,-2.26017 1.24301,-1.24308 -35.64045,-83.89182 -41.38802,-98.58354 -9.03358,-57.9059 53.41356,-65.83956 74.32271,-27.80552 14.44248,18.56311 61.95618,127.67111 74.40892,128.64921 3.80235,0 6.91333,1.62165 6.91333,3.60362 0,1.98199 -1.69731,3.60363 -3.77186,3.60363 -2.07448,0 -0.85838,3.88699 2.70273,8.63776 3.56098,4.75076 7.69075,7.89831 9.17725,6.99454 5.33109,-3.24118 2.5742,1.60167 -3.60362,6.33025 -3.46849,2.65485 -5.14717,3.45099 -3.73042,1.76924 3.03667,-3.60464 -3.15622,-16.52457 -7.92068,-16.52457 -5.32329,0 3.8637,21.9474 10.30049,24.60745 6.18183,2.5547 8.87616,8.93136 8.36995,19.80926 -0.24817,5.33343 0.67844,5.76152 4.89587,2.26139 4.142465,-3.43787 5.201977,-3.21025 5.201977,1.11761 0,8.4298 9.379351,24.48242 12.573552,21.51943 1.570214,-1.4566 1.827513,1.64227 0.571772,6.88608 -1.604811,6.7022 -0.685168,10.14745 3.09667,11.59863 2.958881,1.1354 5.379793,0.18259 5.379793,-2.11482 0,-2.29865 2.380791,-1.03135 5.29083,2.8158 2.909946,3.84729 5.317547,8.61673 5.350246,10.5987 0.03363,1.98199 -1.512559,1.17119 -3.43384,-1.80179 -2.82478,-4.37102 -3.503821,-3.85385 -3.548434,2.70271 -0.03123,4.45948 1.740067,8.10814 3.933973,8.10814 2.194123,0 3.075688,2.38053 1.959167,5.29004 -1.1164,2.90949 -0.47904,6.24846 1.416222,7.4199 1.895503,1.1714 3.446234,5.05256 3.446234,8.62471 0,4.92961 2.104275,6.09261 8.731447,4.82573 6.247883,-1.19424 8.356768,-3.61475 7.414158,-8.5093 -2.142231,-11.12379 1.18583,-7.88126 8.672419,8.4495 5.130999,11.19242 5.883339,16.00607 2.807434,17.9629 -2.747927,1.74822 -2.019707,2.69229 2.104273,2.72835 4.706253,0.0408 6.306332,3.03855 6.306332,11.81334 0,8.698157 2.110038,12.718207 8.10814,15.447275 4.459478,2.029079 7.702734,5.656817 7.2072365,8.06175 -0.4953772,2.404959 0.4398816,4.37263 2.0785669,4.37263 1.6386852,0 2.2830121,4.745871 1.4315975,10.546325 -1.275681,8.691013 -0.373335,10.350167 5.12864514,9.431271 3.67208686,-0.613336 6.27111246,-2.926715 5.77561476,-5.140922 -0.4953774,-2.214303 0.7207236,-4.02582 2.7027135,-4.02582 1.9819901,0 3.6036177,2.432442 3.6036177,5.405427 0,2.972987 -1.6216276,5.405427 -3.6036177,5.405427 -1.9819899,0 -3.603618,3.243257 -3.603618,7.207236 0,3.963982 1.492859,7.207236 3.3172986,7.207236 1.8243919,0 4.3888941,4.879061 5.6986651,10.842326 1.409015,6.415307 3.960354,9.86642 6.248531,8.45224 2.451636,-1.515201 2.802316,-0.667152 0.958082,2.317125 -1.82151,2.947305 -0.513395,6.458838 3.498823,9.392688 3.867595,2.828045 5.508563,7.0293612 4.139284,10.597664 -1.517844,3.9556915 -0.02402,6.498981 4.514158,7.6857725 3.730562,0.9756195 8.713549,6.0112195 11.073316,11.1903395 3.447703,7.566901 4.938879,8.391745 7.591336,4.199128 4.430023,-7.002345 4.30303,-15.2030744 -0.192193,-12.4247569 -2.058147,1.2720772 -3.60362,-1.8928605 -3.60362,-7.3800897 0,-7.2021911 1.400127,-9.0700184 5.592601,-7.4611952 3.201526,1.2285935 4.652943,0.6258283 3.394848,-1.4099756 -1.208653,-1.9558036 0.328648,-7.1629376 3.416444,-11.5713876 6.362092,-9.083133 7.393233,-15.143842 2.010579,-11.817174 -4.625939,2.858966 -4.580557,-0.450214 0.12733,-9.245949 2.969475,-5.548513 2.54807,-6.970333 -2.066075,-6.970333 -6.733288,0 -5.869693,-11.215132 1.040725,-13.516042 2.860862,-0.952558 3.707184,0.583544 2.317127,4.205879 -1.20433,3.138605 -0.394717,5.706543 1.799406,5.706543 2.194121,0 4.15084,-2.837849 4.34839,-6.306331 0.237839,-4.159368 1.313397,-3.23922 3.161838,2.702715 2.777669,8.928805 2.845754,8.896685 7.638491,-3.60362 2.659711,-6.936964 4.831301,-15.045103 4.825703,-18.01809 -0.0072,-2.972985 1.458024,-6.434116 3.25241,-7.69137 1.794361,-1.25718 2.418892,-4.500534 1.387873,-7.207236 -1.124569,-2.9523 -4.517207,1.033037 -8.479529,9.961001 -4.961702,11.179864 -8.539998,14.765899 -14.383193,14.414472 -7.545327,-0.453816 -7.592054,-0.737779 -1.559646,-9.476867 3.42029,-4.954975 7.606685,-11.441485 9.303125,-14.414472 2.672347,-4.683214 2.258745,-4.735466 -3.09522,-0.391113 -5.402256,4.383441 -5.894102,4.27012 -3.909807,-0.900904 2.084092,-5.431325 6.265204,-7.438462 13.210505,-6.341863 1.486612,0.235436 2.702711,-1.368409 2.702711,-3.562429 0,-2.1941 -2.612983,-2.98646 -5.806651,-1.76097 -4.250011,1.63078 -5.216069,0.68928 -3.603618,-3.5128 1.211776,-3.15755 2.203009,-7.53997 2.203009,-9.73866 0,-2.19871 2.188359,-1.00493 4.862939,2.65281 4.382073,5.99289 4.735732,5.43736 3.576328,-5.61754 -0.985709,-9.40006 -0.551353,-10.58319 1.858506,-5.06084 3.145166,7.20726 3.145166,7.20726 5.014675,0 1.525291,-5.8801 1.946434,-6.04598 2.287577,-0.90088 0.230631,3.46846 1.999527,6.30633 3.932436,6.30633 2.226554,0 2.301981,-3.18872 0.206607,-8.70247 -2.548502,-6.703 -2.009137,-9.20114 2.347654,-10.87303 3.11098,-1.19376 7.8833,-0.32238 10.60508,1.93636 5.847,4.85257 6.13024,3.19783 1.52552,-8.9134 -2.4305,-6.3926 -2.16912,-9.51312 0.90092,-10.76095 2.37813,-0.96649 -1.35162,-2.0471 -8.28868,-2.40119 -11.694236,-0.59678 -11.956627,-0.85384 -3.60362,-3.52891 4.95496,-1.58679 7.08277,-3.04683 4.72848,-3.24441 -4.46606,-0.37477 -5.10222,-14.77368 -0.65274,-14.77368 1.39821,0 5.51246,-1.04937 9.14303,-2.33226 5.40087,-1.90826 5.78206,-1.44963 2.09659,2.52253 -6.68842,7.20837 -5.49168,10.65132 3.60362,10.36721 7.44978,-0.23302 7.54237,-0.47496 1.14018,-2.982 -4.86366,-1.90461 -5.66213,-3.53579 -2.64395,-5.40115 6.39274,-3.95089 1.06885,-10.01518 -6.64356,-7.56738 -5.95087,1.88875 -6.19995,1.15097 -2.39955,-7.10799 4.14243,-9.00225 15.95033,-11.17218 14.15047,-2.60042 -0.49536,2.35967 0.72074,4.29051 2.70271,4.29051 1.98199,0 3.60364,-3.24325 3.60364,-7.20725 0,-3.96398 1.62161,-7.20722 3.60362,-7.20722 1.98197,0 3.6036,1.89188 3.6036,4.20422 0,2.31232 0.95882,3.24535 2.13094,2.07326 2.83001,-2.83 -1.8066,-17.08845 -5.55702,-17.08845 -1.61731,0 -3.83127,3.40643 -4.92,7.56985 -1.0888,4.16341 -3.33933,6.7294 -5.00125,5.70227 -4.26315,-2.6347 -2.57824,-27.61685 2.18378,-32.37876 2.17492,-2.17586 3.9553,-6.7017 3.9553,-10.05723 0,-3.35553 2.43242,-7.0344 5.40541,-8.17522 2.97298,-1.14086 5.40542,-4.50056 5.40542,-7.46599 0,-2.96546 3.03679,-7.01699 6.7484,-9.00336 4.87579,-2.60946 6.39196,-6.67269 5.46393,-14.64308 -1.13682,-9.76306 -0.0481,-11.27869 9.4679,-13.18188 7.34636,-1.46927 10.75235,-4.2908 10.75235,-8.90725 0,-3.71623 1.62161,-6.7568 3.60362,-6.7568 1.98199,0 3.6036,1.62165 3.6036,3.60362 0,1.98199 1.62165,3.60363 3.60362,3.60363 1.98199,0 3.60364,-2.52816 3.60364,-5.61812 0,-3.08995 -1.50968,-4.68511 -3.35461,-3.54483 -6.45979,3.99234 -7.14739,-4.22506 -0.92157,-11.0121 10.95683,-23.74661 20.9107,-53.11808 29.91999,-85.36318 13.7699,-37.38069 71.38736,-40.17516 67.49516,13.01811 -6.23004,22.76485 -20.14775,53.94166 -22.92507,75.90876 -0.45406,4.18126 -1.03256,8.76762 -1.28555,10.19193 -0.25297,1.42427 -3.29772,1.67671 -6.76623,0.56096 -4.74868,-1.52759 -5.11166,-1.17389 -1.46955,1.43194 3.53709,2.53075 3.84984,5.28487 1.16397,10.24988 -2.01995,3.73411 -4.86725,10.03254 -6.32724,13.99654 -1.45997,3.96396 -2.97342,8.01803 -3.36323,9.00905 -0.38967,0.99097 -1.94884,7.0721 -3.4644,13.51355 -1.51568,6.44146 -4.17462,11.71177 -5.90887,11.71177 -1.7343,0 -3.15317,1.68727 -3.15317,3.74952 0,3.9723 -14.13699,25.3585 -19.22679,29.08592 -1.65574,1.2125 -3.06627,3.64504 -3.13441,5.40543 -0.0673,1.76049 -1.66919,7.2548 -3.55804,12.20978 -1.88877,4.95499 -4.32437,13.44221 -5.41249,18.86049 -1.08805,5.41831 -3.33169,9.01503 -4.9858,7.99276 -1.65406,-1.02223 -2.849,1.84195 -2.65531,6.36482 0.63378,14.79624 -0.56457,17.2326 -8.4748,17.2326 -4.29429,0 -6.78383,1.02415 -5.53222,2.27555 1.25167,1.25167 0.44516,5.69575 -1.79196,9.87587 -5.15525,9.6327 -6.8419,24.38855 -3.33724,29.19645 4.09234,5.6141 2.49265,14.625894 -2.41541,13.607223 -2.38726,-0.495617 -4.34071,1.98151 -4.34071,5.504505 0,3.522993 -2.20901,9.604096 -4.90899,13.513567 -2.69997,3.909492 -6.03966,14.791505 -7.4216,24.182294 -1.38186,9.390766 -4.77136,19.332908 -7.53206,22.09364 -2.76074,2.760683 -4.29828,5.740635 -3.41686,6.622104 0.88147,0.881445 -2.84441,1.02799 -8.27974,0.325767 -5.43527,-0.702227 -12.30694,0.327209 -15.27026,2.287577 -4.64286,3.071724 -4.39368,4.36869 1.80181,9.379569 3.95432,3.198233 5.15024,4.7804875 2.65752,3.516146 -2.49269,-1.264389 -7.35032,0.5194016 -10.79478,3.9638118 -5.9477,5.94772362 -5.71983,6.15399472 4.53219,4.1031517 10.2634,-2.0531015 10.76406,-1.5961627 10.17122,9.2825117 -0.34307,6.2931188 -0.9511,11.8473988 -1.35136,12.3428958 -0.9343,1.156522 -2.40258,7.031911 -2.98007,11.924447 -0.24743,2.098985 -2.47747,2.598495 -4.95497,1.110152 -3.48228,-2.09202 -3.4614,-1.418142 0.0913,2.970102 3.78341,4.672187 3.62404,6.04949 -0.90091,7.785859 -3.43979,1.319885 -5.49739,6.707461 -5.49739,14.394074 0,6.756497 -2.43244,14.303264 -5.40543,16.77064 -2.97298,2.467347 -5.405417,7.530793 -5.405417,11.252081 0,3.721312 -2.432442,6.766007 -5.405427,6.766007 -2.972985,0 -5.405427,1.717246 -5.405427,3.816305 0,2.098986 1.8722,2.659206 4.160401,1.24493 2.598353,-1.605772 3.181346,-0.987153 1.552679,1.647815 -1.43424,2.320495 -4.117158,3.286225 -5.96221,2.145845 -3.060529,-1.89143 -3.696279,-0.0793 -4.796055,13.66749 -0.1994,2.47748 1.853701,4.0367 4.559946,3.465 2.706197,-0.57176 -0.160962,4.04155 -6.370884,10.25173 -10.237014,10.23702 -11.132297,12.91305 -9.58887,28.66241 1.220428,12.45437 0.218622,18.60246 -3.539063,21.72115 -2.882678,2.39258 -5.24132,7.33963 -5.24132,10.99368 0,8.77615 -11.240452,32.11359 -15.46745,32.11359 -1.827032,0 -2.364692,2.4938 -1.195198,5.54179 1.210095,3.15343 -0.17778,6.42583 -3.218078,7.59282 -2.938583,1.12841 -5.343686,3.6729 -5.343686,5.65489 0,1.98199 2.837848,2.5487 6.30633,1.25933 3.839465,-1.42725 2.370462,1.3533 -3.755474,7.10837 -7.253651,6.81444 -9.408807,11.51001 -7.722071,16.82443 1.465951,4.61902 0.959281,6.51878 -1.356645,5.08733 -2.096102,-1.29536 -4.797424,2.79936 -6.239568,9.45867 -1.398682,6.45877 -5.946953,16.55632 -10.107212,22.43894 -4.160256,5.88269 -7.9048718,13.01769 -8.321378,15.85556 -0.4165782,2.83785 -2.6844069,6.3508 -5.0397319,7.80647 -2.3553249,1.45562 -3.5559063,4.8263 -2.6679026,7.49022 0.8879315,2.66398 -1.4176633,8.09821 -5.1236001,12.0761 -3.7788024,4.05609 -5.0863154,7.7831 -2.9770914,8.48616 2.0684752,0.6895 3.7609985,3.01047 3.7609985,5.1576 0,2.14703 -1.0753199,2.82865 -2.3894392,1.51448 -1.3141193,-1.31412 -5.3444543,2.46961 -8.9560963,8.40844 -8.261637,18.89836 -14.693486,42.28679 -37.407069,61.08063 -26.318643,23.62956 -42.663489,26.89604 -56.100761,31.88116 -43.51658,11.87456 -40.38835,8.88582 -52.20715,9.44769 z M 39.363118,103.28738 C 32.2994,91.976553 28.44425,95.634297 32.716461,109.59371 c 0.15135,0.4956 2.721909,0.90091 5.711685,0.90091 4.533882,0 4.689051,-1.19593 0.93502,-7.20724 z M 30.803875,89.498273 c 3.194609,-5.169008 -2.038927,-18.643464 -7.241036,-18.643464 -5.064695,0 -7.047428,14.754583 -2.582713,19.219274 3.27343,3.27343 7.601566,3.019736 9.823749,-0.575858 z m 61.648009,-4.228992 c -1.224992,-1.98199 -4.158504,-3.578801 -6.519018,-3.548457 -2.578797,0.03363 -2.134302,1.449616 1.113518,3.548457 6.922983,4.473988 8.170484,4.473988 5.405427,0 z M 90.650073,65.449382 c 0,-2.972985 -2.496369,-5.405425 -5.547528,-5.405425 -4.583442,0 -4.739983,0.915557 -0.900905,5.268343 5.906979,6.697348 6.448433,6.708882 6.448433,0.136937 z M 60.404812,61.030051 c -0.949913,-0.949914 -0.375497,-5.281967 1.27616,-9.626706 2.385597,-6.274333 1.656705,-8.000971 -3.542501,-8.392612 -3.600255,-0.271472 -7.469171,1.913041 -8.597606,4.853593 -1.128413,2.940697 -0.560723,4.425219 1.261506,3.29897 1.82223,-1.12625 4.262648,-0.511713 5.422917,1.365531 1.160365,1.877485 0.461501,4.431992 -1.552919,5.676898 -5.802882,3.586347 -4.252584,9.04566 1.898386,6.685288 3.058439,-1.173576 4.783609,-2.911147 3.833673,-3.861058 z M 73.293056,25.809585 c 3.446693,-15.129071 -2.502064,-19.2500969 -7.420594,-5.140707 -5.183276,14.868698 -5.100057,17.963099 0.453095,16.852464 2.477487,-0.495376 5.612801,-5.765789 6.967403,-11.711757 z m 32.476954,1.801807 c 2.27342,0 1.93586,-2.222952 -0.84709,-5.575974 -5.896091,-7.104389 -10.696038,-0.546789 -7.670633,10.479419 1.773701,6.464242 2.326976,6.690788 3.426143,1.403007 0.72097,-3.46848 3.01217,-6.306332 5.09151,-6.306332 z m 7.94302,-22.4674291 c 2.18017,-1.4561021 -0.50909,-2.6723711 -5.97631,-2.7027135 -9.058433,-0.050451 -9.539132,0.5873897 -5.41727,7.1876326 2.99453,4.794998 5.01429,5.708421 5.97626,2.702713 0.79929,-2.4970668 3.23699,-5.7314821 5.41732,-7.1876321 z M 79.83922,-1.4579857 c 0,-2.1141223 4.246528,-9.4115713 9.436747,-16.2162813 6.475317,-8.489571 7.888944,-12.461527 4.504522,-12.656723 -3.372626,-0.194595 -3.571858,-0.837961 -0.630152,-2.034603 2.366135,-0.962648 3.306776,-4.343801 2.090339,-7.513856 -1.554601,-4.051021 -0.844448,-4.9187 2.389679,-2.919987 3.532135,2.183071 4.026605,0.228229 2.127816,-8.41786 -2.055984,-9.360616 -1.360486,-11.309739 4.119169,-11.54621 4.44316,-0.192191 4.99101,-0.921325 1.68046,-2.238085 -4.14728,-1.649258 -4.14728,-2.43821 0,-5.065752 2.70176,-1.711719 3.29066,-3.085442 1.3086,-3.052767 -11.483934,0.189788 -27.027132,32.590519 -27.027132,56.340333 0,5.164826 -2.145113,8.3549887 -5.618112,8.3549887 -3.089958,0 -4.615874,-1.6216277 -3.390933,-3.6036177 1.22499,-1.98199 0.509792,-3.60362 -1.589197,-3.60362 -4.779911,0 -4.797353,2.244335 -0.08649,11.0477576 4.00547,7.4842824 10.684079,9.4385244 10.684079,3.1262827 z M 74.433793,-30.046498 c 1.224988,-1.98199 0.509792,-3.603616 -1.589195,-3.603616 -2.098988,0 -3.816306,1.621626 -3.816306,3.603616 0,1.981992 0.715198,3.60362 1.589196,3.60362 0.873997,0 2.591364,-1.621628 3.816305,-3.60362 z m 55.856097,-3.603616 c -2.97299,-1.921211 -8.64869,-3.356434 -12.61269,-3.189226 -5.93746,0.250331 -5.62001,0.812253 1.80183,3.189226 12.74124,4.080448 17.1249,4.080448 10.81086,0 z m -8.06579,-39.675354 c -2.5313,-4.053254 -5.11857,-5.456649 -5.87517,-3.186874 -0.74354,2.230882 0.8728,5.465225 3.5918,7.187634 7.09641,4.495296 7.33176,4.082948 2.28347,-4.00076 z m -132.47533,0.03604 c 0,-1.98199 -0.715201,-3.603618 -1.589198,-3.603618 -0.873998,0 -2.591362,1.621628 -3.816304,3.603618 -1.224988,1.981992 -0.509791,3.603618 1.589196,3.603618 2.098987,0 3.816306,-1.621626 3.816306,-3.603618 z m 105.808087,-1.801807 c 1.140905,-2.972987 0.503546,-5.405429 -1.416222,-5.405429 -1.919767,0 -3.490538,2.432442 -3.490538,5.405429 0,2.972983 0.637361,5.405425 1.416223,5.405425 0.77886,0 2.3498,-2.432442 3.490537,-5.405425 z m 15.738983,-7.582615 c -1.1976,-1.19736 -4.30565,-1.325411 -6.90698,-0.284206 -2.87472,1.150275 -2.02089,2.004333 2.17709,2.177066 3.79879,0.156159 5.92719,-0.695258 4.72977,-1.89262 z m -139.565163,-7.979492 c 0,-1.388354 -3.03612,-4.420198 -6.746934,-6.73766 -6.175208,-3.856488 -6.40925,-3.497908 -2.761788,4.230984 3.557539,7.538336 9.508722,9.107159 9.508722,2.506676 z m 167.825633,-0.654177 c 0,-7.322501 -2.54505,-9.123801 -6.83278,-4.836079 -1.30402,1.30427 -0.56504,4.547406 1.64255,7.207236 5.14338,6.197382 5.1903,6.175977 5.1903,-2.371181 z m -16.72726,-10.337041 c 1.98197,-3.70337 2.5796,-7.75746 1.32804,-9.00905 -1.25166,-1.25166 -0.38365,-2.27558 1.92867,-2.27558 2.3123,0 4.20425,-3.10811 4.20425,-6.90692 0,-3.79881 1.98509,-7.56865 4.41155,-8.37745 2.42636,-0.80891 0.80241,-2.41433 -3.60859,-3.56785 -4.41107,-1.15363 -7.13209,-0.66042 -6.04675,1.09574 1.08541,1.75615 -0.0721,6.87523 -2.57001,11.37569 -2.49894,4.50044 -4.60098,9.26368 -4.67115,10.58505 -0.0697,1.32133 -1.34393,3.61861 -2.83045,5.1051 -3.79922,3.799228 -3.36282,8.708748 0.77406,8.708748 1.91232,0 5.09844,-3.030019 7.08045,-6.733438 z m 26.95461,-9.46664 c 2.84422,-11.3321 2.77015,-12.84296 -0.57489,-11.72797 -1.48662,0.49562 -2.34908,1.96157 -1.91711,3.258 0.43217,1.29635 -1.59498,4.3328 -4.50454,6.74756 -6.67659,5.54109 -6.80961,10.71524 -0.27532,10.71524 2.75814,0 6.03044,-4.04679 7.27181,-8.99283 z m -188.863837,1.78548 c 0,-1.98199 -1.717244,-3.60364 -3.816303,-3.60364 -2.09899,0 -2.814066,1.62165 -1.589196,3.60364 1.22499,1.98199 2.942258,3.60361 3.816304,3.60361 0.873997,0 1.589195,-1.62162 1.589195,-3.60361 z m -9.162943,-21.37272 c 1.140184,-1.84504 0.595077,-4.26816 -1.211537,-5.3847 -1.806614,-1.11664 -4.214647,0.39303 -5.351108,3.35461 -2.24049,5.83829 3.173898,7.51318 6.562621,2.03001 z m 201.77324,-38.39858 c 5.735,-4.19355 5.94218,-5.09383 1.17236,-5.09383 -3.18661,0 -6.61182,-2.02715 -7.61149,-4.50452 -0.99962,-2.47749 -1.94569,-0.93646 -2.10211,3.42456 -0.15616,4.36098 -3.12237,9.58198 -6.59085,11.60219 -3.46846,2.02019 -5.20329,3.72239 -3.85518,3.78267 1.34822,0.0601 1.08131,4.88557 -0.59269,10.72288 -2.08431,7.26758 -1.72107,11.06887 1.15245,12.05852 2.39327,0.82425 5.75715,-4.64437 7.82877,-12.72671 1.99782,-7.79457 6.76729,-16.46416 10.59872,-19.26576 z m -287.16233,11.24815 c -0.93405,-4.88581 0.0937,-9.62267 2.28254,-10.52634 2.6918,-1.11112 2.59107,-1.73526 -0.31112,-1.92746 -6.14424,-0.4072 -8.2862,4.47491 -5.92487,13.50461 2.81644,10.77016 6.04881,9.91108 3.95333,-1.05083 z m 295.37866,-4.10505 c -1.19736,-1.19739 -4.30556,-1.32541 -6.90692,-0.28445 -2.87474,1.15028 -2.02092,2.00433 2.17705,2.17731 3.79881,0.15613 5.92721,-0.69526 4.72975,-1.89262 z m -306.94264,-27.74584 c -0.33466,-4.35322 0.75772,-9.77018 2.42751,-12.0377 3.4982,-4.75043 -6.83793,-16.85532 -11.78289,-13.79919 -1.74799,1.08037 -2.83348,-2.80085 -2.41219,-8.62482 0.42138,-5.82396 2.2328,-9.68564 4.02548,-8.58154 1.7927,1.10415 2.10235,0.13453 0.68829,-2.15278 -1.4143,-2.28832 -4.908,-4.1605 -7.76404,-4.1605 -5.21463,0 -6.01009,-2.21012 -6.12668,-17.02178 -0.0336,-4.40699 -1.46041,-7.14916 -3.16818,-6.09366 -2.89017,1.78622 -4.60453,-5.73375 -3.46827,-15.21343 0.57706,-4.81464 -9.6379,-9.44401 -14.37651,-6.51538 -1.80301,1.11438 -3.1504,4.76829 -2.99393,8.11981 0.17537,3.75199 0.98306,4.36266 2.10211,1.58912 2.53183,-6.2745 8.42425,-5.64435 8.42425,0.90095 0,2.97298 -1.27424,5.40542 -2.83141,5.40542 -1.55725,0 -2.83141,3.24326 -2.83141,7.20724 0,3.96396 1.78451,7.20723 3.96578,7.20723 5.8277,0 17.79209,25.31708 17.88153,37.83799 0.0553,7.83641 1.72758,10.68622 6.07587,10.35785 3.70589,-0.2799 5.27152,1.44193 4.09626,4.50453 -1.04625,2.72664 0.29814,5.0091 2.98769,5.07212 3.31703,0.0769 2.74533,1.73936 -1.77707,5.16568 -3.66697,2.77808 -5.64206,6.70975 -4.38911,8.73705 3.82284,6.18549 11.89415,0.51313 11.24704,-7.90418 z m 302.35929,0.84516 c -1.14019,-1.84505 -4.00458,-3.22662 -6.36511,-3.07013 -3.07187,0.2042 -3.00504,0.80336 0.23543,2.10955 2.48986,1.00373 3.45551,3.55879 2.14584,5.67772 -1.41909,2.29621 -0.6765,2.79924 1.8381,1.24493 2.32049,-1.43424 3.28624,-4.11718 2.14584,-5.96221 z m -284.55744,-6.91702 c 1.26246,-2.04277 -0.18499,-2.64691 -3.39094,-1.41624 -6.24298,2.3957 -7.3852,4.97861 -2.20157,4.97861 1.865,0 4.38169,-1.60313 5.59258,-3.56232 z m 303.55526,1.38523 c -1.19736,-1.19736 -4.30556,-1.32543 -6.90691,-0.28445 -2.87475,1.15028 -2.02093,2.00434 2.17728,2.17707 3.79877,0.15616 5.92719,-0.69528 4.72973,-1.89262 z m 8.18322,-14.03919 c 0,-2.97299 -1.62161,-5.40543 -3.60362,-5.40543 -1.98199,0 -3.6036,2.43244 -3.6036,5.40543 0,2.97298 1.62161,5.40543 3.6036,5.40543 1.98201,0 3.60362,-2.43245 3.60362,-5.40543 z m -36.03616,-12.61266 c 0,-1.98199 -1.62165,-3.60362 -3.60362,-3.60362 -1.98201,0 -3.60364,1.62163 -3.60364,3.60362 0,1.98199 1.62163,3.60361 3.60364,3.60361 1.98197,0 3.60362,-1.62162 3.60362,-3.60361 z m 48.7545,-11.14376 c 1.2,-3.78086 3.69416,-6.87431 5.54258,-6.87431 4.82522,0 4.14633,-12.18749 -0.9636,-17.29737 -3.36336,-3.36338 -2.87732,-4.32434 2.18741,-4.32434 4.81576,0 5.8167,-1.64244 3.84319,-6.30634 -1.46765,-3.46848 -2.55278,-9.14418 -2.41135,-12.61268 0.14175,-3.46846 -2.17176,-6.30631 -5.14061,-6.30631 -3.94046,0 -4.95031,2.83989 -3.74017,10.51828 1.11208,7.05677 -0.55543,12.89394 -5.0676,17.73704 -3.69892,3.97035 -7.47852,11.37259 -8.39915,16.44943 -0.9206,5.07685 -2.607,10.7405 -3.74751,12.58591 -2.44467,3.95555 5.07994,7.21065 11.3476,4.90888 2.40217,-0.88215 5.34918,-4.6973 6.54921,-8.47819 z m -12.71834,1.14617 c 0,-2.1953 1.64807,-5.01008 3.6624,-6.25501 2.01443,-1.24493 2.89649,-3.50279 1.96039,-5.0175 -0.93624,-1.51469 0.66571,-2.75401 3.5598,-2.75401 4.28672,0 4.09748,1.39136 -1.02103,7.50754 -3.45558,4.12915 -6.70556,8.1832 -7.2222,9.00905 -0.51649,0.82571 -0.93934,-0.29477 -0.93934,-2.49007 z m -14.41447,-6.15379 c 0,-0.53115 -4.22717,-0.96575 -9.39377,-0.96575 -6.00642,0 -7.74855,1.0167 -4.83135,2.81977 3.89767,2.40888 14.22512,1.06282 14.22512,-1.85397 z m -1.14185,-16.95685 c -1.1503,-2.87472 -2.00435,-2.02081 -2.17709,2.17717 -0.15613,3.79883 0.69528,5.92721 1.89264,4.72977 1.19737,-1.19748 1.32539,-4.30558 0.28421,-6.90694 z m 15.50123,-13.86749 c 0.0312,-1.06179 -3.18817,-1.93051 -7.15213,-1.93051 -8.44241,0 -8.7178,0.73545 -2.70273,7.21795 4.14202,4.4639 9.66067,1.50297 9.85476,-5.28743 z m -345.89225,-12.69666 c 0,-3.08993 -1.64806,-4.59952 -3.66241,-3.35461 -2.01442,1.24494 -2.72942,3.77307 -1.58919,5.61811 3.08916,4.99837 5.25153,4.06635 5.25153,-2.26349 z m 338.74012,-1.5891 c 0,-1.98199 -0.7152,-3.60363 -1.58921,-3.60363 -0.874,0 -2.59135,1.62164 -3.81631,3.60363 -1.22499,1.98198 -0.50979,3.60362 1.58922,3.60362 2.09897,0 3.8163,-1.62164 3.8163,-3.60362 z m -338.74012,-10.81085 c 0,-1.982 -1.62163,-3.60364 -3.60362,-3.60364 -1.98199,0 -3.6036,1.62164 -3.6036,3.60364 0,1.98197 1.62161,3.6036 3.6036,3.6036 1.98199,0 3.60362,-1.62163 3.60362,-3.6036 z m 380.76859,-18.91902 c 3.54224,-5.67009 4.81576,-13.51358 2.19437,-13.51358 -2.55262,0 -11.52519,11.76977 -11.67556,15.3154 -0.18499,4.35707 6.41761,3.10236 9.48131,-1.80182 z m -16.80314,-9.90994 c 0,-1.982 -1.71727,-3.60364 -3.81631,-3.60364 -2.099,0 -2.81408,1.62164 -1.58919,3.60364 1.22499,1.98197 2.94226,3.60361 3.8163,3.60361 0.87398,0 1.5892,-1.62164 1.5892,-3.60361 z m -77.42121,306.39911 c -2.91211,-4.711899 5.38186,-8.70723 9.50867,-4.580439 2.30678,2.306796 1.61272,4.268221 -2.00051,5.654749 -3.04272,1.167573 -6.42143,0.684207 -7.50826,-1.074358 z M 51.010276,-40.85735 c 0,-1.98199 1.621626,-3.603621 3.603616,-3.603621 1.981992,0 3.60362,1.621631 3.60362,3.603621 0,1.981989 -1.621628,3.603616 -3.60362,3.603616 -1.98199,0 -3.603616,-1.621627 -3.603616,-3.603616 z m 44.234217,-108.10853 c -0.298617,-3.964 0.978024,-7.20726 2.83677,-7.20726 1.858747,0 3.379677,3.24326 3.379677,7.20726 0,3.96396 -1.27666,7.20721 -2.836779,7.20721 -1.560127,0 -3.08107,-3.24325 -3.379668,-7.20721 z m -151.682097,-0.78081 c -2.345475,-2.34547 -4.264281,-5.6774 -4.264281,-7.40455 0,-1.72711 2.6255,-0.51485 5.834426,2.69414 3.20895,3.20891 5.127874,6.541 4.264279,7.40455 -0.863665,0.86367 -3.489071,-0.34883 -5.834424,-2.69414 z m 5.127851,-15.73661 c -1.34679,-3.50961 -0.541264,-5.15705 2.09202,-4.2793 5.386834,1.79556 8.352804,9.98584 3.616233,9.98584 -1.935143,0 -4.503778,-2.56792 -5.708179,-5.70654 z M 113.685,-211.90771 c 1.13249,-7.71616 5.79403,-11.36747 5.79403,-4.53839 0,3.18634 -1.47916,6.7076 -3.28731,7.82499 -1.80803,1.11736 -2.93599,-0.36156 -2.50672,-3.2866 z m -211.993193,-29.69592 c -1.955567,-5.13587 -1.54163,-5.54978 2.017305,-2.01727 2.462783,2.44444 3.570009,5.35223 2.460501,6.46175 -1.109434,1.10943 -3.124505,-0.89056 -4.477782,-4.44448 z m 3.397441,-11.8259 c -1.262467,-2.04275 0.184986,-2.64687 3.390935,-1.41627 6.242978,2.39568 7.385206,4.97862 2.201568,4.97862 -1.864991,0 -4.381687,-1.60308 -5.592575,-3.56236 z"
     id="path3487"
     inkscape:connector-curvature="0"
     sodipodi:nodetypes="ccccccccccscssccccsssssssssssccccsscsscccssssssscssccsccsscsssccccsscssssssssccssccscsccscssscsccssccssssssscscssssssssscsscscssccssssssccsccsscsscscccsccssscccsssscsssssscccscssssssssscccccsssssccssccccssscsscsssccscscssccccccsssssccccccscssccsssccsscccssscccccccscccssccccccccssccccccsccccccscccccssccccscccscccccccscsscsccccssscccccccsccsscsscsssccccccssssccccccssscccccsscccccssccsscssccccccsccsccsscccccsccccccccsccccsccscccsssscccccscccccccccccscccccccssssssssssssssscsccsscscccsscccsscssccscccsscccscccsscssssssscscccsscsscssccssssssssssssccscsscccscccssccccscc" />
</svg>
