<?xml version="1.0" encoding="UTF-8" standalone="no"?>
<!-- Created with Inkscape (http://www.inkscape.org/) -->

<svg
   xmlns:dc="http://purl.org/dc/elements/1.1/"
   xmlns:cc="http://creativecommons.org/ns#"
   xmlns:rdf="http://www.w3.org/1999/02/22-rdf-syntax-ns#"
   xmlns:svg="http://www.w3.org/2000/svg"
   xmlns="http://www.w3.org/2000/svg"
   xmlns:sodipodi="http://sodipodi.sourceforge.net/DTD/sodipodi-0.dtd"
   xmlns:inkscape="http://www.inkscape.org/namespaces/inkscape"
   id="svg3941"
   version="1.1"
   inkscape:version="0.91 r13725"
   width="707.57367"
   height="929.99902"
   viewBox="0 0 707.57367 929.99902"
   sodipodi:docname="en_lower_a.svg">
  <metadata
     id="metadata3947">
    <rdf:RDF>
      <cc:Work
         rdf:about="">
        <dc:format>image/svg+xml</dc:format>
        <dc:type
           rdf:resource="http://purl.org/dc/dcmitype/StillImage" />
        <dc:title />
      </cc:Work>
    </rdf:RDF>
  </metadata>
  <defs
     id="defs3945" />
  <sodipodi:namedview
     pagecolor="#ffffff"
     bordercolor="#666666"
     borderopacity="1"
     objecttolerance="10"
     gridtolerance="10"
     guidetolerance="10"
     inkscape:pageopacity="0"
     inkscape:pageshadow="2"
     inkscape:window-width="1671"
     inkscape:window-height="1017"
     id="namedview3943"
     showgrid="false"
     fit-margin-top="0"
     fit-margin-left="0"
     fit-margin-right="0"
     fit-margin-bottom="0"
     inkscape:zoom="0.16555278"
     inkscape:cx="-1293.4842"
     inkscape:cy="826.76466"
     inkscape:window-x="76"
     inkscape:window-y="0"
     inkscape:window-maximized="0"
     inkscape:current-layer="svg3941" />
  <path
     style="fill:#000000"
     d="M 541.25753,862.21981 C 536.70231,839.39037 536.99046,814.30933 507.8375,812.91718 271.80379,883.10219 30.286631,948.5288 0,610.74449 1.3786223,335.19193 252.49604,309.87747 444.97226,353.97592 517.69203,380.94954 559.26795,339.00416 561.88233,282.51448 536.23561,123.70365 357.3255,161.48563 268.01574,205.38511 205.50618,226.1451 157.57316,271.0657 111.73993,202.95046 90.357013,140.89144 100.13832,97.669678 199.66766,54.330859 405.67611,-64.922493 671.83717,28.919823 709.40516,216.91182 c 2.7645,313.35359 6.64852,364.9795 -0.94687,641.31564 3.37546,76.05992 -141.69733,114.16064 -167.20076,3.99235 z M 498.5551,656.28961 c 32.95004,-14.62674 47.29014,-30.03406 46.80858,-66.4698 C 530.18847,554.749 500.33682,543.71043 469.10272,536.34116 284.35466,507.46824 172.58018,464.26509 165.6193,614.22575 c 13.73163,152.36929 170.99675,76.84803 332.9358,42.06386 z"
     id="path3951"
     inkscape:connector-curvature="0"
     sodipodi:nodetypes="cccccccccccccccc" />
</svg>
