<?xml version="1.0" encoding="UTF-8" standalone="no"?>
<!-- Created with Inkscape (http://www.inkscape.org/) -->

<svg
   xmlns:dc="http://purl.org/dc/elements/1.1/"
   xmlns:cc="http://creativecommons.org/ns#"
   xmlns:rdf="http://www.w3.org/1999/02/22-rdf-syntax-ns#"
   xmlns:svg="http://www.w3.org/2000/svg"
   xmlns="http://www.w3.org/2000/svg"
   xmlns:sodipodi="http://sodipodi.sourceforge.net/DTD/sodipodi-0.dtd"
   xmlns:inkscape="http://www.inkscape.org/namespaces/inkscape"
   id="svg3442"
   version="1.1"
   inkscape:version="0.91 r13725"
   width="24.75"
   height="29.4"
   viewBox="0 0 24.75 29.4"
   sodipodi:docname="en_lower_x.svg">
  <metadata
     id="metadata3448">
    <rdf:RDF>
      <cc:Work
         rdf:about="">
        <dc:format>image/svg+xml</dc:format>
        <dc:type
           rdf:resource="http://purl.org/dc/dcmitype/StillImage" />
        <dc:title />
      </cc:Work>
    </rdf:RDF>
  </metadata>
  <defs
     id="defs3446" />
  <sodipodi:namedview
     pagecolor="#ffffff"
     bordercolor="#666666"
     borderopacity="1"
     objecttolerance="10"
     gridtolerance="10"
     guidetolerance="10"
     inkscape:pageopacity="0"
     inkscape:pageshadow="2"
     inkscape:window-width="1670"
     inkscape:window-height="1026"
     id="namedview3444"
     showgrid="false"
     inkscape:zoom="0.50170069"
     inkscape:cx="221.67648"
     inkscape:cy="84.468499"
     inkscape:window-x="156"
     inkscape:window-y="0"
     inkscape:window-maximized="0"
     inkscape:current-layer="svg3442" />
  <path
     style="fill:#000000"
     d="M 218.34387,423.41777 C 138.9073,294.75398 126.13591,278.18795 39.810999,148.57383 29.083159,130.27813 23.173736,145.08417 20.140207,149.97393 -48.603096,256.78048 -93.056626,314.36405 -159.07112,422.56706 -227.47294,525.47057 -356.82479,448.46548 -305.17067,345.86976 -163.33232,144.33864 -173.31736,155.93048 -87.589918,29.327296 -63.606601,0.81864062 -61.051827,-24.013753 -78.640067,-44.440918 -169.15406,-152.82048 -221.46678,-213.12065 -313.12528,-341.53148 c -36.39951,-116.55059 97.4578,-142.128 138.33293,-79.28093 92.205726,103.82585 104.52871,149.21608 184.3866458,235.4647 10.1635782,14.52978 30.1890872,11.82086 37.6907792,-2.61561 60.167575,-90.69444 94.829875,-151.2577 149.268625,-233.57104 79.52209,-89.8153 184.44418,2.85953 135.65376,85.92141 -115.25823,185.30768 -90.42824,135.06178 -189.79243,292.541239 -21.52247,21.68851 -7.70605,47.4687104 6.63407,68.169924 84.3205,122.784027 134.50001,194.277077 212.59081,320.956657 62.80235,108.59209 -94.69509,176.74818 -143.29604,77.3629 z"
     id="path3452"
     inkscape:connector-curvature="0"
     sodipodi:nodetypes="ccccccccccccccccc" />
</svg>
