<?xml version="1.0" encoding="UTF-8" standalone="no"?>
<!-- Created with Inkscape (http://www.inkscape.org/) -->

<svg
   xmlns:dc="http://purl.org/dc/elements/1.1/"
   xmlns:cc="http://creativecommons.org/ns#"
   xmlns:rdf="http://www.w3.org/1999/02/22-rdf-syntax-ns#"
   xmlns:svg="http://www.w3.org/2000/svg"
   xmlns="http://www.w3.org/2000/svg"
   xmlns:sodipodi="http://sodipodi.sourceforge.net/DTD/sodipodi-0.dtd"
   xmlns:inkscape="http://www.inkscape.org/namespaces/inkscape"
   id="svg3442"
   version="1.1"
   inkscape:version="0.91 r13725"
   width="24.75"
   height="29.4"
   viewBox="0 0 24.75 29.4"
   sodipodi:docname="en_lower_x.svg">
  <metadata
     id="metadata3448">
    <rdf:RDF>
      <cc:Work
         rdf:about="">
        <dc:format>image/svg+xml</dc:format>
        <dc:type
           rdf:resource="http://purl.org/dc/dcmitype/StillImage" />
        <dc:title />
      </cc:Work>
    </rdf:RDF>
  </metadata>
  <defs
     id="defs3446" />
  <sodipodi:namedview
     pagecolor="#ffffff"
     bordercolor="#666666"
     borderopacity="1"
     objecttolerance="10"
     gridtolerance="10"
     guidetolerance="10"
     inkscape:pageopacity="0"
     inkscape:pageshadow="2"
     inkscape:window-width="1670"
     inkscape:window-height="1026"
     id="namedview3444"
     showgrid="false"
     inkscape:zoom="0.50170069"
     inkscape:cx="-262.57849"
     inkscape:cy="33.360335"
     inkscape:window-x="156"
     inkscape:window-y="0"
     inkscape:window-maximized="0"
     inkscape:current-layer="svg3442" />
  <path
     style="fill:#000000"
     d="m 239.89391,431.46644 c -38.7677,-65.06023 -63.77165,-91.72228 -105.32678,-135.06865 -3.50205,-3.52043 -7.94681,-12.69351 -9.87706,-20.38427 -3.71734,-14.81119 -25.364507,-35.02925 -37.505259,-35.02925 -3.98198,0 -7.239966,-2.3116 -7.239966,-5.13704 0,-2.82533 3.182076,-3.91593 7.07128,-2.42333 3.939623,1.51184 7.071281,-0.78031 7.071281,-5.17529 0,-4.3388 -1.70135,-7.42474 -3.780766,-6.85752 -5.365723,1.46341 -27.648496,-23.25758 -40.316412,-44.72804 -12.410875,-21.03487 -20.770862,-49.52792 -13.149789,-44.81781 2.81543,1.73989 4.397877,-2.83594 3.574532,-10.33623 C 38.710086,105.97842 32.2137,96.993019 32.2137,110.16558 c 0,4.8615 -2.167347,8.8391 -4.816461,8.8391 -2.649256,0 -11.598668,10.73526 -19.8879771,23.85606 -8.28934416,13.12087 -16.8614334,23.86037 -19.0491109,23.86557 -2.187501,0.005 -3.977595,3.26764 -3.977595,7.24948 0,3.98201 -4.946326,13.52821 -10.991847,21.21384 -6.04552,7.6856 -9.028717,14.05845 -6.629325,14.16183 2.399285,0.10253 -0.850322,3.08662 -7.221616,6.62933 -6.371259,3.54274 -11.769546,8.82792 -11.996216,11.74483 -0.99599,12.81786 -6.795536,23.87406 -12.575381,23.97337 -3.449725,0.0601 -11.740306,12.10487 -18.423833,26.76784 -24.818748,52.37439 -40.034838,64.96652 -93.007078,152.16051 -64.53722,82.92942 -158.89272,-4.75562 -128.46912,-56.10292 57.83573,-107.66341 104.23498,-125.22929 108.99701,-174.3232 0,-3.82163 2.22569,-6.94838 4.94608,-6.94838 2.72032,0 6.42228,-4.65103 8.22648,-10.33566 1.80424,-5.68457 7.76558,-11.75916 13.24744,-13.49904 5.48191,-1.73989 11.50289,-10.15602 13.38003,-18.70252 1.87708,-8.54652 5.35802,-15.00136 7.73531,-14.34409 5.06329,1.39976 47.92695,-60.976607 47.92695,-69.744606 0,-3.278245 2.386559,-5.960594 5.303463,-5.960594 2.916903,0 5.30346,-3.210008 5.30346,-7.133225 0,-3.923288 5.183355,-11.679599 11.518551,-17.236247 6.335231,-5.556683 9.774207,-7.119825 7.642216,-3.473767 -2.188208,3.742334 -1.161105,6.629326 2.358625,6.629326 3.623961,0 5.073425,-4.441896 3.461392,-10.606921 -1.802823,-6.893756 -0.162639,-10.606921 4.684893,-10.606921 4.102262,0 7.458681,-2.527276 7.458681,-5.616471 0,-3.0890887 -2.221796,-4.2433692 -4.936991,-2.565107 -2.715372,1.678015 -6.310058,0.829461 -7.988242,-1.8859104 -1.678015,-2.7153718 2.985848,-6.9493011 10.364227,-9.4087985 13.360089,-4.4533865 13.371191,-4.5097446 2.684612,-13.6597341 -10.25516,-8.780622 -10.730704,-8.720021 -10.730704,1.367232 0,5.8052738 -2.311601,10.5550177 -5.136995,10.5550177 -2.82533,0 -3.65762,-3.8552622 -1.849494,-8.5672097 2.651023,-6.908854 0.957452,-7.827696 -8.749118,-4.746916 -8.861942,2.812602 -11.409052,1.937531 -9.657142,-3.318198 2.22215,-6.666026 -7.226743,-20.4919 -14.004354,-20.4919 -5.75415,0 -23.35177,-20.338665 -20.26682,-23.423617 1.70135,-1.70135 0.33942,-3.093685 -3.02722,-3.093685 -3.36628,0 -12.49672,-10.142868 -20.28944,-22.539707 -7.79273,-12.396841 -18.56219,-25.658251 -23.93212,-29.469771 -5.36989,-3.81153 -9.76349,-10.20407 -9.76349,-14.20568 0,-4.0016 -3.06964,-10.42932 -6.82156,-14.28381 -3.75184,-3.85448 -13.89471,-16.39988 -22.53971,-27.87873 -8.64496,-11.47884 -22.93418,-28.18474 -31.75383,-37.12422 -8.81962,-8.93948 -19.36576,-22.81665 -23.43589,-30.83813 -4.07008,-8.02149 -9.21299,-14.58452 -11.42864,-14.58452 -8.67822,0 -20.6965,-17.33991 -20.6965,-29.86085 0,-7.25605 -2.2218,-11.81977 -4.93699,-10.14159 -2.71538,1.67819 -6.6911,0.2132 -8.83504,-3.2559 4.00086,-24.90138 -19.8653,-43.34321 -30.65149,-69.17554 -25.15142,-69.99925 64.85104,-94.25062 94.41709,-42.03463 6.90421,8.98519 15.80745,19.92378 20.84807,30.49407 5.04062,10.5703 10.55202,17.83146 12.24757,16.13591 1.69569,-1.69555 7.75938,2.18545 13.47524,8.62446 8.37929,9.43938 9.80454,9.85601 7.35756,2.15076 -1.77524,-5.58958 -0.85845,-8.2115 2.20766,-6.31633 2.88367,1.7821 5.24272,6.75406 5.24272,11.04882 0,4.29475 3.57983,9.18236 7.95519,10.86134 4.37535,1.67897 7.95519,5.98569 7.95519,9.57047 0,7.53905 40.63143,45.382 48.726,45.382 2.98868,0 10.12696,5.9664 15.86304,13.25866 5.736116,7.29225 12.856719,13.25865 15.823581,13.25865 6.5584,0 25.234883,21.6525 25.48015,29.54027 0.30053,9.62563 36.377426,48.53309 47.765193,51.51106 5.9201822,1.54825 9.4265121,0.65091 7.7918795,-1.9941 -1.6345265,-2.64502 -0.7000568,-4.80886 2.0768351,-4.80886 8.3305344,0 11.5230761,15.12582 6.1663689,29.2151 -5.4430476,14.31625 -1.02180005,17.13076 10.3417835,6.58327 4.315143,-4.00529 5.796647,-4.22528 3.742864,-0.5558 -1.869647,3.34047 0.36205,7.51698 4.959195,9.28106 15.310384,5.87524 23.401343,3.31678 23.401343,-7.39939 0,-5.83383 2.527276,-10.60694 5.616471,-10.60694 3.089089,0 4.243369,-2.2218 2.565107,-4.93699 -1.678369,-2.71537 -0.625809,-6.43603 2.338826,-8.2682 2.964634,-1.83217 5.389977,-8.56842 5.389977,-14.96948 0,-17.58557 43.007316,-82.856 57.012196,-86.5251 6.56304,-1.71941 11.93279,-6.69226 11.93279,-11.05072 40.19725,-55.28283 36.37577,-77.05157 88.65155,-131.62754 62.79903,-74.90686 150.6519,-8.90888 103.50388,67.15623 -15.56395,22.73045 -19.26516,23.2361 -24.71521,40.47606 -2.0885,6.60538 -5.84664,10.74293 -8.352,9.19454 -4.29134,-2.65219 -12.98467,6.59975 -13.16209,14.00781 -0.0424,1.86527 -6.64421,13.41559 -14.66569,25.66739 -8.02128,12.2518 -14.58431,24.44838 -14.58431,27.10351 0,2.65512 -2.38656,4.8275 -5.30346,4.8275 -2.9169,0 -5.30346,4.19904 -5.30346,9.33119 0,5.13216 -4.95456,12.42534 -11.01005,16.2071 -8.08969,5.05207 -9.5299,8.65942 -5.42969,13.59987 7.06372,8.51117 -2.7235,19.65395 -13.59765,15.48112 -5.68767,-2.18255 -6.90107,0.58409 -4.95728,11.30298 1.68862,9.31228 -0.046,15.19903 -5.05095,17.11874 -4.19351,1.60907 -6.60249,4.57961 -5.35327,6.60094 1.24914,2.02132 0.0778,7.14097 -2.60117,11.37705 -3.82292,6.04315 -4.88976,5.1887 -4.95351,-3.9673 -0.0424,-6.41808 4.09526,-14.1018 9.19984,-17.07496 10.33624,-6.02032 6.7448,-7.47482 -6.19553,-2.50924 -4.61398,1.77065 -8.38898,8.1347 -8.38898,14.14256 0,6.0079 -1.34072,9.58286 -2.97913,7.94437 -3.96452,-3.96469 -28.84146,19.33306 -28.84146,27.010953 0,3.31148 -2.38655,6.02116 -5.30346,6.02116 -2.9169,0 -5.30346,5.489081 -5.30346,12.197959 0,6.708877 -2.70795,14.906012 -6.01791,18.215831 -4.48814,4.488177 -3.78946,11.587107 2.74861,27.927563 4.82155,12.050347 7.37747,24.157298 5.67972,26.9042787 -4.09893,6.6324016 10.47773,20.8235783 21.38932,20.8235783 4.75583,0 7.17205,2.386557 5.36929,5.30346 -1.80282,2.916903 -0.60954,5.303461 2.65173,5.303461 3.26128,0 4.35521,2.547075 2.43111,5.660418 -1.92445,3.113839 1.48709,6.964151 7.58257,8.558159 6.09445,1.593867 9.63292,5.240491 7.86323,8.1039 -6.93657,11.223643 23.19026,51.92597 38.43432,51.92597 8.09637,0 17.47105,15.890549 14.39221,24.395419 -1.16146,3.20824 1.54755,8.87036 6.02014,12.58222 4.47244,3.71182 8.13179,11.03081 8.13179,16.26437 0,5.23356 1.7901,10.31109 3.9776,11.28343 4.71043,2.09345 27.84317,34.42773 27.84317,38.91835 30.49598,64.74609 53.31875,123.20896 81.18933,167.60768 42.39735,88.54047 -83.62997,130.35387 -122.77145,62.62417 z m -426.20222,-763.0147 c -3.56043,-5.70115 -7.50058,-9.33866 -8.75591,-8.08336 -2.27306,2.27303 9.28495,18.44909 13.18211,18.44909 1.1261,0 -0.86588,-4.66458 -4.4262,-10.36573 z"
     id="path3452"
     inkscape:connector-curvature="0"
     sodipodi:nodetypes="ccssscscscsssscsscsscccccsssscsssscscssccsssscscssssssssssssccccscsccsssssscccsssssssssssccccscssssssssccccscssssscscscsscsscsscccccssc" />
</svg>
