<?xml version="1.0" encoding="UTF-8" standalone="no"?>
<!-- Created with Inkscape (http://www.inkscape.org/) -->

<svg
   xmlns:dc="http://purl.org/dc/elements/1.1/"
   xmlns:cc="http://creativecommons.org/ns#"
   xmlns:rdf="http://www.w3.org/1999/02/22-rdf-syntax-ns#"
   xmlns:svg="http://www.w3.org/2000/svg"
   xmlns="http://www.w3.org/2000/svg"
   xmlns:sodipodi="http://sodipodi.sourceforge.net/DTD/sodipodi-0.dtd"
   xmlns:inkscape="http://www.inkscape.org/namespaces/inkscape"
   id="svg4027"
   version="1.1"
   inkscape:version="0.91 r13725"
   width="687.08221"
   height="1162.5"
   viewBox="0 0 687.08221 1162.5"
   sodipodi:docname="en_lower_k.svg">
  <metadata
     id="metadata4033">
    <rdf:RDF>
      <cc:Work
         rdf:about="">
        <dc:format>image/svg+xml</dc:format>
        <dc:type
           rdf:resource="http://purl.org/dc/dcmitype/StillImage" />
        <dc:title></dc:title>
      </cc:Work>
    </rdf:RDF>
  </metadata>
  <defs
     id="defs4031" />
  <sodipodi:namedview
     pagecolor="#ffffff"
     bordercolor="#666666"
     borderopacity="1"
     objecttolerance="10"
     gridtolerance="10"
     guidetolerance="10"
     inkscape:pageopacity="0"
     inkscape:pageshadow="2"
     inkscape:window-width="1303"
     inkscape:window-height="1038"
     id="namedview4029"
     showgrid="false"
     inkscape:zoom="0.52279823"
     inkscape:cx="592.88868"
     inkscape:cy="586.83933"
     inkscape:window-x="494"
     inkscape:window-y="28"
     inkscape:window-maximized="0"
     inkscape:current-layer="svg4027"
     fit-margin-top="0"
     fit-margin-left="0"
     fit-margin-right="0"
     fit-margin-bottom="0" />
  <path
     style="fill:#000000"
     d="m 170.66649,793.35375 c -13.45057,-10.90634 -28.37265,-12.93373 -27.0932,10.83351 0.60037,110.86693 1.26805,192.74742 2.84614,288.39194 -3.25178,97.9591 -137.9180169,88.429 -143.9568639,-0.1757 C -2.7418729,921.2141 3.1059851,784.65574 1.9595251,651.83192 2.1335111,442.24714 -2.1159549,295.3364 1.3919931,82.087402 0.04045109,-6.749193 130.57893,-45.778873 144.46842,81.003723 c -0.91762,370.180507 1.3849,279.672777 1.55001,549.655347 -2.03958,18.579 2.60036,30.22023 10.79229,27.07675 8.6719,-5.96115 2.56476,-4.56045 15.39877,-13.07129 114.37596,-108.60509 266.19684,-252.12298 327.57424,-305.84495 92.94372,-70.48967 164.45843,24.99691 105.65486,89.89105 -98.24619,103.9423 -237.89798,213.69628 -298.10368,281.9063 -7.80561,6.19598 -10.38002,9.01679 -5.75839,12.41273 126.86579,106.70689 216.46877,189.91112 340.52488,292.97814 98.84627,84.012 17.76453,193.8732 -79.63647,122.8806 C 387.86559,979.15079 245.92663,854.51642 170.66649,793.35375 Z"
     id="path4037"
     inkscape:connector-curvature="0"
     sodipodi:nodetypes="ccccccccccccccccc" />
</svg>
