<?xml version="1.0" encoding="UTF-8" standalone="no"?>
<!-- Created with Inkscape (http://www.inkscape.org/) -->

<svg
   xmlns:dc="http://purl.org/dc/elements/1.1/"
   xmlns:cc="http://creativecommons.org/ns#"
   xmlns:rdf="http://www.w3.org/1999/02/22-rdf-syntax-ns#"
   xmlns:svg="http://www.w3.org/2000/svg"
   xmlns="http://www.w3.org/2000/svg"
   xmlns:sodipodi="http://sodipodi.sourceforge.net/DTD/sodipodi-0.dtd"
   xmlns:inkscape="http://www.inkscape.org/namespaces/inkscape"
   id="svg4610"
   version="1.1"
   inkscape:version="0.91 r13725"
   width="396.34998"
   height="927.83099"
   viewBox="0 0 396.34997 927.83101"
   sodipodi:docname="en_lower_t.svg">
  <metadata
     id="metadata4616">
    <rdf:RDF>
      <cc:Work
         rdf:about="">
        <dc:format>image/svg+xml</dc:format>
        <dc:type
           rdf:resource="http://purl.org/dc/dcmitype/StillImage" />
        <dc:title></dc:title>
      </cc:Work>
    </rdf:RDF>
  </metadata>
  <defs
     id="defs4614" />
  <sodipodi:namedview
     pagecolor="#ffffff"
     bordercolor="#666666"
     borderopacity="1"
     objecttolerance="10"
     gridtolerance="10"
     guidetolerance="10"
     inkscape:pageopacity="0"
     inkscape:pageshadow="2"
     inkscape:window-width="1597"
     inkscape:window-height="1036"
     id="namedview4612"
     showgrid="false"
     inkscape:zoom="0.61532888"
     inkscape:cx="39.602712"
     inkscape:cy="547.48066"
     inkscape:window-x="151"
     inkscape:window-y="0"
     inkscape:window-maximized="0"
     inkscape:current-layer="svg4610"
     fit-margin-top="0"
     fit-margin-left="0"
     fit-margin-right="0"
     fit-margin-bottom="0" />
  <path
     style="fill:#000000"
     d="M 90.397456,715.66022 C 85.908152,550.3796 88.62196,525.08598 85.026793,387.6913 c 0.749385,-87.43983 1.460591,-60.13578 1.131443,-95.99932 -17.795195,0.42078 -6.644723,0.93783 -27.556311,1.94439 C -29.285371,276.96281 -5.693602,169.31546 51.762916,169.50732 71.570812,168.15746 62.662303,168.82446 83.140513,166.24804 85.385214,124.86233 79.921288,89.11251 81.377421,57.886231 99.20444,-37.064146 199.50273,-1.8587538 201.90448,59.359616 c 1.74876,54.398504 2.69605,71.976244 2.82688,108.796304 96.8218,1.73688 73.19592,-2.31124 129.90896,-2.38319 83.90882,1.73017 80.08084,121.83991 5.68477,123.99089 -56.25905,-0.72815 -67.20078,0.21471 -132.56334,0.93474 -0.91565,54.8588 0.19686,56.50842 -0.31545,121.27001 4.41586,114.89015 5.26955,242.32564 6.73248,302.25774 11.13082,94.62095 24.36389,99.28062 135.01851,89.06669 50.19267,11.29289 29.25659,74.7182 7.31975,87.41572 -95.80834,72.91013 -256.29389,49.75267 -266.119584,-175.0483 z"
     id="path4620"
     inkscape:connector-curvature="0"
     sodipodi:nodetypes="ccccccccccccccccc" />
</svg>
