<?xml version="1.0" encoding="UTF-8" standalone="no"?>
<!-- Created with Inkscape (http://www.inkscape.org/) -->

<svg
   xmlns:dc="http://purl.org/dc/elements/1.1/"
   xmlns:cc="http://creativecommons.org/ns#"
   xmlns:rdf="http://www.w3.org/1999/02/22-rdf-syntax-ns#"
   xmlns:svg="http://www.w3.org/2000/svg"
   xmlns="http://www.w3.org/2000/svg"
   xmlns:sodipodi="http://sodipodi.sourceforge.net/DTD/sodipodi-0.dtd"
   xmlns:inkscape="http://www.inkscape.org/namespaces/inkscape"
   id="svg3941"
   version="1.1"
   inkscape:version="0.91 r13725"
   width="703.97705"
   height="929.99994"
   viewBox="0 0 703.97705 929.99994"
   sodipodi:docname="en_lower_a.svg">
  <metadata
     id="metadata3947">
    <rdf:RDF>
      <cc:Work
         rdf:about="">
        <dc:format>image/svg+xml</dc:format>
        <dc:type
           rdf:resource="http://purl.org/dc/dcmitype/StillImage" />
        <dc:title></dc:title>
      </cc:Work>
    </rdf:RDF>
  </metadata>
  <defs
     id="defs3945" />
  <sodipodi:namedview
     pagecolor="#ffffff"
     bordercolor="#666666"
     borderopacity="1"
     objecttolerance="10"
     gridtolerance="10"
     guidetolerance="10"
     inkscape:pageopacity="0"
     inkscape:pageshadow="2"
     inkscape:window-width="1671"
     inkscape:window-height="1017"
     id="namedview3943"
     showgrid="false"
     fit-margin-top="0"
     fit-margin-left="0"
     fit-margin-right="0"
     fit-margin-bottom="0"
     inkscape:zoom="1.3244222"
     inkscape:cx="302.24598"
     inkscape:cy="252.79169"
     inkscape:window-x="138"
     inkscape:window-y="0"
     inkscape:window-maximized="0"
     inkscape:current-layer="svg3941" />
  <path
     style="fill:#000000"
     d="m 616.78286,926.21372 c -5.25909,-2.98643 -7.89752,-8.12296 -5.86321,-11.41458 2.34357,-3.79211 0.61082,-4.79987 -4.7293,-2.75066 -12.55706,4.81867 -15.95933,-21.8125 -4.93971,-38.66592 5.0897,-7.78433 6.00892,-11.82729 2.14812,-9.44797 -5.99495,3.69457 -7.80426,0.60938 -6.28776,-10.72202 0.60758,-4.54 -12.264,-12.56426 -20.32213,-12.66896 -3.4997,-0.0432 -9.57377,2.99722 -13.49777,6.76184 C 357.00718,880.50388 293.50493,838.6082 136.94447,836.81109 76.726083,821.2463 54.0452,815.86688 37.901631,802.71645 21.274051,782.87161 -22.617724,605.67647 15.750071,531.40701 c 6.70713,-12.64522 13.86062,-29.67274 15.89666,-37.839 3.4889,-13.99394 78.714629,-92.33491 90.078849,-93.80926 185.03872,-24.28544 205.04389,-70.431 372.36205,-58.20855 37.04687,18.04469 49.60926,-24.78482 40.96881,-19.99004 C 539.491,288.89097 514.98066,189.40429 502.41389,176.95449 380.70911,167.04574 232.94226,179.67395 133.29298,186.6446 -14.779797,152.92573 55.747145,6.0597447 141.40435,14.223434 355.96164,13.770317 444.53341,33.628589 556.13073,37.95605 c 56.21591,14.24892 75.84329,-5.855696 106.93202,56.07808 68.15391,137.5715 22.42451,452.55585 21.36883,545.8495 5.34591,6.60624 5.33641,7.46164 -0.0504,4.22747 -4.58242,111.85574 -20.73061,206.08983 -6.74773,215.24645 4.25752,2.63116 4.1617,5.7837 -0.34194,11.20876 -3.44535,4.15134 -4.8322,13.2534 -3.08181,20.22678 2.95475,11.77304 -11.5326,35.31531 -22.4334,36.45452 -2.11141,0.21956 -8.69818,1.3001 -14.6372,2.39828 -5.93901,1.09854 -15.10108,-0.44596 -20.36021,-3.43275 z M 566.07118,688.6519 c 24.24849,-54.73802 -1.4704,-184.26302 -9.85241,-197.09805 -11.65193,-41.83432 -21.58222,-33.53496 -62.64013,-27.07802 -87.95807,26.41783 -189.34405,71.48249 -282.82064,73.63557 -9.3889,0 -58.77259,22.61546 -61.23321,28.04199 -0.93441,2.0603 -4.87252,2.52822 -8.7517,1.03951 -21.98209,3.21284 -3.75422,13.36818 -3.94142,28.95901 -0.25196,8.16615 1.10249,20.92154 3.01198,28.34531 1.90948,7.42378 4.44569,22.95046 5.63623,34.50368 7.63993,49.7784 18.66143,48.14427 70.29485,56.02461 104.43214,30.73686 275.74845,21.31678 350.29645,-26.37361 z"
     id="path3951"
     inkscape:connector-curvature="0"
     sodipodi:nodetypes="cssssscccccsccccccccccccccccccccccccsccc" />
</svg>
