<?xml version="1.0" encoding="UTF-8" standalone="no"?>
<!-- Created with Inkscape (http://www.inkscape.org/) -->

<svg
   xmlns:dc="http://purl.org/dc/elements/1.1/"
   xmlns:cc="http://creativecommons.org/ns#"
   xmlns:rdf="http://www.w3.org/1999/02/22-rdf-syntax-ns#"
   xmlns:svg="http://www.w3.org/2000/svg"
   xmlns="http://www.w3.org/2000/svg"
   xmlns:sodipodi="http://sodipodi.sourceforge.net/DTD/sodipodi-0.dtd"
   xmlns:inkscape="http://www.inkscape.org/namespaces/inkscape"
   id="svg3477"
   version="1.1"
   inkscape:version="0.91 r13725"
   width="566.44287"
   height="930"
   viewBox="0 0 566.44287 929.99999"
   sodipodi:docname="en_lower_y.svg">
  <metadata
     id="metadata3483">
    <rdf:RDF>
      <cc:Work
         rdf:about="">
        <dc:format>image/svg+xml</dc:format>
        <dc:type
           rdf:resource="http://purl.org/dc/dcmitype/StillImage" />
        <dc:title></dc:title>
      </cc:Work>
    </rdf:RDF>
  </metadata>
  <defs
     id="defs3481" />
  <sodipodi:namedview
     pagecolor="#ffffff"
     bordercolor="#666666"
     borderopacity="1"
     objecttolerance="10"
     gridtolerance="10"
     guidetolerance="10"
     inkscape:pageopacity="0"
     inkscape:pageshadow="2"
     inkscape:window-width="1659"
     inkscape:window-height="971"
     id="namedview3479"
     showgrid="false"
     inkscape:zoom="0.35244924"
     inkscape:cx="-303.32287"
     inkscape:cy="513.94164"
     inkscape:window-x="149"
     inkscape:window-y="0"
     inkscape:window-maximized="0"
     inkscape:current-layer="svg3477"
     fit-margin-top="0"
     fit-margin-left="0"
     fit-margin-right="0"
     fit-margin-bottom="0" />
  <path
     style="fill:#000000"
     d="M 88.387538,929.96952 C -1.316822,923.05448 8.970158,824.02036 86.443558,825.07941 153.321,823.38674 180.50593,767.97793 216.35721,703.26237 243.94744,647.46287 283.97979,572.88886 247.19496,522.86749 128.37216,294.03615 105.44834,274.38453 2.011858,65.766923 -14.994742,-5.0223268 80.780008,-21.617017 102.82987,30.460303 206.88239,231.37493 234.06985,263.15868 304.6743,407.12543 c 4.00981,12.84184 20.08803,16.8266 24.75524,5.29907 85.24631,-236.80933 68.32937,-195.28056 134.26084,-371.423367 31.7833,-70.84596 120.09705,-42.4531198 99.7396,31.71193 C 445.93512,428.18304 438.94277,414.44966 348.67778,657.68037 312.83897,739.57708 305.72887,792.1548 241.82221,864.41266 217.88575,889.62341 161.5488,931.2864 88.387538,929.96952 Z"
     id="path3487"
     inkscape:connector-curvature="0"
     sodipodi:nodetypes="ccccccccccccc" />
</svg>
