<?xml version="1.0" encoding="UTF-8" standalone="no"?>
<!-- Created with Inkscape (http://www.inkscape.org/) -->

<svg
   xmlns:dc="http://purl.org/dc/elements/1.1/"
   xmlns:cc="http://creativecommons.org/ns#"
   xmlns:rdf="http://www.w3.org/1999/02/22-rdf-syntax-ns#"
   xmlns:svg="http://www.w3.org/2000/svg"
   xmlns="http://www.w3.org/2000/svg"
   xmlns:sodipodi="http://sodipodi.sourceforge.net/DTD/sodipodi-0.dtd"
   xmlns:inkscape="http://www.inkscape.org/namespaces/inkscape"
   id="svg4372"
   version="1.1"
   inkscape:version="0.91 r13725"
   width="552.69073"
   height="930"
   viewBox="0 0 552.69074 929.99999"
   sodipodi:docname="en_lower_s.svg">
  <metadata
     id="metadata4378">
    <rdf:RDF>
      <cc:Work
         rdf:about="">
        <dc:format>image/svg+xml</dc:format>
        <dc:type
           rdf:resource="http://purl.org/dc/dcmitype/StillImage" />
        <dc:title></dc:title>
      </cc:Work>
    </rdf:RDF>
  </metadata>
  <defs
     id="defs4376" />
  <sodipodi:namedview
     pagecolor="#ffffff"
     bordercolor="#666666"
     borderopacity="1"
     objecttolerance="10"
     gridtolerance="10"
     guidetolerance="10"
     inkscape:pageopacity="0"
     inkscape:pageshadow="2"
     inkscape:window-width="1663"
     inkscape:window-height="1027"
     id="namedview4374"
     showgrid="false"
     fit-margin-top="0"
     fit-margin-left="0"
     fit-margin-right="0"
     fit-margin-bottom="0"
     inkscape:zoom="0.50687285"
     inkscape:cx="550.37407"
     inkscape:cy="530.13536"
     inkscape:window-x="168"
     inkscape:window-y="0"
     inkscape:window-maximized="0"
     inkscape:current-layer="svg4372" />
  <path
     style="fill:#000000"
     d="M 196.32845,930 C 176.50767,929.55021 107.49948,919.77198 80.004717,919.08745 -20.332163,917.40592 -7.8159129,758.16667 79.077867,760.48334 109.49733,763.99352 182.939,770.25203 204.77442,775.13163 374.05691,774.82117 450.4042,672.29602 340.83992,575.18435 289.37951,538.1021 200.45927,511.44323 161.86979,482.77276 -212.9979,222.97822 152.85104,-41.39757 360.32736,5.4268445 408.86059,11.355921 457.39636,25.062017 512.40575,45.944803 590.48546,83.244775 542.97619,215.99899 472.34033,189.18741 429.87054,178.58237 384.24639,168.09756 348.10653,159.31948 190.70669,107.03598 48.959997,252.56682 232.32073,345.85901 359.4065,406.08951 394.02431,432.56941 425.10729,449.16577 614.90838,562.18076 599.01373,924.1666 196.32845,930 Z"
     id="path4382"
     inkscape:connector-curvature="0"
     sodipodi:nodetypes="ccccccccccccc" />
</svg>
