<?xml version="1.0" encoding="UTF-8" standalone="no"?>
<!-- Created with Inkscape (http://www.inkscape.org/) -->

<svg
   xmlns:dc="http://purl.org/dc/elements/1.1/"
   xmlns:cc="http://creativecommons.org/ns#"
   xmlns:rdf="http://www.w3.org/1999/02/22-rdf-syntax-ns#"
   xmlns:svg="http://www.w3.org/2000/svg"
   xmlns="http://www.w3.org/2000/svg"
   xmlns:sodipodi="http://sodipodi.sourceforge.net/DTD/sodipodi-0.dtd"
   xmlns:inkscape="http://www.inkscape.org/namespaces/inkscape"
   id="svg3849"
   version="1.1"
   inkscape:version="0.91 r13725"
   width="670.31958"
   height="930"
   viewBox="0 0 670.31958 930"
   sodipodi:docname="en_lower_n.svg">
  <metadata
     id="metadata3855">
    <rdf:RDF>
      <cc:Work
         rdf:about="">
        <dc:format>image/svg+xml</dc:format>
        <dc:type
           rdf:resource="http://purl.org/dc/dcmitype/StillImage" />
        <dc:title></dc:title>
      </cc:Work>
    </rdf:RDF>
  </metadata>
  <defs
     id="defs3853" />
  <sodipodi:namedview
     pagecolor="#ffffff"
     bordercolor="#666666"
     borderopacity="1"
     objecttolerance="10"
     gridtolerance="10"
     guidetolerance="10"
     inkscape:pageopacity="0"
     inkscape:pageshadow="2"
     inkscape:window-width="1712"
     inkscape:window-height="981"
     id="namedview3851"
     showgrid="false"
     fit-margin-top="0"
     fit-margin-left="0"
     fit-margin-right="0"
     fit-margin-bottom="0"
     inkscape:zoom="0.52304963"
     inkscape:cx="855.72531"
     inkscape:cy="405.27705"
     inkscape:window-x="107"
     inkscape:window-y="0"
     inkscape:window-maximized="0"
     inkscape:current-layer="svg3849" />
  <path
     style="fill:#000000"
     d="M 515.47464,861.76329 C 512.60634,635.09606 514.9389,749.68447 511.52095,459.73848 530.62493,140.06199 225.97839,140.43012 165.07775,290.73499 149.6235,398.91021 155.40569,779.4184 153.69755,866.06294 155.28244,933.87405 21.694909,966.5679 3.9856428,867.48103 -6.7807007,560.85258 7.3686132,328.3542 1.5735798,69.479648 -4.4856597,-10.862486 134.90204,-35.612565 144.44119,70.044116 c 3.6379,14.538601 2.83635,15.464641 6.67644,20.545956 74.63796,-65.224694 543.03022,-137.51513 519.58397,373.169668 0.0719,164.69371 1.3154,231.89343 0.82518,394.21392 9.04926,75.84982 -133.49,106.35791 -156.05214,3.78963 z"
     id="path3859"
     inkscape:connector-curvature="0"
     sodipodi:nodetypes="ccccccccccc" />
</svg>
