<?xml version="1.0" encoding="UTF-8" standalone="no"?>
<!-- Created with Inkscape (http://www.inkscape.org/) -->

<svg
   xmlns:dc="http://purl.org/dc/elements/1.1/"
   xmlns:cc="http://creativecommons.org/ns#"
   xmlns:rdf="http://www.w3.org/1999/02/22-rdf-syntax-ns#"
   xmlns:svg="http://www.w3.org/2000/svg"
   xmlns="http://www.w3.org/2000/svg"
   xmlns:sodipodi="http://sodipodi.sourceforge.net/DTD/sodipodi-0.dtd"
   xmlns:inkscape="http://www.inkscape.org/namespaces/inkscape"
   id="svg3909"
   version="1.1"
   inkscape:version="0.91 r13725"
   width="565.22473"
   height="929.99902"
   viewBox="0 0 565.22473 929.99902"
   sodipodi:docname="en_lower_q.svg">
  <metadata
     id="metadata3915">
    <rdf:RDF>
      <cc:Work
         rdf:about="">
        <dc:format>image/svg+xml</dc:format>
        <dc:type
           rdf:resource="http://purl.org/dc/dcmitype/StillImage" />
        <dc:title></dc:title>
      </cc:Work>
    </rdf:RDF>
  </metadata>
  <defs
     id="defs3913" />
  <sodipodi:namedview
     pagecolor="#ffffff"
     bordercolor="#666666"
     borderopacity="1"
     objecttolerance="10"
     gridtolerance="10"
     guidetolerance="10"
     inkscape:pageopacity="0"
     inkscape:pageshadow="2"
     inkscape:window-width="1660"
     inkscape:window-height="1032"
     id="namedview3911"
     showgrid="false"
     fit-margin-top="0"
     fit-margin-left="0"
     fit-margin-right="0"
     fit-margin-bottom="0"
     inkscape:zoom="0.36151962"
     inkscape:cx="-342.49019"
     inkscape:cy="776.64548"
     inkscape:window-x="180"
     inkscape:window-y="0"
     inkscape:window-maximized="0"
     inkscape:current-layer="svg3909" />
  <path
     style="fill:#000000"
     d="m 455.2739,891.09993 c -0.7847,-104.72561 5.23603,-210.17685 6.77155,-320.02351 0.10719,-3.92194 -0.35635,-3.53977 -5.92708,2.67488 -564.62358,328.14237 -586.79533,-801.12465 27.72373,-505.955873 11.0699,0.48458 7.86518,-5.106279 7.42173,-9.457352 -1.18108,-13.429465 -1.02114,-20.755885 -1.53721,-29.130109 2.51186,-38.3799796 64.95466,-37.1767693 66.73922,0.527436 2.54239,19.291587 -1.05082,50.264829 1.95928,72.638898 0.88303,272.87537 1.81899,481.33505 -1.25613,787.33039 -6.87635,60.28461 -99.14518,46.91978 -101.89509,1.39524 z m 2.8894,-436.85158 c 0.0371,-84.17522 7.85691,-173.423 3.23565,-272.24787 -399.880412,-319.61222 -474.789203,614.3902 -3.23565,272.24787 z"
     id="path3919"
     inkscape:connector-curvature="0"
     sodipodi:nodetypes="ccccccccccccc" />
</svg>
