<?xml version="1.0" encoding="UTF-8" standalone="no"?>
<!-- Created with Inkscape (http://www.inkscape.org/) -->

<svg
   xmlns:dc="http://purl.org/dc/elements/1.1/"
   xmlns:cc="http://creativecommons.org/ns#"
   xmlns:rdf="http://www.w3.org/1999/02/22-rdf-syntax-ns#"
   xmlns:svg="http://www.w3.org/2000/svg"
   xmlns="http://www.w3.org/2000/svg"
   xmlns:sodipodi="http://sodipodi.sourceforge.net/DTD/sodipodi-0.dtd"
   xmlns:inkscape="http://www.inkscape.org/namespaces/inkscape"
   id="svg4830"
   version="1.1"
   inkscape:version="0.91 r13725"
   width="757.00671"
   height="930"
   viewBox="0 0 757.0067 930.00001"
   sodipodi:docname="en_lower_u.svg">
  <metadata
     id="metadata4836">
    <rdf:RDF>
      <cc:Work
         rdf:about="">
        <dc:format>image/svg+xml</dc:format>
        <dc:type
           rdf:resource="http://purl.org/dc/dcmitype/StillImage" />
        <dc:title></dc:title>
      </cc:Work>
    </rdf:RDF>
  </metadata>
  <defs
     id="defs4834" />
  <sodipodi:namedview
     pagecolor="#ffffff"
     bordercolor="#666666"
     borderopacity="1"
     objecttolerance="10"
     gridtolerance="10"
     guidetolerance="10"
     inkscape:pageopacity="0"
     inkscape:pageshadow="2"
     inkscape:window-width="1589"
     inkscape:window-height="1041"
     id="namedview4832"
     showgrid="false"
     fit-margin-top="0"
     fit-margin-left="0"
     fit-margin-right="0"
     fit-margin-bottom="0"
     inkscape:zoom="0.52304963"
     inkscape:cx="795.32535"
     inkscape:cy="506.98115"
     inkscape:window-x="225"
     inkscape:window-y="0"
     inkscape:window-maximized="0"
     inkscape:current-layer="svg4830" />
  <path
     style="fill:#000000"
     d="m 589.56856,860.05471 c 0.35041,-17.43003 4.27384,-49.76393 -1.02979,-73.13393 C 379.76663,1028.9523 -1.0379625,952.18848 6.8602124,597.86941 9.0428709,347.72522 8.006983,322.30635 10.208885,82.847695 29.122914,-42.047222 176.73205,-11.919509 174.26549,79.940766 c 1.4234,305.199124 1.48849,193.074854 2.82624,501.168624 -11.99399,125.85107 128.07013,323.84898 399.04517,-14.05355 7.4489,-223.48569 9.49282,-113.59671 6.37851,-499.519027 -2.50744,-74.6449226 153.42329,-102.055464 165.49685,-1.118289 0.19844,271.771426 -0.26887,535.824306 -3.05119,796.936116 2.67344,80.80692 -145.03304,93.29599 -155.39251,-3.29993 z"
     id="path4840"
     inkscape:connector-curvature="0"
     sodipodi:nodetypes="ccccccccccc" />
</svg>
