<?xml version="1.0" encoding="UTF-8" standalone="no"?>
<!-- Created with Inkscape (http://www.inkscape.org/) -->

<svg
   xmlns:dc="http://purl.org/dc/elements/1.1/"
   xmlns:cc="http://creativecommons.org/ns#"
   xmlns:rdf="http://www.w3.org/1999/02/22-rdf-syntax-ns#"
   xmlns:svg="http://www.w3.org/2000/svg"
   xmlns="http://www.w3.org/2000/svg"
   xmlns:sodipodi="http://sodipodi.sourceforge.net/DTD/sodipodi-0.dtd"
   xmlns:inkscape="http://www.inkscape.org/namespaces/inkscape"
   id="svg4377"
   version="1.1"
   inkscape:version="0.91 r13725"
   width="573.29602"
   height="930"
   viewBox="0 0 573.29602 930.00001"
   sodipodi:docname="en_lower_d.svg">
  <metadata
     id="metadata4383">
    <rdf:RDF>
      <cc:Work
         rdf:about="">
        <dc:format>image/svg+xml</dc:format>
        <dc:type
           rdf:resource="http://purl.org/dc/dcmitype/StillImage" />
        <dc:title />
      </cc:Work>
    </rdf:RDF>
  </metadata>
  <defs
     id="defs4381" />
  <sodipodi:namedview
     pagecolor="#ffffff"
     bordercolor="#666666"
     borderopacity="1"
     objecttolerance="10"
     gridtolerance="10"
     guidetolerance="10"
     inkscape:pageopacity="0"
     inkscape:pageshadow="2"
     inkscape:window-width="1573"
     inkscape:window-height="997"
     id="namedview4379"
     showgrid="false"
     fit-margin-top="0"
     fit-margin-left="0"
     fit-margin-right="0"
     fit-margin-bottom="0"
     inkscape:zoom="0.51315251"
     inkscape:cx="-116.67478"
     inkscape:cy="563.00229"
     inkscape:window-x="34"
     inkscape:window-y="95"
     inkscape:window-maximized="0"
     inkscape:current-layer="svg4377" />
  <path
     style="fill:#000000"
     d="m 470.26426,897.33419 c 1.22578,-24.26496 -3.679,-32.57892 -1.27907,-53.95727 C 345.26016,908.97128 32.954867,985.14417 2.6931751e-5,604.52711 -0.11881557,233.09346 393.11334,273.44859 459.82526,341.36554 c 3.70434,-44.28987 -4.38231,-221.8363 0.36996,-286.949062 1.90573,-69.680116 110.09064,-73.971007 113.10078,-4.008724 -1.68087,191.583926 3.52538,471.950726 -1.19282,704.137886 0.84667,45.54971 1.73298,100.19994 -0.67765,139.10274 0.81326,47.62561 -99.25513,51.9685 -101.16127,3.68581 z m 1.24463,-170.06522 C 473.9961,607.85921 472.35931,627.24919 471.76514,468.07189 349.53454,326.52445 76.559206,411.8482 92.292165,603.33186 78.100812,798.35472 326.72203,888.7009 471.50889,727.26897 Z"
     id="path4387"
     inkscape:connector-curvature="0"
     sodipodi:nodetypes="ccccccccccccc" />
</svg>
