<?xml version="1.0" encoding="UTF-8" standalone="no"?>
<!-- Created with Inkscape (http://www.inkscape.org/) -->

<svg
   xmlns:dc="http://purl.org/dc/elements/1.1/"
   xmlns:cc="http://creativecommons.org/ns#"
   xmlns:rdf="http://www.w3.org/1999/02/22-rdf-syntax-ns#"
   xmlns:svg="http://www.w3.org/2000/svg"
   xmlns="http://www.w3.org/2000/svg"
   xmlns:sodipodi="http://sodipodi.sourceforge.net/DTD/sodipodi-0.dtd"
   xmlns:inkscape="http://www.inkscape.org/namespaces/inkscape"
   id="svg4707"
   version="1.1"
   inkscape:version="0.91 r13725"
   width="748.98297"
   height="929.99945"
   viewBox="0 0 748.98297 929.99944"
   sodipodi:docname="en_lower_e.svg">
  <metadata
     id="metadata4713">
    <rdf:RDF>
      <cc:Work
         rdf:about="">
        <dc:format>image/svg+xml</dc:format>
        <dc:type
           rdf:resource="http://purl.org/dc/dcmitype/StillImage" />
        <dc:title></dc:title>
      </cc:Work>
    </rdf:RDF>
  </metadata>
  <defs
     id="defs4711" />
  <sodipodi:namedview
     pagecolor="#ffffff"
     bordercolor="#666666"
     borderopacity="1"
     objecttolerance="10"
     gridtolerance="10"
     guidetolerance="10"
     inkscape:pageopacity="0"
     inkscape:pageshadow="2"
     inkscape:window-width="1664"
     inkscape:window-height="1044"
     id="namedview4709"
     showgrid="false"
     inkscape:zoom="0.48202614"
     inkscape:cx="164.05652"
     inkscape:cy="595.37222"
     inkscape:window-x="166"
     inkscape:window-y="0"
     inkscape:window-maximized="0"
     inkscape:current-layer="svg4707"
     fit-margin-top="0"
     fit-margin-left="0"
     fit-margin-right="0"
     fit-margin-bottom="0" />
  <path
     style="fill:#000000"
     d="M 0.34715269,435.28642 C 17.825228,286.35732 60.396293,22.930753 407.06467,0 c 273.42957,17.178088 325.87122,157.77086 341.43055,355.48326 7.09436,97.27578 -65.18815,92.37589 -87.4382,94.67516 -154.96415,7.99438 -405.99342,10.77731 -510.50896,4.78311 -13.71677,0.50452 -49.6921,-14.47392 -47.81474,12.71483 24.43099,353.82158 301.00919,412.86816 564.06877,314.80826 96.0752,-18.39881 104.2054,84.48428 41.83876,106.38592 C 133.17549,1054.8681 -8.0468103,681.00631 0.34715269,435.28642 Z M 614.55297,339.17801 c 14.98029,-3.99293 30.99755,-3.96275 30.60066,-25.31363 C 657.92057,167.40207 532.49624,100.22487 415.60857,98.308871 306.03193,102.94038 189.58501,116.25854 125.13317,314.76421 c -3.50424,10.79275 3.14722,26.75366 24.99479,28.98685 115.06901,0.41931 273.99585,26.68335 464.42501,-4.57305 z"
     id="path4717"
     inkscape:connector-curvature="0"
     sodipodi:nodetypes="cccccsccccccscc" />
</svg>
