<?xml version="1.0" encoding="UTF-8" standalone="no"?>
<!-- Created with Inkscape (http://www.inkscape.org/) -->

<svg
   xmlns:dc="http://purl.org/dc/elements/1.1/"
   xmlns:cc="http://creativecommons.org/ns#"
   xmlns:rdf="http://www.w3.org/1999/02/22-rdf-syntax-ns#"
   xmlns:svg="http://www.w3.org/2000/svg"
   xmlns="http://www.w3.org/2000/svg"
   xmlns:sodipodi="http://sodipodi.sourceforge.net/DTD/sodipodi-0.dtd"
   xmlns:inkscape="http://www.inkscape.org/namespaces/inkscape"
   id="svg4707"
   version="1.1"
   inkscape:version="0.91 r13725"
   width="748.98297"
   height="929.99945"
   viewBox="0 0 748.98297 929.99944"
   sodipodi:docname="en_lower_e.svg">
  <metadata
     id="metadata4713">
    <rdf:RDF>
      <cc:Work
         rdf:about="">
        <dc:format>image/svg+xml</dc:format>
        <dc:type
           rdf:resource="http://purl.org/dc/dcmitype/StillImage" />
        <dc:title />
      </cc:Work>
    </rdf:RDF>
  </metadata>
  <defs
     id="defs4711" />
  <sodipodi:namedview
     pagecolor="#ffffff"
     bordercolor="#666666"
     borderopacity="1"
     objecttolerance="10"
     gridtolerance="10"
     guidetolerance="10"
     inkscape:pageopacity="0"
     inkscape:pageshadow="2"
     inkscape:window-width="1817"
     inkscape:window-height="1044"
     id="namedview4709"
     showgrid="false"
     inkscape:zoom="0.17042198"
     inkscape:cx="-694.07405"
     inkscape:cy="1747.6266"
     inkscape:window-x="52"
     inkscape:window-y="0"
     inkscape:window-maximized="0"
     inkscape:current-layer="svg4707"
     fit-margin-top="0"
     fit-margin-left="0"
     fit-margin-right="0"
     fit-margin-bottom="0" />
  <path
     style="fill:#000000"
     d="M 0.34715269,435.28642 C 17.825228,286.35732 60.396293,22.930753 407.06467,0 c 273.42957,17.178088 350.76614,212.74713 319.6475,394.90021 -12.61412,70.30629 -53.77799,148.38945 -220.21109,175.58363 -154.96415,7.99438 -192.31207,0.40445 -296.82761,-5.58975 -13.71677,0.50452 -36.43965,1.74906 -30.18085,28.27415 43.10218,182.66903 249.14482,183.62747 428.18406,121.87265 120.97011,-38.10728 168.51725,137.38598 68.80824,171.73507 C 101.01956,1052.7935 -8.0468103,681.00631 0.34715269,435.28642 Z M 427.53359,428.28053 c 275.94785,-6.16939 162.86,-279.76593 -16.07417,-279.14454 -141.30291,1.41539 -197.81476,60.01096 -235.73818,169.6173 -36.63988,153.84122 218.94788,110.98008 251.81235,109.52724 z"
     id="path4717"
     inkscape:connector-curvature="0"
     sodipodi:nodetypes="cccccsccccccc" />
</svg>
