<?xml version="1.0" encoding="UTF-8" standalone="no"?>
<!-- Created with Inkscape (http://www.inkscape.org/) -->

<svg
   xmlns:dc="http://purl.org/dc/elements/1.1/"
   xmlns:cc="http://creativecommons.org/ns#"
   xmlns:rdf="http://www.w3.org/1999/02/22-rdf-syntax-ns#"
   xmlns:svg="http://www.w3.org/2000/svg"
   xmlns="http://www.w3.org/2000/svg"
   xmlns:sodipodi="http://sodipodi.sourceforge.net/DTD/sodipodi-0.dtd"
   xmlns:inkscape="http://www.inkscape.org/namespaces/inkscape"
   id="svg4026"
   version="1.1"
   inkscape:version="0.91 r13725"
   width="548.84589"
   height="929.99902"
   viewBox="0 0 548.84589 929.99901"
   sodipodi:docname="en_lower_b.svg">
  <metadata
     id="metadata4032">
    <rdf:RDF>
      <cc:Work
         rdf:about="">
        <dc:format>image/svg+xml</dc:format>
        <dc:type
           rdf:resource="http://purl.org/dc/dcmitype/StillImage" />
        <dc:title></dc:title>
      </cc:Work>
    </rdf:RDF>
  </metadata>
  <defs
     id="defs4030" />
  <sodipodi:namedview
     pagecolor="#ffffff"
     bordercolor="#666666"
     borderopacity="1"
     objecttolerance="10"
     gridtolerance="10"
     guidetolerance="10"
     inkscape:pageopacity="0"
     inkscape:pageshadow="2"
     inkscape:window-width="1489"
     inkscape:window-height="1019"
     id="namedview4028"
     showgrid="false"
     fit-margin-top="0"
     fit-margin-left="0"
     fit-margin-right="0"
     fit-margin-bottom="0"
     inkscape:zoom="0.25563297"
     inkscape:cx="717.9522"
     inkscape:cy="715.75317"
     inkscape:window-x="231"
     inkscape:window-y="0"
     inkscape:window-maximized="0"
     inkscape:current-layer="svg4026" />
  <path
     style="fill:#000000"
     d="M 0,895.87059 C 1.0504063,610.43344 2.6492772,292.82768 -0.36140521,39.344078 18.810857,-27.978699 114.61906,4.8032773 109.69552,40.643552 115.34191,165.41638 99.95165,224.68917 105.9368,318.61302 c 200.00222,-4.66805 402.56509,-20.84171 442.19801,275.8592 17.66304,268.3024 -297.95456,338.38166 -477.130971,249.18758 -4.744995,-1.24085 -6.411412,-1.4663 -7.376659,-0.50097 1.7552,22.65594 0.374124,34.75445 0.755509,51.34621 C 70.352037,934.21391 7.3450518,948.34796 0,895.87059 Z M 448.35775,603.27981 C 450.40812,394.95605 108.74879,432.70095 109.52725,437.92912 93.218886,519.39128 105.49476,649.06053 101.16263,740.62173 252.753,826.43284 457.25102,736.6431 448.35775,603.27981 Z"
     id="path4036"
     inkscape:connector-curvature="0"
     sodipodi:nodetypes="ccccccccccccc" />
</svg>
