<?xml version="1.0" encoding="UTF-8" standalone="no"?>
<!-- Created with Inkscape (http://www.inkscape.org/) -->

<svg
   xmlns:dc="http://purl.org/dc/elements/1.1/"
   xmlns:cc="http://creativecommons.org/ns#"
   xmlns:rdf="http://www.w3.org/1999/02/22-rdf-syntax-ns#"
   xmlns:svg="http://www.w3.org/2000/svg"
   xmlns="http://www.w3.org/2000/svg"
   xmlns:sodipodi="http://sodipodi.sourceforge.net/DTD/sodipodi-0.dtd"
   xmlns:inkscape="http://www.inkscape.org/namespaces/inkscape"
   id="svg3406"
   version="1.1"
   inkscape:version="0.91 r13725"
   width="26.4"
   height="38.25"
   viewBox="0 0 26.4 38.25"
   sodipodi:docname="en_lower_h.svg">
  <metadata
     id="metadata3412">
    <rdf:RDF>
      <cc:Work
         rdf:about="">
        <dc:format>image/svg+xml</dc:format>
        <dc:type
           rdf:resource="http://purl.org/dc/dcmitype/StillImage" />
        <dc:title></dc:title>
      </cc:Work>
    </rdf:RDF>
  </metadata>
  <defs
     id="defs3410" />
  <sodipodi:namedview
     pagecolor="#ffffff"
     bordercolor="#666666"
     borderopacity="1"
     objecttolerance="10"
     gridtolerance="10"
     guidetolerance="10"
     inkscape:pageopacity="0"
     inkscape:pageshadow="2"
     inkscape:window-width="1798"
     inkscape:window-height="984"
     id="namedview3408"
     showgrid="false"
     inkscape:zoom="0.4638944"
     inkscape:cx="-377.4855"
     inkscape:cy="38.392107"
     inkscape:window-x="0"
     inkscape:window-y="0"
     inkscape:window-maximized="0"
     inkscape:current-layer="svg3406" />
  <path
     style="fill:#000000"
     d="m -172.0773,479.68777 c -2.92241,-4.72856 8.2191,-23.42003 13.96008,-23.42003 5.43858,0 4.77902,17.15043 -0.87713,22.80653 -5.8024,5.80237 -9.76135,5.98805 -13.083,0.61342 z m 410.86369,-11.36612 c -7.69021,-8.65173 -12.8854,-10.98586 -22.60992,-10.15837 -10.97377,0.93375 -12.62557,-0.14943 -12.62557,-8.27492 0,-5.77642 2.30241,-9.34926 6.02494,-9.34926 3.31373,0 7.62524,-3.98131 9.58118,-8.84736 3.43248,-8.53958 3.56484,-8.47551 3.80541,1.84261 0.35389,15.1703 9.8476,10.12602 10.98824,-5.83829 1.65465,-23.15641 3.64252,-28.40289 12.4482,-32.85236 7.91465,-3.99922 8.07453,-4.65644 1.72543,-7.09281 -4.66087,-1.7886 -5.50492,-3.60762 -2.52759,-5.44769 3.23923,-2.00199 2.93821,-4.85703 -1.09314,-10.37039 -5.27209,-7.20998 -5.58742,-7.003 -6.02871,3.95704 -0.25691,6.36074 -0.31222,12.72423 -0.12321,14.14112 0.18874,1.41689 -2.16688,3.53863 -5.23232,4.71497 -3.8628,1.48217 -4.91777,0.0891 -3.43692,-4.54224 1.65099,-5.16217 1.26799,-5.46463 -1.68427,-1.33065 -2.10161,2.94275 -2.94692,8.69354 -1.87826,12.77952 1.0685,4.08594 0.17301,7.42904 -1.98941,7.42904 -5.76086,0 -8.5593,-14.37803 -3.73702,-19.20032 2.89168,-2.89166 1.93907,-4.97741 -3.16812,-6.93728 -4.38399,-1.68218 -7.92121,-0.94791 -8.84954,1.83711 -3.31764,9.95284 -7.26621,3.91845 -6.21016,-9.49074 0.92877,-11.79373 0.19398,-13.36762 -4.44468,-9.51803 -4.62726,3.8403 -5.19082,2.75007 -3.36677,-6.5135 4.24574,-21.56247 2.81438,-38.06394 -2.99051,-34.47631 -3.03938,1.87852 -2.99825,0.19398 0.13893,-5.66617 2.93898,-5.49527 3.07275,-8.33856 0.39007,-8.33856 -2.23871,0 -4.07049,-1.76948 -4.07049,-3.93216 0,-2.16269 2.04394,-3.4898 4.54199,-2.94913 3.13849,0.67922 4.72056,-9.95282 5.11975,-34.4064 0.31772,-19.46419 2.82887,-42.00711 5.58026,-50.09541 5.79113,-17.02418 3.09107,-94.52638 -3.36819,-96.67947 -2.47542,-0.82523 -2.61436,-3.80523 -0.3725,-7.99453 1.97787,-3.69576 2.27567,-17.693701 0.66689,-31.339504 -1.59934,-13.563279 -1.48871,-25.537572 0.24642,-26.609479 1.73434,-1.071907 1.14399,-5.848224 -1.31203,-10.614002 -10.35815,-20.099186 -10.72374,-21.731399 -5.33096,-23.800817 5.75878,-2.209874 5.94873,-9.00795 0.49571,-17.7441879 -2.06648,-3.3106955 -1.4507,-6.5239784 1.61323,-8.4174971 3.54818,-2.1928348 2.57452,-3.8183637 -3.42837,-5.723574 -4.61161,-1.46355 -8.38436,-5.736917 -8.38436,-9.496377 0,-3.75946 -4.23501,-12.575599 -9.41113,-19.591439 -5.25056,-7.116738 -8.56589,-15.988164 -7.49926,-20.06702 1.403,-5.365354 -1.63787,-8.995498 -11.42743,-13.6409 -18.24499,-8.657779 -30.61806,-10.657597 -30.76963,-4.973161 -0.076,2.82586 -2.02873,2.204107 -4.9152,-1.564475 -2.6346,-3.439566 -9.6562,-6.035316 -15.6036,-5.768349 -5.94739,0.266863 -10.813438,-0.742129 -10.813438,-2.242642 0,-1.500512 -7.962625,-6.582829 -17.694722,-11.294082 -9.732097,-4.711224 -17.694722,-10.211194 -17.694722,-12.222174 0,-3.29329 -8.612715,-2.3766 -28.565257,3.04034 -12.311778,3.34255 -3.976332,7.500233 13.120596,6.54451 9.132653,-0.5104 19.625728,1.201142 23.317974,3.803682 9.775062,6.890062 4.087218,16.779681 -9.839393,17.108174 -23.559355,0.555745 -68.084597,5.658562 -80.538011,9.230144 -7.014161,2.011693 -14.660588,3.281545 -16.992044,2.822032 -2.331509,-0.459538 -4.958271,2.703439 -5.837293,7.028816 -2.450784,12.059228 -7.61413,15.626038 -14.430818,9.968682 -3.335678,-2.768346 -5.925189,-7.02858 -5.754455,-9.467096 0.193987,-2.785909 1.047528,-2.607022 2.29376,0.481559 3.032535,7.515407 9.19229,5.846519 9.19229,-2.490631 0,-4.216612 3.809897,-8.629309 8.847361,-10.247183 7.79868,-2.504787 7.996546,-3.066089 1.669071,-4.736261 -4.150264,-1.0955 -9.438417,1.153696 -12.536409,5.331983 -5.173255,6.97733 -5.560861,6.955336 -11.229988,-0.637534 -5.666138,-7.588913 -5.831708,-7.489455 -4.728029,2.83957 0.629145,5.887152 -0.312476,9.803898 -2.092172,8.703916 -4.455531,-2.753666 -34.980081,28.348831 -34.980081,35.642438 0,3.244033 -1.76947,5.898241 -3.93216,5.898241 -2.16269,0 -3.93216,3.538944 -3.93216,7.864321 0,4.3253761 -1.8738,7.8643204 -4.16424,7.8643204 -2.29035,0 -2.90164,2.0428884 -1.35843,4.53970539 1.73828,2.81267431 1.07873,3.47233351 -1.73408,1.73408271 -2.49692,-1.54324186 -4.53968,-5.459962 -4.53968,-8.7039943 0,-3.2459984 -1.9223,-4.7102562 -4.27473,-3.2563268 -2.35117,1.4530643 -3.40147,5.9811567 -2.33413,10.06247702 1.17965,4.51128898 -0.0996,7.42053718 -3.26191,7.42053718 -2.86133,0 -5.94461,1.3272352 -6.85174,2.9491204 -0.90701,1.621885 -1.11018,0.737149 -0.45115,-1.9660803 0.65903,-2.7033603 -1.84287,-4.7908394 -5.55965,-4.6388221 -8.4407,0.3452437 -24.2764,6.9345744 -17.57131,7.3115374 2.70336,0.152044 4.91521,1.99046 4.91521,4.085174 0,2.094793 -3.09658,2.648232 -6.88129,1.229718 -5.77005,-2.162426 -6.09306,-1.60773 -2.00015,3.434349 2.68459,3.307261 3.71678,7.177477 2.29376,8.600526 -1.42292,1.422917 -0.75341,2.587361 1.48793,2.587361 2.24133,0 3.86342,3.096577 3.60448,6.881281 -0.25953,3.784704 1.29866,7.302992 3.46132,7.818419 2.16269,0.515375 3.83362,-3.465832 3.71319,-8.847361 -0.12059,-5.381371 1.18515,-9.784421 2.90138,-9.784421 2.57216,0 2.47464,10.047326 -0.27682,28.508163 -0.24117,1.622148 -1.76659,2.506884 -3.38866,1.96608 -1.62214,-0.54054 -3.39149,0.344196 -3.93216,1.966081 -2.11235,6.337227 -0.7956,10.813441 3.18117,10.813441 2.29036,0 2.91546,-2.211709 1.3891,-4.915201 -2.12677,-3.767245 -1.61821,-3.847278 2.1779,-0.342622 6.97764,6.441901 1.80931,12.724078 -8.71823,10.596936 -6.69757,-1.353187 -5.981,-0.295436 2.95305,4.360609 6.48807,3.381134 8.57172,5.242435 4.63033,4.136239 -7.85339,-2.204107 -22.32505,4.028184 -22.32505,9.6145 0,1.932001 2.78059,6.293528 6.1791,9.692018 4.90681,4.90683 5.05867,6.17912 0.73741,6.17912 -4.13249,0 -5.29919,6.09787 -4.84958,25.34687 0.32558,13.94076 -0.44853,25.2328 -1.72046,25.09339 -11.88909,-1.30311 -13.54008,9.74183 -2.59942,17.38951 3.00389,2.09977 3.00389,3.79852 0,5.89824 -2.32049,1.62215 -5.23352,5.71233 -6.47356,9.08956 -1.79464,4.88744 0.0944,5.79579 9.25203,4.4516 9.16642,-1.34533 11.0289,-3.19399 9.15771,-9.08956 -1.29184,-4.07039 -0.64959,-7.40072 1.42764,-7.40072 5.09034,0 9.20964,11.4801 5.9891,16.69103 -1.52411,2.46625 -0.72195,3.03261 1.95323,1.37914 2.87009,-1.77367 4.53973,0.17301 4.53973,5.29072 0,4.45301 -1.66776,8.09639 -3.70637,8.09639 -2.03843,0 -3.02485,3.53895 -2.19179,7.86433 1.79857,9.3389 -5.14347,10.39962 -11.46673,1.75217 -2.66438,-3.64373 -7.16576,-5.07755 -11.14589,-3.55022 -5.88293,2.25758 -5.98745,3.25106 -0.87923,8.35922 7.05938,7.05936 7.69479,14.70392 0.88185,10.61094 -3.63746,-2.18524 -3.87685,-1.47902 -0.92091,2.71704 4.61919,6.55714 4.9222,15.45551 0.75288,22.10999 -1.60013,2.55381 -1.08213,5.77262 1.15107,7.15286 2.23321,1.38019 3.157,3.97127 2.05285,5.75789 -1.10415,1.78677 0.63649,4.26306 3.86802,5.50314 3.23163,1.2402 5.87567,0.5408 5.87567,-1.55399 0,-2.0948 3.98131,-3.78169 8.84736,-3.74858 6.59001,0.0446 7.45991,0.939 3.40944,3.50423 -4.5865,2.90479 -4.50093,4.78174 0.54657,11.98793 4.77506,6.81734 5.10379,10.87696 1.62661,20.08875 -6.1407,16.26855 -12.96851,14.53948 -10.89293,-2.75854 0.81108,-6.75965 -6.83155,-25.01824 -10.47207,-25.01824 -5.28037,0 -4.97306,35.37277 0.30854,35.51448 2.56324,0.0682 1.45778,2.55302 -2.45629,5.52076 -4.75107,3.6022 -5.66706,6.29156 -2.75568,8.09089 5.70535,3.52607 4.12564,48.4645 -1.91602,54.50624 -2.51474,2.51475 -3.75817,7.01461 -2.76312,9.99967 1.20324,3.60983 0.11796,4.38224 -3.24071,2.30661 -3.33589,-2.06177 -4.08412,-1.55845 -2.20437,1.48294 1.565,2.53205 4.49255,3.58585 6.50579,2.34147 2.01326,-1.24439 3.66045,0.14156 3.66045,3.08148 0,2.93913 2.164,7.50786 4.80882,10.15273 2.64485,2.64485 4.27114,11.04987 3.61394,18.67782 -0.65719,7.628 0.76284,16.22813 3.15585,19.11137 3.26972,3.93974 2.87674,5.80796 -1.58151,7.51877 -3.6988,1.41924 -4.96546,4.79605 -3.36428,8.96857 1.86751,4.86694 1.15894,5.82133 -2.59811,3.49936 -2.8413,-1.7561 -10.66226,-3.81026 -17.37991,-4.565 -20.08784,-2.2568 -33.78969,-9.6544 -36.28312,-19.58913 -1.28818,-5.13296 -3.92,-9.33262 -5.84823,-9.33262 -6.4057,0 -3.6212,-19.20286 3.3754,-23.27799 5.48164,-3.19276 5.6816,-4.083 0.98304,-4.37681 -3.47926,-0.21758 -2.26965,-1.82741 2.94912,-3.92501 4.86604,-1.95585 8.82025,-5.82507 8.78714,-8.59814 -0.0419,-3.52974 -1.2035,-3.27294 -3.87194,0.85643 -3.38822,5.24285 -3.87019,5.24285 -4.33786,0 -0.28941,-3.24403 -0.19923,-8.28766 0.20185,-11.20805 0.40082,-2.92041 -1.15894,-4.14308 -3.46625,-2.71707 -6.18712,3.82387 -5.09755,-1.46276 1.70315,-8.26351 4.54248,-4.54246 5.91208,-4.70389 5.95846,-0.70229 0.0498,4.28548 0.63465,4.29015 3.33827,0.0262 4.51643,-7.12217 0.90204,-23.339 -5.77246,-25.90028 -6.80789,-2.61252 -7.35535,4.04415 -0.57515,6.99301 2.70336,1.17571 0.0288,1.12643 -5.9427,-0.1101 -8.85226,-1.83239 -10.40879,-1.07715 -8.42667,4.08819 1.3372,3.48463 0.91488,6.34089 -0.93848,6.34726 -1.85336,0.008 -3.51286,6.44678 -3.68771,14.31199 -0.17563,7.86527 -2.98438,16.26504 -6.24338,18.6662 -3.259,2.40124 -5.46048,6.62184 -4.89221,9.37928 0.56833,2.75742 0.13107,3.18877 -0.97386,0.95866 -1.10389,-2.23032 -3.32061,-3.24311 -4.92613,-2.25077 -1.60564,0.99222 -2.35642,-5.63221 -1.66881,-14.72109 1.85598,-24.52879 3.899,-32.34579 8.2179,-31.44187 2.54568,0.53268 2.53441,-5.49519 -0.0315,-17.53041 -2.72614,-12.78203 -2.63919,-18.76662 0.28679,-19.74196 2.64498,-0.88159 3.42166,-9.31536 2.09872,-22.78915 -1.91889,-19.54263 -1.47482,-21.16414 5.14154,-18.77895 6.16557,2.22272 5.92925,1.16707 -1.59043,-7.10347 -7.50212,-8.2514 -9.16044,-15.59948 -11.01296,-48.79864 -1.19957,-21.49646 -2.73256,-43.95054 -3.40677,-49.89791 -0.68341,-6.02805 0.71015,-10.8401 3.14864,-10.87365 3.14939,-0.0446 3.16858,-0.86927 0.0682,-2.94912 -5.2612,-3.52893 -2.36401,-32.37943 3.25114,-32.37943 2.191,0 1.55504,-2.99387 -1.41322,-6.65306 -3.66697,-4.52064 -3.82127,-5.70658 -0.48156,-3.70008 2.70336,1.62424 4.9152,1.07898 4.9152,-1.21137 0,-2.29035 -1.48268,-4.16423 -3.29504,-4.16423 -4.77344,0 -5.06242,-26.756206 -0.3206,-29.686793 2.59129,-1.601438 2.20122,-4.687922 -1.10861,-8.77362 -3.26715,-4.032955 -3.43377,-5.299923 -0.46269,-3.517947 2.55381,1.531708 5.75493,0.986711 7.11336,-1.211367 1.35843,-2.198078 0.15467,-4.023387 -2.67741,-4.056495 -3.74027,-0.04456 -3.53498,-1.102054 0.75105,-3.871868 3.24403,-2.096365 3.89278,-3.838863 1.44153,-3.871972 -2.45105,-0.03146 -5.38269,-3.60157 -6.51457,-7.929935 -1.13194,-4.328365 -0.45351,-6.878135 1.50733,-5.666165 5.28209,3.264506 4.32252,-3.736391 -1.34978,-9.847466 -3.93216,-4.236405 -3.93216,-4.740455 0,-2.520515 2.94954,1.665139 4.9152,0.491782 4.9152,-2.934571 0,-6.54862 9.38808,-11.16052 16.87229,-8.288601 5.50044,2.110784 6.56577,24.2635 1.54665,32.160904 -1.85073,2.912131 0.14418,8.338513 4.97345,13.521022 4.43572,4.761138 8.13889,6.99589 8.22931,4.966082 1.69214,-37.994657 1.14321,-56.998369 -1.67405,-57.935586 -1.91156,-0.635961 -0.45823,-4.173883 3.23,-7.862014 3.68816,-3.6881827 5.00268,-6.7057488 2.92115,-6.7057488 -3.92922,0 -2.91784,-24.7026182 1.29028,-31.5112582 1.31832,-2.133066 0.41864,-3.878185 -1.99938,-3.878185 -2.41801,0 -3.20397,-1.92938 -1.74666,-4.287156 3.79867,-6.146412 4.61287,-38.771914 0.91042,-36.483738 -1.70288,1.052247 -3.09597,0.186123 -3.09597,-1.923088 0,-2.109997 2.21197,-4.575934 4.9152,-5.479623 2.70336,-0.90361 0.0498,-2.575303 -5.89824,-3.714555 -5.94739,-1.139278 -10.81344,-0.547356 -10.81344,1.315439 0,1.862796 -3.09658,3.41398 -6.88128,3.447089 -5.86907,0.05243 -6.01366,0.61132 -0.98304,3.806174 3.75623,2.385511 6.37424,2.363753 7.20896,-0.06029 2.56167,-7.438573 9.40174,-3.67172 7.37891,4.063626 -1.13194,4.328365 -0.4792,6.894047 1.45018,5.701554 1.9978,-1.234699 2.43296,5.958088 1.01056,16.706255 -1.37363,10.380929 -2.59942,26.621433 -2.72391,36.089997 -0.12321,9.4685111 -0.85852,15.3187007 -1.63132,13.0003776 -0.7728,-2.3184018 -4.02465,-3.2098487 -7.22642,-1.9812845 -4.68638,1.79830797 -4.18888,3.3773587 2.55145,8.0984678 5.82413,4.0793801 7.12161,7.1158731 4.26235,9.9751571 -5.61612,5.616226 -24.07732,7.221779 -24.07732,2.094006 0,-2.454979 -2.80623,-1.972371 -6.88128,1.183581 -6.44607,4.991877 -6.4791,4.835797 -0.52219,-2.467562 6.99728,-8.5792926 8.3258,-21.5592754 2.20673,-21.5592754 -2.13753,0 -0.79483,-3.4158677 2.98338,-7.5908516 6.61712,-7.311853 6.53113,-7.516089 -2.33964,-5.557113 -7.26561,1.604584 -7.96443,1.162084 -3.31106,-2.096104 6.87929,-4.816739 7.90141,-13.045099 2.11681,-17.040934 -2.50295,-1.729102 -1.05434,-5.104809 3.80062,-8.857034 6.30561,-4.873284 6.49475,-5.592869 0.9639,-3.666687 -4.69303,1.634468 -6.88128,0.386924 -6.88128,-3.92254 0,-3.475427 2.21197,-6.346035 4.9152,-6.379144 3.56668,-0.04456 3.43144,-1.000079 -0.49283,-3.485808 -2.97444,-1.884029 -5.99342,-10.261968 -6.70884,-18.617573 -0.97465,-11.38384 -0.42756,-13.220631 2.18261,-7.327607 4.05555,9.15614 4.62094,8.282021 5.58807,-8.639324 0.60031,-10.50484 -0.20709,-11.80272 -4.91609,-7.89515 -4.74588,3.93874 -5.10748,3.13068 -2.29271,-5.12324 1.83815,-5.38976 2.84974,-22.56708 2.24815,-38.17181 l -1.09367,-28.37222 11.69844,0.84699 c 6.43412,0.46583 11.10282,1.8164 10.3749,3.00095 -2.22508,3.6211 5.41351,13.52784 8.2464,10.69492 4.5186,-4.51847 -2.04578,-22.67905 -8.19767,-22.67905 -3.20282,0 -5.82332,1.7139 -5.82332,3.80875 0,2.09479 -2.72899,2.76155 -6.06444,1.48164 -3.33544,-1.28005 -5.34401,-4.32098 -4.4635,-6.75787 0.88055,-2.43689 -0.10485,-7.74085 -2.19231,-11.78654 -2.64233,-5.12413 -2.49902,-6.55604 0.47212,-4.71972 2.90742,1.79699 3.46282,-1.37626 1.74457,-9.96729 -1.50365,-7.51826 -1.02655,-11.6799 1.1828,-10.31455 2.03686,1.25882 3.70336,-1.0221 3.70336,-5.069 0,-5.5494 -1.24256,-6.32655 -5.05563,-3.16199 -3.95853,3.28525 -5.05563,1.15511 -5.05563,-9.81619 0,-7.70659 1.77419,-15.10852 3.9428,-16.44875 2.60859,-1.61218 2.51239,-5.10946 -0.28416,-10.33479 -2.3247,-4.3439 -3.13517,-14.41098 -1.80093,-22.37129 1.33431,-7.9603 3.07956,-18.48874 3.87831,-23.39654 0.79875,-4.90779 -0.28154,-15.20295 -2.40071,-22.87813 -2.65078,-9.60034 -2.52524,-15.55499 0.40265,-19.08277 2.47516,-2.98251 3.62708,-15.89494 2.75306,-30.86302 -1.20062,-20.56074 -0.4231,-25.32077 3.86741,-23.67438 2.95358,1.13338 5.37016,0.10197 5.37016,-2.29214 0,-2.39408 -2.73681,-4.35285 -6.08182,-4.35285 -5.21363,0 -5.0733,-1.3425 0.98304,-9.40451 4.74333,-6.31417 8.01416,-7.92931 9.95376,-4.9152 2.0193,3.13786 2.90702,2.88301 2.94912,-0.84659 0.0367,-3.20194 2.50505,-4.39777 6.17315,-2.99014 3.36213,1.29017 11.15654,-1.38313 17.32091,-5.94065 10.69482,-7.90701 19.81992,-7.46123 19.81992,0.96826 0,2.16269 -1.90002,2.75783 -4.22246,1.32254 -2.32233,-1.43529 -1.89661,1.11448 0.94582,5.66618 5.68386,9.1013 9.40455,10.33433 13.10699,4.34363 3.42572,-5.54292 17.69472,-4.90875 17.69472,0.78643 0,3.67002 1.04858,3.67002 4.71859,0 2.59523,-2.59522 5.94485,-4.71859 7.44364,-4.71859 5.33387,0 7.55957,12.88327 3.14467,18.20287 -2.52208,3.03892 -3.4565,10.57496 -2.13227,17.19633 2.03843,10.19213 1.20507,11.78673 -6.16023,11.78673 -7.47145,0 -7.76248,0.60369 -2.36978,4.9152 7.06208,5.64615 11.82945,21.68504 7.28118,24.49603 -1.68533,1.04168 -0.66296,12.10263 2.27226,24.57992 7.64554,32.50032 6.33589,65.89663 -2.91237,74.2662 -7.92907,7.17571 -10.01539,21.16474 -3.15652,21.16474 2.4901,0 3.11843,-3.39871 1.54481,-8.35674 -1.95088,-6.14685 -1.34034,-7.54594 2.3087,-5.29069 3.22403,1.99256 3.97864,1.47658 2.15535,-1.47367 -1.54324,-2.49684 -1.15291,-4.5397 0.86691,-4.5397 6.33012,0 7.84395,75.61438 1.55583,77.71043 -1.99177,0.66401 -2.75152,5.75729 -1.68847,11.31859 1.17676,6.15598 -0.20185,11.46254 -3.52062,13.56517 -3.06415,1.94039 -3.52602,3.48009 -1.05435,3.51391 2.83113,0.0393 3.73157,5.84141 2.52602,16.2783 -1.27874,11.07006 -0.17826,17.29181 3.465,19.60059 4.48025,2.83879 4.47086,3.39217 -0.0577,3.44271 -4.35091,0.0498 -4.44811,1.20324 -0.50174,5.95846 2.71531,3.27177 3.14859,5.898239 0.97308,5.898239 -2.15718,0 -3.92212,4.42368 -3.92212,9.830401 0,15.211195 5.18235,11.913633 23.17371,-14.7456 9.12199,-13.5168 18.03528,-25.16583 19.80732,-25.88672 1.77209,-0.7209 3.22185,-4.80665 3.22185,-9.07941 0,-4.2728 -1.76947,-6.67514 -3.93216,-5.33852 -8.8526,5.47121 -3.04973,-5.21082 9.37005,-17.24852 7.55801,-7.32551 16.472478,-12.37047 20.643845,-11.68295 4.037883,0.66559 9.553472,-0.17826 12.256832,-1.87302 2.979068,-1.86856 4.915211,-1.09812 4.915211,1.95612 0,2.77155 2.615149,1.30548 5.811445,-3.25782 7.191318,-10.26703 36.493568,-25.96065 42.054848,-22.5236 2.622725,1.62084 3.14101,-0.47317 1.442055,-5.82631 -3.723573,-11.73193 1.201668,-10.46785 5.74195,1.47378 2.928201,7.70176 6.525813,9.84343 16.61434745,9.89061 9.76051335,0.0446 11.44940255,0.98278 6.97861475,3.87195 -5.1014014,3.29677 -5.0128491,3.81986 0.6553601,3.87194 3.6044807,0.0341 7.2679957,-2.08299 8.1411447,-4.70241 0.940835,-2.82232 10.285562,-5.0528 22.937602,-5.47493 30.206804,-1.00795 30.175399,-0.99432 20.179166,-8.68622 -8.932112,-6.87316 -8.781301,-6.94184 13.223593,-6.02213 12.24231,0.5117 23.24245,1.91391 24.444695,3.11629 1.202454,1.20219 5.426201,-0.74633 9.386381,-4.33028 6.72148,-6.08284 7.7678,-6.01804 15.73147,0.97439 7.65875,6.72478 8.2745,6.78709 6.02163,0.60948 -3.1333,-8.59206 -1.20848,-8.70389 7.08384,-0.41156 5.22238,5.22238 5.46605,7.09891 1.2638,9.73366 -3.16777,1.98627 -0.20185,2.6443 7.57379,1.68113 8.82062,-1.09261 12.77952,0.0419 12.77952,3.66077 0,3.0944 2.8727,4.49254 7.0085,3.41101 9.84484,-2.57451 38.96401,29.69453 31.5786,34.99461 -3.79697,2.72485 -3.34236,3.1198 1.71757,1.49212 8.19659,-2.63672 19.43504,0.99746 16.71168,5.40389 -1.05644,1.70944 0.72299,4.12271 3.95473,5.36281 3.23161,1.23994 5.84857,5.4068 5.81546,9.25937 -0.0498,5.84799 -0.66428,6.0495 -3.71836,1.22028 -2.01195,-3.1814 -5.03023,-4.4123 -6.70722,-2.73531 -4.2897,4.2897 6.5788,10.22928 13.7104,7.49263 4.4775,-1.7181 5.36472,-0.20448 3.6724,6.26749 -1.22893,4.69941 -0.61709,7.53528 1.36184,6.31225 1.9763,-1.22133 4.77875,0.98802 6.22775,4.90977 1.44887,3.92178 4.53308,8.59232 6.85352,10.37899 2.93125,2.257061 2.7187,3.85724 -0.69625,5.242855 -6.19806,2.51501 -6.49569,9.543589 -0.34813,8.220339 2.51187,-0.540541 5.60852,3.10271 6.88128,8.096396 3.26993,12.829224 10.14311,12.675293 10.36125,-0.233308 0.0996,-5.947392 -1.89033,-10.813441 -4.42369,-10.813441 -2.53362,0 -5.71232,-5.529587 -7.06402,-12.288001 -3.6773,-18.38649 -3.12551,-19.80406 4.78298,-12.288 3.98233,3.7847 6.54461,8.18812 5.694,9.78536 -0.85065,1.59725 1.28949,1.81588 4.75566,0.48576 5.14694,-1.975 5.90089,-0.34499 4.11286,8.892394 -1.20403,6.220913 -1.14662,9.09894 0.12845,6.39558 3.71219,-7.873942 9.52623,-5.674055 9.52623,3.604506 0,4.685799 -1.17335,7.346377 -2.60728,5.912344 -1.43393,-1.433928 -5.88495,2.782318 -9.89096,9.369683 -4.006,6.587339 -9.00559,10.912768 -11.11018,9.612035 -2.20333,-1.361838 -2.77962,0.363332 -1.35843,4.067243 1.98338,5.168511 3.14892,5.401766 5.93307,1.187251 5.49127,-8.31243 18.49702,9.552554 16.09638,22.110459 -1.05618,5.524921 0.0118,12.372464 2.37162,15.2167 2.36061,2.844263 4.25287,10.3543222 4.20526,16.6890851 -0.0917,12.1728679 2.86311,38.3745819 6.73052,59.6866819 1.47981,8.155117 0.73479,12.779521 -2.0594,12.779521 -2.40806,0 -4.37846,1.873806 -4.37846,4.164237 0,2.290352 1.80722,3.047241 4.01628,1.681916 2.43715,-1.50628 3.68042,1.925186 3.16209,8.727823 -0.46977,6.165523 0.48156,13.371233 2.11393,16.012701 1.63263,2.64147 1.38936,4.80266 -0.54054,4.80266 -1.92991,0 -3.50888,2.57635 -3.50888,5.72528 0,3.1489 1.47456,4.81393 3.27683,3.70008 4.6169,-2.85341 3.97918,22.75384 -0.74449,29.89625 -3.30986,5.00459 -5.13512,4.40879 -12.04675,-3.93216 l -8.14587,-9.83041 2.26991,10.48802 c 1.24833,5.7684 0.62705,11.07682 -1.38071,11.79648 -2.00777,0.71959 -0.8989,4.84741 2.46415,9.17279 6.02179,7.74462 6.08305,7.72968 4.02546,-0.98304 -1.64234,-6.95437 -0.38247,-8.84736 5.8883,-8.84736 6.69873,0 7.18094,0.95997 3.00787,5.98826 -4.08557,4.92277 -3.96134,5.60125 0.69809,3.81325 4.26395,-1.6363 5.66797,1.20062 5.66797,11.45249 0,14.55838 -6.12161,15.61024 -6.54073,1.12382 l -0.24903,-8.61529 -3.55622,8.84736 c -1.95586,4.86605 -5.82505,8.97175 -8.59812,9.12377 -2.77293,0.15204 -1.50287,1.797 2.82253,3.65568 4.32538,1.8586 5.81813,3.50379 3.31725,3.65575 -2.6324,0.15991 -3.73057,4.00184 -2.60807,9.12377 1.40771,6.42305 0.90282,7.38548 -1.84261,3.51236 -2.91271,-4.10903 -4.46229,-4.23392 -6.74313,-0.54343 -1.6287,2.63536 -1.38832,5.92089 0.53451,7.30108 1.92283,1.38019 3.32679,9.14503 3.12025,17.25511 -0.20709,8.11008 1.05749,14.7456 2.80885,14.7456 1.75138,0 1.68453,3.98131 -0.14943,8.84736 -1.84732,4.90359 -1.8004,12.95296 0.10486,18.05784 1.89085,5.06581 2.26597,11.25899 0.83362,13.76257 -1.43236,2.50373 -1.15606,3.24031 0.61368,1.63709 1.76973,-1.60328 5.43296,-1.07663 8.14049,1.17047 3.58922,2.97882 6.61641,1.6675 11.1752,-4.8412 3.43891,-4.90969 6.25253,-7.48497 6.25253,-5.72289 0,1.76213 -3.59151,7.76971 -7.98114,13.35018 -6.18911,7.86823 -6.85129,10.86336 -2.94912,13.33954 2.76762,1.75637 3.64268,3.22028 1.94459,3.25339 -1.69817,0.0315 -1.13299,3.7123 1.25593,8.17588 2.56508,4.79275 2.93082,10.02528 0.89339,12.77952 -1.8974,2.56508 -2.77493,9.08754 -1.94983,14.49426 0.82497,5.40672 1.8434,25.19697 2.26335,43.97838 0.41969,18.78136 2.05914,35.44389 3.64312,37.02782 9.22115,9.22202 -4.3831,29.09552 -19.91592,29.09552 -5.55829,0 -7.70412,1.85074 -6.32194,5.45268 1.68847,4.39982 -17.02909,22.54787 -22.60699,21.91927 -0.74763,-0.0839 -5.85205,-5.20785 -11.34342,-11.38588 z m -432.3837,-44.99582 c 0,-0.81658 -3.09657,-3.9131 -6.88128,-6.88128 -6.23661,-4.89111 -6.37571,-4.75202 -1.48452,1.48452 5.13684,6.54998 8.36588,8.63298 8.36588,5.39666 z m 452.56417,-22.10834 c 3.66147,0 7.5982,-2.45209 8.74833,-5.44939 1.74483,-4.54655 0.19923,-4.50532 -9.33154,0.24903 -6.28244,3.13409 -12.60213,7.79816 -14.04374,10.36455 -1.79647,3.19795 -0.95499,3.11962 2.67434,-0.24904 2.91247,-2.70336 8.2912,-4.9152 11.95261,-4.9152 z m -511.54657,-21.3948 c 0,-0.95368 -1.76948,-2.82762 -3.93216,-4.16424 -2.16269,-1.33667 -3.93216,-0.55627 -3.93216,1.73408 0,2.29036 1.76947,4.16424 3.93216,4.16424 2.16268,0 3.93216,-0.7804 3.93216,-1.73408 z m 465.96101,-6.13032 c 1.33667,-2.16269 -0.4328,-3.93216 -3.93216,-3.93216 -3.49931,0 -5.26878,1.76947 -3.93216,3.93216 1.33667,2.16269 3.10609,3.93216 3.93216,3.93216 0.82602,0 2.59549,-1.76947 3.93216,-3.93216 z m -426.63941,-25.69281 c 0,-8.45845 -1.29342,-9.24137 -11.79648,-7.14073 -12.19161,2.43847 -16.76272,-3.74095 -5.86178,-7.92403 3.26409,-1.25253 5.47593,-4.30339 4.9152,-6.77965 -0.56072,-2.47621 2.04158,-5.01796 5.78319,-5.64821 8.03013,-1.35266 21.43048,-13.66129 14.873,-13.66129 -2.44475,0 -3.35151,-1.76948 -2.01484,-3.93217 1.33668,-2.16268 0.86272,-3.93216 -1.05303,-3.93216 -1.91575,0 -2.70409,-5.30841 -1.75191,-11.79648 1.23994,-8.4484 0.12321,-11.79648 -3.93216,-11.79648 -4.14138,0 -5.17451,3.43461 -3.84408,12.77952 l 1.81954,12.77952 -8.60653,-9.8304 -8.60653,-9.8304 2.70392,9.8304 c 1.48714,5.40672 4.41757,10.93246 6.51205,12.27946 10.36889,6.66831 -14.36689,27.42438 -24.91422,20.90578 -3.09129,-1.91051 -3.56023,1.20979 -1.58702,10.5596 3.23771,15.34169 9.83661,24.44944 9.83661,13.57647 0,-5.92409 1.02236,-6.31773 5.89824,-2.27096 4.7165,3.91434 7.12953,3.87321 12.04374,-0.20447 5.40223,-4.48345 5.80845,-3.75739 3.35869,6.00328 -1.98076,7.89245 -1.48374,10.29828 1.71888,8.31896 2.47805,-1.53249 4.50562,-7.06056 4.50562,-12.28556 z m -31.45728,-13.17478 c 0,-3.53019 11.81567,-9.60984 14.14652,-7.27898 0.67345,0.67344 -2.23399,3.3843 -6.46104,6.02412 -4.22702,2.63979 -7.68548,3.2045 -7.68548,1.25488 z m 460.06277,13.30855 c 0,-3.24403 -1.47456,-5.89824 -3.2768,-5.89824 -1.80224,0 -3.2768,2.65421 -3.2768,5.89824 0,3.24403 1.47456,5.89824 3.2768,5.89824 1.80224,0 3.2768,-2.65421 3.2768,-5.89824 z m 35.38945,0 c 2.8215,-3.39972 3.20368,-5.89824 0.90203,-5.89824 -2.19598,0 -5.0114,2.65421 -6.2563,5.89824 -1.24492,3.24403 -1.65072,5.89824 -0.90204,5.89824 0.74869,0 3.56401,-2.65421 6.25631,-5.89824 z M -211.4996,326.17059 c -1.26615,-2.0484 -3.978,-2.68873 -6.02653,-1.42266 -2.04839,1.2659 -2.68871,3.97796 -1.42265,6.02651 1.26615,2.04839 3.978,2.68873 6.02653,1.42266 2.04839,-1.26616 2.68873,-3.97799 1.42265,-6.02654 z m -31.27755,-15.34777 c 1.37756,-2.22901 -0.20185,-2.88818 -3.70009,-1.54534 -6.81215,2.6141 -8.05851,5.43251 -2.40228,5.43251 2.03502,0 4.78116,-1.74928 6.10247,-3.88715 z m 80.63712,-15.2922 c 0,-1.89792 -2.515,-5.53795 -5.58888,-8.08906 -4.58587,-3.80591 -5.20925,-3.18665 -3.47354,3.45071 2.06674,7.90346 9.06242,11.48395 9.06242,4.63835 z m 397.14821,-0.48156 c 0,-2.16269 -1.8738,-3.93216 -4.16423,-3.93216 -2.29035,0 -3.07063,1.76947 -1.73408,3.93216 1.33667,2.16269 3.21053,3.93216 4.16423,3.93216 0.95368,0 1.73408,-1.76947 1.73408,-3.93216 z m 6.53636,-12.77952 c -1.09079,-2.70336 -1.98339,-0.49152 -1.98339,4.9152 0,5.40672 0.8926,7.61856 1.98339,4.9152 1.09078,-2.70336 1.09078,-7.12704 0,-9.8304 z m -495.3703,-27.27926 c -1.25515,-3.13682 -2.18707,-2.20516 -2.37555,2.37581 -0.1704,4.1451 0.75864,6.46757 2.06517,5.16094 1.30652,-1.30653 1.44625,-4.69812 0.31038,-7.53665 z m 46.34268,-3.58306 c -2.22743,-7.01762 -1.38805,-7.86173 5.60852,-5.64111 6.37495,2.02323 7.70208,1.24152 5.89337,-3.47199 -1.8746,-4.88492 -3.9999,-5.21792 -10.7887,-1.69057 -11.84367,6.15389 -11.806,6.07252 -5.90186,12.74969 7.21261,8.15693 8.26942,7.76057 5.18867,-1.94615 z m 445.69443,2.9461 c 5.66359,1.80853 5.7696,1.4992 0.72902,-2.12677 -8.46358,-6.08824 -11.84091,-5.3479 -11.48602,2.51789 0.17039,3.78471 1.16968,4.76885 2.22009,2.18707 1.05042,-2.58186 4.89193,-3.74208 8.53691,-2.57819 z m -451.46946,-24.41947 c 0,-4.81491 3.04698,-9.9236 6.77108,-11.35267 5.80038,-2.22587 5.94131,-3.12303 0.98304,-6.25869 -8.55985,-5.41333 -11.6792,-4.59001 -11.74649,3.10043 -0.0498,5.70829 -0.67607,5.90783 -3.67272,1.17073 -1.98679,-3.14077 -2.73167,-7.13566 -1.65518,-8.87756 1.07663,-1.74168 -0.87818,-6.0026 -4.34396,-9.46827 -5.7803,-5.78031 -6.21979,-5.09092 -5.31542,8.3377 0.54238,8.05149 3.40756,15.56839 6.3674,16.70413 2.95984,1.13587 4.59699,5.06509 3.63814,8.73181 -1.00925,3.85907 0.51328,6.66669 3.61536,6.66669 2.94729,0 5.35872,-3.93948 5.35872,-8.75436 z m 455.26523,-21.53244 c -0.43674,-15.35823 -6.99894,-19.74565 -6.99894,-4.67934 0,9.78911 2.58448,16.61605 6.2906,16.61605 0.57619,0 0.89496,-5.37154 0.70831,-11.93671 z m -415.94363,0.37225 c 0,-4.6394 -7.6691,-9.60234 -10.48576,-6.7857 -2.81666,2.81671 2.14618,10.48578 6.78565,10.48578 2.03503,0 3.70011,-1.66514 3.70011,-3.70008 z m -39.3216,-19.6608 c 0,-2.03503 -2.04289,-4.96268 -4.53971,-6.50579 -2.68325,-1.65832 -3.47723,-1.08659 -1.9417,1.39828 1.42895,2.31211 0.37539,5.10004 -2.34147,6.19535 -2.98005,1.20141 -2.20987,2.11472 1.94144,2.30189 3.78471,0.17039 6.88128,-1.3545 6.88128,-3.38963 z m -12.86144,-6.53992 c -1.30653,-1.30653 -4.69812,-1.44625 -7.53664,-0.31038 -3.13682,1.25515 -2.20516,2.18707 2.37581,2.37555 4.14515,0.17039 6.46759,-0.75864 5.16096,-2.06517 z m 504.3815,-5.48864 c 0,-2.16269 -1.87381,-3.93216 -4.16424,-3.93216 -2.29035,0 -3.07062,1.76947 -1.73408,3.93216 1.33667,2.16269 3.21053,3.93216 4.16424,3.93216 0.95368,0 1.73408,-1.76947 1.73408,-3.93216 z m -501.35046,-3.93216 c -2.1855,-3.53635 2.9756,-5.63539 10.81344,-4.39781 1.62215,0.2569 2.94912,-3.95803 2.94912,-9.36475 0,-6.43192 -2.19755,-9.8304 -6.35686,-9.8304 -4.35023,0 -5.72863,2.40229 -4.36669,7.61038 1.15055,4.39996 -0.31457,8.4948 -3.47354,9.70696 -6.39259,2.45314 -7.3798,10.20778 -1.29945,10.20778 2.29035,0 3.07065,-1.76947 1.73408,-3.93216 z m 459.51867,-5.89824 c 1.24492,-3.24403 0.54945,-5.89824 -1.54534,-5.89824 -2.09479,0 -3.80877,2.65421 -3.80877,5.89824 0,3.24403 0.69547,5.89824 1.54534,5.89824 0.84987,0 2.56377,-2.65421 3.80874,-5.89824 z m -436.51815,-3.80617 c 1.21818,-3.17478 0.89024,-6.59117 -0.72903,-7.59193 -1.61926,-1.00087 -3.20151,1.59672 -3.51603,5.77233 -0.68026,9.03044 1.17336,9.8249 4.24516,1.81954 z m -27.94023,-8.63655 c -2.71684,-1.09524 -4.01508,-3.48756 -2.88498,-5.3161 1.13011,-1.82845 0.41183,-4.34003 -1.59645,-5.5811 -2.87478,-1.77681 -3.22063,4.32365 -0.71015,12.52653 0.16515,0.5408 2.51265,0.84332 5.21606,0.67266 3.90603,-0.24641 3.90099,-0.71932 -0.0244,-2.30188 z m 25.32054,-13.85355 c -1.25514,-3.13682 -2.18707,-2.20516 -2.37581,2.37555 -0.17039,4.14512 0.75865,6.46759 2.06517,5.16096 1.30653,-1.30679 1.44625,-4.69815 0.31038,-7.53664 z m -10.55043,-3.19488 c 0,-2.16269 -1.87381,-3.93216 -4.16424,-3.93216 -2.29035,0 -3.07062,1.76947 -1.73408,3.93216 1.33667,2.16269 3.21053,3.93216 4.16424,3.93216 0.95368,0 1.73408,-1.76947 1.73408,-3.93216 z m 455.81125,-7.41579 8.08043,-11.34798 -9.77879,-1.86935 c -5.37833,-1.02813 -9.77876,-0.34525 -9.77876,1.51755 0,1.8628 2.21198,3.44069 4.9152,3.50646 2.72782,0.0655 1.85284,1.90317 -1.96608,4.12757 -7.20238,4.19498 -9.54374,15.41367 -3.21687,15.41367 2.01536,0 7.30061,-5.10656 11.74487,-11.34795 z m -474.57306,-16.85107 c -2.5095,-2.50924 -3.84811,-0.11796 -3.84811,6.8762 0,9.05621 0.59847,9.65476 3.84811,3.84809 2.50925,-4.484 2.50925,-8.21491 0,-10.72429 z m 32.70108,0.46924 c 0.0839,-6.37542 -1.35187,-11.59182 -3.19249,-11.59182 -1.84052,0 -2.26545,-1.74929 -0.94425,-3.887155 1.32121,-2.137785 0.0996,-3.000238 -2.71704,-1.916273 -2.81569,1.083966 -5.59295,8.868828 -6.17171,17.299648 -0.89181,12.99309 0.009,15.05142 5.90954,13.50828 4.62385,-1.20927 7.01356,-5.71343 7.11593,-13.41257 z m -9.69668,1.84287 c 0.18874,-4.58075 1.1204,-5.51249 2.37555,-2.37581 1.13587,2.8385 0.99615,6.22999 -0.31038,7.53667 -1.30652,1.30652 -2.23609,-1.01581 -2.06517,-5.16099 z m 478.16707,-6.30765 c -1.25514,-3.13682 -2.18707,-2.20516 -2.37555,2.37581 -0.17039,4.1451 0.75865,6.46756 2.06517,5.16093 1.30653,-1.30679 1.44625,-4.69812 0.31038,-7.53664 z m -37.73969,-1.02132 c 1.97787,1.22238 3.59632,0.15991 3.59632,-2.36218 0,-2.56534 -2.73974,-3.53359 -6.21986,-2.19807 -3.4209,1.31255 -7.06428,2.38655 -8.09635,2.38655 -1.03206,0 -0.56334,2.12468 1.0415,4.72153 2.26729,3.66847 3.27091,3.66302 4.50005,-0.0236 0.87005,-2.61043 3.20038,-3.74585 5.17834,-2.5234 z M -228.98675,92.310828 c 0,-5.279082 -1.76947,-9.598325 -3.93216,-9.598325 -2.16269,0 -3.93216,5.412855 -3.93216,12.028558 0,7.017729 1.63814,11.016179 3.93216,9.598329 2.16269,-1.33668 3.93216,-6.749479 3.93216,-12.028562 z m 473.28123,8.096392 c -1.24492,-3.244027 -4.94493,-5.898236 -8.22238,-5.898236 -4.85106,0 -5.0489,1.096549 -1.06405,5.898236 2.6923,3.24404 6.39241,5.89825 8.22239,5.89825 1.83002,0 2.3087,-2.65421 1.06404,-5.89825 z m 34.94778,-7.95819 c 1.04334,-5.458284 0.0917,-11.040117 -2.11524,-12.404026 -2.29769,-1.420034 -2.81338,-0.539754 -1.20665,2.059928 1.70997,2.766721 0.0262,4.660947 -4.30763,4.850163 -3.91234,0.170393 -5.00092,1.169686 -2.41906,2.220097 2.58186,1.050411 3.71967,4.449554 2.52838,7.55389 -1.19118,3.104257 -0.4134,5.644168 1.72858,5.644168 2.14197,0 4.74818,-4.465909 5.79157,-9.924246 z m -497.19194,-3.942331 c -1.21058,-1.210581 -3.40936,0.971768 -4.88602,4.849664 -2.13385,5.604089 -1.68218,6.055763 2.20122,2.201224 2.68732,-2.667316 3.89546,-5.840202 2.6848,-7.050862 z m 477.05241,3.053165 c 4.77485,-6.088452 4.67542,-6.318903 -0.8635,-2.000159 -3.443,2.684591 -7.708,3.569327 -9.47776,1.96608 -1.76974,-1.603272 -1.94485,-0.70307 -0.38929,2.000159 3.6561,6.353139 4.29822,6.235489 10.73037,-1.96608 z M 227.43878,89.49548 c -0.48628,-4.701684 -5.87974,-3.791153 -7.56941,1.277952 -0.86508,2.595226 0.5505,4.010804 3.14573,3.145728 2.59522,-0.865075 4.58586,-2.855744 4.42368,-4.42368 z M -200.9743,73.444427 c 2.24474,-20.702038 1.86279,-34.499228 -1.00349,-36.270824 -3.20542,-1.981022 -3.82442,1.263272 -4.93748,25.878098 -0.2438,5.406721 -1.86359,12.021978 -3.59788,14.700565 -2.17737,3.362653 -1.26432,4.145284 2.94912,2.52838 3.35636,-1.287914 6.32176,-4.364279 6.58981,-6.836271 z m 453.16466,0.526386 c 3.28283,-5.207832 2.80809,-7.937223 -2.0518,-11.796482 -3.47758,-2.761556 -7.5601,-10.311671 -9.07228,-16.778056 -1.51231,-6.466385 -4.82104,-13.255418 -7.3529,-15.086703 -2.82628,-2.044199 -1.18778,-2.58107 4.2439,-1.390674 4.86605,1.066402 8.84736,0.335544 8.84736,-1.625031 3e-5,-1.960051 -2.65418,-3.56377 -5.89822,-3.56377 -3.24403,0 -7.22534,-0.02359 -8.84736,-0.04981 -1.62214,-0.02621 -3.14766,3.464967 -3.39036,7.761534 -0.24379,4.296515 0.88317,6.993269 2.50217,5.992796 1.61874,-1.000604 3.86353,1.700004 4.98828,6.001027 1.34271,5.134589 0.0996,7.820097 -3.62343,7.820097 -4.46929,0 -4.7689,1.680868 -1.4161,7.945586 4.98393,9.312588 2.18707,15.535389 -7.15685,15.923755 -5.34553,0.222823 -5.10732,0.878445 1.21504,3.346819 12.03225,4.697752 22.29176,2.988495 27.01258,-4.500462 z m -441.85551,0.877396 c 0,-2.162689 -1.8738,-3.932161 -4.16423,-3.932161 -2.29036,0 -3.07063,1.769472 -1.73409,3.932161 1.33668,2.162688 3.21053,3.93216 4.16424,3.93216 0.95368,0 1.73408,-1.769472 1.73408,-3.93216 z M 252.70291,55.187407 c 1.33667,-2.162688 0.55627,-3.932161 -1.73409,-3.932161 -2.29035,0 -4.16423,1.769473 -4.16423,3.932161 0,2.162688 0.7804,3.93216 1.73408,3.93216 0.95368,0 2.82762,-1.769472 4.16424,-3.93216 z m -418.7751,-1.484522 c 0,-0.816578 -2.6542,-3.687396 -5.89824,-6.379694 -4.83068,-4.0091 -5.89824,-3.740428 -5.89824,1.484521 0,3.508824 2.65421,6.379695 5.89824,6.379695 3.24404,0 5.89824,-0.667943 5.89824,-1.484522 z M 254.66899,41.657026 c 0,-0.95368 -1.76948,-2.827616 -3.93216,-4.164236 -2.16269,-1.336672 -3.93216,-0.55627 -3.93216,1.734083 0,2.290352 1.76947,4.164236 3.93216,4.164236 2.16268,0 3.93216,-0.780403 3.93216,-1.734083 z m 15.72864,-10.062477 c 0,-2.162688 -1.87381,-3.93216 -4.16424,-3.93216 -2.29035,0 -3.07062,1.769472 -1.73408,3.93216 1.33667,2.162689 3.21053,3.932161 4.16424,3.932161 0.95368,0 1.73408,-1.769472 1.73408,-3.932161 z M 226.86746,6.7864708 c -0.26634,-8.3061383 -0.39767,-8.3331129 -3.65576,-0.7510426 -4.65088,10.8231928 -4.65088,14.6708908 0,11.7964808 2.16269,-1.336672 3.80778,-6.307106 3.65576,-11.0455168 z m 41.56409,9.0794372 c -1.33667,-2.162688 -0.99877,-3.933419 0.75104,-3.934966 1.74955,-0.0015 3.43639,-4.4251742 3.74824,-9.8304005 0.31195,-5.4051739 -1.11962,-9.827596 -3.18122,-9.827596 -2.0615,0 -2.65468,1.7694721 -1.31806,3.9321603 1.33667,2.1626883 0.11534,3.93216043 -2.71705,3.93216043 -2.86898,0 -5.14727,4.35111897 -5.14727,9.83040097 0,5.4792558 2.27829,9.8304008 5.14727,9.8304008 2.831,0 4.05367,-1.769472 2.71705,-3.93216 z M 241.56178,6.2084694 c 0,-3.1489002 -1.47456,-4.8139342 -3.2768,-3.7000842 -1.80224,1.1138499 -3.2768,3.6902276 -3.2768,5.7252779 0,2.0350239 1.47456,3.7000839 3.27678,3.7000839 1.80224,0 3.27682,-2.5763511 3.27682,-5.7252776 z M -151.93413,-4.4025964 c 1.67458,-2.7095207 1.08502,-3.476292 -1.46224,-1.9018549 -2.3475,1.450705 -5.44835,0.7279739 -6.891,-1.6064186 -3.34816,-5.4174161 9.18138,-19.4581381 17.43462,-19.5373841 5.01848,-0.04719 5.20571,-0.735839 0.9369,-3.440641 -3.71906,-2.356412 -4.01683,-4.195143 -0.98304,-6.070102 4.85082,-2.997905 6.02942,-10.648946 1.40273,-9.106752 -1.62214,0.540803 -2.94912,-0.786432 -2.94912,-2.949121 0,-2.162688 1.32698,-3.489792 2.94912,-2.94912 1.62215,0.540541 2.94912,-2.408317 2.94912,-6.553627 0,-4.145126 2.21171,-8.429136 4.9152,-9.519944 2.70336,-1.090781 0.93376,-2.123104 -3.93216,-2.29376 -5.52447,-0.193986 -8.84736,1.992033 -8.84736,5.819886 0,3.37167 -1.69214,5.084467 -3.76043,3.8062 -2.06831,-1.278214 -2.76365,-4.921597 -1.54534,-8.096397 1.35031,-3.518811 -0.1232,-5.77228 -3.77747,-5.77228 -4.51765,0 -5.69573,3.629174 -4.78659,14.745601 1.27297,15.564146 -3.40444,28.386686 -12.2632,33.618739 -2.92831,1.729365 -5.3242,6.699982 -5.3242,11.045518 0,4.345561 1.76947,6.8074081 3.93216,5.4707882 2.16269,-1.3366722 3.93216,-0.4519362 3.93216,1.9660802 0,2.4180165 1.64732,3.3782763 3.66045,2.1341145 2.01327,-1.2443977 4.77189,-0.4639949 6.13032,1.7340827 3.17965,5.1448125 4.83092,5.0364421 8.27945,-0.5434245 z m -20.0363,-15.1210706 c -1.33667,-2.162688 -0.55627,-3.93216 1.73409,-3.93216 2.29035,0 4.16423,1.769472 4.16423,3.93216 0,2.162688 -0.7804,3.932161 -1.73408,3.932161 -0.95368,0 -2.82762,-1.769473 -4.16424,-3.932161 z m 375.44536,-9.381007 c -1.92466,-2.000421 -5.95368,-0.879756 -9.46657,2.633132 -4.44982,4.449842 -4.80966,6.551346 -1.32094,7.714243 6.49039,2.163475 14.98488,-5.984434 10.78749,-10.347375 z m 35.46541,1.378353 c 0,-5.261519 -11.89751,-23.454629 -15.33825,-23.454629 -1.45044,0 -2.63735,3.409026 -2.63735,7.575622 0,4.166595 1.26301,6.795114 2.80646,5.841145 1.5435,-0.953942 3.93782,1.830028 5.3206,6.18694 2.60152,8.196588 9.84854,11.03026 9.84854,3.850922 z m -47.18592,-7.725987 c 0,-4.325377 -1.39303,-7.864321 -3.0954,-7.864321 -1.70236,0 -3.36197,3.538944 -3.68779,7.864321 -0.32584,4.325376 1.06719,7.86432 3.0954,7.86432 2.02821,0 3.68779,-3.538944 3.68779,-7.86432 z m 75.56818,-2.99109 c -2.66105,-0.887095 -3.8381,-3.231135 -2.61567,-5.20909 1.22237,-1.977877 0.55522,-3.596301 -1.48295,-3.596301 -2.03817,0 -4.57242,3.314601 -5.63185,7.365827 -1.53957,5.887205 -0.27053,6.932871 6.32126,5.20909 4.53611,-1.186201 6.07023,-2.882509 3.40918,-3.769526 z m -511.47478,-4.441926 c -3.54673,-2.24736 -3.93381,-4.246418 -1.15474,-5.963986 4.9065,-3.032351 1.57444,-14.128121 -4.24278,-14.128121 -2.41356,0 -2.1716,2.19467 0.61159,5.548147 3.20195,3.858157 3.32909,6.336493 0.41733,8.136059 -5.03364,3.110942 -1.55583,9.933083 5.02045,9.848542 3.13367,-0.03932 2.91798,-1.1786 -0.65195,-3.440614 z M 223.2117,-60.983553 c 0,-2.395472 -4.42368,-8.511004 -9.8304,-13.590359 -10.41849,-9.787645 -13.96669,-7.506678 -3.93216,2.527855 6.44185,6.441822 8.13008,15.044288 2.23766,11.402662 -2.01326,-1.244398 -4.7646,-0.475792 -6.11411,1.707868 -1.44756,2.342257 1.6654,3.629227 7.59261,3.138651 5.52555,-0.457442 10.0464,-2.791362 10.0464,-5.186677 z m 9.8304,2.138309 c 1.33668,-2.162689 0.55627,-3.932161 -1.73408,-3.932161 -2.29035,0 -4.16424,1.769472 -4.16424,3.932161 0,2.162688 0.78041,3.93216 1.73409,3.93216 0.95368,0 2.82761,-1.769472 4.16423,-3.93216 z M -91.008004,-89.306747 c 6.293842,-5.940367 11.443347,-13.018253 11.443347,-15.728643 0,-5.88686 -14.210487,-6.63342 -17.734358,-0.93166 -1.35843,2.19808 -4.117055,2.97827 -6.130315,1.73408 -2.01327,-1.24439 -3.66045,2.45498 -3.66045,8.220815 0,7.702866 -1.56421,9.882882 -5.89824,8.219788 -5.99369,-2.300052 -8.05304,1.888485 -3.2768,6.664854 5.24451,5.244506 14.05855,2.390229 25.256816,-8.179208 z m -94.724986,1.390936 c 0,-0.849871 -2.74611,-2.599158 -6.10247,-3.887124 -3.49931,-1.342702 -5.07768,-0.683672 -3.70009,1.545339 2.30923,3.736391 9.80256,5.526468 9.80256,2.341733 z M -10.590149,-90.5642 c 4.2320529,-6.847595 -0.587989,-8.297802 -5.981078,-1.799618 -3.101479,3.737072 -3.399772,5.993267 -0.792462,5.993267 2.29979,0 5.347922,-1.887174 6.773461,-4.19378 z m -228.971731,-10.09152 c -1.30207,-3.39306 -0.0114,-7.6252 2.86802,-9.40479 4.31968,-2.66972 4.24796,-4.45165 -0.41,-10.18835 -4.94445,-6.08951 -4.91305,-6.5433 0.25166,-3.655 4.79687,2.68197 4.98042,2.30896 0.98304,-1.9978 -6.85549,-7.38586 -6.13548,-12.89659 1.31151,-10.03886 3.98988,1.53119 5.57905,0.62286 4.42368,-2.52838 -0.99169,-2.70483 -3.87779,-4.44751 -6.41346,-3.87262 -2.53572,0.57488 -4.084,-1.89583 -3.44064,-5.4903 0.6433,-3.59457 -1.28005,-7.38826 -4.27423,-8.43044 -4.34648,-1.51284 -5.07703,2.5289 -3.62399,20.05087 1.16418,14.03962 0.4058,21.07174 -2.10554,19.51966 -2.2665,-1.4009 -2.94209,0.13632 -1.59855,3.63804 1.27978,3.33528 0.54159,7.84951 -1.6405,10.03165 -2.66855,2.66854 -2.369,4.955383 0.91488,6.984928 3.32478,2.054947 4.01456,1.25567 2.16217,-2.50531 -1.49606,-3.037518 -0.5256,-2.543588 2.15666,1.097335 5.79873,7.871425 11.80875,5.583537 8.43409,-3.210683 z m 215.047479,0.52271 c 0,-3.24403 -0.695468,-5.89824 -1.545339,-5.89824 -0.849871,0 -2.564031,2.65421 -3.808743,5.89824 -1.244922,3.244035 -0.549454,5.898243 1.545339,5.898243 2.094793,0 3.808743,-2.654208 3.808743,-5.898243 z m -169.082909,-1.96608 c 0,-2.16269 -0.7804,-3.93216 -1.73408,-3.93216 -0.95368,0 -2.82759,1.76947 -4.16421,3.93216 -1.33667,2.162691 -0.55627,3.932163 1.73408,3.932163 2.29035,0 4.16424,-1.769472 4.16424,-3.932163 z m 333.3211,-11.79648 c -2.70124,-4.32537 -6.25518,-7.86432 -7.89767,-7.86432 -4.96302,0 -3.34698,10.99558 1.92886,13.12445 9.42557,3.80332 10.84678,2.55092 5.96873,-5.26013 z m -321.52462,-2.44764 c 0,-4.89121 -1.23129,-5.35788 -5.27698,-2.00016 -5.61371,4.65896 -11.65831,1.71705 -8.14663,-3.96503 3.79884,-6.14662 13.62727,-3.51821 16.56777,4.43073 2.88461,7.79779 2.90115,7.79779 7.77094,0 3.99812,-6.40205 3.88414,-7.81446 -0.63071,-7.81446 -3.03097,0 -6.52938,-2.65421 -7.77423,-5.89824 -1.24492,-3.24403 -0.54945,-5.89824 1.54534,-5.89824 2.0948,0 3.80875,-1.95874 3.80875,-4.35285 0,-2.39416 -2.65421,-3.33434 -5.89825,-2.08955 -3.24403,1.24492 -5.89824,0.54946 -5.89824,-1.54534 0,-2.09479 2.10764,-3.80874 4.68371,-3.80874 2.57608,0 1.24885,-2.78554 -2.94913,-6.19009 -7.39246,-5.99515 -7.33397,-6.12528 1.85703,-4.13228 9.04604,1.96163 9.16194,1.74536 2.47779,-4.62335 -5.19837,-4.95298 -7.48566,-5.40345 -8.84264,-1.74143 -1.00664,2.71684 -3.89119,3.70426 -6.40984,2.19441 -3.42568,-2.05363 -3.4683,-1.31701 -0.1704,2.92461 2.42562,3.11852 3.9093,8.7666 3.29707,12.5513 -0.61211,3.7847 0.20447,6.88128 1.81561,6.88128 5.29399,0 3.05604,11.40924 -2.66887,13.60612 -8.02229,3.07843 -12.81383,-1.00611 -9.94632,-8.47887 1.646,-4.2897 0.93743,-5.47469 -2.13778,-3.57415 -6.48956,4.01075 -5.7181,11.17719 2.28091,21.18803 8.06541,10.09393 20.64384,11.51756 20.64384,2.33649 z m -74.71104,0.71356 c 0,-0.95368 -1.76948,-2.82762 -3.93216,-4.16424 -2.16269,-1.33667 -3.93217,-0.55627 -3.93217,1.73409 0,2.29035 1.76948,4.16423 3.93217,4.16423 2.16268,0 3.93216,-0.7804 3.93216,-1.73408 z m 361.75876,-3.70562 c 0,-0.82916 -3.54138,-2.43348 -7.869746,-3.56544 -4.328364,-1.13194 -6.878134,-0.45351 -5.666164,1.50759 2.116551,3.42441 13.53591,5.16062 13.53591,2.05783 z m 19.6608,-8.32294 c 0,-5.40672 -1.39303,-9.8304 -3.09576,-9.8304 -1.70263,0 -3.51,-5.43624 -4.01626,-12.08051 -0.56492,-7.41239 0.63151,-11.12139 3.09574,-9.59835 2.20909,1.36524 4.01628,-0.14681 4.01628,-3.3598 0,-3.2131 -3.09657,-6.6512 -6.88128,-7.64024 -6.25032,-1.63342 -6.21659,-1.83999 0.36805,-2.25444 4.18469,-0.26319 8.11884,2.86856 9.30596,7.40819 2.45078,9.3721 7.26354,10.2064 10.48275,1.81718 1.29551,-3.37597 -0.14681,-6.99353 -3.26317,-8.18974 -3.07102,-1.17834 -4.62131,-4.65041 -3.44518,-7.71548 1.17624,-3.06504 1.00637,-8.5229 -0.37696,-12.12859 -1.91732,-4.99662 -3.60724,-5.46421 -7.10536,-1.96608 -2.52445,2.52445 -8.65962,4.58978 -13.6338,4.58978 -10.09213,0 -11.495592,3.82169 -4.12877,11.24301 3.94239,3.97154 3.46345,4.3986 -2.41985,2.15771 -6.289412,-2.39547 -6.927103,-1.44782 -4.473225,6.64831 1.573915,5.19321 4.432355,11.12319 6.351955,13.17775 1.91968,2.05442 3.46314,5.5935 3.43003,7.86432 -0.0315,2.27069 -1.57549,1.73775 -3.42738,-1.18489 -2.38367,-3.76156 -3.8974,-1.70106 -5.18243,7.0544 -0.998243,6.8024 -0.0682,13.44822 2.06884,14.76851 2.26152,1.39775 2.73293,0.0944 1.12827,-3.12227 -1.51572,-3.03751 0.19661,-1.5414 3.80421,3.32462 8.7684,11.82576 17.39734,11.33817 17.39734,-0.98304 z m -33.47107,-13.83976 c -2.204369,-3.56676 -3.665665,-3.458 -6.082606,0.45272 -4.145756,6.70801 -0.0734,13.29852 5.051882,8.17407 2.162688,-2.16269 2.626473,-6.04472 1.03075,-8.62676 z m 83.26861,-1.62451 c -5.36397,-13.9783 -10.19237,-4.63148 -6.87145,13.30158 0.18088,0.97308 2.33203,-0.23593 4.78195,-2.6848 2.44974,-2.44973 3.39015,-7.22744 2.08955,-10.61683 z m -132.372905,1.70158 c 0,-2.16269 -1.873805,-3.93216 -4.164236,-3.93216 -2.290352,0 -3.070624,1.76947 -1.734083,3.93216 1.336673,2.16269 3.210504,3.93216 4.164237,3.93216 0.95368,0 1.734082,-1.76947 1.734082,-3.93216 z m 28.782182,-9.63917 c 7.104785,-7.99869 7.138366,-7.97691 4.7576,3.08735 -1.557398,7.23709 -0.964166,10.25694 1.69214,8.61531 2.249195,-1.39015 4.089682,-5.81742 4.089682,-9.83829 0,-11.76804 4.400035,-19.90874 9.259373,-17.13124 2.476737,1.41558 3.19142,1.12591 1.588068,-0.64383 -1.603272,-1.76973 -0.944242,-5.5924 1.464599,-8.49475 3.399772,-4.0965 2.732406,-5.26351 -2.983251,-5.21677 -4.04947,0.0341 -10.016917,1.7755 -13.260949,3.87195 -5.242881,3.38821 -5.242881,3.84914 0,4.14832 3.973396,0.22544 3.331746,1.43943 -1.96608,3.716 -4.325377,1.8586 -5.526101,3.50379 -2.668233,3.65578 4.227361,0.22544 4.196428,1.19275 -0.165151,5.19158 -2.949199,2.70336 -8.72106,6.81108 -12.826366,9.12827 -4.105333,2.31709 -8.159784,6.29972 -9.009864,8.85004 -2.28511,6.85522 11.441485,0.72849 20.02935,-8.93972 z m -272.576137,1.77498 c 0,-2.16269 -1.8738,-3.93216 -4.16424,-3.93216 -2.29035,0 -3.07062,1.76947 -1.73408,3.93216 1.33667,2.16269 3.21051,3.93216 4.16421,3.93216 0.95368,0 1.73408,-1.76947 1.73408,-3.93216 z m 352.37278,-6.88128 c -1.38727,4.41207 -0.0917,6.88128 3.61114,6.88128 6.41998,0 7.898,-10.02017 2.01431,-13.65642 -2.06831,-1.27821 -2.75592,-4.94168 -1.5283,-8.14099 1.58178,-4.12216 0.38614,-5.10853 -4.10386,-3.38554 -3.48474,1.3372 -6.33594,4.75155 -6.33594,7.58732 0,2.83577 -1.12277,8.39723 -2.49509,12.35883 -2.21774,6.40224 -1.74509,6.32873 4.25315,-0.66139 5.64997,-6.5844 6.39614,-6.74439 4.58459,-0.98304 z m -86.885253,-5.02313 c 1.050673,-1.7 -1.658585,-2.15744 -6.020767,-1.01685 -4.36205,1.14059 -8.790633,3.46486 -9.84128,5.16481 -1.050673,1.7 1.658848,2.15745 6.020793,1.01686 4.362077,-1.14059 8.790659,-3.46486 9.841254,-5.16482 z m -251.086327,-17.34043 c -1.25987,-3.28333 0.62364,-6.38793 4.49451,-7.40819 3.97966,-1.04884 2.44842,-1.94013 -3.80216,-2.2125 -9.6695,-0.42152 -11.16422,2.41514 -7.53009,14.28947 0.16515,0.54055 2.25968,0.98304 4.65371,0.98304 2.39416,0 3.37689,-2.54332 2.18392,-5.65187 z m -53.7228,-16.25574 c 0,-3.39851 -2.74365,-8.92275 -6.097,-12.27608 -5.50788,-5.50789 -5.91906,-5.00583 -4.25549,5.19605 2.33125,14.29652 1.82898,13.25914 6.42033,13.25914 2.16269,0 3.93216,-2.78059 3.93216,-6.17911 z m 55.05024,-11.28354 c 0,-0.95368 -1.76947,-2.82761 -3.93216,-4.16422 -2.16269,-1.33668 -3.93216,-0.55627 -3.93216,1.73408 0,2.29035 1.76947,4.16422 3.93216,4.16422 2.16269,0 3.93216,-0.7804 3.93216,-1.73408 z m -51.11808,-25.79109 c 0,-2.16269 -1.76947,-3.93216 -3.93216,-3.93216 -2.16269,0 -3.93216,1.76947 -3.93216,3.93216 0,2.16266 1.76947,3.93214 3.93216,3.93214 2.16269,0 3.93216,-1.76947 3.93216,-3.93214 z m -4.99712,-37.76513 c -1.30653,-1.30663 -4.69812,-1.44633 -7.53664,-0.31046 -3.13682,1.25525 -2.20516,2.18699 2.37555,2.37568 4.14515,0.17066 6.46759,-0.75862 5.16096,-2.06525 z m 16.7936,-33.24583 c 0,-2.03505 -2.65421,-3.70009 -5.89824,-3.70009 -6.08075,0 -7.81205,4.6398 -3.3837,9.06814 3.14153,3.14152 9.28194,-0.40968 9.28194,-5.36805 z m 58.9824,-2.15472 c 0,-0.84995 -2.6542,-1.54539 -5.89824,-1.54539 -3.24403,0 -5.89824,1.71393 -5.89824,3.80875 0,2.09482 2.65421,2.79024 5.89824,1.54539 3.24404,-1.24484 5.89824,-2.95879 5.89824,-3.80875 z m -58.9824,-13.34186 c 0,-4.32537 -1.39303,-7.86432 -3.09537,-7.86432 -1.70236,0 -3.36197,3.53895 -3.68779,7.86432 -0.32585,4.32538 1.06719,7.86432 3.09537,7.86432 2.02821,0 3.68779,-3.53894 3.68779,-7.86432 z m 0.50148,-18.67776 c 4.89111,-6.23663 4.75202,-6.37571 -1.48452,-1.4846 -3.78471,2.96817 -6.88128,6.06474 -6.88128,6.88128 0,3.2363 3.22904,1.15333 8.36588,-5.39667 z m 44.50579,-13.2761 c -1.37023,-6.53695 0.076,-12.56711 3.93913,-16.43081 9.27031,-9.2703 7.30058,-11.56316 -3.72656,-4.3379 -5.40672,3.54262 -9.88668,9.33419 -9.95547,12.87017 -0.1101,5.693 -0.73085,5.63074 -5.41566,-0.54384 -5.01413,-6.60848 -5.39752,-6.56413 -7.33599,0.84861 -1.21871,4.66062 -0.22282,7.47855 2.46651,6.97288 2.48146,-0.46672 4.51192,1.80559 4.51192,5.04963 0,3.24403 2.64299,7.95925 5.87334,10.47825 7.88587,6.14939 12.54626,-1.05523 9.64273,-14.907 z m 13.97513,8.36091 c 0,-2.16269 -0.7804,-3.93217 -1.73408,-3.93217 -0.95368,0 -2.82759,1.76948 -4.16421,3.93217 -1.33667,2.16268 -0.55627,3.93216 1.73408,3.93216 2.29036,0 4.16424,-1.76948 4.16424,-3.93216 z m -3.93216,-19.66081 c 0,-2.16268 -0.7804,-3.93216 -1.73408,-3.93216 -0.95368,0 -2.82759,1.76948 -4.16421,3.93216 -1.33667,2.16269 -0.55627,3.93216 1.73408,3.93216 2.29036,0 4.16424,-1.76947 4.16424,-3.93216 z m -70.77888,-15.83729 c 0,-1.96718 -2.64404,-2.56207 -5.87565,-1.32199 -3.23163,1.24007 -4.87881,3.86762 -3.66047,5.83897 2.5483,4.1232 9.53612,0.81327 9.53612,-4.51699 z m 69.62778,-32.28583 c -0.94057,-4.89126 -1.74588,-1.81532 -1.78939,6.83544 -0.0446,8.65075 0.72588,12.6527 1.71023,8.89321 0.98408,-3.75949 1.02,-10.83738 0.0786,-15.72865 z m -70.87383,8.06424 c -1.25515,-3.13682 -2.18707,-2.20505 -2.37555,2.37568 -0.17039,4.14515 0.75864,6.46758 2.06517,5.16096 1.30653,-1.30663 1.44625,-4.69811 0.31038,-7.53664 z m 54.33021,4.66944 c -1.33667,-2.16269 -4.09524,-3.93216 -6.13031,-3.93216 -2.03503,0 -3.70009,1.76947 -3.70009,3.93216 0,2.16269 2.75865,3.93216 6.13029,3.93216 3.37167,0 5.03673,-1.76947 3.70011,-3.93216 z m 20.8896,842.72835 c 2.83853,-1.13587 6.23001,-0.99615 7.53665,0.31038 1.30652,1.30652 -1.01581,2.23608 -5.16097,2.06517 -4.58073,-0.18875 -5.51249,-1.12041 -2.37554,-2.37555 z m 0.73715,-18.94077 c 0,-3.24404 1.58021,-5.89824 3.51148,-5.89824 1.93121,0 4.52997,2.6542 5.77482,5.89824 1.37861,3.59284 0.006,5.89824 -3.51147,5.89824 -3.17617,0 -5.77483,-2.65421 -5.77483,-5.89824 z m -1.71337,-66.03327 c 1.47666,-3.878 3.67536,-6.06035 4.88602,-4.84966 1.21059,1.21058 0.002,4.38354 -2.68482,7.05088 -3.88346,3.85452 -4.33513,3.40287 -2.20123,-2.20122 z m 1.71337,-26.60458 c 0,-2.29035 1.76948,-3.07062 3.93216,-1.73408 2.16269,1.33667 3.93216,3.21053 3.93216,4.16424 0,0.95368 -1.76947,1.73408 -3.93216,1.73408 -2.16268,0 -3.93216,-1.87381 -3.93216,-4.16424 z m -105.8579,-25.65462 c 0.18875,-4.58078 1.12041,-5.51252 2.37555,-2.37581 1.13587,2.8385 0.99615,6.22998 -0.31038,7.53664 -1.30652,1.30653 -2.23608,-1.01581 -2.06517,-5.16093 z m 558.33274,-31.95764 c 0.15204,-1.70734 1.61192,-6.51372 3.24455,-10.68098 2.29403,-5.85574 3.45905,-6.29764 5.12914,-1.94537 1.18856,3.09729 -0.27132,7.90372 -3.24453,10.68096 -2.97303,2.77726 -5.28118,3.65266 -5.12916,1.94537 z m -561.58358,-18.83279 c 0.0446,-8.65075 0.84882,-11.7267 1.78939,-6.83543 0.94057,4.89124 0.90492,11.96913 -0.0786,15.72864 -0.98409,3.75949 -1.75375,-0.24117 -1.70997,-8.89321 z m 104.18054,5.04182 c -2.41854,-6.30292 5.82987,-12.65996 10.44214,-8.04769 3.74135,3.74134 2.72045,9.59688 -1.24571,7.1456 -1.97787,-1.22238 -4.30744,-0.0891 -5.17661,2.51815 -1.02682,3.08014 -2.43479,2.51396 -4.01971,-1.61612 z m 2.96225,-18.80438 c -1.33667,-2.16269 0.32847,-3.93216 3.70009,-3.93216 3.37167,0 6.13032,1.76947 6.13032,3.93216 0,2.16269 -1.66514,3.93216 -3.70012,3.93216 -2.03502,0 -4.79367,-1.76947 -6.13029,-3.93216 z m 453.25403,-4.59455 c 2.28485,-2.28511 6.47556,-3.38082 9.31238,-2.43531 2.94501,0.98172 1.16261,2.76407 -4.15451,4.15451 -6.54057,1.71049 -8.07579,1.19852 -5.15787,-1.71941 z m -6.49768,-18.01537 c -0.28076,-5.44563 1.81168,-8.84736 5.44211,-8.84736 3.24403,0 5.89824,1.8738 5.89824,4.16423 0,2.29035 -1.63552,3.15339 -3.63457,1.91785 -1.99912,-1.23549 -4.44793,0.87189 -5.44211,4.68317 -1.37547,5.27322 -1.91654,4.81486 -2.26362,-1.91784 z m 5.44211,-16.71168 c -1.33667,-2.16269 0.4328,-3.93217 3.93216,-3.93217 3.49931,0 5.26878,1.76948 3.93216,3.93217 -1.33667,2.16268 -3.10609,3.93216 -3.93216,3.93216 -0.82602,0 -2.59549,-1.76948 -3.93216,-3.93216 z M -162.14003,179.4059 c 0,-3.72397 -2.24159,-5.1467 -5.89824,-3.74355 -3.24403,1.24492 -5.89824,0.36019 -5.89824,-1.96608 0,-2.32626 -3.09657,-3.34551 -6.88128,-2.26518 -3.7847,1.08029 -2.82693,-0.16253 2.12835,-2.76277 4.95534,-2.59994 8.12709,-7.02713 7.04835,-9.83826 -1.07873,-2.8111 0.57226,-7.64467 3.66881,-10.74122 4.88536,-4.8854 4.86327,-5.92438 -0.16778,-7.85473 -3.18856,-1.22342 -5.79729,-4.87727 -5.79729,-8.11949 0,-9.68643 17.61236,-0.90466 18.1409,9.04531 0.24641,4.61963 -1.08187,8.3993 -2.94912,8.3993 -1.86752,0 -3.39529,1.87381 -3.39529,4.16424 0,2.29035 2.04288,2.90164 4.5397,1.35843 2.83525,-1.75217 3.47142,-1.07715 1.69424,1.79804 -1.565,2.53205 -4.49255,3.58587 -6.50579,2.34147 -2.01326,-1.24387 -3.66045,-0.38823 -3.66045,1.90212 0,2.29035 1.56317,4.16424 3.47354,4.16424 4.90357,0 8.32798,15.26137 4.02163,17.92286 -1.95978,1.21111 -3.563,-0.50096 -3.563,-3.80483 z m -0.73714,-60.0579 c 2.83852,-1.13587 6.23001,-0.99615 7.53664,0.31037 1.30652,1.30653 -1.01581,2.23583 -5.16096,2.06518 -4.58073,-0.18875 -5.5125,-1.12041 -2.37555,-2.37555 z m 1.76554,-9.65506 c -2.39023,-2.39023 -3.45957,-6.65526 -2.37634,-9.47797 1.36761,-3.563692 -0.52901,-4.478837 -6.20553,-2.99442 -4.49618,1.175716 -8.1749,0.431227 -8.1749,-1.654653 0,-2.08588 5.34026,-3.944193 11.86723,-4.129791 6.52699,-0.186122 10.92902,1.180697 9.78227,3.036178 -1.14688,1.855456 1.03311,4.186965 4.84442,5.181146 4.79315,1.25016 3.89879,1.9666 -2.90096,2.32391 -7.66808,0.40265 -8.55806,1.32094 -4.04604,4.17451 3.18141,2.01195 4.83292,4.60959 3.67002,5.77249 -1.16287,1.16287 -4.06994,0.15991 -6.46012,-2.23137 z m 353.17669,-9.61337 c 0.18874,-4.580782 1.1204,-5.512521 2.37555,-2.37581 1.13587,2.8385 0.99615,6.22998 -0.31012,7.53664 -1.30678,1.30653 -2.23608,-1.01581 -2.06517,-5.16093 z m -342.4086,-56.531227 c 0,-4.392354 12.15331,-16.839949 14.32323,-14.670078 0.87478,0.874775 0.52743,4.361212 -0.77201,7.747536 -2.63463,6.865762 -13.55109,12.442404 -13.55109,6.922542 z M 186.02411,16.137489 c -1.2444,-2.013266 -0.64933,-4.657303 1.32199,-5.87567 1.97132,-1.2184454 4.5989,0.428868 5.83897,3.660448 2.44449,6.370598 -3.46329,8.198161 -7.16093,2.215117 z M -93.327218,-15.591506 c -1.336673,-2.162689 1.213202,-3.932161 5.666164,-3.932161 4.453015,0 8.096397,1.769472 8.096397,3.932161 0,2.162688 -2.549875,3.93216 -5.666164,3.93216 -3.116421,0 -6.759777,-1.769472 -8.096397,-3.93216 z M 282.50457,-41.478229 c 0.18874,-4.580757 1.1204,-5.512496 2.37555,-2.375811 1.13587,2.838495 0.99614,6.229984 -0.31012,7.536641 -1.30679,1.306525 -2.23609,-1.015809 -2.06517,-5.160961 z M 115.10513,-66.664581 c -1.37756,-2.229011 0.20185,-2.888172 3.70009,-1.545339 6.81215,2.6141 8.05854,5.432515 2.40228,5.432515 -2.03502,0 -4.78119,-1.749287 -6.10247,-3.88715 z m 119.68765,-69.424339 c -2.17396,-5.71833 -4.91932,-12.35385 -6.10046,-14.7456 -1.18122,-2.3918 1.64076,0.076 6.27101,5.48172 4.63023,5.40672 11.29642,12.04224 14.81371,14.7456 5.69534,4.37739 5.44166,4.9152 -2.31814,4.9152 -5.80256,0 -10.03364,-3.47306 -12.66612,-10.39692 z"
     id="path3416"
     inkscape:connector-curvature="0" />
</svg>
