<?xml version="1.0" encoding="UTF-8" standalone="no"?>
<!-- Created with Inkscape (http://www.inkscape.org/) -->

<svg
   xmlns:dc="http://purl.org/dc/elements/1.1/"
   xmlns:cc="http://creativecommons.org/ns#"
   xmlns:rdf="http://www.w3.org/1999/02/22-rdf-syntax-ns#"
   xmlns:svg="http://www.w3.org/2000/svg"
   xmlns="http://www.w3.org/2000/svg"
   xmlns:sodipodi="http://sodipodi.sourceforge.net/DTD/sodipodi-0.dtd"
   xmlns:inkscape="http://www.inkscape.org/namespaces/inkscape"
   id="svg3941"
   version="1.1"
   inkscape:version="0.91 r13725"
   width="707.57367"
   height="929.99902"
   viewBox="0 0 707.57367 929.99902"
   sodipodi:docname="en_lower_a.svg">
  <metadata
     id="metadata3947">
    <rdf:RDF>
      <cc:Work
         rdf:about="">
        <dc:format>image/svg+xml</dc:format>
        <dc:type
           rdf:resource="http://purl.org/dc/dcmitype/StillImage" />
        <dc:title></dc:title>
      </cc:Work>
    </rdf:RDF>
  </metadata>
  <defs
     id="defs3945" />
  <sodipodi:namedview
     pagecolor="#ffffff"
     bordercolor="#666666"
     borderopacity="1"
     objecttolerance="10"
     gridtolerance="10"
     guidetolerance="10"
     inkscape:pageopacity="0"
     inkscape:pageshadow="2"
     inkscape:window-width="1671"
     inkscape:window-height="1017"
     id="namedview3943"
     showgrid="false"
     fit-margin-top="0"
     fit-margin-left="0"
     fit-margin-right="0"
     fit-margin-bottom="0"
     inkscape:zoom="0.46825397"
     inkscape:cx="-64.823317"
     inkscape:cy="669.63968"
     inkscape:window-x="76"
     inkscape:window-y="0"
     inkscape:window-maximized="0"
     inkscape:current-layer="svg3941" />
  <path
     style="fill:#000000"
     d="m 601.40215,890.29407 c -4.55522,-22.82944 10.57476,-79.94438 -18.5782,-81.33653 C 346.79024,879.14255 11.066292,959.88473 0,600.74449 18.463368,286.75125 338.57131,334.60959 531.04753,378.70804 630.94896,426.82295 595.51017,295.78213 598.12455,239.29245 557.3769,89.542161 401.11819,109.20304 316.33871,116.8603 207.01628,121.00928 180.22454,253.51525 110.22983,205.0312 67.705626,168.64376 86.547484,101.26051 158.89516,60.941876 364.90361,-58.311476 664.28671,3.8188981 701.8547,191.8109 c 2.7645,313.35359 9.9278,421.72449 2.33241,698.06063 7.64664,40.82263 -92.23069,64.67557 -102.78496,0.42254 z M 574.45759,708.40502 c 28.67885,-24.23691 26.81879,-92.95819 22.06604,-158.22444 -13.03961,-46.81657 -39.68787,-49.31276 -65.58299,-65.2244 -270.17179,-65.178 -418.34026,-57.96706 -430.12195,119.71186 3.05366,230.97538 312.76764,160.94487 473.6389,103.73698 z"
     id="path3951"
     inkscape:connector-curvature="0"
     sodipodi:nodetypes="cccccccccccccccc" />
</svg>
