<?xml version="1.0" encoding="UTF-8" standalone="no"?>
<!-- Created with Inkscape (http://www.inkscape.org/) -->

<svg
   xmlns:dc="http://purl.org/dc/elements/1.1/"
   xmlns:cc="http://creativecommons.org/ns#"
   xmlns:rdf="http://www.w3.org/1999/02/22-rdf-syntax-ns#"
   xmlns:svg="http://www.w3.org/2000/svg"
   xmlns="http://www.w3.org/2000/svg"
   xmlns:sodipodi="http://sodipodi.sourceforge.net/DTD/sodipodi-0.dtd"
   xmlns:inkscape="http://www.inkscape.org/namespaces/inkscape"
   id="svg3829"
   version="1.1"
   inkscape:version="0.91 r13725"
   width="672.27325"
   height="930"
   viewBox="0 0 672.27324 929.99999"
   sodipodi:docname="en_lower_z.svg">
  <metadata
     id="metadata3835">
    <rdf:RDF>
      <cc:Work
         rdf:about="">
        <dc:format>image/svg+xml</dc:format>
        <dc:type
           rdf:resource="http://purl.org/dc/dcmitype/StillImage" />
        <dc:title></dc:title>
      </cc:Work>
    </rdf:RDF>
  </metadata>
  <defs
     id="defs3833" />
  <sodipodi:namedview
     pagecolor="#ffffff"
     bordercolor="#666666"
     borderopacity="1"
     objecttolerance="10"
     gridtolerance="10"
     guidetolerance="10"
     inkscape:pageopacity="0"
     inkscape:pageshadow="2"
     inkscape:window-width="1703"
     inkscape:window-height="1041"
     id="namedview3831"
     showgrid="false"
     fit-margin-top="0"
     fit-margin-left="0"
     fit-margin-right="0"
     fit-margin-bottom="0"
     inkscape:zoom="0.49413735"
     inkscape:cx="-215.75781"
     inkscape:cy="377.54734"
     inkscape:window-x="163"
     inkscape:window-y="0"
     inkscape:window-maximized="0"
     inkscape:current-layer="svg3829" />
  <path
     style="fill:#000000"
     d="m 79.522531,887.26131 c -8.00368,8.00368 -37.783574,13.49939 -41.091034,4.88036 -2.5032,-6.52353 -3.84645,-6.48672 -10.62446,0.29041 -4.26741,4.2674 -10.76791,6.6042 -14.44559,5.19294 -4.4781497,-1.71844 -5.6511097,0.1317 -3.5513297,5.60478 2.0885397,5.44216 1.1565497,6.94769 -2.79057,4.50831 -7.79616997,-4.81836 -7.51376997,-8.29108 2.56737,-31.57077 12.3764297,-28.57995 12.6308097,-33.0944 1.5300097,-27.15346 -7.6490797,4.09367 -9.6148697,2.9459 -10.95767967,-6.39836 -0.89991,-6.26284 2.10676997,-15.53254 6.68142997,-20.59933 4.7685497,-5.28142 7.1506397,-13.67583 5.5824597,-19.67251 -1.95077,-7.45934 -0.69866,-9.77727 4.36415,-8.07966 3.90477,1.30918 7.20601,6.74289 7.33612,12.07476 0.12832,5.33183 2.89728,9.15181 6.14919,8.48875 3.47936,-0.70946 4.7752,2.41744 3.14884,7.59775 -2.26041,7.20035 -1.26089,6.9587 5.49001,-1.32707 4.9329,-6.0544 6.96187,-14.20628 5.04278,-20.26068 -5.18714,-16.36404 -2.59337,-39.44227 5.42959,-48.30743 4.09681,-4.52695 5.92426,-9.75532 4.06095,-11.61863 -1.86331,-1.8633 0.25663,-3.38778 4.71277,-3.38778 4.45535,0 9.5475,-4.55866 11.31589,-10.13034 1.76842,-5.57169 5.91078,-10.20281 9.20537,-10.29142 3.29439,-0.0878 1.43142,-3.81424 -4.1402,-8.27922 -8.54707,-6.84926 -8.71503,-7.62912 -1.07449,-4.98946 5.33514,1.84305 10.12179,0.35051 11.6504,-3.63281 1.55196,-4.04389 8.0911,-6.01718 16.270063,-4.90963 11.81978,1.60059 12.3008,1.20348 3.54512,-2.92733 -9.152263,-4.31793 -8.785473,-4.81374 3.79887,-5.13531 8.88765,-0.22624 13.92922,-3.12386 13.92922,-8.00337 0,-4.20602 4.55865,-11.55058 10.13034,-16.32123 10.84834,-9.28864 14.40443,-21.20861 3.79888,-12.7338 -3.60674,2.88208 -10.69106,3.30215 -16.4618,0.97623 -5.57169,-2.2459 -7.54704,-4.24357 -4.38965,-4.43932 3.15729,-0.19586 6.93283,-4.9147 8.38985,-10.48639 1.45708,-5.57169 5.42094,-10.13034 8.8087,-10.13034 4.62571,0 4.73276,1.71912 0.42986,6.90383 -4.62912,5.57776 -3.35415,6.44975 6.63727,4.53977 12.07877,-2.30904 22.90753,-16.50877 12.58958,-16.50877 -2.86284,0 -3.79642,-2.27932 -2.0747,-5.06517 1.72182,-2.78584 0.91815,-5.06517 -1.78564,-5.06517 -8.76919,0 -3.1897,-13.84493 13.41173,-33.2807 8.92773,-10.45177 16.23221,-20.9153 16.23221,-23.25227 0,-2.33706 2.52313,-4.24907 5.60708,-4.24907 3.08401,0 4.29509,3.41899 2.69163,7.59776 -1.60364,4.17876 -0.97353,7.59775 1.40001,7.59775 2.37354,0 5.50837,-4.56179 6.9664,-10.13733 1.45809,-5.57553 0.84352,-9.02015 -1.36591,-7.65475 -2.20943,1.36557 -5.18197,-1.97238 -6.60589,-7.41757 -1.42399,-5.44512 -1.11333,-9.42604 0.69055,-8.84642 1.80354,0.57946 8.91504,-2.9172 15.80306,-7.77095 6.88802,-4.85358 9.60268,-8.82467 6.03255,-8.82467 -3.57014,0 -5.05946,-2.31647 -3.30958,-5.1478 1.74984,-2.83143 5.27723,-3.85257 7.83865,-2.26954 2.56129,1.58304 3.24745,-0.79489 1.52462,-5.28472 -2.17195,-5.65993 0.36705,-9.07811 8.28003,-11.1474 l 11.41243,-2.98439 -12.02086,-6.66425 c -11.59502,-6.4282 -11.63891,-6.67062 -1.2386,-6.84375 7.4564,-0.12494 12.66431,-5.25711 16.8843,-16.64131 3.35618,-9.05399 8.10434,-20.28033 10.55142,-24.94738 32.34297,-61.68465 47.46699,-88.306 51.6902,-90.98524 2.80239,-1.77788 3.58654,-5.674 1.74242,-8.658 -3.45006,-5.58229 5.72154,-25.74237 14.71816,-32.35208 3.37678,-2.48092 3.37678,-3.78472 0,-3.91148 -2.78584,-0.10468 0.63315,-4.6475 7.59769,-10.09529 6.96461,-5.44779 10.00945,-9.95578 6.76625,-10.01772 -3.48828,-0.0665 0.12832,-12.00801 8.85257,-29.23736 14.68707,-29.00197 19.35854,-37.08121 36.39085,-62.93728 8.83554,-13.41285 4.72938,-23.73179 -6.64588,-16.70148 -2.90842,1.79746 -10.88599,-0.39987 -17.72809,-4.883 -6.8421,-4.48312 -12.47511,-6.38908 -12.51776,-4.23548 -0.0439,2.15361 -1.75221,1.29429 -3.79888,-1.90957 C 280.58873,148.3865 193.3945,151.59872 67.274247,141.35424 2.2882438,141.55134 -41.125848,23.625033 65.776139,12.708254 114.43098,12.485394 182.83642,10.297851 195.34736,5.3245707 c 5.93894,-2.36081 11.016,-1.13558 13.85165,3.34274 3.57695,5.6490303 4.49199,5.7125203 4.55399,0.31607 0.0439,-3.71446 2.92666,-5.73196 6.40903,-4.48332 3.4823,1.24863 10.18193,0.29276 14.88808,-2.1242 5.03107,-2.58378003 9.7747,-2.42362003 11.5128,0.38873 2.69737,4.36463 42.8853,2.3577 47.62113,-2.37813003 1.11164,-1.11167 6.28017,0.25799 11.48555,3.04397003 5.2054,2.78587 9.46436,3.12085 9.46436,0.74444 0,-6.57708 34.04966,-2.47585 59.20536,7.1311903 16.26054,6.20996 20.58485,9.83514 15.78512,13.23312 -4.4614,3.15847 -2.41777,3.77641 6.28531,1.90062 11.46808,-2.4717 12.80231,-1.25515 12.04976,10.98695 -1.17174,19.06369 -1.66373,19.84979 -7.07101,11.29767 -3.74363,-5.921 -4.58063,-5.10772 -3.9097,3.79887 1.0647,14.1338 6.10032,14.40729 15.59822,0.84714 5.12396,-7.31546 8.00817,-8.49441 9.53985,-3.89948 1.78091,5.34268 4.5128,5.38018 14.46974,0.19855 6.75089,-3.51313 8.3189,-5.26169 3.48443,-3.88568 -7.54636,2.14791 -7.92291,1.1135 -2.66158,-7.31149 5.11045,-8.1831 6.81495,-8.58675 10.26052,-2.42982 3.39153,6.0603 6.13777,6.264 15.32436,1.13669 6.15591,-3.43575 12.33214,-7.55274 13.72506,-9.14886 5.14672,-5.89752 20.26068,-9.28181 20.26068,-4.53674 0,5.40608 26.78607,6.82274 31.9206,1.68822 1.76977,-1.7699 10.72256,-3.89138 19.89477,-4.71442 9.17224,-0.82306 27.81055,-5.27647 41.41857,-9.89649 20.49293,-6.9575503 28.36103,-7.3866903 45.81824,-2.4989903 11.59204,3.2455903 23.96433,10.5252703 27.49401,16.1770903 5.25991,8.42253 5.20801,9.65587 -0.28703,6.83779 -3.68795,-1.89103 -2.28101,0.14993 3.1269,4.53514 5.40663,4.38533 7.03593,7.97335 3.61964,7.97335 -4.36817,0 -4.7905,2.65523 -1.42298,8.9473 3.17485,5.93218 2.73857,12.77739 -1.29431,20.31304 -5.85835,10.9463 -6.43007,10.52378 -15.49125,-11.44905 -7.75707,-18.81087 -12.60991,-23.70416 -27.65198,-27.88254 -24.27385,-6.74278 -27.43502,-6.45228 -24.10886,2.21553 1.88256,4.90573 0.38225,6.40576 -4.52323,4.52326 -4.0369,-1.5491 -7.3398,-0.29344 -7.3398,2.79054 0,3.08391 -3.41899,5.60708 -7.59775,5.60708 -4.17877,0 -7.59776,2.41619 -7.59776,5.3693 0,3.14513 6.42291,4.35704 15.5053,2.92564 10.49489,-1.65401 16.39869,-0.11548 18.27,4.76105 3.99462,10.40978 12.01617,8.88636 8.73724,-1.65935 -2.35631,-7.57874 -1.88086,-7.49128 3.28088,0.60319 4.78365,7.50194 4.60019,10.3774 -0.8837,13.85166 -5.69008,3.60479 -5.56966,4.45531 0.67705,4.78305 4.17876,0.21915 1.89943,2.88954 -5.06517,5.93398 -6.96461,3.04444 -14.47005,5.14676 -16.6787,4.6718 -2.20875,-0.47498 -1.74545,3.37845 1.02925,8.56313 3.41676,6.384229 3.30282,11.168839 -0.35322,14.824609 -2.96886,2.96886 -4.50084,8.08932 -3.4043,11.37881 1.09644,3.28949 5.3417,-0.4585 9.43388,-8.32887 7.51378,-14.45116 29.5554,-36.831549 36.56496,-37.126899 7.29496,-0.30729 3.70706,11.66694 -8.15601,27.220259 -6.57526,8.62048 -11.88839,16.81327 -11.80711,18.20619 0.38664,6.6198 -12.67066,25.32027 -16.16944,23.15794 -2.18174,-1.34842 -4.13615,0.29716 -4.34315,3.65701 -0.82056,13.31954 -14.53072,42.75304 -30.29441,65.03672 -9.13213,12.90953 -16.60403,25.27902 -16.60403,27.48774 0,4.79579 -34.26611,56.14239 -46.85282,70.20732 -4.87522,5.4478 -8.86405,13.1632 -8.86405,17.14537 0,3.98213 -6.83797,15.02829 -15.1955,24.54699 -8.35753,9.5187 -15.19551,20.64641 -15.19551,24.72823 0,4.08185 -3.79888,7.42152 -8.44195,7.42152 -4.64304,0 -7.06055,1.38144 -5.37212,3.06983 1.68839,1.68839 -2.49038,8.62997 -9.28618,15.42574 -6.93321,6.93324 -12.38998,18.36809 -12.43351,26.05493 -0.0507,9.17504 -1.45944,11.52056 -4.26163,7.10244 -2.88276,-4.54484 -8.7124,2.93848 -18.74322,24.05956 -8.0075,16.86084 -17.54339,30.6561 -21.19082,30.6561 -3.64746,0 -7.99932,6.83798 -9.67082,15.19551 -1.67151,8.35753 -5.0335,15.19551 -7.47113,15.19551 -2.4377,0 -4.43202,4.55865 -4.43202,10.13033 0,5.57169 -1.99433,10.13034 -4.43202,10.13034 -2.4377,0 -5.74468,6.56325 -7.34903,14.58496 -1.6043,8.02174 -6.61072,18.27871 -11.12527,22.79326 -4.51455,4.51459 -6.62673,8.20831 -4.69372,8.20831 1.93286,0 1.24873,2.84933 -1.52023,6.33146 -2.7693,3.48231 -4.38965,10.32029 -3.601,15.19551 0.78882,4.87523 -0.29715,8.86405 -2.41473,8.86405 -3.43777,0 -21.19234,37.00616 -22.56736,47.03753 -0.30053,2.19119 -2.82535,5.61005 -5.61123,7.59775 -2.78584,1.98792 -5.69534,8.25323 -6.46558,13.92314 -1.09037,8.02617 1.71371,10.55264 12.66292,11.40906 7.73485,0.60512 28.85392,27.54209 42.55882,34.49991 99.70691,-2.68115 126.68941,-0.39991 202.47275,-0.81163 85.8222,1.92619 67.18526,146.44481 0.28772,143.0762 -43.91575,5.15417 -98.20438,6.00808 -167.24457,10.73793 -123.53934,-6.52251 -200.51622,-0.48484 -307.220829,-1.23326 z M 216.36339,854.02245 c -1.72182,-2.78584 -0.33768,-5.06516 3.07793,-5.06516 3.41453,0 5.01496,-1.19336 3.55646,-2.65179 -1.45843,-1.45843 -6.58813,-1.14135 -11.39923,0.70473 -6.93314,2.66057 -7.34615,4.24495 -1.99129,7.63943 8.91808,5.65323 10.5444,5.50226 6.75619,-0.62707 z M 87.201557,832.79777 c 0,-6.65762 -11.51205,-2.48868 -14.03589,5.0829 -1.23388,3.70136 1.08192,4.83339 6.01489,2.9405 4.41152,-1.69312 8.021,-5.30347 8.021,-8.0234 z m 73.409103,-4.04318 c 1.7745,-2.87128 -0.26001,-3.72037 -4.76626,-1.99062 -8.77497,3.36733 -10.38049,6.99784 -3.09448,6.99784 2.62139,0 6.15881,-2.25333 7.86084,-5.00719 z m 75.76153,-1.15419 c 1.9869,1.9869 6.27551,0.19586 9.53005,-3.97707 7.63429,-9.79202 44.082,-12.96825 49.43437,-4.30792 3.09414,5.00661 6.19706,4.44252 13.89787,-2.52651 7.6345,-6.90913 10.49872,-7.44519 12.45593,-2.33133 1.39799,3.65263 2.30769,1.76302 2.02202,-4.19903 -0.28703,-5.96204 -2.90268,-10.14128 -5.81522,-9.28705 -25.96686,7.61531 -33.15674,7.33335 -33.2315,-1.30344 -0.0473,-5.50277 -1.51347,-6.81292 -3.79887,-3.39515 -2.04667,3.06105 -7.14041,5.63889 -11.31917,5.72844 -4.17877,0.0912 -11.96049,1.96123 -17.29273,4.15948 -6.83865,2.81928 -8.61595,2.25063 -6.03255,-1.92915 2.0882,-3.3785 0.81212,-5.89262 -2.96785,-5.84838 -7.3476,0.0844 -24.42566,9.85165 -17.44448,9.97524 2.40967,0.0405 0.53826,5.94263 -4.15853,13.11113 -8.24418,12.58225 -8.1997,12.85155 1.28418,7.77601 5.40322,-2.89154 11.44975,-3.63193 13.43672,-1.64483 z M 163.1791,800.25561 c 0,-1.07246 -2.11859,-1.38009 -4.70767,-0.6838 -2.58931,0.69629 -7.71769,-2.67981 -11.39663,-7.50324 -7.82032,-10.25274 -19.26547,-5.31393 -21.49762,9.27666 -1.98454,12.97126 12.18446,17.46102 26.20529,8.30381 6.26815,-4.09388 11.39663,-8.32093 11.39663,-9.39343 z m 107.74866,-12.41514 c -2.00176,-7.65519 -4.2432,-8.95856 -8.34754,-4.85425 -4.10431,4.10437 -3.58219,6.89339 1.94469,10.38755 4.1555,2.62713 7.91186,4.8116 8.34753,4.85425 0.43561,0.0405 -0.43931,-4.63172 -1.94468,-10.38755 z m 29.01093,5.39995 c 0,-2.78585 -2.41373,-5.06517 -5.36412,-5.06517 -2.95029,0 -3.95539,2.27932 -2.23374,5.06517 1.72182,2.78584 4.13558,5.06517 5.36412,5.06517 1.22847,0 2.23374,-2.27933 2.23374,-5.06517 z m -99.53396,-7.43554 c 1.56918,-4.08955 0.67333,-8.78273 -1.99062,-10.42928 -2.66428,-1.64652 -4.84392,-1.90586 -4.84392,-0.57642 0,1.32944 -1.38347,6.02262 -3.07456,10.42922 -1.69109,4.40666 -0.79523,8.01205 1.99061,8.01205 2.78585,0 6.34916,-3.34605 7.91845,-7.43553 z m 76.74069,-48.28119 c 8.44104,-3.62721 7.33538,-4.41254 -6.63041,-4.70916 -9.95869,-0.21274 -15.4903,1.69953 -13.63027,4.70916 3.64939,5.90487 6.51931,5.90487 20.26068,0 z m 22.79327,-5.06517 c 0,-2.78585 -1.00527,-5.06517 -2.23374,-5.06517 -1.22848,0 -3.64237,2.27932 -5.36412,5.06517 -1.72182,2.78584 -0.71655,5.06517 2.23374,5.06517 2.95029,0 5.36412,-2.27933 5.36412,-5.06517 z M 163.1791,706.83359 c 0,-2.6214 -2.27932,-4.76623 -5.06517,-4.76623 -2.78584,0 -5.06517,3.55352 -5.06517,7.8967 0,4.34318 2.27933,6.48798 5.06517,4.76623 2.78585,-1.72182 5.06517,-5.27528 5.06517,-7.8967 z m 69.22399,-93.1839 c 0,-4.05622 -1.93658,-6.17802 -4.30361,-4.71516 -2.36712,1.46282 -2.99216,4.78158 -1.38954,7.37495 4.0958,6.62717 5.69305,5.88097 5.69305,-2.65989 z m -65.31958,-17.00117 c 3.03876,-9.1166 -7.43064,-7.20092 -10.9637,2.00614 -1.89302,4.933 -0.76113,7.24866 2.9405,6.01489 3.30992,-1.10353 6.92058,-4.7128 8.0233,-8.021 z M 183.43978,574.276 c 0,-2.96481 -3.21841,-2.47248 -7.59775,1.16195 -4.17877,3.46805 -7.59776,7.09461 -7.59776,8.05899 0,0.96441 3.41899,0.44168 7.59776,-1.16195 4.17876,-1.60363 7.59775,-5.23026 7.59775,-8.05916 z m 65.84721,9.05882 c 0,-1.22847 -2.27933,-3.64236 -5.06517,-5.36412 -2.78585,-1.72182 -5.06517,-0.71655 -5.06517,2.23374 0,2.9503 2.27932,5.36412 5.06517,5.36412 2.78584,0 5.06517,-1.00527 5.06517,-2.23374 z m 31.62574,-1.13156 c -3.49967,-1.41082 -4.857,-5.00212 -3.01614,-7.98048 1.99466,-3.22752 0.9509,-3.93452 -2.58358,-1.74985 -6.97328,4.30975 -2.78618,13.27352 5.9304,12.69565 4.31776,-0.28703 4.22382,-1.1292 -0.33092,-2.96515 z m 14.8036,-47.2865 c 2.32221,0 4.22236,-3.66283 4.22236,-8.13969 0,-5.46596 -2.73114,-7.09168 -8.31421,-4.94921 -6.81812,2.61632 -7.2072,1.85655 -2.16215,-4.22216 5.98892,-7.21621 22.81565,-5.55629 18.2679,1.80219 -1.25447,2.02978 1.03803,3.69024 5.09424,3.69024 8.84078,0 9.82944,-6.77963 1.39867,-9.58995 -3.89964,-1.30006 -4.50027,-5.40693 -1.72858,-11.81873 2.3364,-5.4046 3.74519,-11.95893 3.13061,-14.5652 -2.13108,-9.03721 4.63274,-27.51981 13.2097,-36.0968 8.11683,-8.1168 7.89687,-8.39062 -3.76677,-4.68872 -11.08198,3.51728 -11.65877,3.05396 -5.47501,-4.39691 4.26282,-5.13659 4.80121,-8.32845 1.40474,-8.32845 -5.77996,0 -17.20955,17.77813 -19.21242,29.88396 -0.6453,3.89987 -3.79871,8.71341 -7.00769,10.69666 -3.20896,1.98318 -5.63987,5.06061 -5.40191,6.83848 1.35308,10.11079 -0.14182,13.60579 -4.63257,10.83035 -2.78584,-1.72182 -5.41237,-0.1452 -5.83669,3.49993 -0.42413,3.64672 -1.12312,8.90973 -1.55298,11.69558 -0.42987,2.78584 -6.92071,17.82139 -14.42402,33.41232 -7.50331,15.59097 -13.64236,29.48665 -13.64236,30.87927 0,1.39258 9.49655,-6.23512 21.10346,-16.95056 11.6069,-10.7154 23.00357,-19.4826 25.32588,-19.4826 z m 1.68974,30.39102 c 1.72182,-2.78584 -0.42311,-5.06517 -4.76623,-5.06517 -4.34318,0 -7.8967,2.27933 -7.8967,5.06517 0,2.78584 2.14493,5.06517 4.76623,5.06517 2.62139,0 6.17494,-2.27933 7.8967,-5.06517 z m -90.24556,-31.34074 c -1.6168,-4.04065 -2.81724,-2.84055 -3.06003,3.06038 -0.21949,5.3395 0.97724,8.33115 2.66022,6.64803 1.68299,-1.68332 1.86297,-6.05186 0.39981,-9.70824 z m 128.23433,-52.53351 c 0,-4.34318 -2.31647,-6.46498 -5.1478,-4.71516 -2.83143,1.74984 -3.83643,5.30333 -2.23374,7.8967 4.34206,7.02559 7.38144,5.71557 7.38144,-3.18161 z m 4.21165,-63.26643 c 5.31931,-5.7096 13.7746,-19.48021 18.78952,-30.60133 6.24559,-13.85023 11.46508,-19.31964 16.56814,-17.36141 6.12024,2.34855 6.31562,1.49186 1.09441,-4.79908 -3.49554,-4.21185 -8.37661,-6.40882 -10.84679,-4.88218 -2.47012,1.52664 -4.49125,0.20936 -4.49125,-2.92969 0,-3.13804 3.98882,-4.44493 8.86404,-2.90437 6.82832,2.15776 11.19058,-2.70784 18.99439,-21.18561 5.57169,-13.19271 9.78844,-26.98787 9.37056,-30.6559 -0.41804,-3.66801 0.42345,-5.48604 1.86939,-4.04007 1.44594,1.44594 6.08604,-0.82798 10.31123,-5.05311 4.71483,-4.71483 5.86959,-9.49476 2.98947,-12.37479 -6.04046,-6.04044 -26.12119,7.77132 -32.44603,22.31679 -6.56483,15.09735 -16.459,30.43978 -22.48567,34.86748 -3.03032,2.22632 -2.20639,3.75248 2.05139,3.79888 5.65975,0.0608 5.40055,1.97373 -1.26629,9.34045 -4.61039,5.09461 -8.38265,13.07225 -8.38265,17.72812 0,4.65587 -2.10273,8.46522 -4.67235,8.46522 -2.56973,0 -7.42551,8.54747 -10.79047,18.99439 -3.36496,10.44691 -8.37945,21.84354 -11.14334,25.32584 -8.61774,10.8577 5.02995,7.31995 15.6223,-4.04963 z m 0.85365,-19.41206 c 0,-2.78585 2.27933,-6.47386 5.06517,-8.19562 2.78584,-1.72182 5.06517,-0.85095 5.06517,1.93456 0,2.78584 -2.27933,6.47386 -5.06517,8.19561 -2.78584,1.72182 -5.06517,0.85095 -5.06517,-1.93455 z m 40.52136,14.28286 c 0,-5.76608 -13.60717,-6.353 -17.07827,-0.73681 -1.36422,2.2074 1.92004,4.34521 7.29884,4.75039 5.37867,0.40521 9.77943,-1.40103 9.77943,-4.01358 z m 8.52525,-10.76527 c -1.6168,-4.04066 -2.81724,-2.84055 -3.06003,3.06004 -0.21949,5.33953 0.97724,8.33115 2.66022,6.64803 1.68299,-1.68299 1.86297,-6.05183 0.39981,-9.70824 z M 419.8584,273.26027 c -1.83292,-1.83305 -0.79422,-6.39172 2.3087,-10.13034 3.10259,-3.73863 3.87381,-6.79751 1.71338,-6.79751 -2.16046,0 0.93807,-4.22022 6.88543,-9.37826 5.94728,-5.15805 9.16421,-11.02732 7.14867,-13.04283 -2.0156,-2.0155 0.30391,-5.88619 5.15733,-8.60152 10.62753,-5.94747 11.38346,-16.26272 1.77618,-24.23614 -5.62703,-4.67001 -8.21807,-3.01006 -12.86783,8.24385 -3.2022,7.75021 -11.14965,24.34827 -17.661,36.88456 -8.29674,15.97372 -10.12976,23.90665 -6.12655,26.51458 7.12105,4.6391 16.18335,5.0614 11.66555,0.5436 z m 77.6219,-3.96599 c 0,-1.2285 -2.27932,-3.64235 -5.06517,-5.3641 -2.78584,-1.72175 -5.06516,-0.71659 -5.06516,2.23367 0,2.95026 2.27932,5.3641 5.06516,5.3641 2.78585,0 5.06517,-1.00513 5.06517,-2.23364 z m 8.99909,-35.38996 c -0.55987,-6.76376 -2.81353,-11.18789 -5.00844,-9.8314 -5.76842,3.56507 -4.9146,22.12916 1.01776,22.12916 2.75478,0 4.55038,-5.53399 3.99065,-12.29775 z M 529.862,202.73388 c 4.45644,-11.61326 3.63034,-15.90376 -1.50199,-7.80086 -2.43162,3.83921 -6.99267,5.39121 -10.1354,3.44888 -3.14277,-1.94232 -4.18505,-6.00551 -2.31614,-9.02929 2.00615,-3.24593 1.04512,-4.04372 -2.34618,-1.94776 -4.241,2.62105 -4.12697,6.13943 0.4356,13.44553 7.48706,11.98867 11.79026,12.49958 15.86401,1.8835 z m -23.62314,-0.11346 c -1.68332,-1.68313 -6.05186,-1.86308 -9.70827,-0.39992 -4.04063,1.61694 -2.84055,2.81715 3.06037,3.06021 5.3395,0.21983 8.33112,-0.97721 6.64804,-2.66033 z m -39.14957,-7.07003 0,-7.59776 c 0,-1.39292 -1.13967,-2.53258 -2.53259,-2.53258 -1.39292,0 -2.33808,1.45465 -2.10002,3.23259 0.23975,1.77791 -2.61126,5.162 -6.33146,7.52019 -5.18623,3.28743 -4.69639,4.30571 2.10002,4.36518 4.87522,0.0426 8.86405,-2.20179 8.86405,-4.98762 z m 75.13598,-19.63336 c 5.37172,-3.40515 4.99537,-4.95839 -1.83663,-7.58013 -7.04619,-2.70389 -7.44857,-4.67623 -2.23543,-10.95763 12.67343,-15.27056 -0.45451,-13.66617 -15.3014,1.87006 -8.38252,8.7715 -15.24096,13.30971 -15.24096,10.08492 0,-3.22479 -1.36794,-4.49536 -3.03978,-2.8235 -10.72347,10.7235 22.48841,19.02 37.65444,9.40627 z m -58.61293,-45.21602 c 1.29297,3.62997 4.30631,4.76651 6.69636,2.52563 6.06828,-5.68933 -7.20699,-12.91903 -18.36445,-10.00129 -5.83072,1.52475 -8.11774,5.28109 -6.22246,10.22015 2.63558,6.86858 3.75218,6.77611 9.26832,-0.76758 4.71537,-6.44868 6.85479,-6.93922 8.62223,-1.97693 z m -4.67343,-29.38667 c -9.63476,-14.704499 -14.32298,-16.088049 -6.78445,-2.002159 3.67579,6.868329 3.73319,10.130339 0.17897,10.130339 -2.88377,0 -5.24347,2.06594 -5.24347,4.59096 0,2.52502 4.45482,3.42602 9.89957,2.00216 9.23809,-2.41581 9.36844,-3.39943 1.95009,-14.7213 z m 97.54963,4.51769 c 11.87668,-13.821729 8.36891,-23.828189 -6.37026,-18.172249 -3.73492,1.43324 -6.79077,0.0827 -6.79077,-3.00121 0,-3.08391 -3.41899,-5.60709 -7.59775,-5.60709 -11.07692,0 -9.29513,8.90895 2.53258,12.66293 10.94283,3.47313 13.17883,10.180989 5.06517,15.195509 -5.58637,3.45255 -6.93604,12.66292 -1.85554,12.66292 1.76538,0 8.52276,-6.18337 15.01664,-13.74081 z m -45.25817,-8.725219 c -1.5344,-3.99878 -0.0675,-8.37748 3.25691,-9.73046 3.32579,-1.35297 0.91848,-2.6399 -5.34973,-2.85983 -17.04041,-0.59789 -14.4849,15.577699 3.07456,19.460919 0.99446,0.21983 0.55277,-2.87185 -0.98163,-6.870619 z M 102.39707,669.76394 c 0,-1.05187 3.47116,-4.79317 7.71368,-8.31417 6.44971,-5.35277 7.19092,-5.03944 4.52326,1.91227 -2.72438,7.10012 -12.23694,12.07661 -12.23694,6.4019 z m 30.39102,-54.10341 c 0,-2.95029 2.27932,-3.95539 5.06517,-2.23374 2.78584,1.72182 5.06517,4.13561 5.06517,5.36412 0,1.22847 -2.27933,2.23374 -5.06517,2.23374 -2.78585,0 -5.06517,-2.41373 -5.06517,-5.36412 z m 29.4413,-63.94314 c 3.65641,-1.46316 8.02511,-1.28318 9.70824,0.39981 1.68298,1.68299 -1.30851,2.88039 -6.64804,2.66023 -5.90065,-0.24313 -7.10086,-1.44324 -3.06004,-3.06004 z M 421.50276,28.399791 c 0,-2.78585 2.27932,-5.06517 5.06517,-5.06517 2.78584,0 5.06517,2.27932 5.06517,5.06517 0,2.78584 -2.27933,5.06517 -5.06517,5.06517 -2.78585,0 -5.06517,-2.27933 -5.06517,-5.06517 z"
     id="path3839"
     inkscape:connector-curvature="0"
     sodipodi:nodetypes="cccsccsscscccscssssssccccsscsssccssssscsssscscccccscccscscssscscsccsssccccsscsscscssssssssssscsssscssssccsscssscsssssccccsscccscsccssssssssssccsssssssssccsccscccccccsccsccsccsccscccccsscccccssccccccsccssscssccsscssccsssccscsssscssssscscccccccccccsssccscssscccccccsccssccssscscccccsssscccssscccccccscccssscsssscsssssccsssssscscsscsscccccccssccssssccsssssscssccccscsccccscccssscscscsssssccccscscccsssscccssssssccccscccsscsscssscccccsssss" />
</svg>
