<?xml version="1.0" encoding="UTF-8" standalone="no"?>
<!-- Created with Inkscape (http://www.inkscape.org/) -->

<svg
   xmlns:dc="http://purl.org/dc/elements/1.1/"
   xmlns:cc="http://creativecommons.org/ns#"
   xmlns:rdf="http://www.w3.org/1999/02/22-rdf-syntax-ns#"
   xmlns:svg="http://www.w3.org/2000/svg"
   xmlns="http://www.w3.org/2000/svg"
   xmlns:sodipodi="http://sodipodi.sourceforge.net/DTD/sodipodi-0.dtd"
   xmlns:inkscape="http://www.inkscape.org/namespaces/inkscape"
   id="svg4372"
   version="1.1"
   inkscape:version="0.91 r13725"
   width="604.23486"
   height="930"
   viewBox="0 0 604.23487 929.99999"
   sodipodi:docname="en_lower_s.svg">
  <metadata
     id="metadata4378">
    <rdf:RDF>
      <cc:Work
         rdf:about="">
        <dc:format>image/svg+xml</dc:format>
        <dc:type
           rdf:resource="http://purl.org/dc/dcmitype/StillImage" />
        <dc:title></dc:title>
      </cc:Work>
    </rdf:RDF>
  </metadata>
  <defs
     id="defs4376" />
  <sodipodi:namedview
     pagecolor="#ffffff"
     bordercolor="#666666"
     borderopacity="1"
     objecttolerance="10"
     gridtolerance="10"
     guidetolerance="10"
     inkscape:pageopacity="0"
     inkscape:pageshadow="2"
     inkscape:window-width="1663"
     inkscape:window-height="1027"
     id="namedview4374"
     showgrid="false"
     fit-margin-top="0"
     fit-margin-left="0"
     fit-margin-right="0"
     fit-margin-bottom="0"
     inkscape:zoom="0.71682645"
     inkscape:cx="322.5337"
     inkscape:cy="551.99245"
     inkscape:window-x="168"
     inkscape:window-y="0"
     inkscape:window-maximized="0"
     inkscape:current-layer="svg4372" />
  <path
     style="fill:#000000"
     d="m 386.19921,928.00286 c -6.68347,-2.50433 -13.53249,-8.15117 -15.22003,-12.54883 -2.20804,-5.75394 -8.99381,-7.42515 -24.20125,-5.96034 -17.84715,1.71887 -20.14551,0.84571 -14.78212,-5.61675 5.44175,-6.55697 0.31019,-7.32489 -35.84624,-5.36499 -23.20839,1.25823 -46.37857,3.96187 -51.48931,6.00848 -5.11071,2.04653 -16.77975,1.11097 -25.93112,-2.07899 -12.25932,-4.27362 -19.66732,-4.15108 -28.1444,0.46564 -16.70223,9.09607 -42.30136,2.02579 -68.67643,1.36914 -96.250798,-1.61305 -84.244255,-154.3675 -0.88911,-152.14517 40.98033,-0.98644 25.8463,1.68521 29.39145,7.36185 12.46603,12.55665 16.67378,1.74659 32.49306,5.70347 13.86917,3.57577 35.74215,6.8995 48.60659,7.38614 20.18954,0.76371 24.22411,-0.94625 29.48659,-12.4961 6.25834,-13.7355 14.06498,-17.14427 19.41995,-8.47972 1.66611,2.69544 12.0362,4.15543 23.04501,3.24415 11.0088,-0.91131 22.42266,0.12123 25.36411,2.29077 11.58885,8.55452 25.28513,11.15013 22.65387,4.29316 -1.83547,-4.78304 4.28685,-6.99616 20.75359,-7.50198 14.68764,-0.45138 22.10427,1.30957 19.98186,4.74362 -1.87077,3.02702 -0.0642,4.35723 4.05442,2.98459 4.08605,-1.36198 7.42936,-5.88597 7.42936,-10.05295 0,-4.16709 4.21508,-12.2456 9.36682,-17.95233 7.20074,-7.97643 7.81912,-11.35849 2.67405,-14.62539 -4.78223,-3.03629 -4.02109,-4.27291 2.6662,-4.33142 8.13159,-0.0713 9.35916,-5.72848 9.35916,-43.13218 0,-56.94708 -10.34011,-78.3757 -36.18423,-74.98744 -3.72337,0.48811 -6.13001,-2.12248 -5.34809,-5.80168 0.78189,-3.67906 -3.39176,-6.80166 -9.27455,-6.939 -6.99266,-0.16401 -10.41776,-3.61763 -9.89211,-9.97665 0.52732,-6.38067 -1.81265,-8.72263 -6.80278,-6.8078 -4.28235,1.64329 -16.22304,-5.20797 -27.32172,-15.67658 -10.843,-10.22733 -21.49939,-18.59538 -23.68074,-18.59538 -2.18131,0 -17.79207,-8.32869 -34.69055,-18.50824 -23.86756,-14.3776 -32.36475,-17.14695 -38.07395,-12.40875 -5.7508,4.77274 -9.88648,3.01311 -19.01314,-8.0891 -10.15196,-12.34952 -15.01145,-13.97738 -37.49218,-12.55931 -25.98642,1.63937 -37.1425,-3.6013 -63.55943,-29.85697 -5.10386,-5.0727 -15.35758,-10.74856 -22.786,-12.61297 -7.42847,-1.86435 -13.50629,-5.5356 -13.50629,-8.15816 0,-2.6227 -2.40664,-4.76832 -5.34809,-4.76832 -5.57599,0 -26.74045,-19.23277 -26.74045,-24.29984 0,-1.59908 -5.93211,-9.30496 -13.18248,-17.12416 -7.25037,-7.81919 -14.76012,-21.55234 -16.6884,-30.51809 -1.92823,-8.96579 -6.69659,-22.54994 -10.5963804,-30.18702 -15.05698,-29.48679 -5.80525,-165.27541 11.2607604,-165.27541 4.17975,0 5.73173,-4.1339 4.01567,-10.69619 -1.62582,-6.21691 -0.16401,-10.69618 3.49052,-10.69618 3.45807,0 5.02428,-2.04393 3.48018,-4.54206 -1.54382,-2.49813 3.0452,-7.67412 10.19802,-11.50221 7.15286,-3.82809 11.74199,-9.00409 10.19803,-11.50222 -1.54382,-2.49813 -0.11766,-4.54206 3.17213,-4.54206 3.28872,0 4.49197,-2.40664 2.67405,-5.348094 -1.818,-2.94145 -1.014,-5.34809 1.78626,-5.34809 6.78156,0 13.07858,17.025424 7.75409,20.964794 -2.30574,1.7059 -5.01109,7.9149 -6.01193,13.7978 -1.00081,5.88291 -5.71843,15.05473 -10.48351,20.38185 -7.01149,7.83843 -7.31401,10.51989 -1.58624,14.05985 5.01615,3.10015 5.3047,5.22479 0.99082,7.29454 -4.42116,2.12112 -4.43307,2.61297 -0.0428,1.79721 5.60055,-1.04078 21.10256,-35.66055 22.24599,-49.68037 0.27453,-3.38081 5.27036,-9.39741 11.09921,-13.37022 5.82881,-3.97282 16.66234,-12.260504 24.0745,-18.417074 l 13.47637,-11.19376 -18.06938,-0.51374 c -13.54258,-0.38506 -16.11258,0.81651 -10.2586,4.79614 6.32743,4.30149 5.86365,5.00139 -2.44229,3.68537 -15.29323,-2.42311 -15.48829,-11.50133 -0.39755,-18.50263 7.85457,-3.64412 13.32463,-4.06342 13.32463,-1.02138 0,2.83831 2.30146,3.73812 5.11452,1.99962 2.8131,-1.73852 3.56572,-7.2955 1.67289,-12.34884 -2.99921,-8.00659 -2.28934,-8.25047 5.52279,-1.89679 4.93051,4.01011 7.74849,9.25875 6.26219,11.66367 -5.70784,9.23549 6.27944,8.81507 24.12909,-0.84625 11.7084,-6.33731 15.06981,-10.08635 9.04351,-10.08635 -5.27521,0 -8.10396,-2.40664 -6.28604,-5.34809 1.818,-2.94145 7.80465,-5.34809 13.30384,-5.34809 5.49923,0 14.17327,-4.17469 19.27567,-9.27709 5.10239,-5.1024 14.90085,-8.54012 21.77436,-7.6394 6.8735,0.90073 12.49727,-1.0832 12.49727,-4.40877 0,-3.32555 2.66442,-4.39972 5.92105,-2.38703 3.95534,2.44454 4.76173,0.006 2.42875,-7.3434 -3.10724,-9.7905197 -1.41225,-10.8955197 15.38503,-10.0289197 16.95855,0.87492 33.38578,14.3441497 17.49436,14.3441497 -3.61232,0 -9.5738,4.81328 -13.24773,10.69618 -5.5449,8.8788 -5.3411,10.69619 1.1994,10.69619 4.33363,0 10.77388,5.40853 14.31167,12.01896 3.96429,7.4074 7.28553,9.45941 8.65596,5.34809 1.22293,-3.66898 5.63304,-6.67087 9.80009,-6.67087 4.16706,0 7.57646,-3.60996 7.57646,-8.02214 0,-4.41217 -2.54854,-8.02213 -5.6637,-8.02213 -3.11508,0 -4.27911,-2.24036 -2.58669,-4.97855 1.69214,-2.73819 0.63108,-6.4902 -2.35851,-8.33777 -7.14006,-4.4128 -6.98674,-13.4241397 0.22819,-13.4241397 3.11508,0 4.17632,2.4066397 2.35851,5.3480897 -1.818,2.94145 -0.75658,5.34809 2.3585,5.34809 3.11509,0 5.6637,-2.46212 5.6637,-5.47138 0,-3.00926 6.07829,-1.48877 13.50729,3.37892 12.32486,8.07558 14.32522,8.11006 22.85151,0.39384 5.49755,-4.97522 12.17168,-6.70902 16.21249,-4.21166 3.77753,2.33465 16.67321,3.26429 28.65707,2.06589 18.12118,-1.81211 21.22062,-0.77169 18.41308,6.18083 -11.30544,27.99664 -11.26322,27.51456 -1.73171,19.76172 4.94727,-4.02398 13.95852,-6.01833 20.02507,-4.43189 7.05952,1.84612 10.23161,0.62943 8.81202,-3.37986 -1.21973,-3.44534 -6.14471,-5.93435 -10.94402,-5.53109 -4.7993,0.40324 -7.40653,-1.40174 -5.79387,-4.01107 4.2379,-6.85706 17.09218,-5.8291 19.55651,1.56396 1.15661,3.46952 9.85254,6.84475 19.3245,7.50051 18.84472,1.30464 32.94517,10.35063 32.94517,21.1355 0,8.06993 15.25964,7.05639 20.48305,-1.36048 6.41824,-10.34226 21.51009,-9.75746 30.42247,1.17886 4.79414,5.8829 6.96308,7.31604 4.8197,3.18475 -2.84946,-5.49243 -1.87789,-6.25554 3.61446,-2.83905 4.13129,2.56983 26.01349,8.935073 41.72199,11.569326 74.90002,35.780978 24.61211,114.682198 -30.59186,98.727748 -18.16355,-4.04864 -40.89051,-7.65335 -46.33758,-9.74358 -4.55451,-1.74773 -15.67985,-0.1129 -24.72305,3.63289 -10.14729,4.20314 -17.78868,4.85676 -19.95929,1.70726 -6.75738,-9.80492 -44.49772,-28.78572 -50.2128,-25.25361 -3.68851,2.27964 -4.18759,1.01186 -1.38622,-3.521 3.23381,-5.23222 1.89643,-6.13112 -5.1172,-3.43972 -6.95084,2.6673 -8.69182,1.55084 -6.49772,-4.16689 2.01096,-5.24045 0.4471,-6.83189 -4.75263,-4.83656 -4.26239,1.63563 -7.74978,5.12303 -7.74978,7.74977 0,2.62674 -4.81328,4.77591 -10.69618,4.77591 -5.8829,0 -10.69618,-2.46212 -10.69618,-5.47138 0,-3.10072 -5.21378,-2.18085 -12.03321,2.12305 -6.61826,4.17694 -19.25313,7.0633 -28.07748,6.41413 -8.82435,-0.64915 -17.77581,1.40376 -19.89216,4.56206 -2.6908,4.01548 -7.1136,3.71834 -14.70725,-0.98808 -13.14657,-8.14801 -32.95312,1.35375 -28.26866,13.5613 2.48366,6.47223 1.17159,6.52911 -8.85244,0.38382 -10.27304,-6.29801 -12.45185,-6.01124 -17.14837,2.25697 -2.95892,5.2094 -7.51303,8.15342 -10.11994,6.54226 -2.60702,-1.61116 -3.8005,1.9482 -2.6523,7.90966 1.14806,5.96144 -0.18183,10.83901 -2.95357,10.83901 -2.77245,0 -4.75602,1.80498 -4.40772,4.01106 1.74169,11.03153 -1.4201,17.3813 -8.65546,17.3813 -7.5909,0 -8.60433,3.73814 -10.14939,37.43664 -0.75337,16.42883 10.45562,47.63201 19.97523,55.60687 3.87105,3.24308 14.69052,15.88812 24.04323,28.10052 12.152,15.86764 24.81636,25.01331 44.37686,32.04715 15.05455,5.41355 28.52814,12.85592 29.94133,16.53858 1.41332,3.68269 4.5201,5.49021 6.90428,4.01674 2.38418,-1.47358 12.25308,3.95523 21.93095,12.0639 9.67784,8.10867 15.75619,11.73471 13.50743,8.0579 -2.81631,-4.6046 -0.24602,-6.65963 8.26016,-6.60322 8.62611,0.0571 10.23732,1.42117 5.34463,4.52391 -5.2796,3.34827 -3.63356,6.65057 6.68512,13.41163 7.52911,4.93329 13.72619,7.10914 13.77122,4.83524 0.0463,-2.27401 1.85009,-1.50174 4.01107,1.71602 2.16099,3.21777 19.13683,13.09973 37.72398,21.96009 18.58711,8.86036 33.62861,17.65925 33.42556,19.55308 -0.98262,9.16442 0.28524,9.56891 8.65425,2.76104 7.87421,-6.40512 8.59003,-6.18264 5.62045,1.74669 -2.44158,6.51968 -1.19654,8.24009 4.4074,6.08966 5.68192,-2.18024 6.94617,-0.28523 4.63915,6.95747 -2.99493,9.40159 -2.74286,9.43464 4.54003,0.59542 4.24118,-5.14754 10.19677,-9.35916 13.2346,-9.35916 3.03771,0 6.90859,-3.60996 8.60176,-8.02213 1.69321,-4.41218 5.70256,-8.02214 8.90992,-8.02214 3.20743,0 4.13022,2.75284 2.05081,6.11743 -5.92194,9.58182 -7.9643,37.55669 -2.49506,34.17659 2.69829,-1.66754 6.41728,-0.5858 8.26484,2.40343 1.84758,2.98958 1.06819,5.43533 -1.73243,5.43533 -2.80026,0 -6.46573,3.58109 -8.14532,7.95796 -1.72494,4.49564 -0.33515,7.40422 3.19566,6.68512 5.94658,-1.21117 7.20513,1.68572 8.74128,20.11952 0.92058,11.04498 10.03494,10.10942 13.02617,-1.33703 1.74775,-6.6885 2.80347,-5.5439 3.69956,4.01107 0.68954,7.35363 0.90917,15.35409 0.48774,17.7788 -0.42071,2.42483 1.73991,2.86017 4.80205,0.96765 3.06232,-1.89251 4.18321,-5.68142 2.49079,-8.41964 -1.69214,-2.73822 -0.52839,-4.97854 2.58669,-4.97854 7.73519,0 7.1392,12.31537 -1.02149,21.10732 -5.39094,5.80795 -5.28002,6.40309 0.57296,3.07408 5.45958,-3.10546 6.39999,-1.42438 3.79501,6.78295 -2.47652,7.8029 0.003,13.33935 8.70527,19.43435 10.20854,7.15037 12.33444,13.89905 13.19983,41.90237 0.56726,18.35861 2.23337,41.20084 3.70252,50.76055 2.04083,13.28116 0.71629,17.3813 -5.61638,17.3813 -6.76035,0 -7.06066,-1.47822 -1.62975,-8.02214 4.5999,-5.54255 4.8023,-8.02214 0.65497,-8.02214 -6.13234,0 -7.93083,6.35849 -6.33749,22.40551 0.49381,4.96937 -4.04269,19.25958 -10.0803,31.75604 -6.0376,12.49642 -10.97749,25.8583 -10.97749,29.6931 0,3.83472 -4.81328,9.97818 -10.69618,13.65211 -5.8829,3.67392 -10.69618,10.91427 -10.69618,16.08962 0,5.17535 -3.53438,9.40972 -7.85432,9.40972 -4.31979,0 -6.77596,3.00848 -5.45805,6.68511 3.53224,9.85486 -32.12537,55.82359 -50.78836,65.47465 -9.16306,4.73844 -16.12053,5.96883 -16.12053,2.85089 0,-3.01704 2.00553,-5.48543 4.45674,-5.48543 2.45121,0 4.45674,-3.65264 4.45674,-8.11701 0,-6.25798 -2.82023,-5.46746 -12.31405,3.4513 -6.77272,6.36266 -11.03236,13.64227 -9.46587,16.1769 1.56663,2.53464 -0.90062,6.04698 -5.48219,7.80515 -4.58171,1.7581 -7.15471,5.09894 -5.71778,7.42397 1.43685,2.325 -0.79687,5.53563 -4.964,7.13471 -4.16712,1.59908 -8.36491,7.56791 -9.32842,13.26402 -1.41618,8.37129 -4.08134,9.48384 -13.90361,5.80364 z M 324.45699,858.013 c -1.70711,-4.26635 -2.9746,-2.99921 -3.23096,3.23096 -0.23175,5.63778 1.03183,8.7965 2.80882,7.01937 1.77699,-1.777 1.96703,-6.38987 0.42214,-10.25051 z m 108.65657,-4.34533 c 0,-5.8829 -0.92273,-10.69618 -2.05046,-10.69618 -1.12774,0 -3.30904,4.81328 -4.8474,10.69618 -1.53847,5.8829 -0.61575,10.69619 2.0501,10.69619 2.66656,0 4.84776,-4.81329 4.84776,-10.69619 z m -211.63161,-3.0559 c 10.43238,-10.43238 10.54458,-12.98823 0.57011,-12.98823 -4.30871,0 -10.40996,4.81328 -13.55841,10.69618 -6.91904,12.92837 0.96123,14.31898 12.98823,2.2922 z M 148.32769,820.2421 c -1.22578,-3.67681 -4.83556,-6.68511 -8.02213,-6.68511 -3.18675,0 -7.59875,-1.80516 -9.80484,-4.01107 -5.39169,-5.39169 7.7907,-3.60912 7.7907,1.9995 0,4.42001 -1.08112,14.29792 7.8079,15.01987 2.45121,0.19967 3.45416,-2.64623 2.22837,-6.32315 z m 324.89655,-73.53625 c 1.81799,-2.94145 0.75658,-5.34809 -2.35851,-5.34809 -3.11508,0 -5.66373,2.40664 -5.66373,5.34809 0,2.94145 1.06141,5.34809 2.3585,5.34809 1.29709,0 3.84582,-2.40664 5.66374,-5.34809 z m 86.54873,-81.22413 c -1.70711,-4.26635 -2.97461,-2.99921 -3.23096,3.23131 -0.23175,5.63771 1.03182,8.79647 2.80882,7.01934 1.77699,-1.777 1.96702,-6.38987 0.42214,-10.25051 z M 412.70157,475.05341 c -6.42213,-4.26411 -11.67656,-11.32683 -11.67656,-15.69494 0,-4.78533 -3.12043,-6.74458 -7.85086,-4.92933 -4.31797,1.65684 -9.34554,0.59435 -11.1723,-2.36172 -2.15956,-3.49409 -5.96116,-3.18354 -10.86746,0.8885 -4.56111,3.78538 -7.54602,4.11443 -7.54602,0.8318 0,-2.98673 -3.60996,-6.81603 -8.02214,-8.50913 -4.88662,-1.87504 -8.02213,-0.009 -8.02213,4.77592 0,4.31983 3.00812,7.90779 6.68511,7.97318 3.67681,0.0642 12.55326,4.62924 19.72547,10.14187 7.17219,5.5126 15.81153,8.95955 19.19851,7.65982 3.38712,-1.29958 9.22307,1.32989 12.96905,5.84354 3.74598,4.51361 9.38601,6.61509 12.53339,4.66995 3.52297,-2.17738 1.23434,-6.51672 -5.95406,-11.2896 z m -75.19003,-29.26682 c -5.28184,-5.24256 -5.89616,-4.62828 -2.99386,2.99386 2.00839,5.27439 4.99883,8.24258 6.64543,6.59598 1.6465,-1.6465 0.003,-5.96202 -3.6516,-9.58981 z m 68.86156,-2.85232 c 0,-6.64536 -12.07225,-17.11389 -19.7356,-17.11389 -4.88209,0 -4.22167,3.12828 2.25832,10.69618 9.42405,11.00666 17.47728,13.9638 17.47728,6.41771 z M 240.58226,408.98423 c 0,-2.11642 6.01661,-2.75676 13.37023,-1.4233 16.6366,3.01668 17.72992,-6.39956 1.33703,-11.51537 -6.61827,-2.06543 -13.30003,-5.71062 -14.84841,-8.10033 -4.09375,-6.31827 -13.92525,1.39122 -17.853,13.99974 -2.63268,8.45152 -0.99938,10.88718 7.30132,10.88718 5.88105,0 10.69283,-1.73171 10.69283,-3.84792 z M 225.36078,384.7183 c 5.37675,-6.47857 1.38408,-7.38125 -26.66405,-6.02822 -21.81979,1.0525 -32.98774,3.83558 -32.98774,8.2203 0,9.52178 51.50083,7.62923 59.65179,-2.19201 z m -67.06111,-18.67396 c -5.81298,-29.06488 -14.48644,-29.40084 -10.0681,-0.39006 1.45611,9.55972 5.08147,17.3813 8.05676,17.3813 3.22525,0 4.03749,-6.86064 2.01124,-16.99131 z m -9.80651,-68.57813 c 0.24958,-8.82435 -1.78947,-16.04427 -4.53422,-16.04427 -5.68455,0 -6.83906,23.1091 -1.42508,28.52314 5.29033,5.29033 5.46436,4.92587 5.95923,-12.47887 z m -132.53072,0 c 0,-2.94145 -2.54855,-5.34809 -5.6637,-5.34809 -3.1150904,0 -4.1763604,2.40664 -2.3585104,5.34809 1.81799,2.94145 4.3666104,5.34809 5.6637404,5.34809 1.29709,0 2.3585,-2.40664 2.3585,-5.34809 z m 125.68014,-26.74044 c 1.81799,-2.94145 0.89848,-5.34809 -2.04261,-5.34809 -2.94145,0 -6.83547,2.40664 -8.65339,5.34809 -1.818,2.94145 -0.89848,5.34809 2.04261,5.34809 2.94145,0 6.83547,-2.40664 8.65339,-5.34809 z m -32.30846,-64.53293 c -1.93886,-3.13716 0.92739,-9.07722 6.3695,-13.20014 5.44208,-4.12291 7.48805,-7.75689 4.5466,-8.07549 -2.94145,-0.31875 -9.87426,-1.43168 -15.40625,-2.47349 -7.22442,-1.36056 -8.42499,-0.26099 -4.26136,3.90253 3.9234,3.9234 4.08847,8.98873 0.51092,15.67365 -4.11236,7.68393 -3.39283,9.87688 3.23987,9.87688 4.68928,0 6.93958,-2.56677 5.00072,-5.70394 z m 150.70304,-81.49343 c 2.04607,-2.04611 -1.49422,-3.72019 -7.86736,-3.72019 -6.37315,0 -11.58754,2.19368 -11.58754,4.87487 0,5.43721 13.67461,4.62559 19.4549,-1.15469 z m 31.04374,-13.91762 c 1.64828,-2.66713 -1.81942,-3.58977 -7.70653,-2.05028 -12.48772,3.26562 -14.06626,6.89963 -2.99707,6.89963 4.23858,0 9.05518,-2.1822 10.70357,-4.84934 z m 19.02656,-0.49875 c 0,-2.94145 -1.06142,-5.3481 -2.35851,-5.3481 -1.29709,0 -3.84581,2.40665 -5.66373,5.3481 -1.818,2.94145 -0.75658,5.34809 2.3585,5.34809 3.11509,0 5.66374,-2.40664 5.66374,-5.34809 z M 481.16448,98.249826 c 0.0464,-2.20609 -2.32464,-4.01107 -5.26619,-4.01107 -2.94145,0 -5.31123,5.41494 -5.2662,12.033214 0.0677,9.73052 1.0739,10.49808 5.2662,4.01107 2.85124,-4.41218 5.22116,-9.82712 5.26619,-12.033214 z M 239.35666,73.849166 c 3.2085,-9.62582 -7.84565,-7.60314 -11.57605,2.11816 -1.99876,5.20858 -0.80364,7.65356 3.10475,6.35086 3.49479,-1.16499 7.30713,-4.97605 8.47144,-8.46902 z M 384.98074,741.04212 c 0,-3.11509 2.40664,-4.17633 5.34809,-2.35851 2.94145,1.81799 5.34809,4.36661 5.34809,5.66373 0,1.29709 -2.40664,2.35851 -5.34809,2.35851 -2.94145,0 -5.34809,-2.54854 -5.34809,-5.66373 z M 559.90239,575.62708 c 1.52991,-5.84985 4.91443,-9.31776 7.52145,-7.70653 7.55575,4.66967 5.48244,18.34257 -2.78136,18.34257 -4.87425,0 -6.54254,-3.74342 -4.74009,-10.63604 z m -14.47892,-53.54106 c 0,-2.94145 2.40664,-5.34809 5.34809,-5.34809 2.94145,0 5.34809,2.40664 5.34809,5.34809 0,2.94145 -2.40664,5.34809 -5.34809,5.34809 -2.94145,0 -5.34809,-2.40664 -5.34809,-5.34809 z M 122.73615,59.249506 c -9.4674,-11.40752 2.12105,-24.25089 12.22132,-13.54467 5.34884,5.66976 5.34217,7.57841 -0.0332,9.54853 -3.69514,1.35428 -5.35808,4.66341 -3.69543,7.35363 4.91237,7.94835 -1.07354,5.58185 -8.49255,-3.3575 z m 337.89355,-21.2581 c -6.92699,-7.30281 -10.3548,-13.27783 -7.61736,-13.27783 2.73751,0 10.62948,6.0166 17.53785,13.37023 6.90838,7.35362 10.33619,13.32865 7.61736,13.27783 -2.71897,-0.051 -10.61086,-6.06743 -17.53785,-13.37023 z m -300.2688,-2.58165 c 0,-2.94145 2.54854,-5.34809 5.66373,-5.34809 3.11509,0 4.17633,2.40664 2.35851,5.34809 -1.81799,2.94145 -4.36657,5.34809 -5.6637,5.34809 -1.29709,0 -2.35851,-2.40664 -2.35851,-5.34809 z m 144.48037,-20.05534 c 0.0464,-2.20609 2.11677,-7.2211597 4.60381,-11.1445997 3.68587,-5.81458 5.08586,-5.66405 7.57176,0.81416 1.67752,4.37123 1.6112,9.3862897 -0.14618,11.1445897 -4.49821,4.49735 -12.12726,3.98097 -12.02936,-0.81416 z"
     id="path4382"
     inkscape:connector-curvature="0"
     sodipodi:nodetypes="cscssccsccccsscscscccssccsssccsssssssssssssssscscscscssssscccsscsssssscsssscssssscssssscsssccscssssssssscsscsssscsccsssscsssssssssssscccsssscssccscccscssscsccsssssccsccccccccsscccscssscssssscssssccccsccccccccsscsscsscccscsccccssscccccccscccscscscsccccssccsscssssscsscssccccscccsscccscscccscscsscsscsscsscccssccsscsscsccccscccscssscsscssssscsssccssscscscscccscccc" />
</svg>
