<?xml version="1.0" encoding="UTF-8" standalone="no"?>
<!-- Created with Inkscape (http://www.inkscape.org/) -->

<svg
   xmlns:dc="http://purl.org/dc/elements/1.1/"
   xmlns:cc="http://creativecommons.org/ns#"
   xmlns:rdf="http://www.w3.org/1999/02/22-rdf-syntax-ns#"
   xmlns:svg="http://www.w3.org/2000/svg"
   xmlns="http://www.w3.org/2000/svg"
   xmlns:sodipodi="http://sodipodi.sourceforge.net/DTD/sodipodi-0.dtd"
   xmlns:inkscape="http://www.inkscape.org/namespaces/inkscape"
   id="svg3941"
   version="1.1"
   inkscape:version="0.91 r13725"
   width="703.97705"
   height="929.99994"
   viewBox="0 0 703.97705 929.99994"
   sodipodi:docname="en_lower_a.svg">
  <metadata
     id="metadata3947">
    <rdf:RDF>
      <cc:Work
         rdf:about="">
        <dc:format>image/svg+xml</dc:format>
        <dc:type
           rdf:resource="http://purl.org/dc/dcmitype/StillImage" />
        <dc:title></dc:title>
      </cc:Work>
    </rdf:RDF>
  </metadata>
  <defs
     id="defs3945" />
  <sodipodi:namedview
     pagecolor="#ffffff"
     bordercolor="#666666"
     borderopacity="1"
     objecttolerance="10"
     gridtolerance="10"
     guidetolerance="10"
     inkscape:pageopacity="0"
     inkscape:pageshadow="2"
     inkscape:window-width="1335"
     inkscape:window-height="997"
     id="namedview3943"
     showgrid="false"
     fit-margin-top="0"
     fit-margin-left="0"
     fit-margin-right="0"
     fit-margin-bottom="0"
     inkscape:zoom="0.46825397"
     inkscape:cx="-56.187202"
     inkscape:cy="770.16198"
     inkscape:window-x="293"
     inkscape:window-y="0"
     inkscape:window-maximized="0"
     inkscape:current-layer="svg3941" />
  <path
     style="fill:#000000"
     d="m 616.78286,926.21372 c -5.25909,-2.98643 -7.89752,-8.12296 -5.86321,-11.41458 2.34357,-3.79211 0.61082,-4.79987 -4.7293,-2.75066 -12.55706,4.81867 -15.95933,-21.8125 -4.93971,-38.66592 5.0897,-7.78433 6.00892,-11.82729 2.14812,-9.44797 -5.99495,3.69457 -7.80426,0.60938 -6.28776,-10.72202 0.60758,-4.54 -12.264,-12.56426 -20.32213,-12.66896 -3.4997,-0.0432 -9.57377,2.99722 -13.49777,6.76184 -3.924,3.76447 -17.51276,11.44596 -30.19731,17.06989 -21.8301,9.67887 -23.42914,9.72426 -29.9184,0.84946 -4.10163,-5.60935 -16.39572,-10.29459 -30.6039,-11.66308 -22.42609,-2.16001 -30.3292,-2.33962 -66.24013,-1.50527 -8.16615,0.19076 -14.84755,2.81509 -14.84755,5.83398 0,3.1718 -3.41907,2.65132 -8.09866,-1.23207 -6.58568,-5.46563 -8.09866,-5.21068 -8.09866,1.36453 0,5.48474 -10.42085,10.39764 -32.39466,15.27256 -17.81706,3.95269 -32.39465,10.10249 -32.39465,13.66622 0,11.16114 -21.15849,1.67373 -32.8337,-14.72268 -9.85977,-13.84676 -10.01224,-15.10864 -1.42752,-11.81436 8.51281,3.26682 8.70919,2.72259 1.718,-4.76165 -8.02513,-8.59088 -23.85225,-7.26281 -18.40887,1.54486 1.63737,2.64952 -3.23587,2.4548 -10.82921,-0.43193 -7.59359,-2.88744 -13.80645,-3.7973 -13.80645,-2.0225 0,1.77486 -3.70001,0.15477 -8.22223,-3.59689 -6.8024,-5.64548 -7.68203,-5.41602 -5.09377,1.3289 2.07794,5.41542 -1.05282,9.27272 -9.32483,11.48819 -18.80228,5.03582 -21.99884,4.24251 -18.59956,-4.61584 1.86269,-4.85391 0.0396,-8.09866 -4.55318,-8.09866 -4.2135,0 -9.88317,-3.97094 -12.59928,-8.82438 -3.75278,-6.70583 -12.8903,-8.781 -38.06202,-8.64382 -18.21802,0.10078 -33.1237,-2.14705 -33.1237,-4.99209 0,-2.84497 -2.31441,-3.74223 -5.14272,-1.99407 -2.828409,1.74823 -8.295109,-2.83813 -12.147989,-10.19161 -3.85291,-7.35358 -9.43487,-14.10707 -12.40438,-15.00779 -2.9695,-0.90093 -5.16734,-6.25108 -4.88406,-11.88959 -1.407348,-17.81147 -12.643565,9.53897 -9.93141,17.52551 2.90436,7.76071 2.15245,7.95799 -5.76992,1.51355 -5.01022,-4.07539 -9.10955,-5.6001 -9.10955,-3.38812 0,2.21183 -3.61762,1.01935 -8.0392,-2.65025 -4.42158,-3.66962 -6.70778,-8.82631 -5.08045,-11.45935 1.62729,-2.63296 0.10078,-4.78731 -3.38884,-4.78731 -3.69076,0 -5.16475,-4.52262 -3.52166,-10.80567 1.55423,-5.94312 0.79079,-9.54789 -1.69676,-8.01062 -2.48754,1.53731 -6.04858,0.32395 -7.91375,-2.69199 -1.86522,-3.0181 -0.81815,-5.48726 2.32665,-5.48726 3.1448,0 5.68054,-4.2518 5.63508,-9.44844 -0.0648,-7.48755 -1.0629,-7.90101 -4.80506,-1.99227 -6.12996,9.67844 -11.47864,-24.7661 -9.3321,-60.09746 0.85702,-14.10516 -0.73572,-25.64576 -3.53894,-25.64576 -2.80321,0 -3.82544,-4.86254 -2.27122,-10.80566 1.55422,-5.94312 0.76775,-9.53382 -1.74751,-7.9793 -2.51527,1.55458 -3.32189,-17.85863 -1.7925,-43.14038 2.01602,-33.32588 6.13432,-52.28931 14.9755,-68.95797 6.70713,-12.64522 13.86062,-29.67274 15.89666,-37.839 3.4889,-13.99394 78.714629,-92.33491 90.078849,-93.80926 2.86116,-0.3711 6.41676,-1.28211 7.90152,-2.02467 1.48475,-0.74256 4.52175,-1.69064 6.74888,-2.10745 2.22731,-0.41645 7.14561,-2.72259 10.92995,-5.12426 8.02336,-5.09182 39.01179,0.59174 39.01179,7.15522 0,2.45552 4.8592,3.19411 10.79821,1.64097 7.71385,-2.01711 10.79822,-0.16557 10.79822,6.48224 0,6.26768 2.78846,8.23601 8.54027,6.02879 4.69712,-1.80258 10.16371,-3.31433 12.14799,-3.35969 1.98435,-0.0468 -0.036,-2.43823 -4.49094,-5.31671 -6.08134,-3.93005 -3.05518,-5.42247 12.14799,-5.99132 32.40796,-1.21264 33.7414,-1.66364 33.80446,-11.43693 0.0329,-5.1159 4.62703,-13.6132 10.20899,-18.88291 5.58192,-5.26967 8.44399,-6.53691 6.36015,-2.81617 -4.24287,7.57592 10.60834,6.93562 23.34854,-1.00676 5.02085,-3.13004 6.35932,-2.74706 3.96129,1.1331 -1.99191,3.22326 -0.83254,7.58405 2.5761,9.69089 3.40899,2.10673 8.42851,-0.15477 11.15455,-5.02603 2.72619,-4.87118 9.20901,-8.85669 14.40655,-8.85669 5.19757,0 12.72209,-3.03682 16.72114,-6.74889 5.81677,-5.3991 6.50894,-5.3991 3.46083,0 -2.09558,3.71189 -2.56638,6.74889 -1.04599,6.74889 8.18392,0 34.6525,-14.72283 45.97249,-25.57169 11.66009,-11.17478 16.96478,-12.22908 51.29151,-10.19394 21.05753,1.24827 39.5012,2.77586 40.98595,3.39424 1.48476,0.61838 7.55875,1.47359 13.49777,1.90048 7.29628,0.52444 10.49471,4.27775 9.86248,11.57407 -0.86458,9.97719 -0.14758,9.82907 9.44844,-1.948 10.81005,-13.26884 14.34337,-30.83135 5.04687,-25.08583 -2.98031,1.84217 -4.00996,-0.16198 -2.33134,-4.53435 1.65321,-4.30813 0.41033,-9.43689 -2.76146,-11.39727 -7.28988,-4.50537 -7.57121,-33.56945 -0.36822,-38.02123 2.96951,-1.83533 5.39911,-5.92055 5.39911,-9.07841 3e-5,-3.62057 -2.99183,-3.25854 -8.09863,0.97976 -6.76616,5.61539 -8.09866,4.83587 -8.09866,-4.73803 0,-6.3026 2.35329,-11.45929 5.22968,-11.45929 2.87629,0 3.92548,-3.39855 2.33134,-7.55255 -1.59418,-4.1539 -0.30235,-9.15649 2.86908,-11.11684 3.1718,-1.96023 5.76423,-6.45794 5.7606,-9.99457 -0.004,-3.53678 -5.70002,0.19077 -12.65864,8.2805 l -12.65201,14.71077 c -5.43109,-10.91444 -16.82448,-25.83543 -6.82775,-32.57098 6.68784,-4.38526 6.4344,-5.98009 -1.7126,-10.77892 -5.25912,-3.09765 -7.9207,-8.28781 -5.91468,-11.53365 2.19455,-3.55081 1.14929,-4.35758 -2.62397,-2.02538 -3.5105,2.16972 -7.69751,0.15837 -9.51053,-4.56491 -3.2445,-8.45522 -24.05496,-11.66553 -30.94653,-4.77396 -2.01674,2.01674 -12.7475,4.46873 -23.84605,5.44881 -16.78082,1.48188 -23.36205,-1.24647 -39.07629,-16.19978 -20.58629,-19.58893 -41.18323,-27.78195 -45.22284,-17.98852 -1.72699,4.18646 -4.39228,3.56705 -8.27485,-1.92294 -3.88304,-5.49061 -5.75412,-5.92528 -5.81016,-1.34978 -0.0468,3.71189 -4.94187,6.74889 -10.88089,6.74889 -5.93902,0 -10.96897,3.03699 -11.1777,6.74888 -0.20877,3.71189 -2.37741,1.88969 -4.81957,-4.04933 -4.06643,-9.88938 -4.76374,-10.00559 -8.28493,-1.3808 -2.11465,5.17958 -5.85972,8.17215 -8.3224,6.65014 -2.46271,-1.52201 -13.06144,6.0713 -23.55292,16.87402 -13.14049,13.53034 -21.93592,18.54359 -28.26943,16.1132 -5.05677,-1.94044 -10.89317,-0.77891 -12.96981,2.58114 -128.067081,12.13596 -60.00728,-7.39052 -126.873579,-17.44833 -15.6009,-13.69778 -18.64934,-19.65986 -16.62378,-32.51242 1.36417,-8.65629 4.75103,-18.64847 7.52621,-22.20485 8.06954,-10.34117 11.46036,-30.46113 5.7304,-34.00244 -2.8932,-1.78807 -3.8523,-6.9202 -2.13157,-11.40472 2.28886,-5.96497 0.57627,-7.26931 -6.38077,-4.85912 -5.67403,1.96574 -3.65714,-1.60274 5.00047,-8.8473 11.665919,-9.76186 13.420959,-14.07328 8.95352,-21.99524 -3.05625,-5.41936 -4.02273,-11.38726 -2.14812,-13.26199 1.87457,-1.87475 4.803259,1.92456 6.507829,8.44288 1.70467,6.51832 5.25261,10.52063 7.88453,8.89402 2.63188,-1.6266 4.78526,0.83031 4.78526,5.45983 3.84288,23.042547 21.86407,-6.161198 10.79822,0.31866 -2.96951,1.83526 -5.39911,0.76383 -5.39911,-2.3809 0,-5.86897 2.62793,-6.64784 28.54648,-8.46022 8.27676,-0.57879 20.00467,-6.37193 26.06196,-12.8737 9.70662,-10.41883 14.64727,-11.42319 41.64195,-8.4652 16.84575,1.84592 43.99142,4.10566 60.32371,5.02167 16.3323,0.91601 40.62828,4.15248 53.99107,7.19212 15.92805,3.62318 26.50156,3.70025 30.69976,0.22389 4.21723,-3.49225 10.1101,-3.3193 17.25885,0.50658 8.67132,4.64074 11.96622,3.9015 16.37826,-3.67467 5.2453,-9.00697 5.53146,-9.00892 5.68738,-0.0389 0.12958,7.42583 4.20198,9.15732 19.05021,8.09866 10.38734,-0.74061 18.89094,-3.22474 18.89688,-5.52033 0.006,-2.29559 6.09699,-0.18609 13.53563,4.68799 10.89907,7.14134 15.0918,7.56126 21.59643,2.16292 6.40456,-5.31529 9.73012,-5.32244 16.10154,-0.0346 4.41643,3.66532 11.70523,5.25386 16.19732,3.53008 4.49206,-1.72376 8.16741,-1.06417 8.16741,1.46582 0,7.71917 23.59982,11.34 28.06945,4.30658 3.25242,-5.1181 4.17783,-5.11079 4.24251,0.0335 0.0432,3.6187 3.71563,5.18535 8.15589,3.48146 21.48378,20.28929 75.84329,-5.855696 106.93202,56.07808 28.00999,91.78487 33.51517,120.45892 24.25502,126.33354 -5.39565,3.42304 -5.44867,4.44826 -0.23396,4.51215 3.71188,0.0468 6.74888,3.72707 6.74888,8.18133 0,4.45427 -2.21471,8.09866 -4.92139,8.09866 -2.70676,0 -4.10743,4.2518 -3.11277,9.44844 0.99488,5.19666 1.99479,17.48805 2.22191,27.31421 0.22677,9.82612 2.33854,16.67586 4.69139,15.22156 5.80444,-3.58717 7.14385,18.97879 1.54667,26.05403 -6.21732,7.85873 -10.30063,40.74213 -5.05929,40.74213 2.36193,0 2.904,3.62392 1.20436,8.05317 -1.76191,4.59147 0.61838,9.47629 5.53754,11.36393 4.74531,1.82094 7.2591,5.52548 5.58624,8.23227 -1.673,2.70675 -5.30332,3.52346 -8.06767,1.81518 -2.76434,-1.70828 -5.02603,2.19384 -5.02603,8.67169 0,10.35426 1.08594,10.88226 8.98261,4.36798 8.14509,-6.71911 8.37909,-6.27736 2.5095,4.73801 -3.56017,6.68139 -8.2097,12.14784 -10.33238,12.14763 -3.26034,-2.9e-4 -3.63676,37.6384 -1.56574,156.57446 0.57339,32.92527 -0.89517,38.44978 -9.35618,35.20293 -6.61571,-2.53866 -6.79003,-1.64276 -1.03015,5.29721 3.81267,4.59407 5.39219,9.89268 3.51014,11.77488 -1.88213,1.88213 -0.40602,7.14899 3.28013,11.70411 5.34591,6.60624 5.33641,7.46164 -0.0504,4.22747 -4.68066,-2.81186 -6.74888,0.0828 -6.74888,9.44321 0,7.42378 -2.4296,14.9993 -5.39911,16.83456 -2.96951,1.83534 -5.36192,6.23046 -5.31646,9.7671 0.0504,3.95696 2.28418,3.31541 5.80587,-1.66833 4.14043,-5.859 5.02556,5.027 3.20059,39.36356 -2.30721,43.41328 -3.77336,48.537 -17.18568,60.06182 -8.06468,6.92979 -12.41438,13.98945 -9.66584,15.68812 2.74851,1.69856 8.40576,-1.64061 12.57171,-7.42053 4.16736,-5.78011 9.4691,-10.50919 11.78305,-10.50919 8.25642,0 4.0219,25.77487 -6.41417,39.04221 -5.84173,7.42658 -9.06161,15.06257 -7.1553,16.96896 1.90625,1.90624 7.78775,-3.12213 13.06973,-11.17389 l 9.60368,-14.63996 -1.43652,13.47505 c -0.79007,7.41128 -3.48207,16.78467 -5.98214,20.82976 -3.33881,5.40234 -2.53254,6.14152 3.03754,2.7845 6.32667,-3.81296 6.42148,-3.13616 0.57194,4.08421 -4.95152,6.11211 -5.27097,9.72983 -1.08774,12.31529 4.25752,2.63116 4.1617,5.7837 -0.34194,11.20876 -3.44535,4.15134 -4.8322,13.2534 -3.08181,20.22678 2.95475,11.77304 -11.5326,35.31531 -22.4334,36.45452 -2.11141,0.21956 -8.69818,1.3001 -14.6372,2.39828 -5.93901,1.09854 -15.10108,-0.44596 -20.36021,-3.43275 z M 508.91428,726.31477 c 7.79253,0.41393 12.14799,-2.44363 12.14799,-7.97034 0,-5.17335 3.02494,-7.45502 7.57077,-5.71064 4.16398,1.59778 9.22564,1.25044 11.24818,-0.77207 2.02251,-2.0225 5.29706,-3.79676 7.2767,-3.94275 11.84399,-0.87322 26.13305,-9.17046 32.01591,-18.59039 3.73629,-5.98278 4.94508,-10.58142 2.68624,-10.21921 -2.25899,0.36246 -7.7515,0.33475 -12.20576,-0.0648 -6.79334,-0.60578 -6.88408,-1.49123 -0.56295,-5.49359 4.95976,-3.14048 6.06097,-8.18746 3.22147,-14.76487 -7.37903,-17.09346 -6.48796,-49.54533 1.27851,-46.5651 9.3668,3.59437 8.61578,-1.39549 -1.77379,-11.78506 -6.5881,-6.5881 -7.17912,-10.38886 -2.49331,-16.0347 7.42539,-8.94708 6.16096,-45.95493 -1.93972,-56.77499 -4.17786,-5.58038 -4.17214,-6.79446 0.0216,-4.28686 3.21715,1.92424 5.84907,0.0684 5.84907,-4.12517 0,-4.19302 -2.00559,-6.38423 -4.45653,-4.86942 -2.45084,1.51499 -8.72748,0.26636 -13.94766,-2.77298 -8.91133,-5.18944 -8.87602,-5.53714 0.57806,-5.69131 9.62463,-0.15837 9.65951,-0.78971 0.78971,-14.32667 -6.12032,-9.34085 -6.79128,-12.66433 -1.97067,-9.76187 6.02116,3.62535 6.00334,2.79133 -0.10078,-4.7343 -6.7445,-8.3147 -4.77843,-11.48581 6.06017,-9.77444 2.22731,0.35275 4.04933,-1.9336 4.04933,-5.0784 0,-3.1448 1.82238,-4.61458 4.04933,-3.2661 28.31252,2.9217 -2.04823,-25.27615 -4.04933,-7.41416 -12.07472,7.09937 -40.22173,-1.96893 -40.4933,13.69862 0,10.38845 -6.08004,17.69579 -15.08396,18.12879 -2.35725,0.11159 -11.65454,6.40651 -20.6609,13.98488 -17.83959,15.01096 -23.889,16.72129 -29.1329,8.23644 -1.88393,-3.04833 -6.34132,-4.87265 -9.90531,-4.05426 -7.45505,1.71117 -35.90032,-19.26094 -35.90032,-26.46781 0,-2.64808 -4.85919,-4.81493 -10.79821,-4.81493 -6.89585,0 -10.79822,3.59944 -10.79822,9.95992 0,5.47793 -2.37956,8.48937 -5.28752,6.69201 -2.90832,-1.79718 -10.19693,-0.64033 -16.19736,2.57105 -7.9871,4.27444 -10.90978,4.18654 -10.90978,-0.32754 0,-3.39172 -3.77059,-4.71979 -8.37909,-2.95115 -4.80478,1.84361 -6.97198,0.93872 -5.08045,-2.12185 1.8141,-2.93568 0.72564,-5.33749 -2.41916,-5.33749 -3.1448,0 -5.71777,3.34061 -5.71777,7.42377 0,4.27567 -5.60042,7.42378 -13.20682,7.42378 -7.26378,0 -30.5511,8.65196 -51.74962,19.22654 -21.19851,10.57458 -41.98101,17.90711 -46.18331,16.29454 -4.20234,-1.61253 -7.6406,-0.24116 -7.6406,3.04474 0,3.28733 -3.57925,5.97677 -7.95422,5.97677 -9.3889,0 -58.77259,22.61546 -61.23321,28.04199 -0.93441,2.0603 -4.87252,2.52822 -8.7517,1.03951 -21.98209,3.21284 -3.75422,13.36818 -3.94142,28.95901 -0.25196,8.16615 1.10249,20.92154 3.01198,28.34531 1.90948,7.42378 4.44569,22.95046 5.63623,34.50368 2.07578,20.14569 9.50614,30.02602 22.71329,30.20293 3.39424,0.0432 7.77666,4.26637 9.73887,9.37976 3.06346,7.98301 4.30428,8.17378 8.77892,1.34978 4.49734,-6.8586 6.20328,-6.65293 12.45275,1.50131 14.82891,13.01506 46.06797,17.15486 60.44577,9.22171 13.59686,-7.63686 24.54355,-9.74208 38.9493,-7.49043 11.02048,1.72231 24.28904,3.0998 29.48568,3.06057 5.19664,-0.036 9.44844,2.50483 9.44844,5.6533 0,3.88084 2.17368,3.97306 6.74888,0.28795 4.544,-3.66168 11.15866,-3.58537 20.24664,0.23396 23.4358,8.92254 49.44923,4.7361 71.80967,16.17461 11.86749,6.30691 19.99549,6.85852 37.79375,2.56493 12.47115,-3.00874 28.14134,-5.17968 34.82273,-4.82471 z"
     id="path3951"
     inkscape:connector-curvature="0"
     sodipodi:nodetypes="csssssccssscscsssscsccsccscsscsssccccsssssccsccssscssscscsscscccscssscccscsssssssccccssssscccccccsccssscscsccssssccssscsscccsccsssssscsscscsssssscccscssccccssscsssssssccscscccssccsscscscscccccccccscscsccccsscscscccssccsccccsscsssccsccsssscsscccsscssccccscccccc" />
</svg>
