<?xml version="1.0" encoding="UTF-8" standalone="no"?>
<!-- Created with Inkscape (http://www.inkscape.org/) -->

<svg
   xmlns:dc="http://purl.org/dc/elements/1.1/"
   xmlns:cc="http://creativecommons.org/ns#"
   xmlns:rdf="http://www.w3.org/1999/02/22-rdf-syntax-ns#"
   xmlns:svg="http://www.w3.org/2000/svg"
   xmlns="http://www.w3.org/2000/svg"
   xmlns:sodipodi="http://sodipodi.sourceforge.net/DTD/sodipodi-0.dtd"
   xmlns:inkscape="http://www.inkscape.org/namespaces/inkscape"
   id="svg3477"
   version="1.1"
   inkscape:version="0.91 r13725"
   width="27"
   height="41.849998"
   viewBox="0 0 27 41.849998"
   sodipodi:docname="en_lower_y.svg">
  <metadata
     id="metadata3483">
    <rdf:RDF>
      <cc:Work
         rdf:about="">
        <dc:format>image/svg+xml</dc:format>
        <dc:type
           rdf:resource="http://purl.org/dc/dcmitype/StillImage" />
        <dc:title></dc:title>
      </cc:Work>
    </rdf:RDF>
  </metadata>
  <defs
     id="defs3481" />
  <sodipodi:namedview
     pagecolor="#ffffff"
     bordercolor="#666666"
     borderopacity="1"
     objecttolerance="10"
     gridtolerance="10"
     guidetolerance="10"
     inkscape:pageopacity="0"
     inkscape:pageshadow="2"
     inkscape:window-width="1659"
     inkscape:window-height="971"
     id="namedview3479"
     showgrid="false"
     inkscape:zoom="0.70489847"
     inkscape:cx="-236.65291"
     inkscape:cy="337.58753"
     inkscape:window-x="149"
     inkscape:window-y="0"
     inkscape:window-maximized="0"
     inkscape:current-layer="svg3477" />
  <path
     style="fill:#000000"
     d="m -163.7086,472.37746 c -10.60033,-1.55874 -23.78259,-3.44834 -30.60355,-4.22701 -53.46499,-8.56357 -56.24934,-78.90072 -1.34185,-75.89019 28.42276,-0.75428 30.87728,-2.91179 44.76102,-6.15104 69.252837,-8.79662 91.244827,-100.15973 107.300112,-123.70168 23.47289,-41.83782 26.049763,-64.42326 40.504043,-90.56933 -1.7643081,-16.91184 7.8534658,-27.3271 1.7790981,-37.35843 C -113.98545,-82.513377 -168.82672,-173.37392 -266.9121,-371.19907 c -16.1268,-67.12709 74.69322,-82.86328 95.60237,-33.48009 98.669548,190.52067 146.017867,269.81365 212.969724,406.3325299 3.802364,12.1774941 9.01748,12.4451411 13.443242,1.513965 C 125.90815,-221.39107 151.07044,-246.033 213.59106,-413.06337 c 13.7699,-37.38069 71.38736,-40.17516 67.49516,13.01811 C 169.66975,-62.964887 147.41496,-40.554811 61.819673,190.09279 27.834919,267.75272 5.1998674,362.52888 -55.400689,431.04861 c -26.318643,23.62956 -42.663489,26.89604 -56.100761,31.88116 -43.51658,11.87456 -40.38835,8.88582 -52.20715,9.44769 z"
     id="path3487"
     inkscape:connector-curvature="0"
     sodipodi:nodetypes="ccccccccccccccccc" />
</svg>
