<?xml version="1.0" encoding="UTF-8" standalone="no"?>
<!-- Created with Inkscape (http://www.inkscape.org/) -->

<svg
   xmlns:dc="http://purl.org/dc/elements/1.1/"
   xmlns:cc="http://creativecommons.org/ns#"
   xmlns:rdf="http://www.w3.org/1999/02/22-rdf-syntax-ns#"
   xmlns:svg="http://www.w3.org/2000/svg"
   xmlns="http://www.w3.org/2000/svg"
   xmlns:sodipodi="http://sodipodi.sourceforge.net/DTD/sodipodi-0.dtd"
   xmlns:inkscape="http://www.inkscape.org/namespaces/inkscape"
   id="svg4026"
   version="1.1"
   inkscape:version="0.91 r13725"
   width="548.84589"
   height="929.99902"
   viewBox="0 0 548.84589 929.99901"
   sodipodi:docname="en_lower_b.svg">
  <metadata
     id="metadata4032">
    <rdf:RDF>
      <cc:Work
         rdf:about="">
        <dc:format>image/svg+xml</dc:format>
        <dc:type
           rdf:resource="http://purl.org/dc/dcmitype/StillImage" />
        <dc:title />
      </cc:Work>
    </rdf:RDF>
  </metadata>
  <defs
     id="defs4030" />
  <sodipodi:namedview
     pagecolor="#ffffff"
     bordercolor="#666666"
     borderopacity="1"
     objecttolerance="10"
     gridtolerance="10"
     guidetolerance="10"
     inkscape:pageopacity="0"
     inkscape:pageshadow="2"
     inkscape:window-width="1489"
     inkscape:window-height="1019"
     id="namedview4028"
     showgrid="false"
     fit-margin-top="0"
     fit-margin-left="0"
     fit-margin-right="0"
     fit-margin-bottom="0"
     inkscape:zoom="0.51126594"
     inkscape:cx="-119.33815"
     inkscape:cy="483.48725"
     inkscape:window-x="65"
     inkscape:window-y="89"
     inkscape:window-maximized="0"
     inkscape:current-layer="svg4026" />
  <path
     style="fill:#000000"
     d="M 1.3830508,876.55702 C 2.4334571,591.11987 2.6492772,292.82768 -0.36140521,39.344078 18.810857,-27.978699 114.61906,4.8032773 109.69552,40.643552 115.34191,165.41638 99.95165,224.68917 105.9368,318.61302 c 200.00222,-4.66805 418.21252,-10.0841 440.24208,288.57274 -8.742,229.18382 -246.45802,312.78679 -444.21576,240.21811 -1.39186,18.09876 -1.26986,19.48136 -1.08894,28.76557 5.96935,39.70887 -92.1460774,52.86495 -99.4911292,0.38758 z M 443.46793,605.23573 C 445.5183,396.91197 237.84012,408.25183 109.52725,437.92912 c -16.308364,81.46216 -4.03249,211.13141 -8.36462,302.69261 151.59037,85.81111 351.19857,-2.02271 342.3053,-135.386 z"
     id="path4036"
     inkscape:connector-curvature="0"
     sodipodi:nodetypes="cccccccccccc" />
</svg>
