<?xml version="1.0" encoding="UTF-8" standalone="no"?>
<!-- Created with Inkscape (http://www.inkscape.org/) -->

<svg
   xmlns:dc="http://purl.org/dc/elements/1.1/"
   xmlns:cc="http://creativecommons.org/ns#"
   xmlns:rdf="http://www.w3.org/1999/02/22-rdf-syntax-ns#"
   xmlns:svg="http://www.w3.org/2000/svg"
   xmlns="http://www.w3.org/2000/svg"
   xmlns:sodipodi="http://sodipodi.sourceforge.net/DTD/sodipodi-0.dtd"
   xmlns:inkscape="http://www.inkscape.org/namespaces/inkscape"
   id="svg4377"
   version="1.1"
   inkscape:version="0.91 r13725"
   width="570.54004"
   height="930"
   viewBox="0 0 570.54004 930.00001"
   sodipodi:docname="en_lower_d.svg">
  <metadata
     id="metadata4383">
    <rdf:RDF>
      <cc:Work
         rdf:about="">
        <dc:format>image/svg+xml</dc:format>
        <dc:type
           rdf:resource="http://purl.org/dc/dcmitype/StillImage" />
        <dc:title />
      </cc:Work>
    </rdf:RDF>
  </metadata>
  <defs
     id="defs4381" />
  <sodipodi:namedview
     pagecolor="#ffffff"
     bordercolor="#666666"
     borderopacity="1"
     objecttolerance="10"
     gridtolerance="10"
     guidetolerance="10"
     inkscape:pageopacity="0"
     inkscape:pageshadow="2"
     inkscape:window-width="1573"
     inkscape:window-height="997"
     id="namedview4379"
     showgrid="false"
     fit-margin-top="0"
     fit-margin-left="0"
     fit-margin-right="0"
     fit-margin-bottom="0"
     inkscape:zoom="0.36285362"
     inkscape:cx="-76.198296"
     inkscape:cy="555.83063"
     inkscape:window-x="383"
     inkscape:window-y="247"
     inkscape:window-maximized="0"
     inkscape:current-layer="svg4377" />
  <path
     style="fill:#000000"
     d="m 469.69347,844.21035 c 1.22578,-22.79088 -1.73026,-27.85424 0.66967,-47.93388 C 346.63812,857.88604 34.332832,929.4315 1.3779935,571.93656 1.259151,223.06715 394.4913,260.97075 461.20321,324.76181 c 3.70434,-41.59931 -4.3823,-208.35996 0.36996,-269.517183 1.90573,-65.447115 110.09064,-69.477339 113.10078,-3.765198 -1.68087,179.945381 -1.34647,442.364991 -6.06467,660.447001 0.84667,42.78261 1.73298,95.02807 -0.67765,131.56756 0.81326,44.7324 -96.33202,46.06593 -98.23816,0.71636 z M 485.28854,670.39664 C 489.72449,557.32573 484.45532,591.44794 473.14309,443.77087 350.9125,310.8223 77.93717,390.96271 93.670129,570.81392 79.478776,753.98933 340.50169,822.02173 485.28854,670.39664 Z"
     id="path4387"
     inkscape:connector-curvature="0"
     sodipodi:nodetypes="ccccccccccccc" />
</svg>
