<?xml version="1.0" encoding="UTF-8" standalone="no"?>
<!-- Created with Inkscape (http://www.inkscape.org/) -->

<svg
   xmlns:dc="http://purl.org/dc/elements/1.1/"
   xmlns:cc="http://creativecommons.org/ns#"
   xmlns:rdf="http://www.w3.org/1999/02/22-rdf-syntax-ns#"
   xmlns:svg="http://www.w3.org/2000/svg"
   xmlns="http://www.w3.org/2000/svg"
   xmlns:sodipodi="http://sodipodi.sourceforge.net/DTD/sodipodi-0.dtd"
   xmlns:inkscape="http://www.inkscape.org/namespaces/inkscape"
   id="svg3390"
   version="1.1"
   inkscape:version="0.91 r13725"
   width="553.04498"
   height="930"
   viewBox="0 0 553.04497 930.00001"
   sodipodi:docname="P.svg">
  <metadata
     id="metadata3396">
    <rdf:RDF>
      <cc:Work
         rdf:about="">
        <dc:format>image/svg+xml</dc:format>
        <dc:type
           rdf:resource="http://purl.org/dc/dcmitype/StillImage" />
        <dc:title></dc:title>
      </cc:Work>
    </rdf:RDF>
  </metadata>
  <defs
     id="defs3394" />
  <sodipodi:namedview
     pagecolor="#ffffff"
     bordercolor="#666666"
     borderopacity="1"
     objecttolerance="10"
     gridtolerance="10"
     guidetolerance="10"
     inkscape:pageopacity="0"
     inkscape:pageshadow="2"
     inkscape:window-width="1766"
     inkscape:window-height="958"
     id="namedview3392"
     showgrid="false"
     fit-margin-top="0"
     fit-margin-left="0"
     fit-margin-right="0"
     fit-margin-bottom="0"
     inkscape:zoom="0.44471078"
     inkscape:cx="235.27361"
     inkscape:cy="734.56961"
     inkscape:window-x="0"
     inkscape:window-y="0"
     inkscape:window-maximized="0"
     inkscape:current-layer="svg3390" />
  <path
     style="fill:#000000"
     d="M 6.4893681,874.09172 C 5.2917061,856.1228 6.2772661,851.28882 5.3392901,830.347 4.1706391,785.52978 3.6131961,777.65308 6.9367761,706.26168 11.427149,631.20366 -1.5360539,582.78583 2.1723221,509.58693 2.9287411,447.08599 -2.2223491,400.97726 1.1658121,346.64311 0.58083913,274.52164 9.5502761,225.67703 3.6128621,179.75225 -2.0561509,120.44157 15.879513,87.74336 22.223618,75.811214 38.39321,50.89265 72.672115,27.245381 98.816589,21.682804 154.95511,13.250205 148.06814,0.2431554 205.75032,2.7540489 c 44.54002,1.599289 67.38053,-8.0187632 91.09611,1.5402436 5.83192,2.4090864 16.28994,4.8330439 23.24007,5.38656 64.71698,6.8983975 64.28439,2.4485285 113.7108,12.9265055 26.99914,3.935903 44.47504,31.741792 66.79724,47.492131 4.60428,3.238276 8.37141,7.527072 8.37141,9.530661 15.70262,22.7329 23.61112,48.58894 29.03514,68.83567 20.78756,50.08863 15.48715,146.95471 10.6548,204.54459 -2.60021,25.48901 -26.394,77.6208 -43.0279,97.50473 -36.38726,46.71631 -51.54459,79.91498 -112.25962,110.93267 -4.02587,0 -50.37342,8.74499 -50.37342,10.58254 -64.17453,12.70281 -94.59648,22.21131 -143.85301,12.72713 -5.61876,-1.02295 -12.31062,-3.1601 -14.87082,-4.74889 -2.56019,-1.58877 -13.97245,-3.47869 -25.36058,-4.19968 -39.07601,-5.55343 -51.80861,5.49043 -53.39169,24.41399 -0.41558,57.55796 -3.1856,105.80905 -0.65443,146.59159 3.95378,16.99093 4.86829,77.99498 3.39607,80.68278 0.40618,21.78738 2.71468,27.93301 3.10101,42.42992 0.30814,14.96451 1.71981,24.5535 1.71981,31.40791 0,13.15868 -2.58558,19.2205 -11.40546,22.55308 -25.572799,7.28058 -24.992795,7.02793 -45.262508,4.51656 C 43.370483,930.2844 31.150525,926.00637 20.092694,926.20082 0.16327813,915.2205 6.4368191,884.8884 6.4893681,874.09172 Z M 289.59169,481.69989 c 60.16902,-6.15827 64.2635,-14.07551 103.3148,-45.97739 2.9915,0 30.34879,-40.80333 34.04636,-46.46988 3.69757,-5.6665 6.36162,-19.07355 8.59936,-21.80006 10.29215,-38.34201 16.03355,-16.7755 15.87591,-54.7438 7.48706,-61.25502 -0.62685,-10.78873 -3.62822,-78.737 -0.43192,-56.11227 -12.79193,-79.00097 -27.72642,-100.17233 0,-2.87771 -32.24218,-10.686 -36.60786,-11.83237 -36.69704,-1.64034 -28.23531,-5.16555 -55.08501,-7.26525 -21.61392,-8.73964 -43.3946,-2.20446 -65.52312,-2.11427 -22.31984,-7.43035 -58.0913,-3.11192 -78.00979,-1.7081 -12.18932,-0.63276 -16.12888,-5.46966 -70.01087,17.85363 -14.02757,16.60335 -8.35832,28.05361 -13.03232,57.73497 -4.581401,13.66174 1.20887,44.10648 0.0237,64.59265 -4.620051,55.71599 -1.39537,93.77969 5.48092,135.1598 1.01104,24.24122 -4.68502,49.45196 1.28166,62.86734 8.8748,20.56134 20.34584,18.04525 46.38295,20.00786 15.49679,-3.02832 26.64276,5.74568 67.04536,13.73399 49.1013,3.07496 29.2413,3.14569 67.57259,-1.12979 z"
     id="path3400"
     inkscape:connector-curvature="0"
     sodipodi:nodetypes="ccccccccccccccccccccsccccccccccccssccccccccccccccc" />
</svg>
