<?xml version="1.0" encoding="UTF-8" standalone="no"?>
<!-- Created with Inkscape (http://www.inkscape.org/) -->

<svg
   xmlns:dc="http://purl.org/dc/elements/1.1/"
   xmlns:cc="http://creativecommons.org/ns#"
   xmlns:rdf="http://www.w3.org/1999/02/22-rdf-syntax-ns#"
   xmlns:svg="http://www.w3.org/2000/svg"
   xmlns="http://www.w3.org/2000/svg"
   xmlns:sodipodi="http://sodipodi.sourceforge.net/DTD/sodipodi-0.dtd"
   xmlns:inkscape="http://www.inkscape.org/namespaces/inkscape"
   id="svg3390"
   version="1.1"
   inkscape:version="0.91 r13725"
   width="651.30884"
   height="930"
   viewBox="0 0 651.30885 930.00001"
   sodipodi:docname="Q.svg">
  <metadata
     id="metadata3396">
    <rdf:RDF>
      <cc:Work
         rdf:about="">
        <dc:format>image/svg+xml</dc:format>
        <dc:type
           rdf:resource="http://purl.org/dc/dcmitype/StillImage" />
        <dc:title />
      </cc:Work>
    </rdf:RDF>
  </metadata>
  <defs
     id="defs3394" />
  <sodipodi:namedview
     pagecolor="#ffffff"
     bordercolor="#666666"
     borderopacity="1"
     objecttolerance="10"
     gridtolerance="10"
     guidetolerance="10"
     inkscape:pageopacity="0"
     inkscape:pageshadow="2"
     inkscape:window-width="1839"
     inkscape:window-height="1007"
     id="namedview3392"
     showgrid="false"
     fit-margin-top="0"
     fit-margin-left="0"
     fit-margin-right="0"
     fit-margin-bottom="0"
     inkscape:zoom="0.64"
     inkscape:cx="162.69558"
     inkscape:cy="528.79035"
     inkscape:window-x="0"
     inkscape:window-y="0"
     inkscape:window-maximized="0"
     inkscape:current-layer="svg3390" />
  <path
     style="fill:#000000"
     d="M 536.73842,885.11487 C 511.69054,861.80483 475.09848,770.36824 450.92781,773.38592 339.79738,807.89911 212.8041,785.5607 130.32896,716.01625 45.060946,641.161 7.8881351,510.32419 6.2985823,386.44099 5.1373462,295.93903 25.732886,221.63924 61.77271,152.30916 122.17994,33.910796 224.94355,-2.6400241 379.29017,7.2495217 710.52523,57.196152 701.81829,541.07467 550.54687,729.67684 c 21.68263,51.47286 66.46317,71.82344 74.37118,112.70701 -3.65221,56.33278 -69.17394,63.45762 -88.17963,42.73102 z m 7.21637,-487.85675 c -14.10083,-126.222 -13.22183,-241.04493 -191.58001,-279.04707 -94.12543,-3.94399 -153.67026,13.7338 -204.64223,102.32621 -47.79021,129.04283 -45.70113,364.08137 88.12093,431.05087 40.57281,25.45032 81.2486,34.80254 122.7644,34.40544 145.88158,-17.7515 185.49168,-149.46063 185.33691,-288.73545 z"
     id="path3400"
     inkscape:connector-curvature="0"
     sodipodi:nodetypes="cccsccccccccccc" />
</svg>
