<?xml version="1.0" encoding="UTF-8" standalone="no"?>
<!-- Created with Inkscape (http://www.inkscape.org/) -->

<svg
   xmlns:dc="http://purl.org/dc/elements/1.1/"
   xmlns:cc="http://creativecommons.org/ns#"
   xmlns:rdf="http://www.w3.org/1999/02/22-rdf-syntax-ns#"
   xmlns:svg="http://www.w3.org/2000/svg"
   xmlns="http://www.w3.org/2000/svg"
   xmlns:sodipodi="http://sodipodi.sourceforge.net/DTD/sodipodi-0.dtd"
   xmlns:inkscape="http://www.inkscape.org/namespaces/inkscape"
   id="svg3390"
   version="1.1"
   inkscape:version="0.91 r13725"
   width="693.60083"
   height="930"
   viewBox="0 0 693.60082 930.00001"
   sodipodi:docname="M.svg">
  <metadata
     id="metadata3396">
    <rdf:RDF>
      <cc:Work
         rdf:about="">
        <dc:format>image/svg+xml</dc:format>
        <dc:type
           rdf:resource="http://purl.org/dc/dcmitype/StillImage" />
        <dc:title></dc:title>
      </cc:Work>
    </rdf:RDF>
  </metadata>
  <defs
     id="defs3394" />
  <sodipodi:namedview
     pagecolor="#ffffff"
     bordercolor="#666666"
     borderopacity="1"
     objecttolerance="10"
     gridtolerance="10"
     guidetolerance="10"
     inkscape:pageopacity="0"
     inkscape:pageshadow="2"
     inkscape:window-width="1819"
     inkscape:window-height="1027"
     id="namedview3392"
     showgrid="false"
     fit-margin-top="0"
     fit-margin-left="0"
     fit-margin-right="0"
     fit-margin-bottom="0"
     inkscape:zoom="0.41073983"
     inkscape:cx="-422.5023"
     inkscape:cy="596.79727"
     inkscape:window-x="31"
     inkscape:window-y="0"
     inkscape:window-maximized="0"
     inkscape:current-layer="svg3390" />
  <path
     style="fill:#000000"
     d="M 43.958227,921.79891 C 25.528438,913.62813 5.1775051,878.02842 2.1198441,843.43153 0.74788507,828.71777 1.3376771,824.49597 0.11102807,810.61102 10.219563,565.52269 -3.6346339,398.59831 0.96888207,224.17263 4.6876331,155.78044 -5.1689549,29.595501 19.339187,11.952975 48.703297,-2.471621 41.849577,0.58149805 73.572607,2.9504915 c 16.95736,2.978786 22.43139,2.5254179 32.534463,8.2734195 14.54199,16.877272 14.36871,26.370129 18.17787,31.033952 73.66621,206.815797 153.3352,444.271807 211.42731,630.265977 7.80533,14.95558 6.31849,22.0335 19.44034,17.45919 9.60534,-10.07591 23.72606,-40.24513 31.61543,-54.97763 65.11357,-211.5542 88.33857,-308.03993 146.56674,-540.393503 7.59104,-17.6444 25.81197,-73.708183 30.90558,-79.657134 27.77858,-7.8686586 111.38503,-31.123652 111.39372,3.504076 3.1908,23.164615 3.66018,38.336413 4.91032,58.618126 19.54254,275.613905 3.51334,519.251025 10.2305,727.998765 0.42946,14.18056 0.92155,29.02139 1.09319,32.97959 0.96155,23.15531 2.46148,39.10215 1.32504,52.05938 -7.53622,30.04042 -7.08685,39.9209 -48.55871,39.8852 -13.29721,-0.5509 -41.01555,-1.41236 -47.35617,-15.43674 -3.88783,-5.84127 -4.067,-10.83281 -3.91649,-25.43391 -11.42091,-206.51051 -5.92637,-337.32282 -17.78682,-546.22683 2.23008,-2.93618 1.50499,-6.41521 -2.08523,-10.00534 -4.88308,-4.88309 -5.84011,-3.95985 -8.4841,8.18466 -67.7251,214.29911 -63.82306,294.66486 -142.89898,436.50516 -9.03242,14.83036 -8.26381,17.86436 -18.79326,30.96792 -12.06947,17.49383 -19.53917,23.10498 -32.42633,26.67188 -163.19681,-3.92375 -184.14242,-473.99465 -254.0673,-501.7205 -6.03572,114.27927 3.06185,253.68008 1.95226,337.6819 -1.85473,68.08299 11.5902,214.19477 -0.29182,236.94494 -7.73484,29.28436 -45.229323,21.25247 -74.521933,13.66587 z"
     id="path3400"
     inkscape:connector-curvature="0"
     sodipodi:nodetypes="ccccccccccccccccccccccscccccccc" />
</svg>
