<?xml version="1.0" encoding="UTF-8" standalone="no"?>
<!-- Created with Inkscape (http://www.inkscape.org/) -->

<svg
   xmlns:dc="http://purl.org/dc/elements/1.1/"
   xmlns:cc="http://creativecommons.org/ns#"
   xmlns:rdf="http://www.w3.org/1999/02/22-rdf-syntax-ns#"
   xmlns:svg="http://www.w3.org/2000/svg"
   xmlns="http://www.w3.org/2000/svg"
   xmlns:sodipodi="http://sodipodi.sourceforge.net/DTD/sodipodi-0.dtd"
   xmlns:inkscape="http://www.inkscape.org/namespaces/inkscape"
   id="svg3387"
   version="1.1"
   inkscape:version="0.91 r13725"
   width="661.52271"
   height="930"
   viewBox="0 0 661.52271 929.99999"
   sodipodi:docname="U.svg">
  <metadata
     id="metadata3393">
    <rdf:RDF>
      <cc:Work
         rdf:about="">
        <dc:format>image/svg+xml</dc:format>
        <dc:type
           rdf:resource="http://purl.org/dc/dcmitype/StillImage" />
        <dc:title></dc:title>
      </cc:Work>
    </rdf:RDF>
  </metadata>
  <defs
     id="defs3391" />
  <sodipodi:namedview
     pagecolor="#ffffff"
     bordercolor="#666666"
     borderopacity="1"
     objecttolerance="10"
     gridtolerance="10"
     guidetolerance="10"
     inkscape:pageopacity="0"
     inkscape:pageshadow="2"
     inkscape:window-width="1787"
     inkscape:window-height="1005"
     id="namedview3389"
     showgrid="false"
     fit-margin-top="0"
     fit-margin-left="0"
     fit-margin-right="0"
     fit-margin-bottom="0"
     inkscape:zoom="0.42022794"
     inkscape:cx="319.06407"
     inkscape:cy="445.55774"
     inkscape:window-x="176"
     inkscape:window-y="130"
     inkscape:window-maximized="0"
     inkscape:current-layer="svg3387" />
  <path
     style="fill:#000000"
     d="M 1.5281231,367.35363 C 1.1211561,306.20451 -3.1408889,241.03704 4.6459791,51.255617 12.753323,-17.327741 130.9334,-3.8575795 128.18711,49.181825 c 4.46129,132.058635 4.70169,229.699945 3.37818,322.080805 -7.33585,410.63757 78.198,442.42807 212.36787,450.84532 206.4834,-17.67089 184.35537,-177.32855 186.32981,-474.77288 -5.04635,-59.54906 2.95532,-165.29057 0.29141,-286.800385 6.91174,-93.462103 135.41275,-67.0819129 124.4368,0.726508 5.30796,153.495347 0.66942,186.466987 3.11056,278.757307 C 671.37471,691.3047 660.86471,921.06242 346.02584,930 -23.086081,923.07943 9.1887271,698.41617 1.5281231,367.35363 Z"
     id="path3397"
     inkscape:connector-curvature="0"
     sodipodi:nodetypes="ccccccccccc" />
</svg>
