<?xml version="1.0" encoding="UTF-8" standalone="no"?>
<!-- Created with Inkscape (http://www.inkscape.org/) -->

<svg
   xmlns:dc="http://purl.org/dc/elements/1.1/"
   xmlns:cc="http://creativecommons.org/ns#"
   xmlns:rdf="http://www.w3.org/1999/02/22-rdf-syntax-ns#"
   xmlns:svg="http://www.w3.org/2000/svg"
   xmlns="http://www.w3.org/2000/svg"
   xmlns:sodipodi="http://sodipodi.sourceforge.net/DTD/sodipodi-0.dtd"
   xmlns:inkscape="http://www.inkscape.org/namespaces/inkscape"
   version="1.1"
   id="svg2"
   width="610.25201"
   height="930"
   viewBox="0 0 610.25201 930"
   sodipodi:docname="letter_B.svg"
   inkscape:version="0.92.2 5c3e80d, 2017-08-06">
  <metadata
     id="metadata8">
    <rdf:RDF>
      <cc:Work
         rdf:about="">
        <dc:format>image/svg+xml</dc:format>
        <dc:type
           rdf:resource="http://purl.org/dc/dcmitype/StillImage" />
        <dc:title></dc:title>
      </cc:Work>
    </rdf:RDF>
  </metadata>
  <defs
     id="defs6" />
  <sodipodi:namedview
     pagecolor="#ffffff"
     bordercolor="#666666"
     borderopacity="1"
     objecttolerance="10"
     gridtolerance="10"
     guidetolerance="10"
     inkscape:pageopacity="0"
     inkscape:pageshadow="2"
     inkscape:window-width="1262"
     inkscape:window-height="1002"
     id="namedview4"
     showgrid="false"
     fit-margin-top="0"
     fit-margin-left="0"
     fit-margin-right="0"
     fit-margin-bottom="0"
     inkscape:zoom="0.45254834"
     inkscape:cx="-43.84437"
     inkscape:cy="640.0593"
     inkscape:window-x="126"
     inkscape:window-y="16"
     inkscape:window-maximized="0"
     inkscape:current-layer="svg2"
     inkscape:measure-start="270.313,815.625"
     inkscape:measure-end="273.438,931.25" />
  <path
     style="fill:#000000;stroke-width:4.28322744"
     d="M 30.874414,884.04665 C 13.502564,790.66194 8.796181,727.74808 12.009027,648.98602 13.459449,449.58794 2.4104457,379.34517 1.3053015,198.71009 7.6242433,170.54889 -9.5948142,111.72485 8.75459,81.723545 16.405875,64.485079 39.309313,26.775799 43.536461,30.985849 151.25167,-3.8768255 386.59468,-24.656382 454.34307,54.669339 c 55.58876,43.480938 89.62712,85.518611 103.25511,122.175471 11.10726,61.8315 8.69518,88.85167 -5.83078,140.51152 -28.55149,44.98071 -45.05737,82.19615 -99.77309,118.1704 -5.54817,3.45282 -16.9553,12.39876 -25.34924,19.87987 -8.3939,7.48112 -16.69997,20.93927 -16.07809,24.26567 94.93991,31.21714 199.67211,109.17608 198.62035,216.83698 6.6397,42.00714 -19.02481,104.76312 -42.31196,131.97491 -34.80723,31.29277 -79.88855,57.36957 -108.86256,71.81475 -52.54285,11.71696 -106.50259,28.53347 -150.61032,29.7011 C 182.95954,929.89009 129.1271,928.26212 30.874414,884.04665 Z M 361.83638,799.87617 c 165.37425,-18.12989 156.59545,-110.80367 92.29324,-167.92592 -63.91993,-71.81372 -67.74975,-55.52452 -154.91771,-84.8057 -43.22381,1.47033 -100.76735,-2.94344 -123.13023,8.40918 -68.27578,-15.58066 -41.48879,162.89009 -40.85372,203.3938 27.83522,84.14273 179.25347,44.26476 226.60842,40.92864 z m 69.08539,-627.35499 c -53.62037,-39.3002 -60.62554,-57.75426 -142.27689,-60.34926 -75.6987,-17.115151 -76.88514,5.26766 -144.09357,-0.0192 -42.96882,-10.42544 -23.55024,33.66614 -23.5716,80.09234 0.2863,10.93039 0.37494,47.40125 1.81404,56.60879 -4.38068,37.54284 -2.93317,91.44165 2.21325,120.71244 23.41896,93.0204 34.47025,75.12025 105.11559,69.21266 156.02916,-9.862 268.69361,-194.25303 200.79918,-266.25777 z"
     id="path3701"
     inkscape:connector-curvature="0"
     sodipodi:nodetypes="cccccccccccccccccccccccccccccc" />
</svg>
