<?xml version="1.0" encoding="UTF-8" standalone="no"?>
<!-- Created with Inkscape (http://www.inkscape.org/) -->

<svg
   xmlns:dc="http://purl.org/dc/elements/1.1/"
   xmlns:cc="http://creativecommons.org/ns#"
   xmlns:rdf="http://www.w3.org/1999/02/22-rdf-syntax-ns#"
   xmlns:svg="http://www.w3.org/2000/svg"
   xmlns="http://www.w3.org/2000/svg"
   xmlns:sodipodi="http://sodipodi.sourceforge.net/DTD/sodipodi-0.dtd"
   xmlns:inkscape="http://www.inkscape.org/namespaces/inkscape"
   id="svg3390"
   version="1.1"
   inkscape:version="0.91 r13725"
   width="617.78418"
   height="930"
   viewBox="0 0 617.78419 929.99999"
   sodipodi:docname="N.svg">
  <metadata
     id="metadata3396">
    <rdf:RDF>
      <cc:Work
         rdf:about="">
        <dc:format>image/svg+xml</dc:format>
        <dc:type
           rdf:resource="http://purl.org/dc/dcmitype/StillImage" />
        <dc:title></dc:title>
      </cc:Work>
    </rdf:RDF>
  </metadata>
  <defs
     id="defs3394" />
  <sodipodi:namedview
     pagecolor="#ffffff"
     bordercolor="#666666"
     borderopacity="1"
     objecttolerance="10"
     gridtolerance="10"
     guidetolerance="10"
     inkscape:pageopacity="0"
     inkscape:pageshadow="2"
     inkscape:window-width="1753"
     inkscape:window-height="959"
     id="namedview3392"
     showgrid="false"
     fit-margin-top="0"
     fit-margin-left="0"
     fit-margin-right="0"
     fit-margin-bottom="0"
     inkscape:zoom="0.66385583"
     inkscape:cx="163.24269"
     inkscape:cy="522.18872"
     inkscape:window-x="0"
     inkscape:window-y="0"
     inkscape:window-maximized="0"
     inkscape:current-layer="svg3390" />
  <path
     style="fill:#000000"
     d="M 20.527149,925.05821 C 12.953473,915.42758 15.6221,922.53517 11.395416,908.93953 9.2642762,854.57775 0.87405451,822.02235 3.6497664,782.38966 2.1741917,725.25198 6.2227079,676.1722 5.2782087,645.52576 -4.5458007,548.81628 5.7668388,466.25515 2.7589949,369.58166 -0.76961456,367.40099 -0.90618466,365.99321 2.3069498,364.92217 1.9408464,266.09157 1.0963223,137.65399 3.6101443,95.178436 4.700627,76.296602 6.5043712,59.93621 7.6185807,58.822011 8.73273,57.707862 8.7850315,54.556794 7.734204,51.819723 4.5850237,43.613115 26.811088,19.365111 35.381026,16.645112 c 36.934813,3.230822 81.944044,2.060819 89.392894,11.510538 122.33132,153.16375 138.57489,347.4196 240.92652,505.55348 28.10016,42.86501 61.48127,94.21019 84.16081,126.11862 27.27274,33.31654 45.11647,82.50375 69.52,115.23178 25.12853,31.22413 1.26785,21.87233 0.56299,-9.75791 C 514.72558,533.52724 473.55198,234.66243 521.51683,25.626395 527.56189,12.293225 549.10687,2.6354391 561.08863,2.0647699 565.98204,1.8855436 572.6628,0.9563214 575.9348,0 c 19.61981,9.2062152 34.27938,5.9398766 37.86374,38.524211 0.24778,2.839055 1.23639,11.665943 2.19389,19.615299 2.52699,20.975108 2.53361,20.653581 -0.96218,45.42488 -1.76304,12.49184 -3.15833,49.95067 -3.10082,83.2418 -0.29892,70.92363 -0.65398,70.36506 -1.57536,113.61949 0.24215,95.28364 2.20295,206.775 1.37436,255.64587 3.59967,40.795 -0.3606,71.35133 0.6566,82.9753 -3.43225,86.68038 7.32716,142.03273 0.44271,177.18502 -15.27735,48.11196 -25.55689,99.31967 -73.81415,113.76813 -31.86578,-4.77963 -44.41902,-11.46304 -51.211,-20.34215 -15.29561,-12.89266 2.90738,7.00561 -8.51285,-4.61282 C 374.74358,804.04864 319.34035,644.67228 244.11355,525.60343 c -16.88886,-31.77995 -14.28451,-28.98065 -33.34803,-66.25964 -16.8254,-35.15768 -17.37128,-37.96062 -29.36983,-65.4165 -19.47906,-31.67983 -27.78429,-57.0437 -40.34932,-84.91837 -20.49544,-51.38774 -23.00226,-85.40183 -39.94508,-118.6811 0.70388,-7.93694 4.57404,13.46134 7.07502,21.02676 -0.56583,11.91497 -1.85622,17.51774 0.29733,24.19709 15.64016,146.6077 -11.893048,305.07197 4.9879,433.20777 1.262,2.15094 2.77509,14.27695 3.36239,26.94686 2.82658,20.57318 1.35688,44.1731 6.14449,56.89504 2.40422,6.24593 5.00624,25.45682 5.78218,42.69087 0.7758,17.23406 4.65911,42.32099 8.62927,55.74872 10.63856,35.98147 8.2174,68.61462 -6.91083,68.61462 -31.396725,3.36368 -81.316711,16.08475 -109.941549,5.40337 z"
     id="path3400"
     inkscape:connector-curvature="0"
     sodipodi:nodetypes="cccccccscccccccccccccccccccccccccccccccssccc" />
</svg>
