<?xml version="1.0" encoding="UTF-8" standalone="no"?>
<!-- Created with Inkscape (http://www.inkscape.org/) -->

<svg
   xmlns:dc="http://purl.org/dc/elements/1.1/"
   xmlns:cc="http://creativecommons.org/ns#"
   xmlns:rdf="http://www.w3.org/1999/02/22-rdf-syntax-ns#"
   xmlns:svg="http://www.w3.org/2000/svg"
   xmlns="http://www.w3.org/2000/svg"
   xmlns:sodipodi="http://sodipodi.sourceforge.net/DTD/sodipodi-0.dtd"
   xmlns:inkscape="http://www.inkscape.org/namespaces/inkscape"
   id="svg3390"
   version="1.1"
   inkscape:version="0.91 r13725"
   width="499.05881"
   height="930"
   viewBox="0 0 499.0588 930.00001"
   sodipodi:docname="L.svg">
  <metadata
     id="metadata3396">
    <rdf:RDF>
      <cc:Work
         rdf:about="">
        <dc:format>image/svg+xml</dc:format>
        <dc:type
           rdf:resource="http://purl.org/dc/dcmitype/StillImage" />
        <dc:title></dc:title>
      </cc:Work>
    </rdf:RDF>
  </metadata>
  <defs
     id="defs3394" />
  <sodipodi:namedview
     pagecolor="#ffffff"
     bordercolor="#666666"
     borderopacity="1"
     objecttolerance="10"
     gridtolerance="10"
     guidetolerance="10"
     inkscape:pageopacity="0"
     inkscape:pageshadow="2"
     inkscape:window-width="1750"
     inkscape:window-height="1010"
     id="namedview3392"
     showgrid="false"
     fit-margin-top="0"
     fit-margin-left="0"
     fit-margin-right="0"
     fit-margin-bottom="0"
     inkscape:zoom="0.62422263"
     inkscape:cx="222.16534"
     inkscape:cy="567.95934"
     inkscape:window-x="80"
     inkscape:window-y="0"
     inkscape:window-maximized="0"
     inkscape:current-layer="svg3390" />
  <path
     style="fill:#000000"
     d="M 47.694416,925.37938 C 14.317884,919.76766 5.1619607,916.70508 1.8894736,888.68915 -1.5546453,810.62042 2.4594408,785.0338 1.8874786,671.99384 4.73356,516.56592 -2.9473597,251.14507 1.3241565,216.59435 1.0197262,130.5271 0.31625047,47.688383 12.070271,31.069334 34.610941,-0.89110193 78.955888,-7.1022375 101.44917,7.4406179 c 12.8731,8.4347861 21.08673,44.4592411 14.80409,64.9299111 5.42312,76.278251 0.24093,144.770531 1.34309,197.722321 -0.27888,140.47167 0.45246,259.47338 -3.19219,375.96938 7.80339,64.23408 -3.55781,106.60519 7.862,167.1889 90.95106,15.6455 217.29442,-3.1159 301.79076,-1.97902 36.09916,-0.10768 50.35592,-1.29921 65.0316,10.42571 9.69675,39.32553 19.064,60.38801 -6.67179,95.31829 -64.92381,20.7676 -91.49721,4.7994 -159.22699,11.41416 -32.76661,3.76948 -72.66553,-0.4671 -96.92141,-0.21418 -64.2352,-0.65094 -129.570347,4.6463 -178.573914,-2.83671 z"
     id="path3400"
     inkscape:connector-curvature="0"
     sodipodi:nodetypes="cccccccccccccccc" />
</svg>
