<?xml version="1.0" encoding="UTF-8" standalone="no"?>
<!-- Created with Inkscape (http://www.inkscape.org/) -->

<svg
   xmlns:dc="http://purl.org/dc/elements/1.1/"
   xmlns:cc="http://creativecommons.org/ns#"
   xmlns:rdf="http://www.w3.org/1999/02/22-rdf-syntax-ns#"
   xmlns:svg="http://www.w3.org/2000/svg"
   xmlns="http://www.w3.org/2000/svg"
   xmlns:sodipodi="http://sodipodi.sourceforge.net/DTD/sodipodi-0.dtd"
   xmlns:inkscape="http://www.inkscape.org/namespaces/inkscape"
   id="svg3090"
   height="930"
   width="496.72"
   version="1.1"
   inkscape:version="0.48.5 r10040"
   sodipodi:docname="E.svg">
  <defs
     id="defs7" />
  <sodipodi:namedview
     pagecolor="#ffffff"
     bordercolor="#666666"
     borderopacity="1"
     objecttolerance="10"
     gridtolerance="10"
     guidetolerance="10"
     inkscape:pageopacity="0"
     inkscape:pageshadow="2"
     inkscape:window-width="1178"
     inkscape:window-height="966"
     id="namedview5"
     showgrid="false"
     inkscape:zoom="0.35887571"
     inkscape:cx="61.32102"
     inkscape:cy="758.60176"
     inkscape:window-x="533"
     inkscape:window-y="0"
     inkscape:window-maximized="0"
     inkscape:current-layer="svg3090"
     fit-margin-top="0"
     fit-margin-left="0"
     fit-margin-right="0"
     fit-margin-bottom="0" />
  <metadata
     id="metadata3096">
    <rdf:RDF>
      <cc:Work
         rdf:about="">
        <dc:format>image/svg+xml</dc:format>
        <dc:type
           rdf:resource="http://purl.org/dc/dcmitype/StillImage" />
        <dc:title />
      </cc:Work>
    </rdf:RDF>
  </metadata>
  <path
     id="path3100"
     d="M 20.857355,764.15148 C 20.446881,594.56072 14.828597,395.39529 8.7484351,234.29251 -10.62989,72.098318 -4.9162616,27.914598 100.22637,14.511032 185.70872,14.251002 459.45886,-25.450346 484.79214,27.599789 560.43725,151.71616 254.53547,129.39084 178.05175,129.51 c -32.80887,5.86433 -54.65549,-5.65637 -61.18172,20.13505 -17.860715,153.89239 -32.409004,297.93229 124.95862,268.03578 65.04367,-13.58337 220.33747,-24.13865 193.5978,62.01136 -17.71049,108.82602 -289.39752,5.55839 -328.83863,103.4612 6.55902,95.71974 27.16995,124.92947 17.14536,203.21886 34.69065,55.56956 196.58963,20.779 269.62431,21.60134 44.48663,-1.96174 104.68378,21.11582 99.20081,62.11919 -13.51614,43.08229 -33.66674,53.30414 -70.90167,55.35291 C 158.32402,922.12621 9.3597351,979.46095 20.857355,764.15148 z"
     inkscape:connector-curvature="0"
     style="fill:#000000"
     sodipodi:nodetypes="cccccccccccccc" />
</svg>
