<?xml version="1.0" encoding="UTF-8" standalone="no"?>
<!-- Created with Inkscape (http://www.inkscape.org/) -->

<svg
   xmlns:dc="http://purl.org/dc/elements/1.1/"
   xmlns:cc="http://creativecommons.org/ns#"
   xmlns:rdf="http://www.w3.org/1999/02/22-rdf-syntax-ns#"
   xmlns:svg="http://www.w3.org/2000/svg"
   xmlns="http://www.w3.org/2000/svg"
   xmlns:sodipodi="http://sodipodi.sourceforge.net/DTD/sodipodi-0.dtd"
   xmlns:inkscape="http://www.inkscape.org/namespaces/inkscape"
   width="171.028mm"
   height="262.4664mm"
   viewBox="0 0 606.00472 929.99905"
   id="svg2"
   version="1.1"
   inkscape:version="0.91 r13725"
   sodipodi:docname="K.svg">
  <defs
     id="defs4" />
  <sodipodi:namedview
     id="base"
     pagecolor="#ffffff"
     bordercolor="#666666"
     borderopacity="1.0"
     inkscape:pageopacity="0.0"
     inkscape:pageshadow="2"
     inkscape:zoom="0.7"
     inkscape:cx="247.43975"
     inkscape:cy="536.65046"
     inkscape:document-units="px"
     inkscape:current-layer="layer1"
     showgrid="false"
     fit-margin-top="0"
     fit-margin-left="0"
     fit-margin-right="0"
     fit-margin-bottom="0"
     inkscape:window-width="1920"
     inkscape:window-height="969"
     inkscape:window-x="14"
     inkscape:window-y="0"
     inkscape:window-maximized="0" />
  <metadata
     id="metadata7">
    <rdf:RDF>
      <cc:Work
         rdf:about="">
        <dc:format>image/svg+xml</dc:format>
        <dc:type
           rdf:resource="http://purl.org/dc/dcmitype/StillImage" />
        <dc:title></dc:title>
      </cc:Work>
    </rdf:RDF>
  </metadata>
  <g
     inkscape:label="Layer 1"
     inkscape:groupmode="layer"
     id="layer1"
     transform="translate(-421.66334,-454.98159)">
    <path
       style="fill:#000000"
       d="m 458.42972,1373.7552 c -49.27748,1.7843 -33.59388,-164.561 -31.74363,-214.3576 0.39898,-7.2413 0.26599,-14.9616 -0.30056,-17.1558 -2.60166,-65.2118 -1.60284,-37.4384 -2.4238,-98.7372 1.80586,-177.10039 -0.60213,-393.17892 -2.2613,-541.39126 -1.5982,-24.39444 48.88824,-45.47385 66.01757,-46.86925 41.59215,-3.10305 17.61154,22.0524 32.82872,35.96387 15.0824,70.10929 12.45813,172.08895 12.88581,243.11992 -9.59438,46.33406 1.14846,71.62659 -3.28266,102.16812 -2.5428,17.32082 0.0938,32.44738 -0.11387,43.85778 17.97028,-27.29439 22.86307,-27.08308 41.39747,-54.40078 39.22445,-39.71454 49.64347,-67.59725 75.24448,-95.87837 6.34289,-6.94428 11.53222,-13.91995 11.53222,-15.50123 0,-1.58259 7.38289,-9.70944 16.40663,-18.0621 9.02375,-8.35293 25.31573,-23.71505 36.20429,-34.13813 75.68697,-90.36303 103.8501,-119.39085 186.75998,-177.62373 0,-2.16511 7.50338,-5.84152 16.67448,-8.16941 20.64826,-5.24119 19.49362,-8.14982 46.03734,19.06077 26.67188,9.60365 9.91303,53.32111 -40.80507,101.95481 -69.11414,84.07572 -143.98808,154.44702 -214.49576,230.44711 -10.10695,15.38906 -41.82568,52.30807 -44.94782,60.76654 10.73822,30.42955 39.99883,55.50324 57.54138,80.22506 46.42323,58.13618 67.20055,88.32768 105.05052,131.57458 64.61822,81.9266 106.4693,128.0319 161.31333,186.6109 18.27383,14.0081 43.03113,30.7014 43.68293,46.6352 0.3245,8.7774 -1.6012,18.6521 -4.2786,21.9436 -2.6766,3.2915 -5.0436,7.3125 -5.2599,8.935 -41.16783,26.5678 -80.1835,25.7302 -111.03616,4.8296 -17.64697,-22.3639 -56.48203,-49.8329 -71.73107,-69.8751 -54.99003,-74.9407 -77.67005,-88.076 -103.5847,-135.5986 -8.20152,-13.5878 -19.77361,-24.894 -27.12494,-35.9077 -20.24945,-25.0245 -28.00911,-37.9246 -48.40174,-59.63 -9.87461,-10.4539 -17.95384,-20.3314 -17.95384,-21.9501 -11.80919,-16.4565 -30.52749,-21.1536 -43.31812,-41.2141 -19.44926,-19.47857 -4.43845,-27.81676 -30.06102,-17.28443 -10.0731,3.63806 -36.73341,17.21223 -30.98684,29.54453 -7.38606,102.9161 10.99901,226.7132 -2.1878,315.9597 -16.98172,18.2532 -28.13972,31.1998 -49.58603,38.0664 -13.43325,4.0251 -15.06365,3.1731 -23.69005,2.0984 z"
       id="path3401"
       inkscape:connector-curvature="0"
       sodipodi:nodetypes="ccccccccccccscccsccccccccccccccccccccccc" />
  </g>
</svg>
