<?xml version="1.0" encoding="UTF-8" standalone="no"?>
<!-- Created with Inkscape (http://www.inkscape.org/) -->

<svg
   xmlns:dc="http://purl.org/dc/elements/1.1/"
   xmlns:cc="http://creativecommons.org/ns#"
   xmlns:rdf="http://www.w3.org/1999/02/22-rdf-syntax-ns#"
   xmlns:svg="http://www.w3.org/2000/svg"
   xmlns="http://www.w3.org/2000/svg"
   xmlns:sodipodi="http://sodipodi.sourceforge.net/DTD/sodipodi-0.dtd"
   xmlns:inkscape="http://www.inkscape.org/namespaces/inkscape"
   id="svg3557"
   version="1.1"
   inkscape:version="0.91 r13725"
   width="1024.7202"
   height="930"
   viewBox="0 0 1024.7202 929.99999"
   sodipodi:docname="W.svg">
  <metadata
     id="metadata3563">
    <rdf:RDF>
      <cc:Work
         rdf:about="">
        <dc:format>image/svg+xml</dc:format>
        <dc:type
           rdf:resource="http://purl.org/dc/dcmitype/StillImage" />
        <dc:title></dc:title>
      </cc:Work>
    </rdf:RDF>
  </metadata>
  <defs
     id="defs3561" />
  <sodipodi:namedview
     pagecolor="#ffffff"
     bordercolor="#666666"
     borderopacity="1"
     objecttolerance="10"
     gridtolerance="10"
     guidetolerance="10"
     inkscape:pageopacity="0"
     inkscape:pageshadow="2"
     inkscape:window-width="1518"
     inkscape:window-height="1027"
     id="namedview3559"
     showgrid="false"
     fit-margin-top="0"
     fit-margin-left="0"
     fit-margin-right="0"
     fit-margin-bottom="0"
     inkscape:zoom="0.37929124"
     inkscape:cx="548.54304"
     inkscape:cy="749.91581"
     inkscape:window-x="233"
     inkscape:window-y="0"
     inkscape:window-maximized="0"
     inkscape:current-layer="svg3557" />
  <path
     style="fill:#000000"
     d="M 236.79437,891.05361 C 126.74944,485.58069 125.57329,520.68857 1.2453222,59.941703 -10.648176,-2.4911404 66.063388,-23.608258 86.194888,35.86262 152.32111,222.39818 214.955,472.52516 275.04988,688.66462 c 8.49046,26.7178 12.24758,12.24152 16.15222,0.58937 61.0804,-212.71374 92.10748,-543.15141 176.23817,-665.783916 14.13547,-25.3622634 43.62973,-37.264755 67.39379,1.394246 76.20229,189.01984 145.17732,466.19379 205.17522,655.25895 6.98596,19.95285 12.6812,21.20539 20.48026,-0.72048 78.54595,-317.26731 78.46679,-338.27955 169.57336,-641.622602 11.97287,-53.431543 104.8487,-48.991434 93.7363,18.028434 C 951.86058,379.66836 881.74375,639.2377 810.86503,879.60704 793.46327,950.17044 717.55483,943.8865 707.80825,877.86923 617.82979,644.15892 568.44868,422.62849 511.28846,213.38491 c -4.95233,-17.03083 -13.74958,-12.84729 -17.82203,-1.09312 -52.25702,282.97438 -63.35463,400.88828 -159.65034,675.96548 -15.54475,62.1572 -79.22567,46.61285 -97.02172,2.79634 z"
     id="path3567"
     inkscape:connector-curvature="0"
     sodipodi:nodetypes="ccccccccccccccccc" />
</svg>
