<?xml version="1.0" encoding="UTF-8" standalone="no"?>
<!-- Created with Inkscape (http://www.inkscape.org/) -->

<svg
   xmlns:dc="http://purl.org/dc/elements/1.1/"
   xmlns:cc="http://creativecommons.org/ns#"
   xmlns:rdf="http://www.w3.org/1999/02/22-rdf-syntax-ns#"
   xmlns:svg="http://www.w3.org/2000/svg"
   xmlns="http://www.w3.org/2000/svg"
   xmlns:sodipodi="http://sodipodi.sourceforge.net/DTD/sodipodi-0.dtd"
   xmlns:inkscape="http://www.inkscape.org/namespaces/inkscape"
   version="1.1"
   id="svg64"
   width="476.67899"
   height="930"
   viewBox="0 0 476.67898 930.00001"
   sodipodi:docname="C.svg"
   inkscape:version="0.92.2 5c3e80d, 2017-08-06">
  <metadata
     id="metadata70">
    <rdf:RDF>
      <cc:Work
         rdf:about="">
        <dc:format>image/svg+xml</dc:format>
        <dc:type
           rdf:resource="http://purl.org/dc/dcmitype/StillImage" />
        <dc:title></dc:title>
      </cc:Work>
    </rdf:RDF>
  </metadata>
  <defs
     id="defs68" />
  <sodipodi:namedview
     pagecolor="#ffffff"
     bordercolor="#666666"
     borderopacity="1"
     objecttolerance="10"
     gridtolerance="10"
     guidetolerance="10"
     inkscape:pageopacity="0"
     inkscape:pageshadow="2"
     inkscape:window-width="1480"
     inkscape:window-height="867"
     id="namedview66"
     showgrid="false"
     fit-margin-top="0"
     fit-margin-left="0"
     fit-margin-right="0"
     fit-margin-bottom="0"
     inkscape:zoom="0.44666637"
     inkscape:cx="44.539798"
     inkscape:cy="535.37607"
     inkscape:window-x="231"
     inkscape:window-y="66"
     inkscape:window-maximized="0"
     inkscape:current-layer="svg64"
     inkscape:measure-start="316.615,639.563"
     inkscape:measure-end="125.063,538.246"
     showguides="true"
     inkscape:guide-bbox="true" />
  <path
     style="fill:#000000;stroke-width:3.48003578"
     d="M 254.59656,887.23627 C 189.46715,861.79551 112.20641,802.40126 94.806121,765.41755 50.30982,705.44422 26.036138,629.61198 13.151618,580.84316 -0.53053504,533.19507 3.5389052,496.07379 0.63869678,454.54455 -11.247989,188.19083 145.46993,79.462851 246.53869,32.87792 280.94077,21.412866 313.49653,3.6000915 372.27036,0 425.8255,3.2294076 441.4345,-5.695198 460.52168,21.665903 540.03504,149.34145 180.76278,65.134854 133.41452,338.86728 c -16.89125,92.69354 -14.51407,109.43467 -12.69519,164.46576 29.03157,204.67157 158.84325,284.55652 315.62098,328.65341 20.59147,11.13043 34.06238,4.3388 40.26737,47.9261 4.06557,85.26718 -166.82769,43.53432 -222.01112,7.32372 z"
     id="path74"
     inkscape:connector-curvature="0"
     sodipodi:nodetypes="cccccccccccc" />
</svg>
