<?xml version="1.0" encoding="UTF-8" standalone="no"?>
<!-- Created with Inkscape (http://www.inkscape.org/) -->

<svg
   xmlns:dc="http://purl.org/dc/elements/1.1/"
   xmlns:cc="http://creativecommons.org/ns#"
   xmlns:rdf="http://www.w3.org/1999/02/22-rdf-syntax-ns#"
   xmlns:svg="http://www.w3.org/2000/svg"
   xmlns="http://www.w3.org/2000/svg"
   xmlns:sodipodi="http://sodipodi.sourceforge.net/DTD/sodipodi-0.dtd"
   xmlns:inkscape="http://www.inkscape.org/namespaces/inkscape"
   id="svg3667"
   version="1.1"
   inkscape:version="0.91 r13725"
   width="647.29626"
   height="930.00098"
   viewBox="0 0 647.29626 930.00099"
   sodipodi:docname="X.svg">
  <metadata
     id="metadata3673">
    <rdf:RDF>
      <cc:Work
         rdf:about="">
        <dc:format>image/svg+xml</dc:format>
        <dc:type
           rdf:resource="http://purl.org/dc/dcmitype/StillImage" />
        <dc:title></dc:title>
      </cc:Work>
    </rdf:RDF>
  </metadata>
  <defs
     id="defs3671" />
  <sodipodi:namedview
     pagecolor="#ffffff"
     bordercolor="#666666"
     borderopacity="1"
     objecttolerance="10"
     gridtolerance="10"
     guidetolerance="10"
     inkscape:pageopacity="0"
     inkscape:pageshadow="2"
     inkscape:window-width="1829"
     inkscape:window-height="1048"
     id="namedview3669"
     showgrid="false"
     fit-margin-top="0"
     fit-margin-left="0"
     fit-margin-right="0"
     fit-margin-bottom="0"
     inkscape:zoom="0.7535121"
     inkscape:cx="360.49856"
     inkscape:cy="414.0388"
     inkscape:window-x="53"
     inkscape:window-y="0"
     inkscape:window-maximized="0"
     inkscape:current-layer="svg3667" />
  <path
     style="fill:#000000"
     d="M 31.798025,856.58563 C 106.01147,715.48483 184.3883,604.57838 260.05993,466.33151 177.9538,328.26752 78.439474,207.8155 5.3910441,73.526771 -22.363685,11.640487 64.481827,-30.716418 96.824887,28.160855 216.99985,213.98803 271.51082,279.66448 330.18195,372.92874 372.03972,307.9117 464.56254,112.3716 522.89734,25.107413 552.56494,-29.188715 634.62542,23.9815 613.50639,68.674055 493.65139,310.33241 472.3359,342.24087 406.60755,459.84263 483.13195,594.973 570.17558,725.25591 639.62058,850.46237 676.11639,914.73214 571.80771,949.73313 549.87226,912.60201 473.9104,797.66401 427.09703,695.03421 333.01581,561.44222 257.35316,679.88945 194.1932,804.59859 120.19163,909.25464 96.12455,958.73439 -1.7463105,911.06913 31.798025,856.58563 Z"
     id="path3677"
     inkscape:connector-curvature="0"
     sodipodi:nodetypes="ccccccccccccc" />
</svg>
