<?xml version="1.0" encoding="UTF-8" standalone="no"?>
<!-- Created with Inkscape (http://www.inkscape.org/) -->

<svg
   xmlns:dc="http://purl.org/dc/elements/1.1/"
   xmlns:cc="http://creativecommons.org/ns#"
   xmlns:rdf="http://www.w3.org/1999/02/22-rdf-syntax-ns#"
   xmlns:svg="http://www.w3.org/2000/svg"
   xmlns="http://www.w3.org/2000/svg"
   xmlns:sodipodi="http://sodipodi.sourceforge.net/DTD/sodipodi-0.dtd"
   xmlns:inkscape="http://www.inkscape.org/namespaces/inkscape"
   width="172.74515mm"
   height="262.46667mm"
   viewBox="0 0 612.08911 930.00002"
   id="svg2"
   version="1.1"
   inkscape:version="0.91 r13725"
   sodipodi:docname="R.svg">
  <defs
     id="defs4" />
  <sodipodi:namedview
     id="base"
     pagecolor="#ffffff"
     bordercolor="#666666"
     borderopacity="1.0"
     inkscape:pageopacity="0.0"
     inkscape:pageshadow="2"
     inkscape:zoom="0.35"
     inkscape:cx="-361.69006"
     inkscape:cy="781.24944"
     inkscape:document-units="px"
     inkscape:current-layer="layer1"
     showgrid="false"
     fit-margin-top="0"
     fit-margin-left="0"
     fit-margin-right="0"
     fit-margin-bottom="0"
     inkscape:window-width="1920"
     inkscape:window-height="969"
     inkscape:window-x="0"
     inkscape:window-y="1"
     inkscape:window-maximized="1" />
  <metadata
     id="metadata7">
    <rdf:RDF>
      <cc:Work
         rdf:about="">
        <dc:format>image/svg+xml</dc:format>
        <dc:type
           rdf:resource="http://purl.org/dc/dcmitype/StillImage" />
        <dc:title></dc:title>
      </cc:Work>
    </rdf:RDF>
  </metadata>
  <g
     inkscape:label="Layer 1"
     inkscape:groupmode="layer"
     id="layer1"
     transform="translate(-446.0935,-414.11934)">
    <path
       style="fill:#000000"
       d="m 457.56498,1279.7196 c 0.69646,-136.0224 -8.05772,-357.32869 -10.15247,-585.36451 6.05458,-64.63304 -11.23563,-147.24935 8.31482,-220.72437 5.62774,-29.56313 40.62131,-37.31925 71.51364,-47.05124 40.51933,-12.76479 100.54843,-10.86178 128.87466,-11.76615 411.57017,-20.72314 435.75607,428.78213 174.84715,528.48856 54.48933,91.32701 149.87064,241.88281 215.36182,307.36011 45.7996,72.1453 -52.04983,119.7863 -106.85826,67.0541 -75.01869,-93.4251 -158.24635,-237.6988 -220.40497,-338.45894 -27.72194,-11.19217 -102.59686,-6.77835 -149.58329,-3.36762 -3.87374,73.97666 6.37281,228.59376 0.13066,299.75136 9.03532,99.9187 -118.14537,81.022 -112.04376,4.0787 z M 638.72663,522.06447 c -88.58579,11.39132 -79.41441,23.63087 -80.86932,109.37556 -1.22795,72.36889 2.1563,178.81196 4.14861,228.22483 329.28363,73.89666 520.38498,-348.36417 76.72071,-337.60039 z"
       id="path3401"
       inkscape:connector-curvature="0"
       sodipodi:nodetypes="cccscccccccccccc" />
  </g>
</svg>
