<?xml version="1.0" encoding="UTF-8" standalone="no"?>
<!-- Created with Inkscape (http://www.inkscape.org/) -->

<svg
   xmlns:dc="http://purl.org/dc/elements/1.1/"
   xmlns:cc="http://creativecommons.org/ns#"
   xmlns:rdf="http://www.w3.org/1999/02/22-rdf-syntax-ns#"
   xmlns:svg="http://www.w3.org/2000/svg"
   xmlns="http://www.w3.org/2000/svg"
   xmlns:sodipodi="http://sodipodi.sourceforge.net/DTD/sodipodi-0.dtd"
   xmlns:inkscape="http://www.inkscape.org/namespaces/inkscape"
   id="svg3039"
   version="1.1"
   inkscape:version="0.91 r13725"
   width="483.86288"
   height="930"
   sodipodi:docname="F.svg">
  <metadata
     id="metadata3045">
    <rdf:RDF>
      <cc:Work
         rdf:about="">
        <dc:format>image/svg+xml</dc:format>
        <dc:type
           rdf:resource="http://purl.org/dc/dcmitype/StillImage" />
        <dc:title></dc:title>
      </cc:Work>
    </rdf:RDF>
  </metadata>
  <defs
     id="defs3043" />
  <sodipodi:namedview
     pagecolor="#ffffff"
     bordercolor="#666666"
     borderopacity="1"
     objecttolerance="10"
     gridtolerance="10"
     guidetolerance="10"
     inkscape:pageopacity="0"
     inkscape:pageshadow="2"
     inkscape:window-width="1728"
     inkscape:window-height="1019"
     id="namedview3041"
     showgrid="false"
     fit-margin-top="0"
     fit-margin-left="0"
     fit-margin-right="0"
     fit-margin-bottom="0"
     inkscape:zoom="0.66291261"
     inkscape:cx="-389.57149"
     inkscape:cy="644.10027"
     inkscape:window-x="76"
     inkscape:window-y="0"
     inkscape:window-maximized="0"
     inkscape:current-layer="svg3039" />
  <path
     style="fill:#000000"
     d="M 57.944123,924.61461 C 44.478195,918.27323 21.390658,905.25754 21.401765,904.97915 12.634569,833.3482 9.5179922,679.56347 11.12192,549.73977 10.508149,535.08904 8.9333872,495.499 8.9333872,495.499 1.8511422,407.52778 14.788215,346.53048 5.9373642,238.02814 -5.2010938,149.84804 0.2751632,40.084076 14.529333,36.672648 23.806209,-27.265719 294.65029,12.617236 385.16905,8.9955264 436.34284,1.0922806 484.48513,26.975819 483.85681,67.27664 c -5.09046,34.16738 -14.71185,37.69759 -50.84129,51.21436 -74.41849,27.84146 -208.07922,5.54178 -267.93495,11.38936 -83.1091,35.52904 -32.43681,213.34277 -38.05836,248.22556 -3.47207,46.99033 318.4577,-5.97423 335.02586,24.20923 102.00292,162.85808 -268.93304,87.59344 -320.77997,97.327 -5.03643,1.34761 -11.10713,2.47358 -13.4904,2.50216 -7.58935,97.91697 -5.33366,142.81786 0.93074,228.76397 5.57929,42.58139 7.16374,81.60706 7.07092,117.80161 -0.32064,32.52025 -0.57139,56.71303 -11.61675,71.6719 -13.73458,11.98911 -49.561462,12.01721 -66.218487,4.23282 z"
     id="path3049"
     inkscape:connector-curvature="0"
     sodipodi:nodetypes="ccccccccsccccccccc" />
</svg>
