<?xml version="1.0" encoding="UTF-8" standalone="no"?>
<!-- Created with Inkscape (http://www.inkscape.org/) -->

<svg
   xmlns:dc="http://purl.org/dc/elements/1.1/"
   xmlns:cc="http://creativecommons.org/ns#"
   xmlns:rdf="http://www.w3.org/1999/02/22-rdf-syntax-ns#"
   xmlns:svg="http://www.w3.org/2000/svg"
   xmlns="http://www.w3.org/2000/svg"
   xmlns:sodipodi="http://sodipodi.sourceforge.net/DTD/sodipodi-0.dtd"
   xmlns:inkscape="http://www.inkscape.org/namespaces/inkscape"
   width="194.73334mm"
   height="262.46667mm"
   viewBox="0 0 194.73333 262.46668"
   version="1.1"
   id="svg8"
   inkscape:version="0.91 r13725"
   sodipodi:docname="G.svg">
  <defs
     id="defs2" />
  <sodipodi:namedview
     id="base"
     pagecolor="#ffffff"
     bordercolor="#666666"
     borderopacity="1.0"
     inkscape:pageopacity="0.0"
     inkscape:pageshadow="2"
     inkscape:zoom="0.24748738"
     inkscape:cx="-596.01979"
     inkscape:cy="1136.1264"
     inkscape:document-units="mm"
     inkscape:current-layer="layer1"
     showgrid="false"
     fit-margin-top="0"
     fit-margin-left="0"
     fit-margin-right="0"
     fit-margin-bottom="0"
     inkscape:window-width="1920"
     inkscape:window-height="965"
     inkscape:window-x="39"
     inkscape:window-y="76"
     inkscape:window-maximized="0" />
  <metadata
     id="metadata5">
    <rdf:RDF>
      <cc:Work
         rdf:about="">
        <dc:format>image/svg+xml</dc:format>
        <dc:type
           rdf:resource="http://purl.org/dc/dcmitype/StillImage" />
        <dc:title></dc:title>
      </cc:Work>
    </rdf:RDF>
  </metadata>
  <g
     inkscape:label="Layer 1"
     inkscape:groupmode="layer"
     id="layer1"
     transform="translate(-83.65946,-111.10569)">
    <path
       style="fill:#000000;stroke-width:1.05601263"
       d="m 136.90705,357.06876 c -11.57278,-11.91477 -8.33593,-3.95425 -19.79344,-16.44844 -17.155334,-30.77658 -23.276136,-56.32414 -31.438935,-87.31492 -7.844717,-35.3636 9.199684,-71.42511 17.132715,-81.62766 1.11217,-3.30515 3.13533,-6.69331 4.61061,-7.72338 25.20936,-36.18563 57.2641,-52.63337 112.7596,-52.76307 8.83003,0.62469 21.59121,-1.81973 27.04737,2.94902 10.92784,16.47945 -1.7185,25.3322 -5.85982,26.4588 -9.12666,2.99442 -8.80178,1.73234 -24.065,3.42846 -38.55543,1.75116 -53.88154,10.84475 -71.54359,29.41827 -16.71689,16.06974 -24.614,33.31914 -27.80806,57.3675 1.04118,8.60291 -0.39891,31.72751 4.63675,41.01335 6.93295,20.66482 10.61545,32.34579 21.04273,43.69397 17.09424,36.48556 92.9384,38.77035 102.20554,9.06621 5.48184,-13.08888 3.76019,-19.16682 6.77801,-36.02264 0.96253,-13.43261 2.13066,-23.93845 -5.7073,-24.14954 -8.87278,-1.89674 -34.79468,7.42817 -37.73071,-9.67358 -3.98249,-24.0931 7.58732,-19.08775 18.77493,-22.28234 9.00183,-3.60053 48.70719,0.13682 50.44435,10.42254 -0.97409,27.49175 -0.69655,23.66929 -1.70104,50.45617 -1.23683,9.20496 -1.94776,16.11635 -1.77075,21.73042 -6.34313,43.64655 -31.78154,47.83655 -58.2937,57.64029 -19.33129,3.18605 -62.36592,-2.52872 -79.72026,-15.63943 z"
       id="path110"
       inkscape:connector-curvature="0"
       sodipodi:nodetypes="ccccccccccccccccccccccc" />
  </g>
</svg>
