<?xml version="1.0" encoding="UTF-8" standalone="no"?>
<!-- Created with Inkscape (http://www.inkscape.org/) -->

<svg
   xmlns:dc="http://purl.org/dc/elements/1.1/"
   xmlns:cc="http://creativecommons.org/ns#"
   xmlns:rdf="http://www.w3.org/1999/02/22-rdf-syntax-ns#"
   xmlns:svg="http://www.w3.org/2000/svg"
   xmlns="http://www.w3.org/2000/svg"
   xmlns:sodipodi="http://sodipodi.sourceforge.net/DTD/sodipodi-0.dtd"
   xmlns:inkscape="http://www.inkscape.org/namespaces/inkscape"
   width="201.93568mm"
   height="262.46667mm"
   viewBox="0 0 201.93568 262.46668"
   version="1.1"
   id="svg8"
   inkscape:version="0.91 r13725"
   sodipodi:docname="G.svg">
  <defs
     id="defs2" />
  <sodipodi:namedview
     id="base"
     pagecolor="#ffffff"
     bordercolor="#666666"
     borderopacity="1.0"
     inkscape:pageopacity="0.0"
     inkscape:pageshadow="2"
     inkscape:zoom="0.24748738"
     inkscape:cx="111.72522"
     inkscape:cy="1141.7421"
     inkscape:document-units="mm"
     inkscape:current-layer="layer1"
     showgrid="false"
     fit-margin-top="0"
     fit-margin-left="0"
     fit-margin-right="0"
     fit-margin-bottom="0"
     inkscape:window-width="1920"
     inkscape:window-height="965"
     inkscape:window-x="39"
     inkscape:window-y="76"
     inkscape:window-maximized="0" />
  <metadata
     id="metadata5">
    <rdf:RDF>
      <cc:Work
         rdf:about="">
        <dc:format>image/svg+xml</dc:format>
        <dc:type
           rdf:resource="http://purl.org/dc/dcmitype/StillImage" />
        <dc:title></dc:title>
      </cc:Work>
    </rdf:RDF>
  </metadata>
  <g
     inkscape:label="Layer 1"
     inkscape:groupmode="layer"
     id="layer1"
     transform="translate(-80.058282,-112.69054)">
    <path
       style="fill:#000000;stroke-width:1.05601263"
       d="m 134.0103,357.06876 c -12.33262,-11.91477 -8.88324,-3.95425 -21.09303,-16.44844 -18.281705,-30.77658 -24.804383,-56.32414 -33.503131,-87.31492 -8.359782,-35.3636 9.803712,-71.42511 18.257606,-81.62766 1.185188,-3.30515 3.341185,-6.69331 4.913335,-7.72338 26.86454,-36.18563 61.02391,-52.63337 120.16311,-52.76307 9.40978,0.62469 23.00883,-1.81973 28.82323,2.94902 11.64533,16.47945 -1.83133,25.3322 -6.24456,26.4588 -9.7259,2.99442 -9.37968,1.73234 -25.64505,3.42846 -41.08688,1.75116 -57.41927,10.84475 -76.24096,29.41827 -17.81448,16.06974 -26.23009,33.31914 -29.63387,57.3675 1.10954,8.60291 -0.4251,31.72751 4.94119,41.01335 7.38815,20.66482 11.31243,32.34579 22.42434,43.69397 18.21661,36.48556 99.0405,38.77035 108.9161,9.06621 5.84176,-13.08888 4.00708,-19.16682 7.22304,-36.02264 1.02573,-13.43261 2.27055,-23.93845 -6.08203,-24.14954 -9.45534,-1.89674 -37.07921,7.42817 -40.20801,-9.67358 -4.24397,-24.0931 8.08548,-19.08775 20.00764,-22.28234 9.59287,-3.60053 51.90518,0.13682 53.7564,10.42254 -1.03805,27.49175 -0.74228,23.66929 -1.81273,50.45617 -1.31803,9.20496 -2.07564,16.11635 -1.88701,21.73042 -6.7596,43.64655 -33.86823,47.83655 -62.12112,57.64029 -20.60053,3.18605 -66.46071,-2.52872 -84.95449,-15.63943 z"
       id="path110"
       inkscape:connector-curvature="0"
       sodipodi:nodetypes="ccccccccccccccccccccccc" />
  </g>
</svg>
