<?xml version="1.0" encoding="UTF-8" standalone="no"?>
<!-- Created with Inkscape (http://www.inkscape.org/) -->

<svg
   xmlns:dc="http://purl.org/dc/elements/1.1/"
   xmlns:cc="http://creativecommons.org/ns#"
   xmlns:rdf="http://www.w3.org/1999/02/22-rdf-syntax-ns#"
   xmlns:svg="http://www.w3.org/2000/svg"
   xmlns="http://www.w3.org/2000/svg"
   xmlns:sodipodi="http://sodipodi.sourceforge.net/DTD/sodipodi-0.dtd"
   xmlns:inkscape="http://www.inkscape.org/namespaces/inkscape"
   width="160.86783mm"
   height="262.46667mm"
   viewBox="0 0 570.00412 930.00002"
   id="svg2"
   version="1.1"
   inkscape:version="0.91 r13725"
   sodipodi:docname="H.svg">
  <defs
     id="defs4" />
  <sodipodi:namedview
     id="base"
     pagecolor="#ffffff"
     bordercolor="#666666"
     borderopacity="1.0"
     inkscape:pageopacity="0.0"
     inkscape:pageshadow="2"
     inkscape:zoom="0.35"
     inkscape:cx="-453.99287"
     inkscape:cy="933.77575"
     inkscape:document-units="px"
     inkscape:current-layer="layer1"
     showgrid="false"
     fit-margin-top="0"
     fit-margin-left="0"
     fit-margin-right="0"
     fit-margin-bottom="0"
     inkscape:window-width="1920"
     inkscape:window-height="969"
     inkscape:window-x="0"
     inkscape:window-y="1"
     inkscape:window-maximized="1" />
  <metadata
     id="metadata7">
    <rdf:RDF>
      <cc:Work
         rdf:about="">
        <dc:format>image/svg+xml</dc:format>
        <dc:type
           rdf:resource="http://purl.org/dc/dcmitype/StillImage" />
        <dc:title></dc:title>
      </cc:Work>
    </rdf:RDF>
  </metadata>
  <g
     inkscape:label="Layer 1"
     inkscape:groupmode="layer"
     id="layer1"
     transform="translate(-376.30072,-411.1346)">
    <path
       style="fill:#000000"
       d="m 425.77482,1338.89 c -33.71376,-11.4599 -28.46089,-37.5746 -33.34017,-56.5959 -4.31674,-48.9013 -5.82766,-117.2844 -3.95673,-153.4238 -0.46104,-197.5298 0.19596,-405.1484 -8.33606,-598.70728 -4.94169,-25.52275 -9.10108,-107.69403 14.2945,-112.85496 21.21976,-0.76255 65.82264,-15.61256 75.89935,3.68236 40.37712,43.06301 25.84227,132.30898 30.91569,185.86826 1.53822,51.33619 2.12302,95.59291 2.02662,135.06534 -0.5162,10.46823 1.79342,59.25989 6.47504,73.08905 147.34725,6.76767 163.12415,-5.17978 321.56904,-1.84516 1.4691,-0.16446 2.2941,-5.80543 1.82816,-12.51616 -11.40066,-97.74538 1.50833,-167.18553 -9.95154,-264.45032 2.60953,-64.55083 -7.48539,-139.35551 79.20948,-121.01343 63.4796,1.76254 39.5383,190.37643 39.1697,257.88024 -0.1096,3.39182 -0.3207,9.86712 -0.466,14.38955 2.0326,199.00611 3.9352,423.90221 4.6732,562.83421 1.3614,89.1139 -1.4596,87.7441 -43.6493,88.8085 -43.91572,-2.3012 -52.21946,-1.6025 -59.61716,-67.7243 2.15325,-111.004 -8.28826,-233.4396 -4.14897,-332.31228 -99.67285,-10.57234 -121.99841,0.70412 -187.47546,0.54153 -176.09463,-8.51977 -156.31027,72.34335 -159.30465,209.34335 6.16515,58.2282 4.22528,99.9369 9.40994,115.309 4.66413,67.0561 -30.14879,83.5909 -75.21239,74.6394 z"
       id="path3401"
       inkscape:connector-curvature="0"
       sodipodi:nodetypes="cccccccccccccccccccccccc" />
  </g>
</svg>
