<?xml version="1.0" encoding="UTF-8" standalone="no"?>
<!-- Created with Inkscape (http://www.inkscape.org/) -->

<svg
   xmlns:dc="http://purl.org/dc/elements/1.1/"
   xmlns:cc="http://creativecommons.org/ns#"
   xmlns:rdf="http://www.w3.org/1999/02/22-rdf-syntax-ns#"
   xmlns:svg="http://www.w3.org/2000/svg"
   xmlns="http://www.w3.org/2000/svg"
   xmlns:sodipodi="http://sodipodi.sourceforge.net/DTD/sodipodi-0.dtd"
   xmlns:inkscape="http://www.inkscape.org/namespaces/inkscape"
   id="svg3390"
   version="1.1"
   inkscape:version="0.91 r13725"
   width="346.96515"
   height="930.00098"
   viewBox="0 0 346.96515 930.00098"
   sodipodi:docname="I.svg">
  <metadata
     id="metadata3396">
    <rdf:RDF>
      <cc:Work
         rdf:about="">
        <dc:format>image/svg+xml</dc:format>
        <dc:type
           rdf:resource="http://purl.org/dc/dcmitype/StillImage" />
        <dc:title></dc:title>
      </cc:Work>
    </rdf:RDF>
  </metadata>
  <defs
     id="defs3394" />
  <sodipodi:namedview
     pagecolor="#ffffff"
     bordercolor="#666666"
     borderopacity="1"
     objecttolerance="10"
     gridtolerance="10"
     guidetolerance="10"
     inkscape:pageopacity="0"
     inkscape:pageshadow="2"
     inkscape:window-width="1769"
     inkscape:window-height="975"
     id="namedview3392"
     showgrid="false"
     inkscape:zoom="0.4280139"
     inkscape:cx="-287.30495"
     inkscape:cy="487.44514"
     inkscape:window-x="0"
     inkscape:window-y="0"
     inkscape:window-maximized="0"
     inkscape:current-layer="svg3390"
     fit-margin-top="0"
     fit-margin-left="0"
     fit-margin-right="0"
     fit-margin-bottom="0" />
  <path
     style="fill:#000000"
     d="m 27.16702,825.46686 c 25.08991,-9.39187 75.31104,-7.77409 96.88717,-8.19951 8.23332,-226.12879 1.82503,-496.66084 6.25025,-706.16429 C 83.21601,108.40495 43.59532,118.22794 20.26278,98.422759 -7.84716,72.414809 -6.09379,17.251919 27.54469,9.3268887 58.77109,0.33617872 116.0475,-0.41422128 173.48272,0.13663872 c 50.68292,0.4861 110.42319,0.65717 140.14527,6.16782998 C 362.76516,17.527399 347.997,85.467769 329.78508,96.502579 317.2752,111.94315 253.63206,107.29918 214.9131,110.68831 c 17.39129,-234.98198 0.42935,657.25194 6.19905,704.74812 27.75321,0.27793 58.50509,-0.95134 89.87936,3.26206 39.97822,9.47267 43.9815,99.90049 -1.47404,109.89493 -109.86052,0.87262 -262.43852,3.59183 -280.27635,-2.16652 -55.59431,-35.5205 -17.65313,-97.28572 -2.0741,-100.96004 z"
     id="path3400"
     inkscape:connector-curvature="0"
     sodipodi:nodetypes="cccccscccccccc" />
</svg>
