<?xml version="1.0" encoding="UTF-8" standalone="no"?>
<!-- Created with Inkscape (http://www.inkscape.org/) -->

<svg
   xmlns:dc="http://purl.org/dc/elements/1.1/"
   xmlns:cc="http://creativecommons.org/ns#"
   xmlns:rdf="http://www.w3.org/1999/02/22-rdf-syntax-ns#"
   xmlns:svg="http://www.w3.org/2000/svg"
   xmlns="http://www.w3.org/2000/svg"
   xmlns:sodipodi="http://sodipodi.sourceforge.net/DTD/sodipodi-0.dtd"
   xmlns:inkscape="http://www.inkscape.org/namespaces/inkscape"
   id="svg3390"
   version="1.1"
   inkscape:version="0.91 r13725"
   width="279.06113"
   height="929.99902"
   viewBox="0 0 279.06112 929.99902"
   sodipodi:docname="J.svg">
  <metadata
     id="metadata3396">
    <rdf:RDF>
      <cc:Work
         rdf:about="">
        <dc:format>image/svg+xml</dc:format>
        <dc:type
           rdf:resource="http://purl.org/dc/dcmitype/StillImage" />
        <dc:title></dc:title>
      </cc:Work>
    </rdf:RDF>
  </metadata>
  <defs
     id="defs3394" />
  <sodipodi:namedview
     pagecolor="#ffffff"
     bordercolor="#666666"
     borderopacity="1"
     objecttolerance="10"
     gridtolerance="10"
     guidetolerance="10"
     inkscape:pageopacity="0"
     inkscape:pageshadow="2"
     inkscape:window-width="1779"
     inkscape:window-height="932"
     id="namedview3392"
     showgrid="false"
     fit-margin-top="0"
     fit-margin-left="0"
     fit-margin-right="0"
     fit-margin-bottom="0"
     inkscape:zoom="0.53696236"
     inkscape:cx="-48.253243"
     inkscape:cy="532.41299"
     inkscape:window-x="0"
     inkscape:window-y="0"
     inkscape:window-maximized="0"
     inkscape:current-layer="svg3390" />
  <path
     style="fill:#000000"
     d="m 2.7890131,905.25 c -6.7118169,-48.47545 -2.33396686,-72.24221 24.4528699,-78.83299 9.303789,2.36345 49.552697,-8.2236 83.985187,-27.92915 31.14807,-15.41632 53.48642,-46.09248 55.78361,-75.72588 17.24314,-95.67075 12.79206,-184.97448 9.05186,-288.50828 4.55343,-63.09221 -2.49933,-136.16248 -2.47604,-192.33285 1.62262,-65.19101 -17.34003,-232.2755125 11.46863,-236.8324425 24.70029,-7.9138883 75.65759,-8.6552648 87.88698,12.9150435 11.61622,43.27941 2.20799,100.378649 5.24924,144.007529 0.14636,205.29418 4.59483,423.09048 -8.13516,623.57864 -16.88436,50.91884 -37.02986,58.96215 -35.45217,59.67902 -26.58384,34.31541 -84.89982,51.2099 -106.68807,65.8565 -2.98243,2.37306 -9.6977,4.81442 -14.92285,5.42522 -5.22511,0.61084 -9.8733,1.4673 -10.32928,1.90327 -0.45586,0.43597 -2.27293,0.97916 -4.037722,1.20709 C 54.058915,937.22278 18.480425,932.40371 2.7890131,905.25 Z"
     id="path3400"
     inkscape:connector-curvature="0"
     sodipodi:nodetypes="ccccccccccccsccc" />
</svg>
