<?xml version="1.0" encoding="UTF-8" standalone="no"?>
<!-- Created with Inkscape (http://www.inkscape.org/) -->

<svg
   xmlns:dc="http://purl.org/dc/elements/1.1/"
   xmlns:cc="http://creativecommons.org/ns#"
   xmlns:rdf="http://www.w3.org/1999/02/22-rdf-syntax-ns#"
   xmlns:svg="http://www.w3.org/2000/svg"
   xmlns="http://www.w3.org/2000/svg"
   xmlns:sodipodi="http://sodipodi.sourceforge.net/DTD/sodipodi-0.dtd"
   xmlns:inkscape="http://www.inkscape.org/namespaces/inkscape"
   id="svg3396"
   version="1.1"
   inkscape:version="0.91 r13725"
   width="696.51508"
   height="930"
   viewBox="0 0 696.51508 930.00001"
   sodipodi:docname="O.svg">
  <metadata
     id="metadata3402">
    <rdf:RDF>
      <cc:Work
         rdf:about="">
        <dc:format>image/svg+xml</dc:format>
        <dc:type
           rdf:resource="http://purl.org/dc/dcmitype/StillImage" />
        <dc:title></dc:title>
      </cc:Work>
    </rdf:RDF>
  </metadata>
  <defs
     id="defs3400" />
  <sodipodi:namedview
     pagecolor="#ffffff"
     bordercolor="#666666"
     borderopacity="1"
     objecttolerance="10"
     gridtolerance="10"
     guidetolerance="10"
     inkscape:pageopacity="0"
     inkscape:pageshadow="2"
     inkscape:window-width="1806"
     inkscape:window-height="947"
     id="namedview3398"
     showgrid="false"
     fit-margin-top="0"
     fit-margin-left="0"
     fit-margin-right="0"
     fit-margin-bottom="0"
     inkscape:zoom="0.64"
     inkscape:cx="111.54804"
     inkscape:cy="493.13953"
     inkscape:window-x="14"
     inkscape:window-y="42"
     inkscape:window-maximized="0"
     inkscape:current-layer="svg3396" />
  <path
     style="fill:#000000"
     d="m 251.83762,919.33479 c -10.04998,-2.4338 -25.42629,-13.04258 -36.56502,-18.53971 -6.90248,0 -21.52872,-3.8006 -34.45343,-9.25723 -10.74881,-4.538 -17.35841,-6.22966 -32.66749,-18.23517 C 111.15145,834.12409 59.572495,770.68705 44.021762,717.31565 23.068044,682.63854 21.603538,668.76759 16.650783,628.68859 12.34089,617.79202 8.5486577,594.08578 7.124343,571.47545 3.3324816,568.58304 1.5157679,528.32341 1.6213512,512.91821 1.6598252,507.12115 0.9313969,494.31429 0,484.45857 4.6025262,466.79509 -0.2278461,447.70873 2.9092801,428.07313 7.4688781,392.28464 13.240656,381.1534 16.90481,346.38414 c 2.937207,-16.06015 3.427745,-33.66328 5.614146,-39.16855 1.735462,-3.96442 4.95854,-12.53238 7.162179,-19.03992 9.102769,-21.92894 2.165006,-28.30701 14.332533,-46.55303 1.898824,-2.67691 4.044471,-10.5562 4.768076,-17.50962 1.136806,-10.92373 10.98015,-33.54185 17.428394,-40.04698 1.149288,-1.15941 4.221248,-8.27401 6.82661,-15.8102 5.135301,-13.64423 14.253597,-21.61697 20.228911,-32.5898 6.816771,-16.13987 15.642301,-18.40171 24.307011,-28.01115 25.47221,-39.4209 65.66233,-47.299739 90.62914,-62.432954 24.42308,-18.67682 49.18801,-21.316553 77.84426,-34.860405 1.0688,-1.7052508 7.14979,-3.5645228 13.51325,-4.1318398 C 330.68259,0.13944813 363.7661,-0.93916617 410.36676,0.66973813 481.45984,11.698098 542.72805,28.008349 586.86992,72.340395 c 11.42394,11.59414 22.37033,22.291061 24.32532,23.770924 10.92948,17.767851 7.84828,17.238431 11.09997,24.713681 21.80394,47.18365 20.58924,66.29173 31.21936,93.80719 9.17887,28.08844 9.5618,57.27522 19.9652,85.37507 7.49968,19.97291 11.37845,40.83704 10.7772,57.97073 7.17719,43.81639 17.52762,106.52819 9.11441,159.52459 -4.46547,48.75366 -11.76367,81.67086 -27.06837,123.08896 -1.23866,11.01443 -4.74075,26.91587 -7.78249,35.33657 -3.04175,8.42063 -5.77629,20.68597 -6.07671,27.25635 -0.30054,6.57033 -4.09968,16.43824 -8.44266,21.9287 -22.6628,36.92236 -39.18768,81.00928 -67.92384,108.06093 -15.10291,11.14404 -14.03878,9.32412 -32.41458,18.27756 -42.4359,33.21136 -39.94103,41.28614 -85.79866,54.08547 -19.21765,14.44839 -25.35019,13.74915 -47.0157,18.44299 -22.21089,2.31512 -24.8752,-2.68357 -56.2806,3.82874 -50.81703,7.65995 -67.63949,-7.11649 -102.73015,-8.47406 z M 352.0235,823.71228 c 35.26125,-6.91765 84.96626,-22.61745 104.83977,-44.06856 34.23242,-24.73891 43.49013,-38.01736 56.48881,-58.85585 5.8411,-9.27533 12.64714,-19.37126 15.12456,-22.43542 2.47744,-3.06415 4.50443,-7.53333 4.50443,-9.9315 0,-2.39809 4.13148,-10.10493 9.1811,-17.12603 22.66688,-36.99481 14.11311,-52.45987 28.72249,-91.94911 -0.88479,-2.90008 0.63423,-10.4704 3.37543,-16.82289 2.74115,-6.3525 4.84638,-12.04416 4.67826,-12.64815 6.84691,-47.06882 16.52147,-67.87659 13.41518,-109.40296 -8.40237,-31.88346 -7.1022,-61.35974 -14.58395,-76.38038 -7.82303,-15.75296 -14.79527,-89.61608 -20.34726,-109.2193 -34.55241,-75.26501 -15.04444,-101.04945 -81.28133,-130.85546 -38.74229,-20.03392 -95.23902,-14.33712 -134.60374,-16.48479 -13.36318,-2.62982 -19.43651,5.87804 -30.01784,6.60421 -7.91633,0.47782 -15.36736,4.14717 -19.3614,9.53512 -20.21693,17.18086 -48.00812,24.84257 -69.46758,40.7933 -30.57402,14.68463 -29.96103,14.44266 -48.47298,40.25822 -7.43229,4.61761 -17.4839,23.76154 -17.4839,27.01245 -30.04952,59.38568 -23.55367,116.25063 -44.59201,187.58273 -0.51075,46.40535 -6.23247,112.57818 6.8787,157.8948 -0.0745,5.21737 1.54591,14.22918 3.59853,20.02626 0.96447,30.86038 10.24236,39.86818 14.19483,57.97072 1.31769,6.37678 5.40264,16.63009 9.0775,22.78511 3.67487,6.15502 6.68158,13.90201 6.68158,17.21552 0,3.31353 1.21606,7.44754 2.70266,9.18667 1.48657,1.73925 2.71194,4.42685 2.72333,5.97271 0.0265,3.51685 13.68247,13.61874 26.68557,31.87097 23.00861,38.66735 69.5048,53.53748 99.55239,66.6527 47.54154,17.40943 18.79995,9.98549 67.78687,14.81887 z"
     id="path3406"
     inkscape:connector-curvature="0"
     sodipodi:nodetypes="ccscccccccccccsscccccccccccccccscccccccccccssccscccccccccccccccsscccccc" />
</svg>
