<?xml version="1.0" encoding="UTF-8" standalone="no"?>
<!-- Created with Inkscape (http://www.inkscape.org/) -->

<svg
   xmlns:dc="http://purl.org/dc/elements/1.1/"
   xmlns:cc="http://creativecommons.org/ns#"
   xmlns:rdf="http://www.w3.org/1999/02/22-rdf-syntax-ns#"
   xmlns:svg="http://www.w3.org/2000/svg"
   xmlns="http://www.w3.org/2000/svg"
   xmlns:sodipodi="http://sodipodi.sourceforge.net/DTD/sodipodi-0.dtd"
   xmlns:inkscape="http://www.inkscape.org/namespaces/inkscape"
   id="svg3396"
   version="1.1"
   inkscape:version="0.91 r13725"
   width="807.284"
   height="929.99945"
   viewBox="0 0 807.284 929.99946"
   sodipodi:docname="O.svg">
  <metadata
     id="metadata3402">
    <rdf:RDF>
      <cc:Work
         rdf:about="">
        <dc:format>image/svg+xml</dc:format>
        <dc:type
           rdf:resource="http://purl.org/dc/dcmitype/StillImage" />
        <dc:title></dc:title>
      </cc:Work>
    </rdf:RDF>
  </metadata>
  <defs
     id="defs3400" />
  <sodipodi:namedview
     pagecolor="#ffffff"
     bordercolor="#666666"
     borderopacity="1"
     objecttolerance="10"
     gridtolerance="10"
     guidetolerance="10"
     inkscape:pageopacity="0"
     inkscape:pageshadow="2"
     inkscape:window-width="1806"
     inkscape:window-height="947"
     id="namedview3398"
     showgrid="false"
     fit-margin-top="0"
     fit-margin-left="0"
     fit-margin-right="0"
     fit-margin-bottom="0"
     inkscape:zoom="0.64"
     inkscape:cx="396.42518"
     inkscape:cy="550.63589"
     inkscape:window-x="41"
     inkscape:window-y="0"
     inkscape:window-maximized="0"
     inkscape:current-layer="svg3396" />
  <path
     style="fill:#000000"
     d="m 275.64661,907.20297 c -11.56757,-2.39434 -15.04655,-2.88738 -27.86725,-8.29536 -7.94477,0 -24.77962,-3.73897 -39.656,-9.10711 -12.37191,-4.4644 -19.97958,-6.12864 -37.60037,-17.93945 C 127.93563,833.31782 73.738718,766.49012 55.839781,713.98424 52.737762,698.13315 51.742621,687.7639 52.419017,670.78518 49.087637,662.80083 45.659772,652.8589 44.80153,648.69192 43.943238,644.52491 38.805507,633.1795 33.384291,623.47988 30.412774,609.49586 20.085355,594.67863 19.091552,583.02012 18.720469,578.09258 16.727655,572.95983 14.663408,571.61399 10.298965,568.76849 1.744652,532.47631 1.866179,517.32093 1.910459,511.61788 1.07204,499.01872 0,489.32282 5.2975202,471.94579 -0.262252,453.16895 3.3485884,433.85179 8.5966991,398.64368 15.240031,387.69295 19.457483,353.48755 c 3.380733,-15.79971 3.945344,-33.11737 6.461897,-38.53336 1.997522,-3.90013 5.707294,-12.32915 8.243689,-18.73115 10.477312,-21.57332 2.491928,-27.84795 16.496783,-45.79808 2.185556,-2.6335 4.655196,-10.385 5.488075,-17.22567 1.308456,-10.74657 12.638181,-32.99789 20.06012,-39.39754 1.322834,-1.14061 4.858672,-8.13982 7.857453,-15.5538 5.91074,-13.42296 16.40593,-21.2664 23.28353,-32.06129 7.84613,-15.87814 18.00433,-18.10329 27.97744,-27.55689 29.31859,-38.78162 75.57751,-46.532687 104.31439,-61.420487 28.11104,-18.373938 56.61553,-20.970863 89.59895,-34.295074 1.2302,-1.677597 8.22944,-3.506718 15.5538,-4.064834 C 380.61658,12.857897 417.40314,-1.4614843 471.04063,0.12132872 552.86896,10.970842 624.68149,40.274849 675.48891,83.887962 c 13.14898,11.406118 25.74831,21.929568 27.9985,23.385428 12.57987,17.47971 9.0334,16.95888 12.7761,24.31291 25.09639,46.41847 23.69827,65.21668 35.93357,92.28592 10.56491,27.63292 11.00566,56.34638 22.98001,83.99054 8.63215,19.64901 13.09663,40.17479 12.40458,57.03061 8.26096,43.10582 26.6376,104.80063 16.95398,156.93759 -5.13977,47.96302 -16.12533,78.13669 -33.74108,118.88311 -1.4257,10.83582 -5.45661,26.47938 -8.95766,34.76352 -3.50107,8.28407 -6.64854,20.35051 -6.99432,26.81434 -0.34592,6.46377 -4.71874,16.17166 -9.71753,21.57308 -26.08493,36.32359 -48.98308,81.90526 -82.05848,108.51822 -17.38348,10.96332 -16.15867,9.1729 -37.30927,17.98115 -48.84384,32.67277 -57.60612,41.72145 -110.38839,54.31321 -22.11956,14.21409 -17.54424,12.42134 -42.4813,17.03905 -25.5648,2.27758 -28.63143,-2.64005 -64.77914,3.76665 -46.85665,16.37457 -92.07244,-16.94477 -132.46187,-18.28032 z m 119.03536,-68.90523 c 2.56935,1.58801 8.92362,0.0995 14.1208,-3.30423 5.19722,-3.40522 20.64818,-7.19954 34.33553,-8.43188 37.34622,-2.4315 55.36001,-6.36727 77.38514,-27.19836 39.40162,-24.33773 70.89655,-52.62372 85.85807,-73.12428 6.72312,-9.1249 14.55689,-19.05711 17.40842,-22.07158 2.85153,-3.01446 5.18461,-7.41116 5.18461,-9.77044 0,-2.3592 4.75534,-9.94106 10.56746,-16.8483 26.08965,-36.39487 27.87812,-49.39941 44.69356,-88.24826 -1.01839,-2.85305 0.73,-10.3006 3.88513,-16.55007 3.15507,-6.24948 5.57819,-11.84885 5.38469,-12.44304 7.88081,-46.30551 16.43093,-77.82438 12.85559,-118.67732 -9.67116,-31.36641 -15.93055,-59.25982 -24.54208,-74.03687 -9.00433,-15.49749 -9.27348,-22.97635 -15.66383,-42.26165 -39.76993,-74.04445 -34.1207,-181.17 -116.82281,-206.07322 -44.59248,-19.70903 -109.62038,-14.10462 -154.92928,-16.21746 -15.38106,-2.58717 -22.37147,5.78271 -34.55062,6.49711 -9.11172,0.47008 -17.68787,4.07992 -22.28502,9.38049 -23.26974,16.90224 -55.25748,24.4397 -79.95738,40.13176 -36.48343,15.55134 -48.26085,46.13819 -74.73876,60.48655 -8.55459,4.54273 -15.5538,10.87619 -15.5538,14.07438 -34.58708,62.84205 -50.91355,123.66188 -59.61689,188.31292 -0.58787,45.65279 14.20113,114.06706 29.29212,158.64878 -0.0857,5.13276 1.77935,13.99843 4.14193,19.70149 1.11009,30.35992 11.78898,39.22164 16.33828,57.03061 1.51666,6.27337 6.21845,16.36041 10.44823,22.41561 4.22978,6.0552 7.69052,13.67656 7.69052,16.93634 0,3.25979 1.39969,7.32676 3.11076,9.03768 1.71105,1.71105 3.12146,4.35506 3.13456,5.87585 0.0305,3.45983 13.00643,21.99164 27.97303,39.94787 26.48298,38.04029 64.48837,62.61296 99.07323,75.5155 54.72044,17.1271 29.39472,6.50899 85.77881,11.26398 z"
     id="path3406"
     inkscape:connector-curvature="0"
     sodipodi:nodetypes="ccsccccccscccccccsscccccccccccccccscccccccccccccssccscccccccccccccccsscccccc" />
</svg>
