<?xml version="1.0" encoding="UTF-8" standalone="no"?>
<!-- Created with Inkscape (http://www.inkscape.org/) -->

<svg
   xmlns:dc="http://purl.org/dc/elements/1.1/"
   xmlns:cc="http://creativecommons.org/ns#"
   xmlns:rdf="http://www.w3.org/1999/02/22-rdf-syntax-ns#"
   xmlns:svg="http://www.w3.org/2000/svg"
   xmlns="http://www.w3.org/2000/svg"
   xmlns:sodipodi="http://sodipodi.sourceforge.net/DTD/sodipodi-0.dtd"
   xmlns:inkscape="http://www.inkscape.org/namespaces/inkscape"
   id="svg3390"
   version="1.1"
   inkscape:version="0.91 r13725"
   width="589.75525"
   height="930.00098"
   viewBox="0 0 589.75524 930.00099"
   sodipodi:docname="P.svg">
  <metadata
     id="metadata3396">
    <rdf:RDF>
      <cc:Work
         rdf:about="">
        <dc:format>image/svg+xml</dc:format>
        <dc:type
           rdf:resource="http://purl.org/dc/dcmitype/StillImage" />
        <dc:title />
      </cc:Work>
    </rdf:RDF>
  </metadata>
  <defs
     id="defs3394" />
  <sodipodi:namedview
     pagecolor="#ffffff"
     bordercolor="#666666"
     borderopacity="1"
     objecttolerance="10"
     gridtolerance="10"
     guidetolerance="10"
     inkscape:pageopacity="0"
     inkscape:pageshadow="2"
     inkscape:window-width="1766"
     inkscape:window-height="958"
     id="namedview3392"
     showgrid="false"
     fit-margin-top="0"
     fit-margin-left="0"
     fit-margin-right="0"
     fit-margin-bottom="0"
     inkscape:zoom="0.62891602"
     inkscape:cx="80.733147"
     inkscape:cy="550.53002"
     inkscape:window-x="0"
     inkscape:window-y="0"
     inkscape:window-maximized="0"
     inkscape:current-layer="svg3390" />
  <path
     style="fill:#000000"
     d="m 34.670385,927.25705 c -0.24609,-1.55387 -0.10295,-4.51999 0.31389,-6.59164 0.4181,-2.07166 -0.4967,-2.5101 -2.03249,-0.97431 -3.84038,3.8404 -12.90207,-4.26473 -12.90207,-11.54012 0,-4.62166 1.00444,-4.93769 4.51999,-1.42204 1.600536,-8.46188 1.020935,-5.32518 -1.19802,-6.77943 -2.07166,0 -2.71908,-1.69499 -1.43862,-3.76665 1.28042,-2.07166 0.53286,-3.76665 -1.66109,-3.76665 -2.19395,0 -3.98894,-2.64254 -3.98894,-5.87229 0,-3.47961 1.77184,-4.77722 4.34863,-3.18468 2.97942,1.84139 3.30727,1.02177 1.0411,-2.60268 -1.81904,-2.90967 -3.35219,-7.83279 -3.40696,-10.94028 -0.0552,-3.10748 -3.76997,-6.17284 -8.25605,-6.81189 -11.8352302,-1.68595 -13.3002102,-9.98833 -3.7280902,-21.12814 5.3315302,-6.20465 12.2240302,-9.7265 19.0354702,-9.7265 8.82147,0 10.33539,-1.30904 8.70865,-7.52954 -1.08304,-4.14129 -0.40554,-8.49589 1.50541,-9.67691 6.03553,-3.73019 -0.92861,-9.90447 -8.83843,-7.836 -6.87522,1.79795 -7.38751,0.59614 -5.55858,-13.0394 1.69449,-12.63348 1.16992,-14.31883 -3.3017,-10.6077 -4.06708,3.37538 -5.31628,3.36641 -5.31628,-0.0377 0,-2.44757 -1.27137,-3.66317 -2.8249902,-2.70129 -1.55387,0.962 -2.488,-13.39196 -2.07592,-31.89745 0.4535,-20.37792 -0.6559,-32.77808 -2.81359,-31.44455 -2.18416,1.34996 -2.14574,-1.525 0.10044,-7.43011 2.01541,-5.30108 2.16884,-9.63191 0.34126,-9.63191 -1.82633,0 -2.43929,-3.37092 -1.36177,-7.49092 1.07751,-4.12004 3.34408,-6.63488 5.03707,-5.58855 1.6929802,1.04637 4.1427902,0.18079 5.4440402,-1.92577 1.30126,-2.10556 -0.24106,-3.8281 -3.42941,-3.8281 -4.7256902,0 -5.3703402,-3.30207 -3.4929402,-17.8916 1.26635,-9.84039 2.48373,-23.40034 2.7055802,-30.13323 0.31163,-9.46184 2.12339,-12.34084 7.97896,-12.67856 6.34688,-0.36612 6.50651,-0.71642 0.9841,-2.15955 -3.62541,-0.94744 -6.80353,-3.29326 -7.06248,-5.21302 -0.25889,-1.91974 -0.78673,-5.60923 -1.17268,-8.1988 -0.38596,-2.58957 0.75559,-6.67617 2.53704,-9.08128 1.87454,-2.53071 1.63423,-5.36484 -0.57027,-6.72731 -4.4212002,-2.73246 -4.5863002,-35.9829 -0.17829,-35.9829 1.62569,0 2.47821,-2.96624 1.89463,-6.59164 -0.58358,-3.6254 0.4186,-9.455 2.22684,-12.95467 1.89915,-3.67563 1.85772,-7.24682 -0.0979,-8.45559 -1.86223,-1.15084 -2.97071,-9.30494 -2.46339,-18.12019 0.50724,-8.81522 -0.5527,-20.04761 -2.35542,-24.96083 -2.1228802,-5.78596 -1.75978,-10.76219 1.03106,-14.12495 3.14601,-3.79069 3.16786,-5.19181 0.0804,-5.19181 -5.9265502,0 -5.2894402,-17.02984 0.82716,-22.10604 2.78019,-2.30745 6.17018,-3.07989 7.5333,-1.71684 1.36303,1.36328 2.47846,0.31941 2.47846,-2.319 0,-2.71689 -2.45033,-3.85718 -5.64998,-2.62933 -3.10749,1.19253 -5.76439,0.94995 -5.9042,-0.53863 -2.9349602,-31.24808 -2.9000802,-38.49 0.18582,-38.49 2.28385,0 2.37776,-3.34401 0.25111,-8.93839 -2.24493,-5.90461 -1.95766,-10.37912 0.84649,-13.18329 3.03108,-3.03105 3.08544,-5.4044 0.19084,-8.29975 -2.75932,-2.75932 -2.92593,-9.07736 -0.52155,-19.77493 4.58402,-20.39425 6.10072,-40.21335 3.21396,-41.99746 -1.2543,-0.77518 -1.62268,-8.30663 -0.81887,-16.7366 0.90249,-9.46422 2.97455,-14.39218 5.41667,-12.88289 2.32955,1.43987 2.83486,0.6318 1.22944,-1.96569 -1.49913,-2.42547 -4.09157,-3.56584 -5.76112,-2.534 -1.66964,1.03181 -3.03555,-2.36144 -3.03555,-7.54056 0,-5.17915 1.58451,-10.39594 3.52122,-11.59286 1.93656,-1.19704 0.4535,-4.69438 -3.29582,-7.77211 -6.5395902,-5.36811 -6.5270602,-5.50318 0.30735,-3.31883 6.02989,1.92727 6.39305,1.39567 2.36371,-3.45917 -2.61836,-3.15489 -3.49805,-5.73618 -1.9549,-5.73618 1.54307,0 0.69558,-2.54249 -1.88332,-5.64998 -3.7660302,-4.53782 -3.7085502,-5.64998 0.29204,-5.64998 3.57905,0 3.83151,-1.14959 0.89696,-4.08429 -4.3532202,-4.35321 -2.19219,-19.58016 2.37802,-16.75562 1.49084,0.92133 2.71063,-0.79275 2.71063,-3.80904 0,-3.01634 -1.41249,-5.48427 -3.13888,-5.48427 -1.72638,0 -3.13887,-2.54249 -3.13887,-5.64998 0,-3.10749 2.38127,-5.64998 5.29157,-5.64998 4.0317,0 4.79198,-3.72447 3.19336,-15.64324 -1.25228,-9.33869 -0.67071,-14.76207 1.44288,-13.45579 1.94762,1.20357 3.77459,-2.35065 4.06026,-7.89835 0.28576,-5.54773 -0.34352,-7.968 -1.39819,-5.37843 -3.40663,8.36468 -6.93973,5.00882 -6.93973,-6.59164 0,-6.21498 1.37131,-11.29996 3.0473,-11.29996 1.67591,0 1.72513,-2.11862 0.10798,-4.70832 -5.13538,-8.22883 -5.29715,-18.688045 -0.38295,-24.758085 3.93832,-4.86463 3.83674,-5.32298 -0.58835,-2.65532 -4.06274,2.44908 -4.74181,1.64352 -2.82499,-3.35166 1.38789,-3.61677 2.52343,-8.0791 2.52343,-9.91632 0,-1.83712 2.31976,-2.45034 5.15497,-1.36228 3.0585,1.17369 5.97879,-1.17218 7.18067,-5.76817 1.62996,-6.23252 0.25438,-7.74636 -7.03829,-7.74636 -5.54577,0 -9.064,-2.19304 -9.064,-5.64998 0,-8.98913 14.15775,-20.7166 25.00968,-20.7166 5.46868,0 11.98491,-2.79243 14.48054,-6.2054 5.84254,-7.99012 26.37851,-4.01105 23.12025,4.4798 -1.40672,3.6657 0.35859,5.49226 5.30752,5.49226 4.0783,0 7.41508,-1.49519 7.41508,-3.32263 0,-1.82745 7.04025,-3.41979 15.644995,-3.53854 8.60477,-0.11878 16.70036,-1.92351 17.99021,-4.01054 1.28996,-2.08705 10.78735,-4.4604 21.10552,-5.27411 10.31817,-0.81373 22.13876,-3.35367 26.26796,-5.64434 8.60945,-4.7760504 34.05661,-10.0044204 45.17421,-9.2814704 20.10592,1.30743 34.77465,3.63713 38.88126,6.17516 2.49202,1.5402304 9.855,0.14464 16.36189,-3.1015 14.11348,-7.04073 21.69028,-7.36613 35.85297,-1.53975 5.83193,2.39918 16.28995,4.81317 23.24008,5.36441 6.9501,0.55124 16.69632,4.8162104 21.65825,9.4777104 4.96192,4.6615 9.07322,6.90875 9.13625,4.99388 0.0628,-1.91486 1.88383,-0.44105 4.04621,3.27517 2.69384,4.62951 6.36386,5.98479 11.65712,4.30478 4.45695,-1.41457 6.79918,-0.95323 5.5361,1.09045 -1.20408,1.94834 0.27873,3.54242 3.29496,3.54242 3.01634,0 5.5358,-2.68374 5.59883,-5.96387 0.0954,-4.95992 0.77644,-4.82645 4.04622,0.79288 2.69353,4.62895 6.36406,5.98473 11.65568,4.30524 4.57257,-1.45127 8.92217,-0.51274 10.66076,2.30032 2.16231,3.49884 5.38021,2.11533 12.20331,-5.2469 5.09658,-5.49931 11.49429,-9.99873 14.21713,-9.99873 4.61603,0 23.50949,18.51202 36.52049,35.78321 4.53402,6.01861 5.22701,6.20795 3.44657,0.94166 -1.79117,-5.29793 -0.0352,-6.59164 8.95313,-6.59164 6.14997,0 11.18176,-1.695 11.18176,-3.76666 0,-6.37039 9.27381,-4.1777 16.11284,3.80971 7.73322,9.03173 7.98388,10.47546 1.77887,10.24502 -2.58958,-0.0954 -8.0517,0.0929 -12.13807,0.4186 -7.06215,0.56399 -7.01554,0.8834 0.94167,6.45694 4.60428,3.22496 8.37141,7.49612 8.37141,9.49147 0,1.99532 4.38639,10.57644 9.74755,19.06904 8.85495,14.027135 12.72446,25.171485 14.20437,40.908985 0.2923,3.10749 2.57968,6.96605 5.08323,8.57459 2.50357,1.60861 3.65923,5.25081 2.56818,8.09398 -1.09108,2.84315 -0.17327,6.28833 2.03977,7.65598 2.21278,1.36755 4.02341,5.02911 4.02341,8.1366 0,3.31159 -1.79971,4.53766 -4.34863,2.96237 -2.7159,-1.67842 -3.32527,-1.03181 -1.62292,1.72237 1.49913,2.42547 4.13834,3.53696 5.86505,2.46967 1.72664,-1.06722 4.99956,3.39561 7.27304,9.91727 5.62873,16.14666 5.19311,20.0685 -1.60259,14.42852 -4.85188,-4.02671 -5.33177,-3.70664 -3.11274,2.07618 2.0463,5.33272 1.23672,6.30452 -3.68042,4.41763 -4.13059,-1.58501 -6.30392,-0.51202 -6.30392,3.11274 0,6.50085 5.185,7.0536 15.31423,1.63246 5.61161,-3.00324 7.28569,-2.67145 7.28569,1.44414 0,2.93877 -3.56054,6.27429 -7.91231,7.41232 -4.35681,1.13929 -6.79579,3.87561 -5.42767,6.08927 1.36654,2.21103 0.54842,4.0202 -1.81829,4.0202 -2.36646,0 -3.52596,2.11862 -2.57642,4.70832 0.94945,2.58957 3.63324,4.28457 5.96385,3.76665 3.89057,-0.86457 4.6998,1.56392 5.96359,17.8961 4.48664,17.2663 6.38816,41.71251 0.0941,58.05486 -2.00738,4.66801 -1.73869,6.36798 0.76237,4.82232 6.38302,-3.94492 0.98008,17.54266 -5.84392,23.24191 -4.68519,3.91293 -4.9932,5.57457 -1.2897,6.95797 6.1583,2.30017 -1.24626,12.38475 -9.09338,12.38475 -2.85384,0 -5.18879,1.8763 -5.18879,4.16964 0,2.29339 2.48825,3.21484 5.52935,2.0478 7.86771,-3.01912 10.93228,3.92744 3.55421,8.05645 -5.587,3.12667 -5.59883,3.64519 -0.13058,5.74337 5.12381,1.96619 4.62902,3.79693 -3.3544,12.41119 -5.1506,5.55758 -9.36476,12.49975 -9.36476,15.42701 0,2.92724 -1.69499,4.2747 -3.76665,2.99434 -2.07166,-1.28041 -3.76665,-0.53285 -3.76665,1.6611 0,2.19395 3.49003,3.98896 7.75561,3.98896 4.26559,0 6.78043,-1.57798 5.58853,-3.50638 -1.19202,-1.92853 -0.30208,-4.65913 1.97775,-6.06805 2.67425,-1.65281 3.69835,0.59362 2.88646,6.33136 -0.85453,6.03893 -3.37394,8.53785 -7.85008,7.78625 -3.62541,-0.60869 -6.59165,0.76263 -6.59165,3.0473 0,2.2846 -1.50239,3.22561 -3.33843,2.09075 -1.83612,-1.13477 -4.18633,0.8839 -5.22264,4.48603 -1.03633,3.6021 -3.13838,9.60163 -4.67131,13.33227 -2.41467,5.87673 -1.39014,6.43239 7.66778,4.15894 7.48771,-1.87931 9.68706,-1.38161 7.74944,1.7535 -1.48783,2.40765 -4.2976,3.39338 -6.24363,2.19069 -1.94611,-1.20282 -5.11148,1.73592 -7.03428,6.53022 -1.92275,4.79432 -3.60348,6.27861 -3.73478,3.29838 -0.17076,-3.90207 -2.34713,-3.15547 -7.77207,2.66752 -8.67006,9.3062 -9.52335,14.50358 -2.82499,17.2064 2.58958,1.04487 -1.4361,2.03374 -8.94618,2.19722 -11.52332,0.25111 -14.59636,2.20801 -19.68917,12.53899 -3.31905,6.73289 -6.07328,9.85926 -6.12044,6.94744 -4.02889,-3.548 -19.76621,16.77351 -17.25589,11.88582 -9.27558,4.21281 -19.0578,19.39692 -23.72048,31.99416 3.23455,3.23452 2.23639,3.76713 -4.00275,2.13569 -5.8522,-1.53052 -9.97728,0.2034 -13.93943,5.86071 -3.09511,4.41889 -8.92132,8.03435 -12.94717,8.03435 -4.02587,0 -7.31973,1.49737 -7.31973,3.32736 0,5.34609 -16.10041,8.03706 -21.46224,3.58708 -24.8172,-2.03749 0.009,23.11964 -28.68134,14.33503 -3.29454,-1.34143 -3.23249,-1.89964 0.23605,-2.11886 2.58957,-0.16323 4.70832,-1.83361 4.70832,-3.71141 0,-6.17892 -15.06039,0.38143 -15.33136,6.67832 -0.20592,4.76018 -0.99716,4.44769 -3.50191,-1.38085 -3.49714,-8.13833 -5.14246,-3.63907 -4.47652,12.24162 0.40153,9.57551 -4.89386,11.40307 -8.18557,2.82499 -1.19252,-3.10749 -4.5519,-5.64998 -7.46545,-5.64998 -2.91971,0 -6.354,-5.28313 -7.65153,-11.77079 0,0 0,0 -6.5196,-3.2959 0.69381,8.36353 -14.9146,14.19592 -28.02438,10.4719 -24.95675,-7.08932 -43.33593,-9.44074 -45.56755,-5.8299 -1.46372,2.36847 -3.15824,2.28109 -4.71838,-0.24358 -1.33892,-2.16632 -7.03157,-4.77255 -12.65034,-5.79143 -5.61876,-1.01875 -12.31062,-3.14711 -14.87082,-4.72936 -2.56019,-1.58224 -13.97245,-3.46439 -25.36058,-4.18241 -11.38813,-0.71793 -22.00788,-3.35448 -23.59947,-5.85878 -1.59153,-2.50432 -2.91973,-3.07449 -2.95145,-1.2671 -0.0326,1.80749 -2.91752,0.95999 -6.41287,-1.88333 -5.45643,-4.4384 -6.06168,-4.37045 -4.27963,0.48037 1.15486,3.14378 -1.51972,8.73487 -6.02935,12.60456 -6.01314,5.15958 -7.73209,10.14852 -6.6602,19.33001 0.79451,6.80652 -0.33825,13.47749 -2.51753,14.82434 -5.59589,3.45847 -0.94744,13.43302 6.46998,13.88301 3.54402,0.21596 2.31624,1.45895 -2.87295,2.911 -8.43354,2.35993 -8.62933,2.96777 -2.82499,8.77211 7.07468,7.07468 7.96413,12.79575 2.51308,16.16467 -2.18365,1.34946 -2.81557,-0.50549 -1.528,-4.48601 1.71985,-5.31686 1.37809,-5.63725 -1.57798,-1.47879 -4.51622,6.35326 -1.90316,15.43484 6.41418,22.29201 5.47396,4.51293 5.36892,4.88018 -1.07726,3.76665 -3.92839,-0.6785 -7.88338,0.88491 -8.78886,3.47446 -0.91128,2.60615 1.43686,4.82652 5.25923,4.97309 6.26631,0.24107 6.2082,0.56425 -0.62777,3.50188 -7.0099,3.01227 -7.04327,3.25557 -0.48038,3.50191 5.62078,0.21093 6.16144,1.33892 2.6628,5.55446 -2.5003,3.0128 -3.33384,9.49802 -1.93631,15.06661 1.53604,6.12021 0.89244,9.77693 -1.72111,9.77693 -2.29615,0 -4.17501,1.695 -4.17501,3.76666 0,2.07165 2.60213,3.76665 5.78252,3.76665 4.55499,0 4.95262,1.5506 1.87303,7.3047 -2.59975,4.85767 -2.64414,8.08667 -0.13309,9.63894 2.07718,1.28392 3.64303,4.35294 3.47946,6.82025 -0.21345,3.2346 -0.82741,3.1726 -2.19722,-0.22349 -2.64637,-6.55847 -8.80538,-5.89983 -8.80538,0.94167 0,3.10749 1.695,5.64998 3.76666,5.64998 2.07166,0 3.76665,1.69499 3.76665,3.76665 0,2.07166 -1.90693,3.34291 -4.23771,2.82499 -2.33081,-0.51804 -4.50545,3.71957 -4.83269,9.41664 -0.3272,5.69706 0.39198,10.35829 1.59806,10.35829 1.20608,0 1.49762,5.95584 0.64787,13.23514 -0.84976,7.27936 0.48389,15.68011 2.96393,18.66829 2.47996,2.98822 3.56882,6.9545 2.41969,8.81397 -1.14933,1.85947 1.98277,5.2363 6.95993,7.50406 6.77377,3.08632 9.51085,2.98803 10.88447,-0.39098 1.34218,-3.30155 1.91497,-3.21763 2.13243,0.31263 0.16322,2.65464 -2.23539,5.79846 -5.33097,6.98636 -3.09559,1.18801 -4.76597,3.55515 -3.71196,5.26059 1.05391,1.70529 -1.58752,4.21285 -5.86993,5.57203 -5.74083,1.82206 -6.75331,3.71601 -3.85404,7.20943 2.16281,2.60594 2.83757,5.83284 1.49963,7.17083 -1.33792,1.33791 5.45667,5.92261 15.09931,10.18802 13.63202,6.03006 17.53201,9.70817 17.53201,16.5344 0,13.10457 -6.30786,16.02131 -40.96585,18.94268 -35.695415,3.0088 -42.896755,4.93293 -39.433745,10.53621 1.54709,2.50331 -0.84398,3.1218 -6.61329,1.71006 -5.24182,-1.28267 -12.10723,0.0678 -16.34833,3.21732 -7.87524,5.84703 -16.89515,7.17997 -17.61774,2.60351 z M 257.34899,487.50022 c 5.17915,-2.96066 7.76823,-5.44312 5.75354,-5.51649 -2.01465,-0.0728 0.52784,-3.07068 5.64998,-6.66065 5.12218,-3.58992 12.27932,-6.02584 15.9047,-5.41321 3.6254,0.61271 6.59164,-0.6343 6.59164,-2.77128 0,-2.13694 2.37098,-2.97535 5.269,-1.86323 2.89794,1.11191 6.38797,0.21093 7.75559,-2.0016 1.36754,-2.21279 7.47158,-4.02342 13.5643,-4.02342 10.70739,0 26.14426,-11.12011 26.14426,-18.83326 0,-2.07166 1.79494,-3.76666 3.98896,-3.76666 2.19395,0 3.06049,1.50239 1.92577,3.33841 -1.13477,1.83612 1.40471,4.24532 5.64342,5.35377 5.6313,1.47251 8.84358,-0.47987 11.92852,-7.2506 2.52795,-5.54826 6.32906,-8.45735 9.47376,-7.25059 2.88857,1.1084 8.42929,0.3149 12.31271,-1.76354 3.88345,-2.07844 11.38813,-4.13697 16.67709,-4.57468 5.28898,-0.43769 9.61629,-1.76053 9.61629,-2.93942 0,-1.99708 8.25334,-3.72723 23.26503,-4.87719 3.47331,-0.26593 5.49201,-1.81553 4.48601,-3.44332 -1.00594,-1.6277 0.61849,-2.95949 3.61001,-2.95949 2.99151,0 8.46438,-4.61716 12.16195,-10.26041 3.69757,-5.6432 8.55377,-12.48202 10.79151,-15.19732 9.37807,-11.37946 11.83491,-14.79303 16.31024,-22.66165 2.58958,-4.55303 4.70832,-11.69121 4.70832,-15.86263 0,-4.17142 2.01893,-7.58441 4.48659,-7.58441 6.34922,-2.16092 -23.81095,-18.11699 -17.49794,-7.25525 1.48757,2.40689 -0.4633,2.1942 -4.81798,-0.52533 -7.55473,-4.71803 -8.94844,-16.42725 -3.07728,-25.85371 9.64671,-13.94935 -8.60474,-60.31776 0.59312,-60.53213 9.87775,-3.8985 2.59334,-12.22122 2.0409,-11.86071 -10.8899,10.88987 -14.55689,8.64191 -4.14081,-2.53843 6.50487,-8.24925 12.82471,-8.20085 -0.0398,-8.20085 -4.22403,0 -7.69048,-2.11862 -7.70326,-4.70832 -0.0113,-2.58958 -2.43979,-9.34084 -5.3935,-15.00282 -3.19417,-6.12298 -3.92302,-11.18897 -1.7987,-12.5019 1.96443,-1.21412 2.37098,-4.20901 0.90374,-6.65543 -1.46723,-2.44632 0.44447,-1.91898 4.24856,1.17243 6.44146,5.23455 6.71806,4.97593 4.02869,-3.76665 -3.76894,-12.25199 -9.51306,-19.23961 -13.69241,-16.65664 -1.83687,1.13527 -3.33987,-1.14331 -3.33987,-5.06367 0,-10.28176 -3.65466,-12.47229 -12.73686,-7.63418 -7.24443,3.85912 -7.49338,3.66132 -2.70162,-2.14674 4.6098,-5.58743 4.27201,-7.33483 -2.66747,-13.79996 -4.37012,-4.07135 -8.86399,-7.40245 -9.98646,-7.40245 1.62854,24.20686 -14.65637,17.05766 -5.67494,-0.24762 3.06799,-5.73252 2.66649,-7.28569 -1.88332,-7.28569 -3.18036,0 -5.78249,-2.34487 -5.78249,-5.21066 0,-2.86588 -3.57187,-6.14475 -7.93755,-7.2864 -10.39034,-2.71713 -26.14682,3.39461 -24.62437,9.55151 0.65666,2.65589 0.48314,3.55763 -0.38595,2.00386 -2.41694,-4.32163 -21.51166,-3.35868 -26.19118,1.32084 -3.01666,3.01664 -4.82983,1.9908 -6.65713,-3.76665 -1.38111,-4.35187 -4.93959,-7.91249 -7.90749,-7.91249 -9.0597,0 -10.88244,-0.50473 -15.4191,-4.26985 -2.81504,-2.33633 -5.19655,-2.29666 -6.68463,0.11049 -1.27137,2.05709 -14.99173,3.74028 -30.48965,3.74028 -15.49792,0 -30.03005,1.14456 -32.29363,2.54358 -2.26351,1.39893 -13.50127,3.17124 -24.97264,3.93838 -11.47139,0.76715 -23.16981,3.31423 -25.99654,5.6602 -3.9128,3.24761 -5.21038,3.03183 -5.43679,-0.90399 -0.18582,-3.24646 -0.95447,-3.56677 -2.06387,-0.86106 -0.97155,2.36973 -5.07529,3.4432 -9.11927,2.38555 -4.05066,-1.05919 -7.35271,-0.0326 -7.35271,2.28309 0,2.31323 -1.81603,4.20597 -4.0357,4.20597 -4.16569,0 -14.79757,9.1938 -14.79757,12.79603 0,1.11869 2.71033,0.99414 6.02295,-0.27698 5.27332,-2.02344 5.39496,-1.30552 0.97732,5.76821 -2.77511,4.44367 -6.43299,8.07942 -8.12856,8.07942 -1.6955,0 -2.03525,-1.695 -0.75509,-3.76666 1.28041,-2.07165 -0.2614,-3.76665 -3.42615,-3.76665 -3.56722,0 -4.93007,2.14724 -3.58595,5.64998 1.40747,3.66789 -0.0954,5.64998 -4.28786,5.64998 -4.19113,0 -5.69538,1.98202 -4.28788,5.64998 -3.52234,19.67956 -4.20733,12.3431 -10.77873,18.31212 -4.15151,-1.59305 -5.64998,0.49519 -5.64998,7.87381 0,6.79441 -1.52274,9.27064 -4.70832,7.65698 -2.58957,-1.3118 -2.16583,-0.14062 0.94166,2.60271 3.91888,3.45947 5.29426,10.56712 4.48893,23.19803 -0.9605,15.0632 -2.22585,17.8018 -7.32213,15.84618 -5.14803,-1.97548 -5.01598,-1.09886 0.8033,5.33117 4.27277,4.72135 5.19701,7.69543 2.39158,7.69543 -2.515,0 -3.54681,1.66009 -2.29289,3.68881 1.25379,2.02897 0.33724,7.31835 -2.03676,11.75449 -2.41894,4.51969 -2.65674,7.03985 -0.54114,5.7323 2.07668,-1.28343 5.47775,2.54959 7.55824,8.51771 3.24103,9.29723 2.88905,10.61864 -2.45811,9.22785 -5.229,-1.36002 -6.2408,1.61263 -6.2408,18.33599 0,13.95852 1.41551,19.67612 4.70832,19.01758 2.58957,-0.51779 4.70832,1.88333 4.70832,5.3361 0,17.19889 7.49983,-10.61346 8.55311,-31.71834 0.16323,-3.28327 2.34186,-2.81806 7.14128,1.52549 3.79804,3.4372 7.03523,5.56297 7.19373,4.72399 0.1582,-0.83896 0.87888,-4.647 1.60058,-8.46224 2.05307,-10.85065 5.6506,-12.24542 5.58675,-2.16583 -0.0753,11.75545 -5.48076,20.19688 -10.82117,16.89631 -5.82378,-3.59929 -5.27131,3.56805 0.65414,8.48569 4.13335,3.43039 4.77217,9.48675 2.99745,28.41823 -0.16824,1.79544 -3.69832,2.37726 -7.84451,1.29296 -4.14618,-1.08429 -6.58863,-0.43442 -5.42769,1.44414 1.16088,1.87855 4.19007,3.41537 6.73136,3.41537 2.54131,0 4.62055,3.29608 4.62055,7.32464 0,5.28213 -1.26434,6.27542 -4.53362,3.56207 -4.81278,-3.99423 -4.69807,-1.51043 1.3236,28.66316 3.59992,18.0383 1.93782,36.77188 -2.99207,33.72498 -1.94536,-1.20231 -4.6082,0.60593 -5.91757,4.01802 -1.30929,3.41213 -5.95862,7.80081 -10.3317,9.75262 -6.1731,2.75518 -4.75043,3.15196 6.3623,1.77434 12.62452,-1.56492 14.0508,-0.94719 12.0884,5.23572 -2.93061,9.23353 0.22098,10.75938 26.25809,12.71392 14.98207,1.12472 22.99309,3.57006 25.32066,7.7292 2.7193,4.85908 4.97251,5.24498 11.19156,1.91672 5.76411,-3.08484 7.10222,-3.05975 5.1515,0.0954 -1.8311,2.96285 1.48833,3.80952 10.87872,2.77472 11.83347,-1.30402 12.92432,-0.76087 8.77234,4.36821 -2.60791,3.22159 -2.8726,4.73888 -0.5881,3.37173 2.28435,-1.36704 7.36935,-0.0502 11.29996,2.92383 8.91238,6.7463 12.29405,6.74618 24.09651,-7.3e-4 z M 131.4268,292.81462 c 2e-5,-8e-5 2.5e-4,-4e-5 2.2e-4,-1.2e-4 z"
     id="path3400"
     inkscape:connector-curvature="0"
     sodipodi:nodetypes="ccsscccsssccsssssssssccccssccsscsscscsssscssssccscsscscssscscscsscscsccsssscccssscscssccsssscssscssscsssscsscscsscsssssssccsssccccsccsssscsssccscscccscsscscsscssccscscscsccscsccscccccsscccsccscsccscccssccccccscsscssscsccsccsssccccssscsssccscccssccssssscccccscsccsssscscssscssssssccsccccccsscsssssssccsssccscsscscsccccsssssscsssccsccsscscccssscscscccsscscsscsscsssssscssscccccc" />
</svg>
