<?xml version="1.0" encoding="UTF-8" standalone="no"?>
<!-- Created with Inkscape (http://www.inkscape.org/) -->

<svg
   xmlns:dc="http://purl.org/dc/elements/1.1/"
   xmlns:cc="http://creativecommons.org/ns#"
   xmlns:rdf="http://www.w3.org/1999/02/22-rdf-syntax-ns#"
   xmlns:svg="http://www.w3.org/2000/svg"
   xmlns="http://www.w3.org/2000/svg"
   xmlns:sodipodi="http://sodipodi.sourceforge.net/DTD/sodipodi-0.dtd"
   xmlns:inkscape="http://www.inkscape.org/namespaces/inkscape"
   id="svg3390"
   version="1.1"
   inkscape:version="0.91 r13725"
   width="589.75525"
   height="930.00098"
   viewBox="0 0 589.75524 930.00099"
   sodipodi:docname="P.svg">
  <metadata
     id="metadata3396">
    <rdf:RDF>
      <cc:Work
         rdf:about="">
        <dc:format>image/svg+xml</dc:format>
        <dc:type
           rdf:resource="http://purl.org/dc/dcmitype/StillImage" />
        <dc:title></dc:title>
      </cc:Work>
    </rdf:RDF>
  </metadata>
  <defs
     id="defs3394" />
  <sodipodi:namedview
     pagecolor="#ffffff"
     bordercolor="#666666"
     borderopacity="1"
     objecttolerance="10"
     gridtolerance="10"
     guidetolerance="10"
     inkscape:pageopacity="0"
     inkscape:pageshadow="2"
     inkscape:window-width="1766"
     inkscape:window-height="958"
     id="namedview3392"
     showgrid="false"
     fit-margin-top="0"
     fit-margin-left="0"
     fit-margin-right="0"
     fit-margin-bottom="0"
     inkscape:zoom="0.44471078"
     inkscape:cx="-206.00378"
     inkscape:cy="419.39702"
     inkscape:window-x="0"
     inkscape:window-y="0"
     inkscape:window-maximized="0"
     inkscape:current-layer="svg3390" />
  <path
     style="fill:#000000"
     d="m 34.670385,927.25705 c -0.24609,-1.55387 -0.10295,-4.51999 0.31389,-6.59164 0.4181,-2.07166 -0.4967,-2.5101 -2.03249,-0.97431 -3.84038,3.8404 -12.90207,-4.26473 -12.90207,-11.54012 0,-4.62166 1.00444,-4.93769 4.51999,-1.42204 2.48599,2.48599 6.29973,4.49402 8.47497,4.4623 2.17537,-0.0301 1.61238,-1.54131 -1.25103,-3.35488 -4.09222,-2.59179 -3.49506,-3.8402 2.79129,-5.8354 4.39849,-1.39617 9.96933,-1.31959 12.37961,0.17075 2.6582,1.64277 3.36965,1.06973 1.80824,-1.45644 -1.59304,-2.57749 3.20992,-5.8978 12.60132,-8.71151 24.83098,-7.43957 17.28115,-16.29982 -8.34623,-9.79488 -8.12309,2.06186 -14.14496,5.89521 -14.14496,9.00441 0,2.97771 -1.57798,4.43892 -3.50641,3.24703 -1.92852,-1.19202 -4.57103,-0.44447 -5.87226,1.66109 -1.30125,2.10556 -4.06091,3.8281 -6.13256,3.8281 -2.07166,0 -2.71908,-1.69499 -1.43862,-3.76665 1.28042,-2.07166 0.53286,-3.76665 -1.66109,-3.76665 -2.19395,0 -3.98894,-2.64254 -3.98894,-5.87229 0,-3.47961 1.77184,-4.77722 4.34863,-3.18468 2.97942,1.84139 3.30727,1.02177 1.0411,-2.60268 -1.81904,-2.90967 -3.35219,-7.83279 -3.40696,-10.94028 -0.0552,-3.10748 -3.76997,-6.17284 -8.25605,-6.81189 -11.8352302,-1.68595 -13.3002102,-9.98833 -3.7280902,-21.12814 5.3315302,-6.20465 12.2240302,-9.7265 19.0354702,-9.7265 8.82147,0 10.33539,-1.30904 8.70865,-7.52954 -1.08304,-4.14129 -0.40554,-8.49589 1.50541,-9.67691 6.03553,-3.73019 -0.92861,-9.90447 -8.83843,-7.836 -6.87522,1.79795 -7.38751,0.59614 -5.55858,-13.0394 1.69449,-12.63348 1.16992,-14.31883 -3.3017,-10.6077 -4.06708,3.37538 -5.31628,3.36641 -5.31628,-0.0377 0,-2.44757 -1.27137,-3.66317 -2.8249902,-2.70129 -1.55387,0.962 -2.488,-13.39196 -2.07592,-31.89745 0.4535,-20.37792 -0.6559,-32.77808 -2.81359,-31.44455 -2.18416,1.34996 -2.14574,-1.525 0.10044,-7.43011 2.01541,-5.30108 2.16884,-9.63191 0.34126,-9.63191 -1.82633,0 -2.43929,-3.37092 -1.36177,-7.49092 1.07751,-4.12004 3.34408,-6.63488 5.03707,-5.58855 1.6929802,1.04637 4.1427902,0.18079 5.4440402,-1.92577 1.30126,-2.10556 -0.24106,-3.8281 -3.42941,-3.8281 -4.7256902,0 -5.3703402,-3.30207 -3.4929402,-17.8916 1.26635,-9.84039 2.48373,-23.40034 2.7055802,-30.13323 0.31163,-9.46184 2.12339,-12.34084 7.97896,-12.67856 6.34688,-0.36612 6.50651,-0.71642 0.9841,-2.15955 -3.62541,-0.94744 -6.80353,-3.29326 -7.06248,-5.21302 -0.25889,-1.91974 -0.78673,-5.60923 -1.17268,-8.1988 -0.38596,-2.58957 0.75559,-6.67617 2.53704,-9.08128 1.87454,-2.53071 1.63423,-5.36484 -0.57027,-6.72731 -4.4212002,-2.73246 -4.5863002,-35.9829 -0.17829,-35.9829 1.62569,0 2.47821,-2.96624 1.89463,-6.59164 -0.58358,-3.6254 0.4186,-9.455 2.22684,-12.95467 1.89915,-3.67563 1.85772,-7.24682 -0.0979,-8.45559 -1.86223,-1.15084 -2.97071,-9.30494 -2.46339,-18.12019 0.50724,-8.81522 -0.5527,-20.04761 -2.35542,-24.96083 -2.1228802,-5.78596 -1.75978,-10.76219 1.03106,-14.12495 3.14601,-3.79069 3.16786,-5.19181 0.0804,-5.19181 -5.9265502,0 -5.2894402,-17.02984 0.82716,-22.10604 2.78019,-2.30745 6.17018,-3.07989 7.5333,-1.71684 1.36303,1.36328 2.47846,0.31941 2.47846,-2.319 0,-2.71689 -2.45033,-3.85718 -5.64998,-2.62933 -3.10749,1.19253 -5.76439,0.94995 -5.9042,-0.53863 -2.9349602,-31.24808 -2.9000802,-38.49 0.18582,-38.49 2.28385,0 2.37776,-3.34401 0.25111,-8.93839 -2.24493,-5.90461 -1.95766,-10.37912 0.84649,-13.18329 3.03108,-3.03105 3.08544,-5.4044 0.19084,-8.29975 -2.75932,-2.75932 -2.92593,-9.07736 -0.52155,-19.77493 4.58402,-20.39425 6.10072,-40.21335 3.21396,-41.99746 -1.2543,-0.77518 -1.62268,-8.30663 -0.81887,-16.7366 0.90249,-9.46422 2.97455,-14.39218 5.41667,-12.88289 2.32955,1.43987 2.83486,0.6318 1.22944,-1.96569 -1.49913,-2.42547 -4.09157,-3.56584 -5.76112,-2.534 -1.66964,1.03181 -3.03555,-2.36144 -3.03555,-7.54056 0,-5.17915 1.58451,-10.39594 3.52122,-11.59286 1.93656,-1.19704 0.4535,-4.69438 -3.29582,-7.77211 -6.5395902,-5.36811 -6.5270602,-5.50318 0.30735,-3.31883 6.02989,1.92727 6.39305,1.39567 2.36371,-3.45917 -2.61836,-3.15489 -3.49805,-5.73618 -1.9549,-5.73618 1.54307,0 0.69558,-2.54249 -1.88332,-5.64998 -3.7660302,-4.53782 -3.7085502,-5.64998 0.29204,-5.64998 3.57905,0 3.83151,-1.14959 0.89696,-4.08429 -4.3532202,-4.35321 -2.19219,-19.58016 2.37802,-16.75562 1.49084,0.92133 2.71063,-0.79275 2.71063,-3.80904 0,-3.01634 -1.41249,-5.48427 -3.13888,-5.48427 -1.72638,0 -3.13887,-2.54249 -3.13887,-5.64998 0,-3.10749 2.38127,-5.64998 5.29157,-5.64998 4.0317,0 4.79198,-3.72447 3.19336,-15.64324 -1.25228,-9.33869 -0.67071,-14.76207 1.44288,-13.45579 1.94762,1.20357 3.77459,-2.35065 4.06026,-7.89835 0.28576,-5.54773 -0.34352,-7.968 -1.39819,-5.37843 -3.40663,8.36468 -6.93973,5.00882 -6.93973,-6.59164 0,-6.21498 1.37131,-11.29996 3.0473,-11.29996 1.67591,0 1.72513,-2.11862 0.10798,-4.70832 -5.13538,-8.22883 -5.29715,-18.688045 -0.38295,-24.758085 3.93832,-4.86463 3.83674,-5.32298 -0.58835,-2.65532 -4.06274,2.44908 -4.74181,1.64352 -2.82499,-3.35166 1.38789,-3.61677 2.52343,-8.0791 2.52343,-9.91632 0,-1.83712 2.31976,-2.45034 5.15497,-1.36228 3.0585,1.17369 5.97879,-1.17218 7.18067,-5.76817 1.62996,-6.23252 0.25438,-7.74636 -7.03829,-7.74636 -5.54577,0 -9.064,-2.19304 -9.064,-5.64998 0,-8.98913 14.15775,-20.7166 25.00968,-20.7166 5.46868,0 11.98491,-2.79243 14.48054,-6.2054 5.84254,-7.99012 26.37851,-4.01105 23.12025,4.4798 -1.40672,3.6657 0.35859,5.49226 5.30752,5.49226 4.0783,0 7.41508,-1.49519 7.41508,-3.32263 0,-1.82745 7.04025,-3.41979 15.644995,-3.53854 8.60477,-0.11878 16.70036,-1.92351 17.99021,-4.01054 1.28996,-2.08705 10.78735,-4.4604 21.10552,-5.27411 10.31817,-0.81373 22.13876,-3.35367 26.26796,-5.64434 8.60945,-4.7760504 34.05661,-10.0044204 45.17421,-9.2814704 20.10592,1.30743 34.77465,3.63713 38.88126,6.17516 2.49202,1.5402304 9.855,0.14464 16.36189,-3.1015 14.11348,-7.04073 21.69028,-7.36613 35.85297,-1.53975 5.83193,2.39918 16.28995,4.81317 23.24008,5.36441 6.9501,0.55124 16.69632,4.8162104 21.65825,9.4777104 4.96192,4.6615 9.07322,6.90875 9.13625,4.99388 0.0628,-1.91486 1.88383,-0.44105 4.04621,3.27517 2.69384,4.62951 6.36386,5.98479 11.65712,4.30478 4.45695,-1.41457 6.79918,-0.95323 5.5361,1.09045 -1.20408,1.94834 0.27873,3.54242 3.29496,3.54242 3.01634,0 5.5358,-2.68374 5.59883,-5.96387 0.0954,-4.95992 0.77644,-4.82645 4.04622,0.79288 2.69353,4.62895 6.36406,5.98473 11.65568,4.30524 4.57257,-1.45127 8.92217,-0.51274 10.66076,2.30032 2.16231,3.49884 5.38021,2.11533 12.20331,-5.2469 5.09658,-5.49931 11.49429,-9.99873 14.21713,-9.99873 4.61603,0 23.50949,18.51202 36.52049,35.78321 4.53402,6.01861 5.22701,6.20795 3.44657,0.94166 -1.79117,-5.29793 -0.0352,-6.59164 8.95313,-6.59164 6.14997,0 11.18176,-1.695 11.18176,-3.76666 0,-6.37039 9.27381,-4.1777 16.11284,3.80971 7.73322,9.03173 7.98388,10.47546 1.77887,10.24502 -2.58958,-0.0954 -8.0517,0.0929 -12.13807,0.4186 -7.06215,0.56399 -7.01554,0.8834 0.94167,6.45694 4.60428,3.22496 8.37141,7.49612 8.37141,9.49147 0,1.99532 4.38639,10.57644 9.74755,19.06904 8.85495,14.027135 12.72446,25.171485 14.20437,40.908985 0.2923,3.10749 2.57968,6.96605 5.08323,8.57459 2.50357,1.60861 3.65923,5.25081 2.56818,8.09398 -1.09108,2.84315 -0.17327,6.28833 2.03977,7.65598 2.21278,1.36755 4.02341,5.02911 4.02341,8.1366 0,3.31159 -1.79971,4.53766 -4.34863,2.96237 -2.7159,-1.67842 -3.32527,-1.03181 -1.62292,1.72237 1.49913,2.42547 4.13834,3.53696 5.86505,2.46967 1.72664,-1.06722 4.99956,3.39561 7.27304,9.91727 5.62873,16.14666 5.19311,20.0685 -1.60259,14.42852 -4.85188,-4.02671 -5.33177,-3.70664 -3.11274,2.07618 2.0463,5.33272 1.23672,6.30452 -3.68042,4.41763 -4.13059,-1.58501 -6.30392,-0.51202 -6.30392,3.11274 0,6.50085 5.185,7.0536 15.31423,1.63246 5.61161,-3.00324 7.28569,-2.67145 7.28569,1.44414 0,2.93877 -3.56054,6.27429 -7.91231,7.41232 -4.35681,1.13929 -6.79579,3.87561 -5.42767,6.08927 1.36654,2.21103 0.54842,4.0202 -1.81829,4.0202 -2.36646,0 -3.52596,2.11862 -2.57642,4.70832 0.94945,2.58957 3.63324,4.28457 5.96385,3.76665 3.89057,-0.86457 4.6998,1.56392 5.96359,17.8961 0.24107,3.10998 1.5388,7.43638 2.8848,9.61421 3.17492,5.13714 1.21714,39.12104 -2.79073,48.44065 -2.00738,4.66801 -1.73869,6.36798 0.76237,4.82232 6.38302,-3.94492 0.98008,17.54266 -5.84392,23.24191 -4.68519,3.91293 -4.9932,5.57457 -1.2897,6.95797 6.1583,2.30017 -1.24626,12.38475 -9.09338,12.38475 -2.85384,0 -5.18879,1.8763 -5.18879,4.16964 0,2.29339 2.48825,3.21484 5.52935,2.0478 7.86771,-3.01912 10.93228,3.92744 3.55421,8.05645 -5.587,3.12667 -5.59883,3.64519 -0.13058,5.74337 5.12381,1.96619 4.62902,3.79693 -3.3544,12.41119 -5.1506,5.55758 -9.36476,12.49975 -9.36476,15.42701 0,2.92724 -1.69499,4.2747 -3.76665,2.99434 -2.07166,-1.28041 -3.76665,-0.53285 -3.76665,1.6611 0,2.19395 3.49003,3.98896 7.75561,3.98896 4.26559,0 6.78043,-1.57798 5.58853,-3.50638 -1.19202,-1.92853 -0.30208,-4.65913 1.97775,-6.06805 2.67425,-1.65281 3.69835,0.59362 2.88646,6.33136 -0.85453,6.03893 -3.37394,8.53785 -7.85008,7.78625 -3.62541,-0.60869 -6.59165,0.76263 -6.59165,3.0473 0,2.2846 -1.50239,3.22561 -3.33843,2.09075 -1.83612,-1.13477 -4.18633,0.8839 -5.22264,4.48603 -1.03633,3.6021 -3.13838,9.60163 -4.67131,13.33227 -2.41467,5.87673 -1.39014,6.43239 7.66778,4.15894 7.48771,-1.87931 9.68706,-1.38161 7.74944,1.7535 -1.48783,2.40765 -4.2976,3.39338 -6.24363,2.19069 -1.94611,-1.20282 -5.11148,1.73592 -7.03428,6.53022 -1.92275,4.79432 -3.60348,6.27861 -3.73478,3.29838 -0.17076,-3.90207 -2.34713,-3.15547 -7.77207,2.66752 -8.67006,9.3062 -9.52335,14.50358 -2.82499,17.2064 2.58958,1.04487 -1.4361,2.03374 -8.94618,2.19722 -11.52332,0.25111 -14.59636,2.20801 -19.68917,12.53899 -3.31905,6.73289 -6.07328,9.85926 -6.12044,6.94744 -0.0502,-3.15709 -4.06557,-0.87638 -9.94489,5.64998 -5.42253,6.01931 -8.71247,8.82542 -7.311,6.23584 4.56792,-8.44046 -1.03483,-4.98187 -14.66509,9.05278 -14.72604,15.16289 -15.32257,16.67419 -9.05539,22.94138 3.23455,3.23452 2.23639,3.76713 -4.00275,2.13569 -5.8522,-1.53052 -9.97728,0.2034 -13.93943,5.86071 -3.09511,4.41889 -8.92132,8.03435 -12.94717,8.03435 -4.02587,0 -7.31973,1.49737 -7.31973,3.32736 0,5.34609 -16.10041,8.03706 -21.46224,3.58708 -2.69738,-2.23864 -4.90433,-2.69119 -4.90433,-1.00569 0,1.68545 -2.64897,-0.226 -5.88661,-4.24708 -4.17526,-5.18593 -6.45659,-5.94277 -7.84717,-2.60326 -4.24401,10.19181 -14.85432,4.21097 -13.12405,-7.39773 0.22098,-1.47929 -2.09024,-1.73342 -5.13492,-0.56525 -8.16327,3.13252 -0.57505,15.09421 10.97602,17.30237 5.13968,0.9826 9.22783,0.76614 9.08477,-0.48062 -0.79075,-6.89205 1.15887,-9.15069 4.01174,-4.64753 3.89939,6.15532 -8.99359,20.77453 -15.85679,17.97982 -3.29454,-1.34143 -3.23249,-1.89964 0.23605,-2.11886 2.58957,-0.16323 4.70832,-1.83361 4.70832,-3.71141 0,-6.17892 -15.06039,0.38143 -15.33136,6.67832 -0.20592,4.76018 -0.99716,4.44769 -3.50191,-1.38085 -3.49714,-8.13833 -5.14246,-3.63907 -4.47652,12.24162 0.40153,9.57551 -4.89386,11.40307 -8.18557,2.82499 -1.19252,-3.10749 -4.5519,-5.64998 -7.46545,-5.64998 -2.91971,0 -6.354,-5.28313 -7.65153,-11.77079 -3.35165,-16.75824 -2.92144,-22.92431 1.41249,-20.24576 2.07166,1.28041 3.76666,0.53285 3.76666,-1.6611 0,-2.19395 -2.5425,-3.98896 -5.64998,-3.98896 -5.20424,0 -7.28014,7.75614 -6.04877,22.59992 0.69381,8.36353 -14.9146,14.19592 -28.02438,10.4719 -24.95675,-7.08932 -43.33593,-9.44074 -45.56755,-5.8299 -1.46372,2.36847 -3.15824,2.28109 -4.71838,-0.24358 -1.33892,-2.16632 -7.03157,-4.77255 -12.65034,-5.79143 -5.61876,-1.01875 -12.31062,-3.14711 -14.87082,-4.72936 -2.56019,-1.58224 -13.97245,-3.46439 -25.36058,-4.18241 -11.38813,-0.71793 -22.00788,-3.35448 -23.59947,-5.85878 -1.59153,-2.50432 -2.91973,-3.07449 -2.95145,-1.2671 -0.0326,1.80749 -2.91752,0.95999 -6.41287,-1.88333 -5.45643,-4.4384 -6.06168,-4.37045 -4.27963,0.48037 1.15486,3.14378 -1.51972,8.73487 -6.02935,12.60456 -6.01314,5.15958 -7.73209,10.14852 -6.6602,19.33001 0.79451,6.80652 -0.33825,13.47749 -2.51753,14.82434 -5.59589,3.45847 -0.94744,13.43302 6.46998,13.88301 3.54402,0.21596 2.31624,1.45895 -2.87295,2.911 -8.43354,2.35993 -8.62933,2.96777 -2.82499,8.77211 7.07468,7.07468 7.96413,12.79575 2.51308,16.16467 -2.18365,1.34946 -2.81557,-0.50549 -1.528,-4.48601 1.71985,-5.31686 1.37809,-5.63725 -1.57798,-1.47879 -4.51622,6.35326 -1.90316,15.43484 6.41418,22.29201 5.47396,4.51293 5.36892,4.88018 -1.07726,3.76665 -3.92839,-0.6785 -7.88338,0.88491 -8.78886,3.47446 -0.91128,2.60615 1.43686,4.82652 5.25923,4.97309 6.26631,0.24107 6.2082,0.56425 -0.62777,3.50188 -7.0099,3.01227 -7.04327,3.25557 -0.48038,3.50191 5.62078,0.21093 6.16144,1.33892 2.6628,5.55446 -2.5003,3.0128 -3.33384,9.49802 -1.93631,15.06661 1.53604,6.12021 0.89244,9.77693 -1.72111,9.77693 -2.29615,0 -4.17501,1.695 -4.17501,3.76666 0,2.07165 2.60213,3.76665 5.78252,3.76665 4.55499,0 4.95262,1.5506 1.87303,7.3047 -2.59975,4.85767 -2.64414,8.08667 -0.13309,9.63894 2.07718,1.28392 3.64303,4.35294 3.47946,6.82025 -0.21345,3.2346 -0.82741,3.1726 -2.19722,-0.22349 -2.64637,-6.55847 -8.80538,-5.89983 -8.80538,0.94167 0,3.10749 1.695,5.64998 3.76666,5.64998 2.07166,0 3.76665,1.69499 3.76665,3.76665 0,2.07166 -1.90693,3.34291 -4.23771,2.82499 -2.33081,-0.51804 -4.50545,3.71957 -4.83269,9.41664 -0.3272,5.69706 0.39198,10.35829 1.59806,10.35829 1.20608,0 1.49762,5.95584 0.64787,13.23514 -0.84976,7.27936 0.48389,15.68011 2.96393,18.66829 2.47996,2.98822 3.56882,6.9545 2.41969,8.81397 -1.14933,1.85947 1.98277,5.2363 6.95993,7.50406 6.77377,3.08632 9.51085,2.98803 10.88447,-0.39098 1.34218,-3.30155 1.91497,-3.21763 2.13243,0.31263 0.16322,2.65464 -2.23539,5.79846 -5.33097,6.98636 -3.09559,1.18801 -4.76597,3.55515 -3.71196,5.26059 1.05391,1.70529 -1.58752,4.21285 -5.86993,5.57203 -5.74083,1.82206 -6.75331,3.71601 -3.85404,7.20943 2.16281,2.60594 2.83757,5.83284 1.49963,7.17083 -1.33792,1.33791 5.45667,5.92261 15.09931,10.18802 13.63202,6.03006 17.53201,9.70817 17.53201,16.5344 0,13.10457 -6.30786,16.02131 -40.96585,18.94268 -35.695415,3.0088 -42.896755,4.93293 -39.433745,10.53621 1.54709,2.50331 -0.84398,3.1218 -6.61329,1.71006 -5.24182,-1.28267 -12.10723,0.0678 -16.34833,3.21732 -7.87524,5.84703 -16.89515,7.17997 -17.61774,2.60351 z m 22.21176,-94.48869 c 0.80405,-2.41217 -0.47435,-4.38597 -2.84084,-4.38597 -2.36646,0 -3.3307,1.57296 -2.14247,3.49546 2.85964,4.62703 -11.62904,9.08351 -17.69032,5.44125 -3.19397,-1.91923 -3.02766,-0.73675 0.50951,3.62229 4.5476,5.60433 6.28702,5.78425 12.97687,1.34244 4.24894,-2.8212 8.38324,-7.10313 9.18732,-9.5154 z m 16.60998,-2.42121 c 1.55061,1.55061 1.36755,-10.11693 -0.33548,-21.38698 -0.20591,-1.35976 -4.02866,-1.51645 -8.49594,-0.34854 -5.30345,1.38688 -7.24295,0.70135 -5.58853,-1.97574 1.39366,-2.25497 0.95999,-5.0724 -0.96376,-6.26123 -4.26885,-2.63831 -3.37106,5.20682 1.48105,12.94094 1.94962,3.10749 3.00644,9.80952 2.34888,14.89345 -0.99264,7.67318 -0.27396,8.47859 4.22943,4.74099 2.98384,-2.47645 6.27986,-3.64776 7.3245,-2.60314 z m -33.59217,-37.93668 c 3.41302,-1.30979 4.75063,-5.46714 3.6356,-11.29996 -0.97029,-5.07539 -0.15318,-9.22792 1.81402,-9.22792 1.96795,0 3.578,-2.44833 3.578,-5.44071 0,-2.99243 -0.98863,-5.33418 -2.19722,-5.20393 -6.90955,0.74454 -8.23355,-1.30125 -4.08054,-6.3053 3.80286,-4.58219 3.65272,-5.64998 -0.79426,-5.64998 -3.01586,0 -5.62979,2.11861 -5.80871,4.70831 -0.17829,2.58958 -1.32285,8.94581 -2.54234,14.12495 -6.43056,27.31359 -5.97559,29.04181 6.3956,24.29454 z m 6.68049,-49.71945 c 0.0904,-1.55362 1.63071,-10.4279 3.42311,-19.72036 2.89648,-15.01569 2.6687,-16.08798 -2.0473,-9.63839 -2.91856,3.99134 -5.30644,10.1844 -5.30644,13.76232 0,3.57794 -1.0288,9.18644 -2.28636,12.46336 -1.25756,3.27696 -0.41006,5.95806 1.88333,5.95806 2.29339,0 4.24346,-1.27137 4.33368,-2.82499 z m -23.78411,-10.75068 c -1.25153,-1.25153 -4.50035,-1.38537 -7.21942,-0.29731 -3.00478,1.20231 -2.11234,2.09501 2.27581,2.27556 3.97068,0.16322 6.19537,-0.72672 4.94374,-1.97825 z m 4.78679,-24.8108 c 0,-3.74736 1.64176,-6.8134 3.64846,-6.8134 2.00662,0 2.67279,-2.54249 1.48029,-5.64998 -1.19252,-3.10749 -0.34502,-5.64998 1.88333,-5.64998 2.22835,0 3.14764,-2.35516 2.04303,-5.23371 -2.52366,-6.57655 -16.58847,-3.36337 -16.58847,3.7897 0,2.86585 -2.96624,5.2622 -6.59164,5.32522 -6.0229802,0.10547 -6.0551502,0.42764 -0.3729,3.74514 4.45922,2.60336 5.85888,7.63325 4.94682,17.77707 -1.17469,13.06524 -0.85829,13.58765 4.1395,6.83489 2.97631,-4.02135 5.41148,-10.37758 5.41148,-14.12495 z m 22.59992,-50.78466 c 0,-0.92032 -1.34068,-0.84448 -2.97945,0.16825 -1.63874,1.01272 -2.28158,-4.13586 -1.42881,-11.44141 1.32862,-11.3809 0.54164,-13.07634 -5.49553,-11.84086 -3.93738,0.80582 -6.60399,4.08913 -6.04394,7.44186 0.58483,3.50072 -2.41895,6.8946 -7.21106,8.1478 -6.83354,1.78715 -7.42202,3.10131 -3.50299,7.82346 2.59071,3.1216 3.61692,7.44487 2.28033,9.6073 -1.33641,2.16231 -0.7591,3.93164 1.28293,3.93164 2.04202,0 4.46283,-2.96624 5.37961,-6.59165 1.11894,-4.42476 2.62874,-2.43702 4.59298,6.04654 l 2.92614,12.63812 5.09984,-12.12892 c 2.8049,-6.67092 5.09983,-12.88186 5.09983,-13.80213 z m -18.83327,-27.59515 c 0,-2.07166 -1.69499,-3.76666 -3.76665,-3.76666 -2.07166,0 -3.76665,1.695 -3.76665,3.76666 0,2.07166 1.69499,3.76665 3.76665,3.76665 2.07166,0 3.76665,-1.69499 3.76665,-3.76665 z m 11.71849,-7.53331 c 1.53403,-13.80609 0.76614,-20.3217 -2.52413,-21.41847 -2.07895,-0.69307 -3.72676,4.68915 -3.66205,11.96023 0.10296,11.66449 5.0934,19.2932 6.18618,9.45824 z m 50.4313,-3.76665 c 1.28041,-2.07166 0.53285,-3.76666 -1.6611,-3.76666 -2.19395,0 -3.98893,1.695 -3.98893,3.76666 0,2.07165 0.74755,3.76665 1.66109,3.76665 0.91354,0 2.70858,-1.695 3.98894,-3.76665 z m -75.90056,-39.6705 c -2.98781,-7.7861 -5.08249,-6.86857 -5.08249,2.22634 0,4.26559 1.62091,6.75381 3.60215,5.52935 1.98126,-1.22441 2.64733,-4.71447 1.48029,-7.75562 z m 21.39635,-1.55287 c -5.86897,-10.96633 -10.48842,-12.3955 -9.49061,-2.93635 1.12498,10.66435 0.82415,10.25983 7.62755,10.25983 4.56009,0 4.95393,-1.54809 1.86299,-7.32353 z m 11.18769,-13.39306 c 0,-3.10749 -2.75003,-5.64998 -6.11117,-5.64998 -5.0051,0 -5.26249,1.02252 -1.42203,5.64998 2.57897,3.10749 5.32901,5.64998 6.11116,5.64998 0.78221,0 1.42204,-2.54249 1.42204,-5.64998 z m 64.033105,-1.4803 c 0,-1.84993 -2.45611,-4.30619 -5.45815,-5.45815 -3.64808,-1.39994 -4.76357,-0.28426 -3.36365,3.36367 2.28636,5.95781 8.8218,7.5095 8.8218,2.09451 z m 34.22161,-2.08748 c 5.14286,3.17846 4.15788,-1.96067 -1.35298,-7.05953 -5.16507,-4.77888 -14.03528,-7.55219 -14.03528,-4.38816 0,4.81386 9.53021,16.55809 10.66761,13.14588 0.7016,-2.10506 2.826,-2.86921 4.72072,-1.69826 z m 217.32173,0.12556 c 11.42727,0.72194 7.21301,-3.17152 -4.82152,-4.45465 -6.73269,-0.71767 -9.40619,0.80381 -9.36498,5.33009 0.0352,3.71264 1.20307,4.73009 2.82499,2.45812 1.52198,-2.13217 6.63468,-3.63223 11.36151,-3.33356 z m -9.06029,-14.26063 c -1.36629,-2.21102 0.86759,-2.05483 5.41389,0.37843 9.97229,5.33702 12.00214,5.21761 12.00214,-0.70587 0,-2.66662 -3.58156,-5.1182 -7.95904,-5.44794 -10.96982,-0.8264 -11.66055,-2.21153 -7.09296,-14.22527 3.71058,-9.75957 3.51886,-10.12833 -2.71962,-5.2307 -3.6914,2.89799 -7.55912,6.19826 -8.59495,7.3339 -1.03583,1.13552 -7.41197,5.92648 -14.16925,10.64632 -6.75723,4.71982 -11.56554,9.74704 -10.68512,11.17159 0.88039,1.42455 9.37011,1.97222 18.86599,1.21688 10.25461,-0.8156 16.32066,-2.9016 14.93892,-5.13726 z m -253.78301,-2.84723 c 0,2.67061 1.05391,3.80173 2.34211,2.51356 1.28819,-1.28819 -2.94934,-7.6335 -9.416635,-14.10079 -6.46729,-6.46732 -11.75871,-10.03339 -11.75871,-7.92464 0,2.10882 1.69499,4.88166 3.76665,6.16202 2.07166,1.28041 3.76666,5.82543 3.76666,10.10013 0,6.48158 0.93814,6.99354 5.64998,3.08316 4.525245,-3.75566 5.649975,-3.72246 5.649975,0.16573 z m -17.514405,-8.39093 c -1.76129,-2.7274 -3.25795,-14.15875 -3.32616,-25.40296 -0.0829,-13.74482 -1.79317,-21.00045 -5.21827,-22.14212 -3.95071,-1.31682 -4.51875,1.37005 -2.53033,11.96907 1.61915,8.63053 1.11292,13.66715 -1.37333,13.66715 -2.16557,0 -3.93733,5.08498 -3.93733,11.29996 0,8.78886 1.67415,11.29996 7.53331,11.29996 4.14332,0 7.5333,1.97749 7.5333,4.39445 0,2.41694 1.01725,3.37719 2.2605,2.13394 1.24325,-1.24325 0.81962,-4.49204 -0.94166,-7.21942 z m 34.564015,1.41853 c -1.15963,-1.15963 -4.19904,-0.002 -6.75409,2.57179 -3.69232,3.72002 -3.25966,4.15266 2.10857,2.10858 3.71475,-1.41451 5.80525,-3.52067 4.64554,-4.68037 z m 264.10926,-2.61346 c 0.6677,-11.57008 -2.82484,-11.92309 -12.20101,-1.2332 -3.94653,4.49944 -5.1738,7.01429 -2.72741,5.58853 2.44657,-1.4258 5.51272,-0.86959 6.81395,1.23597 4.07413,6.59204 7.54965,4.19728 8.11447,-5.59122 z M 264.8823,527.05008 c 4.59334,-2.96845 4.10658,-3.66209 -2.60271,-3.70897 -4.53896,-0.0326 -9.30024,1.63724 -10.58058,3.70897 -2.96388,4.79568 5.76253,4.79568 13.18329,0 z m 136.76872,-7.83082 c 1.42204,-5.43767 0.54541,-7.25432 -2.86838,-5.94436 -2.70391,1.03759 -6.81769,-0.0151 -9.14179,-2.33909 -3.12311,-3.12311 -4.22566,-2.75146 -4.22566,1.4243 0,5.8019 7.02697,14.68995 11.614,14.68995 1.41576,0 3.49553,-3.52388 4.62183,-7.83082 z M 158.22239,507.51057 c -1.20231,-3.00476 -2.09501,-2.11234 -2.27581,2.27581 -0.16322,3.97066 0.72672,6.19534 1.97825,4.94373 1.25153,-1.25153 1.38537,-4.5004 0.29731,-7.21944 z m 19.08697,-7.76873 c -0.86231,-2.58957 -4.8172,-5.32815 -8.78886,-6.0857 -3.97163,-0.7576 -8.42184,-3.28591 -9.88932,-5.61849 -1.97047,-3.13223 -3.7997,-3.10955 -6.99604,0.0854 -5.67848,5.6785 8.19983,13.60726 17.54254,10.02216 4.45266,-1.70856 5.67128,-1.10313 3.8172,1.89688 -1.49787,2.42397 -0.78723,4.40691 1.57924,4.40691 2.36646,0 3.59738,-2.11886 2.73516,-4.70831 z m 253.30567,-2.82499 c 0,-2.07166 -0.74755,-3.76665 -1.66109,-3.76665 -0.91354,0 -2.7086,1.69499 -3.98896,3.76665 -1.28042,2.07166 -0.53286,3.76666 1.66109,3.76666 2.19395,0 3.98896,-1.695 3.98896,-3.76666 z m -173.26604,-9.41663 c 5.17915,-2.96066 7.76823,-5.44312 5.75354,-5.51649 -2.01465,-0.0728 0.52784,-3.07068 5.64998,-6.66065 5.12218,-3.58992 12.27932,-6.02584 15.9047,-5.41321 3.6254,0.61271 6.59164,-0.6343 6.59164,-2.77128 0,-2.13694 2.37098,-2.97535 5.269,-1.86323 2.89794,1.11191 6.38797,0.21093 7.75559,-2.0016 1.36754,-2.21279 7.47158,-4.02342 13.5643,-4.02342 10.70739,0 26.14426,-11.12011 26.14426,-18.83326 0,-2.07166 1.79494,-3.76666 3.98896,-3.76666 2.19395,0 3.06049,1.50239 1.92577,3.33841 -1.13477,1.83612 1.40471,4.24532 5.64342,5.35377 5.6313,1.47251 8.84358,-0.47987 11.92852,-7.2506 2.52795,-5.54826 6.32906,-8.45735 9.47376,-7.25059 2.88857,1.1084 8.42929,0.3149 12.31271,-1.76354 3.88345,-2.07844 11.38813,-4.13697 16.67709,-4.57468 5.28898,-0.43769 9.61629,-1.76053 9.61629,-2.93942 0,-1.99708 8.25334,-3.72723 23.26503,-4.87719 3.47331,-0.26593 5.49201,-1.81553 4.48601,-3.44332 -1.00594,-1.6277 0.61849,-2.95949 3.61001,-2.95949 2.99151,0 8.46438,-4.61716 12.16195,-10.26041 3.69757,-5.6432 8.55377,-12.48202 10.79151,-15.19732 9.37807,-11.37946 11.83491,-14.79303 16.31024,-22.66165 2.58958,-4.55303 4.70832,-11.69121 4.70832,-15.86263 0,-4.17142 2.01893,-7.58441 4.48659,-7.58441 6.04964,0 -8.81274,-11.02821 -15.0672,-11.18018 -2.71184,-0.0653 -3.8057,1.70026 -2.43074,3.92493 1.48757,2.40689 -0.4633,2.1942 -4.81798,-0.52533 -7.55473,-4.71803 -8.94844,-16.42725 -3.07728,-25.85371 4.80565,-7.71568 3.942,-45.10359 -1.15963,-50.20532 -6.06288,-6.06286 -5.33915,-10.32681 1.75275,-10.32681 3.8329,0 5.25775,-2.07216 3.88485,-5.64998 -1.19252,-3.10749 -0.32845,-5.64998 1.91974,-5.64998 2.24819,0 3.22991,3.28033 2.1814,7.28963 -1.04839,4.0093 0.6903,10.99665 3.8637,15.52748 3.17353,4.53081 5.95242,11.70379 6.17528,15.93997 0.22349,4.23616 2.75998,8.48615 5.63793,9.44441 2.87792,0.95824 4.19447,0.0628 2.92563,-1.99055 -4.07486,-6.59325 -5.82824,-31.1444 -2.22433,-31.1444 1.91547,0 3.4826,-1.64176 3.4826,-3.64846 0,-2.00662 -2.19797,-2.80497 -4.88445,-1.77409 -2.88164,1.10589 -6.3842,-2.39032 -8.54209,-8.52607 l -3.6576,-10.40043 -8.72176,8.72176 c -10.8899,10.88987 -14.55689,8.64191 -4.14081,-2.53843 l 7.64026,-8.20085 -7.68003,0 c -4.22403,0 -7.69048,-2.11862 -7.70326,-4.70832 -0.0113,-2.58958 -2.43979,-9.34084 -5.3935,-15.00282 -3.19417,-6.12298 -3.92302,-11.18897 -1.7987,-12.5019 1.96443,-1.21412 2.37098,-4.20901 0.90374,-6.65543 -1.46723,-2.44632 0.44447,-1.91898 4.24856,1.17243 6.44146,5.23455 6.71806,4.97593 4.02869,-3.76665 -3.76894,-12.25199 -9.51306,-19.23961 -13.69241,-16.65664 -1.83687,1.13527 -3.33987,-1.14331 -3.33987,-5.06367 0,-10.28176 -3.65466,-12.47229 -12.73686,-7.63418 -7.24443,3.85912 -7.49338,3.66132 -2.70162,-2.14674 4.6098,-5.58743 4.27201,-7.33483 -2.66747,-13.79996 -4.37012,-4.07135 -8.86399,-7.40245 -9.98646,-7.40245 -3.18063,0 -0.58634,9.05443 3.60916,12.59692 2.20827,1.86449 1.14029,2.3416 -2.58161,1.15334 -3.49159,-1.11492 -7.17148,-0.004 -8.17761,2.46967 -1.0062,2.47319 -1.96318,1.41903 -2.12665,-2.3426 -0.16322,-3.76158 1.45719,-10.11781 3.60177,-14.12495 3.06799,-5.73252 2.66649,-7.28569 -1.88332,-7.28569 -3.18036,0 -5.78249,-2.34487 -5.78249,-5.21066 0,-2.86588 -3.57187,-6.14475 -7.93755,-7.2864 -10.39034,-2.71713 -26.14682,3.39461 -24.62437,9.55151 0.65666,2.65589 0.48314,3.55763 -0.38595,2.00386 -2.41694,-4.32163 -21.51166,-3.35868 -26.19118,1.32084 -3.01666,3.01664 -4.82983,1.9908 -6.65713,-3.76665 -1.38111,-4.35187 -4.93959,-7.91249 -7.90749,-7.91249 -9.0597,0 -10.88244,-0.50473 -15.4191,-4.26985 -2.81504,-2.33633 -5.19655,-2.29666 -6.68463,0.11049 -1.27137,2.05709 -14.99173,3.74028 -30.48965,3.74028 -15.49792,0 -30.03005,1.14456 -32.29363,2.54358 -2.26351,1.39893 -13.50127,3.17124 -24.97264,3.93838 -11.47139,0.76715 -23.16981,3.31423 -25.99654,5.6602 -3.9128,3.24761 -5.21038,3.03183 -5.43679,-0.90399 -0.18582,-3.24646 -0.95447,-3.56677 -2.06387,-0.86106 -0.97155,2.36973 -5.07529,3.4432 -9.11927,2.38555 -4.05066,-1.05919 -7.35271,-0.0326 -7.35271,2.28309 0,2.31323 -1.81603,4.20597 -4.0357,4.20597 -4.16569,0 -14.79757,9.1938 -14.79757,12.79603 0,1.11869 2.71033,0.99414 6.02295,-0.27698 5.27332,-2.02344 5.39496,-1.30552 0.97732,5.76821 -2.77511,4.44367 -6.43299,8.07942 -8.12856,8.07942 -1.6955,0 -2.03525,-1.695 -0.75509,-3.76666 1.28041,-2.07165 -0.2614,-3.76665 -3.42615,-3.76665 -3.56722,0 -4.93007,2.14724 -3.58595,5.64998 1.40747,3.66789 -0.0954,5.64998 -4.28786,5.64998 -4.19113,0 -5.69538,1.98202 -4.28788,5.64998 1.19252,3.10749 0.24358,5.64998 -2.10807,5.64998 -2.3519,0 -3.18717,1.08907 -1.85621,2.4202 1.33114,1.33114 5.00355,0.27597 8.16108,-2.34461 6.89373,-5.7213 7.19396,-3.61888 1.3231,9.26602 -3.37929,7.41679 -3.37929,10.73453 0,14.11385 3.37932,3.37931 4.41784,2.12188 4.41784,-5.34915 0,-5.37185 2.54249,-10.74263 5.64998,-11.9351 3.44161,-1.32059 5.64998,-0.006 5.64998,3.36367 0,3.04248 -1.695,5.53176 -3.76666,5.53176 -2.07166,0 -3.76665,4.33753 -3.76665,9.63894 0,5.4668 1.63046,8.63132 3.76665,7.311 2.07166,-1.28041 3.76666,-0.53285 3.76666,1.6611 0,2.19395 -2.11887,4.12278 -4.70832,4.28632 -3.02859,0.19085 -3.22388,0.91003 -0.54742,2.01466 2.28837,0.94468 3.35493,5.9333 2.36998,11.08611 -1.45594,7.61609 -2.79493,8.53561 -7.15735,4.91513 -2.95147,-2.44958 -4.5685,-6.53274 -3.59338,-9.07385 1.15234,-3.00299 -0.76539,-3.9564 -5.47858,-2.72385 -4.12082,1.07751 -7.25148,-0.0155 -7.25148,-2.53195 0,-2.43552 1.80849,-3.31064 4.01856,-1.9446 4.7667,2.94598 3.25098,-10.27344 -1.58249,-13.80162 -1.76757,-1.2902 -1.28418,-5.95151 1.07425,-10.35829 2.82182,-5.27267 2.95481,-8.01233 0.38897,-8.01233 -2.14448,0 -3.89919,1.64176 -3.89919,3.64843 0,2.00662 -2.54249,2.67279 -5.64998,1.4803 -4.15151,-1.59305 -5.64998,0.49519 -5.64998,7.87381 0,6.79441 -1.52274,9.27064 -4.70832,7.65698 -2.58957,-1.3118 -2.16583,-0.14062 0.94166,2.60271 3.91888,3.45947 5.29426,10.56712 4.48893,23.19803 -0.9605,15.0632 -2.22585,17.8018 -7.32213,15.84618 -5.14803,-1.97548 -5.01598,-1.09886 0.8033,5.33117 4.27277,4.72135 5.19701,7.69543 2.39158,7.69543 -2.515,0 -3.54681,1.66009 -2.29289,3.68881 1.25379,2.02897 0.33724,7.31835 -2.03676,11.75449 -2.41894,4.51969 -2.65674,7.03985 -0.54114,5.7323 2.07668,-1.28343 5.47775,2.54959 7.55824,8.51771 3.24103,9.29723 2.88905,10.61864 -2.45811,9.22785 -5.229,-1.36002 -6.2408,1.61263 -6.2408,18.33599 0,13.95852 1.41551,19.67612 4.70832,19.01758 2.58957,-0.51779 4.70832,1.88333 4.70832,5.3361 0,17.19889 7.49983,-10.61346 8.55311,-31.71834 0.16323,-3.28327 2.34186,-2.81806 7.14128,1.52549 3.79804,3.4372 7.03523,5.56297 7.19373,4.72399 0.1582,-0.83896 0.87888,-4.647 1.60058,-8.46224 2.05307,-10.85065 5.6506,-12.24542 5.58675,-2.16583 -0.0753,11.75545 -5.48076,20.19688 -10.82117,16.89631 -5.82378,-3.59929 -5.27131,3.56805 0.65414,8.48569 4.13335,3.43039 4.77217,9.48675 2.99745,28.41823 -0.16824,1.79544 -3.69832,2.37726 -7.84451,1.29296 -4.14618,-1.08429 -6.58863,-0.43442 -5.42769,1.44414 1.16088,1.87855 4.19007,3.41537 6.73136,3.41537 2.54131,0 4.62055,3.29608 4.62055,7.32464 0,5.28213 -1.26434,6.27542 -4.53362,3.56207 -4.81278,-3.99423 -4.69807,-1.51043 1.3236,28.66316 3.59992,18.0383 1.93782,36.77188 -2.99207,33.72498 -1.94536,-1.20231 -4.6082,0.60593 -5.91757,4.01802 -1.30929,3.41213 -5.95862,7.80081 -10.3317,9.75262 -6.1731,2.75518 -4.75043,3.15196 6.3623,1.77434 12.62452,-1.56492 14.0508,-0.94719 12.0884,5.23572 -2.93061,9.23353 0.22098,10.75938 26.25809,12.71392 14.98207,1.12472 22.99309,3.57006 25.32066,7.7292 2.7193,4.85908 4.97251,5.24498 11.19156,1.91672 5.76411,-3.08484 7.10222,-3.05975 5.1515,0.0954 -1.8311,2.96285 1.48833,3.80952 10.87872,2.77472 11.83347,-1.30402 12.92432,-0.76087 8.77234,4.36821 -2.60791,3.22159 -2.8726,4.73888 -0.5881,3.37173 2.28435,-1.36704 7.36935,-0.0502 11.29996,2.92383 8.91238,6.7463 12.29405,6.74618 24.09651,-7.3e-4 z M 464.51491,365.08398 c 0,-2.07166 1.695,-3.76666 3.76666,-3.76666 2.07166,0 3.76665,1.695 3.76665,3.76666 0,2.07166 -1.69499,3.76665 -3.76665,3.76665 -2.07166,0 -3.76666,-1.69499 -3.76666,-3.76665 z M 475.10863,339.911 c 2.71904,-1.08806 5.96778,-0.95422 7.21944,0.29732 1.25153,1.25153 -0.97305,2.14197 -4.94373,1.97824 -4.38798,-0.1808 -5.28047,-1.07324 -2.27581,-2.27556 z M 131.4268,292.81462 c -2.9293,-9.23355 -0.28024,-70.87318 3.08629,-71.81273 1.84089,-0.51377 3.84721,3.75774 4.45859,9.49217 0.61346,5.75504 -0.46405,9.45244 -2.40538,8.25269 -1.93431,-1.19554 -3.51693,0.67649 -3.51693,4.15989 0,4.87129 1.16691,5.36494 5.05488,2.1382 2.78019,-2.30745 6.31143,-2.93864 7.84719,-1.40295 1.53579,1.53579 2.22735,0.46179 1.53679,-2.3868 -0.69055,-2.84855 0.43945,-5.81479 2.51111,-6.59165 2.07166,-0.77693 3.76665,3.69122 3.76665,9.9291 0,7.52578 -1.584,10.73373 -4.70832,9.53486 -2.58957,-0.99364 -4.70831,-0.0653 -4.70831,2.06387 0,2.12892 -1.53705,2.92087 -3.41538,1.76003 -1.87855,-1.16088 -2.52825,1.28142 -1.44388,5.4277 1.23471,4.72135 0.11802,7.53851 -2.98794,7.53851 -3.85723,0 -3.95483,1.00444 -0.43919,4.51998 2.48599,2.48599 4.51998,7.47093 4.51998,11.07766 0,8.16979 -7.02847,13.00542 -9.15593,6.29935 z m 11.77094,-14.5941 c -1.23998,-4.74171 0.0477,-8.56075 3.30572,-9.81133 2.93477,-1.12623 4.39817,-3.56498 3.25197,-5.41956 -1.14631,-1.8547 -0.28902,-3.37196 1.90493,-3.37196 5.09726,0 5.22846,13.85596 0.16071,16.98791 -2.10556,1.30125 -2.85292,3.94376 -1.6611,5.87226 1.19202,1.92853 0.56977,3.50641 -1.38261,3.50641 -1.95238,0 -4.46326,-3.49367 -5.5799,-7.76373 z m 7.32283,-114.6525 c -1.19253,-3.10749 -0.52633,-5.64998 1.48029,-5.64998 2.00662,0 3.64846,2.54249 3.64846,5.64998 0,3.10748 -0.6662,5.64998 -1.4803,5.64998 -0.8141,0 -2.45611,-2.5425 -3.64845,-5.64998 z m 213.40418,-22.63907 c -3.58472,-3.8951 -3.1883,-5.52641 1.88333,-7.74964 3.53312,-1.54885 8.71267,-2.43527 11.51014,-1.96996 3.13305,0.52105 3.9944,-0.92082 2.24291,-3.75455 -1.83134,-2.96315 -1.27363,-3.63048 1.56668,-1.87504 2.42547,1.49913 3.43493,4.30342 2.24291,6.23195 -1.19177,1.92853 -0.37214,3.50638 1.82181,3.50638 2.19395,0 3.98896,1.87629 3.98896,4.16966 0,2.30318 -2.74273,3.11716 -6.12739,1.81829 -3.37008,-1.29322 -8.03131,-0.79703 -10.35829,1.10262 -2.66195,2.17311 -5.91468,1.62444 -8.77141,-1.47979 z m -61.37594,-5.61084 c 3.10749,-2.00812 7.34498,-3.65129 9.41664,-3.65129 2.07166,0 1.22416,1.64301 -1.88333,3.65129 -3.10749,2.00813 -7.34497,3.6513 -9.41663,3.6513 -2.07166,0 -1.22417,-1.64302 1.88332,-3.6513 z m 39.54987,-3.76665 c 3.74967,-4.14332 7.46196,-7.53331 8.24962,-7.53331 0.78773,0 -0.38219,3.38999 -2.59964,7.53331 -2.21731,4.14332 -5.92977,7.53331 -8.2496,7.53331 -2.31976,0 -1.15009,-3.38999 2.59962,-7.53331 z M 310.08212,120.2515 c 0,-2.07166 1.79494,-3.76665 3.98896,-3.76665 2.19395,0 2.94138,1.69499 1.6611,3.76665 -1.28042,2.07166 -3.07538,3.76665 -3.98894,3.76665 -0.91354,0 -1.66109,-1.69499 -1.66109,-3.76665 z m -30.1332,-3.98896 c 0,-2.19395 1.69499,-2.94138 3.76665,-1.6611 2.07166,1.28041 3.76663,3.0754 3.76663,3.98896 0,0.91354 -1.695,1.6611 -3.76663,1.6611 -2.07166,0 -3.76665,-1.79494 -3.76665,-3.98896 z M 49.162915,483.34121 c -1.25154,-1.25154 -4.50035,-1.38538 -7.21942,-0.29732 -3.00479,1.20232 -2.11234,2.09502 2.27556,2.27556 3.97068,0.16322 6.19536,-0.72671 4.94373,-1.97824 z m 26.1931,-13.49718 c -1.20231,-3.00476 -2.09501,-2.11234 -2.27556,2.27581 -0.16322,3.97066 0.72672,6.19535 1.97825,4.94374 1.25153,-1.25154 1.38538,-4.5004 0.29731,-7.21945 z m 4.96026,-14.80496 c 0,-2.07166 -1.69499,-2.71909 -3.76665,-1.43861 -2.07166,1.28041 -3.76666,4.02289 -3.76666,6.09455 0,2.07166 1.695,2.71912 3.76666,1.43886 2.07166,-1.28041 3.76665,-4.02291 3.76665,-6.09457 z M 409.49545,457.059 c 3.3809,-8.81045 3.27709,-8.86685 -9.54989,-5.18811 -6.50996,1.86701 -13.55182,2.33432 -15.64862,1.03834 -2.2733,-1.40496 -2.63884,-0.45752 -0.9055,2.34713 1.59882,2.58681 6.89433,3.94107 11.76793,3.00943 4.87362,-0.93162 7.96492,-0.24358 6.8695,1.52851 -1.09535,1.77233 -0.37792,3.22252 1.5943,3.22252 1.97222,0 4.61482,-2.6811 5.87228,-5.95807 z M 42.649735,455.70602 c 0,-6.31454 -6.68031,-7.8781 -8.90371,-2.08396 -1.3118,3.41884 0.0118,5.62836 3.37196,5.62836 3.04247,0 5.53175,-1.59505 5.53175,-3.54435 z m 76.689945,-42.59716 c 1.53253,-14.52324 0.93237,-21.65826 -1.82205,-21.65826 -2.25924,0 -3.13188,2.54249 -1.93933,5.64998 1.19252,3.10749 0.87085,5.64998 -0.71491,5.64998 -2.38103,0 -2.9904,17.48127 -1.10514,31.70267 1.06094,8.00354 3.44727,-1.12196 5.58128,-21.34437 z m -79.292625,7.311 c -1.15812,-1.87378 -3.4769,-1.18825 -5.15291,1.52374 -1.67591,2.71184 -2.09978,6.46378 -0.94166,8.33761 1.15812,1.87379 3.4769,1.18825 5.15291,-1.52374 1.67591,-2.71184 2.09978,-6.46375 0.94166,-8.33758 z m 4.48601,-10.13599 c 1.28041,-2.07166 -0.41458,-3.76665 -3.76665,-3.76665 -3.35202,0 -5.04702,1.69499 -3.76666,3.76665 1.28042,2.07166 2.97536,3.76666 3.76666,3.76666 0.79125,0 2.48624,-1.695 3.76665,-3.76666 z M 547.08393,390.28663 c -0.21345,-3.21084 -0.83971,-3.14099 -2.205,0.24609 -1.04914,2.60248 -3.71975,3.61184 -5.93459,2.24292 -2.40011,-1.48331 -2.92586,-0.70713 -1.30125,1.92124 3.20489,5.18563 9.87066,2.07191 9.44096,-4.41007 z M 40.458355,389.16417 c 9.50738,-3.64833 7.50111,-16.60107 -2.51693,-16.24957 -4.66124,0.16322 -6.35623,1.15234 -3.76666,2.19721 2.58958,1.04487 4.70832,4.15985 4.70832,6.92206 0,2.76219 -2.11887,5.87713 -4.70832,6.92205 -2.58957,1.04487 -3.57568,2.03375 -2.19144,2.19722 1.38438,0.16322 5.19806,-0.73149 8.47498,-1.98905 z M 123.0653,382.1545 c 1.16691,-3.04114 0.50072,-6.53117 -1.48029,-7.75561 -1.98126,-1.22442 -3.60215,-1.41727 -3.60215,-0.42865 0,0.98862 -1.0288,4.47865 -2.28636,7.75557 -1.25756,3.27696 -0.59137,5.95806 1.48029,5.95806 2.07166,0 4.72148,-2.48825 5.88846,-5.52934 z m -44.632355,-5.77051 c -1.28041,-2.07166 -4.34661,-3.74071 -6.81392,-3.709 -2.6955,0.0326 -2.23087,1.51495 1.16389,3.709 7.2362,4.6764 8.54014,4.6764 5.64998,0 z m 461.415045,0 c 0,-2.07166 -2.96624,-3.74071 -6.59165,-3.709 -5.6332,0.0502 -5.77014,0.5886 -0.94166,3.709 7.10848,4.59383 7.53331,4.59383 7.53331,0 z M 46.416395,363.60363 c 0,-0.8141 -2.63053,-2.48976 -5.8456,-3.72351 -3.35204,-1.28619 -4.86398,-0.6549 -3.54437,1.48029 2.21203,3.57913 9.38997,5.29386 9.38997,2.24317 z m 4.95684,-6.99462 c -1.6616,-2.58958 -3.27501,-8.9458 -3.58538,-14.12496 -0.31037,-5.17915 -0.7458,-12.38287 -0.96778,-16.00828 -0.22097,-3.6254 -1.84064,-6.59164 -3.59703,-6.59164 -4.42649,0 -4.65606,21.95989 -0.25789,24.67806 1.96595,1.21488 2.48198,3.97641 1.14708,6.13656 -1.33491,2.16005 -0.0904,5.40703 2.76356,7.21535 7.0892,4.49023 8.03937,4.21451 4.49772,-1.30502 z m 87.165305,-10.09802 c 1.19177,-1.92854 0.44447,-4.57104 -1.66109,-5.8723 -2.10556,-1.30125 -3.82808,0.27673 -3.82808,3.50638 0,6.61623 2.26024,7.59041 5.48912,2.36597 z m -22.43906,-4.02694 c -1.28041,-2.07166 -4.02291,-3.76665 -6.09457,-3.76665 -2.07166,0 -2.7191,1.69499 -1.43886,3.76665 1.28041,2.07166 4.02291,3.76666 6.09457,3.76666 2.07166,0 2.7191,-1.695 1.43886,-3.76666 z m 446.34843,-7.53331 c 3.10749,-2.00812 3.95498,-3.65129 1.88332,-3.65129 -2.07166,0 -6.30914,1.64302 -9.41663,3.65129 -3.10749,2.00813 -3.95499,3.6513 -1.88333,3.6513 2.07166,0 6.30915,-1.64302 9.41664,-3.6513 z M 138.6994,331.18409 c 1.28041,-2.07166 0.6328,-3.76665 -1.43886,-3.76665 -2.07166,0 -4.81421,1.69499 -6.09457,3.76665 -1.28041,2.07166 -0.6328,3.76665 1.43886,3.76665 2.07166,0 4.81421,-1.69499 6.09457,-3.76665 z m 361.60799,-6.19735 c 5.03606,-5.03604 5.26292,-6.8543 1.2106,-9.7034 -4.12679,-2.90148 -4.12921,-3.85065 -0.0151,-5.50456 3.59904,-1.4464 2.75142,-3.55427 -3.06859,-7.63077 -9.1504,-6.40918 -11.474,-5.27597 -12.32419,6.0104 -0.3287,4.37748 -1.93279,7.95907 -3.56363,7.95907 -1.63071,0 -2.96511,1.79493 -2.96511,3.98893 0,2.19395 1.51746,3.05117 3.37199,1.90493 1.85444,-1.14632 4.34385,0.44873 5.53175,3.54434 2.735,7.12731 4.19616,7.057 11.82212,-0.56901 z m -25.4608,-9.76344 c 0.47862,-6.35475 -0.18833,-7.09377 -2.71656,-3.00484 -1.8434,2.98246 -2.5157,6.77483 -1.49435,8.42749 2.84146,4.5976 3.52209,3.72113 4.21086,-5.42265 z M 48.927495,310.4675 c 0,-3.10749 -1.41249,-5.64998 -3.13888,-5.64998 -1.72638,0 -3.13888,2.54249 -3.13888,5.64998 0,3.10749 1.4125,5.64998 3.13888,5.64998 1.72639,0 3.13888,-2.54249 3.13888,-5.64998 z M 561.4278,306.30848 c -1.25179,-1.25153 -4.5004,-1.38537 -7.21945,-0.29731 -3.00476,1.20231 -2.11234,2.09501 2.27581,2.27581 3.97066,0.16322 6.19535,-0.72671 4.94374,-1.97825 z M 50.183045,291.00645 c 0,-11.32786 -3.20753,-10.17154 -5.55182,2.00135 -0.85202,4.42361 0.0477,8.04296 2.00135,8.04296 1.95263,0 3.55037,-4.51998 3.55037,-10.04441 z M 498.4148,289.7509 c 0,-2.07166 -0.74756,-3.76665 -1.6611,-3.76665 -0.91354,0 -2.7086,1.69499 -3.98896,3.76665 -1.28041,2.07166 -0.53286,3.76665 1.66109,3.76665 2.19395,0 3.98897,-1.69499 3.98897,-3.76665 z M 53.949705,273.02324 c 0,-2.98522 -1.63021,-6.4352 -3.62272,-7.66664 -2.10481,-1.30075 -2.33131,-5.73426 -0.54089,-10.58061 3.82983,-10.36596 1.46121,-17.93025 -4.8554,-15.50633 -5.08538,1.95138 -5.23562,7.43409 -0.73826,26.93966 2.81984,12.23012 9.75724,17.07481 9.75724,6.81392 z m 506.020045,-0.0301 c 1.39718,-3.64087 0.28426,-4.76356 -3.342,-3.37196 -2.99007,1.14732 -4.49874,3.60356 -3.35255,5.45816 2.88689,4.67103 4.26657,4.24107 6.69455,-2.08623 z m 10.01146,1.69148 c 0,-2.07166 -0.74755,-3.76666 -1.66109,-3.76666 -0.91354,0 -2.7086,1.695 -3.98896,3.76666 -1.28041,2.07166 -0.53286,3.76665 1.66109,3.76665 2.19395,0 3.98896,-1.69499 3.98896,-3.76665 z m -32.64237,-7.90729 c 1.72739,-1.28945 0.45627,-3.37479 -2.82499,-4.63391 -4.29547,-1.64829 -5.96583,-0.0377 -5.96583,5.75356 0,4.42359 1.27138,6.50886 2.82499,4.63394 1.55388,-1.87504 4.23837,-4.46404 5.96583,-5.75359 z M 475.81487,252.0844 c 0,-2.07166 -1.79493,-3.76666 -3.98896,-3.76666 -2.19395,0 -2.94138,1.695 -1.66109,3.76666 1.28041,2.07165 3.0754,3.76665 3.98896,3.76665 0.91354,0 1.66109,-1.695 1.66109,-3.76665 z m 64.03312,-5.87229 c 0,-8.38342 -5.85587,-6.41426 -6.50376,2.18692 -0.31565,4.18809 1.01875,6.63054 2.96506,5.42767 1.94636,-1.20282 3.5387,-4.62949 3.5387,-7.61472 z m 13.28295,2.83307 c -1.15963,-1.15962 -4.19902,-0.002 -6.75409,2.5718 -3.6923,3.72002 -3.25966,4.15266 2.10857,2.10857 3.71475,-1.4145 5.80525,-3.52066 4.64552,-4.68037 z M 30.381495,236.1236 c 0.47862,-6.35474 -0.18833,-7.09379 -2.71656,-3.00483 -1.84315,2.98246 -2.5157,6.77483 -1.49436,8.42748 2.84147,4.59758 3.52208,3.72113 4.21085,-5.42265 z M 546.25356,224.77616 c 0.88591,-6.62346 -0.35859,-10.37909 -3.45171,-10.41598 -3.39615,-0.0402 -3.15402,-1.14531 0.81284,-3.70896 5.0222,-3.2456 5.0222,-3.66413 0,-3.76666 -4.94745,-0.10044 -4.96061,-0.55144 -0.10547,-3.62171 4.75221,-3.00531 4.62076,-3.8608 -0.92006,-5.987 -3.55547,-1.36428 -5.50103,-4.42177 -4.32345,-6.79426 1.17746,-2.37249 -0.58584,-0.94317 -3.91865,3.17622 -3.58294,4.42858 -4.46687,8.02078 -2.16256,8.78886 2.14348,0.7144 3.89703,6.34276 3.89703,12.50736 0,6.16461 -1.54633,10.25276 -3.43601,9.08482 -2.81271,-1.73844 -3.01089,2.205 -0.61874,12.31344 0.1582,0.66971 3.11274,0.66971 6.5649,0 3.58088,-0.69482 6.87178,-5.66676 7.66218,-11.57613 z m -432.03741,0.94166 c 0,-2.07166 -1.79493,-3.76665 -3.98893,-3.76665 -2.19395,0 -2.94141,1.69499 -1.6611,3.76665 1.28041,2.07166 3.07537,3.76665 3.98894,3.76665 0.91354,0 1.66109,-1.69499 1.66109,-3.76665 z M 35.116435,212.53454 c 0,-3.10749 -1.695,-5.64998 -3.76666,-5.64998 -2.07166,0 -3.76665,2.54249 -3.76665,5.64998 0,3.10748 1.69499,5.64997 3.76665,5.64997 2.07166,0 3.76666,-2.54249 3.76666,-5.64997 z m 491.548265,1.88333 c 1.28041,-2.07166 0.63305,-3.76664 -1.43861,-3.76664 -2.07166,0 -4.81421,1.69499 -6.09457,3.76664 -1.28041,2.07166 -0.6328,3.76665 1.43886,3.76665 2.07166,0 4.81418,-1.69499 6.09454,-3.76665 z m -13.18329,-28.24989 c 0,-7.25081 -1.57069,-13.18329 -3.49048,-13.18329 -1.91974,0 -4.19954,-2.11862 -5.06623,-4.70832 -0.86658,-2.58957 -0.69381,0.37667 0.38395,6.59165 1.07777,6.21497 2.02596,14.2662 2.10656,17.8916 0.28376,12.72692 6.066,6.44362 6.066,-6.59164 z M 64.422655,180.58453 c 0.1808,-6.32614 -1.25555,-10.52405 -3.18963,-9.32867 -1.93405,1.19529 -3.51667,-0.56901 -3.51667,-3.92116 0,-3.35202 1.67566,-5.05902 3.72351,-3.79332 2.13519,1.31958 2.76663,-0.19336 1.4803,-3.54437 -1.23371,-3.21507 -6.50687,-5.8456 -11.71804,-5.8456 -7.995,0 -8.74248,0.8824 -4.78578,5.64998 3.77888,4.55326 3.68562,5.70769 -0.48038,5.94735 -3.84831,0.22097 -3.96021,0.78497 -0.43768,2.205 2.60248,1.04913 3.77371,3.45788 2.60271,5.35261 -1.17093,1.89463 -0.33398,3.44493 1.85972,3.44493 2.19395,0 3.98894,3.10749 3.98894,6.90553 0,16.61599 9.99652,13.68343 10.47292,-3.07233 z m 61.093455,-11.3665 c 0,-8.87339 -8.39454,-9.9227 -15.06661,-1.88333 -2.83099,3.41113 -3.13813,5.64998 -0.77518,5.64998 2.15277,0 4.70538,-2.11862 5.67266,-4.70832 1.19352,-3.19548 2.63422,-2.59033 4.48352,1.88333 3.59211,8.68959 5.68554,8.34286 5.68554,-0.94166 z m 406.79857,1.09659 c 0,-1.40245 -5.00998,-7.74953 -14.17538,-17.95865 -2.61734,-2.91536 -5.79544,-10.484 -7.06247,-16.81921 -1.2671,-6.33521 -3.6522,-11.51855 -5.30026,-11.51855 -1.64804,0 -4.07856,-4.92631 -5.40101,-10.9473 -1.69248,-7.70552 -5.40607,-11.74697 -12.54087,-13.647685 -5.57507,-1.48532 -8.10516,-3.45104 -5.62241,-4.36847 7.7741,-2.87273 -2.68532,-20.86741 -10.88314,-18.72361 -4.1891,1.09535 -6.81423,-0.25889 -6.81423,-3.51539 0,-6.54747 -7.4191,-7.10557 -7.83067,-0.5891 -0.23855,3.76665 -0.67724,3.76665 -2.19721,0 -1.04487,-2.58958 -3.55361,-4.70832 -5.5749,-4.70832 -2.02119,0 -2.46565,1.9569 -0.98737,4.34863 1.84039,2.97791 1.02001,3.30812 -2.60268,1.04763 -7.59229,-4.73745 -14.34784,-5.2579 -16.79762,-1.29397 -1.1664,1.88709 0.0979,3.45711 2.81003,3.48885 3.62781,0.0427 3.43775,1.12397 -0.71943,4.09339 -4.56888,3.26351 -4.07487,3.69248 2.58174,2.24192 4.91857,-1.07174 9.04004,0.31263 10.24007,3.43988 1.32862,3.46258 -0.81962,5.32002 -6.34837,5.48867 -8.07472,0.24609 -8.03897,0.40177 1.05994,4.6041 5.17915,2.39208 10.49839,5.884465 11.82051,7.760935 1.3221,1.87655 4.29155,2.24518 6.5987,0.81912 3.84781,-2.37801 13.75208,14.65309 12.36746,21.26681 -0.30962,1.47929 1.83285,1.77007 4.76135,0.64635 7.00324,-2.6874 18.17244,14.56593 18.67635,28.84986 0.34377,9.74305 5.22138,15.95409 6.52279,8.30597 1.95414,-11.48365 1.85947,-19.33785 -0.21847,-18.0541 -1.35625,0.83821 -2.72362,-1.89964 -3.03886,-6.08399 -0.54943,-7.29478 -0.2717,-7.26033 6.75143,0.8372 4.02848,4.64486 7.32448,11.73453 7.32448,15.7548 0,4.12806 3.26049,8.16224 7.49094,9.26853 4.12005,1.07752 6.73707,3.17871 5.81567,4.66957 -0.92133,1.49085 0.79275,2.71066 3.80904,2.71066 3.01633,0 5.48427,-0.63656 5.48427,-1.4145 z m -46.86142,-55.83285 c -5.92359,-4.48039 -6.17887,-5.53018 -1.34469,-5.53018 3.28181,0 6.94254,2.54249 8.13504,5.64998 2.62666,6.84509 2.41292,6.84133 -6.79037,-0.12053 z M 464.51491,84.871335 c 0,-0.8141 2.63053,-2.48976 5.84562,-3.72352 3.35202,-1.28618 4.86396,-0.65489 3.54435,1.4803 -2.21203,3.5791 -9.38997,5.29383 -9.38997,2.24317 z M 77.893435,147.08896 c -4.84223,-3.53237 -6.37079,-16.76098 -1.5958,-13.80983 2.21027,1.36604 4.01857,0.68854 4.01857,-1.50541 0,-2.19395 -0.70889,-3.98893 -1.57522,-3.98893 -0.86633,0 -4.25637,-1.0288 -7.53331,-2.28636 -4.64511,-1.78263 -5.95804,0.29254 -5.95804,9.41663 0,8.4648 -1.82381,11.82626 -6.59164,12.14859 -3.62541,0.24609 -1.50666,1.63774 4.70831,3.09473 11.78491,2.76274 20.11057,1.00369 14.52711,-3.06954 z m 0.73827,-26.51571 c -1.17093,-1.89463 -0.0196,-4.14806 2.55838,-5.00744 3.70878,-1.23621 3.73055,-3.66279 0.10547,-11.62166 -3.37148,-7.399585 -3.44275,-10.059165 -0.26969,-10.059165 2.37249,0 3.22466,-1.08907 1.89362,-2.4202 -1.33114,-1.33114 -4.7887,-0.45426 -7.68367,1.94836 -2.89498,2.40263 -7.86035,3.37191 -11.03419,2.15403 -4.49264,-1.72388 -5.59488,0.32368 -4.97715,9.246325 0.43643,6.30339 2.10857,12.77588 3.71603,14.38329 1.60735,1.60736 1.7535,-1.73517 0.32468,-7.42799 -1.74496,-6.95274 -1.12422,-10.35056 1.89111,-10.35056 2.46892,0 3.72917,2.11861 2.80064,4.70831 -2.13293,5.9488 3.84022,17.89161 8.94859,17.89161 2.12112,0 2.89834,-1.55036 1.72738,-3.44496 z m 46.619585,-12.56332 c 0.14565,-1.55362 -3.12524,-2.82499 -7.26856,-2.82499 -8.73655,0 -9.08519,1.36227 -3.17511,12.40522 4.25938,7.95877 4.42413,7.97449 7.26856,0.69407 1.60058,-4.09711 3.02952,-8.72053 3.17511,-10.27427 z m 47.34792,4.70832 c 1.28041,-2.07166 0.53285,-3.76666 -1.6611,-3.76666 -2.19395,0 -3.98893,1.695 -3.98893,3.76666 0,2.07166 0.74755,3.76665 1.66109,3.76665 0.91354,0 2.70858,-1.69499 3.98894,-3.76665 z m 17.4654,-2.63666 c -4.33492,-1.72387 -4.33492,-2.61283 0,-5.70794 3.82853,-2.73353 3.33645,-3.08007 -1.93455,-1.36227 -3.88799,1.2671 -9.82048,0.18582 -13.1833,-2.40488 -4.00593,-3.084865 -3.64002,-1.808495 1.06119,3.70166 3.94651,4.62553 9.87899,8.27625 13.1833,8.1127 4.49695,-0.22349 4.7166,-0.81084 0.87336,-2.33935 z m 251.08693,-9.21482 c -2.68763,-1.704775 -7.4291,-3.074205 -10.53658,-3.042925 -4.37987,0.0452 -4.15035,0.92987 1.02101,3.940475 3.76208,2.19018 5.49984,5.8357 3.98527,8.36044 -1.47703,2.46213 0.26266,2.08396 3.86574,-0.84072 5.15223,-4.18189 5.50773,-5.97949 1.66461,-8.41729 z M 129.63362,91.179825 c 4.77928,-12.94639 -1.93933,-13.29913 -9.50073,-0.49871 -6.3898,10.817075 -6.3995,11.380865 -0.17578,10.153465 3.625,-0.71466 7.97888,-5.059365 9.67528,-9.654685 z m 383.84779,8.5774 c 0,-0.91354 -1.69499,-2.7086 -3.76665,-3.98894 -2.07166,-1.28041 -3.76666,-0.53286 -3.76666,1.66109 0,2.19396 1.695,3.988935 3.76666,3.988935 2.07166,0 3.76665,-0.74755 3.76665,-1.661085 z M 187.6659,93.884955 c 1.28041,-2.07166 -0.31464,-3.76665 -3.54434,-3.76665 -3.22976,0 -5.8723,1.69499 -5.8723,3.76665 0,2.07166 1.59506,3.76666 3.54438,3.76666 1.94937,0 4.5919,-1.695 5.87226,-3.76666 z m -73.44975,-3.76665 c 0,-2.07166 -0.74755,-3.76665 -1.66109,-3.76665 -0.91354,0 -2.7086,1.69499 -3.98894,3.76665 -1.28041,2.07166 -0.53285,3.76665 1.6611,3.76665 2.19395,0 3.98893,-1.69499 3.98893,-3.76665 z m 244.83247,-1.88333 c 0,-3.10749 -0.6662,-5.64998 -1.4803,-5.64998 -0.8141,0 -2.45611,2.54249 -3.64845,5.64998 -1.19253,3.10749 -0.52633,5.64998 1.48029,5.64998 2.00662,0 3.64846,-2.54249 3.64846,-5.64998 z m -154.43278,0.22349 c 0,-0.91354 -1.69499,-2.70862 -3.76665,-3.98896 -2.07166,-1.28041 -3.76665,-0.53286 -3.76665,1.66109 0,2.19395 1.69499,3.98894 3.76665,3.98894 2.07166,0 3.76665,-0.74755 3.76665,-1.66109 z m 20.7066,-5.85612 c 0.96577,-1.56265 -2.45058,-2.84116 -7.59201,-2.84116 -5.14136,0 -9.34793,2.17186 -9.34793,4.82652 0,4.99129 13.61424,3.39571 16.93994,-1.98528 z m 114.06422,-7.47675 c -5.74279,-9.19563 -14.23793,-12.88304 -14.23793,-6.1801 0,3.84733 9.99053,11.30852 17.92353,13.38576 0.53536,0.14062 -1.12297,-3.10235 -3.6856,-7.20566 z m -196.82094,-3.11194 c -1.15963,-1.15962 -4.19904,-0.002 -6.75409,2.5718 -3.69232,3.72002 -3.25966,4.15266 2.10858,2.10857 3.71475,-1.4145 5.80524,-3.52064 4.64554,-4.68037 z m 175.50952,-3.26993 c -3.28284,-5.64538 -4.01784,-5.8081 -4.11191,-0.91027 -0.12304,6.34334 3.83892,12.05479 6.50848,9.38527 0.88039,-0.8804 -0.19838,-4.69421 -2.3966,-8.47497 z m -276.218655,1.0391 c -2.67124,-2.89854 -5.4503,-4.70631 -6.17566,-4.01724 -2.23412,2.12238 3.42819,9.28734 7.33963,9.28734 2.03098,0 1.50741,-2.37149 -1.1639,-5.2701 z m 365.452275,-9.56235 c 0.94167,-2.82499 -0.47083,-4.23748 -3.29582,-3.29582 -2.71902,0.90636 -5.68531,3.87259 -6.59164,6.59166 -0.94167,2.82499 0.47083,4.23748 3.29582,3.29582 2.71904,-0.90626 5.68531,-3.8726 6.59164,-6.59166 z m -197.234,-18.04599 c 2.38228,-6.20839 -7.98965,-6.28836 -10.50837,-0.0811 -1.4376,3.5432 -2.89924,3.31018 -5.90618,-0.94166 -4.36691,-6.17475 -5.54906,-0.59671 -1.89287,8.93138 1.79318,4.67313 3.58362,4.92811 9.34388,1.33076 3.91911,-2.44749 7.95267,-6.60522 8.96346,-9.23936 z m 69.87406,8.39394 c 0,-3.10748 -2.96624,-5.74763 -6.59165,-5.86699 -3.6254,-0.11928 -13.37162,-0.80494 -21.65826,-1.52347 l -15.06661,-1.30645 12.73694,5.50304 c 7.00532,3.02667 15.05654,4.61292 17.8916,3.52501 2.83506,-1.08791 5.15467,-0.33624 5.15467,1.67041 0,2.00664 1.69499,3.64844 3.76665,3.64844 2.07166,0 3.76666,-2.5425 3.76666,-5.64999 z m -46.59783,-6.7631 c 4.11211,-4.11211 -11.07574,-3.01509 -17.43529,1.25934 -4.35859,2.92954 -3.315,3.52286 4.56589,2.59585 5.61872,-0.66092 11.40995,-2.39577 12.8694,-3.8552 z M 21.933145,824.61574 c 1.28041,-2.07166 3.0754,-3.76666 3.98896,-3.76666 0.91354,0 1.6611,1.695 1.6611,3.76666 0,2.07166 -1.79494,3.76665 -3.98897,3.76665 -2.19395,0 -2.94138,-1.69499 -1.66109,-3.76665 z M 1.2165448,806.00478 c 0,-1.94937 1.67566,-4.57995 3.72352,-5.84562 2.13519,-1.31959 2.76663,0.19335 1.48029,3.54434 -2.50407,6.52543 -5.20383,7.71933 -5.20383,2.30118 z m 3.76666,-15.17073 c 0,-2.00662 2.54249,-2.67279 5.6499802,-1.48029 3.10749,1.19252 5.64998,2.83425 5.64998,3.64845 0,0.8141 -2.54249,1.4803 -5.64998,1.4803 -3.1074902,0 -5.6499802,-1.64176 -5.6499802,-3.64846 z M 445.68165,544.1814 c 0,-6.11265 12.58594,-20.54777 16.04923,-18.40733 2.40137,1.48406 1.14456,4.45926 -3.23699,7.6631 -3.93924,2.88044 -6.61138,6.39307 -5.9381,7.80586 0.67322,1.41275 -0.5979,3.17605 -2.82499,3.91837 -2.2271,0.74229 -4.04915,0.30134 -4.04915,-0.98007 z m 36.96028,-19.70434 c 2.71905,-1.08806 5.96779,-0.95422 7.21945,0.29731 1.25153,1.25153 -0.97305,2.14197 -4.94373,1.97825 -4.38798,-0.1808 -5.28048,-1.07325 -2.27582,-2.27556 z m -10.59371,-4.96028 c 0,-2.07166 1.79494,-3.76666 3.98896,-3.76666 2.19395,0 2.94138,1.695 1.6611,3.76666 -1.28041,2.07166 -3.0754,3.76665 -3.98897,3.76665 -0.91353,0 -1.66109,-1.69499 -1.66109,-3.76665 z m 75.63046,-81.29694 c 0.1808,-4.38796 1.07325,-5.28048 2.27556,-2.27557 1.08806,2.71903 0.95422,5.96777 -0.29706,7.21942 -1.25178,1.25154 -2.14197,-0.97305 -1.97825,-4.94373 z M 583.1645,255.85102 c -1.28041,-2.07166 -1.42229,-3.76665 -0.31564,-3.76665 1.10689,0 0.25261,-4.66124 -1.89789,-10.3583 -4.87481,-12.91292 1.07374,-6.57203 7.06732,7.53331 4.11549,9.68562 0.27873,14.89616 -4.85381,6.59164 z m -16.94994,-26.36658 c 0,-2.07166 3.81374,-3.74071 8.47497,-3.70899 6.8532,0.0477 7.39379,0.75634 2.82499,3.70899 -7.30264,4.71932 -11.29996,4.71932 -11.29996,0 z"
     id="path3400"
     inkscape:connector-curvature="0" />
</svg>
