<?xml version="1.0" encoding="UTF-8" standalone="no"?>
<!-- Created with Inkscape (http://www.inkscape.org/) -->

<svg
   xmlns:dc="http://purl.org/dc/elements/1.1/"
   xmlns:cc="http://creativecommons.org/ns#"
   xmlns:rdf="http://www.w3.org/1999/02/22-rdf-syntax-ns#"
   xmlns:svg="http://www.w3.org/2000/svg"
   xmlns="http://www.w3.org/2000/svg"
   xmlns:sodipodi="http://sodipodi.sourceforge.net/DTD/sodipodi-0.dtd"
   xmlns:inkscape="http://www.inkscape.org/namespaces/inkscape"
   id="svg3390"
   version="1.1"
   inkscape:version="0.91 r13725"
   width="589.75525"
   height="930.00098"
   viewBox="0 0 589.75524 930.00099"
   sodipodi:docname="P.svg">
  <metadata
     id="metadata3396">
    <rdf:RDF>
      <cc:Work
         rdf:about="">
        <dc:format>image/svg+xml</dc:format>
        <dc:type
           rdf:resource="http://purl.org/dc/dcmitype/StillImage" />
        <dc:title />
      </cc:Work>
    </rdf:RDF>
  </metadata>
  <defs
     id="defs3394" />
  <sodipodi:namedview
     pagecolor="#ffffff"
     bordercolor="#666666"
     borderopacity="1"
     objecttolerance="10"
     gridtolerance="10"
     guidetolerance="10"
     inkscape:pageopacity="0"
     inkscape:pageshadow="2"
     inkscape:window-width="1766"
     inkscape:window-height="958"
     id="namedview3392"
     showgrid="false"
     fit-margin-top="0"
     fit-margin-left="0"
     fit-margin-right="0"
     fit-margin-bottom="0"
     inkscape:zoom="0.44471078"
     inkscape:cx="-309.2314"
     inkscape:cy="624.25249"
     inkscape:window-x="0"
     inkscape:window-y="0"
     inkscape:window-maximized="0"
     inkscape:current-layer="svg3390" />
  <path
     style="fill:#000000"
     d="m 23.036887,872.55007 c -1.197662,-17.89503 -0.212102,-22.70913 -1.150078,-43.56483 -1.168651,-44.63293 -6.2234,-54.72589 -2.899819,-125.82373 4.490374,-74.74937 -8.472832,-122.9681 -4.764455,-195.866 0.756419,-62.24394 -4.394672,-108.16306 -1.00651,-162.27379 -0.584973,-71.8249 8.384466,-120.46866 2.44705,-166.20459 C 9.9940613,119.75034 28.491893,104.61364 27.527878,79.800808 40.324495,54.984711 88.095322,19.067093 114.2398,13.527389 170.37833,5.1294659 160.11838,0.04618604 217.80058,2.5467546 c 20.10592,1.30743 34.77465,3.63713 38.88126,6.17516 2.49202,1.5402304 9.855,0.14464 16.36189,-3.1015 14.11348,-7.04073 21.69028,-7.36613 35.85297,-1.53975 5.83193,2.39918 16.28995,4.81317 23.24008,5.36441 64.71699,6.8700304 61.10433,15.9537784 113.71082,12.8733504 26.99915,3.919719 44.47505,31.611268 66.79726,47.29684 4.60428,3.22496 8.37141,7.49612 8.37141,9.49147 0,1.99532 4.38639,10.57644 9.74755,19.06904 8.85495,14.027135 12.72446,25.171485 14.20437,40.908985 0.2923,3.10749 2.57968,6.96605 5.08323,8.57459 2.50357,1.60861 3.65923,5.25081 2.56818,8.09398 -1.09108,2.84315 -0.17327,6.28833 2.03977,7.65598 5.17116,27.71748 27.02153,110.57055 13.37705,154.26767 -2.00738,4.66801 -1.73869,6.36798 0.76237,4.82232 6.38302,-3.94492 0.98008,17.54266 -5.84392,23.24191 -4.68519,3.91293 -4.9932,5.57457 -1.2897,6.95797 6.1583,2.30017 -1.24626,12.38475 -9.09338,12.38475 -2.85384,0 -5.18879,1.8763 -5.18879,4.16964 0,2.29339 2.48825,3.21484 5.52935,2.0478 7.86771,-3.01912 10.93228,3.92744 3.55421,8.05645 -5.587,3.12667 -5.59883,3.64519 -0.13058,5.74337 5.12381,1.96619 4.62902,3.79693 -3.3544,12.41119 -5.1506,5.55758 -9.36476,12.49975 -9.36476,15.42701 0,2.92724 -1.69499,4.2747 -3.76665,2.99434 -2.07166,-1.28041 -3.76665,-0.53285 -3.76665,1.6611 0,2.19395 3.49003,3.98896 7.75561,3.98896 4.26559,0 6.78043,-1.57798 5.58853,-3.50638 -1.19202,-1.92853 -0.30208,-4.65913 1.97775,-6.06805 2.67425,-1.65281 3.69835,0.59362 2.88646,6.33136 -0.85453,6.03893 -3.37394,8.53785 -7.85008,7.78625 -3.62541,-0.60869 -6.59165,0.76263 -6.59165,3.0473 0,2.2846 -1.50239,3.22561 -3.33843,2.09075 -1.83612,-1.13477 -4.18633,0.8839 -5.22264,4.48603 35.95133,-5.64405 -84.20325,117.71366 -68.87552,84.70739 -9.27558,4.21281 -19.0578,19.39692 -23.72048,31.99416 3.23455,3.23452 2.23639,3.76713 -4.00275,2.13569 -5.8522,-1.53052 -9.97728,0.2034 -13.93943,5.86071 -3.09511,4.41889 -8.92132,8.03435 -12.94717,8.03435 -4.02587,0 -51.16845,7.119 -51.16845,8.94899 -35.92757,10.88701 -59.01125,2.40303 -128.07436,10.75962 -1.46372,2.36847 -3.15824,2.28109 -4.71838,-0.24358 -1.33892,-2.16632 -7.03157,-4.77255 -12.65034,-5.79143 -5.61876,-1.01875 -12.31062,-3.14711 -14.87082,-4.72936 -2.56019,-1.58224 -13.97245,-3.46439 -25.36058,-4.18241 -11.38813,-0.71793 -22.00788,-3.35448 -23.59947,-5.85878 -1.59153,-2.50432 -2.91973,-3.07449 -2.95145,-1.2671 -0.0326,1.80749 -2.91752,0.95999 -6.41287,-1.88333 -5.45643,-4.4384 -6.06168,-4.37045 -4.27963,0.48037 1.15486,3.14378 -1.51972,8.73487 -6.02935,12.60456 -6.01314,5.15958 -7.73209,10.14852 -6.6602,19.33001 0.79451,6.80652 -0.33825,13.47749 -2.51753,14.82434 -0.91853,49.20206 -6.19854,61.90284 -1.59564,132.07232 3.95378,16.92106 4.86829,77.67426 3.39607,80.351 0.40618,21.69779 2.71469,27.81815 3.10102,42.25545 0.30814,14.90297 1.71981,24.45253 1.71981,31.27876 0,13.10457 -2.58559,19.14146 -11.40547,22.46034 -25.5728,7.25064 -20.495491,9.24768 -40.765208,6.74664 C 59.91801,928.51169 47.698049,924.25125 36.640216,924.4449 16.710796,913.50973 22.984338,883.30236 23.036887,872.55007 Z M 284.65721,469.90987 c 3.6254,0.61271 6.59164,-0.6343 6.59164,-2.77128 0,-2.13694 2.37098,-2.97535 5.269,-1.86323 66.87676,0.92229 85.57462,-5.58855 142.2957,-48.58878 3.47331,-0.26593 5.49201,-1.81553 4.48601,-3.44332 -1.00594,-1.6277 0.61849,-2.95949 3.61001,-2.95949 2.99151,0 8.46438,-4.61716 12.16195,-10.26041 3.69757,-5.6432 8.55377,-12.48202 10.79151,-15.19732 10.29216,-38.18434 0.26959,-41.93081 0.11195,-79.74298 7.48706,-61.00313 -8.49714,-74.13924 -9.24985,-87.84044 -0.0113,-2.58958 -2.43979,-9.34084 -5.3935,-15.00282 -3.94663,-21.47352 -9.36107,-23.53727 -9.64999,-43.47186 -21.54302,-6.89466 -29.73564,-38.43231 -35.65067,-38.51664 -3.18036,0 -5.78249,-2.34487 -5.78249,-5.21066 0,-2.86588 -3.57187,-6.14475 -7.93755,-7.2864 -10.39034,-2.71713 -26.14682,3.39461 -24.62437,9.55151 0.65666,2.65589 0.48314,3.55763 -0.38595,2.00386 -2.41694,-4.32163 -21.51166,-3.35868 -26.19118,1.32084 -3.01666,3.01664 -4.82983,1.9908 -6.65713,-3.76665 -1.38111,-4.35187 -4.93959,-7.91249 -7.90749,-7.91249 -9.0597,0 -10.88244,-0.50473 -15.4191,-4.26985 -2.81504,-2.33633 -5.19655,-2.29666 -6.68463,0.11049 -1.27137,2.05709 -14.99173,3.74028 -30.48965,3.74028 -15.49792,0 -30.03005,1.14456 -32.29363,2.54358 -2.26351,1.39893 -13.50127,3.17124 -24.97264,3.93838 -11.47139,0.76715 -23.16981,3.31423 -25.99654,5.6602 -3.9128,3.24761 -5.21038,3.03183 -5.43679,-0.90399 -0.18582,-3.24646 -0.95447,-3.56677 -2.06387,-0.86106 -0.97155,2.36973 -5.07529,3.4432 -9.11927,2.38555 -4.05066,-1.05919 -7.35271,-0.0326 -7.35271,2.28309 0,2.31323 -1.81603,4.20597 -4.0357,4.20597 -0.26973,11.35361 -29.82689,-17.7389 -27.66814,2.22283 1.40747,3.66789 -0.0954,5.64998 -4.28786,5.64998 -4.19113,0 -5.69538,1.98202 -4.28788,5.64998 -3.52234,19.67956 -4.20733,12.3431 -10.77873,18.31212 -4.15151,-1.59305 -5.64998,0.49519 -5.64998,7.87381 -10.20303,13.04341 -3.65769,40.08642 -4.84286,60.48835 -13.276274,34.42451 -0.46221,90.09063 4.95991,119.40794 18.06052,17.93022 -1.1491,31.2351 3.64458,55.33283 3.59992,18.0383 19.92704,31.15025 14.99715,28.10335 -1.94536,-1.20231 -4.6082,0.60593 -5.91757,4.01802 8.119,16.76268 11.74159,4.89063 8.119,16.76268 -2.93061,9.23353 0.22098,10.75938 26.25809,12.71392 14.98207,1.12472 22.99309,3.57006 25.32066,7.7292 2.7193,4.85908 4.97251,5.24498 11.19156,1.91672 31.7707,15.70271 53.35781,8.94729 86.919,-4.05581 z"
     id="path3400"
     inkscape:connector-curvature="0"
     sodipodi:nodetypes="ccccccccccsscccssccccsccscccscsscscsscssccscsccccccsccccsscccccccccccccccssscscccsssccssccscsscscsccccsccccsccsccc" />
</svg>
