<?xml version="1.0" encoding="UTF-8" standalone="no"?>
<!-- Created with Inkscape (http://www.inkscape.org/) -->

<svg
   xmlns:dc="http://purl.org/dc/elements/1.1/"
   xmlns:cc="http://creativecommons.org/ns#"
   xmlns:rdf="http://www.w3.org/1999/02/22-rdf-syntax-ns#"
   xmlns:svg="http://www.w3.org/2000/svg"
   xmlns="http://www.w3.org/2000/svg"
   xmlns:sodipodi="http://sodipodi.sourceforge.net/DTD/sodipodi-0.dtd"
   xmlns:inkscape="http://www.inkscape.org/namespaces/inkscape"
   id="svg3390"
   version="1.1"
   inkscape:version="0.91 r13725"
   width="632.48944"
   height="930.00098"
   viewBox="0 0 632.48945 930.00099"
   sodipodi:docname="Q.svg">
  <metadata
     id="metadata3396">
    <rdf:RDF>
      <cc:Work
         rdf:about="">
        <dc:format>image/svg+xml</dc:format>
        <dc:type
           rdf:resource="http://purl.org/dc/dcmitype/StillImage" />
        <dc:title></dc:title>
      </cc:Work>
    </rdf:RDF>
  </metadata>
  <defs
     id="defs3394" />
  <sodipodi:namedview
     pagecolor="#ffffff"
     bordercolor="#666666"
     borderopacity="1"
     objecttolerance="10"
     gridtolerance="10"
     guidetolerance="10"
     inkscape:pageopacity="0"
     inkscape:pageshadow="2"
     inkscape:window-width="1839"
     inkscape:window-height="1007"
     id="namedview3392"
     showgrid="false"
     fit-margin-top="0"
     fit-margin-left="0"
     fit-margin-right="0"
     fit-margin-bottom="0"
     inkscape:zoom="0.55578625"
     inkscape:cx="-219.78538"
     inkscape:cy="430.59106"
     inkscape:window-x="0"
     inkscape:window-y="0"
     inkscape:window-maximized="0"
     inkscape:current-layer="svg3390" />
  <path
     style="fill:#000000"
     d="m 469.48326,894.77812 c -2.9058,-5.61919 -4.37675,-13.07291 -3.26876,-16.56383 1.31578,-4.14584 0.25432,-7.0226 -3.0608,-8.29472 -2.79138,-1.07119 -4.2669,-3.25549 -3.27893,-4.85404 0.98808,-1.59867 0.39328,-2.90651 -1.32141,-2.90651 -4.37649,0 -18.13565,-23.16494 -17.83797,-30.032 0.13636,-3.12495 -0.91795,-5.68173 -2.34102,-5.68173 -1.42314,0 -1.99911,-4.7483 -1.28029,-10.55178 0.78982,-6.3765 0.24589,-8.85922 -1.37508,-6.2743 -1.94175,3.09655 -3.82107,1.5279 -6.80743,-5.68173 -2.26886,-5.47758 -5.49519,-9.95922 -7.16965,-9.95922 -1.67443,0 -2.23607,-1.30798 -1.24803,-2.90651 2.95495,-4.78122 -5.8421,-6.33923 -20.57844,-3.64447 -8.41362,1.53851 -17.47707,1.16427 -23.08763,-0.95366 -6.58176,-2.48433 -11.43664,-2.48399 -16.89108,10e-4 -6.16562,2.80924 -9.12194,2.29938 -15.19868,-2.6213 -4.14933,-3.35988 -10.02887,-6.10889 -13.06571,-6.10889 -3.03683,0 -8.35381,-2.55678 -11.81546,-5.68173 -3.46172,-3.12484 -11.40755,-5.85543 -17.65746,-6.06785 -6.2499,-0.21211 -14.17865,-1.56361 -17.61946,-3.00274 -6.1769,-2.58347 -6.1769,-2.64756 0,-5.06733 5.4719,-2.14369 5.54389,-2.47937 0.57423,-2.67896 -3.12495,-0.12554 -5.68173,-2.41972 -5.68173,-5.09825 0,-6.27257 -2.42494,-6.15562 -9.01538,0.43484 -3.47709,3.47709 -5.7277,4.03641 -6.53206,1.62335 -0.67488,-2.02486 -2.97292,-3.68152 -5.10663,-3.68152 -2.13373,0 -8.95177,-3.47668 -15.15128,-7.72596 -8.07111,-5.53213 -13.19527,-6.99518 -18.04552,-5.15246 -11.62283,4.41584 -37.8165,-10.35704 -59.19842,-33.38712 -2.90132,-3.12495 -7.18779,-5.68173 -9.52552,-5.68173 -2.33772,0 -5.08815,-2.18314 -6.11205,-4.85141 -1.02401,-2.66828 -3.0518,-4.11585 -4.50643,-3.21686 -5.71283,3.53075 -24.58886,-21.87918 -20.80331,-28.0043 1.52141,-2.46178 1.02791,-3.04015 -1.34348,-1.57444 -2.06166,1.27422 -3.74834,1.01622 -3.74834,-0.57315 0,-1.58937 -3.5898,-4.8109 -7.97733,-7.159 -6.64033,-3.55382 -7.40224,-5.34386 -4.54612,-10.68055 1.8872,-3.52618 2.18964,-5.73614 0.67229,-4.91109 -3.39969,1.84846 -14.315517,-9.18129 -11.687397,-11.80943 1.04155,-1.04176 -0.45713,-1.89391 -3.33083,-1.89391 -3.54889,0 -4.8064,-2.1723 -3.9205,-6.77245 0.7173,-3.72487 -0.18398,-8.47318 -2.00235,-10.55178 -1.81859,-2.07876 -6.15114,-8.57816 -9.62791,-14.44337 -13.52,-23.77804 4.115582,-2.72103 -6.28046,-23.42639 -3.64395,-7.14274 -5.84684,-12.98681 -4.89531,-12.98681 0.9515,0 -1.94694,-5.82493 -6.44131,-12.94428 -4.49424,-7.11937 -8.61127,-15.52021 -9.14893,-18.66854 -0.53765,-3.14835 -3.26077,-10.10731 -6.05135,-15.46437 -2.79059,-5.35706 -4.66608,-12.29106 -4.16777,-15.40894 0.49826,-3.11787 -0.42879,-6.49384 -2.06036,-7.50213 -1.73374,-1.07141 -1.47898,-4.61253 0.61298,-8.52145 2.80606,-5.24316 2.68876,-6.1377 -0.54307,-4.14039 -2.92095,1.80517 -3.51815,0.97315 -2.0491,-2.85493 1.14024,-2.97145 0.658,-5.40265 -1.07163,-5.40265 -1.72963,0 -3.1448,-2.27775 -3.1448,-5.06167 0,-3.03785 -1.51881,-4.12303 -3.79845,-2.71409 -2.51875,1.55668 -3.1309,0.608 -1.81707,-2.81602 1.55777,-4.05959 -0.0476,-5.04116 -7.50687,-4.59097 -5.21858,0.31493 -9.14925,-0.88851 -8.7348,-2.67411 0.41449,-1.78569 1.84932,-2.88145 3.18856,-2.43503 4.63378,1.54457 0.78549,-7.10158 -5.6817305,-12.76558 -4.35651,-3.81544 -5.04353,-5.72249 -2.08763,-5.79495 2.42317,-0.0584 3.63309,-2.12161 2.68875,-4.58242 -0.94436,-2.46094 -0.0779,-6.11348 1.9252905,-8.11676 2.69198,-2.69201 2.17322,-3.64234 -1.9880605,-3.64234 -5.80298,0 -6.4031,-10.17257 -1.09912,-18.63138 1.72855,-2.75665 0.937,-3.41315 -2.51723,-2.08763 -3.57131,1.37033 -5.03870995,-0.0584 -5.03870995,-4.90726 0,-3.76243 1.82637995,-6.86314 4.05837995,-6.89048 2.51338,-0.0303 2.82238,-0.95778 0.81167,-2.43502 -5.13601995,-3.77339 -5.86589995,-17.60824 -1.09154,-20.68931 3.54326,-2.28657 3.56473,-3.2993 0.11688,-5.52674 -2.32156,-1.49997 -4.18927995,-5.5177 -4.15051995284,-8.92843 C 0.03959255,334.11346 0.10665255,322.26719 0.14994255,311.19914 c 0.0628,-15.56692 1.36924995,-20.95253 5.77386995,-23.78374 5.2675405,-3.38594 5.2366505,-3.51551 -0.41254,-1.73049 -5.53973995,1.75062 -5.90081995,0.64328 -3.89066,-11.92999 2.1727,-13.58994 15.7378505,-40.75577 22.7028705,-45.46522 2.47782,-1.6753 2.41036,-2.4001 -0.22662,-2.43503 -2.07139,-0.0281 -3.03742,-2.79152 -2.15494,-6.16592 1.03245,-3.94771 3.64364,-5.58165 7.36506,-4.60848 6.6576,1.7411 10.60202,-5.62569 6.53539,-12.20566 -2.26773,-3.66935 -3.15142,-3.49468 -4.8612,0.96103 -1.94975,5.08113 -2.48567,5.07505 -8.00808,-0.0909 -4.04682,-3.78568 -5.37725,-8.34801 -4.20714,-14.42709 0.94111,-4.88983 3.00519,-8.09089 4.58668,-7.11348 2.56685,1.58634 4.20234,-2.83013 3.32216,-8.97118 -0.17749,-1.23656 3.30231,-5.0994 7.73228,-8.58402 4.43,-3.48464 8.09736,-7.58644 8.1497,-9.11514 0.0519,-1.52876 4.38954,-7.49947 9.63823,-13.26841 6.42079,-7.05722 11.43534,-9.8782 15.32666,-8.62216 4.63355,1.49565 4.85673,1.20951 1.12228,-1.43872 -3.84719,-2.7282 -3.9247,-4.19303 -0.44371,-8.38727 2.31959,-2.79496 5.87819,-4.1331 7.90797,-2.97361 2.02984,1.1595 2.60742,0.91254 1.28374,-0.5487 -1.32379,-1.46123 -0.77964,-4.61754 1.20929,-7.01393 2.65981,-3.20491 2.65236,-4.35712 -0.0281,-4.35712 -4.1116,0 -5.02637,-8.61294 -1.09197,-10.281254 4.54058,-1.92529 16.92792,-21.41317 16.92792,-26.63114 0,-2.78645 3.28728,-6.81059 7.305077,-8.94248 4.01779,-2.1319 9.21421,-6.56636 11.54757,-9.85434 2.33336,-3.28799 7.08166,-5.97816 10.55178,-5.97816 3.47012,0 6.3093,-1.55948 6.3093,-3.46549 0,-1.90601 2.71621,-2.6034 6.03601,-1.54974 7.63624,2.42365 16.69091,-0.93568 16.69091,-6.1924 0,-8.63464 11.74787,-14.04407 33.96543,-15.63973 12.4311,-0.8928 23.14523,-3.25297 23.80918,-5.24482 0.66384,-1.99185 5.14338,-3.62156 9.9543,-3.62156 4.81095,0 11.92791,-2.2278896 15.81552,-4.9508696 9.20617,-6.44825 50.5365,-8.87861 67.42726,-3.96494 7.14277,2.07789 14.44785,3.89268 16.23353,4.03288 1.78569,0.14026 7.25017,2.91589 12.14334,6.1681996 4.89315,3.2523 14.38976,6.39908 21.10357,6.99284 6.71379,0.59375 9.65015,0.32798 6.5252,-0.59062 -3.12495,-0.9186 -5.68173,-3.02408 -5.68173,-4.67883 0,-4.7805396 4.11059,-3.52635 11.24926,3.43228 3.63417,3.5425 10.99066,10.12364 16.34771,14.62475 5.35706,4.50111 7.16678,7.28409 4.02157,6.1844 33.37875,-0.587264 28.35777,13.078636 56.85406,6.57977 3.43738,-1.08955 5.70137,-0.11147 5.73143,2.47621 0.0368,3.15584 0.9041,3.0004 3.30843,-0.59289 2.8386,-4.24228 3.8399,-4.11044 7.76761,1.02275 2.47992,3.24105 7.20047,5.43257 10.4901,4.87006 3.35858,-0.57432 5.64201,0.70637 5.20773,2.92078 -0.42532,2.16895 4.88324,5.46673 11.79694,7.32838 13.1746,3.54756 20.51431,9.93363 21.87284,19.03094 3.18607,21.336074 2.87658,20.754484 20.36353,38.263214 9.85515,9.86738 10.65425,11.94127 7.37469,19.1391 -2.02291,4.43991 -2.37015,8.07256 -0.77163,8.07256 1.59868,0 3.74531,-1.82617 4.77049,-4.05838 1.02509,-2.23211 1.04847,-0.77099 0.052,3.2467 -1.67357,6.74641 0.99414,8.98164 9.17719,7.68958 1.33938,-0.21212 2.43503,1.23288 2.43503,3.20958 0,1.97681 -2.19152,2.7531 -4.87005,1.7253 -2.6784,-1.02791 -4.86993,-0.45368 -4.86993,1.27595 0,1.72963 4.38305,3.1448 9.74011,3.1448 7.66871,0 9.74011,1.42162 9.74011,6.68503 0,3.67674 1.11188,5.99783 2.47082,5.15795 3.4085,-2.10646 12.09161,4.81429 14.67367,11.69562 1.5792,4.20904 0.4751,5.68172 -4.2598,5.68172 -7.26545,0 -8.19609,3.39021 -2.49548,9.09077 5.5503,5.55032 10.13958,4.8188 7.81256,-1.24522 -1.26427,-3.29437 -0.51428,-4.60651 2.08763,-3.65254 2.2333,0.81882 3.63559,3.3117 3.11614,5.53967 -0.5199,2.22967 1.00085,3.30432 3.38272,2.39036 2.37992,-0.91319 7.10197,0.3686 10.49341,2.84839 3.39144,2.47988 4.42599,4.50887 2.29901,4.50887 -2.12702,0 -3.86723,1.54716 -3.86723,3.43832 0,1.8911 1.46101,2.53535 3.2467,1.4318 4.60157,-2.84394 4.03275,2.72422 -0.81168,7.94527 -3.30609,3.5631 -3.04642,4.01911 1.40085,2.45996 4.13244,-1.44868 5.15654,-0.34199 4.2137,4.55372 -0.68506,3.55719 0.51081,7.14482 2.65753,7.97251 2.14672,0.82769 4.22039,6.23382 4.6082,12.01365 0.38787,5.7798 1.42573,14.16129 2.3062,18.62551 0.8805,4.46421 0.80669,6.29048 -0.1645,4.05838 8.95496,36.74897 10.43241,45.68053 12.20862,46.54109 1.8517,1.14435 2.64563,4.83785 1.76447,8.20771 -0.88115,3.36984 -0.0996,6.12698 1.73807,6.12698 2.18445,0 2.11274,1.47898 -0.20779,4.27418 -1.95105,2.3508 -3.91013,9.03645 -4.35363,14.85701 -0.75584,9.91985 -5.88097,18.40766 -5.88097,9.73961 0,-2.18869 -0.87683,-3.10261 -1.94846,-2.03092 -1.07163,1.07163 -0.77553,3.84626 0.658,6.16577 1.43353,2.31951 2.93866,6.43451 3.34465,9.14445 0.40605,2.70991 1.70581,9.9751 2.88863,16.14483 2.2273,11.61876 -3.58713,35.5743 -9.67667,39.86815 -2.05343,1.44781 -1.40517,2.40483 1.64955,2.43503 2.76781,0.026 6.99995,-1.7766 9.40472,-4.00867 3.52702,-3.27375 3.886,-3.20356 1.85668,0.36299 -1.48093,2.60277 -0.67531,5.72335 1.95863,7.58672 3.29878,2.33371 2.55504,2.7447 -2.83074,1.56426 -7.39733,-1.62119 -10.02718,2.21886 -4.04961,5.91322 2.1762,1.345 2.1762,4.0287 0,8.09494 -1.79045,3.3456 -3.25547,12.57465 -3.25547,20.50899 -9.51979,7.53135 0.63702,26.86014 -7.82196,35.56607 -2.51634,2.51639 -5.10784,8.09954 -5.7588,12.40703 -0.65107,4.30751 -2.82535,7.51651 -4.8319,7.13117 -2.09563,-0.40259 -2.9598,1.93222 -2.03048,5.48617 0.88981,3.40278 -2.37618,14.67568 -7.25779,25.05095 -4.88164,10.37525 -9.22215,22.51662 -9.64559,26.98084 -1.84997,19.50307 -5.70028,24.04863 -20.02579,23.64195 -2.09088,-0.0584 -3.03357,1.89369 -2.09477,4.33993 0.93873,2.44632 3.02179,3.63516 4.62902,2.64184 2.92216,-1.80603 -7.49662,19.00551 -17.17662,34.31033 -2.82353,4.46422 -6.00276,11.88317 -7.06495,16.48656 -1.06211,4.60337 -5.46574,12.18356 -9.78563,16.84481 -4.31991,4.66127 -6.97574,9.35362 -5.90186,10.4275 1.0738,1.07379 -0.90583,2.76554 -4.39913,3.7592 -6.08549,1.73093 -28.66087,28.18917 -35.63693,41.76628 -4.2439,8.25963 -3.49811,22.08033 1.27747,23.67216 2.01165,0.67056 3.65765,4.01951 3.65765,7.44205 0,3.42259 1.46101,6.22287 3.2467,6.22287 1.78569,0 3.2467,-3.00826 3.2467,-6.68503 0,-3.80414 1.45604,-5.7851 3.37878,-4.59681 1.8582,1.14847 2.59173,4.56792 1.62984,7.59867 -1.51685,4.77945 3.54408,16.28849 23.0354,52.38371 8.43797,13.78899 24.58046,40.33257 27.0466,58.98692 0.0563,2.97891 2.42132,13.13434 3.50529,15.9589 -4.37989,8.14265 -14.75889,21.85682 -27.63773,22.45539 -44.08592,1.58347 -51.68513,-6.78952 -58.47394,-32.31471 z M 408.36763,686.02546 c 4.75295,-7.42936 35.78039,-21.52291 39.40462,-17.89868 6.10701,6.10703 13.31105,-0.32878 17.06762,-15.24736 2.04174,-8.10853 4.81992,-14.74282 6.17373,-14.74282 3.34274,0 16.33297,-30.70167 17.75951,-41.97359 0.63245,-4.99678 4.02522,-14.76377 7.53962,-21.70447 6.25393,-12.35102 12.2758,-32.94538 11.04749,-37.7814 -0.34025,-1.33938 2.66879,-2.60451 6.68658,-2.81165 5.49721,-0.28333 5.89896,-0.74414 1.62336,-1.86144 -6.65936,-1.74023 -6.64092,-1.55799 -2.41211,-23.85649 3.78273,-19.94625 4.79395,-21.54577 10.58362,-16.74078 3.27891,2.72126 4.38558,2.01058 4.7677,-3.06199 0.35692,-4.73862 -0.93007,-6.05802 -4.55311,-4.66772 -3.82661,1.46838 -4.47595,0.55216 -2.67916,-3.78044 1.30431,-3.14521 2.44105,-7.74526 2.52598,-10.22237 0.0844,-2.47712 2.9564,-5.23661 6.38113,-6.13218 4.45126,-1.16405 5.07629,-2.33938 2.19205,-4.12192 -4.02104,-2.48516 -1.2489,-11.24145 11.25989,-35.56596 5.41201,-10.52426 4.75423,-66.93727 -0.76666,-65.74573 -2.06836,0.44653 -3.76078,-2.76827 -3.76078,-7.14377 0,-4.37547 -2.15019,-9.15877 -4.77843,-10.62957 -2.62815,-1.47076 -5.26901,-5.88876 -5.86861,-9.81777 -0.59956,-3.92898 -1.96989,-8.02331 -3.04509,-9.09849 -2.26243,-2.26246 7.66995,-20.88818 11.15522,-20.91885 1.2831,-0.01 1.57811,-1.98785 0.6554,-4.39253 -1.47941,-3.85514 -3.09703,-14.33346 -4.24171,-27.47497 -0.20346,-2.33749 -1.92897,-3.28663 -3.83403,-2.10927 -1.90517,1.17747 -3.19305,0.16883 -2.86203,-2.24343 1.27725,-9.30514 -0.39956,-12.50093 -6.55906,-12.50093 -4.29792,0 -5.78984,-1.56794 -4.55471,-4.78663 1.01016,-2.63265 -0.3922,-7.0157 -3.11666,-9.74011 -5.56978,-5.56976 -10.10807,-6.66992 -7.04067,-1.70669 1.10366,1.78569 0.41341,3.24671 -1.53374,3.24671 -1.94716,0 -4.51684,-2.55678 -5.71052,-5.68173 -1.1937,-3.12495 -7.09545,-10.76079 -13.11503,-16.96851 -6.01959,-6.20771 -9.46219,-11.78092 -7.65028,-12.38489 -19.47085,-27.10379 -5.80293,-3.63288 -27.49167,-31.33963 -0.37553,-2.55938 -4.66272,-8.76099 -9.52703,-13.7815 -4.86428,-5.02048 -7.84257,-7.30188 -6.61836,-5.06977 1.22422,2.23211 1.04392,4.036 -0.40086,4.00866 -4.01271,-0.0758 -12.8266,-6.32676 -9.12006,-6.46791 1.78569,-0.0671 -1.57443,-2.49963 -7.46676,-5.40361 -6.78784,-3.34528 -10.07138,-6.95321 -8.96114,-9.84647 1.13613,-2.96041 -1.66058,-5.75624 -7.95122,-7.94919 -5.33693,-1.86058 -8.99046,-4.53642 -8.11898,-5.94655 0.87141,-1.41015 -0.22597,-2.37641 -2.43886,-2.14737 -9.70113,1.00431 -28.03539,-9.09979 -29.88519,-16.46998 -2.20379,-8.780694 -8.22863,-6.931864 -8.22863,2.52509 0,3.46598 -1.20799,6.30178 -2.68442,6.30178 -1.47638,0 -1.98828,-4.74345 -1.13721,-10.54102 1.25864,-8.575114 0.69955,-9.937534 -2.99734,-7.305084 -2.49944,1.77984 -11.80884,3.23594 -20.68753,3.23594 -13.1204,0 -17.67986,1.5818 -24.35027,8.447384 -4.51402,4.64608 -10.03353,7.81161 -12.26563,7.03452 -2.23211,-0.77704 -4.05838,0.16883 -4.05838,2.1043 0,1.9346 -1.51232,3.51726 -3.36092,3.51726 -2.26564,0 -2.21503,-2.14109 0.15584,-6.57005 2.6984,-5.04202 2.40135,-7.6849 -1.27726,-11.36346 -6.38619,-6.385634 -9.33234,-6.146684 -40.9715,3.32335 -14.91485,4.46422 -31.81769,8.11676 -37.56187,8.11676 -6.49245,0 -11.18353,1.92724 -12.39866,5.09392 -1.33678,3.48354 -4.11392,4.40861 -8.78465,2.92619 -5.81668,-1.84608 -6.50907,-1.15691 -4.66726,4.64618 1.18937,3.74767 0.76146,6.81392 -0.95085,6.81392 -1.71253,0 -4.03024,3.65254 -5.1507,8.11676 -1.12055,4.46422 -3.64925,8.11678 -5.61957,8.11678 -2.4215,0 -2.28375,1.56469 0.4251,4.82869 5.06406,6.10181 1.97725,14.65152 -5.28987,14.65152 -5.835,0 -17.40272,8.9038 -17.40272,13.39508 0,2.86545 -18.51848,30.74293 -25.1918,37.92343 -2.24851,2.41942 -3.25806,5.74216 -2.2434,7.38388 1.0147,1.64175 0.58094,2.98496 -0.96384,2.98496 -3.40439,0 -3.14446,27.95833 0.35454,38.14876 1.57248,4.57971 1.21556,7.30508 -0.95713,7.30508 -1.90603,0 -3.46551,2.11879 -3.46551,4.70871 0,2.58981 -2.10841,5.88863 -4.68527,7.33073 -2.57689,1.44219 -5.562447,7.60107 -6.634567,13.68658 -1.07207,6.08552 -2.89005,12.58676 -4.03985,14.44718 -3.92605,6.3525 -3.68174,18.2424 0.45994,22.38407 2.27451,2.27451 3.76553,6.656 3.31339,9.73662 -0.45215,3.08064 0.66471,6.52014 2.48209,7.64326 2.074417,1.28201 1.66491,3.06246 -1.10085,4.78388 -3.54873,2.2088 -3.62798,3.99576 -0.40757,9.19246 2.19851,3.54786 4.954767,12.7238 6.124947,20.39098 1.17011,7.66715 3.5681,15.76655 5.32866,17.99866 -24.970604,35.76464 -21.75507,-23.14784 3.8471,10.257 -7.0013,14.78001 -4.82689,8.24801 -3.33523,8.75681 4.49519,1.72509 4.77872,2.75622 1.35453,4.92677 -3.35584,2.12724 -3.39904,2.75636 -0.19264,2.79489 3.61486,0.0433 9.98045,11.55538 11.69679,21.15328 0.31926,1.78569 1.7214,5.07298 3.11592,7.30509 1.39435,2.2321 1.49284,5.74514 0.21861,7.80674 -1.49889,2.42517 -0.88331,2.86248 1.74392,1.23894 2.80361,-1.73266 3.69416,-0.63181 2.87705,3.55674 -1.30907,6.71076 6.67366,18.04708 10.87843,15.44842 2.42868,-1.50106 3.86193,4.05974 3.58256,13.89965 -0.0584,2.09088 1.7701,3.08099 4.06528,2.20023 4.92605,-1.89023 9.467,9.98835 6.07222,15.88434 -1.29435,2.24808 -1.15777,3.00432 0.30346,1.68049 3.77556,-3.42034 11.37104,3.71973 11.37104,10.68925 0,3.22519 2.06491,7.92882 4.58861,10.45255 5.56589,5.56603 18.13827,28.57472 18.13827,33.19498 0,1.82897 2.92203,5.15035 6.4934,7.3807 3.57138,2.23036 6.49341,5.88758 6.49341,8.12715 0,2.23953 3.71293,6.86022 8.25096,10.26811 4.77437,3.5854 7.49486,8.16643 6.45659,10.87221 -1.17444,3.06062 -0.22467,4.07366 2.74922,2.93244 2.62648,-1.00777 8.34812,2.81944 13.5604,9.07077 4.95927,5.94783 10.96682,10.06599 13.35011,9.15142 2.42525,-0.93072 4.33327,0.47964 4.33327,3.20261 0,2.676 3.55516,5.75775 7.90037,6.84834 4.3452,1.09067 8.75634,4.67977 9.80251,7.97602 2.17445,6.85108 16.8884,14.66808 19.53849,10.38012 0.96773,-1.56578 -0.0758,-3.58691 -2.31908,-4.49129 -2.62472,-1.05821 -2.19793,-1.73569 1.19739,-1.90062 3.39592,-0.1645 5.9951,3.33964 7.29423,9.8353 1.54716,7.73607 3.28649,9.605 7.45132,8.00678 2.99566,-1.14955 6.6419,-0.21429 8.12764,2.08351 2.18235,3.37593 3.22168,3.35197 5.46717,-0.12553 1.94217,-3.00838 6.32827,-3.62739 14.64574,-2.06707 7.74696,1.45344 13.57447,0.81557 16.76857,-1.83526 3.95799,-3.28488 5.97162,-3.12432 10.5162,0.83852 3.63072,3.16592 11.55365,4.74915 22.37747,4.47168 9.2162,-0.23636 15.97304,0.8383 15.01526,2.38808 -0.95778,1.54976 1.36362,1.83223 5.15858,0.6277 9.20355,-2.9211 8.86888,0.91211 -0.40519,4.63982 l -7.30508,2.9363 7.14374,0.20562 c 3.92907,0.11255 8.31212,-1.62054 9.74011,-3.85258 z"
     id="path3400"
     inkscape:connector-curvature="0"
     sodipodi:nodetypes="ccccscsscsscsccssccsccsscsssssccccsssccsscccscsscssscssccsssscscsscscsscccscsccscssscccscssscsccscsssssssscssscsssssscccssscssssscccscsssccsscscscsscscsscsccsscsscsccccssscscccccsssccsscsscssssscsccccccssscsccsssssccssscsssccccccscscsssccssccsccccsssccsscssccsscscscsssssssssscsssscscscccscccccccccccssssssscscscscccsscccsscscscccc" />
</svg>
