<?xml version="1.0" encoding="UTF-8" standalone="no"?>
<!-- Created with Inkscape (http://www.inkscape.org/) -->

<svg
   xmlns:dc="http://purl.org/dc/elements/1.1/"
   xmlns:cc="http://creativecommons.org/ns#"
   xmlns:rdf="http://www.w3.org/1999/02/22-rdf-syntax-ns#"
   xmlns:svg="http://www.w3.org/2000/svg"
   xmlns="http://www.w3.org/2000/svg"
   xmlns:sodipodi="http://sodipodi.sourceforge.net/DTD/sodipodi-0.dtd"
   xmlns:inkscape="http://www.inkscape.org/namespaces/inkscape"
   id="svg3390"
   version="1.1"
   inkscape:version="0.91 r13725"
   width="632.48944"
   height="930.00098"
   viewBox="0 0 632.48945 930.00099"
   sodipodi:docname="Q.svg">
  <metadata
     id="metadata3396">
    <rdf:RDF>
      <cc:Work
         rdf:about="">
        <dc:format>image/svg+xml</dc:format>
        <dc:type
           rdf:resource="http://purl.org/dc/dcmitype/StillImage" />
        <dc:title></dc:title>
      </cc:Work>
    </rdf:RDF>
  </metadata>
  <defs
     id="defs3394" />
  <sodipodi:namedview
     pagecolor="#ffffff"
     bordercolor="#666666"
     borderopacity="1"
     objecttolerance="10"
     gridtolerance="10"
     guidetolerance="10"
     inkscape:pageopacity="0"
     inkscape:pageshadow="2"
     inkscape:window-width="1839"
     inkscape:window-height="1007"
     id="namedview3392"
     showgrid="false"
     fit-margin-top="0"
     fit-margin-left="0"
     fit-margin-right="0"
     fit-margin-bottom="0"
     inkscape:zoom="0.78600045"
     inkscape:cx="-35.765501"
     inkscape:cy="652.29937"
     inkscape:window-x="0"
     inkscape:window-y="0"
     inkscape:window-maximized="0"
     inkscape:current-layer="svg3390" />
  <path
     style="fill:#000000"
     d="m 469.48326,894.77812 c -15.80094,-30.84507 -27.22319,-58.6355 -40.57169,-90.84064 -7.87849,-15.30826 -14.25008,-19.08654 -28.99612,-16.5102 -8.41362,1.53851 -17.47707,1.16427 -23.08763,-0.95366 -24.95379,-4.75242 -31.8249,-0.62023 -45.15547,-8.72919 -3.03683,0 -8.35381,-2.55678 -11.81546,-5.68173 -3.46172,-3.12484 -11.40755,-5.85543 -17.65746,-6.06785 -43.86451,-9.7592 -105.05843,-31.36401 -135.77625,-63.73615 -2.90132,-3.12495 -7.18779,-5.68173 -9.52552,-5.68173 C 143.33246,686.72235 105.532,652.26296 107.8606,640.51726 103.45495,633.18245 94.348493,615.61078 87.591813,604.5786 74.90563,580.83217 77.135648,578.36505 66.788133,553.72203 c 0.9515,0 -1.94694,-5.82493 -6.44131,-12.94428 -4.49424,-7.11937 -8.61127,-15.52021 -9.14893,-18.66854 -0.53765,-3.14835 -3.26077,-10.10731 -6.05135,-15.46437 C 28.69311,476.52822 16.006215,444.58464 8.9735525,419.37951 7.0085786,389.37408 0.16785918,365.29904 5.9254716e-4,337.52416 0.03959255,334.11346 0.10665255,322.26719 0.14994255,311.19914 0.10478395,285.66944 -0.53592372,287.42581 1.6206125,273.75492 10.401331,237.39093 8.4746921,185.29461 34.407073,164.64897 c 4.43,-3.48464 8.09736,-7.58644 8.1497,-9.11514 0.0519,-1.52876 4.38954,-7.49947 9.63823,-13.26841 13.261926,-28.561 18.426761,-42.11315 42.21408,-70.253904 0,-2.78645 3.28728,-6.81059 7.305077,-8.94248 4.01779,-2.1319 9.21421,-6.56636 11.54757,-9.85434 2.33336,-3.28799 7.08166,-5.97816 10.55178,-5.97816 27.44645,-14.020828 44.73946,-24.81887 63.00165,-26.84736 15.8231,-5.216025 29.76108,-9.825463 49.579,-13.8172496 9.20617,-6.44825 50.5365,-8.87861 67.42726,-3.96494 7.14277,2.07789 14.44785,3.89268 16.23353,4.03288 65.27906,-0.2697136 132.75579,34.3911926 166.86522,56.7380796 27.66159,11.903017 29.21697,44.248174 42.23637,57.294154 32.43824,40.2869 58.54473,73.94603 79.19856,119.94739 2.14672,0.82769 4.22039,6.23382 4.6082,12.01365 0.38787,5.7798 1.42573,14.16129 2.3062,18.62551 0.8805,4.46421 0.80669,6.29048 -0.1645,4.05838 8.95496,36.74897 10.43241,45.68053 12.20862,46.54109 1.8517,1.14435 2.64563,4.83785 1.76447,8.20771 -0.88115,3.36984 -0.0996,6.12698 1.73807,6.12698 2.18445,0 2.11274,1.47898 -0.20779,4.27418 -2.53869,27.17776 -6.86945,20.26997 -5.29178,54.02075 -2.56268,29.58733 4.38495,36.43451 -1.68744,61.81664 -1.79045,3.3456 -3.25547,12.57465 -3.25547,20.50899 -9.51979,7.53135 0.63702,26.86014 -7.82196,35.56607 -2.51634,2.51639 -5.10784,8.09954 -5.7588,12.40703 -0.65107,4.30751 -2.82535,7.51651 -4.8319,7.13117 -2.09563,-0.40259 -2.9598,1.93222 -2.03048,5.48617 0.88981,3.40278 -2.37618,14.67568 -7.25779,25.05095 -4.88164,10.37525 -9.22215,22.51662 -9.64559,26.98084 -19.1676,27.10792 -16.81999,36.42346 -34.66816,64.93405 -2.82353,4.46422 -6.00276,11.88317 -7.06495,16.48656 -1.06211,4.60337 -5.46574,12.18356 -9.78563,16.84481 -10.8235,21.54518 -32.82962,31.54728 -45.93792,55.95298 14.42952,37.8032 15.49089,41.51838 39.47254,86.03762 8.43797,13.78899 24.58046,40.33257 27.0466,58.98692 0.0563,2.97891 2.42132,13.13434 3.50529,15.9589 -4.37989,8.14265 -14.75889,21.85682 -27.63773,22.45539 -44.08592,1.58347 -51.68513,-6.78952 -58.47394,-32.31471 z m -4.64339,-241.8987 c 2.04174,-8.10853 4.81992,-14.74282 6.17373,-14.74282 3.34274,0 16.33297,-30.70167 17.75951,-41.97359 0.63245,-4.99678 4.02522,-14.76377 7.53962,-21.70447 6.25393,-12.35102 12.2758,-32.94538 11.04749,-37.7814 3.14033,-9.93355 2.1292,-8.62338 5.89783,-28.52958 18.31311,-34.23317 11.89471,-47.95264 30.4781,-84.29336 12.62964,-68.87127 -10.63182,-157.0692 -58.97711,-207.71227 -6.01959,-6.20771 -9.46219,-11.78092 -7.65028,-12.38489 -19.47095,-27.1038 -15.56008,-4.50791 -27.49167,-31.33963 -0.37553,-2.55938 -4.66272,-8.76099 -9.52703,-13.7815 -14.89493,-13.47427 -25.66699,-25.38424 -40.5184,-30.72829 -26.66479,-10.23116 -59.03163,-29.959595 -76.17816,-30.347194 -52.49922,10.471614 -22.5248,3.429324 -45.15662,3.169954 -6.38619,-6.385634 -9.33234,-6.146684 -40.9715,3.32335 -14.91485,4.46422 -31.81769,8.11676 -37.56187,8.11676 -6.49245,0 -11.18353,1.92724 -12.39866,5.09392 -13.18095,5.44383 -15.52658,7.17689 -19.55346,22.50305 -12.08839,16.86096 -26.68115,27.64606 -27.88706,40.99207 0,2.86545 -18.51848,30.74293 -25.1918,37.92343 -12.90451,33.6254 -14.05993,57.39845 -18.595177,81.5487 -1.07207,6.08552 -2.89005,12.58676 -4.03985,14.44718 -3.92605,6.3525 -3.68174,18.2424 0.45994,22.38407 2.27451,2.27451 3.76553,6.656 3.31339,9.73662 2.586845,14.61429 4.068489,25.64714 7.098617,42.01058 26.53937,57.52256 30.96734,118.0686 67.51631,156.04985 5.56589,5.56603 18.13827,28.57472 18.13827,33.19498 0,1.82897 2.92203,5.15035 6.4934,7.3807 3.57138,2.23036 6.49341,5.88758 6.49341,8.12715 0,2.23953 3.71293,6.86022 8.25096,10.26811 3.05708,15.10922 14.77069,13.45949 22.76621,22.87542 11.70324,3.30134 16.39917,16.72376 25.58375,19.20237 4.3452,1.09067 8.75634,4.67977 9.80251,7.97602 35.97896,24.69809 38.68923,17.61495 61.4029,21.7212 19.88031,3.95731 32.68599,3.8027 49.66224,3.47494 28.99131,-3.13781 79.55537,-2.65773 85.82046,-26.20143 z"
     id="path3400"
     inkscape:connector-curvature="0"
     sodipodi:nodetypes="cccccccccccccscccccccccsscccscccccsccsscccccccsscccccccccccscsccccccccccsscccccsscccsssccccccc" />
</svg>
