<?xml version="1.0" encoding="UTF-8" standalone="no"?>
<!-- Created with Inkscape (http://www.inkscape.org/) -->

<svg
   xmlns:dc="http://purl.org/dc/elements/1.1/"
   xmlns:cc="http://creativecommons.org/ns#"
   xmlns:rdf="http://www.w3.org/1999/02/22-rdf-syntax-ns#"
   xmlns:svg="http://www.w3.org/2000/svg"
   xmlns="http://www.w3.org/2000/svg"
   xmlns:sodipodi="http://sodipodi.sourceforge.net/DTD/sodipodi-0.dtd"
   xmlns:inkscape="http://www.inkscape.org/namespaces/inkscape"
   id="svg3390"
   version="1.1"
   inkscape:version="0.91 r13725"
   width="632.48944"
   height="930.00098"
   viewBox="0 0 632.48945 930.00099"
   sodipodi:docname="Q.svg">
  <metadata
     id="metadata3396">
    <rdf:RDF>
      <cc:Work
         rdf:about="">
        <dc:format>image/svg+xml</dc:format>
        <dc:type
           rdf:resource="http://purl.org/dc/dcmitype/StillImage" />
        <dc:title></dc:title>
      </cc:Work>
    </rdf:RDF>
  </metadata>
  <defs
     id="defs3394" />
  <sodipodi:namedview
     pagecolor="#ffffff"
     bordercolor="#666666"
     borderopacity="1"
     objecttolerance="10"
     gridtolerance="10"
     guidetolerance="10"
     inkscape:pageopacity="0"
     inkscape:pageshadow="2"
     inkscape:window-width="1585"
     inkscape:window-height="863"
     id="namedview3392"
     showgrid="false"
     fit-margin-top="0"
     fit-margin-left="0"
     fit-margin-right="0"
     fit-margin-bottom="0"
     inkscape:zoom="0.55578625"
     inkscape:cx="-93.857593"
     inkscape:cy="510.3079"
     inkscape:window-x="0"
     inkscape:window-y="0"
     inkscape:window-maximized="0"
     inkscape:current-layer="svg3390" />
  <path
     style="fill:#000000"
     d="m 516.48183,927.44907 c 4.24022,-3.05022 4.16526,-3.50969 -0.57986,-3.553 -7.07703,-0.0649 -15.68216,-8.7543 -15.55049,-15.70346 0.0887,-4.73148 0.73159,-4.61915 4.87005,0.85237 2.62173,3.46624 4.76681,5.06609 4.76681,3.55518 0,-1.5108 3.17315,0.0368 7.05147,3.43783 4.30422,3.77526 5.91696,4.28757 4.13942,1.31491 -1.60171,-2.67853 -2.49843,-7.38553 -1.99283,-10.46001 0.71189,-4.32982 -1.50192,-5.61584 -9.82115,-5.70487 -5.90718,-0.0628 -12.93183,-0.20995 -15.61036,-0.32683 -2.67853,-0.11688 -8.04667,0.76579 -11.92921,1.96079 -5.68629,1.75041 -8.08662,0.18615 -12.34242,-8.04386 -2.9058,-5.61919 -4.37675,-13.07291 -3.26876,-16.56383 1.31578,-4.14584 0.25432,-7.0226 -3.0608,-8.29472 -2.79138,-1.07119 -4.2669,-3.25549 -3.27893,-4.85404 0.98808,-1.59867 0.39328,-2.90651 -1.32141,-2.90651 -4.37649,0 -18.13565,-23.16494 -17.83797,-30.032 0.13636,-3.12495 -0.91795,-5.68173 -2.34102,-5.68173 -1.42314,0 -1.99911,-4.7483 -1.28029,-10.55178 0.78982,-6.3765 0.24589,-8.85922 -1.37508,-6.2743 -1.94175,3.09655 -3.82107,1.5279 -6.80743,-5.68173 -2.26886,-5.47758 -5.49519,-9.95922 -7.16965,-9.95922 -1.67443,0 -2.23607,-1.30798 -1.24803,-2.90651 2.95495,-4.78122 -5.8421,-6.33923 -20.57844,-3.64447 -8.41362,1.53851 -17.47707,1.16427 -23.08763,-0.95366 -6.58176,-2.48433 -11.43664,-2.48399 -16.89108,10e-4 -6.16562,2.80924 -9.12194,2.29938 -15.19868,-2.6213 -4.14933,-3.35988 -10.02887,-6.10889 -13.06571,-6.10889 -3.03683,0 -8.35381,-2.55678 -11.81546,-5.68173 -3.46172,-3.12484 -11.40755,-5.85543 -17.65746,-6.06785 -6.2499,-0.21211 -14.17865,-1.56361 -17.61946,-3.00274 -6.1769,-2.58347 -6.1769,-2.64756 0,-5.06733 5.4719,-2.14369 5.54389,-2.47937 0.57423,-2.67896 -3.12495,-0.12554 -5.68173,-2.41972 -5.68173,-5.09825 0,-6.27257 -2.42494,-6.15562 -9.01538,0.43484 -3.47709,3.47709 -5.7277,4.03641 -6.53206,1.62335 -0.67488,-2.02486 -2.97292,-3.68152 -5.10663,-3.68152 -2.13373,0 -8.95177,-3.47668 -15.15128,-7.72596 -8.07111,-5.53213 -13.19527,-6.99518 -18.04552,-5.15246 -11.62283,4.41584 -37.8165,-10.35704 -59.19842,-33.38712 -2.90132,-3.12495 -7.18779,-5.68173 -9.52552,-5.68173 -2.33772,0 -5.08815,-2.18314 -6.11205,-4.85141 -1.02401,-2.66828 -3.0518,-4.11585 -4.50643,-3.21686 -5.71283,3.53075 -24.58886,-21.87918 -20.80331,-28.0043 1.52141,-2.46178 1.02791,-3.04015 -1.34348,-1.57444 -2.06166,1.27422 -3.74834,1.01622 -3.74834,-0.57315 0,-1.58937 -3.5898,-4.8109 -7.97733,-7.159 -6.64033,-3.55382 -7.40224,-5.34386 -4.54612,-10.68055 1.8872,-3.52618 2.18964,-5.73614 0.67229,-4.91109 -3.39969,1.84846 -14.315517,-9.18129 -11.687397,-11.80943 1.04155,-1.04176 -0.45713,-1.89391 -3.33083,-1.89391 -3.54889,0 -4.8064,-2.1723 -3.9205,-6.77245 0.7173,-3.72487 -0.18398,-8.47318 -2.00235,-10.55178 -1.81859,-2.07876 -6.15114,-8.57816 -9.62791,-14.44337 -3.47678,-5.86519 -9.46866,-11.82826 -13.31529,-13.25122 -5.72324,-2.11707 -6.06326,-2.94431 -1.87161,-4.55281 2.94253,-1.1292 5.88415,0.0195 6.91249,2.6994 0.98461,2.56578 3.32672,4.66505 5.20474,4.66505 1.87811,0 0.43311,-5.84406 -3.21079,-12.98681 -3.64395,-7.14274 -5.84684,-12.98681 -4.89531,-12.98681 0.9515,0 -1.94694,-5.82493 -6.44131,-12.94428 -4.49424,-7.11937 -8.61127,-15.52021 -9.14893,-18.66854 -0.53765,-3.14835 -3.26077,-10.10731 -6.05135,-15.46437 -2.79059,-5.35706 -4.66608,-12.29106 -4.16777,-15.40894 0.49826,-3.11787 -0.42879,-6.49384 -2.06036,-7.50213 -1.73374,-1.07141 -1.47898,-4.61253 0.61298,-8.52145 2.80606,-5.24316 2.68876,-6.1377 -0.54307,-4.14039 -2.92095,1.80517 -3.51815,0.97315 -2.0491,-2.85493 1.14024,-2.97145 0.658,-5.40265 -1.07163,-5.40265 -1.72963,0 -3.1448,-2.27775 -3.1448,-5.06167 0,-3.03785 -1.51881,-4.12303 -3.79845,-2.71409 -2.51875,1.55668 -3.1309,0.608 -1.81707,-2.81602 1.55777,-4.05959 -0.0476,-5.04116 -7.50687,-4.59097 -5.21858,0.31493 -9.14925,-0.88851 -8.7348,-2.67411 0.41449,-1.78569 1.84932,-2.88145 3.18856,-2.43503 4.63378,1.54457 0.78549,-7.10158 -5.6817305,-12.76558 -4.35651,-3.81544 -5.04353,-5.72249 -2.08763,-5.79495 2.42317,-0.0584 3.63309,-2.12161 2.68875,-4.58242 -0.94436,-2.46094 -0.0779,-6.11348 1.9252905,-8.11676 2.69198,-2.69201 2.17322,-3.64234 -1.9880605,-3.64234 -5.80298,0 -6.4031,-10.17257 -1.09912,-18.63138 1.72855,-2.75665 0.937,-3.41315 -2.51723,-2.08763 -3.57131,1.37033 -5.03870995,-0.0584 -5.03870995,-4.90726 0,-3.76243 1.82637995,-6.86314 4.05837995,-6.89048 2.51338,-0.0303 2.82238,-0.95778 0.81167,-2.43502 -5.13601995,-3.77339 -5.86589995,-17.60824 -1.09154,-20.68931 3.54326,-2.28657 3.56473,-3.2993 0.11688,-5.52674 -2.32156,-1.49997 -4.18927995,-5.5177 -4.15051995284,-8.92843 C 0.03959255,334.11346 0.10665255,322.26719 0.14994255,311.19914 c 0.0628,-15.56692 1.36924995,-20.95253 5.77386995,-23.78374 5.2675405,-3.38594 5.2366505,-3.51551 -0.41254,-1.73049 -5.53973995,1.75062 -5.90081995,0.64328 -3.89066,-11.92999 2.1727,-13.58994 15.7378505,-40.75577 22.7028705,-45.46522 2.47782,-1.6753 2.41036,-2.4001 -0.22662,-2.43503 -2.07139,-0.0281 -3.03742,-2.79152 -2.15494,-6.16592 1.03245,-3.94771 3.64364,-5.58165 7.36506,-4.60848 6.6576,1.7411 10.60202,-5.62569 6.53539,-12.20566 -2.26773,-3.66935 -3.15142,-3.49468 -4.8612,0.96103 -1.94975,5.08113 -2.48567,5.07505 -8.00808,-0.0909 -4.04682,-3.78568 -5.37725,-8.34801 -4.20714,-14.42709 0.94111,-4.88983 3.00519,-8.09089 4.58668,-7.11348 2.56685,1.58634 4.20234,-2.83013 3.32216,-8.97118 -0.17749,-1.23656 3.30231,-5.0994 7.73228,-8.58402 4.43,-3.48464 8.09736,-7.58644 8.1497,-9.11514 0.0519,-1.52876 4.38954,-7.49947 9.63823,-13.26841 6.42079,-7.05722 11.43534,-9.8782 15.32666,-8.62216 4.63355,1.49565 4.85673,1.20951 1.12228,-1.43872 -3.84719,-2.7282 -3.9247,-4.19303 -0.44371,-8.38727 2.31959,-2.79496 5.87819,-4.1331 7.90797,-2.97361 2.02984,1.1595 2.60742,0.91254 1.28374,-0.5487 -1.32379,-1.46123 -0.77964,-4.61754 1.20929,-7.01393 2.65981,-3.20491 2.65236,-4.35712 -0.0281,-4.35712 -4.1116,0 -5.02637,-8.61294 -1.09197,-10.281254 4.54058,-1.92529 16.92792,-21.41317 16.92792,-26.63114 0,-2.78645 3.28728,-6.81059 7.305077,-8.94248 4.01779,-2.1319 9.21421,-6.56636 11.54757,-9.85434 2.33336,-3.28799 7.08166,-5.97816 10.55178,-5.97816 3.47012,0 6.3093,-1.55948 6.3093,-3.46549 0,-1.90601 2.71621,-2.6034 6.03601,-1.54974 7.63624,2.42365 16.69091,-0.93568 16.69091,-6.1924 0,-8.63464 11.74787,-14.04407 33.96543,-15.63973 12.4311,-0.8928 23.14523,-3.25297 23.80918,-5.24482 0.66384,-1.99185 5.14338,-3.62156 9.9543,-3.62156 4.81095,0 11.92791,-2.2278896 15.81552,-4.9508696 9.20617,-6.44825 50.5365,-8.87861 67.42726,-3.96494 7.14277,2.07789 14.44785,3.89268 16.23353,4.03288 1.78569,0.14026 7.25017,2.91589 12.14334,6.1681996 4.89315,3.2523 14.38976,6.39908 21.10357,6.99284 6.71379,0.59375 9.65015,0.32798 6.5252,-0.59062 -3.12495,-0.9186 -5.68173,-3.02408 -5.68173,-4.67883 0,-4.7805396 4.11059,-3.52635 11.24926,3.43228 3.63417,3.5425 10.99066,10.12364 16.34771,14.62475 5.35706,4.50111 7.16678,7.28409 4.02157,6.1844 -4.30063,-1.50368 -5.22256,-0.70689 -3.71819,3.21346 1.1002,2.8671 3.08815,4.54062 4.41768,3.71893 1.32941,-0.82167 5.46989,2.01686 9.20087,6.30784 4.52545,5.20472 5.49888,8.24801 2.92424,9.14222 -2.12269,0.73722 0.88895,2.40622 6.69243,3.70889 5.80348,1.30257 10.55178,3.7134 10.55178,5.35721 0,4.53023 -15.45532,3.5763 -17.32999,-1.06968 -0.90063,-2.23211 -1.753,-0.19697 -1.89391,4.5227 -0.14718,4.94477 1.87876,9.40041 4.78237,10.51457 3.14095,1.2054 4.21619,0.60281 2.85489,-1.59997 -1.52227,-2.46317 -0.12337,-2.43025 4.62162,0.10822 5.94965,3.18417 7.06385,2.61249 8.86053,-4.54612 1.14414,-4.55822 4.41796,-8.21033 7.38489,-8.23801 4.49817,-0.0411 4.59408,-0.51514 0.61471,-3.03246 -2.59327,-1.64045 -6.09363,-2.13071 -7.77861,-1.08938 -1.80603,1.11622 -2.20516,-1.5266 -0.97227,-6.43894 1.32984,-5.29854 0.61557,-8.98782 -1.96145,-10.13268 -2.22903,-0.9902 0.59415,-1.25455 6.27393,-0.5874 10.17136,1.19473 17.45843,-5.38363 10.63505,-9.60071 -1.70776,-1.0554 -3.10491,-4.63299 -3.10491,-7.95017 0,-3.31718 -1.82616,-6.76815 -4.05837,-7.66882 -2.55003,-1.02897 -2.6978,-1.73286 -0.39762,-1.89391 5.53213,-0.38734 11.56917,8.33836 12.10008,17.48891 0.35886,6.18567 1.83979,7.71262 6.15431,6.34507 3.43738,-1.08955 5.70137,-0.11147 5.73143,2.47621 0.0368,3.15584 0.9041,3.0004 3.30843,-0.59289 2.8386,-4.24228 3.8399,-4.11044 7.76761,1.02275 2.47992,3.24105 7.20047,5.43257 10.4901,4.87006 3.35858,-0.57432 5.64201,0.70637 5.20773,2.92078 -0.42532,2.16895 4.88324,5.46673 11.79694,7.32838 13.1746,3.54756 20.51431,9.93363 21.87284,19.03094 3.18607,21.336074 2.87658,20.754484 20.36353,38.263214 9.85515,9.86738 10.65425,11.94127 7.37469,19.1391 -2.02291,4.43991 -2.37015,8.07256 -0.77163,8.07256 1.59868,0 3.74531,-1.82617 4.77049,-4.05838 1.02509,-2.23211 1.04847,-0.77099 0.052,3.2467 -1.67357,6.74641 0.99414,8.98164 9.17719,7.68958 1.33938,-0.21212 2.43503,1.23288 2.43503,3.20958 0,1.97681 -2.19152,2.7531 -4.87005,1.7253 -2.6784,-1.02791 -4.86993,-0.45368 -4.86993,1.27595 0,1.72963 4.38305,3.1448 9.74011,3.1448 7.66871,0 9.74011,1.42162 9.74011,6.68503 0,3.67674 1.11188,5.99783 2.47082,5.15795 3.4085,-2.10646 12.09161,4.81429 14.67367,11.69562 1.5792,4.20904 0.4751,5.68172 -4.2598,5.68172 -7.26545,0 -8.19609,3.39021 -2.49548,9.09077 5.5503,5.55032 10.13958,4.8188 7.81256,-1.24522 -1.26427,-3.29437 -0.51428,-4.60651 2.08763,-3.65254 2.2333,0.81882 3.63559,3.3117 3.11614,5.53967 -0.5199,2.22967 1.00085,3.30432 3.38272,2.39036 2.37992,-0.91319 7.10197,0.3686 10.49341,2.84839 3.39144,2.47988 4.42599,4.50887 2.29901,4.50887 -2.12702,0 -3.86723,1.54716 -3.86723,3.43832 0,1.8911 1.46101,2.53535 3.2467,1.4318 4.60157,-2.84394 4.03275,2.72422 -0.81168,7.94527 -3.30609,3.5631 -3.04642,4.01911 1.40085,2.45996 4.13244,-1.44868 5.15654,-0.34199 4.2137,4.55372 -0.68506,3.55719 0.51081,7.14482 2.65753,7.97251 2.14672,0.82769 4.22039,6.23382 4.6082,12.01365 0.38787,5.7798 1.42573,14.16129 2.3062,18.62551 0.8805,4.46421 0.80669,6.29048 -0.1645,4.05838 -2.80749,-6.45519 -13.79767,-5.02274 -12.45483,1.62335 0.63137,3.12495 1.84045,16.21161 2.68693,29.08149 1.18526,18.0215 3.13625,25.11067 8.48867,30.84368 4.6145,4.94258 6.25289,5.61997 4.87586,2.01598 -2.58096,-6.75519 4.04238,-19.84759 8.61199,-17.02341 1.8517,1.14435 2.64563,4.83785 1.76447,8.20771 -0.88115,3.36984 -0.0996,6.12698 1.73807,6.12698 2.18445,0 2.11274,1.47898 -0.20779,4.27418 -1.95105,2.3508 -3.91013,9.03645 -4.35363,14.85701 -0.75584,9.91985 -5.88097,18.40766 -5.88097,9.73961 0,-2.18869 -0.87683,-3.10261 -1.94846,-2.03092 -1.07163,1.07163 -0.77553,3.84626 0.658,6.16577 1.43353,2.31951 2.93866,6.43451 3.34465,9.14445 0.40605,2.70991 1.70581,9.9751 2.88863,16.14483 2.2273,11.61876 -3.58713,35.5743 -9.67667,39.86815 -2.05343,1.44781 -1.40517,2.40483 1.64955,2.43503 2.76781,0.026 6.99995,-1.7766 9.40472,-4.00867 3.52702,-3.27375 3.886,-3.20356 1.85668,0.36299 -1.48093,2.60277 -0.67531,5.72335 1.95863,7.58672 3.29878,2.33371 2.55504,2.7447 -2.83074,1.56426 -7.39733,-1.62119 -10.02718,2.21886 -4.04961,5.91322 2.1762,1.345 2.1762,4.0287 0,8.09494 -1.79045,3.3456 -3.25547,12.57465 -3.25547,20.50899 0,21.40683 -11.95888,27.73316 -17.69479,9.36069 -3.16436,-10.13566 -9.58067,-7.2778 -10.03224,4.4684 -0.60411,15.70928 -5.2573,38.46055 -8.75134,42.78751 -2.3625,2.92572 -1.8069,4.05838 1.99044,4.05838 2.89717,0 5.37436,-2.55678 5.50488,-5.68173 0.38224,-9.15265 10.67334,-24.25059 18.50425,-27.14743 8.20914,-3.03677 9.54172,0.83548 2.65684,7.72025 -2.51634,2.51639 -5.10784,8.09954 -5.7588,12.40703 -0.65107,4.30751 -2.82535,7.51651 -4.8319,7.13117 -2.09563,-0.40259 -2.9598,1.93222 -2.03048,5.48617 0.88981,3.40278 -2.37618,14.67568 -7.25779,25.05095 -4.88164,10.37525 -9.22215,22.51662 -9.64559,26.98084 -1.84997,19.50307 -5.70028,24.04863 -20.02579,23.64195 -2.09088,-0.0584 -3.03357,1.89369 -2.09477,4.33993 0.93873,2.44632 3.02179,3.63516 4.62902,2.64184 2.92216,-1.80603 -7.49662,19.00551 -17.17662,34.31033 -2.82353,4.46422 -6.00276,11.88317 -7.06495,16.48656 -1.06211,4.60337 -5.46574,12.18356 -9.78563,16.84481 -4.31991,4.66127 -6.97574,9.35362 -5.90186,10.4275 1.0738,1.07379 -0.90583,2.76554 -4.39913,3.7592 -6.08549,1.73093 -28.66087,28.18917 -35.63693,41.76628 -4.2439,8.25963 -3.49811,22.08033 1.27747,23.67216 2.01165,0.67056 3.65765,4.01951 3.65765,7.44205 0,3.42259 1.46101,6.22287 3.2467,6.22287 1.78569,0 3.2467,-3.00826 3.2467,-6.68503 0,-3.80414 1.45604,-5.7851 3.37878,-4.59681 1.8582,1.14847 2.59173,4.56792 1.62984,7.59867 -1.51685,4.77945 3.54408,16.28849 23.0354,52.38371 2.41068,4.46422 4.39204,6.72879 4.40305,5.03239 0.0346,-5.45206 6.6049,3.24677 8.02633,10.62778 0.90215,4.6838 -0.25692,7.06675 -3.43692,7.06675 -3.67927,0 -4.04091,1.41448 -1.55127,6.06653 1.78568,3.33657 2.32981,6.98342 1.20907,8.10409 -1.12076,1.12077 0.72315,7.71339 4.09736,14.65045 5.39366,11.08872 6.62202,11.97299 10.16536,7.31772 3.71505,-4.88088 4.03842,-4.87142 4.13362,0.12121 0.0563,2.97891 0.99002,7.72722 2.07399,10.55178 1.31102,3.41653 0.16017,5.13559 -3.43832,5.13559 -2.97496,0 -4.50606,-1.46101 -3.40244,-3.2467 1.10366,-1.78569 1.10778,-3.2467 0.01,-3.2467 -1.09868,0 -4.90577,6.57457 -8.4603,14.61016 -3.55456,8.03559 -8.46645,14.61016 -10.91537,14.61016 -2.44893,0 -7.12885,0.86839 -10.39984,1.92963 -4.94622,1.60473 -5.12752,1.34002 -1.07726,-1.57357 z m -22.72692,-57.38673 c 0,-5.29193 -7.3546,-14.39672 -11.62928,-14.39672 -4.12865,0 -3.98175,1.27184 0.92596,8.01474 5.43869,7.47255 10.70334,10.61165 10.70334,6.38198 z m -41.39546,-42.70875 c -2.2321,-0.79717 -4.17374,-3.88446 -4.31471,-6.86059 -0.16883,-3.5439 -0.83397,-3.97305 -1.93028,-1.2437 -1.91425,4.7656 5.34057,14.95412 8.33102,11.69995 1.08483,-1.1805 0.14719,-2.79853 -2.0859,-3.59573 z M 268.65017,739.90034 c 0,-2.24241 -1.2279,-3.31826 -2.7285,-2.39079 -1.50063,0.92748 -3.60501,-0.59782 -4.6763,-3.38951 -2.88071,-7.507 -14.23988,-6.4575 -14.23988,1.31578 0,4.34742 1.55755,5.79383 4.87005,4.52268 2.67853,-1.02791 4.87006,-0.3422 4.87006,1.52357 0,1.86577 2.67853,3.19053 5.95228,2.94391 3.27376,-0.24631 5.95229,-2.28306 5.95229,-4.52545 z m 150.43058,2.1307 c 0,-1.78568 -0.64436,-3.2467 -1.4318,-3.2467 -0.78743,0 -2.3347,1.46102 -3.43832,3.2467 -1.10366,1.78569 -0.4593,3.24671 1.4318,3.24671 1.89109,0 3.43832,-1.46102 3.43832,-3.24671 z m 14.16091,-1.62335 c -1.02791,-2.67853 -2.44302,-4.87005 -3.14483,-4.87005 -0.70172,0 -1.27595,2.19152 -1.27595,4.87005 0,2.67853 1.41513,4.87006 3.14482,4.87006 1.72963,0 2.30382,-2.19153 1.27596,-4.87006 z m 36.51313,-13.8008 c 2.48593,-2.48594 4.47344,-6.24179 4.41666,-8.34636 -0.0563,-2.10452 -2.02746,-1.29241 -4.37941,1.80473 -2.35189,3.09718 -5.30691,4.60051 -6.5667,3.34073 -4.38716,-4.38719 -7.89152,6.58898 -4.07454,12.76196 3.43066,5.54816 3.86232,5.59379 4.92226,0.52012 0.63895,-3.05874 3.19579,-7.59529 5.68173,-10.08127 z m -168.65183,-1.62097 c -0.90064,-2.23211 -1.63764,-0.40584 -1.63764,4.05838 0,4.46421 0.737,6.29048 1.63764,4.05838 0.90063,-2.23211 0.90063,-5.88465 0,-8.11676 z m 107.26467,-38.96046 c 4.75295,-7.42936 35.78039,-21.52291 39.40462,-17.89868 6.10701,6.10703 13.31105,-0.32878 17.06762,-15.24736 2.04174,-8.10853 4.81992,-14.74282 6.17373,-14.74282 3.34274,0 16.33297,-30.70167 17.75951,-41.97359 0.63245,-4.99678 4.02522,-14.76377 7.53962,-21.70447 6.25393,-12.35102 12.2758,-32.94538 11.04749,-37.7814 -0.34025,-1.33938 2.66879,-2.60451 6.68658,-2.81165 5.49721,-0.28333 5.89896,-0.74414 1.62336,-1.86144 -6.65936,-1.74023 -6.64092,-1.55799 -2.41211,-23.85649 3.78273,-19.94625 4.79395,-21.54577 10.58362,-16.74078 3.27891,2.72126 4.38558,2.01058 4.7677,-3.06199 0.35692,-4.73862 -0.93007,-6.05802 -4.55311,-4.66772 -3.82661,1.46838 -4.47595,0.55216 -2.67916,-3.78044 1.30431,-3.14521 2.44105,-7.74526 2.52598,-10.22237 0.0844,-2.47712 2.9564,-5.23661 6.38113,-6.13218 4.45126,-1.16405 5.07629,-2.33938 2.19205,-4.12192 -4.02104,-2.48516 -1.2489,-11.24145 11.25989,-35.56596 5.41201,-10.52426 4.75423,-66.93727 -0.76666,-65.74573 -2.06836,0.44653 -3.76078,-2.76827 -3.76078,-7.14377 0,-4.37547 -2.15019,-9.15877 -4.77843,-10.62957 -2.62815,-1.47076 -5.26901,-5.88876 -5.86861,-9.81777 -0.59956,-3.92898 -1.96989,-8.02331 -3.04509,-9.09849 -2.26243,-2.26246 7.66995,-20.88818 11.15522,-20.91885 1.2831,-0.01 1.57811,-1.98785 0.6554,-4.39253 -1.47941,-3.85514 -3.09703,-14.33346 -4.24171,-27.47497 -0.20346,-2.33749 -1.92897,-3.28663 -3.83403,-2.10927 -1.90517,1.17747 -3.19305,0.16883 -2.86203,-2.24343 1.27725,-9.30514 -0.39956,-12.50093 -6.55906,-12.50093 -4.29792,0 -5.78984,-1.56794 -4.55471,-4.78663 1.01016,-2.63265 -0.3922,-7.0157 -3.11666,-9.74011 -5.56978,-5.56976 -10.10807,-6.66992 -7.04067,-1.70669 1.10366,1.78569 0.41341,3.24671 -1.53374,3.24671 -1.94716,0 -4.51684,-2.55678 -5.71052,-5.68173 -1.1937,-3.12495 -7.09545,-10.76079 -13.11503,-16.96851 -6.01959,-6.20771 -9.46219,-11.78092 -7.65028,-12.38489 4.51805,-1.50604 0.50844,-10.86602 -7.54637,-17.61578 -10.43687,-8.74601 -12.95162,-6.72948 -2.77394,2.2244 5.0102,4.40779 7.55653,8.06033 5.6585,8.11675 -4.59479,0.13637 -21.96519,-18.17354 -22.82986,-24.065 -0.37553,-2.55938 -4.66272,-8.76099 -9.52703,-13.7815 -4.86428,-5.02048 -7.84257,-7.30188 -6.61836,-5.06977 1.22422,2.23211 1.04392,4.036 -0.40086,4.00866 -4.01271,-0.0758 -12.8266,-6.32676 -9.12006,-6.46791 1.78569,-0.0671 -1.57443,-2.49963 -7.46676,-5.40361 -6.78784,-3.34528 -10.07138,-6.95321 -8.96114,-9.84647 1.13613,-2.96041 -1.66058,-5.75624 -7.95122,-7.94919 -5.33693,-1.86058 -8.99046,-4.53642 -8.11898,-5.94655 0.87141,-1.41015 -0.22597,-2.37641 -2.43886,-2.14737 -9.70113,1.00431 -28.03539,-9.09979 -29.88519,-16.46998 -2.20379,-8.780694 -8.22863,-6.931864 -8.22863,2.52509 0,3.46598 -1.20799,6.30178 -2.68442,6.30178 -1.47638,0 -1.98828,-4.74345 -1.13721,-10.54102 1.25864,-8.575114 0.69955,-9.937534 -2.99734,-7.305084 -2.49944,1.77984 -11.80884,3.23594 -20.68753,3.23594 -13.1204,0 -17.67986,1.5818 -24.35027,8.447384 -4.51402,4.64608 -10.03353,7.81161 -12.26563,7.03452 -2.23211,-0.77704 -4.05838,0.16883 -4.05838,2.1043 0,1.9346 -1.51232,3.51726 -3.36092,3.51726 -2.26564,0 -2.21503,-2.14109 0.15584,-6.57005 2.6984,-5.04202 2.40135,-7.6849 -1.27726,-11.36346 -6.38619,-6.385634 -9.33234,-6.146684 -40.9715,3.32335 -14.91485,4.46422 -31.81769,8.11676 -37.56187,8.11676 -6.49245,0 -11.18353,1.92724 -12.39866,5.09392 -1.33678,3.48354 -4.11392,4.40861 -8.78465,2.92619 -5.81668,-1.84608 -6.50907,-1.15691 -4.66726,4.64618 1.18937,3.74767 0.76146,6.81392 -0.95085,6.81392 -1.71253,0 -4.03024,3.65254 -5.1507,8.11676 -1.12055,4.46422 -3.64925,8.11678 -5.61957,8.11678 -2.4215,0 -2.28375,1.56469 0.4251,4.82869 5.06406,6.10181 1.97725,14.65152 -5.28987,14.65152 -5.835,0 -17.40272,8.9038 -17.40272,13.39508 0,2.86545 -18.51848,30.74293 -25.1918,37.92343 -2.24851,2.41942 -3.25806,5.74216 -2.2434,7.38388 1.0147,1.64175 0.58094,2.98496 -0.96384,2.98496 -3.40439,0 -3.14446,27.95833 0.35454,38.14876 1.57248,4.57971 1.21556,7.30508 -0.95713,7.30508 -1.90603,0 -3.46551,2.11879 -3.46551,4.70871 0,2.58981 -2.10841,5.88863 -4.68527,7.33073 -2.57689,1.44219 -5.562447,7.60107 -6.634567,13.68658 -1.07207,6.08552 -2.89005,12.58676 -4.03985,14.44718 -3.92605,6.3525 -3.68174,18.2424 0.45994,22.38407 2.27451,2.27451 3.76553,6.656 3.31339,9.73662 -0.45215,3.08064 0.66471,6.52014 2.48209,7.64326 2.074417,1.28201 1.66491,3.06246 -1.10085,4.78388 -3.54873,2.2088 -3.62798,3.99576 -0.40757,9.19246 2.19851,3.54786 4.954767,12.7238 6.124947,20.39098 1.17011,7.66715 3.5681,15.76655 5.32866,17.99866 2.41838,3.06614 0.52402,4.15236 -7.74834,4.44285 -6.022117,0.21212 -12.045077,0.21212 -13.384337,0 -1.33937,-0.21212 -2.43503,1.26318 -2.43503,3.27718 0,2.44423 4.25271,2.98162 12.79084,1.61621 7.034977,-1.12488 13.615757,-0.7106 14.623967,0.92076 1.00821,1.63136 -4.20855,3.98676 -11.59278,5.23429 -9.324677,1.5753 -12.056257,3.11476 -8.942217,5.03934 2.466,1.52422 4.52179,3.92011 4.56843,5.32453 0.0476,1.40431 1.82855,5.47548 3.959637,9.04685 3.80052,6.3688 3.87678,6.35691 3.9736,-0.62012 0.0541,-3.91241 -1.48959,-8.09511 -3.43086,-9.2949 -5.433287,-3.35796 1.55755,-8.49487 8.12896,-5.97318 4.49519,1.72509 4.77872,2.75622 1.35453,4.92677 -3.35584,2.12724 -3.39904,2.75636 -0.19264,2.79489 3.61486,0.0433 9.98045,11.55538 11.69679,21.15328 0.31926,1.78569 1.7214,5.07298 3.11592,7.30509 1.39435,2.2321 1.49284,5.74514 0.21861,7.80674 -1.49889,2.42517 -0.88331,2.86248 1.74392,1.23894 2.80361,-1.73266 3.69416,-0.63181 2.87705,3.55674 -1.30907,6.71076 6.67366,18.04708 10.87843,15.44842 2.42868,-1.50106 3.86193,4.05974 3.58256,13.89965 -0.0584,2.09088 1.7701,3.08099 4.06528,2.20023 4.92605,-1.89023 9.467,9.98835 6.07222,15.88434 -1.29435,2.24808 -1.15777,3.00432 0.30346,1.68049 3.77556,-3.42034 11.37104,3.71973 11.37104,10.68925 0,3.22519 2.06491,7.92882 4.58861,10.45255 5.56589,5.56603 18.13827,28.57472 18.13827,33.19498 0,1.82897 2.92203,5.15035 6.4934,7.3807 3.57138,2.23036 6.49341,5.88758 6.49341,8.12715 0,2.23953 3.71293,6.86022 8.25096,10.26811 4.77437,3.5854 7.49486,8.16643 6.45659,10.87221 -1.17444,3.06062 -0.22467,4.07366 2.74922,2.93244 2.62648,-1.00777 8.34812,2.81944 13.5604,9.07077 4.95927,5.94783 10.96682,10.06599 13.35011,9.15142 2.42525,-0.93072 4.33327,0.47964 4.33327,3.20261 0,2.676 3.55516,5.75775 7.90037,6.84834 4.3452,1.09067 8.75634,4.67977 9.80251,7.97602 2.17445,6.85108 16.8884,14.66808 19.53849,10.38012 0.96773,-1.56578 -0.0758,-3.58691 -2.31908,-4.49129 -2.62472,-1.05821 -2.19793,-1.73569 1.19739,-1.90062 3.39592,-0.1645 5.9951,3.33964 7.29423,9.8353 1.54716,7.73607 3.28649,9.605 7.45132,8.00678 2.99566,-1.14955 6.6419,-0.21429 8.12764,2.08351 2.18235,3.37593 3.22168,3.35197 5.46717,-0.12553 1.94217,-3.00838 6.32827,-3.62739 14.64574,-2.06707 7.74696,1.45344 13.57447,0.81557 16.76857,-1.83526 3.95799,-3.28488 5.97162,-3.12432 10.5162,0.83852 3.63072,3.16592 11.55365,4.74915 22.37747,4.47168 9.2162,-0.23636 15.97304,0.8383 15.01526,2.38808 -0.95778,1.54976 1.36362,1.83223 5.15858,0.6277 9.20355,-2.9211 8.86888,0.91211 -0.40519,4.63982 l -7.30508,2.9363 7.14374,0.20562 c 3.92907,0.11255 8.31212,-1.62054 9.74011,-3.85258 z M 303.96146,667.58127 c -3.1461,-5.09044 2.83931,-6.32691 7.29443,-1.5069 3.43852,3.72018 3.32775,4.52928 -0.62012,4.52928 -2.64355,0 -5.64701,-1.36015 -6.67435,-3.02236 z M 502.57817,256.39258 c -4.35768,-5.8264 -4.62014,-7.28951 -1.06275,-5.92438 2.59827,0.99717 5.60201,4.1005 6.67496,6.89656 3.03547,7.91033 0.73289,7.51146 -5.61229,-0.97207 z M 244.57046,678.00524 c -2.23211,-0.79717 -4.11091,-3.15393 -4.17513,-5.23721 -0.20562,-6.68788 -15.11669,-22.64276 -17.52261,-18.7499 -1.22335,1.97919 -0.59068,3.5986 1.40583,3.5986 1.9965,0 2.79199,1.35582 1.76794,3.01294 -1.02423,1.65712 1.08115,3.94712 4.67843,5.08886 3.5973,1.14176 6.54055,3.87676 6.54055,6.07783 0,5.11362 7.10028,12.32455 9.52366,9.67205 1.01189,-1.10755 0.0135,-2.66597 -2.21858,-3.46317 z m 265.04135,-5.34533 c -0.29848,-5.48716 -0.68527,-5.74579 -1.86144,-1.24478 -0.81666,3.12495 -3.56917,5.68173 -6.11675,5.68173 -2.54762,0 -4.632,1.32422 -4.632,2.94275 0,1.61858 2.92203,2.17864 6.4934,1.24478 4.11587,-1.07639 6.35551,-4.23413 6.11679,-8.62448 z m -330.78709,-9.9217 c 0,-3.88795 -21.38263,-14.86159 -28.95849,-14.86159 -2.22731,0 -3.44525,-1.81317 -2.70652,-4.02937 1.88872,-5.66639 -6.50438,-13.2024 -12.24892,-10.99801 -6.80117,2.60985 -5.924,7.47923 1.70668,9.47472 3.57138,0.93397 6.49341,3.38209 6.49341,5.44032 0,2.0582 -1.46102,2.83931 -3.24671,1.73569 -1.78568,-1.10366 -3.2467,-0.0498 -3.2467,2.34332 0,2.39239 4.51658,6.05465 10.03682,8.13832 5.61051,2.11771 9.10555,5.29526 7.92513,7.20521 -1.16145,1.87919 -0.66601,3.41672 1.10085,3.41672 1.76686,0 3.84568,-3.28729 4.61954,-7.30508 1.00994,-5.24345 1.53179,-4.30604 1.8491,3.32155 0.43982,10.56905 0.48614,10.59782 8.5589,5.30831 4.46421,-2.92504 8.11675,-7.0606 8.11675,-9.19011 z m -32.46703,-8.36818 c 0,-1.78569 3.00826,-3.24671 6.68502,-3.24671 3.67677,0 5.78206,1.46102 4.67844,3.24671 -1.10366,1.78568 -4.11186,3.2467 -6.68501,3.2467 -2.57314,0 -4.67845,-1.46102 -4.67845,-3.2467 z m 65.47397,-17.20632 c -2.0517,-2.47208 -2.76891,-5.45601 -1.59391,-6.631 1.17487,-1.17487 -1.02921,-2.13633 -4.89824,-2.13633 -4.08845,0 -7.03453,2.03958 -7.03453,4.87006 0,2.67853 1.54716,4.87005 3.43833,4.87005 1.89109,0 2.61247,1.33634 1.603,2.96941 -2.4307,3.93295 5.49559,6.71717 9.2688,3.25575 1.74695,-1.60257 1.4279,-4.5335 -0.78353,-7.19796 z m 291.66336,-60.71455 c 0,-1.78569 -0.64436,-3.2467 -1.4318,-3.2467 -0.78743,0 -2.3347,1.46101 -3.43832,3.2467 -1.10366,1.78569 -0.4593,3.2467 1.4318,3.2467 1.89109,0 3.43832,-1.46101 3.43832,-3.2467 z m 83.38541,-20.08897 c -1.03634,-2.58998 -1.80581,-1.82075 -1.96144,1.96166 -0.14069,3.42254 0.6264,5.34013 1.70517,4.26129 1.07877,-1.07877 1.19414,-3.87916 0.25606,-6.22287 z M 118.76072,508.2684 c 1.10366,-1.78569 0.4593,-3.2467 -1.4318,-3.2467 -1.8911,0 -3.4383,1.46101 -3.4383,3.2467 0,1.78569 0.64436,3.2467 1.43179,3.2467 0.78744,0 2.33469,-1.46101 3.43831,-3.2467 z m -12.61479,-10.31503 c -2.20174,-11.00866 -4.23318,-14.50302 -6.887957,-11.84822 -2.75946,2.75944 2.234617,22.16325 5.704257,22.16325 1.91599,0 2.40122,-4.22747 1.18375,-10.31503 z m 30.47165,5.6366 c 0,-0.78744 -1.46102,-2.33471 -3.2467,-3.43833 -1.78569,-1.10366 -3.24671,-0.4593 -3.24671,1.4318 0,1.8911 1.46102,3.43832 3.24671,3.43832 1.78568,0 3.2467,-0.64436 3.2467,-1.43179 z m 392.85106,-1.46751 c 0,-3.9831 -9.14687,-7.18058 -11.17123,-3.90514 -0.9015,1.45864 -0.70475,3.58638 0.43722,4.72826 3.09417,3.09415 10.7341,2.50832 10.7341,-0.82314 z m 14.61016,-19.82759 c 1.10367,-1.78569 0.4593,-3.24671 -1.43179,-3.24671 -1.8911,0 -3.43832,1.46102 -3.43832,3.24671 0,1.78568 0.64436,3.2467 1.43179,3.2467 0.78744,0 2.33471,-1.46102 3.43832,-3.2467 z M 97.450963,473.63574 c -2.4555,-6.45852 -2.2288,-9.33373 0.89198,-11.31377 3.106877,-1.97118 2.747527,-2.66749 -1.39565,-2.70441 -3.61694,-0.0325 -4.92241,-1.76296 -3.711,-4.91975 1.15561,-3.01132 -0.013,-4.87006 -3.06132,-4.87006 -4.00063,0 -5.39587,8.08691 -2.10062,12.17514 0.7277,0.9028 1.27358,2.4058 4.71636,12.98681 1.30734,4.01779 3.63139,7.30508 5.16461,7.30508 1.53331,0 1.30626,-3.89656 -0.50453,-8.65904 z m 13.788227,1.4621 c -2.32971,-2.32971 -3.84193,-2.52139 -3.84193,-0.48701 0,4.33363 3.83959,8.17321 6.0064,6.0064 0.92271,-0.9225 -0.052,-3.40631 -2.16447,-5.51939 z m 433.36649,-9.84834 c -0.90064,-2.2321 -1.63764,-0.40583 -1.63764,4.05838 0,4.46422 0.737,6.29049 1.63764,4.05838 0.90063,-2.23211 0.90063,-5.88465 0,-8.11676 z m -476.074827,0.93852 c -5.78145,-3.65631 -3.25976,-6.78533 6.03239,-7.48528 7.01628,-0.52856 9.33678,-6.96136 3.75549,-10.41079 -1.70777,-1.05539 -2.16014,-4.38105 -1.0054,-7.39034 1.85062,-4.8226 1.50019,-4.91143 -2.95565,-0.74912 -4.5727,4.27156 -4.55421,5.09676 0.19481,8.64567 4.58949,3.43051 3.94812,4.38467 -5.10553,7.59531 -10.79379,3.82774 -11.83984,12.96134 -1.47335,12.86472 4.55005,-0.0433 4.63213,-0.49394 0.55843,-3.07019 z M 553.54796,454.23309 c 2.98275,-7.77288 0.65779,-8.3698 -3.93786,-1.01102 -2.17964,3.49016 -2.64589,6.34575 -1.03613,6.34575 1.60972,0 3.84806,-2.40066 4.97397,-5.33477 z m 53.84155,-5.65595 c 0,-2.47349 -2.13438,-9.41331 -4.74298,-15.42183 l -4.74298,-10.92453 -0.1277,10.28622 c -0.14935,12.05609 2.62732,20.55745 6.71355,20.55745 1.59457,0 2.89935,-2.02377 2.89935,-4.49731 z M 27.768433,436.40162 c -1.47184,-7.64274 -3.97827,-11.19022 -6.28003,-8.88846 -2.30626,2.30629 1.90819,15.82119 4.93354,15.82119 1.47487,0 2.08092,-3.11974 1.34651,-6.93273 z m 11.44807,-0.99241 c 0,-5.99393 -5.42091,-9.42366 -8.08403,-5.11464 -1.12163,1.81491 -0.40584,3.29967 1.59067,3.29967 1.9965,0 2.72697,1.46101 1.62335,3.2467 -1.10366,1.78569 -0.4593,3.2467 1.43179,3.2467 1.8911,0 3.43833,-2.10537 3.43833,-4.67843 z m 17.85686,-8.30838 c 1.10367,-1.78568 0.4593,-3.2467 -1.43179,-3.2467 -1.8911,0 -3.43833,1.46102 -3.43833,3.2467 0,1.78569 0.64437,3.24671 1.4318,3.24671 0.78743,0 2.3347,-1.46102 3.43832,-3.24671 z M 47.177073,405.78 c 4.28727,-6.54326 4.63092,-9.33386 1.59932,-12.98681 -6.21092,-7.48372 -11.53066,-5.40479 -10.94097,4.27564 1.24738,20.47633 1.48655,20.69955 9.34176,8.71117 z m 8.27294,6.90229 c 0,-0.78743 -1.46101,-2.3347 -3.2467,-3.43832 -1.78569,-1.10366 -3.2467,-0.4593 -3.2467,1.43179 0,1.8911 1.46101,3.43833 3.2467,3.43833 1.78569,0 3.2467,-0.64436 3.2467,-1.4318 z m 31.0695,-22.04673 c 0.48787,-7.62227 0.1645,-11.30184 -0.71904,-8.17689 -0.88332,3.12495 -4.05589,5.79708 -7.04991,5.93805 -3.40904,0.16017 -3.91925,0.87098 -1.36513,1.90062 2.24323,0.90431 3.11326,3.20627 1.9333,5.11537 -1.33288,2.15689 -0.59436,2.5125 1.95084,0.93938 3.06915,-1.89694 3.50083,-0.59804 1.72162,5.18007 -1.30604,4.24143 -1.24609,6.64295 0.13419,5.33678 1.3792,-1.30626 2.90693,-8.61129 3.39488,-16.23351 z m -67.8797,-3.30683 c -0.90064,-2.23211 -1.63764,-0.40584 -1.63764,4.05837 0,4.46422 0.737,6.29049 1.63764,4.05838 0.90063,-2.23211 0.90063,-5.88465 0,-8.11675 z m 30.3168,-3.86676 c 0,-0.78744 -1.46102,-2.33471 -3.24671,-3.43833 -1.78568,-1.10366 -3.2467,-0.4593 -3.2467,1.4318 0,1.8911 1.46102,3.43832 3.2467,3.43832 1.78569,0 3.24671,-0.64436 3.24671,-1.43179 z m 31.09709,-9.79336 c 0.91319,-5.03602 0.2896,-7.97072 -1.4634,-6.88729 -1.71361,1.05907 -2.36912,-1.32076 -1.49305,-5.42174 1.50647,-7.05151 1.38483,-7.09209 -3.44549,-1.14955 -2.75387,3.38803 -3.98043,7.77107 -2.72571,9.74011 2.32537,3.64923 2.88021,5.5363 3.59825,12.23795 0.63896,5.96289 3.78105,1.12141 5.52929,-8.5195 z m 477.401967,8.3021 c 3.74521,3.10824 4.23832,2.82424 2.5836,-1.48785 -2.72844,-7.11022 -11.1584,-6.83598 -10.83409,0.35237 0.16233,3.61322 0.86903,4.1549 1.93914,1.48786 1.30561,-3.25415 2.71996,-3.33311 6.31144,-0.35238 z M 22.982993,373.92776 c 0,-0.67423 -2.55678,-3.23096 -5.68173,-5.68172 -5.14945,-4.03849 -5.26429,-3.92365 -1.22574,1.22573 4.24138,5.40819 6.90753,7.12807 6.90753,4.45591 z m 18.45137,-5.87633 c -1.03634,-2.59001 -1.80581,-1.82075 -1.96144,1.96144 -0.14069,3.42254 0.6264,5.34015 1.70517,4.2613 1.07877,-1.07899 1.19414,-3.87916 0.25627,-6.22285 z m -18.45137,-9.13135 c 0,-1.78569 -0.64437,-3.24671 -1.4318,-3.24671 -0.78743,0 -2.3347,1.46102 -3.4383,3.24671 -1.10366,1.78568 -0.4593,3.2467 1.43179,3.2467 1.8911,0 3.43831,-1.46102 3.43831,-3.2467 z m 580.388677,-5.19185 c -0.40562,-4.89986 -2.1214,-6.49685 -5.58877,-5.20161 -4.29818,1.60561 -4.38032,1.1028 -0.58267,-3.56665 2.7219,-3.34676 3.60771,-8.67588 2.3049,-13.86673 -1.47855,-5.89125 -1.00129,-7.74196 1.58482,-6.14378 2.75,1.69954 2.77773,0.56255 0.10823,-4.4259 -1.97595,-3.69222 -3.90144,-10.44311 -4.27873,-15.00198 -1.1279,-13.62762 -5.14219,-9.36487 -4.42419,4.69796 0.79674,15.60354 -0.50714,16.34184 -5.18124,2.93381 -2.37211,-6.80464 -4.31777,-8.73714 -6.02131,-5.98071 -2.74184,4.43636 2.74015,19.28041 7.12034,19.28041 1.48937,0 1.89348,5.12417 0.89825,11.38705 -1.3621,8.5711 -0.5344,11.87644 3.34725,13.36596 3.87721,1.48786 4.26978,3.04788 1.58201,6.28653 -2.78362,3.35408 -2.10387,4.19679 3.07086,3.80699 4.71402,-0.35518 6.47578,-2.55597 6.06068,-7.57135 z M 63.914123,347.29106 c -1.08396,-2.82457 -1.97075,-5.83283 -1.97075,-6.68498 0,-0.85215 -1.39716,-0.68592 -3.10488,0.36947 -3.76932,2.32955 -0.74263,11.4511 3.79961,11.4511 1.78569,0 2.35988,-2.311 1.27596,-5.13561 z m -43.42471,-11.81527 c -1.12985,-4.32086 -0.51926,-6.01473 1.67854,-4.65638 2.27467,1.40583 2.18374,-0.55778 -0.26622,-5.74919 -4.78562,-10.14067 -7.03554,-7.66668 -7.03554,7.73611 0,7.86124 1.33352,11.7815 3.69959,10.87628 2.03482,-0.77856 2.90039,-4.47155 1.92356,-8.20682 z M 579.79253,290.73932 c 1.10367,-1.78568 0.54545,-3.2467 -1.24024,-3.2467 -1.78568,0 -4.14963,1.46102 -5.25325,3.2467 -1.10366,1.78569 -0.54544,3.24671 1.24003,3.24671 1.78568,0 4.14965,-1.46102 5.25327,-3.24671 z m 1.62336,-14.95753 c 0,-0.70173 -3.00827,-1.27596 -6.68503,-1.27596 -3.67676,0 -5.82151,1.39717 -4.76607,3.10491 1.73244,2.8032 11.4511,1.25106 11.4511,-1.82898 z m -6.0064,-25.62625 c 0,-1.69629 -1.57054,-3.60791 -3.49021,-4.24777 -1.91967,-0.63982 -3.4902,1.27163 -3.4902,4.24777 0,2.97614 1.57053,4.88763 3.4902,4.24777 1.91967,-0.63982 3.49021,-2.55137 3.49021,-4.24777 z M 42.463203,191.71489 c 0,-2.67853 -1.46101,-4.87005 -3.2467,-4.87005 -1.78569,0 -3.2467,2.19152 -3.2467,4.87005 0,2.67851 1.46101,4.87003 3.2467,4.87003 1.78569,0 3.2467,-2.19152 3.2467,-4.87003 z m 529.212577,-6.3018 c 0,-5.24039 -4.59831,-9.12122 -7.44021,-6.27934 -2.53366,2.53366 0.95734,10.95779 4.54086,10.95779 1.59456,0 2.89935,-2.10538 2.89935,-4.67845 z m -524.791777,-6.685 c 1.0279,-2.67853 0.60995,-4.87006 -0.92856,-4.87006 -1.5385,0 -3.6384,2.19153 -4.66627,4.87006 -1.0279,2.67853 -0.60994,4.87005 0.92856,4.87005 1.5385,0 3.63843,-2.19152 4.66627,-4.87005 z m 500.441507,-4.87006 c -1.10367,-1.78568 -3.46759,-3.2467 -5.25328,-3.2467 -1.78568,0 -2.34375,1.46102 -1.24002,3.2467 1.10366,1.78569 3.46757,3.2467 5.25325,3.2467 1.78569,0 2.34377,-1.46101 1.24024,-3.2467 z m -14.61016,-14.64131 c 0,-3.46942 -9.93914,-3.64109 -12.77784,-0.22077 -2.76768,3.33486 -1.78547,3.90212 4.6327,2.67524 4.4798,-0.85627 8.14514,-1.96101 8.14514,-2.45455 z m -12.49039,-12.74863 c 3.95586,-8.68218 1.47292,-19.66428 -3.72021,-16.45472 -1.79824,1.11145 -3.26962,0.47358 -3.26962,-1.41751 0,-5.2438 -5.54639,-4.09585 -7.73222,1.60041 -1.17509,3.06242 -0.59003,4.20831 1.49197,2.92157 1.88395,-1.16448 5.37109,0.54372 7.74901,3.79562 3.72508,5.09431 3.4017,6.71216 -2.33613,11.68858 -5.66653,4.91453 -5.84893,5.77586 -1.22314,5.77586 2.99006,0 7.0582,-3.55936 9.04036,-7.9097 z m -23.22334,-1.83049 c 0,-1.78569 -1.54717,-3.2467 -3.43833,-3.2467 -1.89109,0 -2.53535,1.46101 -1.43179,3.2467 1.10366,1.78569 2.65086,3.2467 3.43832,3.2467 0.78743,0 1.4318,-1.46101 1.4318,-3.2467 z m 11.36345,0 c 1.10367,-1.78569 -0.2712,-3.2467 -3.05508,-3.2467 -2.78392,0 -5.06167,1.46101 -5.06167,3.2467 0,1.78569 1.37487,3.2467 3.05508,3.2467 1.68028,0 3.95806,-1.46101 5.06167,-3.2467 z m -79.54421,-9.54849 c 0,-1.68028 -1.21751,-3.80756 -2.70559,-4.72724 -1.48807,-0.91968 -2.7056,0.45519 -2.7056,3.0551 0,2.59998 1.21751,4.72722 2.7056,4.72722 1.48808,0 2.70559,-1.37487 2.70559,-3.05508 z m -50.77315,-27.78859 c -1.0279,-2.67853 -3.90403,-4.87006 -6.39152,-4.87006 -6.47847,0 -5.59199,5.73786 1.15907,7.5021 3.12495,0.81665 6.00114,1.6543 6.39152,1.86144 0.39026,0.20779 -0.13203,-1.81491 -1.15907,-4.49344 z M 291.58728,94.939326 c -1.36015,-4.08598 -15.36147,-6.22495 -15.36147,-2.34679 0,3.68834 2.51622,5.15438 9.78667,5.70204 4.03195,0.30367 6.33204,-1.08072 5.5748,-3.35525 z m 191.54821,2.28288 c -1.07899,-1.07877 -3.87916,-1.19414 -6.22285,-0.25627 -2.59,1.03635 -1.82075,1.80581 1.96144,1.96144 3.42255,0.14069 5.34016,-0.6264 4.2613,-1.70517 z m -245.87011,-5.85116 c 0,-3.10379 -2.2838,-3.96886 -7.13121,-2.70124 -6.80663,1.78006 -6.84357,1.97746 -0.81168,4.3379 3.47575,1.36015 6.68479,2.57574 7.13121,2.70126 0.44653,0.12554 0.81168,-1.8266 0.81168,-4.33792 z m 188.30878,1.31946 c 0,-1.78569 -1.54717,-3.24671 -3.43833,-3.24671 -1.89109,0 -2.53535,1.46102 -1.43179,3.24671 1.10366,1.78568 2.65086,3.2467 3.43832,3.2467 0.78743,0 1.4318,-1.46102 1.4318,-3.2467 z m -154.63493,-2.57273 c 0.87444,-1.41492 -1.23072,-2.78522 -4.67844,-3.04491 -3.44767,-0.25974 -6.26849,0.89804 -6.26849,2.57273 0,3.69596 8.72201,4.07219 10.94693,0.47229 z m 96.19428,1.14089 c 0,-0.78744 -1.46102,-2.33468 -3.2467,-3.4383 -1.78569,-1.10367 -3.24671,-0.4593 -3.24671,1.43179 0,1.8911 1.46102,3.4383 3.24671,3.4383 1.78568,0 3.2467,-0.64436 3.2467,-1.43179 z m 87.27877,-8.54459 c -2.2978,-1.4201 -5.34334,-1.86166 -6.76786,-0.98137 -1.42444,0.88051 -2.59005,0.0541 -2.59005,-1.83763 0,-1.8911 1.70452,-3.4383 3.78782,-3.4383 2.0833,0 2.87682,-0.91103 1.76339,-2.02443 -1.1134,-1.1134 -4.31203,-1.14652 -7.10802,-0.0736 -7.71291,2.95971 0.56059,14.73756 8.83287,12.57428 4.6348,-1.2121 5.17522,-2.30719 2.082,-4.21898 z m -88.34791,-11.65523 c -0.95994,-0.96016 -3.45975,-0.68613 -5.55489,0.60865 -2.82444,1.74565 -2.67044,3.0619 0.59566,5.09111 4.32928,2.68981 8.52571,-2.1333 4.95921,-5.69987 z m -16.07735,-6.45399 c -3.91727,-2.09646 -8.23641,-3.12318 -9.59807,-2.28162 -1.36167,0.84156 -2.47576,0.15324 -2.47576,-1.52955 0,-1.68281 -2.92204,-3.82377 -6.49341,-4.75771 -7.11422,-1.8604 -7.98875,0.0424 -3.37352,7.34011 1.66123,2.62682 4.02604,3.77044 5.25511,2.54137 1.22899,-1.22898 5.94374,0.68289 10.47711,4.24885 6.33627,4.98412 8.8308,5.5315 10.78661,2.36689 1.62725,-2.63277 -0.0216,-5.49054 -4.57807,-7.92834 z m 130.78108,5.35866 c 0,-1.78568 -1.54716,-3.2467 -3.43832,-3.2467 -1.8911,0 -2.53535,1.46102 -1.4318,3.2467 1.10367,1.78569 2.65087,3.24671 3.43833,3.24671 0.78743,0 1.43179,-1.46102 1.43179,-3.24671 z m -339.99675,-6.62217 c -0.95237,-3.6422 -2.45719,-5.89674 -3.34385,-5.01008 -1.75646,1.75645 1.34609,11.63225 3.6543,11.63225 0.7818,0 0.64198,-2.97997 -0.31039,-6.62217 z m 96.2733,0.94047 c 2.92056,-4.95542 3.76492,-5.05918 6.60502,-0.81168 1.7911,2.67853 3.39056,4.13955 3.55452,3.2467 0.1645,-0.89284 0.76882,-4.05254 1.34413,-7.02154 0.89371,-4.61161 -0.32467,-4.92033 -8.36132,-2.11875 -5.17405,1.80367 -8.66947,4.47333 -7.76763,5.93255 0.90194,1.45929 -0.1948,3.39309 -2.43888,4.29747 -2.97194,1.19825 -3.02121,1.71382 -0.18181,1.90062 2.14347,0.14069 5.40394,-2.30047 7.24569,-5.42542 z m 43.60196,-2.43504 c 1.02791,-2.67853 0.45367,-4.87005 -1.27595,-4.87005 -1.72963,0 -3.14483,2.19152 -3.14483,4.87005 0,2.67854 0.57424,4.87006 1.27596,4.87006 0.70172,0 2.11706,-2.19152 3.1448,-4.87006 z M 263.239,50.483306 c 0,-1.78568 -1.46101,-3.2467 -3.2467,-3.2467 -1.78569,0 -3.2467,1.46102 -3.2467,3.2467 0,1.78569 1.46101,3.24671 3.2467,3.24671 1.78569,0 3.2467,-1.46102 3.2467,-3.24671 z m -76.63195,-2.70558 c 0.91968,-1.48807 -0.39091,-2.70559 -2.91227,-2.70559 -2.52144,0 -3.83196,1.21751 -2.91227,2.70559 0.91968,1.48807 2.2302,2.70558 2.91227,2.70558 0.68202,0 1.99261,-1.21751 2.91227,-2.70558 z M 420.16296,818.47135 c 0,-2.59998 1.24133,-3.96003 2.75857,-3.02236 1.51708,0.93765 1.91794,3.06493 0.89068,4.72724 -2.62543,4.24792 -3.64925,3.76962 -3.64925,-1.70495 z m -23.80913,-16.39302 c 0,-2.35334 2.14932,-3.96336 4.7761,-3.57784 7.93697,1.16492 8.87771,4.2861 1.84607,6.12495 -4.19123,1.09608 -6.62217,0.16017 -6.62217,-2.54711 z m -90.25835,-21.73622 c -5.0828,-5.08282 -4.96012,-9.09076 0.27835,-9.09076 2.29591,0 4.17437,2.92203 4.17437,6.4934 0,3.57137 -0.12554,6.49341 -0.27835,6.49341 -0.15368,0 -2.03157,-1.75322 -4.17433,-3.89605 z m 268.827,-161.68581 c -2.92623,-1.8911 -3.32668,-3.16712 -1.00323,-3.19699 2.12681,-0.026 4.76973,1.41124 5.87335,3.19699 2.49119,4.03089 1.36729,4.03089 -4.87005,0 z M 33.615793,518.00851 c 0.26904,-3.57137 1.63915,-6.49341 3.04493,-6.49341 1.4056,0 2.55578,2.92204 2.55578,6.49341 0,3.57137 -1.37011,6.4934 -3.04493,6.4934 -1.67465,0 -2.82481,-2.92203 -2.55578,-6.4934 z m -5.12834,-24.39105 c -2.96968,-6.22746 -4.31868,-11.32268 -2.99779,-11.32268 2.89662,0 11.77613,19.26645 9.79333,21.24926 -0.76795,0.76795 -3.82585,-3.69908 -6.79554,-9.92658 z m -10.00422,-19.64521 c -1.166,-3.03885 -3.58568,-4.09165 -6.02911,-2.62347 -2.8162705,1.69218 -2.7001705,0.74977 0.37467,-3.04093 3.04931,-3.75918 3.26948,-5.49329 0.69739,-5.49329 -2.76969,0 -2.8314,-1.73222 -0.23462,-6.58435 3.88578,-7.2606 11.21398,-5.31299 8.32606,2.21282 -0.99436,2.59145 0.53505,8.28775 3.39875,12.65842 4.5506,6.94508 4.58978,7.94663 0.31082,7.94663 -2.69286,0 -5.77259,-2.28412 -6.84387,-5.07583 z M 612.81191,315.35829 c -0.97119,-2.53074 0.33355,-5.40693 2.89935,-6.39152 2.56576,-0.98462 4.66506,-3.25116 4.66506,-5.03685 0,-1.78569 -2.19153,-2.40574 -4.87006,-1.3779 -2.67853,1.0279 -4.87005,0.25173 -4.87005,-1.7253 0,-1.97681 1.75322,-3.59406 3.89604,-3.59406 3.03024,0 3.03024,-0.86578 0,-3.89604 -2.14282,-2.14282 -3.84987,-6.16062 -3.79344,-8.92843 0.0714,-3.47151 2.62489,-2.16447 8.23461,4.21409 7.89061,8.97204 8.38045,21.45947 0.95345,24.30951 -1.5608,0.59891 -2.01188,2.42522 -1.00259,4.05838 1.0093,1.63309 0.44437,2.96941 -1.25582,2.96941 -1.69997,0 -3.88552,-2.07053 -4.85668,-4.60135 z M 535.96205,100.8072 c 0,-2.678534 0.57423,-4.870054 1.27595,-4.870054 0.70172,0 2.11707,2.19152 3.14482,4.870054 1.02791,2.67853 0.45368,4.87005 -1.27595,4.87005 -1.72963,0 -3.14482,-2.19152 -3.14482,-4.87005 z M 403.10355,45.342696 c 0.15585,-3.78222 0.9251,-4.55155 1.96144,-1.96155 0.93787,2.34372 0.8225,5.144 -0.25627,6.22285 -1.07877,1.07886 -1.84629,-0.83873 -1.70517,-4.2613 z m 36.94726,-8.0622 c -3.49434,-5.65395 0.48549,-6.85133 4.93843,-1.4858 2.56083,3.08561 2.80717,4.94851 0.65432,4.94851 -1.89889,0 -4.41564,-1.55822 -5.5927,-3.46271 z m -32.87466,-14.70371 c 0,-2.50828 1.94802,-4.56051 4.32896,-4.56051 2.38092,0 4.32894,1.3047 4.32894,2.89934 0,1.59463 -1.94802,3.64687 -4.32894,4.56052 -2.38094,0.91364 -4.32896,-0.39106 -4.32896,-2.89935 z"
     id="path3400"
     inkscape:connector-curvature="0" />
</svg>
