<?xml version="1.0" encoding="UTF-8" standalone="no"?>
<!-- Created with Inkscape (http://www.inkscape.org/) -->

<svg
   xmlns:dc="http://purl.org/dc/elements/1.1/"
   xmlns:cc="http://creativecommons.org/ns#"
   xmlns:rdf="http://www.w3.org/1999/02/22-rdf-syntax-ns#"
   xmlns:svg="http://www.w3.org/2000/svg"
   xmlns="http://www.w3.org/2000/svg"
   xmlns:sodipodi="http://sodipodi.sourceforge.net/DTD/sodipodi-0.dtd"
   xmlns:inkscape="http://www.inkscape.org/namespaces/inkscape"
   id="svg4345"
   version="1.1"
   inkscape:version="0.91 r13725"
   width="886.24524"
   height="930"
   viewBox="0 0 886.24525 929.99998"
   sodipodi:docname="quotedbl.svg">
  <metadata
     id="metadata4351">
    <rdf:RDF>
      <cc:Work
         rdf:about="">
        <dc:format>image/svg+xml</dc:format>
        <dc:type
           rdf:resource="http://purl.org/dc/dcmitype/StillImage" />
        <dc:title></dc:title>
      </cc:Work>
    </rdf:RDF>
  </metadata>
  <defs
     id="defs4349" />
  <sodipodi:namedview
     pagecolor="#ffffff"
     bordercolor="#666666"
     borderopacity="1"
     objecttolerance="10"
     gridtolerance="10"
     guidetolerance="10"
     inkscape:pageopacity="0"
     inkscape:pageshadow="2"
     inkscape:window-width="1451"
     inkscape:window-height="1009"
     id="namedview4347"
     showgrid="false"
     fit-margin-top="0"
     fit-margin-left="0"
     fit-margin-right="0"
     fit-margin-bottom="0"
     inkscape:zoom="1.0377935"
     inkscape:cx="356.88534"
     inkscape:cy="312.3754"
     inkscape:window-x="304"
     inkscape:window-y="0"
     inkscape:window-maximized="0"
     inkscape:current-layer="svg4345" />
  <path
     style="fill:#000000"
     d="m 151.51579,887.07908 c -18.36898,-10.4917 -47.17488,-18.67061 -64.013121,-18.1752 -20.52105,0.60116 -30.67118,-4.7752 -30.78545,-16.31552 -0.13804,-13.90491 -2.01138,-14.31111 -9.74112,-2.11225 -17.73789,27.99411 -24.94868,-7.11232 -21.38827,-104.13045 1.90748,-51.97621 5.97293,-94.53859 9.03443,-94.58304 5.47893,-0.0816 4.1226,-63.46168 -4.17068,-194.90307 -2.31798,-36.738 -9.29774,-79.46657 -15.51061,-94.95244 -6.29525,-15.69132 -8.92908,-73.03917 -5.9494,-129.54009 3.10573,-58.89045 0.87214,-104.14937 -5.32893,-107.98188 -14.74863,-9.11515 18.63373,-107.267903 36.48249,-107.267903 17.85974,0 41.16251,27.53272 31.48959,37.20564 -4.02885,4.02886 -0.89626,7.32526 6.96136,7.32526 8.53829,0 12.06838,-8.48247 8.77353,-21.08198 -5.97604,-22.85243 1.35982,-23.19996 52.077901,-2.46716 39.27992,16.05708 75.5263,55.4683 65.6745,71.408853 -4.27341,6.91445 -0.32434,8.96386 9.79261,5.08171 13.36189,-5.12743 16.11252,0.72289 12.98193,27.61006 -2.18476,18.76378 0.78612,39.8494 6.60185,46.85693 5.81573,7.00753 8.64558,33.80944 6.28858,59.55981 -2.83543,30.9767 0.17144,46.87651 8.88523,46.9893 8.56508,0.11133 7.82221,3.55846 -2.12442,9.85898 -11.52083,7.29772 -15.64158,44.33952 -16.69907,150.1096 -0.85099,85.11815 -5.78842,140.49273 -12.53664,140.60309 -6.123,0.10391 -3.61814,5.03867 5.56636,10.97389 13.74978,8.88577 13.91364,10.82189 0.92765,10.96224 -8.67424,0.0965 -12.75137,3.19064 -9.0603,6.8815 3.69109,3.69087 2.38701,18.08421 -2.89792,31.98459 -5.88638,15.48227 -5.23519,29.64732 1.68075,36.56333 6.69722,6.69745 7.1216,13.8658 1.04313,17.6225 -5.6356,3.48306 -7.98634,21.73255 -5.22384,40.55463 4.21269,28.70304 8.85056,33.15286 28.7588,27.59266 18.34722,-5.12402 20.01568,-4.07235 7.349,4.63418 -14.23258,9.78224 -14.01944,12.17162 1.62107,18.17349 25.17314,9.65979 9.96606,63.24541 -22.03331,77.63949 -37.43208,24.72748 -40.39217,26.66633 -74.52788,7.31954 z M 683.0858,854.42771 c -21.35759,-3.33165 -23.84858,-8.32408 -16.83779,-33.74824 9.30636,-33.74861 9.27141,-36.99713 -2.77649,-258.05911 -4.83903,-88.78342 -8.01541,-183.96815 -7.05963,-211.52162 0.95593,-27.55348 1.94526,-59.96232 2.19834,-72.01965 0.25234,-12.05733 6.49334,-25.75736 13.8678,-30.4445 9.85067,-6.26111 9.96208,-8.5673 0.42304,-8.69254 -21.80186,-0.28648 -21.01604,-196.950723 0.92922,-232.4583327 2.67853,-4.33441 34.04147,-7.69729002 69.69481,-7.47313002 47.76329,0.30058 64.0192,4.28788002 61.76535,15.15096972 -1.6996,8.19172 2.32228,11.41746 9.05105,7.25897 16.15728,-9.98578 55.23794,26.39981 55.23794,51.42874 0,10.93563 5.02308,22.98752 11.16277,26.781973 6.85479,4.23645 7.34092,14.15717 1.26023,25.70563 -8.67929,16.48392 -11.51502,72.08474 -15.01893,294.48136 -0.46015,29.16122 2.44178,56.2973 6.44659,60.30225 4.0048,4.00481 7.20509,12.70904 7.11158,19.34228 -0.0965,6.63362 -5.40754,4.54586 -11.80825,-4.63863 -8.63298,-12.38752 -9.76592,-7.21252 -4.38852,20.04171 9.95139,50.43618 13.47712,168.74237 4.87019,163.42301 -3.85415,-2.38166 -13.74816,35.51953 -21.98667,84.22568 -8.23843,48.70608 -17.85168,88.95902 -21.36272,89.45093 -26.05671,3.65079 -122.41854,4.63789 -142.77657,1.4621 z"
     id="path4355"
     inkscape:connector-curvature="0"
     sodipodi:nodetypes="cccsscsssssssssssssscsscccsssssscsccccssscsccsscssscccsscsscc" />
</svg>
