<?xml version="1.0" encoding="UTF-8" standalone="no"?>
<!-- Created with Inkscape (http://www.inkscape.org/) -->

<svg
   xmlns:dc="http://purl.org/dc/elements/1.1/"
   xmlns:cc="http://creativecommons.org/ns#"
   xmlns:rdf="http://www.w3.org/1999/02/22-rdf-syntax-ns#"
   xmlns:svg="http://www.w3.org/2000/svg"
   xmlns="http://www.w3.org/2000/svg"
   xmlns:sodipodi="http://sodipodi.sourceforge.net/DTD/sodipodi-0.dtd"
   xmlns:inkscape="http://www.inkscape.org/namespaces/inkscape"
   width="171.94026mm"
   height="262.46667mm"
   viewBox="0 0 609.23715 930.00002"
   id="svg2"
   version="1.1"
   inkscape:version="0.91 r13725"
   sodipodi:docname="R.svg">
  <defs
     id="defs4" />
  <sodipodi:namedview
     id="base"
     pagecolor="#ffffff"
     bordercolor="#666666"
     borderopacity="1.0"
     inkscape:pageopacity="0.0"
     inkscape:pageshadow="2"
     inkscape:zoom="0.49497475"
     inkscape:cx="249.74333"
     inkscape:cy="582.83347"
     inkscape:document-units="px"
     inkscape:current-layer="layer1"
     showgrid="false"
     fit-margin-top="0"
     fit-margin-left="0"
     fit-margin-right="0"
     fit-margin-bottom="0"
     inkscape:window-width="1920"
     inkscape:window-height="969"
     inkscape:window-x="0"
     inkscape:window-y="1"
     inkscape:window-maximized="1" />
  <metadata
     id="metadata7">
    <rdf:RDF>
      <cc:Work
         rdf:about="">
        <dc:format>image/svg+xml</dc:format>
        <dc:type
           rdf:resource="http://purl.org/dc/dcmitype/StillImage" />
        <dc:title></dc:title>
      </cc:Work>
    </rdf:RDF>
  </metadata>
  <g
     inkscape:label="Layer 1"
     inkscape:groupmode="layer"
     id="layer1"
     transform="translate(-463.01362,-402.7542)">
    <path
       style="fill:#000000"
       d="m 468.8804,1264.3314 c 38.89911,-100.3336 -63.03039,-781.95319 24.57855,-810.30593 151.782,-49.48729 373.18216,1.00843 418.88986,20.02228 3.25173,-0.0788 14.24167,7.99808 24.42203,17.96586 134.24496,171.51371 27.86258,317.92777 -51.69088,440.75458 -0.27065,1.78155 -3.59648,6.34134 -7.3903,10.13516 -3.79356,3.79356 -6.89762,8.64922 -6.89762,10.79024 23.69946,35.19533 26.22415,69.09441 52.33282,98.61021 45.15266,69.7536 80.38004,102.1657 128.99994,149.3523 45.3334,47.9046 13.4556,72.4859 -6.9565,91.4637 -25.5137,20.8537 -70.37908,-22.8446 -74.36842,-26.9853 -19.03201,-22.5622 -39.88606,-39.8099 -60.82911,-58.2448 -59.83025,-67.5894 -120.72415,-151.6137 -159.22041,-213.48932 0,-7.312 -18.55762,-7.10049 -31.62998,-10.48098 -40.5653,-6.84739 -93.70072,-3.95857 -110.60548,-2.75721 -4.05186,2.35439 -5.97426,4.33407 -4.27205,4.40002 -32.67107,44.73649 -10.6271,173.90549 -20.47976,273.41849 8.68825,96.0806 -120.74992,79.3383 -114.88269,5.3507 z M 766.79698,883.57405 c 98.69008,-24.08957 161.3053,-174.04073 134.83089,-256.67707 -6.02204,-31.35839 -58.62556,-62.57497 -97.63053,-72.16169 -55.82719,-12.09625 -150.10069,-25.37041 -195.16554,3.26119 -9.79749,0.81762 -19.72395,9.7082 -22.01904,18.41126 -11.41763,74.73803 -13.94522,155.99253 -11.2217,207.1561 1.05895,18.30141 2.32548,48.79204 2.80976,67.75694 -11.86593,72.92199 162.43706,36.78017 188.39616,32.25327 z"
       id="path3401"
       inkscape:connector-curvature="0"
       sodipodi:nodetypes="cccccscccccccccccccccccccc" />
  </g>
</svg>
