<?xml version="1.0" encoding="UTF-8" standalone="no"?>
<!-- Created with Inkscape (http://www.inkscape.org/) -->

<svg
   xmlns:dc="http://purl.org/dc/elements/1.1/"
   xmlns:cc="http://creativecommons.org/ns#"
   xmlns:rdf="http://www.w3.org/1999/02/22-rdf-syntax-ns#"
   xmlns:svg="http://www.w3.org/2000/svg"
   xmlns="http://www.w3.org/2000/svg"
   xmlns:sodipodi="http://sodipodi.sourceforge.net/DTD/sodipodi-0.dtd"
   xmlns:inkscape="http://www.inkscape.org/namespaces/inkscape"
   width="171.94026mm"
   height="262.46667mm"
   viewBox="0 0 609.23715 930.00002"
   id="svg2"
   version="1.1"
   inkscape:version="0.91 r13725"
   sodipodi:docname="R.svg">
  <defs
     id="defs4" />
  <sodipodi:namedview
     id="base"
     pagecolor="#ffffff"
     bordercolor="#666666"
     borderopacity="1.0"
     inkscape:pageopacity="0.0"
     inkscape:pageshadow="2"
     inkscape:zoom="0.49497475"
     inkscape:cx="-395.2312"
     inkscape:cy="658.734"
     inkscape:document-units="px"
     inkscape:current-layer="layer1"
     showgrid="false"
     fit-margin-top="0"
     fit-margin-left="0"
     fit-margin-right="0"
     fit-margin-bottom="0"
     inkscape:window-width="1920"
     inkscape:window-height="969"
     inkscape:window-x="0"
     inkscape:window-y="1"
     inkscape:window-maximized="1" />
  <metadata
     id="metadata7">
    <rdf:RDF>
      <cc:Work
         rdf:about="">
        <dc:format>image/svg+xml</dc:format>
        <dc:type
           rdf:resource="http://purl.org/dc/dcmitype/StillImage" />
        <dc:title></dc:title>
      </cc:Work>
    </rdf:RDF>
  </metadata>
  <g
     inkscape:label="Layer 1"
     inkscape:groupmode="layer"
     id="layer1"
     transform="translate(-463.01362,-402.7542)">
    <path
       style="fill:#000000"
       d="m 468.8804,1264.3314 c 4.18761,-247.3558 -3.05438,-486.30584 -4.58484,-690.52124 -2.66577,-24.38419 -0.92231,-71.52028 2.91224,-78.68277 2.08899,-3.90523 3.566,-8.50259 3.27985,-10.21609 -1.37952,-8.27425 1.10887,-12.65877 8.52099,-15.01159 4.45914,-1.41631 10.96156,-8.55882 14.45031,-15.87424 9.78358,-20.5168 40.25923,-28.16882 35.20439,-8.83946 -1.70009,6.50189 -0.59122,7.41001 6.55419,5.36148 4.73084,-1.35587 18.3566,-4.3564 30.27962,-6.66638 11.92303,-2.30972 23.89545,-6.02681 26.6051,-8.2598 3.62039,-2.98319 5.05063,-2.10213 5.39354,3.32032 0.26277,4.05921 0.26277,8.7107 0,10.33644 -0.26276,1.62652 1.49777,2.95612 3.89657,2.95612 2.39905,0 3.34212,-2.66051 2.09424,-5.91224 -1.24814,-3.25174 -0.4467,-5.91225 1.78156,-5.91225 2.22826,0 2.95428,-1.77367 1.61339,-3.94149 -1.34011,-2.16783 -0.35211,-3.9415 2.19672,-3.9415 2.6458,0 3.77596,3.28117 2.63397,7.64755 -1.71849,6.57153 -0.98012,7.01035 5.25218,3.11852 5.80057,-3.6225 6.30613,-5.67681 2.52518,-10.26366 -4.07445,-4.94369 -3.45826,-5.05878 4.46992,-0.83297 7.63967,4.0713 10.36088,3.8469 16.07631,-1.32434 3.7841,-3.42464 8.51416,-6.19945 10.51119,-6.16608 1.99702,0.0263 0.9696,1.94447 -2.28082,4.24999 -4.62127,3.27485 -3.5455,3.81142 4.92687,2.45686 6.2231,-0.99588 10.83912,0.0788 10.83912,2.53833 0,2.34913 2.70912,0.40466 6.01998,-4.32304 3.71473,-5.30341 8.39538,-7.68355 12.22231,-6.21495 3.41124,1.30858 7.76974,-0.10511 9.68557,-3.12114 4.03031,-6.36473 4.85961,-2.28344 3.7573,18.48483 -0.63064,11.86443 -0.18394,12.18606 18.3227,13.17301 30.85586,-10.14267 70.59604,5.26976 96.35276,-14.51785 6.46642,-6.37786 12.61516,-6.37786 8.88598,0 -1.58449,2.70991 0.79618,1.70798 5.28817,-2.22826 5.34204,-4.67855 9.07043,-5.69651 10.7729,-2.94167 1.43207,2.3176 6.86582,3.14295 12.0749,1.83674 10.87249,-2.72883 41.02703,9.66402 41.18338,16.92557 0.15766,6.9641 16.90508,23.20622 23.75067,23.0236 3.25173,-0.0788 14.24167,7.99808 24.42203,17.96586 14.09926,13.80522 17.98111,20.14472 16.29152,26.60562 -1.21924,4.6649 -0.44408,8.48184 1.72375,8.48184 2.16782,0 5.01043,3.10406 6.31664,6.89762 1.30595,3.79382 6.04547,12.90157 10.53089,20.23984 4.48568,7.33828 7.2266,15.76336 6.09119,18.72211 -1.13515,2.95901 0.31006,5.37988 3.21179,5.37988 10.6783,0 18.76231,47.29848 12.24991,71.67033 -2.37278,8.88071 -1.65543,10.39398 4.48069,9.4341 4.01878,-0.62801 5.08978,-0.38101 2.38068,0.55181 -2.70966,0.93282 -4.92689,7.77184 -4.92689,15.20025 0,8.14497 1.95499,13.5301 4.92689,13.56663 3.3116,0.0525 3.5405,1.00902 0.6989,2.95612 -5.09763,3.49059 -10.94549,18.00869 -6.03018,14.97085 1.89454,-1.17194 4.29728,2.32548 5.33838,7.77237 1.0405,5.44609 0.6227,10.68671 -0.93021,11.64607 -1.55295,0.9591 -6.87739,14.66315 -11.83369,30.45252 -4.9563,15.78964 -10.09969,29.59512 -11.42981,30.67903 -3.30245,2.69126 -15.12431,27.61412 -18.07938,38.11479 -2.09951,7.4581 -4.17168,16.19141 -7.32514,30.86139 -3.46799,16.13228 -12.28013,29.75252 -17.97743,27.78624 -4.87747,-1.68171 -4.68828,-0.90655 0.82246,3.37471 5.444,4.22975 6.22021,7.29781 3.24385,12.81958 -4.83043,8.96139 -9.79672,22.31071 -9.34371,25.11679 0.18394,1.15092 -5.73304,6.25174 -13.15251,11.33574 -11.04249,7.56636 -14.56645,8.35072 -19.41949,4.32304 -3.26093,-2.70623 -6.15083,-3.81669 -6.42174,-2.46738 -0.27065,1.35062 -0.71473,3.91049 -0.98538,5.69126 -0.27065,1.78155 -3.59648,6.34134 -7.3903,10.13516 -3.79356,3.79356 -6.89762,8.64922 -6.89762,10.79024 0,2.14155 -1.65018,2.87204 -3.66901,1.6239 -2.01805,-1.24814 -4.94316,-0.21022 -6.50032,2.31234 -2.0233,3.27538 0.26277,3.80644 7.99651,1.86301 7.99887,-2.00753 10.34091,-1.38477 8.96507,2.38067 -2.089,5.72253 12.5894,34.65992 17.58249,34.65992 1.76841,0 3.21573,2.6605 3.21573,5.9123 0,3.2517 3.10406,9.1639 6.89762,13.1383 3.79382,3.9743 7.4807,9.7389 8.19332,12.8098 0.71209,3.0713 4.09153,8.6879 7.50855,12.4814 3.41701,3.7939 4.80915,6.8977 3.09355,6.8977 -1.71587,0 1.46361,4.5831 7.06579,10.1848 7.67724,7.6772 12.41939,9.4977 19.25972,7.3942 8.33338,-2.5619 8.18938,-2.0837 -1.76316,5.8674 -5.96138,4.7618 -10.81205,10.746 -10.77868,13.2986 0.0263,2.7819 1.51879,2.336 3.7008,-1.1142 3.12482,-4.9402 4.75345,-4.7482 11.4984,1.3559 4.32172,3.9113 6.90077,9.6052 5.7312,12.653 -1.28493,3.3447 0.38364,5.542 4.20715,5.542 3.48376,0 6.33398,1.8788 6.33398,4.1727 0,10.1512 37.12149,50.3534 44.34179,48.0216 1.6266,-0.5255 2.9562,0.8199 2.9562,2.9866 0,2.1679 2.6605,3.9415 5.9122,3.9415 3.2517,0 5.9123,1.6581 5.9123,3.6848 0,2.0259 9.6879,13.0361 21.5287,24.4657 15.2365,14.7073 21.0822,23.1345 20.0004,28.8328 -0.8408,4.4281 -1.6869,9.8251 -1.8814,11.9929 -0.1839,2.1678 -2.0732,1.2797 -4.174,-1.9707 -2.336,-3.6165 -3.8443,-4.075 -3.8811,-1.1798 -0.026,2.6013 2.6871,6.2685 6.045,8.1476 5.0656,2.8349 4.3942,4.1963 -3.9415,7.9944 -6.0187,2.7422 -10.0469,7.8217 -10.0469,12.6685 0,6.7804 -2.2125,7.9421 -13.656,7.1714 -7.5106,-0.5045 -15.0489,0.607 -16.7513,2.4752 -1.7028,1.8683 -0.1577,2.3465 3.4191,1.0669 9.0547,-3.2357 20.9816,6.2627 17.9112,14.2645 -2.6823,6.9901 -20.7693,7.8381 -29.3526,1.3769 -2.7096,-2.0391 -4.9269,-2.4017 -4.9269,-0.8014 0,1.5976 -4.195,0.1576 -9.3227,-3.2018 -6.46348,-4.2353 -10.58155,-4.8494 -13.4281,-2.0023 -4.61839,4.6184 -15.13036,-8.9365 -17.33812,-22.3567 -1.69747,-10.3154 -27.29591,-34.4884 -38.22095,-36.0918 -3.21311,-0.473 -7.48937,-3.8014 -9.50321,-7.3997 -2.01279,-3.5981 -7.91084,-10.2372 -13.10495,-14.7533 -5.1941,-4.5165 -9.44382,-10.4639 -9.44382,-13.2172 0,-2.753 -3.1038,-6.8132 -6.89762,-9.0228 -10.23415,-14.6075 -16.19683,-18.7398 -17.87731,-29.4078 1.34273,-1.3427 0.0788,-2.4411 -2.81528,-2.4411 -2.89043,0 -4.19218,-1.0642 -2.89254,-2.3623 1.29807,-1.3007 -2.90041,-7.5075 -9.33293,-13.7952 -6.43226,-6.288 -10.62076,-11.4327 -9.30719,-11.4327 1.31383,0 -0.3994,-2.7872 -3.80564,-6.1937 -3.40651,-3.4068 -6.19367,-9.6146 -6.19367,-13.7952 0,-4.1809 -1.77368,-7.6016 -3.9415,-7.6016 -2.16782,0 -3.94149,-2.7044 -3.94149,-6.0097 0,-3.3054 -4.37428,-7.6728 -9.72026,-9.7056 -5.34624,-2.0338 -13.77106,-9.9483 -18.72211,-17.5903 -4.95104,-7.6421 -11.00386,-13.9167 -13.45048,-13.9435 -2.44636,-0.026 -6.59964,-5.2416 -9.22862,-11.5885 -2.62898,-6.3466 -8.16494,-14.603 -12.30272,-18.3474 -4.13752,-3.7444 -7.52274,-9.2494 -7.52274,-12.2331 0,-2.984 -2.66051,-6.4462 -5.91225,-7.6938 -3.25173,-1.2481 -5.91224,-4.44652 -5.91224,-7.10782 0,-7.312 -20.70048,-24.24335 -33.77284,-27.62384 -10.32515,-2.67023 -32.68814,-5.84183 -48.99858,-6.94912 -46.60611,16.83655 -31.69278,1.55797 -61.6069,4.19191 -4.05186,2.35439 -5.97426,4.33407 -4.27205,4.40002 -32.67107,44.73645 -8.48424,191.04835 -18.3369,290.56135 4.68023,50.766 1.72878,31.044 0.88182,52.9456 -62.30001,49.597 -123.19427,15.4587 -115.76451,-47.5949 z M 766.79698,883.57405 c 3.43225,-3.10643 8.25796,-5.64791 10.72349,-5.64791 8.41641,0 31.98919,-13.106 34.27184,-19.05424 1.25339,-3.26435 2.6e-4,-7.52353 -2.78296,-9.46458 -3.35001,-2.336 -2.18885,-2.72647 3.43488,-1.15355 6.41886,1.7947 10.51302,-0.45721 16.75136,-9.21837 4.54087,-6.37734 8.25612,-13.57609 8.25612,-15.99774 0,-2.42271 4.43418,-6.42333 9.85374,-8.89254 5.41956,-2.47001 9.85374,-5.95902 9.85374,-7.7545 0,-1.7947 8.42482,-14.34311 18.72211,-27.8832 16.25026,-21.36842 18.78201,-27.22838 19.17616,-44.38597 0.54656,-23.77353 5.19805,-45.38712 9.76861,-45.38712 1.82885,0 2.23614,-2.83945 0.90391,-6.31007 -1.33222,-3.47036 -0.38889,-7.56636 2.09425,-9.1017 4.76422,-2.9443 7.2626,-43.95846 3.08935,-50.71129 -1.34274,-2.17308 -7.02743,-5.10161 -12.63223,-6.5082 -5.60455,-1.4058 -20.98742,-13.05765 -34.18407,-25.8909 -13.19666,-12.83325 -25.27656,-22.54037 -26.84448,-21.57128 -1.56872,0.9696 -4.80285,-0.59123 -7.18903,-3.46563 -2.38592,-2.87519 -14.11607,-7.57293 -26.06643,-10.43997 -12.3156,-2.95428 -21.72789,-7.39845 -21.72789,-10.25893 0,-3.18919 -3.98906,-4.57371 -10.83911,-3.7615 -5.96138,0.70684 -15.78675,1.48726 -21.83353,1.73426 -9.19787,0.37576 -10.16406,1.34799 -5.91224,5.94798 2.79505,3.02418 6.32347,4.74819 7.84042,3.83087 1.51617,-0.91705 4.52011,1.6239 6.67296,5.64711 3.63879,6.79882 2.33336,7.20611 -18.52425,5.77614 -12.34135,-0.84611 -24.65589,-1.38478 -27.3658,-1.19822 -14.65133,1.01165 -20.43719,0.62013 -38.42959,-2.61715 -10.83912,-1.94973 -25.91534,-2.24403 -33.50272,-0.65429 -7.58738,1.58974 -14.25376,1.63441 -14.81424,0.10511 -0.5597,-1.53456 -8.08874,-2.11527 -16.72955,-1.29019 -8.64055,0.82509 -14.72858,3.08672 -13.52879,5.02804 1.20084,1.94184 0.33634,3.52948 -1.9182,3.52948 -2.25453,0 -5.21197,4.43418 -6.57205,9.85374 -1.36113,5.41955 -4.1814,9.85374 -6.26908,9.85374 -2.08636,0 -1.13515,2.66051 2.11527,5.91224 3.25173,3.25173 7.88247,5.91224 10.29072,5.91224 2.87887,0 2.64501,1.85514 -0.68319,5.41851 -2.78375,2.98003 -7.37796,4.52931 -10.20926,3.44277 -3.79908,-1.45836 -4.46388,0.74888 -2.5357,8.42823 1.55295,6.19078 0.64115,12.77675 -2.25191,16.26445 -3.37944,4.07209 -3.51397,5.86101 -0.44145,5.86101 5.50023,0 6.09014,45.80307 0.63327,49.17568 -2.41482,1.49251 -2.35964,6.10774 0.15766,12.71553 2.79741,7.35772 2.63134,11.1836 -0.5702,13.16275 -3.27197,2.02331 -3.31401,3.5329 -0.15766,5.48657 6.89683,4.26233 5.4926,19.27391 -1.55032,16.57162 -3.71368,-1.42419 -5.91225,0.0526 -5.91225,3.9415 0,4.13857 2.15731,5.38198 6.46984,3.72734 5.03933,-1.93396 5.50732,-1.32434 2.11789,2.7622 -2.78112,3.35106 -3.65665,17.25771 -2.42533,38.51972 1.05895,18.30141 2.32548,48.79204 2.80976,67.75694 0.48612,18.96517 2.21249,34.48468 3.83823,34.48836 1.62652,0.003 2.95612,2.56197 2.95612,5.68574 81.20443,-14.52668 112.69696,5.02087 181.60181,-7.92083 z"
       id="path3401"
       inkscape:connector-curvature="0"
       sodipodi:nodetypes="ccccccccccccscscsccccccccsccccccscccccscscccscccscccccscccccscccccssccccsscccscccccccsscssssccccccscccccsccccccsccsccssssscscccscsccccccccscccsscsccsccccssccssscccsccscscscscsccccssccccsccccccc" />
  </g>
</svg>
