<?xml version="1.0" encoding="UTF-8" standalone="no"?>
<!-- Created with Inkscape (http://www.inkscape.org/) -->

<svg
   xmlns:dc="http://purl.org/dc/elements/1.1/"
   xmlns:cc="http://creativecommons.org/ns#"
   xmlns:rdf="http://www.w3.org/1999/02/22-rdf-syntax-ns#"
   xmlns:svg="http://www.w3.org/2000/svg"
   xmlns="http://www.w3.org/2000/svg"
   xmlns:sodipodi="http://sodipodi.sourceforge.net/DTD/sodipodi-0.dtd"
   xmlns:inkscape="http://www.inkscape.org/namespaces/inkscape"
   version="1.1"
   id="svg61"
   width="636.07385"
   height="930"
   viewBox="0 0 636.07385 929.99999"
   sodipodi:docname="ru_lower_k.svg"
   inkscape:version="0.92.3 (2405546, 2018-03-11)">
  <metadata
     id="metadata67">
    <rdf:RDF>
      <cc:Work
         rdf:about="">
        <dc:format>image/svg+xml</dc:format>
        <dc:type
           rdf:resource="http://purl.org/dc/dcmitype/StillImage" />
        <dc:title></dc:title>
      </cc:Work>
    </rdf:RDF>
  </metadata>
  <defs
     id="defs65" />
  <sodipodi:namedview
     pagecolor="#ffffff"
     bordercolor="#666666"
     borderopacity="1"
     objecttolerance="10"
     gridtolerance="10"
     guidetolerance="10"
     inkscape:pageopacity="0"
     inkscape:pageshadow="2"
     inkscape:window-width="1916"
     inkscape:window-height="1041"
     id="namedview63"
     showgrid="false"
     inkscape:zoom="0.32973346"
     inkscape:cx="404.9393"
     inkscape:cy="133.99632"
     inkscape:window-x="0"
     inkscape:window-y="18"
     inkscape:window-maximized="0"
     inkscape:current-layer="svg61"
     fit-margin-top="0"
     fit-margin-left="0"
     fit-margin-right="0"
     fit-margin-bottom="0"
     inkscape:measure-start="378.501,137.247"
     inkscape:measure-end="581.154,304.516" />
  <path
     style="fill:#000000;stroke-width:5.38644218"
     d="M 0,859.62203 C 3.058583,571.01518 2.485822,298.98832 2.944855,73.250393 6.745431,-28.567878 134.04351,-7.399906 133.22506,71.029562 c 5.83502,111.619778 6.47653,210.195518 5.35188,300.747678 8.09129,47.39354 32.32242,29.92986 84.15237,-30.87507 C 316.54596,240.54459 387.50754,162.59426 509.75847,32.464341 612.40917,-55.620598 674.2202,56.764114 609.73141,118.72145 521.89174,218.86536 413.15432,328.93649 329.28182,424.8873 c -35.78909,33.56369 -14.56613,57.86447 27.11126,100.96818 99.04829,121.21553 147.33634,172.29329 235.01869,272.62572 84.8638,89.37555 -30.97286,189.31981 -99.9437,90.73077 C 386.82596,765.10035 333.03112,709.14448 234.6279,591.76748 211.65255,557.093 192.65533,532.72957 165.04412,551.52818 c -29.87464,15.77801 -28.4396,33.56925 -27.42636,65.66472 0.0219,119.09732 -2.74461,146.1525 -2.06904,236.76323 C 129.99672,952.51096 1.107541,949.15703 0,859.62203 Z"
     id="path71"
     inkscape:connector-curvature="0"
     sodipodi:nodetypes="cccccccccccccccc" />
</svg>
