<?xml version="1.0" encoding="UTF-8" standalone="no"?>
<!-- Created with Inkscape (http://www.inkscape.org/) -->

<svg
   xmlns:dc="http://purl.org/dc/elements/1.1/"
   xmlns:cc="http://creativecommons.org/ns#"
   xmlns:rdf="http://www.w3.org/1999/02/22-rdf-syntax-ns#"
   xmlns:svg="http://www.w3.org/2000/svg"
   xmlns="http://www.w3.org/2000/svg"
   xmlns:sodipodi="http://sodipodi.sourceforge.net/DTD/sodipodi-0.dtd"
   xmlns:inkscape="http://www.inkscape.org/namespaces/inkscape"
   version="1.1"
   id="svg1435"
   width="1102.512"
   height="930"
   viewBox="0 0 1102.5119 930"
   sodipodi:docname="ru_lower_zh.svg"
   inkscape:version="0.92.3 (2405546, 2018-03-11)">
  <metadata
     id="metadata1441">
    <rdf:RDF>
      <cc:Work
         rdf:about="">
        <dc:format>image/svg+xml</dc:format>
        <dc:type
           rdf:resource="http://purl.org/dc/dcmitype/StillImage" />
        <dc:title></dc:title>
      </cc:Work>
    </rdf:RDF>
  </metadata>
  <defs
     id="defs1439" />
  <sodipodi:namedview
     pagecolor="#ffffff"
     bordercolor="#666666"
     borderopacity="1"
     objecttolerance="10"
     gridtolerance="10"
     guidetolerance="10"
     inkscape:pageopacity="0"
     inkscape:pageshadow="2"
     inkscape:window-width="1916"
     inkscape:window-height="1041"
     id="namedview1437"
     showgrid="false"
     inkscape:zoom="0.28971736"
     inkscape:cx="501.1923"
     inkscape:cy="437.02301"
     inkscape:window-x="0"
     inkscape:window-y="18"
     inkscape:window-maximized="0"
     inkscape:current-layer="svg1435"
     fit-margin-top="0"
     fit-margin-left="0"
     fit-margin-right="0"
     fit-margin-bottom="0"
     inkscape:measure-start="868.087,396.939"
     inkscape:measure-end="640.279,239.889" />
  <path
     style="fill:#000000;stroke-width:5.5986166"
     d="M 59.852291,800.06197 C 92.815319,753.0458 158.22771,682.60088 311.03878,495.04311 330.22923,470.34082 345.77979,449.27788 324.44822,426.5329 232.13411,330.01628 111.40053,205.0148 19.6646,99.818166 -28.330771,56.731045 17.086281,-42.710122 95.893907,21.887556 199.80504,120.3031 306.12763,232.08418 411.14588,335.62564 c 61.69984,65.00693 78.02566,24.58205 76.66078,-19.48233 2.1936,-100.64082 0.84744,-114.90077 1.77002,-233.970813 1.50213,-82.17665333 113.50294,-94.778151 121.14534,-0.899892 3.81162,97.878455 2.17046,165.769325 2.47963,230.380705 -3.93069,72.18086 36.30063,76.65973 85.94464,28.80967 75.36922,-76.07849 212.1248,-222.35682 298.56309,-319.124728 65.39482,-63.400287 140.46172,29.572071 86.10912,82.857898 -138.72125,156.96812 -227.68784,245.90635 -292.48571,322.18141 -23.98807,29.48208 -43.38601,40.66704 -7.02297,69.27457 101.6022,128.41533 131.92903,162.32874 241.15378,306.50925 73.6857,80.98107 -46.84114,186.57815 -109.41824,88.01955 C 798.4915,743.10174 774.76261,714.5185 670.19893,574.49243 c -31.75005,-47.13746 -56.22753,-35.38283 -58.7509,3.92934 4.71425,102.37892 4.38286,141.88571 8.24328,261.62879 3.92913,96.61643 -126.61708,108.61968 -127.28713,3.35028 0.5544,-127.76588 5.7261,-168.77952 0.89785,-266.39629 0.31496,-38.3704 -31.08831,-38.15245 -45.76338,-19.45726 -92.51054,113.98254 -166.55256,186.9116 -275.62972,317.43428 -82.725319,112.03156 -184.589136,9.84871 -112.056639,-74.9196 z"
     id="path1445"
     inkscape:connector-curvature="0"
     sodipodi:nodetypes="ccccccccccccccccccccccccc" />
</svg>
