<?xml version="1.0" encoding="UTF-8" standalone="no"?>
<!-- Created with Inkscape (http://www.inkscape.org/) -->

<svg
   xmlns:dc="http://purl.org/dc/elements/1.1/"
   xmlns:cc="http://creativecommons.org/ns#"
   xmlns:rdf="http://www.w3.org/1999/02/22-rdf-syntax-ns#"
   xmlns:svg="http://www.w3.org/2000/svg"
   xmlns="http://www.w3.org/2000/svg"
   xmlns:sodipodi="http://sodipodi.sourceforge.net/DTD/sodipodi-0.dtd"
   xmlns:inkscape="http://www.inkscape.org/namespaces/inkscape"
   version="1.1"
   id="svg1305"
   width="700.08081"
   height="930"
   viewBox="0 0 700.08081 930"
   sodipodi:docname="ru_lower_e.svg"
   inkscape:version="0.92.3 (2405546, 2018-03-11)">
  <metadata
     id="metadata1311">
    <rdf:RDF>
      <cc:Work
         rdf:about="">
        <dc:format>image/svg+xml</dc:format>
        <dc:type
           rdf:resource="http://purl.org/dc/dcmitype/StillImage" />
        <dc:title></dc:title>
      </cc:Work>
    </rdf:RDF>
  </metadata>
  <defs
     id="defs1309" />
  <sodipodi:namedview
     pagecolor="#ffffff"
     bordercolor="#666666"
     borderopacity="1"
     objecttolerance="10"
     gridtolerance="10"
     guidetolerance="10"
     inkscape:pageopacity="0"
     inkscape:pageshadow="2"
     inkscape:window-width="1916"
     inkscape:window-height="1041"
     id="namedview1307"
     showgrid="false"
     inkscape:zoom="0.27504814"
     inkscape:cx="254.88924"
     inkscape:cy="389.50428"
     inkscape:window-x="0"
     inkscape:window-y="18"
     inkscape:window-maximized="0"
     inkscape:current-layer="svg1305"
     inkscape:measure-start="170.879,405.384"
     inkscape:measure-end="-59.9895,323.58"
     fit-margin-top="0"
     fit-margin-left="0"
     fit-margin-right="0"
     fit-margin-bottom="0" />
  <path
     style="fill:#000000;stroke-width:5.41371965"
     d="M 0,484.29716 C 4.9301074,-171.62339 602.44055,-76.847888 682.79974,271.60273 748.26728,493.87344 614.43723,515.22377 503.58738,517.9732 c -157.083,5.31064 -197.12284,8.55695 -282.7933,8.26324 -72.80852,-3.45689 -80.23648,8.80787 -67.75186,55.01812 73.07178,270.72664 189.25758,205.21046 424.4929,167.9333 97.3417,-23.53739 139.10579,91.14914 48.75193,129.16766 C 338.58807,981.61833 29.510661,966.93664 0,484.29716 Z M 465.38879,382.40308 C 555.41982,377.17961 592.91645,364.00627 536.60138,265.08237 414.05685,61.06312 224.05259,120.55186 155.91433,315.80685 c -24.54936,86.18064 32.97489,72.71647 69.18067,73.0289 110.02834,-0.76637 179.45011,-3.43697 240.29379,-6.43267 z"
     id="path1315"
     inkscape:connector-curvature="0"
     sodipodi:nodetypes="ccccccccccccc" />
</svg>
