<?xml version="1.0" encoding="UTF-8" standalone="no"?>
<!-- Created with Inkscape (http://www.inkscape.org/) -->

<svg
   xmlns:dc="http://purl.org/dc/elements/1.1/"
   xmlns:cc="http://creativecommons.org/ns#"
   xmlns:rdf="http://www.w3.org/1999/02/22-rdf-syntax-ns#"
   xmlns:svg="http://www.w3.org/2000/svg"
   xmlns="http://www.w3.org/2000/svg"
   xmlns:sodipodi="http://sodipodi.sourceforge.net/DTD/sodipodi-0.dtd"
   xmlns:inkscape="http://www.inkscape.org/namespaces/inkscape"
   version="1.1"
   id="svg61"
   width="880.23059"
   height="921.02295"
   viewBox="0 0 880.23069 921.02294"
   sodipodi:docname="ru_lower_m.svg"
   inkscape:version="0.92.3 (2405546, 2018-03-11)">
  <metadata
     id="metadata67">
    <rdf:RDF>
      <cc:Work
         rdf:about="">
        <dc:format>image/svg+xml</dc:format>
        <dc:type
           rdf:resource="http://purl.org/dc/dcmitype/StillImage" />
        <dc:title></dc:title>
      </cc:Work>
    </rdf:RDF>
  </metadata>
  <defs
     id="defs65" />
  <sodipodi:namedview
     pagecolor="#ffffff"
     bordercolor="#666666"
     borderopacity="1"
     objecttolerance="10"
     gridtolerance="10"
     guidetolerance="10"
     inkscape:pageopacity="0"
     inkscape:pageshadow="2"
     inkscape:window-width="1916"
     inkscape:window-height="1041"
     id="namedview63"
     showgrid="false"
     inkscape:zoom="0.28311894"
     inkscape:cx="414.51966"
     inkscape:cy="104.41762"
     inkscape:window-x="0"
     inkscape:window-y="18"
     inkscape:window-maximized="0"
     inkscape:current-layer="svg61"
     fit-margin-top="0"
     fit-margin-left="0"
     fit-margin-right="0"
     fit-margin-bottom="0"
     inkscape:measure-start="471.533,619.881"
     inkscape:measure-end="473.299,619.881" />
  <path
     style="fill:#000000;stroke-width:5.79723358"
     d="m 343.06568,823.07308 c -95.91051,-153.1765 -90.2915,-250.98834 -160.40191,-460.26902 -17.11245,-39.27682 -53.71378,-37.10997 -54.80468,3.29988 3.47625,226.61328 5.74152,312.58685 7.04936,475.09199 C 135.96854,930.09579 12.007991,961.23406 1.9986694,847.78961 -3.7033476,559.23105 4.9261314,368.61682 1.8564424,112.4266 1.2692264,-8.8939575 126.17252,-46.490828 198.36159,72.299776 337.28215,368.58911 328.64067,386.4477 384.62606,616.97238 c 33.97544,76.44036 80.81886,79.24882 110.09826,0.25156 61.84855,-217.51141 90.66607,-318.36384 190.8986,-509.0582 89.66916,-156.009641 176.2261,-118.631388 189.4407,-28.001422 3.9387,294.679142 3.1635,437.704102 4.9177,759.416172 6.6345,89.10578 -121.27801,118.64162 -131.39307,3.82581 1.07303,-213.99198 -3.16829,-262.50174 -0.68456,-469.25344 -5.29919,-40.55089 -41.28486,-22.76099 -43.97858,-2.39098 -54.39834,200.52975 -67.68846,252.83516 -148.50123,438.19676 -50.90759,130.24062 -156.40756,112.86922 -212.3582,13.11444 z"
     id="path71"
     inkscape:connector-curvature="0"
     sodipodi:nodetypes="ccccccccccccccccc" />
</svg>
