<?xml version="1.0" encoding="UTF-8" standalone="no"?>
<!-- Created with Inkscape (http://www.inkscape.org/) -->

<svg
   xmlns:dc="http://purl.org/dc/elements/1.1/"
   xmlns:cc="http://creativecommons.org/ns#"
   xmlns:rdf="http://www.w3.org/1999/02/22-rdf-syntax-ns#"
   xmlns:svg="http://www.w3.org/2000/svg"
   xmlns="http://www.w3.org/2000/svg"
   xmlns:sodipodi="http://sodipodi.sourceforge.net/DTD/sodipodi-0.dtd"
   xmlns:inkscape="http://www.inkscape.org/namespaces/inkscape"
   version="1.1"
   id="svg45"
   width="716.99396"
   height="930"
   viewBox="0 0 716.99395 929.99999"
   sodipodi:docname="ru_lower_a.svg"
   inkscape:version="0.92.3 (2405546, 2018-03-11)">
  <metadata
     id="metadata51">
    <rdf:RDF>
      <cc:Work
         rdf:about="">
        <dc:format>image/svg+xml</dc:format>
        <dc:type
           rdf:resource="http://purl.org/dc/dcmitype/StillImage" />
        <dc:title></dc:title>
      </cc:Work>
    </rdf:RDF>
  </metadata>
  <defs
     id="defs49" />
  <sodipodi:namedview
     pagecolor="#ffffff"
     bordercolor="#666666"
     borderopacity="1"
     objecttolerance="10"
     gridtolerance="10"
     guidetolerance="10"
     inkscape:pageopacity="0"
     inkscape:pageshadow="2"
     inkscape:window-width="1916"
     inkscape:window-height="1041"
     id="namedview47"
     showgrid="false"
     inkscape:zoom="0.41216683"
     inkscape:cx="709.26185"
     inkscape:cy="591.57709"
     inkscape:window-x="0"
     inkscape:window-y="18"
     inkscape:window-maximized="0"
     inkscape:current-layer="svg45"
     fit-margin-top="0"
     fit-margin-left="0"
     fit-margin-right="0"
     fit-margin-bottom="0"
     inkscape:measure-start="274.161,681.763"
     inkscape:measure-end="164.982,1009.3" />
  <path
     style="fill:#000000;stroke-width:5.71916676"
     d="M 513.03856,333.74653 C 584.34264,335.722 546.53346,227.6489 523.95273,197.85728 447.90332,121.7087 362.81951,139.04449 189.09976,195.71567 75.440995,237.84884 35.669526,107.77179 110.53906,65.907702 356.30106,-57.574565 673.89365,-14.903637 703.92352,256.6237 c 22.0424,125.07683 9.99595,543.64983 7.95035,612.85292 4.09379,71.695 -99.66351,90.44097 -114.72312,-3.29696 -1.16386,-12.79499 -1.17704,-13.04011 -2.31715,-27.16719 -10.15304,-31.12368 -25.95428,0.22053 -47.70885,13.98369 C -50.202859,1191.0765 -289.99973,287.33555 513.03856,333.74653 Z M 523.6035,682.29214 C 595.16011,640.20591 590.03112,525.57741 502.85527,505.82689 48.083325,368.99609 18.270919,1007.0946 523.6035,682.29214 Z"
     id="path55"
     inkscape:connector-curvature="0"
     sodipodi:nodetypes="ccccccccccccc" />
</svg>
