<?xml version="1.0" encoding="UTF-8" standalone="no"?>
<!-- Created with Inkscape (http://www.inkscape.org/) -->

<svg
   xmlns:dc="http://purl.org/dc/elements/1.1/"
   xmlns:cc="http://creativecommons.org/ns#"
   xmlns:rdf="http://www.w3.org/1999/02/22-rdf-syntax-ns#"
   xmlns:svg="http://www.w3.org/2000/svg"
   xmlns="http://www.w3.org/2000/svg"
   xmlns:sodipodi="http://sodipodi.sourceforge.net/DTD/sodipodi-0.dtd"
   xmlns:inkscape="http://www.inkscape.org/namespaces/inkscape"
   version="1.1"
   id="svg1694"
   width="691.26935"
   height="930.00104"
   viewBox="0 0 691.26934 930.00104"
   sodipodi:docname="ru_lower_y.svg"
   inkscape:version="0.92.3 (2405546, 2018-03-11)">
  <metadata
     id="metadata1700">
    <rdf:RDF>
      <cc:Work
         rdf:about="">
        <dc:format>image/svg+xml</dc:format>
        <dc:type
           rdf:resource="http://purl.org/dc/dcmitype/StillImage" />
        <dc:title></dc:title>
      </cc:Work>
    </rdf:RDF>
  </metadata>
  <defs
     id="defs1698" />
  <sodipodi:namedview
     pagecolor="#ffffff"
     bordercolor="#666666"
     borderopacity="1"
     objecttolerance="10"
     gridtolerance="10"
     guidetolerance="10"
     inkscape:pageopacity="0"
     inkscape:pageshadow="2"
     inkscape:window-width="1916"
     inkscape:window-height="1041"
     id="namedview1696"
     showgrid="false"
     inkscape:zoom="0.3990801"
     inkscape:cx="465.98775"
     inkscape:cy="1017.1556"
     inkscape:window-x="0"
     inkscape:window-y="18"
     inkscape:window-maximized="0"
     inkscape:current-layer="svg1694"
     inkscape:measure-start="283.495,1057.79"
     inkscape:measure-end="283.495,868.202"
     fit-margin-top="0"
     fit-margin-left="0"
     fit-margin-right="0"
     fit-margin-bottom="0"
     showguides="false" />
  <path
     style="fill:#000000;stroke-width:6.05680895"
     d="m 0.35555369,790.30088 c 0.084,-235.90078 -1.02984,-502.39705 0.30705,-712.614142 C -2.2466163,-11.966049 134.66709,-38.337878 135.71018,76.077943 c -0.9875,311.749807 -4.07191,357.205547 -2.49374,644.642947 1.42852,51.44515 32.06495,56.63188 68.80785,3.74629 C 311.11686,493.76762 367.28731,197.86326 479.35348,72.260535 542.66364,-29.043089 697.62861,-32.082341 689.8148,122.54385 c 4.01381,240.28998 -1.72815,430.64161 -0.10829,715.3157 4.53641,130.38779 -137.20764,114.62643 -132.9409,0.80345 -3.88726,-245.81411 -3.23865,-322.06877 4.63813,-577.00825 3.79549,-29.35118 -19.84003,-24.93591 -33.06394,-4.85442 C 425.17017,505.55243 404.26901,660.41505 292.01156,830.01678 224.71854,937.07524 3.7792337,1002.316 0.35555369,790.30088 Z"
     id="path1704"
     inkscape:connector-curvature="0"
     sodipodi:nodetypes="ccccccccccccc" />
  <path
     style="fill:#000000;stroke-width:4.37489223"
     d="m 220.20023,4.1108254 c -13.62257,-6.587628 -45.80726,-26.1272734 -62.70522,-61.1348874 -23.15118,-52.516208 20.59231,-106.297068 67.64442,-68.925228 53.94307,49.60363 103.0734,39.222305 136.42585,3.11933 66.90586,-49.29701 101.95528,27.446589 71.01096,71.992937 C 413.7694,-19.987285 401.6048,-10.311236 375.12223,5.9989824 340.21628,19.255743 249.10935,23.530679 220.20023,4.1108254 Z"
     id="path1848"
     inkscape:connector-curvature="0"
     sodipodi:nodetypes="ccccccc" />
</svg>
