<?xml version="1.0" encoding="UTF-8" standalone="no"?>
<!-- Created with Inkscape (http://www.inkscape.org/) -->

<svg
   xmlns:dc="http://purl.org/dc/elements/1.1/"
   xmlns:cc="http://creativecommons.org/ns#"
   xmlns:rdf="http://www.w3.org/1999/02/22-rdf-syntax-ns#"
   xmlns:svg="http://www.w3.org/2000/svg"
   xmlns="http://www.w3.org/2000/svg"
   xmlns:sodipodi="http://sodipodi.sourceforge.net/DTD/sodipodi-0.dtd"
   xmlns:inkscape="http://www.inkscape.org/namespaces/inkscape"
   version="1.1"
   id="svg61"
   width="737.21777"
   height="930"
   viewBox="0 0 737.21778 929.99999"
   sodipodi:docname="ru_lower_l.svg"
   inkscape:version="0.92.3 (2405546, 2018-03-11)">
  <metadata
     id="metadata67">
    <rdf:RDF>
      <cc:Work
         rdf:about="">
        <dc:format>image/svg+xml</dc:format>
        <dc:type
           rdf:resource="http://purl.org/dc/dcmitype/StillImage" />
        <dc:title></dc:title>
      </cc:Work>
    </rdf:RDF>
  </metadata>
  <defs
     id="defs65" />
  <sodipodi:namedview
     pagecolor="#ffffff"
     bordercolor="#666666"
     borderopacity="1"
     objecttolerance="10"
     gridtolerance="10"
     guidetolerance="10"
     inkscape:pageopacity="0"
     inkscape:pageshadow="2"
     inkscape:window-width="1916"
     inkscape:window-height="1041"
     id="namedview63"
     showgrid="false"
     inkscape:zoom="0.33904045"
     inkscape:cx="437.93114"
     inkscape:cy="223.68651"
     inkscape:window-x="0"
     inkscape:window-y="18"
     inkscape:window-maximized="0"
     inkscape:current-layer="svg61"
     fit-margin-top="0"
     fit-margin-left="0"
     fit-margin-right="0"
     fit-margin-bottom="0"
     inkscape:measure-start="220.032,688.252"
     inkscape:measure-end="495.333,666.353" />
  <path
     style="fill:#000000;stroke-width:5.28613615"
     d="M 599.42383,852.976 C 595.18844,701.14943 599.95688,543.21243 599.2718,285.47001 597.28146,201.23449 591.51693,144.98714 536.36252,136.02998 431.72429,132.84343 429.66778,176.27381 420.2772,237.34103 393.10026,401.82255 319.25094,860.09497 96.645398,925.92956 20.131879,952.10943 -53.871096,845.27255 54.601273,797.55659 191.19044,722.35193 249.83292,446.80821 297.63591,147.26536 311.91325,54.438463 371.55152,10.334784 483.94909,0.44080099 784.94709,-8.1023423 730.2166,108.32158 736.63789,281.23847 c 1.10292,205.96618 1.00519,383.91367 -3.65291,574.28023 -4.1602,113.86139 -133.169,82.25365 -133.56115,-2.5427 z"
     id="path71"
     inkscape:connector-curvature="0"
     sodipodi:nodetypes="ccccccccccc" />
</svg>
