<?xml version="1.0" encoding="UTF-8" standalone="no"?>
<!-- Created with Inkscape (http://www.inkscape.org/) -->

<svg
   xmlns:dc="http://purl.org/dc/elements/1.1/"
   xmlns:cc="http://creativecommons.org/ns#"
   xmlns:rdf="http://www.w3.org/1999/02/22-rdf-syntax-ns#"
   xmlns:svg="http://www.w3.org/2000/svg"
   xmlns="http://www.w3.org/2000/svg"
   xmlns:sodipodi="http://sodipodi.sourceforge.net/DTD/sodipodi-0.dtd"
   xmlns:inkscape="http://www.inkscape.org/namespaces/inkscape"
   version="1.1"
   id="svg1546"
   width="547.09216"
   height="941.55029"
   viewBox="0 0 547.09216 941.55029"
   sodipodi:docname="ru_lower_z.svg"
   inkscape:version="0.92.3 (2405546, 2018-03-11)">
  <metadata
     id="metadata1552">
    <rdf:RDF>
      <cc:Work
         rdf:about="">
        <dc:format>image/svg+xml</dc:format>
        <dc:type
           rdf:resource="http://purl.org/dc/dcmitype/StillImage" />
        <dc:title></dc:title>
      </cc:Work>
    </rdf:RDF>
  </metadata>
  <defs
     id="defs1550" />
  <sodipodi:namedview
     pagecolor="#ffffff"
     bordercolor="#666666"
     borderopacity="1"
     objecttolerance="10"
     gridtolerance="10"
     guidetolerance="10"
     inkscape:pageopacity="0"
     inkscape:pageshadow="2"
     inkscape:window-width="1916"
     inkscape:window-height="1041"
     id="namedview1548"
     showgrid="false"
     inkscape:zoom="0.18511546"
     inkscape:cx="817.81556"
     inkscape:cy="1229.6425"
     inkscape:window-x="0"
     inkscape:window-y="18"
     inkscape:window-maximized="0"
     inkscape:current-layer="svg1546"
     inkscape:measure-start="414.45,156.612"
     inkscape:measure-end="63.0269,524.27"
     fit-margin-top="0"
     fit-margin-left="0"
     fit-margin-right="0"
     fit-margin-bottom="0" />
  <path
     style="fill:#000000;stroke-width:5.37055111"
     d="M 50.630038,915.78027 C -40.385932,868.87943 3.3816781,754.00685 86.817478,788.91049 271.27452,836.82669 517.81534,761.09025 348.23182,544.0613 c -21.65031,-30.14385 -33.24925,-53.26035 -78.49584,-56.27119 -47.83532,0.82003 -72.97481,4.87684 -107.04076,4.09672 -119.027812,2.60663 -137.042242,-126.09763 -5.11068,-136.2386 70.69994,-4.39103 103.46637,-1.84129 175.8676,-4.41562 25.25402,-1.40608 32.11587,-15.1362 44.76657,-43.13215 C 450.75568,96.415421 252.89453,96.354441 98.815878,172.85455 22.427708,217.1808 -39.649092,102.03932 36.877148,55.220321 434.42748,-134.9318 654.693,210.35945 446.6215,420.1635 c -11.98916,22.33512 -20.94965,38.47168 7.48758,58.31438 276.672,315.60809 -125.73967,541.68342 -403.479042,437.30239 z"
     id="path1556"
     inkscape:connector-curvature="0"
     sodipodi:nodetypes="ccccccccccccc" />
</svg>
