<?xml version="1.0" encoding="UTF-8" standalone="no"?>
<!-- Created with Inkscape (http://www.inkscape.org/) -->

<svg
   xmlns:dc="http://purl.org/dc/elements/1.1/"
   xmlns:cc="http://creativecommons.org/ns#"
   xmlns:rdf="http://www.w3.org/1999/02/22-rdf-syntax-ns#"
   xmlns:svg="http://www.w3.org/2000/svg"
   xmlns="http://www.w3.org/2000/svg"
   xmlns:sodipodi="http://sodipodi.sourceforge.net/DTD/sodipodi-0.dtd"
   xmlns:inkscape="http://www.inkscape.org/namespaces/inkscape"
   version="1.1"
   id="svg1199"
   width="704.99475"
   height="930"
   viewBox="0 0 704.99476 929.99999"
   sodipodi:docname="ru_lower_d.svg"
   inkscape:version="0.92.3 (2405546, 2018-03-11)">
  <metadata
     id="metadata1205">
    <rdf:RDF>
      <cc:Work
         rdf:about="">
        <dc:format>image/svg+xml</dc:format>
        <dc:type
           rdf:resource="http://purl.org/dc/dcmitype/StillImage" />
        <dc:title></dc:title>
      </cc:Work>
    </rdf:RDF>
  </metadata>
  <defs
     id="defs1203" />
  <sodipodi:namedview
     pagecolor="#ffffff"
     bordercolor="#666666"
     borderopacity="1"
     objecttolerance="10"
     gridtolerance="10"
     guidetolerance="10"
     inkscape:pageopacity="0"
     inkscape:pageshadow="2"
     inkscape:window-width="1916"
     inkscape:window-height="1041"
     id="namedview1201"
     showgrid="false"
     inkscape:zoom="0.33768315"
     inkscape:cx="-194.10338"
     inkscape:cy="275.93269"
     inkscape:window-x="0"
     inkscape:window-y="18"
     inkscape:window-maximized="0"
     inkscape:current-layer="svg1199"
     fit-margin-top="0"
     fit-margin-left="0"
     fit-margin-right="0"
     fit-margin-bottom="0"
     inkscape:measure-start="285.771,167.317"
     inkscape:measure-end="293.174,457.529" />
  <path
     style="fill:#000000;stroke-width:4.32390356"
     d="m 618.39391,880.65468 c -0.9815,-35.05103 1.45806,-48.96658 0.32992,-85.70103 -7.61334,-38.54474 -21.20154,-39.47986 -62.22983,-41.06298 -131.88107,2.06787 -318.42556,5.70931 -382.1125,4.84654 -54.79554,-1.72122 -61.45754,0.14192 -71.77256,27.6717 C 91.861089,825.56827 84.134271,857.79712 73.049814,892.61846 61.245985,946.65273 3.870914,937.71043 0,893.83676 3.848861,790.19146 6.7282715,761.33864 24.527559,654.3719 29.908303,619.74554 49.323494,615.60839 71.531866,612.35257 121.1194,618.19145 130.55786,555.97913 147.77081,481.86108 238.34879,186.16671 237.84453,146.90429 295.59796,47.028383 318.26792,14.899553 343.71051,-2.0413825 402.25502,0.1966745 c 12.31174,1.342493 42.80144,0.01185 64.76194,2.35709 27.41628,7.3088227 80.5628,1.3167729 101.3828,69.6053175 28.23488,191.672528 45.51883,362.121108 63.81136,543.996728 3.60042,41.7043 -1.72666,88.27875 28.94599,83.42123 26.31691,-1.59111 41.08514,17.33394 41.89218,44.31658 2.80456,59.73189 2.10596,75.90641 0.82884,137.10172 -6.67867,78.45556 -87.91767,50.35996 -85.48422,-0.34066 z M 485.05607,586.28418 c -17.67341,-165.89837 -32.49406,-300.03397 -39.4762,-405.10144 -4.04796,-31.78999 -17.67813,-27.42227 -36.71052,-28.89267 -22.45764,-0.61959 -26.27123,11.72277 -36.31513,41.04038 -33.77486,139.53546 -63.90444,231.06069 -88.67065,374.17535 -3.40564,37.82753 -4.57412,49.88781 24.85447,50.80594 94.97959,4.38679 35.44517,0.0984 118.05437,2.43432 42.43537,1.88114 62.75993,3.06766 58.26366,-34.46188 z"
     id="path1209"
     inkscape:connector-curvature="0"
     sodipodi:nodetypes="ccccccccccccccccccccccccccc" />
</svg>
