<?xml version="1.0" encoding="UTF-8" standalone="no"?>
<!-- Created with Inkscape (http://www.inkscape.org/) -->

<svg
   xmlns:dc="http://purl.org/dc/elements/1.1/"
   xmlns:cc="http://creativecommons.org/ns#"
   xmlns:rdf="http://www.w3.org/1999/02/22-rdf-syntax-ns#"
   xmlns:svg="http://www.w3.org/2000/svg"
   xmlns="http://www.w3.org/2000/svg"
   xmlns:sodipodi="http://sodipodi.sourceforge.net/DTD/sodipodi-0.dtd"
   xmlns:inkscape="http://www.inkscape.org/namespaces/inkscape"
   version="1.1"
   id="svg578"
   width="623.11487"
   height="930"
   viewBox="0 0 623.11486 929.99999"
   sodipodi:docname="ru_lower_v.svg"
   inkscape:version="0.92.3 (2405546, 2018-03-11)">
  <metadata
     id="metadata584">
    <rdf:RDF>
      <cc:Work
         rdf:about="">
        <dc:format>image/svg+xml</dc:format>
        <dc:type
           rdf:resource="http://purl.org/dc/dcmitype/StillImage" />
        <dc:title></dc:title>
      </cc:Work>
    </rdf:RDF>
  </metadata>
  <defs
     id="defs582" />
  <sodipodi:namedview
     pagecolor="#ffffff"
     bordercolor="#666666"
     borderopacity="1"
     objecttolerance="10"
     gridtolerance="10"
     guidetolerance="10"
     inkscape:pageopacity="0"
     inkscape:pageshadow="2"
     inkscape:window-width="1916"
     inkscape:window-height="1041"
     id="namedview580"
     showgrid="false"
     inkscape:zoom="0.45189952"
     inkscape:cx="200.02684"
     inkscape:cy="637.55599"
     inkscape:window-x="0"
     inkscape:window-y="18"
     inkscape:window-maximized="0"
     inkscape:current-layer="svg578"
     fit-margin-top="0"
     fit-margin-left="0"
     fit-margin-right="0"
     fit-margin-bottom="0"
     inkscape:measure-start="413.809,316.442"
     inkscape:measure-end="533.304,396.106" />
  <path
     style="fill:#000000;stroke-width:5.68516827"
     d="M 131.18329,919.73184 C 80.387211,910.79487 -1.732305,911.1684 2.7204941,783.32623 -3.1850473,601.7764 8.0242271,364.96784 0.12589155,153.26312 -2.1898862,70.921104 27.237115,17.447394 105.51204,4.0516733 543.08311,-33.345224 702.25144,194.46424 564.47685,426.32788 c -29.29487,35.60077 -42.77975,55.52746 -6.08131,92.88497 214.0036,317.0744 -148.00488,450.67483 -427.21225,400.51899 z m 60.11043,-410.08596 c -67.77341,19.74229 -60.53264,64.34662 -59.58646,182.76821 2.52118,41.8071 -4.44019,99.40095 62.62363,102.48925 516.10668,14.86969 250.81757,-349.19052 -3.03717,-285.25746 z m 0.32087,-370.5978 c -54.69544,9.59689 -60.5424,47.25973 -59.24232,84.58752 0.80618,22.81243 1.53815,53.33968 2.82607,62.34547 2.38813,34.30008 13.79536,63.25961 66.37722,78.13402 431.16528,76.78755 327.72015,-279.145579 -9.96097,-225.06701 z"
     id="path588"
     inkscape:connector-curvature="0"
     sodipodi:nodetypes="cccccccccccccccc" />
</svg>
