<?xml version="1.0" encoding="UTF-8" standalone="no"?>
<!-- Created with Inkscape (http://www.inkscape.org/) -->

<svg
   xmlns:dc="http://purl.org/dc/elements/1.1/"
   xmlns:cc="http://creativecommons.org/ns#"
   xmlns:rdf="http://www.w3.org/1999/02/22-rdf-syntax-ns#"
   xmlns:svg="http://www.w3.org/2000/svg"
   xmlns="http://www.w3.org/2000/svg"
   xmlns:sodipodi="http://sodipodi.sourceforge.net/DTD/sodipodi-0.dtd"
   xmlns:inkscape="http://www.inkscape.org/namespaces/inkscape"
   version="1.1"
   id="svg183"
   width="814.52606"
   height="930"
   viewBox="0 0 814.52606 929.99999"
   sodipodi:docname="ru_upper_f.svg"
   inkscape:version="0.92.3 (2405546, 2018-03-11)">
  <metadata
     id="metadata189">
    <rdf:RDF>
      <cc:Work
         rdf:about="">
        <dc:format>image/svg+xml</dc:format>
        <dc:type
           rdf:resource="http://purl.org/dc/dcmitype/StillImage" />
        <dc:title></dc:title>
      </cc:Work>
    </rdf:RDF>
  </metadata>
  <defs
     id="defs187" />
  <sodipodi:namedview
     pagecolor="#ffffff"
     bordercolor="#666666"
     borderopacity="1"
     objecttolerance="10"
     gridtolerance="10"
     guidetolerance="10"
     inkscape:pageopacity="0"
     inkscape:pageshadow="2"
     inkscape:window-width="1916"
     inkscape:window-height="1041"
     id="namedview185"
     showgrid="false"
     inkscape:zoom="0.64692985"
     inkscape:cx="402.13351"
     inkscape:cy="466.15802"
     inkscape:window-x="0"
     inkscape:window-y="18"
     inkscape:window-maximized="0"
     inkscape:current-layer="svg183"
     fit-margin-top="0"
     fit-margin-left="0"
     fit-margin-right="0"
     fit-margin-bottom="0"
     inkscape:measure-start="490.007,44.8271"
     inkscape:measure-end="482.278,389.532" />
  <path
     style="fill:#000000;stroke:none;stroke-width:4.11738396;stroke-opacity:1"
     d="m 364.85271,47.986873 c 1.31053,32.764748 -0.25291,43.082607 -48.49636,51.12041 -350.261177,40.846887 -474.83736,526.173187 -32.52281,676.222027 38.98501,13.84828 68.104,10.13109 64.90363,43.38671 -1.4066,25.78746 0.23562,19.91715 -0.97159,48.01303 7.3731,90.55268 115.45256,78.22145 117.00768,-0.92988 -0.19042,-24.23502 -0.21868,-20.61332 -1.40732,-46.44118 -2.6983,-23.86021 19.47499,-34.69917 60.3116,-49.23117 C 899.1796,644.5673 942.72861,175.37184 466.6463,92.824595 443.52987,88.814246 446.31493,72.091372 446.35598,46.4887 444.60751,-13.986475 367.08844,-17.497345 364.85271,47.986873 Z M 515.07666,220.08024 c 316.89929,113.15422 182.46362,351.48847 1.61561,433.36181 -43.88884,18.55428 -59.1172,22.66576 -57.63874,-35.31933 -1.37293,-173.71044 -2.32538,-211.33542 -3.41551,-373.32402 -1.85954,-47.82916 31.93105,-33.7034 59.43864,-24.71846 z M 319.78014,208.63616 c 19.97846,-1.50277 34.14002,9.00049 31.44573,39.05037 -0.0205,132.39241 0.16572,260.59038 -1.0982,371.84362 -2.15727,58.73419 -17.06177,55.20338 -68.90804,33.52388 C 9.1248568,518.59459 79.74366,268.07199 319.78014,208.63616 Z"
     id="path193"
     inkscape:connector-curvature="0"
     sodipodi:nodetypes="ccccccccccccccccccccc" />
</svg>
