<?xml version="1.0" encoding="UTF-8" standalone="no"?>
<!-- Created with Inkscape (http://www.inkscape.org/) -->

<svg
   xmlns:dc="http://purl.org/dc/elements/1.1/"
   xmlns:cc="http://creativecommons.org/ns#"
   xmlns:rdf="http://www.w3.org/1999/02/22-rdf-syntax-ns#"
   xmlns:svg="http://www.w3.org/2000/svg"
   xmlns="http://www.w3.org/2000/svg"
   xmlns:sodipodi="http://sodipodi.sourceforge.net/DTD/sodipodi-0.dtd"
   xmlns:inkscape="http://www.inkscape.org/namespaces/inkscape"
   version="1.1"
   id="svg85"
   width="724.71277"
   height="930"
   viewBox="0 0 724.71277 929.99999"
   sodipodi:docname="ru_upper_m.svg"
   inkscape:version="0.92.3 (2405546, 2018-03-11)">
  <metadata
     id="metadata91">
    <rdf:RDF>
      <cc:Work
         rdf:about="">
        <dc:format>image/svg+xml</dc:format>
        <dc:type
           rdf:resource="http://purl.org/dc/dcmitype/StillImage" />
        <dc:title></dc:title>
      </cc:Work>
    </rdf:RDF>
  </metadata>
  <defs
     id="defs89" />
  <sodipodi:namedview
     pagecolor="#ffffff"
     bordercolor="#666666"
     borderopacity="1"
     objecttolerance="10"
     gridtolerance="10"
     guidetolerance="10"
     inkscape:pageopacity="0"
     inkscape:pageshadow="2"
     inkscape:window-width="1916"
     inkscape:window-height="1041"
     id="namedview87"
     showgrid="false"
     inkscape:zoom="0.4003702"
     inkscape:cx="796.47222"
     inkscape:cy="711.52589"
     inkscape:window-x="0"
     inkscape:window-y="18"
     inkscape:window-maximized="0"
     inkscape:current-layer="svg85"
     fit-margin-top="0"
     fit-margin-left="0"
     fit-margin-right="0"
     fit-margin-bottom="0"
     inkscape:measure-start="277.243,212.304"
     inkscape:measure-end="44.9584,227.29" />
  <path
     style="fill:#000000;stroke-width:4.11454868"
     d="m 620.00597,870.59137 c -11.04274,-238.97055 -7.12093,-311.18173 -8.61386,-571.51374 -1.32842,-33.2341 -23.22869,-28.00866 -41.23175,-5.49893 -71.3677,353.44658 -40.50919,281.67236 -119.86701,518.49538 -48.14267,72.33214 -139.49532,57.26803 -162.72157,8.6271 -70.82799,-160.87797 -92.73954,-233.10123 -156.95211,-532.93616 -7.48286,-12.11575 -21.79587,-19.27622 -23.02469,4.64125 4.58899,313.91817 -0.3194,324.34349 1.58495,563.54556 3.842,112.08905 -113.5603279,83.0438 -104.7604509,4.67085 C -3.0109759,565.4837 1.0909601,366.40662 1.4607991,119.85516 5.0458361,-32.569747 114.46737,-31.907416 176.43518,78.357785 285.62429,317.0187 306.09454,481.51902 344.32166,706.10525 c 14.94602,29.65816 33.8114,20.37908 39.98628,-3.7421 68.69141,-244.14826 38.98233,-403.88147 137.73355,-621.924253 95.80132,-159.176115 201.37072,-46.038775 197.8929,38.470893 -0.80816,300.93729 8.87908,441.94908 2.71437,750.33892 -1.91291,75.44942 -97.29293,77.67642 -102.64279,1.34266 z"
     id="path95"
     inkscape:connector-curvature="0"
     sodipodi:nodetypes="ccccccccccccccccc" />
</svg>
