<?xml version="1.0" encoding="UTF-8" standalone="no"?>
<!-- Created with Inkscape (http://www.inkscape.org/) -->

<svg
   xmlns:dc="http://purl.org/dc/elements/1.1/"
   xmlns:cc="http://creativecommons.org/ns#"
   xmlns:rdf="http://www.w3.org/1999/02/22-rdf-syntax-ns#"
   xmlns:svg="http://www.w3.org/2000/svg"
   xmlns="http://www.w3.org/2000/svg"
   xmlns:sodipodi="http://sodipodi.sourceforge.net/DTD/sodipodi-0.dtd"
   xmlns:inkscape="http://www.inkscape.org/namespaces/inkscape"
   version="1.1"
   id="svg414"
   width="492.21381"
   height="929.99902"
   viewBox="0 0 492.2138 929.99903"
   sodipodi:docname="ru_upper_ie2.svg"
   inkscape:version="0.92.3 (2405546, 2018-03-11)">
  <metadata
     id="metadata420">
    <rdf:RDF>
      <cc:Work
         rdf:about="">
        <dc:format>image/svg+xml</dc:format>
        <dc:type
           rdf:resource="http://purl.org/dc/dcmitype/StillImage" />
        <dc:title></dc:title>
      </cc:Work>
    </rdf:RDF>
  </metadata>
  <defs
     id="defs418" />
  <sodipodi:namedview
     pagecolor="#ffffff"
     bordercolor="#666666"
     borderopacity="1"
     objecttolerance="10"
     gridtolerance="10"
     guidetolerance="10"
     inkscape:pageopacity="0"
     inkscape:pageshadow="2"
     inkscape:window-width="1916"
     inkscape:window-height="1041"
     id="namedview416"
     showgrid="false"
     inkscape:zoom="0.41388193"
     inkscape:cx="-10.901453"
     inkscape:cy="651.37983"
     inkscape:window-x="0"
     inkscape:window-y="18"
     inkscape:window-maximized="0"
     inkscape:current-layer="svg414"
     fit-margin-top="0"
     fit-margin-left="0"
     fit-margin-right="0"
     fit-margin-bottom="0"
     inkscape:measure-start="579.876,833.571"
     inkscape:measure-end="736.925,843.236" />
  <path
     style="fill:#000000;stroke-width:3.97769928"
     d="M 0,852.65149 C 2.5225202,469.50909 -0.4572234,372.93986 0.89926444,52.932947 11.684158,-27.056302 107.89978,-8.4495546 106.75999,56.002503 c 3.17357,143.053817 5.17648,183.174017 2.18579,333.663077 -3.21688,32.49409 25.07117,30.63835 32.97029,30.06898 382.67873,-25.53053 548.54341,488.74392 -10.28804,509.82102 -20.20351,0.762 -32.633319,0.35861 -49.695409,0.13313 C 24.569821,928.17694 0.57090541,895.07809 0,852.65149 Z M 172.4649,510.72213 c -34.11593,-4.83863 -70.5306,-6.1437 -70.31625,59.41877 -2.308288,75.02399 0.3544,129.26282 0.23969,206.37221 -0.27562,38.95654 5.63577,48.51761 31.79732,47.54678 192.7071,43.2267 460.72537,-230.52066 38.27924,-313.33776 z"
     id="path424"
     inkscape:connector-curvature="0"
     sodipodi:nodetypes="cccccsccccccc" />
</svg>
