<?xml version="1.0" encoding="UTF-8" standalone="no"?>
<!-- Created with Inkscape (http://www.inkscape.org/) -->

<svg
   xmlns:dc="http://purl.org/dc/elements/1.1/"
   xmlns:cc="http://creativecommons.org/ns#"
   xmlns:rdf="http://www.w3.org/1999/02/22-rdf-syntax-ns#"
   xmlns:svg="http://www.w3.org/2000/svg"
   xmlns="http://www.w3.org/2000/svg"
   xmlns:sodipodi="http://sodipodi.sourceforge.net/DTD/sodipodi-0.dtd"
   xmlns:inkscape="http://www.inkscape.org/namespaces/inkscape"
   version="1.1"
   id="svg61"
   width="1030.2543"
   height="930.00006"
   viewBox="0 0 1030.2543 930.00006"
   sodipodi:docname="ru_upper_shch.svg"
   inkscape:version="0.92.3 (2405546, 2018-03-11)">
  <metadata
     id="metadata67">
    <rdf:RDF>
      <cc:Work
         rdf:about="">
        <dc:format>image/svg+xml</dc:format>
        <dc:type
           rdf:resource="http://purl.org/dc/dcmitype/StillImage" />
        <dc:title></dc:title>
      </cc:Work>
    </rdf:RDF>
  </metadata>
  <defs
     id="defs65" />
  <sodipodi:namedview
     pagecolor="#ffffff"
     bordercolor="#666666"
     borderopacity="1"
     objecttolerance="10"
     gridtolerance="10"
     guidetolerance="10"
     inkscape:pageopacity="0"
     inkscape:pageshadow="2"
     inkscape:window-width="1916"
     inkscape:window-height="1041"
     id="namedview63"
     showgrid="false"
     fit-margin-top="0"
     fit-margin-left="0"
     fit-margin-right="0"
     fit-margin-bottom="0"
     inkscape:zoom="0.24161503"
     inkscape:cx="2162.5336"
     inkscape:cy="-115.71356"
     inkscape:window-x="0"
     inkscape:window-y="18"
     inkscape:window-maximized="0"
     inkscape:current-layer="svg61" />
  <path
     style="fill:#000000;stroke-width:3.44189811"
     d="m 512.04688,1.4550781 c -25.70732,0.2294387 -51.99505,21.3655509 -52.98243,53.2480469 -5.9289,273.745585 3.05753,371.996765 4.41993,682.624995 0.434,63.95903 1.50795,83.01087 -43.43555,83.86915 -118.04669,3.72954 -56.64862,5.16806 -152.54492,1.60156 -39.92781,2.22028 -74.18842,1.66576 -72.83594,-60.16797 C 195.46776,495.52477 190.54664,294.84485 191.5,61.767578 184.47872,-15.115922 93.440136,-14.472094 86.035156,58.878906 82.680846,347.19095 84.242989,611.13491 85.287109,844.15234 c 0.9142,73.37558 74.168271,86.61957 101.476561,86.23243 242.94254,-1.82277 358.76802,1.7563 530.02735,0.92382 34.59197,4.25818 100.15838,4.49897 209.99804,-1.03125 19.63411,2.53086 34.50711,5.12543 31.03744,36.29973 -0.003,22.57852 -4.87189,70.07953 -1.27148,120.03903 2.42778,21.5926 6.27276,40.5337 26.96871,40.3047 10.24,0 6.9755,0.2859 24.01757,-0.3496 21.2236,-1.9421 27.9264,-11.6354 27.1543,-39.5117 -2.31,-58.7454 2.227,-117.90107 -2.0879,-189.29297 -1.7537,-20.00394 7.8885,-58.95076 -71.51753,-55.92188 -22.45358,-2.07001 -24.93491,-9.54418 -22.87337,-29.33684 0.24012,-262.74779 -1.54543,-537.03528 -1.34375,-743.66406 -3.028,-88.19565 -110.48353,-83.907885 -109.20703,-2.140625 4.3713,163.481955 2.40716,456.237545 5.47656,673.767575 1.6721,64.24292 -17.47023,85.11953 -68.45703,83.86719 -68.2326,4.0824 -56.68811,-0.55029 -140.62891,-1.78906 -27.5408,0.76966 -53.58708,4.89891 -52.64648,-60.04297 C 564.32186,510.21051 565.20164,356.37182 560.96094,56.660156 556.95978,17.326767 534.7298,1.2526322 512.04688,1.4550781 Z"
     id="path71"
     inkscape:connector-curvature="0"
     sodipodi:nodetypes="sccccccccccccccccccccccccccs" />
</svg>
