<?xml version="1.0" encoding="UTF-8" standalone="no"?>
<!-- Created with Inkscape (http://www.inkscape.org/) -->

<svg
   xmlns:dc="http://purl.org/dc/elements/1.1/"
   xmlns:cc="http://creativecommons.org/ns#"
   xmlns:rdf="http://www.w3.org/1999/02/22-rdf-syntax-ns#"
   xmlns:svg="http://www.w3.org/2000/svg"
   xmlns="http://www.w3.org/2000/svg"
   xmlns:sodipodi="http://sodipodi.sourceforge.net/DTD/sodipodi-0.dtd"
   xmlns:inkscape="http://www.inkscape.org/namespaces/inkscape"
   version="1.1"
   id="svg61"
   width="626.61102"
   height="930"
   viewBox="0 0 626.61103 930"
   sodipodi:docname="ru_upper_ee.svg"
   inkscape:version="0.92.3 (2405546, 2018-03-11)">
  <metadata
     id="metadata67">
    <rdf:RDF>
      <cc:Work
         rdf:about="">
        <dc:format>image/svg+xml</dc:format>
        <dc:type
           rdf:resource="http://purl.org/dc/dcmitype/StillImage" />
        <dc:title></dc:title>
      </cc:Work>
    </rdf:RDF>
  </metadata>
  <defs
     id="defs65" />
  <sodipodi:namedview
     pagecolor="#ffffff"
     bordercolor="#666666"
     borderopacity="1"
     objecttolerance="10"
     gridtolerance="10"
     guidetolerance="10"
     inkscape:pageopacity="0"
     inkscape:pageshadow="2"
     inkscape:window-width="1916"
     inkscape:window-height="1041"
     id="namedview63"
     showgrid="false"
     inkscape:zoom="0.25479404"
     inkscape:cx="73.828777"
     inkscape:cy="205.01879"
     inkscape:window-x="0"
     inkscape:window-y="18"
     inkscape:window-maximized="0"
     inkscape:current-layer="svg61"
     inkscape:measure-start="3.92474,313.979"
     inkscape:measure-end="-90.269,696.641"
     fit-margin-top="0"
     fit-margin-left="0"
     fit-margin-right="0"
     fit-margin-bottom="0" />
  <path
     style="fill:#000000;stroke-width:4.13376331"
     d="m 23.306284,894.50879 c -54.9405,-45.33562 -0.24476,-110.14532 36.06058,-96.61111 200.453066,54.48104 363.252536,-2.0974 451.339626,-222.82554 5.73763,-39.4432 0.53115,-62.3841 -33.25773,-63.9651 -131.78129,-8.82995 -163.24314,-1.43175 -300.92316,-5.44343 -65.89729,-17.11788 -37.74192,-92.57919 -1.87741,-98.02069 96.86594,-5.23363 200.73263,1.35268 284.32609,-4.6524 50.93254,-3.26189 51.29621,-28.38212 49.54683,-58.97448 C 463.38216,120.45928 249.49109,75.435559 81.391374,114.74624 9.032394,143.80849 -33.411926,62.319359 37.584164,20.294699 906.54278,-179.04336 738.93407,1162.237 23.306284,894.50879 Z"
     id="path71"
     inkscape:connector-curvature="0"
     sodipodi:nodetypes="ccccccccccc" />
</svg>
