<?xml version="1.0" encoding="UTF-8" standalone="no"?>
<!-- Created with Inkscape (http://www.inkscape.org/) -->

<svg
   xmlns:dc="http://purl.org/dc/elements/1.1/"
   xmlns:cc="http://creativecommons.org/ns#"
   xmlns:rdf="http://www.w3.org/1999/02/22-rdf-syntax-ns#"
   xmlns:svg="http://www.w3.org/2000/svg"
   xmlns="http://www.w3.org/2000/svg"
   xmlns:sodipodi="http://sodipodi.sourceforge.net/DTD/sodipodi-0.dtd"
   xmlns:inkscape="http://www.inkscape.org/namespaces/inkscape"
   version="1.1"
   id="svg117"
   width="611.16071"
   height="930"
   viewBox="0 0 611.1607 930"
   sodipodi:docname="ru_upper_i.svg"
   inkscape:version="0.92.3 (2405546, 2018-03-11)">
  <metadata
     id="metadata123">
    <rdf:RDF>
      <cc:Work
         rdf:about="">
        <dc:format>image/svg+xml</dc:format>
        <dc:type
           rdf:resource="http://purl.org/dc/dcmitype/StillImage" />
        <dc:title></dc:title>
      </cc:Work>
    </rdf:RDF>
  </metadata>
  <defs
     id="defs121" />
  <sodipodi:namedview
     pagecolor="#ffffff"
     bordercolor="#666666"
     borderopacity="1"
     objecttolerance="10"
     gridtolerance="10"
     guidetolerance="10"
     inkscape:pageopacity="0"
     inkscape:pageshadow="2"
     inkscape:window-width="1916"
     inkscape:window-height="1041"
     id="namedview119"
     showgrid="false"
     inkscape:zoom="0.36033318"
     inkscape:cx="-323.09999"
     inkscape:cy="474.78201"
     inkscape:window-x="0"
     inkscape:window-y="18"
     inkscape:window-maximized="0"
     inkscape:current-layer="svg117"
     fit-margin-top="0"
     fit-margin-left="0"
     fit-margin-right="0"
     fit-margin-bottom="0"
     inkscape:measure-start="787.891,808.496"
     inkscape:measure-end="441.533,893.859" />
  <path
     style="fill:#000000;stroke-width:4.33196592"
     d="M 2.4340636,857.43291 C -1.2948364,578.05792 -0.08764636,264.24692 1.7497936,65.985676 6.5005736,-18.328058 100.9654,-7.1656515 102.13416,63.148454 c 8.82106,265.787686 5.57067,460.899186 6.20522,575.938176 5.87052,88.93326 42.52142,79.28919 79.36119,-14.83863 76.22122,-198.74724 78.62458,-223.58967 196.96066,-505.32172 40.02062,-89.195478 198.39734,-203.641588 223.5471,-23.951954 6.25281,325.646744 0.66728,485.467904 0.42929,763.872584 -8.79527,113.79021 -108.4893,73.436 -104.77933,1.61469 4.79403,-274.10639 -2.13142,-449.21135 -0.32714,-663.45416 -3.24817,-36.48286 -25.41655,-16.758 -32.47902,-3.46719 C 372.99341,385.93461 330.92941,597.94699 211.4069,822.38991 140.15809,939.14644 17.402584,973.00675 2.4340636,857.43291 Z"
     id="path127"
     inkscape:connector-curvature="0"
     sodipodi:nodetypes="ccccccccccccc" />
</svg>
