<?xml version="1.0" encoding="UTF-8" standalone="no"?>
<!-- Created with Inkscape (http://www.inkscape.org/) -->

<svg
   xmlns:dc="http://purl.org/dc/elements/1.1/"
   xmlns:cc="http://creativecommons.org/ns#"
   xmlns:rdf="http://www.w3.org/1999/02/22-rdf-syntax-ns#"
   xmlns:svg="http://www.w3.org/2000/svg"
   xmlns="http://www.w3.org/2000/svg"
   xmlns:sodipodi="http://sodipodi.sourceforge.net/DTD/sodipodi-0.dtd"
   xmlns:inkscape="http://www.inkscape.org/namespaces/inkscape"
   version="1.1"
   id="svg85"
   width="626.00421"
   height="930"
   viewBox="0 0 626.00422 930"
   sodipodi:docname="ru_upper_h.svg"
   inkscape:version="0.92.3 (2405546, 2018-03-11)">
  <metadata
     id="metadata91">
    <rdf:RDF>
      <cc:Work
         rdf:about="">
        <dc:format>image/svg+xml</dc:format>
        <dc:type
           rdf:resource="http://purl.org/dc/dcmitype/StillImage" />
        <dc:title></dc:title>
      </cc:Work>
    </rdf:RDF>
  </metadata>
  <defs
     id="defs89" />
  <sodipodi:namedview
     pagecolor="#ffffff"
     bordercolor="#666666"
     borderopacity="1"
     objecttolerance="10"
     gridtolerance="10"
     guidetolerance="10"
     inkscape:pageopacity="0"
     inkscape:pageshadow="2"
     inkscape:window-width="1916"
     inkscape:window-height="1041"
     id="namedview87"
     showgrid="false"
     fit-margin-top="0"
     fit-margin-left="0"
     fit-margin-right="0"
     fit-margin-bottom="0"
     inkscape:zoom="0.33590382"
     inkscape:cx="206.23768"
     inkscape:cy="165.16658"
     inkscape:window-x="0"
     inkscape:window-y="18"
     inkscape:window-maximized="0"
     inkscape:current-layer="svg85"
     inkscape:measure-start="511.536,52.6272"
     inkscape:measure-end="658.892,199.983" />
  <path
     style="fill:#000000;stroke-width:4.40228271"
     d="M 535.4239,909.64054 C 445.8756,785.05799 434.70942,782.23824 341.53838,634.43922 312.9134,592.65041 289.70242,590.48279 262.74836,635.07367 191.89487,748.17071 171.00967,782.98693 105.33992,901.50977 63.952179,964.46733 -22.161296,912.13892 6.5012695,850.32344 78.770259,720.49873 154.0604,607.09521 195.25324,537.58605 c 19.4506,-27.83761 33.87538,-41.70324 11.4345,-79.4253 C 124.54651,321.70038 113.15193,293.41632 9.4633275,84.708277 -30.447119,5.0457244 66.667389,-27.340625 100.67291,26.657744 185.64916,200.02633 188.38944,206.73091 257.63062,337.71799 c 32.66178,39.51572 51.24336,33.20411 75.04653,0.6496 C 405.0425,224.91236 442.09267,171.67251 526.71106,32.391475 569.92717,-32.069008 654.71103,15.78407 616.25157,81.254803 518.92291,248.82395 455.23804,349.39491 413.01668,421.95516 c -16.80401,28.99543 -55.31843,71.09974 -27.64894,97.17681 86.12265,127.48388 148.92331,213.04804 216.97984,307.7153 60.88718,53.52066 -12.81925,138.09259 -66.92368,82.79327 z"
     id="path95"
     inkscape:connector-curvature="0"
     sodipodi:nodetypes="ccccccccccccccccc" />
</svg>
