<?xml version="1.0" encoding="UTF-8" standalone="no"?>
<!-- Created with Inkscape (http://www.inkscape.org/) -->

<svg
   xmlns:dc="http://purl.org/dc/elements/1.1/"
   xmlns:cc="http://creativecommons.org/ns#"
   xmlns:rdf="http://www.w3.org/1999/02/22-rdf-syntax-ns#"
   xmlns:svg="http://www.w3.org/2000/svg"
   xmlns="http://www.w3.org/2000/svg"
   xmlns:sodipodi="http://sodipodi.sourceforge.net/DTD/sodipodi-0.dtd"
   xmlns:inkscape="http://www.inkscape.org/namespaces/inkscape"
   version="1.1"
   id="svg202"
   width="636.68732"
   height="930.00098"
   viewBox="0 0 636.68731 930.00098"
   sodipodi:docname="ru_upper_yu.svg"
   inkscape:version="0.92.3 (2405546, 2018-03-11)">
  <metadata
     id="metadata208">
    <rdf:RDF>
      <cc:Work
         rdf:about="">
        <dc:format>image/svg+xml</dc:format>
        <dc:type
           rdf:resource="http://purl.org/dc/dcmitype/StillImage" />
        <dc:title></dc:title>
      </cc:Work>
    </rdf:RDF>
  </metadata>
  <defs
     id="defs206" />
  <sodipodi:namedview
     pagecolor="#ffffff"
     bordercolor="#666666"
     borderopacity="1"
     objecttolerance="10"
     gridtolerance="10"
     guidetolerance="10"
     inkscape:pageopacity="0"
     inkscape:pageshadow="2"
     inkscape:window-width="1916"
     inkscape:window-height="1041"
     id="namedview204"
     showgrid="false"
     inkscape:zoom="0.28452932"
     inkscape:cx="745.46996"
     inkscape:cy="641.61426"
     inkscape:window-x="0"
     inkscape:window-y="18"
     inkscape:window-maximized="0"
     inkscape:current-layer="svg202"
     fit-margin-top="0"
     fit-margin-left="0"
     fit-margin-right="0"
     fit-margin-bottom="0"
     inkscape:measure-start="351.458,184.515"
     inkscape:measure-end="217.904,94.8936" />
  <path
     style="fill:#000000;stroke-width:4.05925131"
     d="m 171.80177,548.20072 c -4.78921,-15.76463 -6.69739,-28.29139 -25.48606,-28.0887 -6.3879,0.0246 -11.10262,-0.62881 -17.64885,-0.47927 -13.0027,-2.05933 -26.55714,4.97078 -28.13572,29.29696 -0.605077,103.37488 1.0809,225.05925 0.49628,329.97094 0.55103,66.30441 -103.0828799,70.4903 -100.1804072,-1.61709 C 0.82682866,621.2553 -1.2973785,303.74315 1.2593517,54.409838 1.6439759,-23.839216 106.55938,-12.290138 102.96028,54.699692 c -0.13112,137.918158 -3.784224,217.043778 0.8972,342.486268 1.38018,24.40586 3.16403,28.92326 23.23141,31.52099 6.4818,0.76721 12.03799,1.15 20.11522,0.95857 19.71976,1.28316 20.08978,-9.07643 23.68461,-20.72662 79.04729,-620.11001 462.43139,-480.045297 465.32964,89.03818 16.36242,535.55382 -400.49895,596.31282 -464.41659,50.22364 z m 368.98191,-50.6717 C 515.36008,-67.961651 263.06574,51.127266 267.04994,485.46436 c 23.87473,494.98697 296.35451,398.37798 273.73374,12.06466 z"
     id="path212"
     inkscape:connector-curvature="0"
     sodipodi:nodetypes="ccccccccccccccccc" />
</svg>
