<?xml version="1.0" encoding="UTF-8" standalone="no"?>
<!-- Created with Inkscape (http://www.inkscape.org/) -->

<svg
   xmlns:dc="http://purl.org/dc/elements/1.1/"
   xmlns:cc="http://creativecommons.org/ns#"
   xmlns:rdf="http://www.w3.org/1999/02/22-rdf-syntax-ns#"
   xmlns:svg="http://www.w3.org/2000/svg"
   xmlns="http://www.w3.org/2000/svg"
   xmlns:sodipodi="http://sodipodi.sourceforge.net/DTD/sodipodi-0.dtd"
   xmlns:inkscape="http://www.inkscape.org/namespaces/inkscape"
   version="1.1"
   id="svg61"
   width="535.51685"
   height="929.99902"
   viewBox="0 0 535.51685 929.99902"
   sodipodi:docname="ru_upper_p.svg"
   inkscape:version="0.92.3 (2405546, 2018-03-11)">
  <metadata
     id="metadata67">
    <rdf:RDF>
      <cc:Work
         rdf:about="">
        <dc:format>image/svg+xml</dc:format>
        <dc:type
           rdf:resource="http://purl.org/dc/dcmitype/StillImage" />
        <dc:title></dc:title>
      </cc:Work>
    </rdf:RDF>
  </metadata>
  <defs
     id="defs65" />
  <sodipodi:namedview
     pagecolor="#ffffff"
     bordercolor="#666666"
     borderopacity="1"
     objecttolerance="10"
     gridtolerance="10"
     guidetolerance="10"
     inkscape:pageopacity="0"
     inkscape:pageshadow="2"
     inkscape:window-width="1916"
     inkscape:window-height="1041"
     id="namedview63"
     showgrid="false"
     fit-margin-top="0"
     fit-margin-left="0"
     fit-margin-right="0"
     fit-margin-bottom="0"
     inkscape:zoom="0.54955577"
     inkscape:cx="336.00541"
     inkscape:cy="344.03157"
     inkscape:window-x="0"
     inkscape:window-y="18"
     inkscape:window-maximized="0"
     inkscape:current-layer="svg61"
     inkscape:measure-start="361.559,777.16"
     inkscape:measure-end="328.105,970.163" />
  <path
     style="fill:#000000;stroke-width:4.11582994"
     d="M 1.3270989,876.16016 C 5.0378389,616.42017 -1.9015911,361.63199 0.52972894,167.37854 4.1208889,124.19787 31.850459,23.558233 120.33609,9.1323093 264.40708,-7.4804225 205.73264,3.8982737 403.61404,2.661117 492.86682,7.5951953 531.4484,97.453258 534.17991,184.25094 c -1.07493,220.25567 3.80123,493.80873 -0.40294,687.34225 -4.91044,86.53761 -114.19034,67.67013 -108.94242,1.5395 -0.0404,-250.52559 4.26535,-568.72254 0.12279,-665.8283 -4.04068,-96.39329 -57.10855,-97.81169 -113.58187,-99.72556 -59.01147,-3.83974 -85.37248,1.08009 -113.69962,1.61593 -59.02227,4.28045 -89.62174,30.46384 -91.56383,97.47882 -2.85401,162.6894 9.60478,307.03061 1.09027,668.79793 -3.75199,76.04916 -112.8387711,69.05928 -105.8751911,0.68865 z"
     id="path71"
     inkscape:connector-curvature="0"
     sodipodi:nodetypes="ccccccccccccc" />
</svg>
