<?xml version="1.0" encoding="UTF-8" standalone="no"?>
<!-- Created with Inkscape (http://www.inkscape.org/) -->

<svg
   xmlns:dc="http://purl.org/dc/elements/1.1/"
   xmlns:cc="http://creativecommons.org/ns#"
   xmlns:rdf="http://www.w3.org/1999/02/22-rdf-syntax-ns#"
   xmlns:svg="http://www.w3.org/2000/svg"
   xmlns="http://www.w3.org/2000/svg"
   xmlns:sodipodi="http://sodipodi.sourceforge.net/DTD/sodipodi-0.dtd"
   xmlns:inkscape="http://www.inkscape.org/namespaces/inkscape"
   version="1.1"
   id="svg61"
   width="694.125"
   height="930"
   viewBox="0 0 694.125 930"
   sodipodi:docname="ru_upper_u.svg"
   inkscape:version="0.92.3 (2405546, 2018-03-11)">
  <metadata
     id="metadata67">
    <rdf:RDF>
      <cc:Work
         rdf:about="">
        <dc:format>image/svg+xml</dc:format>
        <dc:type
           rdf:resource="http://purl.org/dc/dcmitype/StillImage" />
        <dc:title></dc:title>
      </cc:Work>
    </rdf:RDF>
  </metadata>
  <defs
     id="defs65" />
  <sodipodi:namedview
     pagecolor="#ffffff"
     bordercolor="#666666"
     borderopacity="1"
     objecttolerance="10"
     gridtolerance="10"
     guidetolerance="10"
     inkscape:pageopacity="0"
     inkscape:pageshadow="2"
     inkscape:window-width="1916"
     inkscape:window-height="1041"
     id="namedview63"
     showgrid="false"
     inkscape:zoom="0.54955577"
     inkscape:cx="-240.35494"
     inkscape:cy="306.03517"
     inkscape:window-x="0"
     inkscape:window-y="18"
     inkscape:window-maximized="0"
     inkscape:current-layer="svg61"
     fit-margin-top="0"
     fit-margin-left="0"
     fit-margin-right="0"
     fit-margin-bottom="0"
     inkscape:measure-start="228.387,201.367"
     inkscape:measure-end="449.054,117.089" />
  <path
     style="fill:#000000;stroke-width:4.1586318"
     d="M 81.837138,827.28657 C 343.63272,832.97372 274.08152,664.05847 212.41376,545.89834 164.80837,444.91287 79.390975,275.02052 2.0108735,84.33244 -14.204699,5.9657056 72.428543,11.808257 90.70433,52.828121 170.70243,200.17881 259.36806,376.97679 326.99234,524.75558 c 20.1469,46.80853 36.8976,28.16812 52.06854,3.67473 C 478.10815,302.91495 520.47255,202.96561 593.95054,35.384101 610.9133,-16.284742 710.99698,-16.286117 691.65509,68.375613 599.95678,316.68521 598.65015,322.19103 498.5388,537.41176 424.13826,688.90947 371.19263,949.29952 80.10785,928.86531 19.588583,926.23962 6.2637249,836.65088 81.837138,827.28657 Z"
     id="path71"
     inkscape:connector-curvature="0"
     sodipodi:nodetypes="ccccccccccc" />
</svg>
