<?xml version="1.0" encoding="UTF-8" standalone="no"?>
<!-- Created with Inkscape (http://www.inkscape.org/) -->

<svg
   xmlns:dc="http://purl.org/dc/elements/1.1/"
   xmlns:cc="http://creativecommons.org/ns#"
   xmlns:rdf="http://www.w3.org/1999/02/22-rdf-syntax-ns#"
   xmlns:svg="http://www.w3.org/2000/svg"
   xmlns="http://www.w3.org/2000/svg"
   xmlns:sodipodi="http://sodipodi.sourceforge.net/DTD/sodipodi-0.dtd"
   xmlns:inkscape="http://www.inkscape.org/namespaces/inkscape"
   version="1.1"
   id="svg191"
   width="541.28174"
   height="929.99902"
   viewBox="0 0 541.28174 929.99902"
   sodipodi:docname="ru_upper_c.svg"
   inkscape:version="0.92.3 (2405546, 2018-03-11)">
  <metadata
     id="metadata197">
    <rdf:RDF>
      <cc:Work
         rdf:about="">
        <dc:format>image/svg+xml</dc:format>
        <dc:type
           rdf:resource="http://purl.org/dc/dcmitype/StillImage" />
        <dc:title></dc:title>
      </cc:Work>
    </rdf:RDF>
  </metadata>
  <defs
     id="defs195" />
  <sodipodi:namedview
     pagecolor="#ffffff"
     bordercolor="#666666"
     borderopacity="1"
     objecttolerance="10"
     gridtolerance="10"
     guidetolerance="10"
     inkscape:pageopacity="0"
     inkscape:pageshadow="2"
     inkscape:window-width="1916"
     inkscape:window-height="1041"
     id="namedview193"
     showgrid="false"
     inkscape:zoom="0.35915374"
     inkscape:cx="398.32642"
     inkscape:cy="314.79419"
     inkscape:window-x="0"
     inkscape:window-y="18"
     inkscape:window-maximized="0"
     inkscape:current-layer="svg191"
     fit-margin-top="0"
     fit-margin-left="0"
     fit-margin-right="0"
     fit-margin-bottom="0"
     inkscape:measure-start="464.982,289.57"
     inkscape:measure-end="403.727,100.236" />
  <path
     style="fill:#000000;stroke-width:3.70351267"
     d="M 413.47406,753.26815 C 241.56264,759.6417 250.02746,758.59347 97.985314,758.51016 29.042943,759.67769 7.1514281,743.33845 2.9405044,678.35213 3.6077931,468.94462 -2.3177829,226.62813 1.0345906,58.174145 1.9167324,-21.62042 105.34273,-15.259535 104.62627,57.221934 c -0.40553,154.854866 -1.03448,304.727786 0.53591,394.951626 1.18309,74.66222 -0.79258,67.0864 -0.14845,152.35297 0.94231,41.29993 12.77947,50.4873 45.67935,48.42234 54.24967,3.10074 78.93813,5.55238 140.5941,0.48215 27.45555,-5.31601 24.53104,-11.47169 25.26761,-50.10885 -3.73627,-208.30717 -4.79101,-311.70641 -5.29366,-551.356657 0.51207,-73.495458 102.89385,-65.131988 100.50043,0.589214 5.01784,217.348123 9.20593,292.553163 9.63571,575.463203 -1.13003,40.94669 -3.83635,48.11667 28.1367,54.7178 17.00255,2.57998 24.96742,0.97769 47.8623,4.73269 42.59762,9.05335 41.21702,22.69708 43.50797,67.5828 0.64372,36.66357 0.3628,32.12236 -0.0902,128.02156 -2.34217,61.63669 -86.30643,61.59207 -88.55462,5.53152 -1.2203,-30.42883 1.3726,-51.94461 -0.11385,-82.85962 -4.80959,-41.53644 -17.46589,-47.47714 -38.67159,-52.47745 z"
     id="path201"
     inkscape:connector-curvature="0"
     sodipodi:nodetypes="cccccccccccccccccsccc" />
</svg>
