<?xml version="1.0" encoding="UTF-8" standalone="no"?>
<!-- Created with Inkscape (http://www.inkscape.org/) -->

<svg
   xmlns:dc="http://purl.org/dc/elements/1.1/"
   xmlns:cc="http://creativecommons.org/ns#"
   xmlns:rdf="http://www.w3.org/1999/02/22-rdf-syntax-ns#"
   xmlns:svg="http://www.w3.org/2000/svg"
   xmlns="http://www.w3.org/2000/svg"
   xmlns:sodipodi="http://sodipodi.sourceforge.net/DTD/sodipodi-0.dtd"
   xmlns:inkscape="http://www.inkscape.org/namespaces/inkscape"
   version="1.1"
   id="svg117"
   width="611.16071"
   height="1093.3306"
   viewBox="0 0 611.1607 1093.3306"
   sodipodi:docname="ru_upper_y.svg"
   inkscape:version="0.92.3 (2405546, 2018-03-11)">
  <metadata
     id="metadata123">
    <rdf:RDF>
      <cc:Work
         rdf:about="">
        <dc:format>image/svg+xml</dc:format>
        <dc:type
           rdf:resource="http://purl.org/dc/dcmitype/StillImage" />
        <dc:title></dc:title>
      </cc:Work>
    </rdf:RDF>
  </metadata>
  <defs
     id="defs121" />
  <sodipodi:namedview
     pagecolor="#ffffff"
     bordercolor="#666666"
     borderopacity="1"
     objecttolerance="10"
     gridtolerance="10"
     guidetolerance="10"
     inkscape:pageopacity="0"
     inkscape:pageshadow="2"
     inkscape:window-width="1916"
     inkscape:window-height="1041"
     id="namedview119"
     showgrid="false"
     inkscape:zoom="0.25479404"
     inkscape:cx="270.99913"
     inkscape:cy="1435.1658"
     inkscape:window-x="0"
     inkscape:window-y="18"
     inkscape:window-maximized="0"
     inkscape:current-layer="svg117"
     fit-margin-top="0"
     fit-margin-left="0"
     fit-margin-right="0"
     fit-margin-bottom="0"
     inkscape:measure-start="454.441,1010.87"
     inkscape:measure-end="543.247,1046.25" />
  <path
     style="fill:#000000;stroke-width:4.33196592"
     d="m 2.4340636,1020.7634 c -3.7289,-279.37495 -2.52170994,-593.18595 -0.68427,-791.44719 4.75078,-84.31373 99.2156064,-73.15133 100.3843664,-2.83722 8.82106,265.78768 5.57067,460.89918 6.20522,575.93817 5.87052,88.93326 42.52142,79.28919 79.36119,-14.83863 76.22122,-198.74724 78.62458,-223.58967 196.96066,-505.32172 40.02062,-89.19547 198.39734,-203.641583 223.5471,-23.95195 6.25281,325.64674 0.66728,485.4679 0.42929,763.87254 -8.79527,113.7903 -108.4893,73.436 -104.77933,1.6147 4.79403,-274.10636 -2.13142,-449.21132 -0.32714,-663.45413 -3.24817,-36.48286 -25.41655,-16.758 -32.47902,-3.46719 C 372.99341,549.26514 330.92941,761.27752 211.4069,985.72044 140.15809,1102.477 17.402584,1136.3373 2.4340636,1020.7634 Z"
     id="path127"
     inkscape:connector-curvature="0"
     sodipodi:nodetypes="ccccccccccccc" />
  <path
     style="fill:#000000;stroke-width:3.21561861"
     d="M 74.700577,29.426135 C 55.095798,-10.889819 108.1362,-49.116165 137.63382,-2.3687086 195.86494,127.379 356.72204,162.29149 447.57345,2.8728706 475.59365,-48.982227 543.36485,-16.382152 507.10887,39.593946 455.06852,155.12712 180.00989,218.54143 74.700577,29.426135 Z"
     id="path183"
     inkscape:connector-curvature="0"
     sodipodi:nodetypes="ccccc" />
</svg>
