<?xml version="1.0" encoding="UTF-8" standalone="no"?>
<svg
   xmlns:dc="http://purl.org/dc/elements/1.1/"
   xmlns:cc="http://creativecommons.org/ns#"
   xmlns:rdf="http://www.w3.org/1999/02/22-rdf-syntax-ns#"
   xmlns:svg="http://www.w3.org/2000/svg"
   xmlns="http://www.w3.org/2000/svg"
   xmlns:sodipodi="http://sodipodi.sourceforge.net/DTD/sodipodi-0.dtd"
   xmlns:inkscape="http://www.inkscape.org/namespaces/inkscape"
   version="1.1"
   viewBox="0 -200 533.62213 930"
   id="svg571"
   sodipodi:docname="ru_upper_k.svg"
   width="533.62213"
   height="930"
   inkscape:version="0.92.3 (2405546, 2018-03-11)">
  <metadata
     id="metadata577">
    <rdf:RDF>
      <cc:Work
         rdf:about="">
        <dc:format>image/svg+xml</dc:format>
        <dc:type
           rdf:resource="http://purl.org/dc/dcmitype/StillImage" />
        <dc:title></dc:title>
      </cc:Work>
    </rdf:RDF>
  </metadata>
  <defs
     id="defs575" />
  <sodipodi:namedview
     pagecolor="#ffffff"
     bordercolor="#666666"
     borderopacity="1"
     objecttolerance="10"
     gridtolerance="10"
     guidetolerance="10"
     inkscape:pageopacity="0"
     inkscape:pageshadow="2"
     inkscape:window-width="956"
     inkscape:window-height="1041"
     id="namedview573"
     showgrid="false"
     fit-margin-top="0"
     fit-margin-left="0"
     fit-margin-right="0"
     fit-margin-bottom="0"
     inkscape:zoom="0.6675088"
     inkscape:cx="-61.4347"
     inkscape:cy="622.9125"
     inkscape:window-x="960"
     inkscape:window-y="18"
     inkscape:window-maximized="0"
     inkscape:current-layer="svg571" />
  <g
     transform="matrix(1.3285739,0,0,-1.3285739,-66.428785,730.30731)"
     id="g569">
    <path
       d="m 50.5752,46.0869 c 4.34473,275.81 -2.07031,440.072 -0.236328,613.327 1.44824,52.7881 72.750998,55.8594 76.178698,0.49805 -2.49316,-76.3867 -0.77051,-165.241 2.43555,-240.73 3.97754,-35.5967 28.0244,-24.8076 53.1318,1.14746 88.248,110.515 124.947,172.097 205.661,270.437 28.9443,22.3418 86.1455,1.12109 54.7686,-50.0225 -91.0029,-120.543 -117.955,-177.679 -215.446,-281.345 -18.4707,-14.0977 -31.4404,-25.3652 -4.5166,-46.5137 84.3184,-78.7354 108.983,-152.646 203.752,-230.419003 57.0059,-44.8848 6.99414,-111.937 -43.7637,-67.0283 -89.1699,84.5342 -132.985,152.141003 -209.385,245.670003 -24.2021,24.4951 -39.8662,6.01074 -40.7891,-13.4277 -4.9375,-78.9121 -2.03418,-127.295 -2.7793,-201.037003 -5.69629,-69.5811 -83.080098,-53.5117 -79.011698,-0.555664 v 0 z"
       id="path567"
       inkscape:connector-curvature="0"
       style="fill:currentColor" />
  </g>
</svg>
