<?xml version="1.0" encoding="UTF-8" standalone="no"?>
<!-- Created with Inkscape (http://www.inkscape.org/) -->

<svg
   xmlns:dc="http://purl.org/dc/elements/1.1/"
   xmlns:cc="http://creativecommons.org/ns#"
   xmlns:rdf="http://www.w3.org/1999/02/22-rdf-syntax-ns#"
   xmlns:svg="http://www.w3.org/2000/svg"
   xmlns="http://www.w3.org/2000/svg"
   xmlns:sodipodi="http://sodipodi.sourceforge.net/DTD/sodipodi-0.dtd"
   xmlns:inkscape="http://www.inkscape.org/namespaces/inkscape"
   version="1.1"
   id="svg188"
   width="550.42126"
   height="930.00098"
   viewBox="0 0 550.42126 930.00098"
   sodipodi:docname="ru_upper_b.svg"
   inkscape:version="0.92.3 (2405546, 2018-03-11)">
  <metadata
     id="metadata194">
    <rdf:RDF>
      <cc:Work
         rdf:about="">
        <dc:format>image/svg+xml</dc:format>
        <dc:type
           rdf:resource="http://purl.org/dc/dcmitype/StillImage" />
        <dc:title></dc:title>
      </cc:Work>
    </rdf:RDF>
  </metadata>
  <defs
     id="defs192" />
  <sodipodi:namedview
     pagecolor="#ffffff"
     bordercolor="#666666"
     borderopacity="1"
     objecttolerance="10"
     gridtolerance="10"
     guidetolerance="10"
     inkscape:pageopacity="0"
     inkscape:pageshadow="2"
     inkscape:window-width="1916"
     inkscape:window-height="1041"
     id="namedview190"
     showgrid="false"
     fit-margin-top="0"
     fit-margin-left="0"
     fit-margin-right="0"
     fit-margin-bottom="0"
     inkscape:zoom="0.78301991"
     inkscape:cx="220.34508"
     inkscape:cy="449.65844"
     inkscape:window-x="0"
     inkscape:window-y="18"
     inkscape:window-maximized="0"
     inkscape:current-layer="svg188"
     inkscape:measure-start="285.433,362.698"
     inkscape:measure-end="1195.37,348.65" />
  <path
     style="fill:#000000;stroke-width:4.17379522"
     d="M 111.04363,923.76843 C -15.153641,913.35723 5.7341118,801.38529 1.7799009,705.932 2.0677239,515.77395 -0.94700344,345.01407 1.5130275,207.91493 0.69014846,136.20559 -17.600036,10.056773 98.918163,5.8440051 241.85366,-4.3078177 323.82937,1.911644 429.51057,1.6294517 522.45488,14.160343 474.17897,119.38941 428.53391,108.6198 c -104.32903,-0.2339 -199.66551,4.02421 -269.94513,0.53328 -62.495269,2.56176 -55.1156,31.26769 -52.36377,114.05059 -1.81431,62.89319 3.60017,110.44238 -0.11524,154.99794 -5.32458,49.42866 1.14471,37.2637 46.47474,34.37525 49.44162,1.54168 77.07403,2.48675 119.53725,2.5466 411.97794,24.68738 328.89209,518.88406 -3.76304,512.56864 -35.61722,3.70906 -78.3275,3.32531 -157.31509,-3.92367 z M 270.90507,519.86296 c -143.3988,-2.90944 -168.81581,-6.14043 -161.664,99.90806 0.0665,139.78347 -25.112452,197.59302 74.55708,202.96056 37.67193,-0.55569 49.58693,-2.03547 85.14392,-0.75736 203.36249,16.68089 260.63197,-304.48811 1.963,-302.11126 z"
     id="path198"
     inkscape:connector-curvature="0"
     sodipodi:nodetypes="cccccccccccccccccc" />
</svg>
