<?xml version="1.0" encoding="UTF-8" standalone="no"?>
<!-- Created with Inkscape (http://www.inkscape.org/) -->

<svg
   xmlns:dc="http://purl.org/dc/elements/1.1/"
   xmlns:cc="http://creativecommons.org/ns#"
   xmlns:rdf="http://www.w3.org/1999/02/22-rdf-syntax-ns#"
   xmlns:svg="http://www.w3.org/2000/svg"
   xmlns="http://www.w3.org/2000/svg"
   xmlns:sodipodi="http://sodipodi.sourceforge.net/DTD/sodipodi-0.dtd"
   xmlns:inkscape="http://www.inkscape.org/namespaces/inkscape"
   version="1.1"
   id="svg308"
   width="739.38135"
   height="930.00098"
   viewBox="0 0 739.38135 930.00099"
   sodipodi:docname="ru_upper_ie.svg"
   inkscape:version="0.92.3 (2405546, 2018-03-11)">
  <metadata
     id="metadata314">
    <rdf:RDF>
      <cc:Work
         rdf:about="">
        <dc:format>image/svg+xml</dc:format>
        <dc:type
           rdf:resource="http://purl.org/dc/dcmitype/StillImage" />
        <dc:title></dc:title>
      </cc:Work>
    </rdf:RDF>
  </metadata>
  <defs
     id="defs312" />
  <sodipodi:namedview
     pagecolor="#ffffff"
     bordercolor="#666666"
     borderopacity="1"
     objecttolerance="10"
     gridtolerance="10"
     guidetolerance="10"
     inkscape:pageopacity="0"
     inkscape:pageshadow="2"
     inkscape:window-width="1916"
     inkscape:window-height="1041"
     id="namedview310"
     showgrid="false"
     inkscape:zoom="0.56383792"
     inkscape:cx="-295.12585"
     inkscape:cy="729.19057"
     inkscape:window-x="0"
     inkscape:window-y="18"
     inkscape:window-maximized="0"
     inkscape:current-layer="svg308"
     fit-margin-top="0"
     fit-margin-left="0"
     fit-margin-right="0"
     fit-margin-bottom="0"
     inkscape:measure-start="365.353,212.827"
     inkscape:measure-end="70.9424,269.581" />
  <path
     style="fill:#000000;stroke-width:4.14531612"
     d="m 275.86958,921.80656 c -40.76565,0.007 -96.25877,-46.0099 -89.72978,-148.2207 -6.45533,-212.31455 -5.07593,-344.30085 -7.90617,-546.24582 -2.07602,-37.56404 12.7209,-109.6811 -56.88094,-112.88878 -19.06694,1.38065 -45.939393,1.7289 -63.832105,-0.20459 C 12.122753,113.94689 2.566308,98.622041 0.02169297,59.05895 -1.053079,8.8574883 38.028899,1.5350068 68.333135,0.23167572 119.34178,-0.11869104 129.02965,0.12238412 156.07964,0 c 99.03704,5.3663104 135.41916,23.669599 138.28495,114.35501 -3.57147,103.08292 2.83291,76.5843 2.17462,205.93427 -0.89862,56.82433 5.36271,95.86242 65.83568,91.76754 488.38233,-55.78398 545.61184,597.92368 -86.50531,509.74974 z m 128.1551,-102.68163 c 317.26974,-12.09417 272.16422,-308.83471 -6.11226,-300.16705 -61.21355,-2.41316 -101.46649,29.77355 -100.77012,97.4467 -0.43951,28.26617 -1.02294,41.34263 1.42968,81.72239 1.71728,66.38241 6.14387,122.40823 105.4527,120.99796 z"
     id="path318"
     inkscape:connector-curvature="0"
     sodipodi:nodetypes="ccccccccccccccccc" />
</svg>
