<?xml version="1.0" encoding="UTF-8" standalone="no"?>
<!-- Created with Inkscape (http://www.inkscape.org/) -->

<svg
   xmlns:dc="http://purl.org/dc/elements/1.1/"
   xmlns:cc="http://creativecommons.org/ns#"
   xmlns:rdf="http://www.w3.org/1999/02/22-rdf-syntax-ns#"
   xmlns:svg="http://www.w3.org/2000/svg"
   xmlns="http://www.w3.org/2000/svg"
   xmlns:sodipodi="http://sodipodi.sourceforge.net/DTD/sodipodi-0.dtd"
   xmlns:inkscape="http://www.inkscape.org/namespaces/inkscape"
   version="1.1"
   id="svg414"
   width="708.69531"
   height="930"
   viewBox="0 0 708.69531 930.00001"
   sodipodi:docname="ru_upper_ii.svg"
   inkscape:version="0.92.3 (2405546, 2018-03-11)">
  <metadata
     id="metadata420">
    <rdf:RDF>
      <cc:Work
         rdf:about="">
        <dc:format>image/svg+xml</dc:format>
        <dc:type
           rdf:resource="http://purl.org/dc/dcmitype/StillImage" />
        <dc:title></dc:title>
      </cc:Work>
    </rdf:RDF>
  </metadata>
  <defs
     id="defs418" />
  <sodipodi:namedview
     pagecolor="#ffffff"
     bordercolor="#666666"
     borderopacity="1"
     objecttolerance="10"
     gridtolerance="10"
     guidetolerance="10"
     inkscape:pageopacity="0"
     inkscape:pageshadow="2"
     inkscape:window-width="1916"
     inkscape:window-height="1041"
     id="namedview416"
     showgrid="false"
     inkscape:zoom="0.41388193"
     inkscape:cx="-12.380253"
     inkscape:cy="652.68009"
     inkscape:window-x="0"
     inkscape:window-y="18"
     inkscape:window-maximized="0"
     inkscape:current-layer="svg414"
     fit-margin-top="0"
     fit-margin-left="0"
     fit-margin-right="0"
     fit-margin-bottom="0"
     inkscape:measure-start="579.876,833.571"
     inkscape:measure-end="736.925,843.236" />
  <path
     style="fill:#000000;stroke-width:3.95379829"
     d="M 0,849.02292 C 2.507363,468.18273 -0.454476,372.19377 0.893861,54.109705 11.613951,-25.398907 107.25143,-6.9039641 106.11849,57.160816 c 3.1545,142.194234 5.14538,182.073364 2.17266,331.658164 -3.19755,32.29884 24.92052,30.45426 32.77218,29.88831 380.3793,-25.37713 545.24734,485.80717 -10.22622,506.75762 -20.08211,0.75742 -32.437236,0.35645 -49.396803,0.13233 C 24.422187,924.09455 0.567475,891.19459 0,849.02292 Z M 171.4286,509.14813 c -33.91094,-4.80955 -70.1068,-6.10678 -69.89374,59.06174 -2.294416,74.57319 0.35227,128.48611 0.23825,205.13217 -0.27396,38.72246 5.60191,48.22607 31.60626,47.26108 C 324.92854,863.57008 591.33635,591.4676 171.4286,509.14813 Z M 603.19354,873.7872 c -4.6236,-241.72697 0.0465,-598.55641 -4.24644,-819.935069 5.85448,-77.507345 98.7649,-66.051 101.43289,0.613361 4.69303,235.191688 6.34267,594.795368 8.1447,822.620698 5.05107,64.87189 -103.71428,77.19171 -105.33115,-3.29899 z"
     id="path424"
     inkscape:connector-curvature="0"
     sodipodi:nodetypes="cccccscccccccccccc" />
</svg>
