<?xml version="1.0" encoding="UTF-8" standalone="no"?>
<!-- Created with Inkscape (http://www.inkscape.org/) -->

<svg
   xmlns:dc="http://purl.org/dc/elements/1.1/"
   xmlns:cc="http://creativecommons.org/ns#"
   xmlns:rdf="http://www.w3.org/1999/02/22-rdf-syntax-ns#"
   xmlns:svg="http://www.w3.org/2000/svg"
   xmlns="http://www.w3.org/2000/svg"
   xmlns:sodipodi="http://sodipodi.sourceforge.net/DTD/sodipodi-0.dtd"
   xmlns:inkscape="http://www.inkscape.org/namespaces/inkscape"
   version="1.1"
   id="svg45"
   width="668.41425"
   height="930.00098"
   viewBox="0 0 668.41425 930.00098"
   sodipodi:docname="ru_upper_a.svg"
   inkscape:version="0.92.3 (2405546, 2018-03-11)">
  <metadata
     id="metadata51">
    <rdf:RDF>
      <cc:Work
         rdf:about="">
        <dc:format>image/svg+xml</dc:format>
        <dc:type
           rdf:resource="http://purl.org/dc/dcmitype/StillImage" />
        <dc:title></dc:title>
      </cc:Work>
    </rdf:RDF>
  </metadata>
  <defs
     id="defs49" />
  <sodipodi:namedview
     pagecolor="#ffffff"
     bordercolor="#666666"
     borderopacity="1"
     objecttolerance="10"
     gridtolerance="10"
     guidetolerance="10"
     inkscape:pageopacity="0"
     inkscape:pageshadow="2"
     inkscape:window-width="1916"
     inkscape:window-height="1041"
     id="namedview47"
     showgrid="false"
     inkscape:zoom="0.4216665"
     inkscape:cx="192.89276"
     inkscape:cy="396.21812"
     inkscape:window-x="0"
     inkscape:window-y="18"
     inkscape:window-maximized="0"
     inkscape:current-layer="svg45"
     fit-margin-top="0"
     fit-margin-left="0"
     fit-margin-right="0"
     fit-margin-bottom="0"
     inkscape:measure-start="398.419,635.573"
     inkscape:measure-end="534.19,688.933" />
  <path
     style="fill:#000000;stroke-width:4.33262062"
     d="M 2.7497109,862.28403 C 78.970557,609.64785 182.07907,201.79121 271.74759,28.351064 297.51976,-21.781681 334.6738,5.5258422 347.77928,27.072896 462.0742,299.24902 565.56279,595.67361 661.06058,847.29316 698.60108,942.46647 581.15398,953.05245 561.99243,891.6375 450.62675,650.54676 465.14137,653.25435 405.65746,655.48914 c -55.1916,2.08144 -70.63902,-6.19923 -173.16047,-1.40165 -79.6717,17.27945 -93.71876,171.61644 -130.78557,232.1487 C 73.230097,965.2311 -16.789804,919.32346 2.7497109,862.28403 Z M 267.3046,550.34149 c 38.70172,1.77784 59.17256,4.00911 84.51108,0.88344 80.42865,-0.82396 83.96385,3.49278 61.41954,-77.36009 -32.44871,-91.95043 -36.23346,-105.68458 -69.11756,-199.83075 -13.91156,-32.38175 -48.90827,-34.26222 -65.04698,0.51647 -24.87538,74.54657 -32.95992,120.08241 -56.5453,189.73309 -20.49785,68.85649 -33.53979,83.12649 44.77922,86.05784 z"
     id="path55"
     inkscape:connector-curvature="0"
     sodipodi:nodetypes="cccccccccccccccc" />
</svg>
