<?xml version="1.0" encoding="UTF-8" standalone="no"?>
<!-- Created with Inkscape (http://www.inkscape.org/) -->

<svg
   xmlns:dc="http://purl.org/dc/elements/1.1/"
   xmlns:cc="http://creativecommons.org/ns#"
   xmlns:rdf="http://www.w3.org/1999/02/22-rdf-syntax-ns#"
   xmlns:svg="http://www.w3.org/2000/svg"
   xmlns="http://www.w3.org/2000/svg"
   xmlns:sodipodi="http://sodipodi.sourceforge.net/DTD/sodipodi-0.dtd"
   xmlns:inkscape="http://www.inkscape.org/namespaces/inkscape"
   version="1.1"
   id="svg61"
   width="606.21075"
   height="930"
   viewBox="0 0 606.21075 930"
   sodipodi:docname="ru_upper_d.svg"
   inkscape:version="0.92.3 (2405546, 2018-03-11)">
  <metadata
     id="metadata67">
    <rdf:RDF>
      <cc:Work
         rdf:about="">
        <dc:format>image/svg+xml</dc:format>
        <dc:type
           rdf:resource="http://purl.org/dc/dcmitype/StillImage" />
        <dc:title></dc:title>
      </cc:Work>
    </rdf:RDF>
  </metadata>
  <defs
     id="defs65" />
  <sodipodi:namedview
     pagecolor="#ffffff"
     bordercolor="#666666"
     borderopacity="1"
     objecttolerance="10"
     gridtolerance="10"
     guidetolerance="10"
     inkscape:pageopacity="0"
     inkscape:pageshadow="2"
     inkscape:window-width="1916"
     inkscape:window-height="1041"
     id="namedview63"
     showgrid="false"
     fit-margin-top="0"
     fit-margin-left="0"
     fit-margin-right="0"
     fit-margin-bottom="0"
     inkscape:zoom="0.47104781"
     inkscape:cx="54.831241"
     inkscape:cy="320.1116"
     inkscape:window-x="0"
     inkscape:window-y="18"
     inkscape:window-maximized="0"
     inkscape:current-layer="svg61"
     inkscape:measure-start="375.758,474.474"
     inkscape:measure-end="35.0283,571.067" />
  <path
     style="fill:#000000;stroke-width:3.56816578"
     d="m 507.12099,869.2996 c -4.8456,-29.763 -4.82129,-35.64062 -14.12584,-61.88174 -20.40518,-50.77576 -30.39483,-37.39747 -62.33371,-36.68735 -147.29307,9.19943 -134.19654,-0.0305 -277.2093,3.01675 -33.38902,-1.23112 -43.25011,-5.64133 -47.73802,30.78546 -3.80619,28.31675 -5.805451,35.81378 -5.37212,63.13083 C 99.388799,953.38332 -2.7189865,941.45239 0.05553345,870.18851 4.1787815,767.54212 3.5109655,819.76461 5.1693165,730.5912 8.7157725,691.10505 37.752897,696.12619 66.582549,697.24723 c 15.41929,2.10421 13.58512,-4.22946 18.6951,-26.26231 C 194.34021,421.99312 86.458069,187.81282 172.18349,67.589147 198.11178,-5.3677157 326.67345,4.3005635 424.52691,0 c 66.99922,3.4218565 75.04645,18.370805 87.65891,79.414726 4.81007,14.229248 -12.96879,85.935164 7.30684,370.106214 3.94814,67.60934 7.3321,112.88068 17.71047,186.55738 4.00312,41.25257 -1.29819,36.64729 36.72602,36.94748 27.27534,4.17763 35.02098,39.18845 31.47644,66.87151 -0.29436,81.7636 -0.46928,37.22241 0.49352,122.20319 0.97341,98.61782 -100.40922,79.85339 -98.77812,7.1991 z M 250.65687,669.14812 c 120.17014,-2.61322 19.80535,0.0853 133.18896,-2.00991 64.41205,-1.24924 46.11202,-26.40635 44.9729,-89.78068 -12.7372,-146.91749 12.35792,-181.20588 -15.15789,-406.41618 -5.94572,-61.58188 -50.05945,-56.56566 -126.98598,-55.29815 -32.34618,0.28666 -30.15325,13.47549 -41.60855,51.33562 -40.90687,81.11119 27.4574,280.68155 -41.912,476.33445 -3.06161,17.25492 -15.42649,30.71844 47.50261,25.83485 z"
     id="path71"
     inkscape:connector-curvature="0"
     sodipodi:nodetypes="cccccccccccccccccccccccccccc" />
</svg>
