<?xml version="1.0" encoding="UTF-8" standalone="no"?>
<!-- Created with Inkscape (http://www.inkscape.org/) -->

<svg
   xmlns:dc="http://purl.org/dc/elements/1.1/"
   xmlns:cc="http://creativecommons.org/ns#"
   xmlns:rdf="http://www.w3.org/1999/02/22-rdf-syntax-ns#"
   xmlns:svg="http://www.w3.org/2000/svg"
   xmlns="http://www.w3.org/2000/svg"
   xmlns:sodipodi="http://sodipodi.sourceforge.net/DTD/sodipodi-0.dtd"
   xmlns:inkscape="http://www.inkscape.org/namespaces/inkscape"
   version="1.1"
   id="svg61"
   width="653.6543"
   height="930"
   viewBox="0 0 653.65429 930"
   sodipodi:docname="ru_upper_d.svg"
   inkscape:version="0.92.3 (2405546, 2018-03-11)">
  <metadata
     id="metadata67">
    <rdf:RDF>
      <cc:Work
         rdf:about="">
        <dc:format>image/svg+xml</dc:format>
        <dc:type
           rdf:resource="http://purl.org/dc/dcmitype/StillImage" />
        <dc:title></dc:title>
      </cc:Work>
    </rdf:RDF>
  </metadata>
  <defs
     id="defs65" />
  <sodipodi:namedview
     pagecolor="#ffffff"
     bordercolor="#666666"
     borderopacity="1"
     objecttolerance="10"
     gridtolerance="10"
     guidetolerance="10"
     inkscape:pageopacity="0"
     inkscape:pageshadow="2"
     inkscape:window-width="1916"
     inkscape:window-height="1041"
     id="namedview63"
     showgrid="false"
     fit-margin-top="0"
     fit-margin-left="0"
     fit-margin-right="0"
     fit-margin-bottom="0"
     inkscape:zoom="0.3330811"
     inkscape:cx="-191.92216"
     inkscape:cy="512.0691"
     inkscape:window-x="0"
     inkscape:window-y="18"
     inkscape:window-maximized="0"
     inkscape:current-layer="svg61"
     inkscape:measure-start="636.482,520.894"
     inkscape:measure-end="484.867,514.89" />
  <path
     style="fill:#000000;stroke-width:3.56002069"
     d="m 554.79069,869.43816 c -4.83454,-29.69506 -4.81028,-35.55926 -14.09359,-61.74048 -20.35861,-50.65986 -30.32545,-37.31211 -62.19142,-36.60361 -146.95685,9.17843 -182.71753,-0.0304 -325.40383,3.00987 -33.31281,-1.22831 -43.15139,-5.62846 -47.62905,30.71518 -3.7975,28.25211 -5.792192,35.73203 -5.35986,62.98672 -0.951012,85.5241 -102.8257203,73.6204 -100.0575333,2.5192 4.113835,-102.41208 3.447544,-50.3088 5.102109,-139.27865 3.538361,-39.39601 32.5092013,-34.38634 61.2730523,-33.26786 15.38409,2.09941 13.5541,-4.2198 18.65242,-26.20236 C 159.37045,399.13458 199.4418,234.35898 260.95336,66.373397 286.82246,-6.416926 350.3414,4.2907465 447.97149,0 c 66.84628,3.4140454 74.87514,18.328869 87.45881,79.233445 4.79909,14.196766 11.47447,87.861925 31.70382,371.384285 3.93913,67.45501 7.31536,112.62301 17.67004,186.13153 3.99398,41.1584 -1.29523,36.56363 36.64219,36.86314 27.21307,4.16809 34.94103,39.09899 31.40458,66.71886 -0.29368,81.57695 -0.46821,37.13744 0.4924,121.92423 0.97119,98.3927 -100.18002,79.67111 -98.55264,7.18267 z m -304.706,-199.69459 c 119.89582,-2.60726 68.58746,0.0851 181.71224,-2.00532 64.26502,-1.24639 46.00676,-26.34608 44.87024,-89.57574 -12.70812,-146.58212 -12.08395,-182.91517 -39.53695,-407.61138 -5.93214,-61.4413 14.80408,-57.49799 -61.94684,-56.23338 -32.27235,0.28601 -30.08442,13.44473 -41.51357,51.21844 -25.80213,137.96919 -87.28751,290.7309 -130.97925,478.4315 -3.05462,17.21553 -15.39128,30.64832 47.39418,25.77588 z"
     id="path71"
     inkscape:connector-curvature="0"
     sodipodi:nodetypes="cccccccccccccccccccccccccccc" />
</svg>
