<?xml version="1.0" encoding="UTF-8" standalone="no"?>
<!-- Created with Inkscape (http://www.inkscape.org/) -->

<svg
   xmlns:dc="http://purl.org/dc/elements/1.1/"
   xmlns:cc="http://creativecommons.org/ns#"
   xmlns:rdf="http://www.w3.org/1999/02/22-rdf-syntax-ns#"
   xmlns:svg="http://www.w3.org/2000/svg"
   xmlns="http://www.w3.org/2000/svg"
   xmlns:sodipodi="http://sodipodi.sourceforge.net/DTD/sodipodi-0.dtd"
   xmlns:inkscape="http://www.inkscape.org/namespaces/inkscape"
   version="1.1"
   id="svg61"
   width="647.02832"
   height="930.00098"
   viewBox="0 0 647.02832 930.00098"
   sodipodi:docname="ru_upper_u.svg"
   inkscape:version="0.92.3 (2405546, 2018-03-11)">
  <metadata
     id="metadata67">
    <rdf:RDF>
      <cc:Work
         rdf:about="">
        <dc:format>image/svg+xml</dc:format>
        <dc:type
           rdf:resource="http://purl.org/dc/dcmitype/StillImage" />
        <dc:title></dc:title>
      </cc:Work>
    </rdf:RDF>
  </metadata>
  <defs
     id="defs65" />
  <sodipodi:namedview
     pagecolor="#ffffff"
     bordercolor="#666666"
     borderopacity="1"
     objecttolerance="10"
     gridtolerance="10"
     guidetolerance="10"
     inkscape:pageopacity="0"
     inkscape:pageshadow="2"
     inkscape:window-width="1916"
     inkscape:window-height="1041"
     id="namedview63"
     showgrid="false"
     inkscape:zoom="0.38859461"
     inkscape:cx="663.58446"
     inkscape:cy="62.664446"
     inkscape:window-x="0"
     inkscape:window-y="18"
     inkscape:window-maximized="0"
     inkscape:current-layer="svg61"
     fit-margin-top="0"
     fit-margin-left="0"
     fit-margin-right="0"
     fit-margin-bottom="0"
     inkscape:measure-start="272.778,710.252"
     inkscape:measure-end="100.362,576.436" />
  <path
     style="fill:#000000;stroke-width:4.18691587"
     d="M 57.780389,827.7314 C 269.53895,802.36669 229.30981,688.00648 173.69983,545.72481 130.95243,442.75708 72.158289,295.02715 2.0245498,93.97408 -14.301308,15.074353 72.921149,20.956642 91.321239,62.255492 164.09079,237.81257 217.08716,378.24526 277.39874,528.32457 c 20.28392,47.12689 37.14855,28.3597 52.42267,3.69973 99.72091,-227.04915 142.37344,-327.67827 216.35118,-496.399543 17.07812,-52.020255 117.8425,-52.02164 98.36906,33.215896 C 552.21968,318.83907 550.90416,324.38233 450.11193,541.06683 375.20537,693.59491 332.26315,923.36997 56.039349,930.001 -4.8915312,927.35745 -18.307015,837.1594 57.780389,827.7314 Z"
     id="path71"
     inkscape:connector-curvature="0"
     sodipodi:nodetypes="ccccccccccc" />
</svg>
