<?xml version="1.0" encoding="UTF-8" standalone="no"?>
<!-- Created with Inkscape (http://www.inkscape.org/) -->

<svg
   xmlns:dc="http://purl.org/dc/elements/1.1/"
   xmlns:cc="http://creativecommons.org/ns#"
   xmlns:rdf="http://www.w3.org/1999/02/22-rdf-syntax-ns#"
   xmlns:svg="http://www.w3.org/2000/svg"
   xmlns="http://www.w3.org/2000/svg"
   xmlns:sodipodi="http://sodipodi.sourceforge.net/DTD/sodipodi-0.dtd"
   xmlns:inkscape="http://www.inkscape.org/namespaces/inkscape"
   version="1.1"
   id="svg297"
   width="543.28674"
   height="929.99902"
   viewBox="0 0 543.28674 929.99903"
   sodipodi:docname="ru_upper_ch.svg"
   inkscape:version="0.92.3 (2405546, 2018-03-11)">
  <metadata
     id="metadata303">
    <rdf:RDF>
      <cc:Work
         rdf:about="">
        <dc:format>image/svg+xml</dc:format>
        <dc:type
           rdf:resource="http://purl.org/dc/dcmitype/StillImage" />
        <dc:title></dc:title>
      </cc:Work>
    </rdf:RDF>
  </metadata>
  <defs
     id="defs301" />
  <sodipodi:namedview
     pagecolor="#ffffff"
     bordercolor="#666666"
     borderopacity="1"
     objecttolerance="10"
     gridtolerance="10"
     guidetolerance="10"
     inkscape:pageopacity="0"
     inkscape:pageshadow="2"
     inkscape:window-width="1916"
     inkscape:window-height="1041"
     id="namedview299"
     showgrid="false"
     fit-margin-top="0"
     fit-margin-left="0"
     fit-margin-right="0"
     fit-margin-bottom="0"
     inkscape:zoom="0.30729167"
     inkscape:cx="-422.59264"
     inkscape:cy="394.36286"
     inkscape:window-x="0"
     inkscape:window-y="18"
     inkscape:window-maximized="0"
     inkscape:current-layer="svg297"
     inkscape:measure-start="375.864,530.441"
     inkscape:measure-end="195.254,374.237" />
  <path
     style="fill:#000000;stroke-width:4.68681955"
     d="M 435.02894,874.47416 C 428.09481,795.55799 436.73957,687.67607 431.36683,613.5309 429.55924,595.91474 421.17636,594.46192 398.85557,592.44064 49.367862,576.68544 -17.284938,567.7292 3.4013917,54.593355 2.6853617,-8.4323958 103.56935,-27.299579 111.84986,54.45754 c -7.34351,411.82132 25.02596,434.91773 284.86261,427.95864 33.838,-1.38217 31.81894,-30.39228 31.71583,-59.04999 4.08626,-125.14873 -1.71813,-226.18989 0.58177,-349.239567 -3.23811,-87.035196 110.19522,-105.088756 111.47549,2.02971 2.02925,425.842157 -0.16244,490.501987 2.8012,798.605617 -6.97329,88.01074 -108.87376,57.82811 -108.25782,-0.28779 z"
     id="path307"
     inkscape:connector-curvature="0"
     sodipodi:nodetypes="ccccccccccc" />
</svg>
