<?xml version="1.0" encoding="UTF-8" standalone="no"?>
<!-- Created with Inkscape (http://www.inkscape.org/) -->

<svg
   xmlns:dc="http://purl.org/dc/elements/1.1/"
   xmlns:cc="http://creativecommons.org/ns#"
   xmlns:rdf="http://www.w3.org/1999/02/22-rdf-syntax-ns#"
   xmlns:svg="http://www.w3.org/2000/svg"
   xmlns="http://www.w3.org/2000/svg"
   xmlns:sodipodi="http://sodipodi.sourceforge.net/DTD/sodipodi-0.dtd"
   xmlns:inkscape="http://www.inkscape.org/namespaces/inkscape"
   version="1.1"
   id="svg61"
   width="854.29211"
   height="930"
   viewBox="0 0 854.29213 930"
   sodipodi:docname="ru_upper_sh.svg"
   inkscape:version="0.92.3 (2405546, 2018-03-11)">
  <metadata
     id="metadata67">
    <rdf:RDF>
      <cc:Work
         rdf:about="">
        <dc:format>image/svg+xml</dc:format>
        <dc:type
           rdf:resource="http://purl.org/dc/dcmitype/StillImage" />
        <dc:title></dc:title>
      </cc:Work>
    </rdf:RDF>
  </metadata>
  <defs
     id="defs65" />
  <sodipodi:namedview
     pagecolor="#ffffff"
     bordercolor="#666666"
     borderopacity="1"
     objecttolerance="10"
     gridtolerance="10"
     guidetolerance="10"
     inkscape:pageopacity="0"
     inkscape:pageshadow="2"
     inkscape:window-width="1916"
     inkscape:window-height="1041"
     id="namedview63"
     showgrid="false"
     inkscape:zoom="0.5049972"
     inkscape:cx="-37.230003"
     inkscape:cy="285.13233"
     inkscape:window-x="0"
     inkscape:window-y="18"
     inkscape:window-maximized="0"
     inkscape:current-layer="svg61"
     fit-margin-top="0"
     fit-margin-left="0"
     fit-margin-right="0"
     fit-margin-bottom="0"
     inkscape:measure-start="170.298,117.822"
     inkscape:measure-end="172.278,-22.7724" />
  <path
     style="fill:#000000;stroke-width:4.21525717"
     d="m 743.66868,65.249769 c 4.3713,163.481951 2.40742,456.238991 5.47681,673.769011 1.67212,64.24292 -17.47076,85.11949 -68.45757,83.86715 -68.23268,4.0824 -56.68847,-0.5514 -140.62927,-1.79017 -27.54077,0.76966 -53.58703,4.8991 -52.64648,-60.04278 C 480.32385,508.75764 481.20464,354.91955 476.96396,55.207879 468.42823,-28.703346 376.9251,-6.7633047 375.0665,53.250801 c -5.92891,273.745579 3.05785,371.997009 4.42029,682.625229 0.434,63.95902 1.50723,83.01018 -43.43626,83.86846 -118.04673,3.72954 -56.64834,5.16859 -152.54464,1.60209 -39.92781,2.22028 -74.18738,1.66529 -72.8349,-60.16844 C 111.47078,494.07206 106.5491,293.39245 107.50246,60.31518 100.48118,-16.568313 9.4416801,-15.924224 2.0366947,57.426773 -1.3176155,345.73882 0.24537901,609.6831 1.2894958,842.70053 c 0.914197,73.37558 74.1685832,86.61867 101.4768742,86.23153 289.85503,-2.17474 398.43576,3.36407 636.55479,-0.10779 77.014,5.1269 116.78997,-12.93144 114.90705,-104.27591 -0.01,-312.81605 -1.68548,-483.79867 -1.35202,-757.157587 -3.02805,-88.19565 -110.48401,-83.908259 -109.20751,-2.141004 z"
     id="path71"
     inkscape:connector-curvature="0"
     sodipodi:nodetypes="ccccccccccccccccccc" />
</svg>
