<?xml version="1.0" encoding="UTF-8" standalone="no"?>
<!-- Created with Inkscape (http://www.inkscape.org/) -->

<svg
   xmlns:dc="http://purl.org/dc/elements/1.1/"
   xmlns:cc="http://creativecommons.org/ns#"
   xmlns:rdf="http://www.w3.org/1999/02/22-rdf-syntax-ns#"
   xmlns:svg="http://www.w3.org/2000/svg"
   xmlns="http://www.w3.org/2000/svg"
   xmlns:sodipodi="http://sodipodi.sourceforge.net/DTD/sodipodi-0.dtd"
   xmlns:inkscape="http://www.inkscape.org/namespaces/inkscape"
   version="1.1"
   id="svg191"
   width="541.38092"
   height="929.99902"
   viewBox="0 0 541.38092 929.99902"
   sodipodi:docname="ru_upper_r.svg"
   inkscape:version="0.92.3 (2405546, 2018-03-11)">
  <metadata
     id="metadata197">
    <rdf:RDF>
      <cc:Work
         rdf:about="">
        <dc:format>image/svg+xml</dc:format>
        <dc:type
           rdf:resource="http://purl.org/dc/dcmitype/StillImage" />
        <dc:title></dc:title>
      </cc:Work>
    </rdf:RDF>
  </metadata>
  <defs
     id="defs195" />
  <sodipodi:namedview
     pagecolor="#ffffff"
     bordercolor="#666666"
     borderopacity="1"
     objecttolerance="10"
     gridtolerance="10"
     guidetolerance="10"
     inkscape:pageopacity="0"
     inkscape:pageshadow="2"
     inkscape:window-width="1916"
     inkscape:window-height="1041"
     id="namedview193"
     showgrid="false"
     inkscape:zoom="0.38120705"
     inkscape:cx="526.71116"
     inkscape:cy="845.88616"
     inkscape:window-x="0"
     inkscape:window-y="18"
     inkscape:window-maximized="0"
     inkscape:current-layer="svg191"
     fit-margin-top="0"
     fit-margin-left="0"
     fit-margin-right="0"
     fit-margin-bottom="0"
     inkscape:measure-start="156.083,88.5346"
     inkscape:measure-end="-50.4975,93.7811" />
  <path
     style="fill:#000000;stroke-width:4.07627726"
     d="M 1.584643,877.76875 C -0.12344262,597.64437 -0.74356212,527.47576 1.2137777,232.36263 -1.6262805,80.684278 37.417763,11.523137 172.78325,0 c 545.65867,6.9661998 424.62619,580.14933 31.57469,579.77604 -98.8872,8.51812 -98.08053,31.95916 -98.33844,66.61093 1.25781,108.74608 -1.53634,153.86539 0.92435,227.16881 C 106.7023,950.48224 4.6387116,945.73976 1.584643,877.76875 Z M 200.87797,478.53288 C 506.92325,467.02116 531.32231,88.670329 169.0205,100.39621 c -46.16942,4.10491 -66.10336,15.03743 -65.43015,93.4642 4.91129,115.52578 -2.10882,163.53354 1.47493,245.69153 6.84608,48.73089 53.43881,39.89729 95.81269,38.98094 z"
     id="path201"
     inkscape:connector-curvature="0"
     sodipodi:nodetypes="cccccccccccc" />
</svg>
