<?xml version="1.0" encoding="UTF-8" standalone="no"?>
<!-- Created with Inkscape (http://www.inkscape.org/) -->

<svg
   xmlns:dc="http://purl.org/dc/elements/1.1/"
   xmlns:cc="http://creativecommons.org/ns#"
   xmlns:rdf="http://www.w3.org/1999/02/22-rdf-syntax-ns#"
   xmlns:svg="http://www.w3.org/2000/svg"
   xmlns="http://www.w3.org/2000/svg"
   xmlns:sodipodi="http://sodipodi.sourceforge.net/DTD/sodipodi-0.dtd"
   xmlns:inkscape="http://www.inkscape.org/namespaces/inkscape"
   version="1.1"
   id="svg226"
   width="522.28687"
   height="929.99902"
   viewBox="0 0 522.28688 929.99901"
   sodipodi:docname="ru_upper_n.svg"
   inkscape:version="0.92.3 (2405546, 2018-03-11)">
  <metadata
     id="metadata232">
    <rdf:RDF>
      <cc:Work
         rdf:about="">
        <dc:format>image/svg+xml</dc:format>
        <dc:type
           rdf:resource="http://purl.org/dc/dcmitype/StillImage" />
        <dc:title></dc:title>
      </cc:Work>
    </rdf:RDF>
  </metadata>
  <defs
     id="defs230" />
  <sodipodi:namedview
     pagecolor="#ffffff"
     bordercolor="#666666"
     borderopacity="1"
     objecttolerance="10"
     gridtolerance="10"
     guidetolerance="10"
     inkscape:pageopacity="0"
     inkscape:pageshadow="2"
     inkscape:window-width="1916"
     inkscape:window-height="1041"
     id="namedview228"
     showgrid="false"
     inkscape:zoom="0.45744848"
     inkscape:cx="168.85731"
     inkscape:cy="821.02444"
     inkscape:window-x="0"
     inkscape:window-y="18"
     inkscape:window-maximized="0"
     inkscape:current-layer="svg226"
     fit-margin-top="0"
     fit-margin-left="0"
     fit-margin-right="0"
     fit-margin-bottom="0"
     inkscape:measure-start="488.461,171.58"
     inkscape:measure-end="710.278,145.302" />
  <path
     style="fill:#000000;stroke-width:4.23831177"
     d="m 415.5737,870.51781 c -3.20167,-91.70535 -1.22914,-184.46335 0.74345,-276.3632 1.49951,-47.549 -19.3392,-54.84611 -58.396,-52.8256 -144.93701,-1.16236 -36.57741,2.14939 -195.01639,-0.004 -40.99267,-2.67649 -48.69901,6.06707 -48.38567,38.22441 3.79307,86.8632 3.58041,188.75625 -0.24282,291.78597 C 114.93201,946.55756 9.9945205,951.90487 9.5906025,873.0283 9.0254205,492.80093 2.3658855,416.17566 0.20562151,62.809118 -5.3263615,-13.145933 102.55988,-28.419533 107.42451,62.914522 c 2.83364,168.216448 3.76443,195.579648 3.55631,339.614628 2.52161,38.42146 15.67594,36.77209 53.2223,34.55277 164.93005,0.87515 16.56258,-0.11416 180.25136,-0.94389 50.07645,1.25169 62.82939,-16.36037 65.33377,-52.82489 4.6772,-131.52372 -1.39205,-170.28426 4.09553,-319.620696 -1.62595,-76.428244 105.91644,-92.928201 107.62944,0.356636 -0.47082,314.72956 2.29231,523.52322 -0.47734,807.69917 -5.86574,90.0197 -107.27212,63.13812 -105.46218,-1.23038 z"
     id="path236"
     inkscape:connector-curvature="0"
     sodipodi:nodetypes="cccccccccccccccccc" />
</svg>
