<?xml version="1.0" encoding="UTF-8" standalone="no"?>
<!-- Created with Inkscape (http://www.inkscape.org/) -->

<svg
   xmlns:dc="http://purl.org/dc/elements/1.1/"
   xmlns:cc="http://creativecommons.org/ns#"
   xmlns:rdf="http://www.w3.org/1999/02/22-rdf-syntax-ns#"
   xmlns:svg="http://www.w3.org/2000/svg"
   xmlns="http://www.w3.org/2000/svg"
   xmlns:sodipodi="http://sodipodi.sourceforge.net/DTD/sodipodi-0.dtd"
   xmlns:inkscape="http://www.inkscape.org/namespaces/inkscape"
   version="1.1"
   id="svg237"
   width="547.74292"
   height="930"
   viewBox="0 0 547.74291 930"
   sodipodi:docname="ru_upper_v.svg"
   inkscape:version="0.92.3 (2405546, 2018-03-11)">
  <metadata
     id="metadata243">
    <rdf:RDF>
      <cc:Work
         rdf:about="">
        <dc:format>image/svg+xml</dc:format>
        <dc:type
           rdf:resource="http://purl.org/dc/dcmitype/StillImage" />
        <dc:title></dc:title>
      </cc:Work>
    </rdf:RDF>
  </metadata>
  <defs
     id="defs241" />
  <sodipodi:namedview
     pagecolor="#ffffff"
     bordercolor="#666666"
     borderopacity="1"
     objecttolerance="10"
     gridtolerance="10"
     guidetolerance="10"
     inkscape:pageopacity="0"
     inkscape:pageshadow="2"
     inkscape:window-width="1916"
     inkscape:window-height="1041"
     id="namedview239"
     showgrid="false"
     fit-margin-top="0"
     fit-margin-left="0"
     fit-margin-right="0"
     fit-margin-bottom="0"
     inkscape:zoom="0.55871213"
     inkscape:cx="60.54832"
     inkscape:cy="763.30965"
     inkscape:window-x="0"
     inkscape:window-y="18"
     inkscape:window-maximized="0"
     inkscape:current-layer="svg237"
     inkscape:measure-start="171.824,334.698"
     inkscape:measure-end="-103.81,341.858" />
  <path
     style="fill:#000000;stroke-width:4.30245447"
     d="M 0.31538865,726.43063 C 0.21244065,505.49755 -0.54095915,345.43974 0.72893796,154.81579 -0.44744385,69.902443 36.453111,1.384667 133.23923,1.3289992 399.70807,-19.180338 718.38516,200.61898 440.07689,457.81579 c -22.8076,18.3189 -40.94818,24.91585 -6.3995,43.79906 226.69557,135.02808 97.52437,457.8789 -292.6006,426.21283 C 42.014412,914.14036 5.4043679,867.50261 0.31538865,726.43063 Z M 170.0721,531.19584 c -60.83893,-4.81715 -62.41245,20.9956 -60.22,63.87193 -0.722,41.37309 0.14073,68.55522 1.12582,106.03964 2.36966,41.19415 -11.327838,107.84464 32.54714,112.26749 369.16425,29.49004 369.57171,-290.86824 26.54704,-282.17906 z m 11.65338,-111.95587 c 342.32378,18.38649 331.0116,-312.32842 8.81031,-306.87469 -72.27928,6.9155 -79.90166,45.30152 -79.85091,110.73705 -2.43628,68.11545 -3.87733,47.60385 -3.25227,90.12263 -2.62219,74.73481 22.88605,105.87249 74.29287,106.01501 z"
     id="path247"
     inkscape:connector-curvature="0"
     sodipodi:nodetypes="ccccccccccccccccc" />
</svg>
