<?xml version="1.0" encoding="UTF-8" standalone="no"?>
<!-- Created with Inkscape (http://www.inkscape.org/) -->

<svg
   xmlns:dc="http://purl.org/dc/elements/1.1/"
   xmlns:cc="http://creativecommons.org/ns#"
   xmlns:rdf="http://www.w3.org/1999/02/22-rdf-syntax-ns#"
   xmlns:svg="http://www.w3.org/2000/svg"
   xmlns="http://www.w3.org/2000/svg"
   xmlns:sodipodi="http://sodipodi.sourceforge.net/DTD/sodipodi-0.dtd"
   xmlns:inkscape="http://www.inkscape.org/namespaces/inkscape"
   version="1.1"
   id="svg199"
   width="474.21286"
   height="929.99902"
   viewBox="0 0 474.21286 929.99903"
   sodipodi:docname="ru_upper_e.svg"
   inkscape:version="0.92.3 (2405546, 2018-03-11)">
  <metadata
     id="metadata205">
    <rdf:RDF>
      <cc:Work
         rdf:about="">
        <dc:format>image/svg+xml</dc:format>
        <dc:type
           rdf:resource="http://purl.org/dc/dcmitype/StillImage" />
        <dc:title></dc:title>
      </cc:Work>
    </rdf:RDF>
  </metadata>
  <defs
     id="defs203" />
  <sodipodi:namedview
     pagecolor="#ffffff"
     bordercolor="#666666"
     borderopacity="1"
     objecttolerance="10"
     gridtolerance="10"
     guidetolerance="10"
     inkscape:pageopacity="0"
     inkscape:pageshadow="2"
     inkscape:window-width="1916"
     inkscape:window-height="1041"
     id="namedview201"
     showgrid="false"
     fit-margin-top="0"
     fit-margin-left="0"
     fit-margin-right="0"
     fit-margin-bottom="0"
     inkscape:zoom="0.30424918"
     inkscape:cx="-472.61181"
     inkscape:cy="957.69704"
     inkscape:window-x="0"
     inkscape:window-y="18"
     inkscape:window-maximized="0"
     inkscape:current-layer="svg199"
     inkscape:measure-start="497.358,577.54"
     inkscape:measure-end="526.41,246.355" />
  <path
     style="fill:#000000;stroke-width:4.50592995"
     d="M 90.303443,922.08556 C -14.328314,923.25657 -0.04931892,848.03242 1.4899803,717.88699 5.5933267,661.23125 5.5166997,597.01849 6.0005997,559.71277 5.9839077,553.77376 6.2033707,507.86678 6.4900567,457.69719 10.037229,347.92033 2.2509543,193.26311 4.2292156,124.13824 12.280522,22.254055 34.790249,-1.3036545 142.60524,0.25476803 233.68725,-1.5268306 184.31763,6.662092 286.79399,5.4504101 c 81.8956,-2.5540605 68.45356,-1.9244975 147.00822,-2.7511508 62.20334,0.077536 45.4064,101.4251607 -1.91148,101.1301807 -32.53427,1.10532 -63.24289,5.28291 -89.38384,2.16676 -60.04628,-4.41305 -11.55568,0.13999 -102.32513,-1.74853 -98.90336,-5.426296 -118.92754,-17.718442 -128.7692,62.20275 -6.25425,72.57136 -4.99761,131.07055 -4.31609,202.64253 -2.07812,39.75423 19.49414,37.09572 62.41439,35.36656 105.77379,3.89393 144.012,-4.40482 222.16745,-2.42571 78.90884,3.90378 66.24123,105.96945 3.13695,109.34865 -96.10633,-3.01205 -107.91782,5.62085 -221.4526,-2.37992 -58.94861,2.24539 -58.99183,23.86494 -56.87889,95.25739 -3.1466,56.3161 -5.72396,97.2979 -11.74118,144.96127 -1.67273,60.31856 20.40886,56.74494 70.00217,58.95532 137.85168,4.52422 86.34236,-1.41498 241.74434,0.79497 77.72119,5.76867 66.86562,112.93639 3.58177,111.11926 -205.26342,16.75231 -210.42524,8.61989 -329.767427,1.99482 z"
     id="path209"
     inkscape:connector-curvature="0"
     sodipodi:nodetypes="ccccccccccccccccccccccc" />
</svg>
