<?xml version="1.0" encoding="UTF-8" standalone="no"?>
<!-- Created with Inkscape (http://www.inkscape.org/) -->

<svg
   xmlns:dc="http://purl.org/dc/elements/1.1/"
   xmlns:cc="http://creativecommons.org/ns#"
   xmlns:rdf="http://www.w3.org/1999/02/22-rdf-syntax-ns#"
   xmlns:svg="http://www.w3.org/2000/svg"
   xmlns="http://www.w3.org/2000/svg"
   xmlns:sodipodi="http://sodipodi.sourceforge.net/DTD/sodipodi-0.dtd"
   xmlns:inkscape="http://www.inkscape.org/namespaces/inkscape"
   version="1.1"
   id="svg85"
   width="467.88196"
   height="930"
   viewBox="0 0 467.88196 930"
   sodipodi:docname="ru_upper_z.svg"
   inkscape:version="0.92.3 (2405546, 2018-03-11)">
  <metadata
     id="metadata91">
    <rdf:RDF>
      <cc:Work
         rdf:about="">
        <dc:format>image/svg+xml</dc:format>
        <dc:type
           rdf:resource="http://purl.org/dc/dcmitype/StillImage" />
        <dc:title></dc:title>
      </cc:Work>
    </rdf:RDF>
  </metadata>
  <defs
     id="defs89" />
  <sodipodi:namedview
     pagecolor="#ffffff"
     bordercolor="#666666"
     borderopacity="1"
     objecttolerance="10"
     gridtolerance="10"
     guidetolerance="10"
     inkscape:pageopacity="0"
     inkscape:pageshadow="2"
     inkscape:window-width="1916"
     inkscape:window-height="1041"
     id="namedview87"
     showgrid="false"
     inkscape:zoom="0.4044556"
     inkscape:cx="43.766963"
     inkscape:cy="550.07189"
     inkscape:window-x="0"
     inkscape:window-y="18"
     inkscape:window-maximized="0"
     inkscape:current-layer="svg85"
     inkscape:measure-start="319.938,772.745"
     inkscape:measure-end="192.312,1001.77"
     fit-margin-top="0"
     fit-margin-left="0"
     fit-margin-right="0"
     fit-margin-bottom="0" />
  <path
     style="fill:#000000;stroke-width:4.13120174"
     d="M 19.733934,857.96415 C -31.885008,817.52091 30.457364,713.86349 90.538374,780.50902 299.26154,901.17712 420.31602,745.55897 322.12566,586.59348 287.00645,501.29032 268.18286,522.28405 220.96403,520.303 c -40.64078,-0.23719 -48.92767,1.20053 -99.86985,1.35934 -78.171186,4.06117 -66.519996,-107.82975 2.75064,-106.64856 81.90316,5.77865 46.72575,1.48301 135.76907,3.07882 61.634,10.07256 50.52125,-20.53817 81.44182,-67.30055 C 448.58493,158.81452 172.40313,31.338154 96.389944,149.08744 59.448614,211.68099 -25.27191,181.85822 7.3117239,104.70423 177.57936,-150.94661 621.25458,102.61728 413.6907,424.65124 c -40.23019,59.37713 -38.01582,76.05701 -3.84654,120.93522 179.9152,250.737 -130.69435,515.24294 -390.110226,312.37769 z"
     id="path95"
     inkscape:connector-curvature="0"
     sodipodi:nodetypes="ccccccccccccc" />
</svg>
