<?xml version="1.0" encoding="UTF-8" standalone="no"?>
<!-- Created with Inkscape (http://www.inkscape.org/) -->

<svg
   xmlns:dc="http://purl.org/dc/elements/1.1/"
   xmlns:cc="http://creativecommons.org/ns#"
   xmlns:rdf="http://www.w3.org/1999/02/22-rdf-syntax-ns#"
   xmlns:svg="http://www.w3.org/2000/svg"
   xmlns="http://www.w3.org/2000/svg"
   xmlns:sodipodi="http://sodipodi.sourceforge.net/DTD/sodipodi-0.dtd"
   xmlns:inkscape="http://www.inkscape.org/namespaces/inkscape"
   version="1.1"
   id="svg327"
   width="464.98093"
   height="930"
   viewBox="0 0 464.98092 930"
   sodipodi:docname="ru_upper_ya.svg"
   inkscape:version="0.92.3 (2405546, 2018-03-11)">
  <metadata
     id="metadata333">
    <rdf:RDF>
      <cc:Work
         rdf:about="">
        <dc:format>image/svg+xml</dc:format>
        <dc:type
           rdf:resource="http://purl.org/dc/dcmitype/StillImage" />
        <dc:title></dc:title>
      </cc:Work>
    </rdf:RDF>
  </metadata>
  <defs
     id="defs331" />
  <sodipodi:namedview
     pagecolor="#ffffff"
     bordercolor="#666666"
     borderopacity="1"
     objecttolerance="10"
     gridtolerance="10"
     guidetolerance="10"
     inkscape:pageopacity="0"
     inkscape:pageshadow="2"
     inkscape:window-width="1916"
     inkscape:window-height="1041"
     id="namedview329"
     showgrid="false"
     inkscape:zoom="0.26955409"
     inkscape:cx="1165.2678"
     inkscape:cy="319.31227"
     inkscape:window-x="0"
     inkscape:window-y="18"
     inkscape:window-maximized="0"
     inkscape:current-layer="svg327"
     fit-margin-top="0"
     fit-margin-left="0"
     fit-margin-right="0"
     fit-margin-bottom="0"
     inkscape:measure-start="445.952,167.888"
     inkscape:measure-end="642.695,177.069" />
  <path
     style="fill:#000000;stroke-width:3.98606086"
     d="M 49.095891,855.77108 C 88.980091,782.48649 157.88181,635.90006 189.5464,550.32526 200.92754,528.53674 199.49479,520.35146 167.27896,497.96267 -108.59178,344.79727 -51.443068,-22.835506 399.92555,1.1168131 c 51.31944,6.926991 62.93284,41.4337999 63.65156,87.1814749 2.1435,136.436552 0.0376,245.764452 -1.3451,338.553722 1.42063,180.58951 5.88828,261.97573 -0.94935,445.90241 -2.51127,82.77702 -106.47703,68.44754 -105.46344,3.72093 2.1853,-132.30853 2.61968,-206.64127 4.20509,-285.61726 1.13715,-34.75907 -19.95133,-28.55451 -46.27537,-18.33391 C 246.94981,616.08693 227.20851,722.59726 138.19365,901.57044 86.096301,968.85999 21.766041,896.91909 49.095891,855.77108 Z M 355.44368,384.61406 c 2.19882,-104.97561 5.52767,-172.75539 6.02365,-228.63336 0.45174,-50.893 -17.07483,-50.0087 -43.00406,-49.35462 -378.666779,33.00718 -136.04314,370.20046 -3.57642,332.50849 22.69869,-6.45866 42.01975,2.97933 40.55683,-54.52051 z"
     id="path337"
     inkscape:connector-curvature="0"
     sodipodi:nodetypes="ccccsccccccccscsc" />
</svg>
