<?xml version="1.0" encoding="UTF-8" standalone="no"?>
<!-- Created with Inkscape (http://www.inkscape.org/) -->

<svg
   xmlns:dc="http://purl.org/dc/elements/1.1/"
   xmlns:cc="http://creativecommons.org/ns#"
   xmlns:rdf="http://www.w3.org/1999/02/22-rdf-syntax-ns#"
   xmlns:svg="http://www.w3.org/2000/svg"
   xmlns="http://www.w3.org/2000/svg"
   xmlns:sodipodi="http://sodipodi.sourceforge.net/DTD/sodipodi-0.dtd"
   xmlns:inkscape="http://www.inkscape.org/namespaces/inkscape"
   version="1.1"
   id="svg61"
   width="725.69714"
   height="929.75684"
   viewBox="0 0 725.69714 929.75684"
   sodipodi:docname="ru_upper_zh.svg"
   inkscape:version="0.92.3 (2405546, 2018-03-11)">
  <metadata
     id="metadata67">
    <rdf:RDF>
      <cc:Work
         rdf:about="">
        <dc:format>image/svg+xml</dc:format>
        <dc:type
           rdf:resource="http://purl.org/dc/dcmitype/StillImage" />
        <dc:title></dc:title>
      </cc:Work>
    </rdf:RDF>
  </metadata>
  <defs
     id="defs65" />
  <sodipodi:namedview
     pagecolor="#ffffff"
     bordercolor="#666666"
     borderopacity="1"
     objecttolerance="10"
     gridtolerance="10"
     guidetolerance="10"
     inkscape:pageopacity="0"
     inkscape:pageshadow="2"
     inkscape:window-width="1916"
     inkscape:window-height="1041"
     id="namedview63"
     showgrid="false"
     inkscape:zoom="0.5"
     inkscape:cx="173.19409"
     inkscape:cy="552.03094"
     inkscape:window-x="0"
     inkscape:window-y="18"
     inkscape:window-maximized="0"
     inkscape:current-layer="svg61"
     fit-margin-top="0"
     fit-margin-left="0"
     fit-margin-right="0"
     fit-margin-bottom="0"
     inkscape:measure-start="459.619,782.06"
     inkscape:measure-end="241.831,780.646" />
  <path
     style="fill:#000000;stroke-width:4.17613077"
     d="m 461.07311,589.54166 c -23.82756,-23.69179 -41.03148,-18.1262 -37.76458,2.74402 1.86527,112.23254 3.33385,144.6779 3.50105,249.05044 -1.17474,133.11014 -124.8871,91.04294 -115.32725,-6.30816 3.30528,-104.36964 1.20403,-154.11077 1.57674,-243.26605 -0.68076,-23.53711 -15.5251,-13.08311 -25.02099,0.20392 C 181.13107,719.23633 174.81364,812.9827 80.69593,909.4996 28.49287,963.51214 -24.610725,893.85264 13.82577,849.65887 125.05096,723.51323 112.3087,659.30262 232.64924,514.28828 256.04537,489.22444 259.88266,479.18079 249.2377,466.67649 148.7634,352.21203 109.36709,192.18605 21.92839,90.230657 -33.029108,31.118286 26.32341,-34.156875 79.34547,24.447456 206.24489,160.35489 184.32523,262.2864 270.4866,350.05082 c 24.15181,30.44474 38.56513,26.64289 39.60311,-12.00982 6.54224,-81.37341 -2.24343,-179.79164 3.46256,-240.412592 6.78298,-91.8654858 107.29383,-70.39826 106.13443,3.529852 4.42863,83.69624 2.54338,169.76591 -0.69483,239.07815 -0.54468,38.51912 7.80719,46.13636 54.26189,8.79679 C 593.66583,236.76641 524.0837,142.18172 642.26305,21.926787 697.45193,-30.663399 749.60086,21.24774 714.05837,73.76839 611.15423,193.78423 601.66158,347.92329 502.10335,458.51658 c -19.26976,17.66527 -15.76395,23.11631 3.89804,42.87282 148.08326,175.80496 48.16969,173.24216 209.15726,352.91743 31.78063,51.20189 -24.01852,106.3949 -75.21345,54.78026 -96.495,-111.44637 -113.45053,-236.047 -178.87209,-319.54543 z"
     id="path71"
     inkscape:connector-curvature="0"
     sodipodi:nodetypes="ccccccccccccccccccccccccc" />
</svg>
