<?xml version="1.0" encoding="UTF-8" standalone="no"?>
<!-- Created with Inkscape (http://www.inkscape.org/) -->

<svg
   xmlns:dc="http://purl.org/dc/elements/1.1/"
   xmlns:cc="http://creativecommons.org/ns#"
   xmlns:rdf="http://www.w3.org/1999/02/22-rdf-syntax-ns#"
   xmlns:svg="http://www.w3.org/2000/svg"
   xmlns="http://www.w3.org/2000/svg"
   xmlns:sodipodi="http://sodipodi.sourceforge.net/DTD/sodipodi-0.dtd"
   xmlns:inkscape="http://www.inkscape.org/namespaces/inkscape"
   version="1.1"
   id="svg170"
   width="427.94809"
   height="930"
   viewBox="0 0 427.9481 930.00001"
   sodipodi:docname="ru_upper_yo.svg"
   inkscape:version="0.92.3 (2405546, 2018-03-11)">
  <metadata
     id="metadata176">
    <rdf:RDF>
      <cc:Work
         rdf:about="">
        <dc:format>image/svg+xml</dc:format>
        <dc:type
           rdf:resource="http://purl.org/dc/dcmitype/StillImage" />
        <dc:title></dc:title>
      </cc:Work>
    </rdf:RDF>
  </metadata>
  <defs
     id="defs174" />
  <sodipodi:namedview
     pagecolor="#ffffff"
     bordercolor="#666666"
     borderopacity="1"
     objecttolerance="10"
     gridtolerance="10"
     guidetolerance="10"
     inkscape:pageopacity="0"
     inkscape:pageshadow="2"
     inkscape:window-width="1916"
     inkscape:window-height="1041"
     id="namedview172"
     showgrid="false"
     fit-margin-top="0"
     fit-margin-left="0"
     fit-margin-right="0"
     fit-margin-bottom="0"
     inkscape:zoom="0.36518997"
     inkscape:cx="-501.61469"
     inkscape:cy="703.49221"
     inkscape:window-x="0"
     inkscape:window-y="18"
     inkscape:window-maximized="0"
     inkscape:current-layer="svg170"
     inkscape:measure-start="193.627,847.119"
     inkscape:measure-end="312.224,845.182"
     showguides="false" />
  <path
     style="fill:#000000;stroke-width:3.37190127"
     d="M 89.757031,926.5428 C 32.255768,923.19769 4.325713,894.16938 2.4666864,819.54094 -2.5496772,633.66833 1.395081,506.21194 2.881363,298.28062 3.1681806,164.50432 152.74248,183.10375 380.20034,192.01283 c 67.10183,5.24667 59.96006,103.32312 0.53827,103.87165 -54.03643,3.32048 -102.84256,4.24573 -156.74342,1.21378 -125.59069,-4.21254 -118.00464,-9.66018 -116.75536,99.28422 -1.46004,0 -0.5936,54.44386 -0.55807,86.81978 -0.15107,24.40695 -1.3585,30.31308 46.97138,27.69301 56.94702,1.50762 64.06681,1.39183 123.00824,2.35425 60.57341,1.10974 57.23825,91.35671 5.50781,93.21339 -54.90516,-0.55499 -77.52783,1.14281 -129.02461,-2.7208 -53.36398,0.48758 -48.88737,-3.42945 -50.15874,46.00449 -0.88855,25.64239 3.31362,78.43612 0.64688,123.91013 -5.783758,55.75449 21.88868,53.0559 57.03697,51.27505 77.30163,3.45539 101.61001,2.60319 220.05373,1.29128 70.73211,6.49896 53.68777,108.1169 -1.28419,103.47596 -73.14341,-1.67949 -189.96571,3.3787 -289.682199,-3.15622 z M 210.60301,95.382425 c 0.88267,-25.917687 1.69377,-43.574112 0.95526,-73.193209 -0.34817,-20.8358671 13.74447,-20.8379674 25.21881,-21.0418585 31.37469,2.8169374 13.65481,1.4740084 50.33116,1.9633264 24.92982,-2.6056845 25.58585,16.6228321 25.58585,28.7549661 -1.29192,27.694135 0.69956,44.605148 -0.16864,65.927585 2.28615,27.679195 -17.60736,29.521785 -33.9552,27.992615 -24.1451,0.92638 -32.53253,1.06173 -47.55245,0.2457 -20.32056,0.95261 -22.05798,-9.06595 -20.41479,-30.649125 z M 82.574281,125.28028 C 53.998901,127.31506 52.520787,104.36847 51.511639,83.622478 50.259636,59.653094 51.218911,76.886243 50.608809,42.503904 48.920275,4.0645099 62.445872,3.7815179 77.901918,1.0238914 c 8.510379,-2.5615466 22.830622,0.6865523 39.479532,-0.8783763 41.78405,0.7943282 34.70257,29.1876209 35.16663,41.0883129 0.64669,22.460208 0.16062,17.227409 0.6012,40.325306 0.6215,30.333326 -3.45378,42.663716 -26.56425,43.431556 -12.62602,-0.81704 -25.97681,0.86673 -44.010749,0.28959 z"
     id="path180"
     inkscape:connector-curvature="0"
     sodipodi:nodetypes="cccccccccccccccccccccccccccccccccccc" />
</svg>
