<?xml version="1.0" encoding="UTF-8" standalone="no"?>
<!-- Created with Inkscape (http://www.inkscape.org/) -->

<svg
   xmlns:dc="http://purl.org/dc/elements/1.1/"
   xmlns:cc="http://creativecommons.org/ns#"
   xmlns:rdf="http://www.w3.org/1999/02/22-rdf-syntax-ns#"
   xmlns:svg="http://www.w3.org/2000/svg"
   xmlns="http://www.w3.org/2000/svg"
   xmlns:sodipodi="http://sodipodi.sourceforge.net/DTD/sodipodi-0.dtd"
   xmlns:inkscape="http://www.inkscape.org/namespaces/inkscape"
   version="1.1"
   id="svg199"
   width="608.83978"
   height="930"
   viewBox="0 0 608.83979 929.99999"
   sodipodi:docname="ru_upper_t.svg"
   inkscape:version="0.92.3 (2405546, 2018-03-11)">
  <metadata
     id="metadata205">
    <rdf:RDF>
      <cc:Work
         rdf:about="">
        <dc:format>image/svg+xml</dc:format>
        <dc:type
           rdf:resource="http://purl.org/dc/dcmitype/StillImage" />
        <dc:title></dc:title>
      </cc:Work>
    </rdf:RDF>
  </metadata>
  <defs
     id="defs203" />
  <sodipodi:namedview
     pagecolor="#ffffff"
     bordercolor="#666666"
     borderopacity="1"
     objecttolerance="10"
     gridtolerance="10"
     guidetolerance="10"
     inkscape:pageopacity="0"
     inkscape:pageshadow="2"
     inkscape:window-width="1916"
     inkscape:window-height="1041"
     id="namedview201"
     showgrid="false"
     inkscape:zoom="0.4178616"
     inkscape:cx="153.16989"
     inkscape:cy="481.65168"
     inkscape:window-x="0"
     inkscape:window-y="18"
     inkscape:window-maximized="0"
     inkscape:current-layer="svg199"
     fit-margin-top="0"
     fit-margin-left="0"
     fit-margin-right="0"
     fit-margin-bottom="0"
     inkscape:measure-start="110.084,692.813"
     inkscape:measure-end="111.281,692.813" />
  <path
     style="fill:#000000;stroke-width:3.95197558"
     d="m 250.34805,877.99986 c 3.36407,-263.73669 -0.47422,-521.86946 2.59789,-739.58836 1.36528,-31.26766 -7.52193,-28.53441 -27.56404,-31.34077 -87.80962,0.67164 -67.75298,-0.51181 -173.119308,-0.49157 C -11.111151,103.37809 -22.663625,10.189083 50.094735,1.4216673 287.66762,2.8924552 302.53705,-3.0733057 560.04485,2.269272 623.82727,1.9837626 625.3283,105.712 563.08387,108.2604 c -64.99533,-1.32251 -106.22177,1.446 -187.61048,1.08819 -14.2398,0.29042 -21.69287,5.17471 -19.25015,27.94578 -1.14334,222.79803 0.86857,429.5922 -3.79027,740.82043 -6.02432,73.13712 -100.60859,65.14314 -102.08493,-0.11494 z"
     id="path209"
     inkscape:connector-curvature="0"
     sodipodi:nodetypes="cccccccccccc" />
</svg>
