<?xml version="1.0" encoding="UTF-8" standalone="no"?>
<!-- Created with Inkscape (http://www.inkscape.org/) -->

<svg
   xmlns:dc="http://purl.org/dc/elements/1.1/"
   xmlns:cc="http://creativecommons.org/ns#"
   xmlns:rdf="http://www.w3.org/1999/02/22-rdf-syntax-ns#"
   xmlns:svg="http://www.w3.org/2000/svg"
   xmlns="http://www.w3.org/2000/svg"
   xmlns:sodipodi="http://sodipodi.sourceforge.net/DTD/sodipodi-0.dtd"
   xmlns:inkscape="http://www.inkscape.org/namespaces/inkscape"
   id="svg3390"
   version="1.1"
   inkscape:version="0.91 r13725"
   width="530.44525"
   height="853.078"
   viewBox="0 0 530.44525 853.078"
   sodipodi:docname="S.svg">
  <metadata
     id="metadata3396">
    <rdf:RDF>
      <cc:Work
         rdf:about="">
        <dc:format>image/svg+xml</dc:format>
        <dc:type
           rdf:resource="http://purl.org/dc/dcmitype/StillImage" />
        <dc:title></dc:title>
      </cc:Work>
    </rdf:RDF>
  </metadata>
  <defs
     id="defs3394" />
  <sodipodi:namedview
     pagecolor="#ffffff"
     bordercolor="#666666"
     borderopacity="1"
     objecttolerance="10"
     gridtolerance="10"
     guidetolerance="10"
     inkscape:pageopacity="0"
     inkscape:pageshadow="2"
     inkscape:window-width="1740"
     inkscape:window-height="952"
     id="namedview3392"
     showgrid="false"
     fit-margin-top="0"
     fit-margin-left="0"
     fit-margin-right="0"
     fit-margin-bottom="0"
     inkscape:zoom="0.70587203"
     inkscape:cx="159.93225"
     inkscape:cy="360.51605"
     inkscape:window-x="0"
     inkscape:window-y="0"
     inkscape:window-maximized="0"
     inkscape:current-layer="svg3390" />
  <path
     style="fill:#000000"
     d="M 130.99609,854.71916 C 9.0279519,872.38458 17.183582,738.44939 114.80009,742.60663 c 64.90903,7.48191 95.91492,11.40072 142.12689,7.558 C 469.09121,740.21249 421.49362,513.60389 282.132,509.38917 1.313173,500.89636 -78.693488,73.374297 276.12662,30.358936 344.47658,29.099019 403.2596,23.886617 477.23098,48.869163 533.96345,62.541106 533.15681,169.505 451.76406,154.36237 398.927,144.30215 350.99509,140.68808 296.5625,146.27842 88.62937,163.14375 96.513631,383.68505 288.5411,386.11132 c 339.77024,8.33584 260.3869,527.9884 -19.82332,466.61392 -61.43693,4.18602 -101.58223,1.2613 -137.72169,1.99392 z"
     id="path3400"
     inkscape:connector-curvature="0"
     sodipodi:nodetypes="cccsccccccc" />
</svg>
