<?xml version="1.0" encoding="UTF-8" standalone="no"?>
<!-- Created with Inkscape (http://www.inkscape.org/) -->

<svg
   xmlns:dc="http://purl.org/dc/elements/1.1/"
   xmlns:cc="http://creativecommons.org/ns#"
   xmlns:rdf="http://www.w3.org/1999/02/22-rdf-syntax-ns#"
   xmlns:svg="http://www.w3.org/2000/svg"
   xmlns="http://www.w3.org/2000/svg"
   xmlns:sodipodi="http://sodipodi.sourceforge.net/DTD/sodipodi-0.dtd"
   xmlns:inkscape="http://www.inkscape.org/namespaces/inkscape"
   version="1.1"
   id="svg2264"
   width="155.63794"
   height="920.34534"
   viewBox="0 0 155.63794 920.34534"
   sodipodi:docname="smbl_colon.svg"
   inkscape:version="0.92.3 (2405546, 2018-03-11)">
  <metadata
     id="metadata2270">
    <rdf:RDF>
      <cc:Work
         rdf:about="">
        <dc:format>image/svg+xml</dc:format>
        <dc:type
           rdf:resource="http://purl.org/dc/dcmitype/StillImage" />
        <dc:title></dc:title>
      </cc:Work>
    </rdf:RDF>
  </metadata>
  <defs
     id="defs2268" />
  <sodipodi:namedview
     pagecolor="#ffffff"
     bordercolor="#666666"
     borderopacity="1"
     objecttolerance="10"
     gridtolerance="10"
     guidetolerance="10"
     inkscape:pageopacity="0"
     inkscape:pageshadow="2"
     inkscape:window-width="1916"
     inkscape:window-height="1041"
     id="namedview2266"
     showgrid="false"
     fit-margin-top="0"
     fit-margin-left="0"
     fit-margin-right="0"
     fit-margin-bottom="0"
     inkscape:zoom="0.66802537"
     inkscape:cx="-87.815708"
     inkscape:cy="512.75722"
     inkscape:window-x="0"
     inkscape:window-y="18"
     inkscape:window-maximized="0"
     inkscape:current-layer="svg2264" />
  <path
     style="fill:#000000;stroke-width:5.5342083"
     d="M 17.457336,184.57931 C 7.5572405,184.80661 0.04684753,185.20635 0.14373353,164.30285 1.9542895,113.37029 -2.0753195,65.77669 1.6319745,19.415733 1.7288045,2.5721795 8.3301665,3.2345891 21.406341,0 c 54.75836,0.968698 47.656827,1.7124228 109.140449,2.0663445 23.8839,0.6637633 23.13493,4.6674132 23.64065,23.8532125 -2.15877,40.815525 -0.59045,93.554423 -1.63223,136.267473 -0.43681,19.41918 -1.78894,23.57783 -18.33092,22.2652 -29.55269,3.75343 -103.84158,-0.157 -116.766954,0.12708 z"
     id="path2274"
     inkscape:connector-curvature="0"
     sodipodi:nodetypes="ccccccccc" />
  <path
     style="fill:#000000;stroke-width:5.5342083"
     d="m 18.907839,918.83412 c -9.9001005,0.2273 -17.4104905,0.62704 -17.3136005,-20.27646 1.81055,-50.93256 -2.21905997,-98.52615 1.48824,-144.88711 0.0968,-16.84355 6.69819,-16.18114 19.7743605,-19.41573 54.75836,0.9687 47.65683,1.71242 109.140451,2.06634 23.8839,0.66377 23.13493,4.66742 23.64065,23.85322 -2.15877,40.81552 -0.59045,93.55441 -1.63223,136.26746 -0.43681,19.41918 -1.78894,23.57783 -18.33092,22.2652 -29.55269,3.75343 -103.841581,-0.157 -116.766951,0.12708 z"
     id="path2274-5"
     inkscape:connector-curvature="0"
     sodipodi:nodetypes="ccccccccc" />
</svg>
