<?xml version="1.0" encoding="UTF-8" standalone="no"?>
<!-- Created with Inkscape (http://www.inkscape.org/) -->

<svg
   xmlns:dc="http://purl.org/dc/elements/1.1/"
   xmlns:cc="http://creativecommons.org/ns#"
   xmlns:rdf="http://www.w3.org/1999/02/22-rdf-syntax-ns#"
   xmlns:svg="http://www.w3.org/2000/svg"
   xmlns="http://www.w3.org/2000/svg"
   xmlns:sodipodi="http://sodipodi.sourceforge.net/DTD/sodipodi-0.dtd"
   xmlns:inkscape="http://www.inkscape.org/namespaces/inkscape"
   version="1.1"
   id="svg677"
   width="923.40881"
   height="930"
   viewBox="0 0 923.40881 930.00001"
   sodipodi:docname="smbl_asciicircum.jpg.svg"
   inkscape:version="0.92.3 (2405546, 2018-03-11)">
  <metadata
     id="metadata683">
    <rdf:RDF>
      <cc:Work
         rdf:about="">
        <dc:format>image/svg+xml</dc:format>
        <dc:type
           rdf:resource="http://purl.org/dc/dcmitype/StillImage" />
        <dc:title></dc:title>
      </cc:Work>
    </rdf:RDF>
  </metadata>
  <defs
     id="defs681" />
  <sodipodi:namedview
     pagecolor="#ffffff"
     bordercolor="#666666"
     borderopacity="1"
     objecttolerance="10"
     gridtolerance="10"
     guidetolerance="10"
     inkscape:pageopacity="0"
     inkscape:pageshadow="2"
     inkscape:window-width="1916"
     inkscape:window-height="1041"
     id="namedview679"
     showgrid="false"
     fit-margin-top="0"
     fit-margin-left="0"
     fit-margin-right="0"
     fit-margin-bottom="0"
     inkscape:zoom="0.40596332"
     inkscape:cx="657.20695"
     inkscape:cy="698.24614"
     inkscape:window-x="0"
     inkscape:window-y="18"
     inkscape:window-maximized="0"
     inkscape:current-layer="svg677" />
  <path
     style="fill:#000000;stroke-width:14.12025261"
     d="M 26.126996,824.4808 C 123.49832,594.83172 239.64537,344.77478 377.6095,64.845474 413.76303,3.5697041 436.67924,-8.5581459 490.69323,4.9985241 526.18648,23.693374 567.78565,27.484894 607.30696,153.63325 c 103.10859,239.26462 138.83732,330.84562 228.85325,557.74997 23.51806,46.59683 31.00939,71.3552 44.51626,105.82103 C 911.09322,954.8995 753.84231,956.4755 724.92182,879.39319 647.57314,661.00447 560.0754,432.06914 502.91939,256.61348 470.79982,151.09973 463.68825,193.85505 441.55497,256.00508 359.00481,463.03084 264.24084,674.25766 187.97967,868.03731 121.06542,997.64201 -8.233053,895.15772 26.126996,824.4808 Z"
     id="path687"
     inkscape:connector-curvature="0"
     sodipodi:nodetypes="ccccccccccc" />
</svg>
