<?xml version="1.0" encoding="UTF-8" standalone="no"?>
<!-- Created with Inkscape (http://www.inkscape.org/) -->

<svg
   xmlns:dc="http://purl.org/dc/elements/1.1/"
   xmlns:cc="http://creativecommons.org/ns#"
   xmlns:rdf="http://www.w3.org/1999/02/22-rdf-syntax-ns#"
   xmlns:svg="http://www.w3.org/2000/svg"
   xmlns="http://www.w3.org/2000/svg"
   xmlns:sodipodi="http://sodipodi.sourceforge.net/DTD/sodipodi-0.dtd"
   xmlns:inkscape="http://www.inkscape.org/namespaces/inkscape"
   version="1.1"
   id="svg156"
   width="1067.6527"
   height="930"
   viewBox="0 0 1067.6527 930.00001"
   sodipodi:docname="smbl_plus.svg"
   inkscape:version="0.92.3 (2405546, 2018-03-11)">
  <metadata
     id="metadata162">
    <rdf:RDF>
      <cc:Work
         rdf:about="">
        <dc:format>image/svg+xml</dc:format>
        <dc:type
           rdf:resource="http://purl.org/dc/dcmitype/StillImage" />
        <dc:title></dc:title>
      </cc:Work>
    </rdf:RDF>
  </metadata>
  <defs
     id="defs160" />
  <sodipodi:namedview
     pagecolor="#ffffff"
     bordercolor="#666666"
     borderopacity="1"
     objecttolerance="10"
     gridtolerance="10"
     guidetolerance="10"
     inkscape:pageopacity="0"
     inkscape:pageshadow="2"
     inkscape:window-width="1916"
     inkscape:window-height="1041"
     id="namedview158"
     showgrid="false"
     fit-margin-top="0"
     fit-margin-left="0"
     fit-margin-right="0"
     fit-margin-bottom="0"
     inkscape:zoom="0.54049976"
     inkscape:cx="778.48085"
     inkscape:cy="897.31328"
     inkscape:window-x="0"
     inkscape:window-y="18"
     inkscape:window-maximized="0"
     inkscape:current-layer="svg156" />
  <path
     style="fill:#000000;stroke-width:7.92939663"
     d="m 463.99348,862.65055 c -0.86357,-94.52025 -1.3249,-192.01651 -6.21196,-254.31987 -1.34006,-17.36062 -8.85981,-28.12676 -27.61174,-39.53052 -14.1738,-8.61955 -25.77054,-18.79793 -25.77054,-22.61836 0,-9.53931 -39.701,-1.30538 -61.29835,12.71325 -12.55679,8.15058 -28.6557,9.9963 -55.50578,6.36399 -55.36364,-7.48976 -117.36418,-5.96821 -136.93656,3.36057 -2.18059,1.03925 -11.321,1.32719 -20.31199,0.63981 -8.991,-0.68738 -25.66365,2.29258 -37.05041,6.62189 -25.3487,9.63768 -36.53921,-1.20279 -43.12304,-41.77439 -2.51114,-15.47278 -6.79852,-27.5219 -9.52806,-26.77584 C 28.33555,510.69612 0,487.43875 0,473.97062 0,451.78501 8.6145,433.44164 16.68965,438.4323 c 3.90423,2.41302 7.09854,-0.87867 7.09854,-7.31417 0,-15.09539 16.07214,-20.73755 33.52148,-11.76782 10.23348,5.26041 12.62692,4.25016 9.46324,-3.99394 -2.55178,-6.64999 2.246,-12.73015 12.07255,-15.29992 8.96904,-2.34561 16.30731,-0.8197 16.30731,3.39031 0,4.21051 3.26889,5.63478 7.26397,3.16532 3.99543,-2.46902 17.08002,-0.75726 29.07735,3.80413 16.46103,6.25847 23.58217,5.78603 29.02199,-1.92585 5.66273,-8.02748 8.06603,-8.10861 11.20681,-0.37665 3.02655,7.44947 6.88921,6.94997 15.89438,-2.0552 6.54289,-6.54284 14.87198,-10.057 18.50909,-7.80917 3.63712,2.24799 8.42003,-0.39647 10.62881,-5.87419 2.86698,-7.11133 4.19515,-6.69187 4.64217,1.46594 0.45594,8.36338 3.74763,7.30035 12.26797,-3.9647 7.18026,-9.49322 11.73853,-11.41411 11.89409,-5.01227 0.13876,5.70887 3.99344,8.06732 8.56657,5.24114 5.52892,-3.41708 5.68087,-8.31184 0.45594,-14.61041 -4.3235,-5.20942 -4.94249,-14.19327 -1.37624,-19.96409 4.54255,-7.35021 8.10895,-7.86418 11.90846,-1.71622 2.98294,4.82702 1.20825,8.77611 -3.94437,8.77611 -6.98124,0 -6.85313,3.03051 0.50302,11.89409 5.42916,6.54175 20.4225,11.8941 33.31853,11.8941 21.92736,0 23.10864,-1.54178 18.22255,-23.78819 -4.49796,-20.47995 -2.9319,-23.78819 11.26405,-23.78819 9.06885,0 16.48883,3.56823 16.48883,7.92939 0,4.36117 -3.56823,7.9294 -7.92939,7.9294 -4.36117,0 -7.9294,5.24039 -7.9294,11.64526 0,7.60375 4.57923,9.88801 13.19486,6.5819 9.07331,-3.482 11.34261,-2.06611 7.26502,4.53115 -4.34036,7.02312 0.0942,8.26942 16.54037,4.6501 39.32802,-8.65454 42.29124,-10.69052 42.41514,-29.14192 0.0991,-14.58811 1.60966,-15.78753 7.80797,-6.19594 4.22786,6.54176 7.84971,8.32587 8.04913,3.9647 0.19824,-4.36117 3.99939,-1.68499 8.44481,5.94705 4.44542,7.63204 11.9101,13.87644 16.58855,13.87644 5.44883,0 4.95825,-4.27493 -1.36485,-11.89409 -6.22473,-7.50027 -6.75624,-11.8941 -1.43869,-11.8941 4.63771,0 10.63763,3.56823 13.33298,7.9294 2.6955,4.36117 9.15038,7.64771 14.34443,7.30342 6.80937,-0.45098 6.67888,-1.74149 -0.46585,-4.62531 -5.45146,-2.19992 -9.91175,-9.60746 -9.91175,-16.46173 0,-11.08921 1.59778,-11.01641 14.50084,0.66062 20.41239,18.47296 30.55147,16.37985 13.25205,-2.73564 -7.89361,-8.72234 -19.86497,-15.8588 -26.60303,-15.8588 -9.75682,0 -10.24651,-2.00465 -2.40558,-9.84548 6.28623,-6.28623 11.87601,-7.00285 15.46233,-1.98235 3.08949,4.32499 11.57474,12.52255 18.85665,18.21739 11.31713,8.85064 12.9437,8.33736 11.20121,-3.53502 -1.12102,-7.63904 -6.18701,-15.27197 -11.25736,-16.96212 -5.07046,-1.68996 -9.27358,-9.02004 -9.34034,-16.28862 -0.0942,-10.37601 -1.57745,-10.91828 -6.89723,-2.52353 -3.72682,5.88054 -13.48469,9.39966 -21.68448,7.82017 -12.8363,-2.47249 -14.97684,-10.57192 -15.39958,-58.26833 -2.19353,-35.65367 -6.21605,-139.836955 -5.89689,-165.452803 6.10122,-102.536513 142.46064,-94.038351 148.41165,-0.956475 2.17179,40.406038 1.81135,134.177468 1.20224,150.658378 -2.91802,70.92265 -3.83535,76.65521 -11.50769,71.91348 -3.87252,-2.39369 -8.60706,6.31651 -10.52082,19.35551 -2.02002,13.76221 0.10407,23.7582 5.05895,23.82873 5.54845,0.0793 5.76175,2.16125 0.60908,5.94704 -12.64,9.28642 -14.99835,36.39955 -2.51263,28.88739 8.60821,-5.17918 8.62367,-4.03804 0.0892,6.497 -8.51944,10.51498 -8.51944,12.50159 0,11.21093 5.6949,-0.86282 14.29353,-4.03309 19.10806,-7.04512 4.81463,-3.01218 40.49687,-5.3686 79.29397,-5.23687 38.79715,0.13381 75.8925,-1.1909 82.43425,-2.93883 97.97809,-5.00916 181.71726,-4.14258 235.91938,1.5502 132.3667,1.22291 96.3472,168.23612 2.13081,160.53914 -112.35209,1.37939 -231.82928,1.07359 -331.68477,3.79259 -27.51247,0.6185 -52.17676,3.27881 -54.80957,5.91157 -2.63256,2.63305 -4.31111,17.43842 -3.72979,32.90144 1.63152,100.48771 -2.44321,145.43722 2.04297,282.58463 -10.11582,92.40198 -126.6768,84.05538 -131.24047,-0.87325 z M 151.28755,531.08924 c 8.93286,-11.80509 8.84108,-12.39692 -0.61503,-3.9647 -13.96337,12.45153 -26.61824,12.95366 -19.08036,0.75725 3.53354,-5.71744 2.17216,-7.00027 -3.62621,-3.41657 -9.60587,5.93674 -5.10846,20.50071 6.33063,20.50071 3.56972,0 11.21559,-6.2444 16.99077,-13.87645 z M 66.01674,445.10316 c -4.51431,-11.76455 -17.7341,-15.29977 -19.45235,-5.20204 -0.55654,3.27088 -1.85895,14.09277 -2.89472,24.04873 -1.76182,16.94095 -0.96888,17.27458 12.37129,5.20198 7.83965,-7.09473 12.32868,-17.91662 9.97558,-24.04867 z m 52.92422,12.63916 c 0,-4.36117 -6.2444,-7.87479 -13.87644,-7.80803 -11.85881,0.10407 -12.14705,1.23897 -1.98235,7.80803 14.96445,9.67074 15.85879,9.67074 15.85879,0 z m 309.24647,-31.40299 c 0,-5.13959 -19.35511,-5.69732 -53.99141,-1.55565 -5.70882,0.68292 -8.60161,4.11833 -6.42841,7.63452 4.81017,7.78285 60.41982,2.18802 60.41982,-6.07877 z m 29.73415,-4.94101 c -7.55632,-7.55636 -22.70578,4.6833 -17.07437,13.79478 3.34719,5.41577 7.78235,5.27899 13.4771,-0.4163 4.66843,-4.66843 6.28731,-10.68907 3.59747,-13.37902 z"
     id="path166"
     inkscape:connector-curvature="0"
     sodipodi:nodetypes="cccscccscccscscccsccccccccccccccscscssssccccccsscscccsccscscccccccccccccccccccccccccccccccscccccsccsccssccssccccc" />
</svg>
