<?xml version="1.0" encoding="UTF-8" standalone="no"?>
<!-- Created with Inkscape (http://www.inkscape.org/) -->

<svg
   xmlns:dc="http://purl.org/dc/elements/1.1/"
   xmlns:cc="http://creativecommons.org/ns#"
   xmlns:rdf="http://www.w3.org/1999/02/22-rdf-syntax-ns#"
   xmlns:svg="http://www.w3.org/2000/svg"
   xmlns="http://www.w3.org/2000/svg"
   xmlns:sodipodi="http://sodipodi.sourceforge.net/DTD/sodipodi-0.dtd"
   xmlns:inkscape="http://www.inkscape.org/namespaces/inkscape"
   version="1.1"
   id="svg252"
   width="385.65591"
   height="930"
   viewBox="0 0 385.65591 930.00001"
   sodipodi:docname="smbl_1.svg"
   inkscape:version="0.92.3 (2405546, 2018-03-11)">
  <metadata
     id="metadata258">
    <rdf:RDF>
      <cc:Work
         rdf:about="">
        <dc:format>image/svg+xml</dc:format>
        <dc:type
           rdf:resource="http://purl.org/dc/dcmitype/StillImage" />
        <dc:title></dc:title>
      </cc:Work>
    </rdf:RDF>
  </metadata>
  <defs
     id="defs256" />
  <sodipodi:namedview
     pagecolor="#ffffff"
     bordercolor="#666666"
     borderopacity="1"
     objecttolerance="10"
     gridtolerance="10"
     guidetolerance="10"
     inkscape:pageopacity="0"
     inkscape:pageshadow="2"
     inkscape:window-width="1916"
     inkscape:window-height="1041"
     id="namedview254"
     showgrid="false"
     fit-margin-top="0"
     fit-margin-left="0"
     fit-margin-right="0"
     fit-margin-bottom="0"
     inkscape:zoom="0.91811843"
     inkscape:cx="67.585516"
     inkscape:cy="696.33801"
     inkscape:window-x="0"
     inkscape:window-y="18"
     inkscape:window-maximized="0"
     inkscape:current-layer="svg252"
     inkscape:measure-start="261.858,42.3593"
     inkscape:measure-end="422.823,40.0488" />
  <path
     style="fill:#000000;stroke-width:4.20875883"
     d="m 278.37574,879.77667 c -0.0953,-223.82592 -0.3605,-487.5372 1.8655,-689.23637 7.31169,-59.61119 30.32694,-71.35372 13.50587,-103.9851 -3.80354,-7.19364 -8.12094,-9.50904 -15.76049,-8.45227 -13.15982,1.82029 -21.80211,8.64329 -18.24279,14.40235 1.55461,2.51526 0.67683,3.12655 -2.06045,1.43492 -6.52157,-4.03054 -30.95434,14.65869 -28.27878,21.63113 1.18319,3.08347 -0.18676,5.1235 -3.04238,4.53344 -7.76177,-1.60328 -57.31419,35.48591 -57.57635,43.095 -0.12363,3.62219 -6.85572,9.74685 -14.95758,13.61036 -8.10187,3.86351 -14.73066,9.21384 -14.73066,11.88961 0,7.31646 -13.40942,16.02985 -24.90181,16.18108 -5.59415,0.0737 -8.99874,1.30629 -7.56577,2.73927 1.43309,1.43308 0.13153,5.08013 -2.89389,8.10475 -6.972989,6.97299 -37.356048,19.83822 -33.990588,14.39277 3.39526,-5.49361 -3.61333,-5.16791 -9.209209,0.42798 -2.46792,2.46791 -10.48978,5.43317 -17.82633,6.58942 -12.55734,1.97917 -13.18034,1.46938 -10.62904,-8.6959 1.79582,-7.15529 0.98459,-10.79815 -2.40504,-10.79815 -3.01371,0 -4.02616,2.83828 -2.46423,6.90844 2.2167,5.77639 1.60064,6.03678 -3.75848,1.58907 -5.2922,-4.39216 -6.40946,-4.12911 -6.40946,1.5091 0,3.75569 2.2096,6.8285 4.9102,6.8285 2.70063,0 3.80982,1.10033 2.46475,2.44529 -1.34496,1.34496 -6.35283,0.35406 -11.12861,-2.20171 -7.3946993,-3.95752 -8.2788993,-3.59336 -5.9583993,2.45371 1.83975,4.79415 1.12531,6.11233 -2.19908,4.05774 -7.8510498,-4.8522 -6.2502999,-20.79098 1.77873,-17.70998 4.4713393,1.71586 7.4369293,-0.23674 8.9083893,-5.86285 1.21318,-4.63913 3.41796,-8.43483 4.89947,-8.43483 -0.244016,-1.78576 45.023583,-37.0366 39.46435,-37.81281 -2.89352,-0.0368 -5.26095,1.82792 -5.26095,4.14274 0,2.31482 -1.89394,4.20876 -4.20876,4.20876 -2.31481,0 -4.20875,-3.63006 -4.20875,-8.0668 0,-4.43674 -2.29799,-8.83276 -5.10649,-9.76895 -3.51692,-1.1724 -2.38084,-5.16746 3.65002,-12.83426 4.81608,-6.12267 9.60699,-10.28166 10.64645,-9.2422 1.03956,1.03957 10.198719,-6.09394 20.353951,-15.85197 10.155209,-9.75804 20.446334,-17.96001 22.869159,-18.22664 2.422927,-0.26673 7.088237,-0.77309 10.367567,-1.12584 3.27933,-0.35248 4.764,-1.83949 3.2993,-3.30417 -3.07871,-3.0787 15.10129,-18.38067 21.83775,-18.38067 9.01474,0 42.13983,-27.680009 48.55974,-40.577509 7.2886,-14.64268 16.40337,-19.81478 28.27781,-16.04598 4.97094,1.57771 8.77371,0.0708 10.37927,-4.11332 1.39363,-3.63184 5.1722,-6.60334 8.39676,-6.60334 3.22457,0 5.86286,-2.06895 5.86286,-4.59766 0,-2.8849294 8.23125,-4.1740894 22.09598,-3.4606194 12.15279,0.62536 27.18353,-1.34255 33.40169,-4.37314 11.95366,-5.8259899 26.81126,-3.18130988 22.38275,3.98418 -1.59091,2.57399 4.7217,-1.9228763 14.88333,-1.9228763 53.54125,0.7205015 50.7967,18.4467267 51.45768,63.9998707 1.68543,271.668444 2.96584,556.681134 0.48579,810.680304 -18.5407,73.86926 -100.28252,58.41427 -102.23075,-0.15387 z"
     id="path262"
     inkscape:connector-curvature="0"
     sodipodi:nodetypes="cccccccccsscccccccsscssccccccccssscccccccssscssccccccc" />
</svg>
