<?xml version="1.0" encoding="UTF-8" standalone="no"?>
<!-- Created with Inkscape (http://www.inkscape.org/) -->

<svg
   xmlns:dc="http://purl.org/dc/elements/1.1/"
   xmlns:cc="http://creativecommons.org/ns#"
   xmlns:rdf="http://www.w3.org/1999/02/22-rdf-syntax-ns#"
   xmlns:svg="http://www.w3.org/2000/svg"
   xmlns="http://www.w3.org/2000/svg"
   xmlns:sodipodi="http://sodipodi.sourceforge.net/DTD/sodipodi-0.dtd"
   xmlns:inkscape="http://www.inkscape.org/namespaces/inkscape"
   version="1.1"
   id="svg4079"
   width="494.43292"
   height="930"
   viewBox="0 0 494.43293 929.99999"
   sodipodi:docname="smbl_3.svg"
   inkscape:version="0.92.3 (2405546, 2018-03-11)">
  <metadata
     id="metadata4085">
    <rdf:RDF>
      <cc:Work
         rdf:about="">
        <dc:format>image/svg+xml</dc:format>
        <dc:type
           rdf:resource="http://purl.org/dc/dcmitype/StillImage" />
        <dc:title></dc:title>
      </cc:Work>
    </rdf:RDF>
  </metadata>
  <defs
     id="defs4083" />
  <sodipodi:namedview
     pagecolor="#ffffff"
     bordercolor="#666666"
     borderopacity="1"
     objecttolerance="10"
     gridtolerance="10"
     guidetolerance="10"
     inkscape:pageopacity="0"
     inkscape:pageshadow="2"
     inkscape:window-width="1916"
     inkscape:window-height="1041"
     id="namedview4081"
     showgrid="false"
     inkscape:zoom="0.31039562"
     inkscape:cx="-1206.3872"
     inkscape:cy="290.22222"
     inkscape:window-x="0"
     inkscape:window-y="18"
     inkscape:window-maximized="0"
     inkscape:current-layer="svg4079"
     fit-margin-top="0"
     fit-margin-left="0"
     fit-margin-right="0"
     fit-margin-bottom="0"
     inkscape:measure-start="288.342,673.334"
     inkscape:measure-end="483.254,879.523" />
  <path
     style="fill:#000000;stroke-width:4.1380496"
     d="M 63.082655,910.7403 C -47.184459,879.93757 14.45937,767.14787 64.131866,785.845 c 99.807094,36.62169 184.390584,49.15708 250.146944,-1.393 85.38652,-88.33919 86.98437,-152.28891 28.57808,-229.19084 -10.6703,-11.85359 -26.69306,-25.82872 -26.90642,-25.74682 -34.29995,-43.05242 -120.89019,-17.8699 -166.97206,-15.10385 -76.394297,-5.63874 -46.4337,-89.86471 -3.05895,-85.46097 73.49582,-5.81345 62.98012,-0.48315 99.28669,-7.54654 55.50848,-1.2162 108.70919,-12.95232 115.74434,-52.384 26.70543,-71.7699 16.45666,-138.35594 -30.93986,-200.9823 -23.60587,-38.18583 -82.36444,-59.23033 -115.90572,-59.20587 -52.2679,6.00294 -48.23658,3.03225 -114.922404,35.75477 C 36.242306,190.47476 -35.374869,136.85982 19.621078,61.195894 49.821159,29.407243 101.46166,20.727987 144.81705,7.8786789 236.96532,-13.003188 329.77302,8.6106757 390.67964,61.027178 c 25.82141,22.027135 44.43522,52.119602 53.54074,65.711662 50.78991,109.81445 71.80238,211.83961 -2.18951,300.30438 -30.35995,52.55263 -10.62032,61.50959 15.38446,100.72575 47.19523,100.82051 46.69442,147.05322 13.01313,233.47197 C 432.81302,844.25063 383.68716,918.92194 272.48329,930 197.67703,924.29762 107.16793,935.0174 63.082655,910.7403 Z"
     id="path4089"
     inkscape:connector-curvature="0"
     sodipodi:nodetypes="ccccccccccccccccccccc" />
</svg>
