<?xml version="1.0" encoding="UTF-8" standalone="no"?>
<!-- Created with Inkscape (http://www.inkscape.org/) -->

<svg
   xmlns:dc="http://purl.org/dc/elements/1.1/"
   xmlns:cc="http://creativecommons.org/ns#"
   xmlns:rdf="http://www.w3.org/1999/02/22-rdf-syntax-ns#"
   xmlns:svg="http://www.w3.org/2000/svg"
   xmlns="http://www.w3.org/2000/svg"
   xmlns:sodipodi="http://sodipodi.sourceforge.net/DTD/sodipodi-0.dtd"
   xmlns:inkscape="http://www.inkscape.org/namespaces/inkscape"
   version="1.1"
   id="svg156"
   width="1067.6527"
   height="930"
   viewBox="0 0 1067.6527 930.00001"
   sodipodi:docname="smbl_plus.svg"
   inkscape:version="0.92.3 (2405546, 2018-03-11)">
  <metadata
     id="metadata162">
    <rdf:RDF>
      <cc:Work
         rdf:about="">
        <dc:format>image/svg+xml</dc:format>
        <dc:type
           rdf:resource="http://purl.org/dc/dcmitype/StillImage" />
        <dc:title></dc:title>
      </cc:Work>
    </rdf:RDF>
  </metadata>
  <defs
     id="defs160" />
  <sodipodi:namedview
     pagecolor="#ffffff"
     bordercolor="#666666"
     borderopacity="1"
     objecttolerance="10"
     gridtolerance="10"
     guidetolerance="10"
     inkscape:pageopacity="0"
     inkscape:pageshadow="2"
     inkscape:window-width="1916"
     inkscape:window-height="1041"
     id="namedview158"
     showgrid="false"
     fit-margin-top="0"
     fit-margin-left="0"
     fit-margin-right="0"
     fit-margin-bottom="0"
     inkscape:zoom="0.76438209"
     inkscape:cx="566.67971"
     inkscape:cy="521.93415"
     inkscape:window-x="0"
     inkscape:window-y="18"
     inkscape:window-maximized="0"
     inkscape:current-layer="svg156" />
  <path
     style="fill:#000000;stroke-width:7.92939663"
     d="m 463.99348,862.65055 c -0.86357,-94.52025 -1.3249,-192.01651 -6.21196,-254.31987 -4.64746,-35.89609 7.11987,-63.80015 -26.55526,-61.22381 C 314.17879,542.94955 168.03541,548.96733 73.917302,542.4324 -27.577116,526.92326 -7.1177732,400.2705 70.964367,394.58617 c 75.417423,0.12411 301.126243,-12.74071 334.946573,-13.4438 58.86619,2.98492 34.90245,-28.90757 33.68461,-141.5665 -2.19353,-35.65367 -6.21605,-139.836955 -5.89689,-165.452803 6.10122,-102.536513 142.46064,-94.038351 148.41165,-0.956475 3.33537,110.804038 6.69481,140.176298 2.21813,206.695948 2.91257,79.57263 -16.71856,95.98359 35.84852,95.30669 81.36722,-2.18148 235.4059,-9.89094 361.10734,2.6252 132.3667,1.22291 96.3472,168.23612 2.13081,160.53914 -112.35209,1.37939 -231.82928,1.07359 -331.68477,3.79259 -41.01811,-0.32784 -59.78642,0.092 -58.53936,38.81301 1.63152,100.48771 -2.44321,145.43722 2.04297,282.58463 -10.11582,92.40198 -126.6768,84.05538 -131.24047,-0.87325 z"
     id="path166"
     inkscape:connector-curvature="0"
     sodipodi:nodetypes="ccccccccccccccccc" />
</svg>
