<?xml version="1.0" encoding="UTF-8" standalone="no"?>
<!-- Created with Inkscape (http://www.inkscape.org/) -->

<svg
   xmlns:dc="http://purl.org/dc/elements/1.1/"
   xmlns:cc="http://creativecommons.org/ns#"
   xmlns:rdf="http://www.w3.org/1999/02/22-rdf-syntax-ns#"
   xmlns:svg="http://www.w3.org/2000/svg"
   xmlns="http://www.w3.org/2000/svg"
   xmlns:sodipodi="http://sodipodi.sourceforge.net/DTD/sodipodi-0.dtd"
   xmlns:inkscape="http://www.inkscape.org/namespaces/inkscape"
   id="svg3595"
   version="1.1"
   inkscape:version="0.91 r13725"
   width="791.89697"
   height="929.99988"
   viewBox="0 0 791.89697 929.99988"
   sodipodi:docname="smbl_ampersand.svg">
  <metadata
     id="metadata3601">
    <rdf:RDF>
      <cc:Work
         rdf:about="">
        <dc:format>image/svg+xml</dc:format>
        <dc:type
           rdf:resource="http://purl.org/dc/dcmitype/StillImage" />
        <dc:title />
      </cc:Work>
    </rdf:RDF>
  </metadata>
  <defs
     id="defs3599" />
  <sodipodi:namedview
     pagecolor="#ffffff"
     bordercolor="#666666"
     borderopacity="1"
     objecttolerance="10"
     gridtolerance="10"
     guidetolerance="10"
     inkscape:pageopacity="0"
     inkscape:pageshadow="2"
     inkscape:window-width="1642"
     inkscape:window-height="1036"
     id="namedview3597"
     showgrid="false"
     fit-margin-top="0"
     fit-margin-left="0"
     fit-margin-right="0"
     fit-margin-bottom="0"
     inkscape:zoom="0.65995525"
     inkscape:cx="472.00678"
     inkscape:cy="503.88447"
     inkscape:window-x="153"
     inkscape:window-y="0"
     inkscape:window-maximized="0"
     inkscape:current-layer="svg3595" />
  <path
     style="fill:#000000"
     d="m 675.42191,919.36467 c -39.03546,-33.23796 -68.58419,-69.52079 -117.06874,-104.70749 -9.16455,-6.52569 -12.20598,-7.01916 -19.4548,-3.15648 -7.48037,3.9861 -7.98939,3.84738 -3.93399,-1.07194 3.76899,-4.57197 3.58888,-5.65055 -0.94361,-5.65055 -3.35436,0 -5.60171,3.53815 -5.60171,8.81914 0,7.23669 -1.86255,8.7214 -10.37968,8.27428 -15.19422,-0.79767 -20.48376,0.16104 -18.51056,3.35328 0.96273,1.55808 -2.50698,7.92736 -7.71071,14.15411 l -9.46139,11.32143 2.17759,-12.2669 c 1.1975,-6.74679 0.66028,-12.2669 -1.19397,-12.2669 -1.85426,0 -6.33667,-1.13786 -9.96093,-2.52864 -4.49263,-1.72391 -5.72105,-1.12352 -3.86036,1.88722 1.58954,2.57187 0.51282,4.41585 -2.57846,4.41585 -2.9192,0 -6.84106,-3.23939 -8.71524,-7.19867 -3.28433,-6.93826 -3.88162,-6.86999 -16.5116,1.88722 l -13.10399,9.08601 10.49594,0 c 6.03614,0 9.50474,-1.60388 8.16318,-3.77443 -1.28305,-2.07594 -0.53395,-3.77443 1.66453,-3.77443 2.19848,0 3.99719,3.39699 3.99719,7.54886 0,8.37065 3.89431,9.69364 10.1424,3.44555 2.86859,-2.86859 4.84584,-2.90188 6.57091,-0.11072 1.38874,2.24705 -1.66629,5.03019 -6.9876,6.36578 -5.20034,1.3052 -10.48756,5.62589 -11.7494,9.6015 -1.26192,3.97566 -3.67799,6.37325 -5.36923,5.32799 -1.6912,-1.04527 -4.93995,0.34649 -7.21933,3.09312 -4.31772,5.20255 -14.58553,5.867 -21.79635,1.41037 -2.30618,-1.42522 -9.55649,0.083 -16.11156,3.35411 -10.88186,5.42859 -12.72708,5.41576 -21.21781,-0.14846 -9.01334,-5.90577 -9.29839,-5.80786 -9.29839,3.19597 0,6.40966 -2.04725,9.2236 -6.60525,9.07916 -3.63289,-0.11575 -13.39923,0.9577 -21.70298,2.38443 -15.1143,2.59659 -19.28195,2.73231 -50.95481,1.6595 -26.38437,-0.89354 -45.2875,1.56487 -45.35096,5.89845 -0.0327,2.17055 -1.70428,1.3988 -3.71663,-1.7151 -2.01228,-3.11391 -3.68485,-4.32804 -3.71664,-2.69804 -0.0327,1.63005 -3.05431,1.36005 -6.71669,-0.60013 -7.39907,-3.95986 -21.70205,3.66165 -16.87264,8.99076 1.52462,1.68239 -0.2013,1.9924 -3.83309,0.68871 -3.63288,-1.30343 -6.60525,-0.88397 -6.60525,0.93254 0,1.81651 -3.19966,2.46596 -7.11037,1.44309 -5.00774,-1.30948 -6.51271,-4.14488 -5.08929,-9.58804 1.43655,-5.49318 0.49093,-7.21854 -3.26931,-5.96518 -7.38045,2.46017 -7.02648,20.37858 0.37115,18.79334 4.63505,-0.99318 4.77765,-0.31454 0.78634,3.74288 -3.08776,3.13901 -5.85548,3.58382 -7.54886,1.2131 -1.47027,-2.05807 -14.92226,-9.68718 -29.89307,-16.95296 -14.97078,-7.26578 -26.60508,-15.03089 -25.85402,-17.25584 0.75111,-2.2249 -1.9242,-6.0998 -5.9451,-8.61091 -4.02091,-2.511 -8.79722,-8.47543 -10.61408,-13.25416 -1.81676,-4.77871 -6.07389,-8.68856 -9.46006,-8.68856 -3.97075,0 -5.37126,2.04674 -3.94458,5.76458 1.62401,4.23205 -0.0881,3.81394 -6.44285,-1.57268 -11.64062,-9.8684 -14.51394,-14.125 -12.77094,-18.91925 0.80647,-2.21836 -2.18363,-3.91673 -6.64491,-3.77443 -5.70233,0.18117 -7.78182,-1.70278 -7.00212,-6.34651 0.60995,-3.63289 -0.94688,-6.60525 -3.45989,-6.60525 -2.51302,0 -3.5101,-1.05885 -2.21585,-2.35298 1.29413,-1.29413 -1.76391,-7.75079 -6.79593,-14.34802 -5.03192,-6.5973 -13.42953,-21.67411 -18.66132,-33.50413 -7.64684,-17.2909 -8.41134,-21.50907 -3.89828,-21.50907 3.16229,0 5.61404,-3.41448 5.61404,-7.81849 0,-7.1077 -0.53924,-7.27924 -5.93124,-1.88721 -7.25914,7.25913 -7.1415,7.25747 -13.01263,0.18369 -3.99206,-4.81016 -3.75256,-5.35745 1.46775,-3.35419 4.69826,1.80292 5.64162,0.83893 3.82124,-3.90495 -1.32936,-3.46435 -4.71973,-5.4152 -7.53409,-4.33523 C 7.29768,716.56814 0,706.02618 0,696.00104 c 0,-3.35839 4.91828,-7.82067 10.92952,-9.91618 9.1819,-3.20085 11.33094,-6.48704 13.44011,-20.55193 1.38094,-9.20802 1.56765,-18.26739 0.41544,-20.13191 -1.1522,-1.86456 0.44287,-4.36392 3.54482,-5.55427 3.10198,-1.1902 5.63996,-6.56404 5.63996,-11.94154 0,-6.1484 -1.54072,-8.8251 -4.151,-7.21183 -2.4579,1.51908 -2.12752,-1.08452 0.80975,-6.38249 2.72848,-4.9214 5.02105,-11.65929 5.09462,-14.97314 0.073,-3.3138 2.32782,-8.66873 5.00933,-11.89982 3.98446,-4.801 3.98446,-6.23227 0,-7.83102 -3.94142,-1.58148 -3.92891,-2.01328 0.0654,-2.25434 2.71741,-0.16356 3.89106,-1.99642 2.60805,-4.07241 -1.28305,-2.07593 0.41544,-3.77443 3.77443,-3.77443 3.84079,0 5.08338,1.75084 3.34838,4.71804 -1.51732,2.59492 1.04275,1.38044 5.68902,-2.69857 7.94407,-6.97439 8.05227,-7.7058 1.81475,-12.26689 -7.83034,-5.72572 -3.91791,-6.45493 6.03976,-1.12579 8.37841,4.484 8.43649,-2.77715 0.11072,-13.72348 -4.50866,-5.92711 -4.5122,-6.27089 -0.0234,-2.26793 6.25755,5.57992 18.87895,6.28996 18.87895,1.06213 0,-2.01077 -2.37588,-2.74424 -5.27985,-1.6298 -2.90392,1.11421 -6.40116,0.21136 -7.77163,-2.00574 -2.20704,-3.57109 5.43986,-5.92007 14.27565,-4.38516 1.71133,0.29718 2.10815,-1.08275 0.88196,-3.0667 -1.22619,-1.98384 -0.4245,-4.72249 1.78128,-6.08576 2.20578,-1.36333 3.2294,-7.43492 2.27472,-13.49266 -0.96449,-6.11986 -0.20382,-10.06693 1.71259,-8.88267 1.89677,1.17209 3.44852,0.61574 3.44852,-1.23675 0,-3.72542 6.99684,-5.04224 25.4774,-4.79494 6.7468,0.0906 12.2669,-1.17183 12.2669,-2.8048 0,-1.63282 3.65018,-3.2439 8.11156,-3.57998 9.17433,-0.69097 13.444,-4.12361 15.20902,-12.22704 7.46752,-9.6399 36.59432,-21.10839 50.8225,-31.22416 13.7833,-6.77577 2.75405,-11.29506 -4.849,-18.9915 C 147.6372,364.17428 86.701364,325.20181 73.801167,222.28345 58.121999,21.816292 364.0916,-30.593099 442.69835,135.99115 c 88.02847,144.38117 68.99575,231.63091 -61.475,316.50737 -12.78707,10.62947 -30.08224,22.59838 -38.19881,29.70848 -4.45125,5.35723 -3.92662,6.86974 10.8096,20.15605 56.92225,61.65353 87.59839,92.56925 161.3612,174.98965 27.61798,32.40666 23.62531,25.33908 55.22341,-14.86842 19.40775,-29.72408 42.3165,-72.95203 56.23991,-95.94746 14.71557,-27.96566 32.44246,-55.75817 44.75922,-83.28134 29.66917,-58.74376 91.23601,-19.87994 68.35428,26.16797 -39.52071,70.45026 -67.82828,118.66643 -107.73517,187.56068 -38.67213,54.74997 -39.16054,48.39819 0.47955,85.50169 29.01434,34.86839 61.67543,68.96031 88.20759,103.87925 20.59182,43.23349 -28.68487,55.43692 -45.30222,32.9996 z M 215.14259,880.49191 c 0,-0.81578 -3.49723,-1.48335 -7.77162,-1.48335 -4.2744,0 -6.76773,1.62426 -5.54077,3.60959 2.01404,3.25884 13.31239,1.45441 13.31239,-2.12627 z m -45.29316,-3.8424 c 0,-2.85442 -1.88017,-5.18984 -4.17825,-5.18984 -2.29812,0 -3.28727,-2.32178 -2.19823,-5.15972 1.59558,-4.15821 0.2539,-4.3452 -6.91216,-0.96323 -7.50207,3.54036 -7.97269,4.71094 -3.01051,7.48789 4.42524,2.47653 4.7351,4.00011 1.25135,6.15315 -2.83408,1.75159 -0.81352,2.86167 5.20879,2.86167 5.832,0 9.83906,-2.11368 9.83906,-5.18984 z m -22.64659,-18.40034 c 0,-3.11391 -1.51682,-5.66165 -3.37062,-5.66165 -1.85375,0 -4.34827,2.54774 -5.54318,5.66165 -1.32331,3.44872 -0.006,5.66164 3.37062,5.66164 3.04873,0 5.54318,-2.54774 5.54318,-5.66164 z m 209.28163,-13.5329 c -1.21511,-1.96622 -3.81839,-2.58088 -5.78477,-1.36559 -1.96622,1.21537 -2.58088,3.81842 -1.36559,5.78477 1.21537,1.96648 3.81842,2.58088 5.78477,1.36559 1.96648,-1.21537 2.58088,-3.81839 1.36559,-5.78477 z m -235.70265,-3.67481 c 0,-1.95339 -2.49439,-3.55166 -5.54318,-3.55166 -3.36711,0 -4.69357,2.21408 -3.37892,5.63998 2.22792,5.80605 8.9221,4.23924 8.9221,-2.08827 z m 18.87216,3.9972 c 0,-2.07594 -2.54774,-3.77443 -5.66165,-3.77443 -3.1139,0 -5.66165,1.69849 -5.66165,3.77443 0,2.07594 2.54775,3.77443 5.66165,3.77443 3.11391,0 5.66165,-1.69849 5.66165,-3.77443 z m 42.64226,-23.90473 c 1.06213,-2.76794 -0.45469,-5.0326 -3.37059,-5.0326 -5.65397,0 -6.91551,3.41888 -2.78551,7.54886 3.44908,3.44913 3.94471,3.24652 6.1561,-2.51628 z M 76.00467,811.86987 c -2.72305,-0.90763 -6.74551,0.14343 -8.93883,2.33763 -2.8009,2.8009 -1.32709,3.29211 4.95095,1.65043 5.10381,-1.33464 6.81471,-3.04559 3.98788,-3.98786 z m 246.70919,-0.80119 c 1.28306,-2.07593 0.53396,-3.77443 -1.66452,-3.77443 -2.19848,0 -3.9972,1.6985 -3.9972,3.77443 0,2.07594 0.7491,3.77443 1.66452,3.77443 0.91543,0 2.7142,-1.69849 3.9972,-3.77443 z m -45.29316,-7.54886 c 1.28305,-2.07593 0.53395,-3.77443 -1.66453,-3.77443 -2.19848,0 -3.99717,1.6985 -3.99717,3.77443 0,2.07594 0.7491,3.77443 1.66452,3.77443 0.91543,0 2.7142,-1.69849 3.9972,-3.77443 z m 46.33968,-14.15411 c -2.90767,-3.55582 -1.41968,-4.71804 6.0402,-4.71804 5.44401,0 9.89822,-1.65647 9.89822,-3.68103 0,-2.36681 3.36885,-2.40028 9.43607,-0.0931 5.89891,2.24277 9.43608,2.25208 9.43608,0.0252 0,-1.95943 2.30995,-2.67614 5.13315,-1.5928 38.18641,-3.73626 49.28701,-7.30918 86.38506,-21.94349 25.92598,-10.02975 28.81456,-10.14148 19.34245,-21.40535 -42.06335,-48.84189 -107.22157,-98.00549 -192.01109,-190.24926 -15.71282,-17.33329 -16.11656,-18.62472 -39.20474,-5.40528 -7.32839,4.22474 -27.03652,13.4342 -24.96058,13.76869 2.07594,0.33441 -1.32105,4.97973 -7.54886,10.32274 -6.22781,5.343 -8.77555,8.46401 -5.66164,6.93551 3.1139,-1.52839 1.06489,1.68214 -4.55333,7.13461 -12.22757,11.86696 -15.88089,12.52021 -13.2252,2.3648 2.59132,-9.90924 -1.87614,-9.5374 -14.95814,1.24481 -5.86811,4.83651 -13.64165,9.87869 -17.27455,11.2048 -3.63289,1.32608 -6.60525,4.10965 -6.60525,6.18559 0,2.07593 -2.54774,2.79677 -5.66165,1.60187 -3.1139,-1.19499 -5.66164,-0.2924 -5.66164,2.00573 0,6.69146 14.35126,4.81582 18.56982,-2.42696 6.92616,-11.89145 4.26665,-2.31222 -5.47129,19.70695 -7.27499,16.45003 -10.99637,21.0341 -15.6316,19.25541 -5.03041,-1.93049 -5.27283,-1.35753 -1.40032,3.30837 3.78032,4.55498 3.51941,6.80653 -1.35325,11.67929 -5.57776,5.57773 -7.53656,10.86674 -6.52874,17.62833 0.22144,1.48234 -2.42067,1.61193 -5.86994,0.28836 -5.00958,-1.92244 -5.67383,-0.94562 -3.30092,4.85387 1.63383,3.99332 3.82534,10.23291 4.86992,13.8658 1.04452,3.63289 3.49983,6.60525 5.45617,6.60525 1.95641,0 2.50723,1.6985 1.22417,3.77443 -1.28305,2.07594 -0.53395,3.77443 1.66453,3.77443 2.19848,-1.5e-4 3.99719,4.03812 3.99719,8.97379 0,4.93562 2.62814,11.15505 5.84031,13.82091 4.66479,3.87145 4.85472,5.47224 0.9436,7.95325 -3.77178,2.39274 -3.81285,3.11944 -0.17865,3.16398 2.59492,0.0302 4.71804,1.9242 4.71804,4.20509 0,4.41707 15.14906,19.27383 32.33359,31.7098 5.73721,4.15187 12.88011,9.97476 15.87309,12.93973 7.0226,6.9569 24.39417,8.02564 21.82982,1.34294 -2.19798,-5.72775 3.94219,-6.56892 7.37735,-1.01079 1.30394,2.1099 4.02634,2.81283 6.04976,1.56236 2.02334,-1.2506 5.94568,-0.39254 8.71614,1.90684 3.41143,2.8312 8.10569,3.01386 14.54429,0.56591 5.22889,-1.98811 10.13784,-2.98383 10.90876,-2.21282 0.77099,0.77099 9.86266,2.25535 20.20387,3.29868 10.34118,1.04325 16.67906,1.0118 14.08413,-0.0705 -2.59492,-1.082 -4.71803,-3.78719 -4.71803,-6.01189 0,-2.25685 2.91987,-1.53745 6.60525,1.62779 10.05476,8.63491 17.69299,12.54676 14.54127,7.44713 -1.72542,-2.79167 -0.59913,-3.52104 3.19123,-2.06663 3.22175,1.23625 5.85769,3.83155 5.85769,5.76725 0,1.93578 2.37739,1.32936 5.28312,-1.34747 3.69504,-3.40393 4.12341,-6.28508 1.42497,-9.58491 z m -257.66867,0 c -1.4607,-3.63289 -3.07815,-9.153 -3.59444,-12.2669 -0.51634,-3.11391 -2.89995,-5.87397 -5.29696,-6.13345 -9.16286,-0.99192 -9.8759,-1.6225 -5.19472,-4.593 3.50028,-2.22113 2.20477,-4.25585 -4.71804,-7.41014 -5.24875,-2.39148 -9.5432,-3.58699 -9.5432,-2.65667 0,2.44457 15.21136,29.37933 19.73653,34.94737 5.70077,7.01456 11.66439,5.7075 8.61083,-1.88721 z m 63.3588,-6.48666 c -6.51736,-8.95459 -12.44312,-12.30744 -12.44312,-7.0405 0,3.42907 12.49123,15.85568 16.21755,16.13365 1.65395,0.1233 -0.0453,-3.96853 -3.77443,-9.09315 z M 41.51878,749.1945 c 0,-0.81578 -2.63596,-2.4949 -5.85769,-3.73121 -3.35894,-1.28884 -4.87399,-0.65624 -3.55166,1.48336 2.2166,3.58651 9.40935,5.30478 9.40935,2.2478 z m 46.19873,-33.81402 c 2.38494,1.47404 2.93389,0.71186 1.34219,-1.86381 -4.07035,-6.58596 -9.83549,-5.22178 -9.49853,2.24754 0.17865,3.98485 1.05634,4.72418 2.20955,1.86382 1.0513,-2.60786 3.72748,-3.6193 5.94684,-2.24755 z m 0.45937,-19.43182 c -1.19498,-3.11391 -4.74657,-5.66165 -7.89256,-5.66165 -4.65646,0 -4.84634,1.05256 -1.02136,5.66165 2.58431,3.1139 6.13597,5.66164 7.89256,5.66164 1.75662,0 2.2161,-2.54774 1.02136,-5.66164 z m 2.4095,-16.98494 c 0,-2.07594 -1.69849,-3.77443 -3.77443,-3.77443 -2.07594,0 -3.77443,1.69849 -3.77443,3.77443 0,2.07593 1.69849,3.77443 3.77443,3.77443 2.07594,0 3.77443,-1.6985 3.77443,-3.77443 z M 75.48866,641.21954 c 0,-2.07594 -1.6985,-3.77443 -3.77443,-3.77443 -2.07594,0 -3.77443,1.69849 -3.77443,3.77443 0,2.07594 1.69849,3.77443 3.77443,3.77443 2.07593,0 3.77443,-1.69849 3.77443,-3.77443 z m 49.04925,-15.07198 c 10.70811,-15.03814 6.27653,-21.50389 -7.17836,-10.47329 -8.46809,6.94231 -9.67329,9.80884 -6.37622,15.16559 2.23597,3.63288 4.39052,6.60525 4.78776,6.60525 0.39732,0 4.34233,-5.08391 8.76682,-11.29755 z m -25.3922,-65.15465 c 2.7007,-7.03795 -5.52912,-12.90885 -14.78153,-10.5447 -6.85746,1.75209 -7.29449,2.82345 -2.83082,6.93894 3.04732,2.80961 5.27859,3.20849 5.27859,0.94361 0,-2.15772 1.64515,-3.92325 3.65596,-3.92325 2.01077,0 2.67831,2.54774 1.48335,5.66165 -1.19498,3.1139 -0.47406,5.66164 1.60187,5.66164 2.07594,0 4.5926,-2.13205 5.59255,-4.73789 z m 10.62736,-52.1931 c 4.32487,-4.32489 6.78026,-8.94653 5.45642,-10.27038 -1.32382,-1.32382 -3.77839,-0.18872 -5.45456,2.52412 -1.6761,2.71212 -4.55619,4.69634 -6.40002,4.40936 -1.84394,-0.28686 -3.90161,2.11569 -4.57283,5.33928 -1.65722,7.95947 1.60439,7.36417 10.97099,-2.00246 z M 323.07039,378.9011 c 117.23459,-64.06388 60.95366,-139.37796 33.06794,-191.53219 -40.40211,-69.29098 -162.55183,-36.34922 -162.42786,22.97076 13.89558,80.85899 55.04583,116.21642 111.53699,171.6245 6.39655,7.86365 4.79798,8.13838 17.82293,-3.06315 z M 32.60499,782.76056 c -1.19499,-3.11391 -0.52742,-5.66165 1.48335,-5.66165 2.01076,0 3.65599,2.54774 3.65599,5.66165 0,3.1139 -0.66757,5.66164 -1.48335,5.66164 -0.81578,0 -2.46118,-2.54774 -3.65599,-5.66164 z M 20.17468,624.07167 c -1.2292,-3.20343 -1.39176,-6.66778 -0.36083,-7.69855 1.03067,-1.03067 2.78007,1.59029 3.88736,5.82445 2.35197,8.99419 -0.26119,10.38303 -3.52645,1.87413 z m 38.32904,-99.8596 c 1.28306,-2.07594 3.08175,-3.77443 3.9972,-3.77443 0.91542,0 1.66452,1.69849 1.66452,3.77443 0,2.07593 -1.79864,3.77443 -3.99719,3.77443 -2.19848,0 -2.94746,-1.6985 -1.66453,-3.77443 z m 78.39127,-40.35996 c 3.6724,-0.95695 8.76788,-0.89404 11.32329,0.14091 2.55542,1.03394 -0.4494,1.81701 -6.67709,1.74001 -6.22781,-0.078 -8.31859,-0.92272 -4.6462,-1.87992 z"
     id="path3605"
     inkscape:connector-curvature="0"
     sodipodi:nodetypes="ccssssscsccsccssscscssscsccccccsccsccccscscsccccscccsscccssccsssscsscsscccssscssccsscssccscccccscscscccccccccccccccccccsscccsccscsccsscssccsscsscssssssscssccccscccsssccssscccsscsccccccscssssscsssccsccccsscssccsssccccccscsccsssccscsssssscsccccscccccccccscscsssssssssssscssccssssscccsccccccccsscsscssssssscsssccsscc" />
</svg>
