<?xml version="1.0" encoding="UTF-8" standalone="no"?>
<!-- Created with Inkscape (http://www.inkscape.org/) -->

<svg
   xmlns:dc="http://purl.org/dc/elements/1.1/"
   xmlns:cc="http://creativecommons.org/ns#"
   xmlns:rdf="http://www.w3.org/1999/02/22-rdf-syntax-ns#"
   xmlns:svg="http://www.w3.org/2000/svg"
   xmlns="http://www.w3.org/2000/svg"
   xmlns:sodipodi="http://sodipodi.sourceforge.net/DTD/sodipodi-0.dtd"
   xmlns:inkscape="http://www.inkscape.org/namespaces/inkscape"
   id="svg3799"
   version="1.1"
   inkscape:version="0.92.3 (2405546, 2018-03-11)"
   width="281.80905"
   height="930"
   viewBox="0 0 281.80905 930"
   sodipodi:docname="smbl_parenleft.svg">
  <metadata
     id="metadata3805">
    <rdf:RDF>
      <cc:Work
         rdf:about="">
        <dc:format>image/svg+xml</dc:format>
        <dc:type
           rdf:resource="http://purl.org/dc/dcmitype/StillImage" />
        <dc:title />
      </cc:Work>
    </rdf:RDF>
  </metadata>
  <defs
     id="defs3803" />
  <sodipodi:namedview
     pagecolor="#ffffff"
     bordercolor="#666666"
     borderopacity="1"
     objecttolerance="10"
     gridtolerance="10"
     guidetolerance="10"
     inkscape:pageopacity="0"
     inkscape:pageshadow="2"
     inkscape:window-width="1916"
     inkscape:window-height="1041"
     id="namedview3801"
     showgrid="false"
     fit-margin-top="0"
     fit-margin-left="0"
     fit-margin-right="0"
     fit-margin-bottom="0"
     inkscape:zoom="0.43187682"
     inkscape:cx="573.47324"
     inkscape:cy="808.50991"
     inkscape:window-x="0"
     inkscape:window-y="18"
     inkscape:window-maximized="0"
     inkscape:current-layer="svg3799" />
  <path
     style="fill:#000000"
     d="M 169.11244,907.96211 C 122.67925,833.17204 78.579795,761.11241 48.519777,677.76789 29.453219,601.30021 14.392736,552.07283 7.033761,456.9231 5.527264,391.56056 11.26931,366.75648 22.099941,294.54401 c 1.12408,-7.5488 3.17498,-14.49713 4.55767,-15.44073 C 37.811342,235.3037 61.91751,180.52807 81.729349,141.68813 100.12942,103.6207 121.5121,61.556865 134.84795,34.145255 c 14.5737,-39.4353852 88.20356,-46.940731 74.46437,22.505975 -50.53048,100.91611 -47.52029,99.71051 -81.55285,164.31153 -56.236558,127.6525 -41.734654,314.73507 2.97971,446.18539 26.25864,65.58821 49.57355,94.54594 64.3923,127.90277 18.73651,30.87471 30.10466,53.71887 44.31105,73.11707 25.82664,49.62656 -31.01913,87.04073 -70.33009,39.79412 z"
     id="path3809"
     inkscape:connector-curvature="0"
     sodipodi:nodetypes="ccccccccccccc" />
</svg>
