<?xml version="1.0" encoding="UTF-8" standalone="no"?>
<!-- Created with Inkscape (http://www.inkscape.org/) -->

<svg
   xmlns:dc="http://purl.org/dc/elements/1.1/"
   xmlns:cc="http://creativecommons.org/ns#"
   xmlns:rdf="http://www.w3.org/1999/02/22-rdf-syntax-ns#"
   xmlns:svg="http://www.w3.org/2000/svg"
   xmlns="http://www.w3.org/2000/svg"
   xmlns:sodipodi="http://sodipodi.sourceforge.net/DTD/sodipodi-0.dtd"
   xmlns:inkscape="http://www.inkscape.org/namespaces/inkscape"
   id="svg3595"
   version="1.1"
   inkscape:version="0.91 r13725"
   width="791.89697"
   height="929.99988"
   viewBox="0 0 791.89697 929.99988"
   sodipodi:docname="smbl_ampersand.svg">
  <metadata
     id="metadata3601">
    <rdf:RDF>
      <cc:Work
         rdf:about="">
        <dc:format>image/svg+xml</dc:format>
        <dc:type
           rdf:resource="http://purl.org/dc/dcmitype/StillImage" />
        <dc:title></dc:title>
      </cc:Work>
    </rdf:RDF>
  </metadata>
  <defs
     id="defs3599" />
  <sodipodi:namedview
     pagecolor="#ffffff"
     bordercolor="#666666"
     borderopacity="1"
     objecttolerance="10"
     gridtolerance="10"
     guidetolerance="10"
     inkscape:pageopacity="0"
     inkscape:pageshadow="2"
     inkscape:window-width="1642"
     inkscape:window-height="1040"
     id="namedview3597"
     showgrid="false"
     fit-margin-top="0"
     fit-margin-left="0"
     fit-margin-right="0"
     fit-margin-bottom="0"
     inkscape:zoom="0.65995525"
     inkscape:cx="435.19426"
     inkscape:cy="402.36077"
     inkscape:window-x="151"
     inkscape:window-y="0"
     inkscape:window-maximized="0"
     inkscape:current-layer="svg3595" />
  <path
     style="fill:#000000"
     d="m 675.42191,919.36467 c -39.03546,-33.23796 -68.58419,-69.52079 -117.06874,-104.70749 -9.16455,-6.52569 -12.20598,-7.01916 -19.4548,-3.15648 -7.48037,3.9861 -7.98939,3.84738 -3.93399,-1.07194 3.76899,-4.57197 3.58888,-5.65055 -0.94361,-5.65055 -3.35436,0 -5.60171,3.53815 -5.60171,8.81914 0,7.23669 -1.86255,8.7214 -10.37968,8.27428 -15.19422,-0.79767 -20.48376,0.16104 -18.51056,3.35328 0.96273,1.55808 -2.50698,7.92736 -7.71071,14.15411 l -9.46139,11.32143 2.17759,-12.2669 c 1.1975,-6.74679 0.66028,-12.2669 -1.19397,-12.2669 -1.85426,0 -6.33667,-1.13786 -9.96093,-2.52864 -4.49263,-1.72391 -5.72105,-1.12352 -3.86036,1.88722 1.58954,2.57187 0.51282,4.41585 -2.57846,4.41585 -2.9192,0 -6.84106,-3.23939 -8.71524,-7.19867 -3.28433,-6.93826 -3.88162,-6.86999 -16.5116,1.88722 l -13.10399,9.08601 10.49594,0 c 6.03614,0 9.50474,-1.60388 8.16318,-3.77443 -1.28305,-2.07594 -0.53395,-3.77443 1.66453,-3.77443 2.19848,0 3.99719,3.39699 3.99719,7.54886 0,8.37065 3.89431,9.69364 10.1424,3.44555 2.86859,-2.86859 4.84584,-2.90188 6.57091,-0.11072 1.38874,2.24705 -1.66629,5.03019 -6.9876,6.36578 -5.20034,1.3052 -10.48756,5.62589 -11.7494,9.6015 -1.26192,3.97566 -3.67799,6.37325 -5.36923,5.32799 -1.6912,-1.04527 -4.93995,0.34649 -7.21933,3.09312 -4.31772,5.20255 -14.58553,5.867 -21.79635,1.41037 -2.30618,-1.42522 -9.55649,0.083 -16.11156,3.35411 -10.88186,5.42859 -12.72708,5.41576 -21.21781,-0.14846 -9.01334,-5.90577 -9.29839,-5.80786 -9.29839,3.19597 0,6.40966 -2.04725,9.2236 -6.60525,9.07916 -3.63289,-0.11575 -13.39923,0.9577 -21.70298,2.38443 -15.1143,2.59659 -19.28195,2.73231 -50.95481,1.6595 -26.38437,-0.89354 -45.2875,1.56487 -45.35096,5.89845 -0.0327,2.17055 -1.70428,1.3988 -3.71663,-1.7151 -2.01228,-3.11391 -3.68485,-4.32804 -3.71664,-2.69804 -0.0327,1.63005 -3.05431,1.36005 -6.71669,-0.60013 -7.39907,-3.95986 -21.70205,3.66165 -16.87264,8.99076 1.52462,1.68239 -0.2013,1.9924 -3.83309,0.68871 -3.63288,-1.30343 -6.60525,-0.88397 -6.60525,0.93254 0,1.81651 -3.19966,2.46596 -7.11037,1.44309 -5.00774,-1.30948 -6.51271,-4.14488 -5.08929,-9.58804 1.43655,-5.49318 0.49093,-7.21854 -3.26931,-5.96518 -7.38045,2.46017 -7.02648,20.37858 0.37115,18.79334 4.63505,-0.99318 4.77765,-0.31454 0.78634,3.74288 -3.08776,3.13901 -5.85548,3.58382 -7.54886,1.2131 -1.47027,-2.05807 -14.92226,-9.68718 -29.89307,-16.95296 -14.97078,-7.26578 -26.60508,-15.03089 -25.85402,-17.25584 0.75111,-2.2249 -1.9242,-6.0998 -5.9451,-8.61091 -4.02091,-2.511 -8.79722,-8.47543 -10.61408,-13.25416 -1.81676,-4.77871 -6.07389,-8.68856 -9.46006,-8.68856 -3.97075,0 -5.37126,2.04674 -3.94458,5.76458 1.62401,4.23205 -0.0881,3.81394 -6.44285,-1.57268 -11.64062,-9.8684 -14.51394,-14.125 -12.77094,-18.91925 0.80647,-2.21836 -2.18363,-3.91673 -6.64491,-3.77443 -5.70233,0.18117 -7.78182,-1.70278 -7.00212,-6.34651 0.60995,-3.63289 -0.94688,-6.60525 -3.45989,-6.60525 -2.51302,0 -3.5101,-1.05885 -2.21585,-2.35298 1.29413,-1.29413 -1.76391,-7.75079 -6.79593,-14.34802 -5.03192,-6.5973 -13.42953,-21.67411 -18.66132,-33.50413 -7.64684,-17.2909 -8.41134,-21.50907 -3.89828,-21.50907 3.16229,0 5.61404,-3.41448 5.61404,-7.81849 0,-7.1077 -0.53924,-7.27924 -5.93124,-1.88721 -7.25914,7.25913 -7.1415,7.25747 -13.01263,0.18369 -3.99206,-4.81016 -3.75256,-5.35745 1.46775,-3.35419 4.69826,1.80292 5.64162,0.83893 3.82124,-3.90495 -1.32936,-3.46435 -4.71973,-5.4152 -7.53409,-4.33523 C 7.29768,716.56814 0,706.02618 0,696.00104 c 0,-3.35839 4.91828,-7.82067 10.92952,-9.91618 9.1819,-3.20085 11.33094,-6.48704 13.44011,-20.55193 1.38094,-9.20802 1.56765,-18.26739 0.41544,-20.13191 -1.1522,-1.86456 0.44287,-4.36392 3.54482,-5.55427 3.10198,-1.1902 5.63996,-6.56404 5.63996,-11.94154 0,-6.1484 -1.54072,-8.8251 -4.151,-7.21183 -2.4579,1.51908 -2.12752,-1.08452 0.80975,-6.38249 2.72848,-4.9214 5.02105,-11.65929 5.09462,-14.97314 0.073,-3.3138 2.32782,-8.66873 5.00933,-11.89982 3.98446,-4.801 3.98446,-6.23227 0,-7.83102 -3.94142,-1.58148 -3.92891,-2.01328 0.0654,-2.25434 2.71741,-0.16356 3.89106,-1.99642 2.60805,-4.07241 -1.28305,-2.07593 0.41544,-3.77443 3.77443,-3.77443 3.84079,0 5.08338,1.75084 3.34838,4.71804 -1.51732,2.59492 1.04275,1.38044 5.68902,-2.69857 7.94407,-6.97439 8.05227,-7.7058 1.81475,-12.26689 -7.83034,-5.72572 -3.91791,-6.45493 6.03976,-1.12579 8.37841,4.484 8.43649,-2.77715 0.11072,-13.72348 -4.50866,-5.92711 -4.5122,-6.27089 -0.0234,-2.26793 6.25755,5.57992 18.87895,6.28996 18.87895,1.06213 0,-2.01077 -2.37588,-2.74424 -5.27985,-1.6298 -2.90392,1.11421 -6.40116,0.21136 -7.77163,-2.00574 -2.20704,-3.57109 5.43986,-5.92007 14.27565,-4.38516 1.71133,0.29718 2.10815,-1.08275 0.88196,-3.0667 -1.22619,-1.98384 -0.4245,-4.72249 1.78128,-6.08576 2.20578,-1.36333 3.2294,-7.43492 2.27472,-13.49266 -0.96449,-6.11986 -0.20382,-10.06693 1.71259,-8.88267 1.89677,1.17209 3.44852,0.61574 3.44852,-1.23675 0,-3.72542 6.99684,-5.04224 25.4774,-4.79494 6.7468,0.0906 12.2669,-1.17183 12.2669,-2.8048 0,-1.63282 3.65018,-3.2439 8.11156,-3.57998 9.17433,-0.69097 13.444,-4.12361 15.20902,-12.22704 1.7541,-8.05337 14.15862,-17.16389 30.7293,-22.56925 7.9301,-2.58682 15.3185,-7.04895 16.41865,-9.91586 1.3525,-3.52444 4.01725,-4.15703 8.2282,-1.95339 7.10175,3.71655 23.2129,-1.17687 23.2129,-7.05039 0,-2.14287 3.39699,-3.89604 7.54886,-3.89604 4.1938,0 7.54886,-2.51629 7.54886,-5.66165 0,-6.32355 -5.89352,-7.61921 -9.33421,-2.05203 -1.22694,1.98535 -4.89562,2.587 -8.15255,1.33716 -3.25693,-1.24984 -7.04115,-0.46099 -8.4094,1.75284 -1.36836,2.21383 -7.56615,5.0821 -13.77318,6.37388 l -11.28547,2.34871 11.32329,-5.17218 11.3233,-5.17213 -8.49247,-4.55896 c -9.42332,-5.05869 -11.76488,-12.86104 -2.83075,-9.43273 9.7676,3.74819 5.97316,-7.54763 -5.82148,-17.33014 -6.13992,-5.09247 -11.16346,-11.28009 -11.16346,-13.7503 0,-4.92745 -9.37035,-9.76816 -12.61935,-6.51915 -1.11874,1.11874 -0.011,5.29978 2.46168,9.29116 5.0987,8.23015 -0.92977,14.41355 -14.15406,14.51787 -7.25257,0.0579 -7.25257,0.003 0,-5.3451 6.9444,-5.12094 6.78509,-5.34497 -3.05301,-4.29344 -9.28546,0.99243 -12.11998,-1.61042 -10.87195,-9.98359 0.22143,-1.48235 -2.12576,-1.72517 -5.21466,-0.53974 -6.77475,2.59972 -7.6053,-4.62642 -0.89831,-7.81582 2.59492,-1.23398 1.07521,-1.58123 -3.37696,-0.77174 -5.69645,1.03545 -9.30692,-1.1887 -12.18583,-7.50719 -2.25006,-4.93832 -6.25053,-9.00476 -8.88996,-9.03654 -3.30691,-0.0403 -3.03867,-1.19549 0.86258,-3.71666 4.92047,-3.17983 4.85377,-3.66641 -0.50955,-3.71663 -6.7521,-0.0629 -17.03544,-13.55926 -19.00456,-24.94196 -0.68493,-3.95916 -4.33176,-9.49783 -8.1041,-12.30812 -3.77234,-2.81034 -5.94876,-7.4812 -4.83651,-10.37968 1.1122,-2.89854 0.70406,-5.27007 -0.90737,-5.27007 -9.73345,0 -20.99768,-52.54903 -13.77081,-64.24239 1.07949,-1.74655 0.41343,-4.1333 -1.48033,-5.30365 -5.46932,-3.38023 8.02258,-50.43102 15.96237,-55.66611 2.60302,-1.71636 2.61676,-4.17064 0.0428,-7.54886 -2.09808,-2.75314 -4.07236,-13.005 -4.38707,-22.7819 -0.45218,-14.04945 0.56465,-17.3399 4.85109,-15.69508 3.87569,1.48725 4.99368,-0.14972 3.91771,-5.73679 -0.82811,-4.29985 0.30095,-7.42803 2.50899,-6.9515 2.20804,0.47654 4.87194,-1.49311 5.91972,-4.37701 1.15724,-3.18531 0.24911,-4.2195 -2.31574,-2.63479 -2.76241,1.70725 -3.37394,0.40163 -1.76996,-3.778592 2.26441,-5.90114 2.79552,-5.91606 6.97812,-0.19602 4.84219,6.622072 11.37467,8.735712 7.46935,2.416772 -1.28306,-2.075942 -0.53396,-3.774432 1.66452,-3.774432 2.19848,0 3.9972,-2.4062 3.9972,-5.34711 0,-2.94091 2.12324,-6.20859 4.71804,-7.26151 3.5579,-1.44367 3.32587,-2.95186 -0.94361,-6.13357 -5.03258,-3.75037 -5.03258,-4.15199 0,-3.61458 3.1139,0.33253 9.05863,0.29569 13.2105,-0.0818 6.95376,-0.63241 6.86635,-0.96046 -1.10867,-4.16119 -7.16681,-2.87634 -7.97925,-4.74225 -4.71804,-10.83591 4.48189,-8.37447 5.24543,-15.45385 1.05105,-9.74473 -1.52512,2.07593 -6.94492,7.17142 -12.04393,11.32329 l -9.27093,7.54886 9.27093,-12.05806 c 5.09901,-6.63194 11.35042,-12.15204 13.89202,-12.2669 2.5416,-0.11475 7.25609,-5.30432 10.47661,-11.53213 3.28652,-6.35541 8.90158,-11.32329 12.79842,-11.32329 3.81862,0 11.4857,-3.57335 17.03801,-7.94078 7.8713,-6.1915803 13.03507,-7.3892403 23.4417,-5.4369403 7.69881,1.4442903 15.3832,0.81364 18.15934,-1.49035 2.64701,-2.19682 12.53843,-5.05313 21.98095,-6.34737004 14.8785,-2.03932996 17.72991,-1.30364 21.37976,5.51616004 2.84428,5.3145703 6.33722,7.0728503 10.75921,5.4159703 5.59655,-2.0969803 5.8357,-1.57709 1.64641,3.57895 -3.52172,4.33436 -3.71582,6.76499 -0.68946,8.63532 2.42318,1.49767 5.05346,-0.61566 6.19389,-4.97665 2.47452,-9.4625203 14.64673,-13.0290803 20.47973,-6.00073 5.56135,6.70102 11.37181,6.85853 8.83182,0.2393 -1.1429,-2.97844 0.83113,-5.1911303 4.8365,-5.4210503 11.37319,-0.65285 24.17249,2.9462403 22.14486,6.2270003 -1.05407,1.70552 4.92533,5.35893 13.28753,8.11871 8.36223,2.75978 16.85817,8.10854 18.87985,11.88614 2.02184,3.7776 6.24493,6.86836 9.3849,6.86836 3.14,0 10.15206,4.67086 15.58228,10.37968 5.43028,5.70883 8.497,7.83195 6.81494,4.71804 -2.32933,-4.3121 -1.96422,-4.65462 1.53141,-1.43693 2.52431,2.32359 4.9783,6.56984 5.45325,9.43608 0.47507,2.86625 2.9443,8.99474 5.48741,13.61888 4.08303,7.42411 3.84104,8.13173 -2.06863,6.04974 -5.58611,-1.96799 -5.88135,-1.48592 -1.78581,2.91576 2.69871,2.90046 6.52032,5.48587 8.49246,5.74536 8.53331,1.12279 8.9487,1.72401 3.58571,5.18984 -4.96113,3.206142 -4.92223,3.665992 0.31429,3.716632 3.28692,0.0317 5.9762,2.20825 5.9762,4.83654 0,2.6283 7.84991,16.00955 17.44429,29.73609 9.59435,13.72653 16.38833,26.01329 15.09772,27.30391 -1.2906,1.29061 -0.36486,2.34644 2.05707,2.34644 2.42192,0 4.20237,1.274 3.95653,2.83083 -1.21159,7.67346 0.92272,15.99568 5.25489,20.48977 2.64431,2.7432 4.655,7.53537 4.46812,10.64928 -0.18621,3.1139 0.96701,8.37382 2.56427,11.68868 1.64867,3.42152 1.02237,7.90869 -1.44862,10.37968 -2.394,2.394 -2.73911,4.41284 -0.76697,4.48642 1.97227,0.073 -0.25691,2.26767 -4.95374,4.87596 -7.82454,4.34525 -8.0608,5.36097 -2.82154,12.13315 4.7117,6.09035 5.31307,6.22859 3.41755,0.78559 -1.26519,-3.63289 -0.55887,-6.60525 1.56916,-6.60525 2.12827,0 6.85109,-1.14416 10.49518,-2.54249 5.07115,-1.94584 6.06777,-1.08879 4.24797,3.65355 -1.30772,3.40783 -0.7257,7.21707 1.29362,8.46494 2.01907,1.24783 2.81731,3.65041 1.77373,5.33888 -1.0435,1.68843 1.47656,7.35916 5.6001,12.60144 10.19295,12.95828 9.46766,22.00539 -4.03175,50.29084 -6.34104,13.28643 -10.55836,25.72793 -9.37183,27.64775 2.81691,4.55813 -45.23172,53.07149 -52.56275,53.07149 -3.0939,0 -8.62085,4.67086 -12.28212,10.37968 -3.66127,5.70883 -12.61749,16.95955 -19.90275,25.00153 -7.28528,8.04208 -12.82131,16.10992 -12.30232,17.92859 0.51885,1.81878 -0.75288,3.30671 -2.82652,3.30671 -6.47247,0 -34.72346,29.70398 -32.17408,33.82891 1.33086,2.15344 -0.17362,3.91542 -3.34611,3.91542 -11.41566,0 -1.38194,11.02159 16.0329,17.61136 10.05181,3.80357 24.09974,13.59238 32.76583,22.83166 8.34356,8.89538 16.83603,16.23451 18.87215,16.30916 5.30134,0.19376 27.19858,18.69514 22.15402,18.71766 -2.43677,0.0113 -3.43865,3.97334 -2.39072,9.45484 0.99217,5.18985 3.48601,9.43608 5.54207,9.43608 2.05606,0 2.79376,2.46118 1.63936,5.4694 -1.40887,3.67177 -0.28484,4.77342 3.41961,3.35182 3.72227,-1.42824 6.8512,1.70554 9.6131,9.6283 2.25208,6.46024 6.37141,11.74592 9.15412,11.74592 6.10902,0 27.13725,18.76391 28.84216,25.73644 0.66934,2.73736 7.72463,11.59293 15.67839,19.67897 7.95378,8.08609 13.52529,16.21662 12.38111,18.0679 -1.14416,1.85123 2.13909,2.55936 7.29597,1.57368 6.92543,-1.32381 8.84697,-0.41317 7.35133,3.48438 -1.1137,2.90224 0.6862,8.62503 3.99997,12.71729 3.31365,4.09231 4.92367,4.89285 3.57781,1.77902 -1.34596,-3.11391 0.22646,-2.36456 3.49452,1.66502 3.26787,4.02966 5.94155,8.70052 5.94155,10.37969 0,1.67912 2.73357,3.05303 6.07462,3.05303 4.69638,0 5.73163,-2.93761 4.56301,-12.94765 -0.83138,-7.1212 -0.33768,-12.6413 1.09685,-12.2669 1.43454,0.37442 2.8811,-1.01784 3.21438,-3.09368 0.33341,-2.07593 4.02785,-7.41688 8.21014,-11.86869 5.71864,-6.08723 6.43785,-8.81511 2.9006,-11.00131 -3.30031,-2.0397 -2.06813,-3.88193 4.13041,-6.17489 5.82282,-2.15394 10.2241,-1.75335 12.9122,1.17536 2.94534,3.20897 2.87748,3.77118 -0.24408,2.02385 -2.37738,-1.33062 -5.23221,-0.0478 -6.34406,2.84878 -1.19775,3.12123 0.9504,6.04526 5.27137,7.1752 4.01109,1.04904 6.33365,0.3553 5.16123,-1.54198 -1.17234,-1.89703 0.42475,-4.43013 3.54948,-5.62916 3.76439,-1.4446 5.21128,-5.89257 4.2885,-13.18386 -0.84698,-6.69277 0.34801,-11.02642 3.05057,-11.06158 2.90828,-0.0377 2.67872,-1.17586 -0.66455,-3.29442 -4.18249,-2.65033 -4.24145,-4.86197 -0.32586,-12.20912 4.38287,-8.22343 4.25024,-8.53369 -1.58878,-3.71656 -3.50393,2.89076 -7.35045,4.27628 -8.54778,3.07895 -2.47376,-2.47376 13.75199,-32.86864 17.54632,-32.86864 2.37689,0 12.5599,-19.62062 11.33568,-21.84135 14.71557,-27.96566 32.44246,-55.75817 44.75922,-83.28134 29.66917,-58.74376 91.23601,-19.87994 68.35428,26.16797 -3.68586,9.62483 -12.03777,22.88832 -13.56061,33.74421 -1.71561,12.93362 -3.86514,17.65271 -7.41917,16.28891 -3.06368,-1.17561 -4.93648,0.76621 -4.83034,5.00832 0.29164,11.65966 -3.62824,40.46232 -6.59348,48.44713 -3.33556,8.98196 -23.97755,36.54494 -30.40319,40.59696 -2.4881,1.56891 -7.46856,11.75997 -11.06791,22.64659 -3.5993,10.88666 -10.52651,26.12952 -15.39379,33.87302 -4.86728,7.74352 -8.8496,15.43387 -8.8496,17.08971 0,4.00203 -14.18748,16.01157 -18.91529,16.01157 -2.05228,0 -3.7313,-1.6985 -3.7313,-3.77443 0,-2.07594 1.6985,-3.77443 3.77443,-3.77443 2.07594,0 3.77443,-1.6985 3.77443,-3.77444 0,-2.07593 -2.83082,-3.77443 -6.29071,-3.77443 -3.45987,0 -5.1524,1.13837 -3.7612,2.5295 1.39126,1.39126 -0.23653,6.74956 -3.61507,11.9074 -5.30738,8.1001 -5.35947,9.07655 -0.38223,7.16659 7.8057,-2.99532 11.16313,1.08653 6.00545,7.30105 -3.25525,3.92237 -2.65169,5.06534 2.67486,5.06534 5.35008,0 5.87216,1.00651 2.34946,4.52932 -5.08574,5.08574 -6.20124,12.04722 -1.46096,9.11758 1.68768,-1.043 10.60469,5.52919 19.81576,14.60489 29.01434,34.86839 52.30027,61.19232 78.83243,96.11126 20.59182,43.23349 -28.68487,55.43692 -45.30222,32.9996 z M 215.14259,880.49191 c 0,-0.81578 -3.49723,-1.48335 -7.77162,-1.48335 -4.2744,0 -6.76773,1.62426 -5.54077,3.60959 2.01404,3.25884 13.31239,1.45441 13.31239,-2.12627 z m -45.29316,-3.8424 c 0,-2.85442 -1.88017,-5.18984 -4.17825,-5.18984 -2.29812,0 -3.28727,-2.32178 -2.19823,-5.15972 1.59558,-4.15821 0.2539,-4.3452 -6.91216,-0.96323 -7.50207,3.54036 -7.97269,4.71094 -3.01051,7.48789 4.42524,2.47653 4.7351,4.00011 1.25135,6.15315 -2.83408,1.75159 -0.81352,2.86167 5.20879,2.86167 5.832,0 9.83906,-2.11368 9.83906,-5.18984 z m -22.64659,-18.40034 c 0,-3.11391 -1.51682,-5.66165 -3.37062,-5.66165 -1.85375,0 -4.34827,2.54774 -5.54318,5.66165 -1.32331,3.44872 -0.006,5.66164 3.37062,5.66164 3.04873,0 5.54318,-2.54774 5.54318,-5.66164 z m 209.28163,-13.5329 c -1.21511,-1.96622 -3.81839,-2.58088 -5.78477,-1.36559 -1.96622,1.21537 -2.58088,3.81842 -1.36559,5.78477 1.21537,1.96648 3.81842,2.58088 5.78477,1.36559 1.96648,-1.21537 2.58088,-3.81839 1.36559,-5.78477 z m -235.70265,-3.67481 c 0,-1.95339 -2.49439,-3.55166 -5.54318,-3.55166 -3.36711,0 -4.69357,2.21408 -3.37892,5.63998 2.22792,5.80605 8.9221,4.23924 8.9221,-2.08827 z m 18.87216,3.9972 c 0,-2.07594 -2.54774,-3.77443 -5.66165,-3.77443 -3.1139,0 -5.66165,1.69849 -5.66165,3.77443 0,2.07594 2.54775,3.77443 5.66165,3.77443 3.11391,0 5.66165,-1.69849 5.66165,-3.77443 z m 42.64226,-23.90473 c 1.06213,-2.76794 -0.45469,-5.0326 -3.37059,-5.0326 -5.65397,0 -6.91551,3.41888 -2.78551,7.54886 3.44908,3.44913 3.94471,3.24652 6.1561,-2.51628 z M 76.00467,811.86987 c -2.72305,-0.90763 -6.74551,0.14343 -8.93883,2.33763 -2.8009,2.8009 -1.32709,3.29211 4.95095,1.65043 5.10381,-1.33464 6.81471,-3.04559 3.98788,-3.98786 z m 246.70919,-0.80119 c 1.28306,-2.07593 0.53396,-3.77443 -1.66452,-3.77443 -2.19848,0 -3.9972,1.6985 -3.9972,3.77443 0,2.07594 0.7491,3.77443 1.66452,3.77443 0.91543,0 2.7142,-1.69849 3.9972,-3.77443 z m -45.29316,-7.54886 c 1.28305,-2.07593 0.53395,-3.77443 -1.66453,-3.77443 -2.19848,0 -3.99717,1.6985 -3.99717,3.77443 0,2.07594 0.7491,3.77443 1.66452,3.77443 0.91543,0 2.7142,-1.69849 3.9972,-3.77443 z m 46.33968,-14.15411 c -2.90767,-3.55582 -1.41968,-4.71804 6.0402,-4.71804 5.44401,0 9.89822,-1.65647 9.89822,-3.68103 0,-2.36681 3.36885,-2.40028 9.43607,-0.0931 5.89891,2.24277 9.43608,2.25208 9.43608,0.0252 0,-1.95943 2.30995,-2.67614 5.13315,-1.5928 2.82322,1.08326 10.81548,-2.79155 17.76053,-8.61092 6.94508,-5.81939 11.39242,-8.56038 9.88302,-6.0911 -1.78631,2.9224 -0.17111,4.29583 4.62453,3.9345 4.05291,-0.30548 6.65646,-1.70781 5.78568,-3.11688 -0.87089,-1.40887 1.79688,-3.44573 5.92834,-4.52612 4.13137,-1.08049 6.77209,-0.76772 5.86821,0.69475 -0.90385,1.46246 -0.24156,4.92548 1.46926,7.69556 2.36632,3.8287 3.7122,3.14785 5.6124,-2.83908 2.16829,-6.83154 3.72252,-7.31839 11.72432,-3.67257 7.98304,3.63732 10.36934,2.90888 17.72877,-5.41163 4.67723,-5.28807 12.66231,-10.87514 17.74461,-12.41563 9.18852,-2.78521 9.19753,-2.83586 1.59784,-8.98972 -4.20353,-3.40383 -7.00466,-8.10317 -6.22472,-10.44299 0.78005,-2.33989 -1.6376,-4.00439 -5.37222,-3.69912 -4.53311,0.37065 -6.41947,-1.64993 -5.67478,-6.07819 0.61347,-3.64829 -0.7886,-9.59302 -3.11582,-13.21051 -4.01559,-6.24192 -4.12658,-6.24049 -2.17759,0.0277 1.12956,3.63289 0.30824,6.60526 -1.82506,6.60526 -2.13331,0 -2.60323,2.12299 -1.04426,4.71804 1.92596,3.20585 0.78759,3.05769 -3.55167,-0.46225 -7.46612,-6.05622 -8.47928,-15.55357 -1.66804,-15.63698 3.14536,-0.0377 2.83082,-1.27752 -0.94361,-3.71664 -3.11391,-2.01227 -4.00983,-3.68487 -1.99089,-3.71665 2.01882,-0.0302 -0.21137,-2.77594 -4.95318,-6.09815 -4.80795,-3.36762 -12.19066,-5.10763 -16.68477,-3.9324 -11.49792,3.00679 -19.50191,-4.2559 -13.21831,-11.99408 4.02596,-4.95795 3.74061,-5.4838 -1.84066,-3.39211 -3.63289,1.36156 -6.60526,0.72997 -6.60526,-1.40333 0,-2.13331 -1.69849,-2.82901 -3.77443,-1.54601 -2.07593,1.28305 -3.79561,0.95871 -3.82151,-0.72092 -0.0252,-1.67937 -7.0114,-10.55345 -15.52342,-19.72001 -8.512,-9.16651 -15.85123,-19.35747 -16.30939,-22.64658 -0.45822,-3.28907 -6.44512,-8.68107 -13.30439,-11.98219 -9.55392,-4.59798 -11.05365,-6.54612 -6.41102,-8.32765 3.3332,-1.27903 7.06427,-0.70129 8.29121,1.28406 3.35132,5.42255 10.20425,4.34732 7.0646,-1.10842 -1.57746,-2.74114 -1.2755,-3.40013 0.72092,-1.57268 1.88973,1.72995 3.43599,5.12696 3.43599,7.54886 0,2.42193 3.82161,4.94629 8.49247,5.60964 4.67086,0.66329 8.49247,-0.61046 8.49247,-2.83083 0,-2.21987 -1.73498,-4.03655 -3.85536,-4.03655 -2.12047,0 -5.79005,-4.24623 -8.1547,-9.43608 -2.36481,-5.18984 -6.67473,-9.43607 -9.57792,-9.43607 -2.90322,0 -4.22883,-1.6985 -2.94582,-3.77443 1.28305,-2.07594 0.53395,-3.77443 -1.66453,-3.77443 -2.19848,0 -4.02321,2.12299 -4.05499,4.71804 -0.0428,3.43732 -0.94688,3.3144 -3.33345,-0.45294 -2.67175,-4.21754 -3.94916,-3.96743 -6.92872,1.35679 -3.36717,6.01684 -3.84132,6.03692 -6.05937,0.25666 -1.32357,-3.44898 -0.90536,-5.34314 0.92926,-4.20925 1.83462,1.13384 4.30179,-0.45595 5.48259,-3.53314 1.18089,-3.07707 0.93404,-5.19045 -0.54805,-4.69632 -1.48235,0.49419 -6.71708,-3.1238 -11.63295,-8.03967 -7.14899,-7.14899 -9.59271,-7.90448 -12.2091,-3.77443 -2.65418,4.1897 -3.28201,4.05095 -3.32894,-0.73551 -0.0327,-3.24435 -5.15326,-10.7807 -11.38107,-16.74732 -11.45685,-10.97635 -16.34311,-11.22068 -5.39205,-0.2695 4.46231,4.46231 4.696,5.96099 0.94361,6.05127 -3.12936,0.0755 -2.25787,2.18489 2.33889,5.66165 4.02965,3.0479 5.72815,5.54169 3.77443,5.54177 -1.95365,1.2e-4 -8.6477,-5.61349 -14.87551,-12.47467 -6.22781,-6.86116 -10.88319,-11.65814 -10.34529,-10.65998 1.37843,2.55771 -24.50697,11.98835 -42.49674,15.48267 -8.30374,1.61294 -13.39923,3.20623 -11.32329,3.54072 2.07594,0.33441 -1.32105,4.97973 -7.54886,10.32274 -6.22781,5.343 -8.77555,8.46401 -5.66164,6.93551 3.1139,-1.52839 1.06489,1.68214 -4.55333,7.13461 -12.22757,11.86696 -15.88089,12.52021 -13.2252,2.3648 2.59132,-9.90924 -1.87614,-9.5374 -14.95814,1.24481 -5.86811,4.83651 -13.64165,9.87869 -17.27455,11.2048 -3.63289,1.32608 -6.60525,4.10965 -6.60525,6.18559 0,2.07593 -2.54774,2.79677 -5.66165,1.60187 -3.1139,-1.19499 -5.66164,-0.2924 -5.66164,2.00573 0,6.69146 14.35126,4.81582 18.56982,-2.42696 6.92616,-11.89145 4.26665,-2.31222 -5.47129,19.70695 -7.27499,16.45003 -10.99637,21.0341 -15.6316,19.25541 -5.03041,-1.93049 -5.27283,-1.35753 -1.40032,3.30837 3.78032,4.55498 3.51941,6.80653 -1.35325,11.67929 -5.57776,5.57773 -7.53656,10.86674 -6.52874,17.62833 0.22144,1.48234 -2.42067,1.61193 -5.86994,0.28836 -5.00958,-1.92244 -5.67383,-0.94562 -3.30092,4.85387 1.63383,3.99332 3.82534,10.23291 4.86992,13.8658 1.04452,3.63289 3.49983,6.60525 5.45617,6.60525 1.95641,0 2.50723,1.6985 1.22417,3.77443 -1.28305,2.07594 -0.53395,3.77443 1.66453,3.77443 2.19848,-1.5e-4 3.99719,4.03812 3.99719,8.97379 0,4.93562 2.62814,11.15505 5.84031,13.82091 4.66479,3.87145 4.85472,5.47224 0.9436,7.95325 -3.77178,2.39274 -3.81285,3.11944 -0.17865,3.16398 2.59492,0.0302 4.71804,1.9242 4.71804,4.20509 0,4.41707 15.14906,19.27383 32.33359,31.7098 5.73721,4.15187 12.88011,9.97476 15.87309,12.93973 7.0226,6.9569 24.39417,8.02564 21.82982,1.34294 -2.19798,-5.72775 3.94219,-6.56892 7.37735,-1.01079 1.30394,2.1099 4.02634,2.81283 6.04976,1.56236 2.02334,-1.2506 5.94568,-0.39254 8.71614,1.90684 3.41143,2.8312 8.10569,3.01386 14.54429,0.56591 5.22889,-1.98811 10.13784,-2.98383 10.90876,-2.21282 0.77099,0.77099 9.86266,2.25535 20.20387,3.29868 10.34118,1.04325 16.67906,1.0118 14.08413,-0.0705 -2.59492,-1.082 -4.71803,-3.78719 -4.71803,-6.01189 0,-2.25685 2.91987,-1.53745 6.60525,1.62779 10.05476,8.63491 17.69299,12.54676 14.54127,7.44713 -1.72542,-2.79167 -0.59913,-3.52104 3.19123,-2.06663 3.22175,1.23625 5.85769,3.83155 5.85769,5.76725 0,1.93578 2.37739,1.32936 5.28312,-1.34747 3.69504,-3.40393 4.12341,-6.28508 1.42497,-9.58491 z m 95.95632,-96.05926 c -6.42959,-6.42959 -5.61026,-10.57789 2.07594,-10.51063 5.64486,0.0503 5.78205,0.58982 0.9436,3.71666 -4.83844,3.12684 -4.70123,3.66724 0.94361,3.71663 3.63289,0.0302 6.60525,1.75637 6.60525,3.83223 0,5.11777 -5.05693,4.75656 -10.5684,-0.75489 z M 297.6986,566.67431 c -4.58334,-5.84423 -4.48788,-6.06543 0.82886,-1.91993 3.30492,2.57691 7.1265,3.5677 8.49247,2.20176 1.36584,-1.3661 2.48358,-0.502 2.48358,1.91992 0,6.46213 -5.86849,5.36759 -11.80476,-2.20175 z M 66.09171,789.36571 c -1.4607,-3.63289 -3.07815,-9.153 -3.59444,-12.2669 -0.51634,-3.11391 -2.89995,-5.87397 -5.29696,-6.13345 -9.16286,-0.99192 -9.8759,-1.6225 -5.19472,-4.593 3.50028,-2.22113 2.20477,-4.25585 -4.71804,-7.41014 -5.24875,-2.39148 -9.5432,-3.58699 -9.5432,-2.65667 0,2.44457 15.21136,29.37933 19.73653,34.94737 5.70077,7.01456 11.66439,5.7075 8.61083,-1.88721 z m 63.3588,-6.48666 c -6.51736,-8.95459 -12.44312,-12.30744 -12.44312,-7.0405 0,3.42907 12.49123,15.85568 16.21755,16.13365 1.65395,0.1233 -0.0453,-3.96853 -3.77443,-9.09315 z m 395.19536,5.54305 c 0,-2.07594 -0.7491,-3.77443 -1.66453,-3.77443 -0.91542,0 -2.71419,1.69849 -3.9972,3.77443 -1.28305,2.07594 -0.53395,3.77443 1.66453,3.77443 2.19848,0 3.9972,-1.69849 3.9972,-3.77443 z M 41.51878,749.1945 c 0,-0.81578 -2.63596,-2.4949 -5.85769,-3.73121 -3.35894,-1.28884 -4.87399,-0.65624 -3.55166,1.48336 2.2166,3.58651 9.40935,5.30478 9.40935,2.2478 z m 566.11629,-21.193 c -2.91355,-1.80066 -3.75971,-5.75138 -2.13507,-9.96895 2.53703,-6.58628 2.90332,-6.60805 6.3992,-0.38097 2.03945,3.63289 5.44356,6.60525 7.56464,6.60525 2.12098,0 1.18743,-2.66905 -2.07468,-5.93126 -7.43525,-7.43525 -7.51238,-11.52651 -0.2695,-14.30585 3.11391,-1.19498 5.66165,-4.16171 5.66165,-6.59295 0,-2.43123 2.97236,-6.75535 6.60525,-9.60919 4.91637,-3.86213 5.18064,-4.93356 1.03344,-4.19053 -8.16351,1.46272 -16.02865,9.7943 -13.34498,14.13655 1.34244,2.17206 -0.15097,2.81075 -3.53377,1.51229 -3.84954,-1.47706 -5.85781,-0.0931 -5.85781,4.0404 0,3.45851 -1.55356,5.32814 -3.45205,4.15475 -1.89854,-1.17335 -4.31228,2e-4 -5.36366,2.60805 -1.09585,2.71825 -2.0387,1.75385 -2.20956,-2.25988 -0.27024,-6.3507 -1.15396,-6.17753 -9.50852,1.86331 -7.5909,7.30602 -8.24066,9.4076 -3.69504,11.95144 3.03351,1.69774 4.53184,4.67818 3.3296,6.62342 -1.20228,1.94534 1.73448,3.11473 6.52589,2.59884 7.25318,-0.7808 8.53663,0.64191 7.66587,8.49813 l -1.04577,9.43608 6.26563,-8.90325 c 4.94677,-7.0292 5.24978,-9.53104 1.43957,-11.88594 z m -104.64885,-0.49294 c -2.29435,-2.29435 -3.18428,-6.74401 -1.9778,-9.88818 1.40258,-3.65501 0.39984,-5.11881 -2.78007,-4.05885 -2.73558,0.9119 -5.5587,5.81449 -6.27366,10.89472 -0.87793,6.238 -0.24156,7.60231 1.95994,4.20225 2.59029,-4.00055 3.77342,-3.6958 5.76106,1.48385 1.37566,3.58511 3.62195,5.39769 4.99166,4.028 1.36962,-1.36962 0.61322,-4.36752 -1.68113,-6.66179 z M 87.71751,715.38048 c 2.38494,1.47404 2.93389,0.71186 1.34219,-1.86381 -4.07035,-6.58596 -9.83549,-5.22178 -9.49853,2.24754 0.17865,3.98485 1.05634,4.72418 2.20955,1.86382 1.0513,-2.60786 3.72748,-3.6193 5.94684,-2.24755 z m 495.43203,-9.99575 c 1.28305,-2.07594 0.53395,-3.77443 -1.66453,-3.77443 -2.19848,0 -3.99719,1.69849 -3.99719,3.77443 0,2.07594 0.7491,3.77443 1.66452,3.77443 0.91543,0 2.71419,-1.69849 3.9972,-3.77443 z M 88.17688,695.94866 c -1.19498,-3.11391 -4.74657,-5.66165 -7.89256,-5.66165 -4.65646,0 -4.84634,1.05256 -1.02136,5.66165 2.58431,3.1139 6.13597,5.66164 7.89256,5.66164 1.75662,0 2.2161,-2.54774 1.02136,-5.66164 z m 512.99224,-12.985 c 1.64112,-6.27532 0.92876,-6.70734 -4.97726,-3.01897 -3.79082,2.36733 -6.05276,5.66288 -5.02656,7.32333 3.27406,5.29756 8.02776,3.25217 10.00382,-4.30436 z M 90.58638,678.96372 c 0,-2.07594 -1.69849,-3.77443 -3.77443,-3.77443 -2.07594,0 -3.77443,1.69849 -3.77443,3.77443 0,2.07593 1.69849,3.77443 3.77443,3.77443 2.07594,0 3.77443,-1.6985 3.77443,-3.77443 z m 366.11974,2.1099 c 0,-3.98383 -7.24354,-5.65754 -9.39803,-2.17155 -1.30394,2.10991 0.27704,3.836 3.51361,3.836 3.23643,0 5.88442,-0.7491 5.88442,-1.66452 z m -36.49198,-5.94221 c 2.52978,-0.0352 1.99592,-1.61747 -1.25235,-3.71663 -7.1882,-4.64539 -12.41516,-4.82025 -9.63532,-0.32233 1.17335,1.89853 0.849,4.16797 -0.72091,5.04301 -1.56992,0.87517 -0.59234,1.0201 2.17231,0.32234 2.76469,-0.69777 7.01092,-1.29463 9.43607,-1.32634 z m 171.62404,-1.71107 c 1.10314,-1.10314 -1.57419,-2.00548 -5.94961,-2.00548 -4.37532,0 -8.95001,1.60967 -10.16593,3.57713 -2.22742,3.6038 12.363,2.18086 16.11554,-1.57143 z M 390.04195,645.93735 c 0.94663,-1.55708 -2.35021,-5.8825 -7.32609,-9.61227 -4.97594,-3.72971 -9.04719,-5.00358 -9.04719,-2.83072 0,2.17282 2.12299,4.08472 4.71804,4.2486 3.34981,0.21137 3.22596,0.89127 -0.42701,2.34417 -4.34387,1.72744 -4.34387,2.55378 0,5.30587 6.38792,4.0471 9.85775,4.20346 12.08233,0.54453 z m 53.55353,-3.98909 c -1.16202,-1.16203 -4.20768,-0.002 -6.76803,2.5771 -3.69992,3.7277 -3.26639,4.16124 2.11293,2.11293 3.72241,-1.41743 5.81722,-3.52791 4.6551,-4.69003 z M 75.48866,641.21954 c 0,-2.07594 -1.6985,-3.77443 -3.77443,-3.77443 -2.07594,0 -3.77443,1.69849 -3.77443,3.77443 0,2.07594 1.69849,3.77443 3.77443,3.77443 2.07593,0 3.77443,-1.69849 3.77443,-3.77443 z m 49.04925,-15.07198 c 10.70811,-15.03814 6.27653,-21.50389 -7.17836,-10.47329 -8.46809,6.94231 -9.67329,9.80884 -6.37622,15.16559 2.23597,3.63288 4.39052,6.60525 4.78776,6.60525 0.39732,0 4.34233,-5.08391 8.76682,-11.29755 z m 507.99424,-6.63052 c -1.22015,-1.22015 0.44337,-5.16027 3.69705,-8.75554 4.22548,-4.66913 4.6845,-7.29782 1.6064,-9.20018 -5.55113,-3.4308 -16.58316,8.78944 -18.17099,20.12813 -1.10943,7.92268 -0.43431,8.35267 6.92855,4.41224 4.48676,-2.4013 7.15934,-5.36432 5.93901,-6.58465 z M 389.33256,604.29303 c -2.38745,-0.7959 -4.3406,-3.72982 -4.3406,-6.52003 0,-5.08076 -18.77437,-22.07471 -21.44118,-19.40789 -0.77904,0.77904 0.37694,6.13395 2.56903,11.89962 2.19219,5.76567 5.01285,9.4558 6.2683,8.20033 1.25537,-1.25563 5.78914,2.17507 10.07478,7.62331 5.46719,6.95044 8.30201,8.37627 9.50115,4.77878 0.94009,-2.82 -0.24408,-5.77835 -2.63148,-6.57412 z m 225.89964,1.06942 c 0,-3.11391 -0.66757,-5.66165 -1.48335,-5.66165 -0.81578,0 -2.46118,2.54774 -3.65599,5.66165 -1.19499,3.11391 -0.52742,5.66165 1.48335,5.66165 2.01076,0 3.65599,-2.54774 3.65599,-5.66165 z m 35.26719,-17.76373 c 1.19776,-4.58019 1.47681,-9.02861 0.62002,-9.88541 -2.28555,-2.28554 -13.24055,9.43781 -13.24055,14.16901 0,7.60364 10.43853,4.06066 12.62061,-4.2836 z M 99.14571,560.99291 c 2.7007,-7.03795 -5.52912,-12.90885 -14.78153,-10.5447 -6.85746,1.75209 -7.29449,2.82345 -2.83082,6.93894 3.04732,2.80961 5.27859,3.20849 5.27859,0.94361 0,-2.15772 1.64515,-3.92325 3.65596,-3.92325 2.01077,0 2.67831,2.54774 1.48335,5.66165 -1.19498,3.1139 -0.47406,5.66164 1.60187,5.66164 2.07594,0 4.5926,-2.13205 5.59255,-4.73789 z m 263.89424,-4.0831 c 3.37882,-5.27301 0.25163,-10.05116 -6.57898,-10.05116 -2.99139,0 -5.43888,-1.69849 -5.43888,-3.77443 0,-2.07594 -2.12299,-3.71794 -4.71804,-3.64887 -2.59492,0.0679 -0.8963,3.3137 3.77443,7.21027 4.67086,3.89657 8.49247,8.34957 8.49247,9.8955 0,1.54601 -3.24304,-0.1233 -7.20672,-3.71117 -3.96368,-3.58712 -12.88077,-7.34768 -19.81576,-8.35686 l -12.60904,-1.83488 13.21051,7.44046 c 7.26578,4.09224 12.74323,9.41607 12.17208,11.83072 -1.2667,5.35572 14.83897,1.05383 18.71793,-4.99961 z M 323.0913,529.49627 c -1.34319,-3.50056 -3.2916,-5.51543 -4.32957,-4.47746 -1.03797,1.03797 -0.7881,4.75133 0.55509,8.25189 1.3432,3.50056 3.29161,5.51542 4.32958,4.47746 1.03797,-1.03797 0.7881,-4.75133 -0.5551,-8.25189 z M 109.77307,508.79981 c 4.32487,-4.32489 6.78026,-8.94653 5.45642,-10.27038 -1.32382,-1.32382 -3.77839,-0.18872 -5.45456,2.52412 -1.6761,2.71212 -4.55619,4.69634 -6.40002,4.40936 -1.84394,-0.28686 -3.90161,2.11569 -4.57283,5.33928 -1.65722,7.95947 1.60439,7.36417 10.97099,-2.00246 z m 117.99009,-14.00442 c -2.09305,-8.00429 -12.62057,-12.02722 -12.62057,-4.82282 0,4.02012 11.56685,16.38191 13.51012,14.43863 0.70859,-0.70858 0.30825,-5.03562 -0.8895,-9.61581 z m 12.61553,1.57746 c -1.09585,-2.85589 -0.004,-5.13604 2.42696,-5.06702 19.80008,0.56214 28.95335,-1.61621 28.95335,-6.89085 0,-3.33107 2.6457,-5.35205 6.1765,-4.71804 3.39709,0.60994 6.60387,-1.5913 7.1262,-4.89197 0.70406,-4.44849 -1.38219,-5.5553 -8.06372,-4.27804 -4.95738,0.94764 -9.01341,3.89104 -9.01341,6.54084 0,2.6498 -2.68667,5.84878 -5.97034,7.10884 -9.34086,3.58442 -28.68799,2.68415 -26.27351,-1.22267 1.19448,-1.93251 0.44538,-4.58049 -1.66453,-5.88441 -2.1099,-1.30394 -3.83598,0.98764 -3.83598,5.09216 0,10.40633 3.87483,19.40359 8.35649,19.40359 2.07594,0 2.8778,-2.33662 1.78179,-5.19253 z m 95.54568,-4.01959 c 0,-0.91543 -1.6985,-2.7142 -3.77443,-3.9972 -2.07594,-1.28306 -3.77443,-0.53396 -3.77443,1.66452 0,2.19848 1.69849,3.9972 3.77443,3.9972 2.07593,0 3.77443,-0.7491 3.77443,-1.66452 z M 171.73664,475.14555 c 1.28306,-2.07593 0.53396,-3.77445 -1.66452,-3.77445 -2.19848,0 -3.9972,1.69849 -3.9972,3.77445 0,2.07594 0.7491,3.77443 1.66453,3.77443 0.91542,0 2.71419,-1.69849 3.99717,-3.77443 z m 15.09772,-11.3244 c 1.28306,-2.07593 0.63411,-3.77443 -1.44158,-3.77443 -2.07593,0 -4.82415,1.6985 -6.10715,3.77443 -1.28306,2.07594 -0.6341,3.77443 1.44158,3.77443 2.07594,0 4.82415,-1.69849 6.10715,-3.77443 z m 175.45322,-42.46234 c 0.0302,-3.63289 -1.35754,-6.60525 -3.08756,-6.60525 -1.72995,0 -3.14538,5.16234 -3.14538,11.47178 0,7.39634 1.09685,9.74293 3.08756,6.60525 1.69824,-2.67655 3.1136,-7.83889 3.14538,-11.47178 z m -86.7541,8.49247 c 0,-2.07594 -1.69849,-3.77443 -3.77443,-3.77443 -2.07594,0 -3.77443,1.69849 -3.77443,3.77443 0,2.07594 1.69849,3.77443 3.77443,3.77443 2.07594,0 3.77443,-1.69849 3.77443,-3.77443 z m -20.35502,-16.87571 c -0.44816,-3.05381 -2.26869,-6.87542 -4.04559,-8.49246 -1.777,-1.61697 -2.00875,-0.81704 -0.51559,1.778 1.49342,2.59493 0.81603,4.71804 -1.50474,4.71804 -2.32102,0 -3.17022,1.6985 -1.88721,3.77443 3.53075,5.71288 8.87721,4.51767 7.9532,-1.77801 z m -23.88367,-9.695 c -1.10717,-4.23423 -2.85659,-6.85522 -3.88736,-5.82442 -2.04197,2.04197 1.56488,13.52298 4.24827,13.52298 0.90888,0 0.74633,-3.46435 -0.36083,-7.69856 z m 37.26347,-3.27019 c -2.74605,-1.69723 -4.84776,-4.16974 -4.67046,-5.49456 1.71737,-12.83317 -8.73431,-13.84703 -15.10456,-1.46524 -3.60579,7.00857 -3.49709,7.66806 0.62202,3.77443 6.47657,-6.12197 11.30457,-6.04983 8.93181,0.13337 -1.1444,2.98238 1.42749,5.09923 6.67614,5.49456 5.82339,0.43859 6.95044,-0.33794 3.54497,-2.44256 z m 139.08026,-1.8379 c 0,-0.81578 -2.54774,-2.46118 -5.66164,-3.65598 -3.11388,-1.19499 -5.66163,-0.52742 -5.66163,1.48335 0,2.01076 2.54775,3.65599 5.66163,3.65599 3.1139,0 5.66164,-0.66757 5.66164,-1.48336 z M 224.37943,388.01021 c -1.21537,-1.96648 -3.81844,-2.58088 -5.78479,-1.36559 -1.96648,1.21511 -2.58088,3.81839 -1.36559,5.78477 1.21536,1.96622 3.81841,2.58088 5.78477,1.36559 1.96622,-1.21537 2.58088,-3.81842 1.36558,-5.78477 z m 98.69096,-9.10911 c 117.23459,-64.06388 60.95366,-139.37796 33.06794,-191.53219 -40.40211,-69.29098 -162.55183,-36.34922 -162.42786,22.97076 13.89558,80.85899 55.04583,116.21642 111.53699,171.6245 6.39655,7.86365 4.79798,8.13838 17.82293,-3.06315 z m 126.40925,-7.35423 c 1.89854,1.17335 3.45205,0.33467 3.45205,-1.86381 0,-2.19848 -3.39699,-3.9972 -7.54886,-3.9972 -7.65998,0 -9.80177,4.03781 -4.79665,9.04291 1.5138,1.5138 3.35723,0.93706 4.09679,-1.28155 0.73954,-2.21861 2.89806,-3.07379 4.79667,-1.9003 z m -275.85578,-5.86091 c 0,-2.07593 -1.79864,-3.77443 -3.9972,-3.77443 -2.19848,0 -2.94745,-1.69849 -1.66452,-3.77443 1.28305,-2.07594 -1.14793,-3.77443 -5.40194,-3.77443 -7.3729,0 -7.43236,0.35304 -1.27123,7.54886 6.99175,8.16581 12.33474,9.80074 12.33474,3.77443 z m 273.18336,-8.49247 c 6.586,-6.66853 10.35807,-17.92854 6.00602,-17.92854 -2.01076,0 -3.65598,-2.88744 -3.65598,-6.41653 0,-12.2365 -8.85746,1.79839 -9.95854,15.77951 -1.12604,14.2989 0.32863,15.93665 7.6085,8.56556 z M 162.30057,346.81381 c 0,-2.07594 -2.54774,-3.77443 -5.66165,-3.77443 -3.1139,0 -5.66165,1.69849 -5.66165,3.77443 0,2.07594 2.54775,3.77443 5.66165,3.77443 3.11391,0 5.66165,-1.69849 5.66165,-3.77443 z m 24.62365,-17.43427 c -3.36103,-3.36103 -7.04943,-5.17253 -8.19643,-4.02555 -3.35999,3.36004 2.38846,10.13653 8.59894,10.13653 4.9293,0 4.87435,-0.83415 -0.40261,-6.11098 z m -69.91683,-3.10233 c 0,-0.91542 -1.69849,-2.71419 -3.77443,-3.9972 -2.07593,-1.28305 -3.77443,-0.53395 -3.77443,1.66453 0,2.19848 1.6985,3.9972 3.77443,3.9972 2.07594,0 3.77443,-0.7491 3.77443,-1.66453 z m 35.8571,-12.35026 c -11.65062,-2.80234 -15.91867,-8.39985 -9.45211,-12.39636 4.32678,-2.67411 3.68291,-3.30713 -2.86238,-2.81407 -4.64469,0.34977 -8.44488,2.21056 -8.44488,4.13484 0,5.58666 12.52431,13.55584 20.75937,13.20915 7.54886,-0.31781 7.54886,-0.31781 0,-2.13356 z m 341.58593,-19.83672 c 0,-2.01077 -2.54774,-2.67829 -5.66164,-1.48335 -3.11391,1.19498 -5.66165,2.8401 -5.66165,3.65598 0,0.81579 2.54774,1.48336 5.66165,1.48336 3.1139,0 5.66164,-1.64515 5.66164,-3.65599 z m -383.19818,-7.81858 c -1.56236,-2.52779 1.38245,-3.19179 8.26973,-1.86457 5.88275,1.13358 8.57281,1.06011 5.97789,-0.16356 -2.59492,-1.22342 -4.71804,-4.07218 -4.71804,-6.33065 0,-4.51241 -11.10045,-17.91121 -14.83884,-17.91121 -1.2901,0 -1.69774,6.79397 -0.90587,15.09772 0.79188,8.30375 3.06014,15.09772 5.04053,15.09772 1.98032,0 2.50899,-1.76668 1.1746,-3.92571 z m 313.37748,-35.30774 c 1.14189,-14.01229 0.0503,-18.09731 -5.65266,-21.14929 -10.83178,-5.79697 -12.09624,-4.54031 -3.78968,3.76628 7.20229,7.20229 10.9608,25.20079 4.41812,21.15719 -2.51024,-1.55154 -2.96808,6.22321 -0.9582,16.27258 1.24682,6.23465 4.81519,-5.72239 5.98242,-20.04676 z m -251.00586,-6.05972 c -2.22214,-4.15187 -5.73852,-7.54886 -7.81446,-7.54886 -2.42771,0 -2.3331,2.69336 0.26572,7.54886 2.22214,4.15187 5.73852,7.54886 7.81446,7.54886 2.42771,0 2.3331,-2.69333 -0.26572,-7.54886 z m 296.24762,-31.13905 c -1.34244,-4.67086 -3.26996,-11.46483 -4.2831,-15.09772 -1.01331,-3.63289 -3.38408,-6.60526 -5.26877,-6.60526 -1.92647,0 -1.699,4.54381 0.51961,10.37969 2.17055,5.70882 3.82692,10.8043 3.681,11.32329 -1.28708,4.5773 0.4479,8.49247 3.76346,8.49247 2.38494,0 3.03278,-3.46503 1.58778,-8.49247 z m -50.90967,3.23466 c 0,-3.58055 -11.2983,-5.38506 -13.31236,-2.12626 -1.22695,1.98535 1.26644,3.60959 5.54073,3.60959 4.2744,0 7.77163,-0.66757 7.77163,-1.48336 z M 157.26799,205.27267 c 0,-6.27912 -4.66512,-7.57105 -7.9787,-2.20955 -1.17334,1.89854 2e-4,4.31226 2.60806,5.36367 2.60786,1.0513 4.88311,2.04574 5.05611,2.20955 0.17362,0.16356 0.31453,-2.24982 0.31453,-5.36367 z m -42.41119,-6.08778 c -1.2506,-2.02335 -0.34649,-6.00109 2.009,-8.83924 2.9704,-3.57911 3.06018,-5.91581 0.2929,-7.62601 -2.1942,-1.35602 -5.46719,1.46498 -7.27308,6.26921 -1.88445,5.01327 -1.86079,9.27435 0.0554,10.00095 1.83639,0.69626 2.2166,3.08185 0.84497,5.30122 -1.48637,2.40506 -0.70859,2.93192 1.92521,1.30394 2.43048,-1.50223 3.39601,-4.38675 2.14539,-6.41017 z m 43.26358,-20.94872 c -4.59219,-5.64383 -4.47574,-6.16764 0.92222,-4.14802 4.69346,1.75612 5.72144,0.56541 4.27782,-4.95495 -2.41212,-9.22408 -7.14331,-9.35014 -9.52209,-0.25364 -1.93477,7.39846 3.95075,21.44352 7.49894,17.89533 1.1434,-1.14365 -0.2861,-4.98597 -3.17681,-8.53872 z m 7.95462,-23.91831 c 0,-2.07594 -2.54774,-3.77443 -5.66165,-3.77443 -3.1139,0 -5.66164,1.69849 -5.66164,3.77443 0,2.07594 2.54774,3.77443 5.66164,3.77443 3.11391,0 5.66165,-1.69849 5.66165,-3.77443 z m 27.99953,-74.005212 c 8.91108,-3.4195 7.49569,-12.49885 -1.57847,-10.12589 -4.15187,1.08572 -7.54886,4.32371 -7.54886,7.1955 0,5.8963 0.76143,6.14074 9.12738,2.93039 z m 201.66248,-4.32628 c 3.01014,3.01015 4.35265,3.08021 4.35265,0.22722 0,-7.41115 -12.41805,-9.24308 -18.59863,-2.7437 -5.4572,5.73864 -5.29784,5.91601 1.97906,2.20255 5.7367,-2.92747 9.11185,-2.84108 12.2669,0.31399 z m -23.80782,-15.79026 c -2.39702,-3.87831 -24.00181,-15.33673 -28.9174,-15.33673 -5.90706,0 1.57746,11.98166 9.47893,15.17432 10.86228,4.38903 22.10873,4.48299 19.43847,0.1623 z m -57.28647,-17.22395 c -2.36707,-6.16865 -8.9138,-7.7857 -8.9138,-2.20175 0,2.8648 2.64528,4.81511 10.26125,7.56542 0.45368,0.16381 -0.1535,-2.24976 -1.34748,-5.36367 z m 17.50722,1.88722 c 0,-2.07594 -1.79865,-3.77443 -3.9972,-3.77443 -2.19848,0 -2.94745,1.69849 -1.66452,3.77443 1.28305,2.07594 3.08174,3.77443 3.99719,3.77443 0.91543,0 1.66453,-1.69849 1.66453,-3.77443 z m -33.96988,-5.66165 c -2.58432,-3.1139 -8.3124,-5.58503 -12.72906,-5.4914 -6.69577,0.14192 -6.1485,1.0319 3.29299,5.35509 14.77511,6.76541 14.93972,6.76779 9.43607,0.13638 z m -28.64664,-2.43475 c -2.45338,-3.96978 -20.42427,-4.31846 -20.41235,-0.39607 0.005,1.55695 5.04818,3.00905 11.20765,3.22688 6.15946,0.21791 10.30157,-1.05603 9.2047,-2.83081 z m -15.13823,-15.1633 c -0.97783,-1.58214 -6.01167,-0.94761 -11.18628,1.41013 -6.28715,2.86462 -7.91969,5.20682 -4.92098,7.06012 5.09538,3.14911 18.82593,-4.07132 16.10726,-8.47025 z M 32.60499,782.76056 c -1.19499,-3.11391 -0.52742,-5.66165 1.48335,-5.66165 2.01076,0 3.65599,2.54774 3.65599,5.66165 0,3.1139 -0.66757,5.66164 -1.48335,5.66164 -0.81578,0 -2.46118,-2.54774 -3.65599,-5.66164 z M 566.1646,654.42992 c 2.58433,-3.11391 6.3106,-5.66165 8.28062,-5.66165 1.97,0 1.0342,2.54774 -2.07971,5.66165 -3.1139,3.11391 -6.8402,5.66165 -8.28065,5.66165 -1.44032,0 -0.50451,-2.54774 2.07972,-5.66165 z M 20.17468,624.07167 c -1.2292,-3.20343 -1.39176,-6.66778 -0.36083,-7.69855 1.03067,-1.03067 2.78007,1.59029 3.88736,5.82445 2.35197,8.99419 -0.26119,10.38303 -3.52645,1.87413 z m 38.32904,-99.8596 c 1.28306,-2.07594 3.08175,-3.77443 3.9972,-3.77443 0.91542,0 1.66452,1.69849 1.66452,3.77443 0,2.07593 -1.79864,3.77443 -3.99719,3.77443 -2.19848,0 -2.94746,-1.6985 -1.66453,-3.77443 z m 78.39127,-40.35996 c 3.6724,-0.95695 8.76788,-0.89404 11.32329,0.14091 2.55542,1.03394 -0.4494,1.81701 -6.67709,1.74001 -6.22781,-0.078 -8.31859,-0.92272 -4.6462,-1.87992 z m 44.27773,-63.30412 c 0,-0.965 3.82161,-3.79074 8.49247,-6.2796 7.70067,-4.10326 8.00949,-3.93967 3.31226,1.75436 -4.82307,5.84674 -11.80473,8.52309 -11.80473,4.52524 z m 9.83989,-19.31364 c -3.14989,-8.20848 -2.93721,-9.12737 2.11242,-9.12737 2.42193,0 3.29757,1.1059 1.94585,2.45765 -1.35175,1.35175 0.48841,4.69469 4.08896,7.42884 5.89609,4.47723 5.93039,4.98313 0.34524,5.09125 -3.41078,0.0654 -7.23239,-2.56661 -8.49247,-5.85032 z"
     id="path3605"
     inkscape:connector-curvature="0"
     sodipodi:nodetypes="ccssssscsccsccssscscssscsccccccsccsccccscscsccccscccsscccssccsssscsscsscccssscssccsscssccscccccscscscssscssscscscccsssssscssccscscscsscsccccsssscccscsscsscsssscscssssssssscsssssscsssscssssscsssscscsscsssscsccsscssscscsssccssccssssscscccsssccscsscccccscscsssccccssscssssssssccsssccccccsscccsccscsccsscssccsscsscssssssscssccccscccsssccssscccsscscsccccccssssscccssscccsccsscsccscsscscscsscscscssccccsscsscscscscscssssscsssccsccccsscssccsssccccccscsccsssccscscsscscsccscsssssscsccsscssccscccsssccsscscscccscscccscccccsscsccccccccsssccscscccscsssssccscccsscscccscccccsccsccscssssssssscsscsssccccssccsccsscsscssccccssssscccssccscscscccssssscsccccccsscccssccssscsssccscssscssscccscsccssccssssscccssccccscccssscsccscssscccccccccssccscccscscccscssscsscscccccsscssssssssssscssscssccscssssscsssssssscscssssccscscscccsccsccccsccssccscssscscccccsscccsssssscscsccsccccsscccsscccscsscssccccccssssscsssccsscccsscccccccc" />
</svg>
