<?xml version="1.0" encoding="UTF-8" standalone="no"?>
<!-- Created with Inkscape (http://www.inkscape.org/) -->

<svg
   xmlns:dc="http://purl.org/dc/elements/1.1/"
   xmlns:cc="http://creativecommons.org/ns#"
   xmlns:rdf="http://www.w3.org/1999/02/22-rdf-syntax-ns#"
   xmlns:svg="http://www.w3.org/2000/svg"
   xmlns="http://www.w3.org/2000/svg"
   xmlns:sodipodi="http://sodipodi.sourceforge.net/DTD/sodipodi-0.dtd"
   xmlns:inkscape="http://www.inkscape.org/namespaces/inkscape"
   version="1.1"
   id="svg3836"
   width="565.51501"
   height="923.77899"
   viewBox="0 0 565.515 923.77898"
   sodipodi:docname="smbl_2.svg"
   inkscape:version="0.92.3 (2405546, 2018-03-11)">
  <metadata
     id="metadata3842">
    <rdf:RDF>
      <cc:Work
         rdf:about="">
        <dc:format>image/svg+xml</dc:format>
        <dc:type
           rdf:resource="http://purl.org/dc/dcmitype/StillImage" />
        <dc:title></dc:title>
      </cc:Work>
    </rdf:RDF>
  </metadata>
  <defs
     id="defs3840" />
  <sodipodi:namedview
     pagecolor="#ffffff"
     bordercolor="#666666"
     borderopacity="1"
     objecttolerance="10"
     gridtolerance="10"
     guidetolerance="10"
     inkscape:pageopacity="0"
     inkscape:pageshadow="2"
     inkscape:window-width="1916"
     inkscape:window-height="1041"
     id="namedview3838"
     showgrid="false"
     fit-margin-top="0"
     fit-margin-left="0"
     fit-margin-right="0"
     fit-margin-bottom="0"
     inkscape:zoom="0.33042115"
     inkscape:cx="-415.59718"
     inkscape:cy="293.68335"
     inkscape:window-x="0"
     inkscape:window-y="18"
     inkscape:window-maximized="0"
     inkscape:current-layer="svg3836"
     inkscape:measure-start="555.352,248.168"
     inkscape:measure-end="63.5553,918.525" />
  <path
     style="fill:#000000;stroke-width:4.0880971"
     d="M 40.610042,769.2321 C 144.64014,672.56832 242.93203,584.23076 344.44781,459.80747 432.32979,365.79502 472.42262,257.88771 364.19796,150.88408 297.92924,66.906462 186.28693,98.554104 105.20869,173.57971 44.002063,229.85117 -0.47959901,143.35496 26.447948,112.75897 62.041834,55.966791 180.8808,7.2462769 189.03753,6.4088169 330.5368,-14.913914 380.10501,20.609292 420.91767,59.463187 464.31627,103.91125 529.54616,185.52596 534.14153,260.6458 c 0.88682,119.08 -38.68964,181.94254 -87.06068,239.09886 -35.64035,58.43315 -95.12487,122.52003 -176.20813,197.31922 -46.10797,42.51986 -66.81769,74.72305 -89.30346,90.63412 -7.6534,10.55437 -31.99003,17.64849 -13.22282,24.39849 124.01933,-17.19266 280.82252,4.57149 349.79379,5.11428 59.90969,-0.52529 70.81648,100.7177 -13.20787,100.32208 C 350.73989,919.92123 208.04464,911.1625 93.88462,923.779 -41.100866,908.16898 -3.3877446,817.59006 40.610042,769.2321 Z"
     id="path3846"
     inkscape:connector-curvature="0"
     sodipodi:nodetypes="cccccccccccccccc" />
</svg>
