<?xml version="1.0" encoding="UTF-8" standalone="no"?>
<!-- Created with Inkscape (http://www.inkscape.org/) -->

<svg
   xmlns:dc="http://purl.org/dc/elements/1.1/"
   xmlns:cc="http://creativecommons.org/ns#"
   xmlns:rdf="http://www.w3.org/1999/02/22-rdf-syntax-ns#"
   xmlns:svg="http://www.w3.org/2000/svg"
   xmlns="http://www.w3.org/2000/svg"
   xmlns:sodipodi="http://sodipodi.sourceforge.net/DTD/sodipodi-0.dtd"
   xmlns:inkscape="http://www.inkscape.org/namespaces/inkscape"
   id="svg3595"
   version="1.1"
   inkscape:version="0.91 r13725"
   width="791.89697"
   height="929.99988"
   viewBox="0 0 791.89697 929.99988"
   sodipodi:docname="smbl_ampersand.svg">
  <metadata
     id="metadata3601">
    <rdf:RDF>
      <cc:Work
         rdf:about="">
        <dc:format>image/svg+xml</dc:format>
        <dc:type
           rdf:resource="http://purl.org/dc/dcmitype/StillImage" />
        <dc:title />
      </cc:Work>
    </rdf:RDF>
  </metadata>
  <defs
     id="defs3599" />
  <sodipodi:namedview
     pagecolor="#ffffff"
     bordercolor="#666666"
     borderopacity="1"
     objecttolerance="10"
     gridtolerance="10"
     guidetolerance="10"
     inkscape:pageopacity="0"
     inkscape:pageshadow="2"
     inkscape:window-width="1642"
     inkscape:window-height="1036"
     id="namedview3597"
     showgrid="false"
     fit-margin-top="0"
     fit-margin-left="0"
     fit-margin-right="0"
     fit-margin-bottom="0"
     inkscape:zoom="0.46665883"
     inkscape:cx="350.56561"
     inkscape:cy="826.85056"
     inkscape:window-x="151"
     inkscape:window-y="0"
     inkscape:window-maximized="0"
     inkscape:current-layer="svg3595" />
  <path
     style="fill:#000000"
     d="m 675.42191,919.36467 c -39.03546,-33.23796 -68.58419,-69.52079 -117.06874,-104.70749 -9.16455,-6.52569 -12.20598,-7.01916 -19.4548,-3.15648 -7.48037,3.9861 -7.98939,3.84738 -3.93399,-1.07194 3.76899,-4.57197 3.58888,-5.65055 -0.94361,-5.65055 -3.35436,0 -5.60171,3.53815 -5.60171,8.81914 0,7.23669 -1.86255,8.7214 -10.37968,8.27428 -15.19422,-0.79767 -20.48376,0.16104 -18.51056,3.35328 0.96273,1.55808 -2.50698,7.92736 -7.71071,14.15411 l -9.46139,11.32143 2.17759,-12.2669 c 1.1975,-6.74679 0.66028,-12.2669 -1.19397,-12.2669 -1.85426,0 -6.33667,-1.13786 -9.96093,-2.52864 -4.49263,-1.72391 -5.72105,-1.12352 -3.86036,1.88722 1.58954,2.57187 0.51282,4.41585 -2.57846,4.41585 -2.9192,0 -6.84106,-3.23939 -8.71524,-7.19867 -3.28433,-6.93826 -3.88162,-6.86999 -16.5116,1.88722 l -13.10399,9.08601 10.49594,0 c 6.03614,0 9.50474,-1.60388 8.16318,-3.77443 -1.28305,-2.07594 -0.53395,-3.77443 1.66453,-3.77443 2.19848,0 3.99719,3.39699 3.99719,7.54886 0,8.37065 3.89431,9.69364 10.1424,3.44555 2.86859,-2.86859 4.84584,-2.90188 6.57091,-0.11072 1.38874,2.24705 -1.66629,5.03019 -6.9876,6.36578 -5.20034,1.3052 -10.48756,5.62589 -11.7494,9.6015 -1.26192,3.97566 -3.67799,6.37325 -5.36923,5.32799 -1.6912,-1.04527 -4.93995,0.34649 -7.21933,3.09312 -4.31772,5.20255 -14.58553,5.867 -21.79635,1.41037 -2.30618,-1.42522 -9.55649,0.083 -16.11156,3.35411 -10.88186,5.42859 -12.72708,5.41576 -21.21781,-0.14846 -9.01334,-5.90577 -9.29839,-5.80786 -9.29839,3.19597 0,6.40966 -2.04725,9.2236 -6.60525,9.07916 -3.63289,-0.11575 -13.39923,0.9577 -21.70298,2.38443 -15.1143,2.59659 -19.28195,2.73231 -50.95481,1.6595 -26.38437,-0.89354 -45.2875,1.56487 -45.35096,5.89845 -0.0327,2.17055 -1.70428,1.3988 -3.71663,-1.7151 -2.01228,-3.11391 -3.68485,-4.32804 -3.71664,-2.69804 -0.0327,1.63005 -3.05431,1.36005 -6.71669,-0.60013 -7.39907,-3.95986 -21.70205,3.66165 -16.87264,8.99076 1.52462,1.68239 -0.2013,1.9924 -3.83309,0.68871 -3.63288,-1.30343 -6.60525,-0.88397 -6.60525,0.93254 0,1.81651 -3.19966,2.46596 -7.11037,1.44309 -5.00774,-1.30948 -6.51271,-4.14488 -5.08929,-9.58804 1.43655,-5.49318 0.49093,-7.21854 -3.26931,-5.96518 -7.38045,2.46017 -7.02648,20.37858 0.37115,18.79334 4.63505,-0.99318 4.77765,-0.31454 0.78634,3.74288 -3.08776,3.13901 -5.85548,3.58382 -7.54886,1.2131 -1.47027,-2.05807 -14.92226,-9.68718 -29.89307,-16.95296 -14.97078,-7.26578 -26.60508,-15.03089 -25.85402,-17.25584 0.75111,-2.2249 -1.9242,-6.0998 -5.9451,-8.61091 -4.02091,-2.511 -8.79722,-8.47543 -10.61408,-13.25416 -1.81676,-4.77871 -6.07389,-8.68856 -9.46006,-8.68856 -3.97075,0 -5.37126,2.04674 -3.94458,5.76458 1.62401,4.23205 -0.0881,3.81394 -6.44285,-1.57268 -11.64062,-9.8684 -14.51394,-14.125 -12.77094,-18.91925 0.80647,-2.21836 -2.18363,-3.91673 -6.64491,-3.77443 -5.70233,0.18117 -7.78182,-1.70278 -7.00212,-6.34651 0.60995,-3.63289 -0.94688,-6.60525 -3.45989,-6.60525 -2.51302,0 -3.5101,-1.05885 -2.21585,-2.35298 1.29413,-1.29413 -1.76391,-7.75079 -6.79593,-14.34802 -5.03192,-6.5973 -13.42953,-21.67411 -18.66132,-33.50413 -7.64684,-17.2909 -8.41134,-21.50907 -3.89828,-21.50907 3.16229,0 5.61404,-3.41448 5.61404,-7.81849 0,-7.1077 -0.53924,-7.27924 -5.93124,-1.88721 -7.25914,7.25913 -7.1415,7.25747 -13.01263,0.18369 -3.99206,-4.81016 -3.75256,-5.35745 1.46775,-3.35419 4.69826,1.80292 5.64162,0.83893 3.82124,-3.90495 -1.32936,-3.46435 -4.71973,-5.4152 -7.53409,-4.33523 C 7.29768,716.56814 0,706.02618 0,696.00104 c 0,-3.35839 4.91828,-7.82067 10.92952,-9.91618 9.1819,-3.20085 11.33094,-6.48704 13.44011,-20.55193 1.38094,-9.20802 1.56765,-18.26739 0.41544,-20.13191 -1.1522,-1.86456 0.44287,-4.36392 3.54482,-5.55427 3.10198,-1.1902 5.63996,-6.56404 5.63996,-11.94154 0,-6.1484 -1.54072,-8.8251 -4.151,-7.21183 -2.4579,1.51908 -2.12752,-1.08452 0.80975,-6.38249 2.72848,-4.9214 5.02105,-11.65929 5.09462,-14.97314 0.073,-3.3138 2.32782,-8.66873 5.00933,-11.89982 3.98446,-4.801 3.98446,-6.23227 0,-7.83102 -3.94142,-1.58148 -3.92891,-2.01328 0.0654,-2.25434 2.71741,-0.16356 3.89106,-1.99642 2.60805,-4.07241 -1.28305,-2.07593 0.41544,-3.77443 3.77443,-3.77443 3.84079,0 5.08338,1.75084 3.34838,4.71804 -1.51732,2.59492 1.04275,1.38044 5.68902,-2.69857 7.94407,-6.97439 8.05227,-7.7058 1.81475,-12.26689 -7.83034,-5.72572 -3.91791,-6.45493 6.03976,-1.12579 8.37841,4.484 8.43649,-2.77715 0.11072,-13.72348 -4.50866,-5.92711 -4.5122,-6.27089 -0.0234,-2.26793 6.25755,5.57992 18.87895,6.28996 18.87895,1.06213 0,-2.01077 -2.37588,-2.74424 -5.27985,-1.6298 -2.90392,1.11421 -6.40116,0.21136 -7.77163,-2.00574 -2.20704,-3.57109 5.43986,-5.92007 14.27565,-4.38516 1.71133,0.29718 2.10815,-1.08275 0.88196,-3.0667 -1.22619,-1.98384 -0.4245,-4.72249 1.78128,-6.08576 2.20578,-1.36333 3.2294,-7.43492 2.27472,-13.49266 -0.96449,-6.11986 -0.20382,-10.06693 1.71259,-8.88267 1.89677,1.17209 3.44852,0.61574 3.44852,-1.23675 0,-3.72542 6.99684,-5.04224 25.4774,-4.79494 6.7468,0.0906 12.2669,-1.17183 12.2669,-2.8048 0,-1.63282 3.65018,-3.2439 8.11156,-3.57998 9.17433,-0.69097 13.444,-4.12361 15.20902,-12.22704 7.46752,-9.6399 36.59432,-21.10839 50.8225,-31.22416 13.7833,-6.77577 2.75405,-11.29506 -4.849,-18.9915 C 147.6372,364.17428 86.701364,325.20181 73.801167,222.28345 58.121999,21.816292 364.0916,-30.593099 442.69835,135.99115 c 88.02847,144.38117 68.99575,231.63091 -61.475,316.50737 -12.78707,10.62947 -30.08224,22.59838 -38.19881,29.70848 -4.45125,5.35723 -3.92662,6.86974 10.8096,20.15605 7.98207,7.1967 32.00166,19.08354 40.66775,28.32282 8.34356,8.89538 16.83603,16.23451 18.87215,16.30916 5.30134,0.19376 27.19858,18.69514 22.15402,18.71766 -2.43677,0.0113 -3.43865,3.97334 -2.39072,9.45484 0.99217,5.18985 3.48601,9.43608 5.54207,9.43608 2.05606,0 2.79376,2.46118 1.63936,5.4694 -1.40887,3.67177 -0.28484,4.77342 3.41961,3.35182 3.72227,-1.42824 6.8512,1.70554 9.6131,9.6283 2.25208,6.46024 6.37141,11.74592 9.15412,11.74592 6.10902,0 27.13725,18.76391 28.84216,25.73644 0.66934,2.73736 7.72463,11.59293 15.67839,19.67897 7.95378,8.08609 13.52529,16.21662 12.38111,18.0679 -1.14416,1.85123 2.13909,2.55936 7.29597,1.57368 6.92543,-1.32381 8.84697,-0.41317 7.35133,3.48438 -1.1137,2.90224 0.6862,8.62503 3.99997,12.71729 3.31365,4.09231 4.92367,4.89285 3.57781,1.77902 -1.34596,-3.11391 0.22646,-2.36456 3.49452,1.66502 3.26787,4.02966 5.94155,8.70052 5.94155,10.37969 0,1.67912 2.73357,3.05303 6.07462,3.05303 4.69638,0 5.73163,-2.93761 4.56301,-12.94765 -0.83138,-7.1212 -0.33768,-12.6413 1.09685,-12.2669 1.43454,0.37442 2.8811,-1.01784 3.21438,-3.09368 0.33341,-2.07593 4.02785,-7.41688 8.21014,-11.86869 5.71864,-6.08723 6.43785,-8.81511 2.9006,-11.00131 -3.30031,-2.0397 -2.06813,-3.88193 4.13041,-6.17489 5.82282,-2.15394 10.2241,-1.75335 12.9122,1.17536 2.94534,3.20897 2.87748,3.77118 -0.24408,2.02385 -2.37738,-1.33062 -5.23221,-0.0478 -6.34406,2.84878 -1.19775,3.12123 0.9504,6.04526 5.27137,7.1752 4.01109,1.04904 6.33365,0.3553 5.16123,-1.54198 -1.17234,-1.89703 0.42475,-4.43013 3.54948,-5.62916 3.76439,-1.4446 5.21128,-5.89257 4.2885,-13.18386 -0.84698,-6.69277 0.34801,-11.02642 3.05057,-11.06158 2.90828,-0.0377 2.67872,-1.17586 -0.66455,-3.29442 -4.18249,-2.65033 -4.24145,-4.86197 -0.32586,-12.20912 4.38287,-8.22343 4.25024,-8.53369 -1.58878,-3.71656 -3.50393,2.89076 -7.35045,4.27628 -8.54778,3.07895 -2.47376,-2.47376 13.75199,-32.86864 17.54632,-32.86864 2.37689,0 12.5599,-19.62062 11.33568,-21.84135 14.71557,-27.96566 32.44246,-55.75817 44.75922,-83.28134 29.66917,-58.74376 91.23601,-19.87994 68.35428,26.16797 -3.68586,9.62483 -12.03777,22.88832 -13.56061,33.74421 -1.71561,12.93362 -3.86514,17.65271 -7.41917,16.28891 -3.06368,-1.17561 -4.93648,0.76621 -4.83034,5.00832 0.29164,11.65966 -3.62824,40.46232 -6.59348,48.44713 -3.33556,8.98196 -23.97755,36.54494 -30.40319,40.59696 -2.4881,1.56891 -7.46856,11.75997 -11.06791,22.64659 -3.5993,10.88666 -10.52651,26.12952 -15.39379,33.87302 -4.86728,7.74352 -8.8496,15.43387 -8.8496,17.08971 0,4.00203 -14.18748,16.01157 -18.91529,16.01157 -2.05228,0 -3.7313,-1.6985 -3.7313,-3.77443 0,-2.07594 1.6985,-3.77443 3.77443,-3.77443 2.07594,0 3.77443,-1.6985 3.77443,-3.77444 0,-2.07593 -2.83082,-3.77443 -6.29071,-3.77443 -3.45987,0 -5.1524,1.13837 -3.7612,2.5295 1.39126,1.39126 -0.23653,6.74956 -3.61507,11.9074 -5.30738,8.1001 -5.35947,9.07655 -0.38223,7.16659 7.8057,-2.99532 11.16313,1.08653 6.00545,7.30105 -3.25525,3.92237 -2.65169,5.06534 2.67486,5.06534 5.35008,0 5.87216,1.00651 2.34946,4.52932 -5.08574,5.08574 -6.20124,12.04722 -1.46096,9.11758 1.68768,-1.043 10.60469,5.52919 19.81576,14.60489 29.01434,34.86839 52.30027,61.19232 78.83243,96.11126 20.59182,43.23349 -28.68487,55.43692 -45.30222,32.9996 z M 215.14259,880.49191 c 0,-0.81578 -3.49723,-1.48335 -7.77162,-1.48335 -4.2744,0 -6.76773,1.62426 -5.54077,3.60959 2.01404,3.25884 13.31239,1.45441 13.31239,-2.12627 z m -45.29316,-3.8424 c 0,-2.85442 -1.88017,-5.18984 -4.17825,-5.18984 -2.29812,0 -3.28727,-2.32178 -2.19823,-5.15972 1.59558,-4.15821 0.2539,-4.3452 -6.91216,-0.96323 -7.50207,3.54036 -7.97269,4.71094 -3.01051,7.48789 4.42524,2.47653 4.7351,4.00011 1.25135,6.15315 -2.83408,1.75159 -0.81352,2.86167 5.20879,2.86167 5.832,0 9.83906,-2.11368 9.83906,-5.18984 z m -22.64659,-18.40034 c 0,-3.11391 -1.51682,-5.66165 -3.37062,-5.66165 -1.85375,0 -4.34827,2.54774 -5.54318,5.66165 -1.32331,3.44872 -0.006,5.66164 3.37062,5.66164 3.04873,0 5.54318,-2.54774 5.54318,-5.66164 z m 209.28163,-13.5329 c -1.21511,-1.96622 -3.81839,-2.58088 -5.78477,-1.36559 -1.96622,1.21537 -2.58088,3.81842 -1.36559,5.78477 1.21537,1.96648 3.81842,2.58088 5.78477,1.36559 1.96648,-1.21537 2.58088,-3.81839 1.36559,-5.78477 z m -235.70265,-3.67481 c 0,-1.95339 -2.49439,-3.55166 -5.54318,-3.55166 -3.36711,0 -4.69357,2.21408 -3.37892,5.63998 2.22792,5.80605 8.9221,4.23924 8.9221,-2.08827 z m 18.87216,3.9972 c 0,-2.07594 -2.54774,-3.77443 -5.66165,-3.77443 -3.1139,0 -5.66165,1.69849 -5.66165,3.77443 0,2.07594 2.54775,3.77443 5.66165,3.77443 3.11391,0 5.66165,-1.69849 5.66165,-3.77443 z m 42.64226,-23.90473 c 1.06213,-2.76794 -0.45469,-5.0326 -3.37059,-5.0326 -5.65397,0 -6.91551,3.41888 -2.78551,7.54886 3.44908,3.44913 3.94471,3.24652 6.1561,-2.51628 z M 76.00467,811.86987 c -2.72305,-0.90763 -6.74551,0.14343 -8.93883,2.33763 -2.8009,2.8009 -1.32709,3.29211 4.95095,1.65043 5.10381,-1.33464 6.81471,-3.04559 3.98788,-3.98786 z m 246.70919,-0.80119 c 1.28306,-2.07593 0.53396,-3.77443 -1.66452,-3.77443 -2.19848,0 -3.9972,1.6985 -3.9972,3.77443 0,2.07594 0.7491,3.77443 1.66452,3.77443 0.91543,0 2.7142,-1.69849 3.9972,-3.77443 z m -45.29316,-7.54886 c 1.28305,-2.07593 0.53395,-3.77443 -1.66453,-3.77443 -2.19848,0 -3.99717,1.6985 -3.99717,3.77443 0,2.07594 0.7491,3.77443 1.66452,3.77443 0.91543,0 2.7142,-1.69849 3.9972,-3.77443 z m 46.33968,-14.15411 c -2.90767,-3.55582 -1.41968,-4.71804 6.0402,-4.71804 5.44401,0 9.89822,-1.65647 9.89822,-3.68103 0,-2.36681 3.36885,-2.40028 9.43607,-0.0931 5.89891,2.24277 9.43608,2.25208 9.43608,0.0252 0,-1.95943 2.30995,-2.67614 5.13315,-1.5928 2.82322,1.08326 10.81548,-2.79155 17.76053,-8.61092 6.94508,-5.81939 11.39242,-8.56038 9.88302,-6.0911 -1.78631,2.9224 -0.17111,4.29583 4.62453,3.9345 4.05291,-0.30548 6.65646,-1.70781 5.78568,-3.11688 -0.87089,-1.40887 1.79688,-3.44573 5.92834,-4.52612 4.13137,-1.08049 6.77209,-0.76772 5.86821,0.69475 -0.90385,1.46246 -0.24156,4.92548 1.46926,7.69556 2.36632,3.8287 3.7122,3.14785 5.6124,-2.83908 2.16829,-6.83154 3.72252,-7.31839 11.72432,-3.67257 7.98304,3.63732 10.36934,2.90888 17.72877,-5.41163 4.67723,-5.28807 12.66231,-10.87514 17.74461,-12.41563 9.18852,-2.78521 9.19753,-2.83586 1.59784,-8.98972 -4.20353,-3.40383 -7.00466,-8.10317 -6.22472,-10.44299 0.78005,-2.33989 -1.6376,-4.00439 -5.37222,-3.69912 -4.53311,0.37065 -6.41947,-1.64993 -5.67478,-6.07819 0.61347,-3.64829 -0.7886,-9.59302 -3.11582,-13.21051 -4.01559,-6.24192 -4.12658,-6.24049 -2.17759,0.0277 1.12956,3.63289 0.30824,6.60526 -1.82506,6.60526 -2.13331,0 -2.60323,2.12299 -1.04426,4.71804 1.92596,3.20585 0.78759,3.05769 -3.55167,-0.46225 -7.46612,-6.05622 -8.47928,-15.55357 -1.66804,-15.63698 3.14536,-0.0377 2.83082,-1.27752 -0.94361,-3.71664 -3.11391,-2.01227 -4.00983,-3.68487 -1.99089,-3.71665 2.01882,-0.0302 -0.21137,-2.77594 -4.95318,-6.09815 -4.80795,-3.36762 -12.19066,-5.10763 -16.68477,-3.9324 -11.49792,3.00679 -19.50191,-4.2559 -13.21831,-11.99408 4.02596,-4.95795 3.74061,-5.4838 -1.84066,-3.39211 -3.63289,1.36156 -6.60526,0.72997 -6.60526,-1.40333 0,-2.13331 -1.69849,-2.82901 -3.77443,-1.54601 -2.07593,1.28305 -3.79561,0.95871 -3.82151,-0.72092 -0.0252,-1.67937 -7.0114,-10.55345 -15.52342,-19.72001 -8.512,-9.16651 -15.85123,-19.35747 -16.30939,-22.64658 -0.45822,-3.28907 -6.44512,-8.68107 -13.30439,-11.98219 -9.55392,-4.59798 -11.05365,-6.54612 -6.41102,-8.32765 3.3332,-1.27903 7.06427,-0.70129 8.29121,1.28406 3.35132,5.42255 10.20425,4.34732 7.0646,-1.10842 -1.57746,-2.74114 -1.2755,-3.40013 0.72092,-1.57268 1.88973,1.72995 3.43599,5.12696 3.43599,7.54886 0,2.42193 3.82161,4.94629 8.49247,5.60964 4.67086,0.66329 8.49247,-0.61046 8.49247,-2.83083 0,-2.21987 -1.73498,-4.03655 -3.85536,-4.03655 -2.12047,0 -5.79005,-4.24623 -8.1547,-9.43608 -2.36481,-5.18984 -6.67473,-9.43607 -9.57792,-9.43607 -2.90322,0 -4.22883,-1.6985 -2.94582,-3.77443 1.28305,-2.07594 0.53395,-3.77443 -1.66453,-3.77443 -2.19848,0 -4.02321,2.12299 -4.05499,4.71804 -0.0428,3.43732 -0.94688,3.3144 -3.33345,-0.45294 -2.67175,-4.21754 -3.94916,-3.96743 -6.92872,1.35679 -3.36717,6.01684 -3.84132,6.03692 -6.05937,0.25666 -1.32357,-3.44898 -0.90536,-5.34314 0.92926,-4.20925 1.83462,1.13384 4.30179,-0.45595 5.48259,-3.53314 1.18089,-3.07707 0.93404,-5.19045 -0.54805,-4.69632 -1.48235,0.49419 -6.71708,-3.1238 -11.63295,-8.03967 -7.14899,-7.14899 -9.59271,-7.90448 -12.2091,-3.77443 -2.65418,4.1897 -3.28201,4.05095 -3.32894,-0.73551 -0.0327,-3.24435 -5.15326,-10.7807 -11.38107,-16.74732 -11.45685,-10.97635 -16.34311,-11.22068 -5.39205,-0.2695 4.46231,4.46231 4.696,5.96099 0.94361,6.05127 -3.12936,0.0755 -2.25787,2.18489 2.33889,5.66165 4.02965,3.0479 5.72815,5.54169 3.77443,5.54177 -1.95365,1.2e-4 -8.6477,-5.61349 -14.87551,-12.47467 -6.22781,-6.86116 -10.88319,-11.65814 -10.34529,-10.65998 1.37843,2.55771 -24.50697,11.98835 -42.49674,15.48267 -8.30374,1.61294 -13.39923,3.20623 -11.32329,3.54072 2.07594,0.33441 -1.32105,4.97973 -7.54886,10.32274 -6.22781,5.343 -8.77555,8.46401 -5.66164,6.93551 3.1139,-1.52839 1.06489,1.68214 -4.55333,7.13461 -12.22757,11.86696 -15.88089,12.52021 -13.2252,2.3648 2.59132,-9.90924 -1.87614,-9.5374 -14.95814,1.24481 -5.86811,4.83651 -13.64165,9.87869 -17.27455,11.2048 -3.63289,1.32608 -6.60525,4.10965 -6.60525,6.18559 0,2.07593 -2.54774,2.79677 -5.66165,1.60187 -3.1139,-1.19499 -5.66164,-0.2924 -5.66164,2.00573 0,6.69146 14.35126,4.81582 18.56982,-2.42696 6.92616,-11.89145 4.26665,-2.31222 -5.47129,19.70695 -7.27499,16.45003 -10.99637,21.0341 -15.6316,19.25541 -5.03041,-1.93049 -5.27283,-1.35753 -1.40032,3.30837 3.78032,4.55498 3.51941,6.80653 -1.35325,11.67929 -5.57776,5.57773 -7.53656,10.86674 -6.52874,17.62833 0.22144,1.48234 -2.42067,1.61193 -5.86994,0.28836 -5.00958,-1.92244 -5.67383,-0.94562 -3.30092,4.85387 1.63383,3.99332 3.82534,10.23291 4.86992,13.8658 1.04452,3.63289 3.49983,6.60525 5.45617,6.60525 1.95641,0 2.50723,1.6985 1.22417,3.77443 -1.28305,2.07594 -0.53395,3.77443 1.66453,3.77443 2.19848,-1.5e-4 3.99719,4.03812 3.99719,8.97379 0,4.93562 2.62814,11.15505 5.84031,13.82091 4.66479,3.87145 4.85472,5.47224 0.9436,7.95325 -3.77178,2.39274 -3.81285,3.11944 -0.17865,3.16398 2.59492,0.0302 4.71804,1.9242 4.71804,4.20509 0,4.41707 15.14906,19.27383 32.33359,31.7098 5.73721,4.15187 12.88011,9.97476 15.87309,12.93973 7.0226,6.9569 24.39417,8.02564 21.82982,1.34294 -2.19798,-5.72775 3.94219,-6.56892 7.37735,-1.01079 1.30394,2.1099 4.02634,2.81283 6.04976,1.56236 2.02334,-1.2506 5.94568,-0.39254 8.71614,1.90684 3.41143,2.8312 8.10569,3.01386 14.54429,0.56591 5.22889,-1.98811 10.13784,-2.98383 10.90876,-2.21282 0.77099,0.77099 9.86266,2.25535 20.20387,3.29868 10.34118,1.04325 16.67906,1.0118 14.08413,-0.0705 -2.59492,-1.082 -4.71803,-3.78719 -4.71803,-6.01189 0,-2.25685 2.91987,-1.53745 6.60525,1.62779 10.05476,8.63491 17.69299,12.54676 14.54127,7.44713 -1.72542,-2.79167 -0.59913,-3.52104 3.19123,-2.06663 3.22175,1.23625 5.85769,3.83155 5.85769,5.76725 0,1.93578 2.37739,1.32936 5.28312,-1.34747 3.69504,-3.40393 4.12341,-6.28508 1.42497,-9.58491 z m 95.95632,-96.05926 c -6.42959,-6.42959 -5.61026,-10.57789 2.07594,-10.51063 5.64486,0.0503 5.78205,0.58982 0.9436,3.71666 -4.83844,3.12684 -4.70123,3.66724 0.94361,3.71663 3.63289,0.0302 6.60525,1.75637 6.60525,3.83223 0,5.11777 -5.05693,4.75656 -10.5684,-0.75489 z M 297.6986,566.67431 c -4.58334,-5.84423 -4.48788,-6.06543 0.82886,-1.91993 3.30492,2.57691 7.1265,3.5677 8.49247,2.20176 1.36584,-1.3661 2.48358,-0.502 2.48358,1.91992 0,6.46213 -5.86849,5.36759 -11.80476,-2.20175 z M 66.09171,789.36571 c -1.4607,-3.63289 -3.07815,-9.153 -3.59444,-12.2669 -0.51634,-3.11391 -2.89995,-5.87397 -5.29696,-6.13345 -9.16286,-0.99192 -9.8759,-1.6225 -5.19472,-4.593 3.50028,-2.22113 2.20477,-4.25585 -4.71804,-7.41014 -5.24875,-2.39148 -9.5432,-3.58699 -9.5432,-2.65667 0,2.44457 15.21136,29.37933 19.73653,34.94737 5.70077,7.01456 11.66439,5.7075 8.61083,-1.88721 z m 63.3588,-6.48666 c -6.51736,-8.95459 -12.44312,-12.30744 -12.44312,-7.0405 0,3.42907 12.49123,15.85568 16.21755,16.13365 1.65395,0.1233 -0.0453,-3.96853 -3.77443,-9.09315 z m 395.19536,5.54305 c 0,-2.07594 -0.7491,-3.77443 -1.66453,-3.77443 -0.91542,0 -2.71419,1.69849 -3.9972,3.77443 -1.28305,2.07594 -0.53395,3.77443 1.66453,3.77443 2.19848,0 3.9972,-1.69849 3.9972,-3.77443 z M 41.51878,749.1945 c 0,-0.81578 -2.63596,-2.4949 -5.85769,-3.73121 -3.35894,-1.28884 -4.87399,-0.65624 -3.55166,1.48336 2.2166,3.58651 9.40935,5.30478 9.40935,2.2478 z m 566.11629,-21.193 c -2.91355,-1.80066 -3.75971,-5.75138 -2.13507,-9.96895 2.53703,-6.58628 2.90332,-6.60805 6.3992,-0.38097 2.03945,3.63289 5.44356,6.60525 7.56464,6.60525 2.12098,0 1.18743,-2.66905 -2.07468,-5.93126 -7.43525,-7.43525 -7.51238,-11.52651 -0.2695,-14.30585 3.11391,-1.19498 5.66165,-4.16171 5.66165,-6.59295 0,-2.43123 2.97236,-6.75535 6.60525,-9.60919 4.91637,-3.86213 5.18064,-4.93356 1.03344,-4.19053 -8.16351,1.46272 -16.02865,9.7943 -13.34498,14.13655 1.34244,2.17206 -0.15097,2.81075 -3.53377,1.51229 -3.84954,-1.47706 -5.85781,-0.0931 -5.85781,4.0404 0,3.45851 -1.55356,5.32814 -3.45205,4.15475 -1.89854,-1.17335 -4.31228,2e-4 -5.36366,2.60805 -1.09585,2.71825 -2.0387,1.75385 -2.20956,-2.25988 -0.27024,-6.3507 -1.15396,-6.17753 -9.50852,1.86331 -7.5909,7.30602 -8.24066,9.4076 -3.69504,11.95144 3.03351,1.69774 4.53184,4.67818 3.3296,6.62342 -1.20228,1.94534 1.73448,3.11473 6.52589,2.59884 7.25318,-0.7808 8.53663,0.64191 7.66587,8.49813 l -1.04577,9.43608 6.26563,-8.90325 c 4.94677,-7.0292 5.24978,-9.53104 1.43957,-11.88594 z m -104.64885,-0.49294 c -2.29435,-2.29435 -3.18428,-6.74401 -1.9778,-9.88818 1.40258,-3.65501 0.39984,-5.11881 -2.78007,-4.05885 -2.73558,0.9119 -5.5587,5.81449 -6.27366,10.89472 -0.87793,6.238 -0.24156,7.60231 1.95994,4.20225 2.59029,-4.00055 3.77342,-3.6958 5.76106,1.48385 1.37566,3.58511 3.62195,5.39769 4.99166,4.028 1.36962,-1.36962 0.61322,-4.36752 -1.68113,-6.66179 z M 87.71751,715.38048 c 2.38494,1.47404 2.93389,0.71186 1.34219,-1.86381 -4.07035,-6.58596 -9.83549,-5.22178 -9.49853,2.24754 0.17865,3.98485 1.05634,4.72418 2.20955,1.86382 1.0513,-2.60786 3.72748,-3.6193 5.94684,-2.24755 z m 495.43203,-9.99575 c 1.28305,-2.07594 0.53395,-3.77443 -1.66453,-3.77443 -2.19848,0 -3.99719,1.69849 -3.99719,3.77443 0,2.07594 0.7491,3.77443 1.66452,3.77443 0.91543,0 2.71419,-1.69849 3.9972,-3.77443 z M 88.17688,695.94866 c -1.19498,-3.11391 -4.74657,-5.66165 -7.89256,-5.66165 -4.65646,0 -4.84634,1.05256 -1.02136,5.66165 2.58431,3.1139 6.13597,5.66164 7.89256,5.66164 1.75662,0 2.2161,-2.54774 1.02136,-5.66164 z m 512.99224,-12.985 c 1.64112,-6.27532 0.92876,-6.70734 -4.97726,-3.01897 -3.79082,2.36733 -6.05276,5.66288 -5.02656,7.32333 3.27406,5.29756 8.02776,3.25217 10.00382,-4.30436 z M 90.58638,678.96372 c 0,-2.07594 -1.69849,-3.77443 -3.77443,-3.77443 -2.07594,0 -3.77443,1.69849 -3.77443,3.77443 0,2.07593 1.69849,3.77443 3.77443,3.77443 2.07594,0 3.77443,-1.6985 3.77443,-3.77443 z m 366.11974,2.1099 c 0,-3.98383 -7.24354,-5.65754 -9.39803,-2.17155 -1.30394,2.10991 0.27704,3.836 3.51361,3.836 3.23643,0 5.88442,-0.7491 5.88442,-1.66452 z m -36.49198,-5.94221 c 2.52978,-0.0352 1.99592,-1.61747 -1.25235,-3.71663 -7.1882,-4.64539 -12.41516,-4.82025 -9.63532,-0.32233 1.17335,1.89853 0.849,4.16797 -0.72091,5.04301 -1.56992,0.87517 -0.59234,1.0201 2.17231,0.32234 2.76469,-0.69777 7.01092,-1.29463 9.43607,-1.32634 z m 171.62404,-1.71107 c 1.10314,-1.10314 -1.57419,-2.00548 -5.94961,-2.00548 -4.37532,0 -8.95001,1.60967 -10.16593,3.57713 -2.22742,3.6038 12.363,2.18086 16.11554,-1.57143 z M 390.04195,645.93735 c 0.94663,-1.55708 -2.35021,-5.8825 -7.32609,-9.61227 -4.97594,-3.72971 -9.04719,-5.00358 -9.04719,-2.83072 0,2.17282 2.12299,4.08472 4.71804,4.2486 3.34981,0.21137 3.22596,0.89127 -0.42701,2.34417 -4.34387,1.72744 -4.34387,2.55378 0,5.30587 6.38792,4.0471 9.85775,4.20346 12.08233,0.54453 z m 53.55353,-3.98909 c -1.16202,-1.16203 -4.20768,-0.002 -6.76803,2.5771 -3.69992,3.7277 -3.26639,4.16124 2.11293,2.11293 3.72241,-1.41743 5.81722,-3.52791 4.6551,-4.69003 z M 75.48866,641.21954 c 0,-2.07594 -1.6985,-3.77443 -3.77443,-3.77443 -2.07594,0 -3.77443,1.69849 -3.77443,3.77443 0,2.07594 1.69849,3.77443 3.77443,3.77443 2.07593,0 3.77443,-1.69849 3.77443,-3.77443 z m 49.04925,-15.07198 c 10.70811,-15.03814 6.27653,-21.50389 -7.17836,-10.47329 -8.46809,6.94231 -9.67329,9.80884 -6.37622,15.16559 2.23597,3.63288 4.39052,6.60525 4.78776,6.60525 0.39732,0 4.34233,-5.08391 8.76682,-11.29755 z m 507.99424,-6.63052 c -1.22015,-1.22015 0.44337,-5.16027 3.69705,-8.75554 4.22548,-4.66913 4.6845,-7.29782 1.6064,-9.20018 -5.55113,-3.4308 -16.58316,8.78944 -18.17099,20.12813 -1.10943,7.92268 -0.43431,8.35267 6.92855,4.41224 4.48676,-2.4013 7.15934,-5.36432 5.93901,-6.58465 z M 389.33256,604.29303 c -2.38745,-0.7959 -4.3406,-3.72982 -4.3406,-6.52003 0,-5.08076 -18.77437,-22.07471 -21.44118,-19.40789 -0.77904,0.77904 0.37694,6.13395 2.56903,11.89962 2.19219,5.76567 5.01285,9.4558 6.2683,8.20033 1.25537,-1.25563 5.78914,2.17507 10.07478,7.62331 5.46719,6.95044 8.30201,8.37627 9.50115,4.77878 0.94009,-2.82 -0.24408,-5.77835 -2.63148,-6.57412 z m 225.89964,1.06942 c 0,-3.11391 -0.66757,-5.66165 -1.48335,-5.66165 -0.81578,0 -2.46118,2.54774 -3.65599,5.66165 -1.19499,3.11391 -0.52742,5.66165 1.48335,5.66165 2.01076,0 3.65599,-2.54774 3.65599,-5.66165 z m 35.26719,-17.76373 c 1.19776,-4.58019 1.47681,-9.02861 0.62002,-9.88541 -2.28555,-2.28554 -13.24055,9.43781 -13.24055,14.16901 0,7.60364 10.43853,4.06066 12.62061,-4.2836 z M 99.14571,560.99291 c 2.7007,-7.03795 -5.52912,-12.90885 -14.78153,-10.5447 -6.85746,1.75209 -7.29449,2.82345 -2.83082,6.93894 3.04732,2.80961 5.27859,3.20849 5.27859,0.94361 0,-2.15772 1.64515,-3.92325 3.65596,-3.92325 2.01077,0 2.67831,2.54774 1.48335,5.66165 -1.19498,3.1139 -0.47406,5.66164 1.60187,5.66164 2.07594,0 4.5926,-2.13205 5.59255,-4.73789 z m 263.89424,-4.0831 c 3.37882,-5.27301 0.25163,-10.05116 -6.57898,-10.05116 -2.99139,0 -5.43888,-1.69849 -5.43888,-3.77443 0,-2.07594 -2.12299,-3.71794 -4.71804,-3.64887 -2.59492,0.0679 -0.8963,3.3137 3.77443,7.21027 4.67086,3.89657 8.49247,8.34957 8.49247,9.8955 0,1.54601 -3.24304,-0.1233 -7.20672,-3.71117 -3.96368,-3.58712 -12.88077,-7.34768 -19.81576,-8.35686 l -12.60904,-1.83488 13.21051,7.44046 c 7.26578,4.09224 12.74323,9.41607 12.17208,11.83072 -1.2667,5.35572 14.83897,1.05383 18.71793,-4.99961 z M 323.0913,529.49627 c -1.34319,-3.50056 -3.2916,-5.51543 -4.32957,-4.47746 -1.03797,1.03797 -0.7881,4.75133 0.55509,8.25189 1.3432,3.50056 3.29161,5.51542 4.32958,4.47746 1.03797,-1.03797 0.7881,-4.75133 -0.5551,-8.25189 z M 109.77307,508.79981 c 4.32487,-4.32489 6.78026,-8.94653 5.45642,-10.27038 -1.32382,-1.32382 -3.77839,-0.18872 -5.45456,2.52412 -1.6761,2.71212 -4.55619,4.69634 -6.40002,4.40936 -1.84394,-0.28686 -3.90161,2.11569 -4.57283,5.33928 -1.65722,7.95947 1.60439,7.36417 10.97099,-2.00246 z m 117.99009,-14.00442 c -2.09305,-8.00429 -12.62057,-12.02722 -12.62057,-4.82282 0,4.02012 11.56685,16.38191 13.51012,14.43863 0.70859,-0.70858 0.30825,-5.03562 -0.8895,-9.61581 z m 12.61553,1.57746 c -1.09585,-2.85589 -0.004,-5.13604 2.42696,-5.06702 19.80008,0.56214 28.95335,-1.61621 28.95335,-6.89085 0,-3.33107 2.6457,-5.35205 6.1765,-4.71804 3.39709,0.60994 6.60387,-1.5913 7.1262,-4.89197 0.70406,-4.44849 -1.38219,-5.5553 -8.06372,-4.27804 -4.95738,0.94764 -9.01341,3.89104 -9.01341,6.54084 0,2.6498 -2.68667,5.84878 -5.97034,7.10884 -9.34086,3.58442 -28.68799,2.68415 -26.27351,-1.22267 1.19448,-1.93251 0.44538,-4.58049 -1.66453,-5.88441 -2.1099,-1.30394 -3.83598,0.98764 -3.83598,5.09216 0,10.40633 3.87483,19.40359 8.35649,19.40359 2.07594,0 2.8778,-2.33662 1.78179,-5.19253 z m 82.6917,-117.47175 c 117.23459,-64.06388 60.95366,-139.37796 33.06794,-191.53219 -40.40211,-69.29098 -162.55183,-36.34922 -162.42786,22.97076 13.89558,80.85899 55.04583,116.21642 111.53699,171.6245 6.39655,7.86365 4.79798,8.13838 17.82293,-3.06315 z M 32.60499,782.76056 c -1.19499,-3.11391 -0.52742,-5.66165 1.48335,-5.66165 2.01076,0 3.65599,2.54774 3.65599,5.66165 0,3.1139 -0.66757,5.66164 -1.48335,5.66164 -0.81578,0 -2.46118,-2.54774 -3.65599,-5.66164 z M 566.1646,654.42992 c 2.58433,-3.11391 6.3106,-5.66165 8.28062,-5.66165 1.97,0 1.0342,2.54774 -2.07971,5.66165 -3.1139,3.11391 -6.8402,5.66165 -8.28065,5.66165 -1.44032,0 -0.50451,-2.54774 2.07972,-5.66165 z M 20.17468,624.07167 c -1.2292,-3.20343 -1.39176,-6.66778 -0.36083,-7.69855 1.03067,-1.03067 2.78007,1.59029 3.88736,5.82445 2.35197,8.99419 -0.26119,10.38303 -3.52645,1.87413 z m 38.32904,-99.8596 c 1.28306,-2.07594 3.08175,-3.77443 3.9972,-3.77443 0.91542,0 1.66452,1.69849 1.66452,3.77443 0,2.07593 -1.79864,3.77443 -3.99719,3.77443 -2.19848,0 -2.94746,-1.6985 -1.66453,-3.77443 z m 78.39127,-40.35996 c 3.6724,-0.95695 8.76788,-0.89404 11.32329,0.14091 2.55542,1.03394 -0.4494,1.81701 -6.67709,1.74001 -6.22781,-0.078 -8.31859,-0.92272 -4.6462,-1.87992 z"
     id="path3605"
     inkscape:connector-curvature="0"
     sodipodi:nodetypes="ccssssscsccsccssscscssscsccccccsccsccccscscsccccscccsscccssccsssscsscsscccssscssccsscssccscccccscscsccccccccssccssccssssscscccsssccscsscccccscscsssccccssscssssssssccsssccccccsscccsccscsccsscssccsscsscssssssscssccccscccsssccssscccsscscsccccccssssscccssscccsccsscsccscsscscscsscscscssccccsscsscscscscscssssscsssccsccccsscssccsssccccccscsccsssccscscsscscsccscsssssscsccsscssccscccsssccsscscscccscscccscccccsscsccccccccsssccscscccscsssssccscccsscscccscccccsccsccscssssssssscsscsssccccssccsccsscsscssccccssssscccssccscscscccssssscsccccccsscccssccssscssscccccsscsscssccccccssssscsssccsscc" />
</svg>
