<?xml version="1.0" encoding="UTF-8" standalone="no"?>
<!-- Created with Inkscape (http://www.inkscape.org/) -->

<svg
   xmlns:dc="http://purl.org/dc/elements/1.1/"
   xmlns:cc="http://creativecommons.org/ns#"
   xmlns:rdf="http://www.w3.org/1999/02/22-rdf-syntax-ns#"
   xmlns:svg="http://www.w3.org/2000/svg"
   xmlns="http://www.w3.org/2000/svg"
   xmlns:sodipodi="http://sodipodi.sourceforge.net/DTD/sodipodi-0.dtd"
   xmlns:inkscape="http://www.inkscape.org/namespaces/inkscape"
   version="1.1"
   id="svg64"
   width="266.12604"
   height="929.99902"
   viewBox="0 0 266.12604 929.99902"
   sodipodi:docname="smbl_parenright.svg"
   inkscape:version="0.92.3 (2405546, 2018-03-11)">
  <metadata
     id="metadata70">
    <rdf:RDF>
      <cc:Work
         rdf:about="">
        <dc:format>image/svg+xml</dc:format>
        <dc:type
           rdf:resource="http://purl.org/dc/dcmitype/StillImage" />
        <dc:title></dc:title>
      </cc:Work>
    </rdf:RDF>
  </metadata>
  <defs
     id="defs68" />
  <sodipodi:namedview
     pagecolor="#ffffff"
     bordercolor="#666666"
     borderopacity="1"
     objecttolerance="10"
     gridtolerance="10"
     guidetolerance="10"
     inkscape:pageopacity="0"
     inkscape:pageshadow="2"
     inkscape:window-width="1916"
     inkscape:window-height="1041"
     id="namedview66"
     showgrid="false"
     showguides="false"
     fit-margin-top="0"
     fit-margin-left="0"
     fit-margin-right="0"
     fit-margin-bottom="0"
     inkscape:zoom="0.88507403"
     inkscape:cx="-13.080474"
     inkscape:cy="530.8365"
     inkscape:window-x="0"
     inkscape:window-y="18"
     inkscape:window-maximized="0"
     inkscape:current-layer="svg64" />
  <path
     style="fill:#000000;stroke-width:3.64939404"
     d="m 19.036124,925.81048 c -5.774914,-7.39342 -7.877284,-20.85506 -3.266596,-20.91609 2.639675,-0.0365 2.362276,-1.23304 -0.740827,-3.19906 -4.137641,-2.62163 -4.167381,-5.33735 -0.180189,-16.36642 2.629868,-7.27276 6.05325,-13.22321 7.607527,-13.22321 1.554186,0 1.189019,-4.30533 -0.811534,-9.56739 -4.175979,-10.98365 1.085011,-20.44753 9.559087,-17.1957 2.863999,1.09893 5.207252,0.38547 5.207252,-1.58543 0,-1.97113 4.926682,-4.56902 10.948183,-5.77332 6.987198,-1.39749 10.948182,-4.4232 10.948182,-8.3632 0,-3.39544 1.015444,-5.15817 2.256466,-3.91712 1.241022,1.24102 9.318021,-4.64358 17.948816,-13.07697 12.005914,-11.73127 17.592726,-21.3347 23.781599,-40.87921 4.44904,-14.05017 9.49565,-27.33907 11.21465,-29.53092 1.7191,-2.19192 2.25716,-4.85352 1.19587,-5.91483 -3.03058,-3.03061 6.34057,-21.11913 9.82544,-18.96535 3.14012,1.94079 4.55547,-3.44569 3.30186,-12.56608 -0.37315,-2.71562 0.44295,-7.64231 1.81398,-10.94818 1.3708,-3.30587 3.2631,-12.57962 4.20494,-20.60829 2.51067,-21.4023 3.72186,-29.19515 4.53761,-29.19515 0.39916,0 1.47413,-5.7478 2.38878,-12.77288 0.91463,-7.02508 2.31413,-16.05733 3.11006,-20.07167 0.7958,-4.01433 1.57266,-13.55405 1.72639,-21.1994 0.15282,-7.64532 1.58932,-13.09092 3.19051,-12.10132 1.60117,0.98967 5.29623,0.29058 8.21114,-1.5535 3.97257,-2.51309 2.78649,-3.36671 -4.736,-3.4086 -11.50935,-0.0639 -11.82149,-1.45999 -5.0847,-22.73705 2.7231,-8.6006 5.24178,-21.35847 5.59705,-28.35083 0.35513,-6.99235 2.23274,-14.30026 4.17235,-16.2398 1.93965,-1.93966 3.52643,-5.11394 3.52643,-7.05421 0,-1.94034 -1.08432,-2.44339 -2.40971,-1.11809 -1.32542,1.32542 -4.69609,-0.85464 -7.49055,-4.8442 -4.24,-6.05348 -4.34122,-12.08556 -0.6115,-36.44931 3.35672,-21.92743 3.43794,-31.24481 0.32617,-37.42793 -3.53453,-7.02351 -6.64081,-29.52367 -9.44965,-68.44756 -0.36198,-5.01792 -2.00466,-11.28555 -3.64994,-13.92803 -1.64543,-2.6425 -2.0797,-5.71641 -0.96527,-6.83093 3.25004,-3.25004 -14.98215,-36.50092 -21.35525,-38.9465 -4.52436,-1.7362 -4.96094,-3.79518 -1.98413,-9.35743 2.53523,-4.73707 2.58804,-7.89077 0.15738,-9.39299 -2.01264,-1.24399 -3.65925,-7.71136 -3.65925,-14.37221 0,-6.66087 -2.46334,-14.15504 -5.47409,-16.65374 -3.01075,-2.49871 -5.474092,-6.60478 -5.474092,-9.12467 0,-5.56414 -8.764522,-25.24395 -17.877583,-40.14215 C 62.697145,147.26763 36.236908,100.24695 17.740435,60.667581 -2.8539929,6.639057 57.956671,-24.188018 90.347215,25.164171 c 18.224765,25.602368 26.924655,39.719503 41.494895,62.81867 14.03012,28.427779 23.18681,41.335159 42.95817,87.088429 9.97689,16.43309 21.56239,50.79922 31.63598,77.00046 10.24394,33.01124 20.21201,54.31934 30.55852,110.78347 4.31119,25.80152 5.8904,26.17322 9.04982,61.15944 4.31978,59.87977 9.13309,74.69076 7.23079,103.55298 -3.51018,37.74385 -8.79405,80.17626 -10.39934,97.37628 -3.52009,35.00425 -2.60345,0.33468 -7.2455,80.38302 -0.33826,6.42378 -3.4763,17.03581 -6.97329,23.58234 -3.49696,6.54654 -6.9294,19.153 -7.62764,28.01435 -0.73125,9.28169 -4.85413,21.1458 -9.72564,27.98718 -4.65085,6.53153 -6.27207,10.52572 -3.60263,8.87594 -9.50656,22.13131 -27.19327,42.2341 -28.71239,66.45846 -0.13913,2.50896 -2.30423,4.56375 -4.81318,4.56619 -7.48815,0.007 -23.62744,16.01445 -21.73913,21.5611 1.20636,3.54343 -0.1072,4.43043 -4.22102,2.85157 -9.99737,-1.65739 -3.04116,8.39863 -14.18248,8.00408 18.12767,-48.40477 -22.10802,0.74974 -22.28861,0.57786 -4.90301,-4.90301 -9.64309,-4.87318 -9.64309,0.0616 0,2.12554 1.64223,2.84981 3.64939,1.60938 2.04115,-1.26155 3.59155,1.45794 3.51816,6.17106 -0.12773,8.16926 -0.40075,8.09661 -8.962,-2.37904 -4.856892,-5.94308 -9.99825,-9.6381 -11.425163,-8.21114 -1.426913,1.42692 -0.614467,2.59443 1.80531,2.59443 2.61422,0 1.60368,3.00137 -2.490301,7.39563 -4.437915,4.76355 -9.359054,6.58923 -13.827373,5.12984 -4.224014,-1.3797 -5.282657,-1.0565 -2.706687,0.82613 3.105885,2.26992 2.62079,5.02957 -1.824697,10.38009 -7.191838,8.65597 -44.929745,11.94472 -50.801552,4.42724 z"
     id="path74"
     inkscape:connector-curvature="0"
     sodipodi:nodetypes="ccccsccscscccccccccscccccccccsccccccccccscscccccccccccccccccccccsccccscccscc" />
</svg>
