<?xml version="1.0" encoding="UTF-8" standalone="no"?>
<!-- Created with Inkscape (http://www.inkscape.org/) -->

<svg
   xmlns:dc="http://purl.org/dc/elements/1.1/"
   xmlns:cc="http://creativecommons.org/ns#"
   xmlns:rdf="http://www.w3.org/1999/02/22-rdf-syntax-ns#"
   xmlns:svg="http://www.w3.org/2000/svg"
   xmlns="http://www.w3.org/2000/svg"
   xmlns:sodipodi="http://sodipodi.sourceforge.net/DTD/sodipodi-0.dtd"
   xmlns:inkscape="http://www.inkscape.org/namespaces/inkscape"
   id="svg3595"
   version="1.1"
   inkscape:version="0.91 r13725"
   width="791.89697"
   height="929.99988"
   viewBox="0 0 791.89697 929.99988"
   sodipodi:docname="smbl_ampersand.svg">
  <metadata
     id="metadata3601">
    <rdf:RDF>
      <cc:Work
         rdf:about="">
        <dc:format>image/svg+xml</dc:format>
        <dc:type
           rdf:resource="http://purl.org/dc/dcmitype/StillImage" />
        <dc:title />
      </cc:Work>
    </rdf:RDF>
  </metadata>
  <defs
     id="defs3599" />
  <sodipodi:namedview
     pagecolor="#ffffff"
     bordercolor="#666666"
     borderopacity="1"
     objecttolerance="10"
     gridtolerance="10"
     guidetolerance="10"
     inkscape:pageopacity="0"
     inkscape:pageshadow="2"
     inkscape:window-width="1642"
     inkscape:window-height="1036"
     id="namedview3597"
     showgrid="false"
     fit-margin-top="0"
     fit-margin-left="0"
     fit-margin-right="0"
     fit-margin-bottom="0"
     inkscape:zoom="0.65995525"
     inkscape:cx="337.13187"
     inkscape:cy="486.90384"
     inkscape:window-x="153"
     inkscape:window-y="0"
     inkscape:window-maximized="0"
     inkscape:current-layer="svg3595" />
  <path
     style="fill:#000000"
     d="m 669.73971,918.60704 c -39.03546,-33.23796 -79.9486,-71.41485 -122.75095,-110.38969 -16.38931,-16.18967 -8.4785,-15.08125 -36.22997,4.26591 -436.169397,304.06664 -682.08215,-223.3453 -304.50956,-364.69618 13.7833,-6.77577 2.75405,-11.29506 -4.849,-18.9915 C 147.6372,364.17428 86.701364,325.20181 73.801167,222.28345 58.121999,21.816292 364.0916,-30.593099 442.69835,135.99115 c 80.4522,152.71507 44.75168,212.69023 -14.50212,274.08025 -12.78707,10.62947 -42.9619,30.93228 -51.07847,38.04238 -4.45125,5.35723 -3.92662,6.86974 10.8096,20.15605 54.64937,64.68404 76.23398,104.69128 146.20866,187.86931 27.61798,32.40666 23.62531,25.33908 55.22341,-14.86842 19.40775,-29.72408 23.37582,-51.73847 37.29923,-74.7339 14.71557,-27.96566 32.44246,-55.75817 44.75922,-83.28134 29.66917,-58.74376 91.23601,-19.87994 68.35428,26.16797 -39.52071,70.45026 -67.82828,118.66643 -107.73517,187.56068 -44.73315,59.67455 -47.87325,51.4287 -8.23316,88.5322 29.77197,32.21669 67.73645,61.00522 94.26861,95.92416 20.59182,43.23349 -31.71538,59.60387 -48.33273,37.16655 z M 433.40558,738.71982 c 27.37067,-18.4421 23.72519,-16.57016 14.25308,-27.83403 C 405.59531,662.0439 387.22751,621.9653 302.43799,529.72153 286.72517,512.38824 286.32143,511.09681 263.23325,524.31625 -37.991936,637.36108 203.85733,936.26781 433.40558,738.71982 Z M 323.07039,378.9011 c 109.65832,-64.82151 53.37739,-156.80338 25.49167,-208.95761 -40.40211,-69.29098 -170.88573,-29.53058 -170.76176,29.7894 -9.59086,58.13018 70.956,126.8232 127.44716,182.23128 6.39655,7.86365 4.79798,8.13838 17.82293,-3.06315 z"
     id="path3605"
     inkscape:connector-curvature="0"
     sodipodi:nodetypes="cccccccccccccccccccccccccccssc" />
</svg>
