<?xml version="1.0" encoding="UTF-8" standalone="no"?>
<!-- Created with Inkscape (http://www.inkscape.org/) -->

<svg
   xmlns:dc="http://purl.org/dc/elements/1.1/"
   xmlns:cc="http://creativecommons.org/ns#"
   xmlns:rdf="http://www.w3.org/1999/02/22-rdf-syntax-ns#"
   xmlns:svg="http://www.w3.org/2000/svg"
   xmlns="http://www.w3.org/2000/svg"
   xmlns:sodipodi="http://sodipodi.sourceforge.net/DTD/sodipodi-0.dtd"
   xmlns:inkscape="http://www.inkscape.org/namespaces/inkscape"
   version="1.1"
   id="svg202"
   width="558.22083"
   height="929.99902"
   viewBox="0 0 558.22083 929.99901"
   sodipodi:docname="smbl_5.svg"
   inkscape:version="0.92.3 (2405546, 2018-03-11)">
  <metadata
     id="metadata208">
    <rdf:RDF>
      <cc:Work
         rdf:about="">
        <dc:format>image/svg+xml</dc:format>
        <dc:type
           rdf:resource="http://purl.org/dc/dcmitype/StillImage" />
        <dc:title></dc:title>
      </cc:Work>
    </rdf:RDF>
  </metadata>
  <defs
     id="defs206" />
  <sodipodi:namedview
     pagecolor="#ffffff"
     bordercolor="#666666"
     borderopacity="1"
     objecttolerance="10"
     gridtolerance="10"
     guidetolerance="10"
     inkscape:pageopacity="0"
     inkscape:pageshadow="2"
     inkscape:window-width="1916"
     inkscape:window-height="1041"
     id="namedview204"
     showgrid="false"
     fit-margin-top="0"
     fit-margin-left="0"
     fit-margin-right="0"
     fit-margin-bottom="0"
     inkscape:zoom="0.16173246"
     inkscape:cx="-591.73523"
     inkscape:cy="574.64051"
     inkscape:window-x="0"
     inkscape:window-y="18"
     inkscape:window-maximized="0"
     inkscape:current-layer="svg202"
     inkscape:measure-start="879.539,-6.18305"
     inkscape:measure-end="95.8373,-106.658" />
  <path
     style="fill:#000000;stroke-width:4.16746521"
     d="M 37.978338,890.55352 C -49.239887,819.43433 35.447855,705.76257 76.76475,762.46727 c 56.26443,62.54106 111.48809,48.43417 168.9241,36.24556 C 382.39139,760.57791 432.2138,747.78949 450.64967,581.44134 441.30638,441.66855 285.20769,467.10298 160.27674,464.34189 15.412855,484.65545 34.099816,356.49956 34.97846,282.90121 35.614489,220.27173 29.774979,222.60186 32.924965,156.61668 38.758056,56.306468 23.235359,8.2555611 130.24175,0.26077593 226.50083,-1.490949 303.34622,6.2556328 406.38889,3.558594 c 89.54882,2.5718662 54.2875,119.332386 -2.31327,112.918056 -74.84389,3.86102 -148.57952,-5.44006 -213.65033,0.19862 -49.87356,-6.238 -44.01806,47.70995 -47.12163,75.46723 1.77939,53.95255 4.25331,92.52905 4.70288,127.24527 -1.50267,43.57546 19.23571,23.14218 71.78192,28.73414 43.24706,-1.61212 53.55051,1.04448 92.53273,2.66611 149.5562,8.02487 234.2995,93.5054 245.89964,227.83656 -6.72201,130.33393 -27.33358,229.3824 -176.51484,304.19334 -94.20216,44.7531 -217.09684,47.29039 -260.19875,47.17781 -43.297534,-9.19978 -47.14651,-9.75166 -83.528902,-39.44221 z"
     id="path212"
     inkscape:connector-curvature="0"
     sodipodi:nodetypes="ccccccccccccccccccc" />
</svg>
