<?xml version="1.0" encoding="UTF-8" standalone="no"?>
<!-- Created with Inkscape (http://www.inkscape.org/) -->

<svg
   xmlns:dc="http://purl.org/dc/elements/1.1/"
   xmlns:cc="http://creativecommons.org/ns#"
   xmlns:rdf="http://www.w3.org/1999/02/22-rdf-syntax-ns#"
   xmlns:svg="http://www.w3.org/2000/svg"
   xmlns="http://www.w3.org/2000/svg"
   xmlns:sodipodi="http://sodipodi.sourceforge.net/DTD/sodipodi-0.dtd"
   xmlns:inkscape="http://www.inkscape.org/namespaces/inkscape"
   version="1.1"
   id="svg64"
   width="266.12604"
   height="929.99902"
   viewBox="0 0 266.12604 929.99902"
   sodipodi:docname="smbl_parenright.svg"
   inkscape:version="0.92.3 (2405546, 2018-03-11)">
  <metadata
     id="metadata70">
    <rdf:RDF>
      <cc:Work
         rdf:about="">
        <dc:format>image/svg+xml</dc:format>
        <dc:type
           rdf:resource="http://purl.org/dc/dcmitype/StillImage" />
        <dc:title />
      </cc:Work>
    </rdf:RDF>
  </metadata>
  <defs
     id="defs68" />
  <sodipodi:namedview
     pagecolor="#ffffff"
     bordercolor="#666666"
     borderopacity="1"
     objecttolerance="10"
     gridtolerance="10"
     guidetolerance="10"
     inkscape:pageopacity="0"
     inkscape:pageshadow="2"
     inkscape:window-width="1916"
     inkscape:window-height="1041"
     id="namedview66"
     showgrid="false"
     showguides="false"
     fit-margin-top="0"
     fit-margin-left="0"
     fit-margin-right="0"
     fit-margin-bottom="0"
     inkscape:zoom="0.88507403"
     inkscape:cx="62.858002"
     inkscape:cy="460.84877"
     inkscape:window-x="0"
     inkscape:window-y="18"
     inkscape:window-maximized="0"
     inkscape:current-layer="svg64" />
  <path
     style="fill:#000000;stroke-width:3.64939404"
     d="M 47.359027,837.98386 C 168.39832,759.37481 194.27197,486.37489 140.85521,350.24221 120.52791,292.09559 104.91692,248.65093 80.572985,191.49356 62.697145,147.26763 36.236908,100.24695 17.740435,60.667581 -2.8539929,6.639057 57.956671,-24.188018 90.347215,25.164171 c 18.224765,25.602368 26.924655,39.719503 41.494895,62.81867 14.03012,28.427779 23.18681,41.335159 42.95817,87.088429 9.97689,16.43309 21.56239,50.79922 31.63598,77.00046 28.48814,90.9843 51.83043,179.55068 46.83913,275.49589 -3.51018,37.74385 -8.79405,80.17626 -10.39934,97.37628 C 224.68963,742.65508 191.79209,837.44777 101.37909,913.03715 23.401802,953.58291 -18.973889,875.91633 47.359027,837.98386 Z"
     id="path74"
     inkscape:connector-curvature="0"
     sodipodi:nodetypes="cccccccccccc" />
</svg>
