<?xml version="1.0" encoding="UTF-8" standalone="no"?>
<!-- Created with Inkscape (http://www.inkscape.org/) -->

<svg
   xmlns:dc="http://purl.org/dc/elements/1.1/"
   xmlns:cc="http://creativecommons.org/ns#"
   xmlns:rdf="http://www.w3.org/1999/02/22-rdf-syntax-ns#"
   xmlns:svg="http://www.w3.org/2000/svg"
   xmlns="http://www.w3.org/2000/svg"
   xmlns:sodipodi="http://sodipodi.sourceforge.net/DTD/sodipodi-0.dtd"
   xmlns:inkscape="http://www.inkscape.org/namespaces/inkscape"
   version="1.1"
   id="svg156"
   width="1067.6527"
   height="930"
   viewBox="0 0 1067.6527 930.00001"
   sodipodi:docname="smbl_plus.svg"
   inkscape:version="0.92.3 (2405546, 2018-03-11)">
  <metadata
     id="metadata162">
    <rdf:RDF>
      <cc:Work
         rdf:about="">
        <dc:format>image/svg+xml</dc:format>
        <dc:type
           rdf:resource="http://purl.org/dc/dcmitype/StillImage" />
        <dc:title />
      </cc:Work>
    </rdf:RDF>
  </metadata>
  <defs
     id="defs160" />
  <sodipodi:namedview
     pagecolor="#ffffff"
     bordercolor="#666666"
     borderopacity="1"
     objecttolerance="10"
     gridtolerance="10"
     guidetolerance="10"
     inkscape:pageopacity="0"
     inkscape:pageshadow="2"
     inkscape:window-width="1916"
     inkscape:window-height="1041"
     id="namedview158"
     showgrid="false"
     fit-margin-top="0"
     fit-margin-left="0"
     fit-margin-right="0"
     fit-margin-bottom="0"
     inkscape:zoom="0.54049976"
     inkscape:cx="810.35635"
     inkscape:cy="613.1266"
     inkscape:window-x="0"
     inkscape:window-y="18"
     inkscape:window-maximized="0"
     inkscape:current-layer="svg156"
     inkscape:measure-start="785.602,330.332"
     inkscape:measure-end="990.342,604.41" />
  <path
     style="fill:#000000;stroke-width:7.92939663"
     d="m 463.99348,862.65055 c -0.86357,-94.52025 -1.3249,-192.01651 -6.21196,-254.31987 -4.64746,-35.89609 7.18561,-77.74194 -26.48952,-75.1656 -117.04747,1.85564 -263.57403,0.55221 -362.780016,0.95531 -92.706255,-11.34633 -85.613937,-131.0418 -7.531797,-136.72613 75.417423,0.12411 312.498023,-2.13529 346.318353,-2.83838 58.86619,2.98492 42.01845,-20.73502 40.80061,-149.0929 -2.19353,-35.65367 -2.83321,-151.611174 -2.51405,-177.227021 6.75534,-90.762297 132.53657,-88.805366 136.52521,-0.956475 3.33537,110.804036 0.15358,146.717536 2.21813,211.928936 4.22081,86.11386 -13.44795,115.60729 31.26965,112.96802 84.63784,1.08913 243.25538,2.53739 376.15218,1.97107 98.35233,-3.35595 100.27193,138.80057 4.09318,137.64482 -112.35209,1.37939 -264.53543,-0.88877 -364.39092,1.83023 -41.01811,-0.32784 -39.50861,8.5956 -38.26155,47.31661 1.63152,100.48771 -2.44321,145.43722 2.04297,282.58463 -10.11582,92.40198 -126.6768,84.05538 -131.24047,-0.87325 z"
     id="path166"
     inkscape:connector-curvature="0"
     sodipodi:nodetypes="ccccccccccccccccc" />
</svg>
