<?xml version="1.0" encoding="UTF-8" standalone="no"?>
<!-- Created with Inkscape (http://www.inkscape.org/) -->

<svg
   xmlns:dc="http://purl.org/dc/elements/1.1/"
   xmlns:cc="http://creativecommons.org/ns#"
   xmlns:rdf="http://www.w3.org/1999/02/22-rdf-syntax-ns#"
   xmlns:svg="http://www.w3.org/2000/svg"
   xmlns="http://www.w3.org/2000/svg"
   xmlns:sodipodi="http://sodipodi.sourceforge.net/DTD/sodipodi-0.dtd"
   xmlns:inkscape="http://www.inkscape.org/namespaces/inkscape"
   version="1.1"
   id="svg80"
   width="634.7533"
   height="930.00098"
   viewBox="0 0 634.7533 930.00097"
   sodipodi:docname="smbl_4.svg"
   inkscape:version="0.92.3 (2405546, 2018-03-11)">
  <metadata
     id="metadata86">
    <rdf:RDF>
      <cc:Work
         rdf:about="">
        <dc:format>image/svg+xml</dc:format>
        <dc:type
           rdf:resource="http://purl.org/dc/dcmitype/StillImage" />
        <dc:title></dc:title>
      </cc:Work>
    </rdf:RDF>
  </metadata>
  <defs
     id="defs84" />
  <sodipodi:namedview
     pagecolor="#ffffff"
     bordercolor="#666666"
     borderopacity="1"
     objecttolerance="10"
     gridtolerance="10"
     guidetolerance="10"
     inkscape:pageopacity="0"
     inkscape:pageshadow="2"
     inkscape:window-width="1916"
     inkscape:window-height="1041"
     id="namedview82"
     showgrid="false"
     fit-margin-top="0"
     fit-margin-left="0"
     fit-margin-right="0"
     fit-margin-bottom="0"
     inkscape:zoom="0.28310448"
     inkscape:cx="415.68156"
     inkscape:cy="333.55844"
     inkscape:window-x="0"
     inkscape:window-y="18"
     inkscape:window-maximized="0"
     inkscape:current-layer="svg80"
     inkscape:measure-start="669.38,328.446"
     inkscape:measure-end="580.088,367.785" />
  <path
     style="fill:#000000;stroke-width:4.05603838"
     d="m 397.39571,870.4074 c 2.7157,-34.48251 -2.17451,-75.88825 0.55629,-83.00462 -2.49746,-28.54948 4.35732,-35.27185 -3.97664,-57.31488 -10.21587,-13.05715 -7.94587,-28.56293 -93.92751,-32.25057 -6.78083,-2.56991 -154.22691,4.68941 -221.758935,2.27027 C 10.411258,702.66764 -19.379579,634.67276 13.288082,599.33084 77.711895,501.68143 137.56991,413.59589 176.2055,342.95458 233.11662,263.17643 251.52228,217.42417 317.8442,126.94391 368.13477,56.988751 371.82431,48.709305 386.795,28.519311 c 39.34095,-51.517855 100.04658,-23.0594655 101.6391,5.921813 2.69322,123.026586 12.18753,141.279326 11.32843,222.939436 1.21785,123.37783 -9.21063,197.34753 -5.28795,342.93265 -0.82803,32.81859 7.40342,16.72205 49.66088,19.63219 10.65517,-0.89461 43.56638,1.2476 55.329,1.85827 53.14388,4.81812 41.58078,88.46144 -2.49707,90.30155 -24.19161,0.25245 -36.24429,-0.71691 -50.92647,0.51863 -57.96168,-4.64506 -48.46469,15.11445 -47.36758,46.27389 -1.32869,39.98627 2.21585,59.53394 -0.27766,114.95579 -3.77903,67.50531 -91.59765,83.12906 -100.99997,-3.44613 z M 343.43203,597.83659 c 38.28364,6.72075 51.01693,-2.06148 50.14699,-18.24771 -7.53863,-122.64682 10.07376,-197.35294 3.1007,-347.04112 1.98025,-32.51734 -9.99925,-30.09105 -23.69364,-6.78201 -76.37078,109.96287 -55.81344,78.72963 -106.23482,171.6922 -75.16833,101.42731 -60.51123,105.47568 -107.3433,160.31763 -25.54707,29.76034 -22.54399,39.7431 -9.49307,37.40665 113.09637,10.76955 106.64917,1.3248 193.51714,2.65436 z"
     id="path90"
     inkscape:connector-curvature="0"
     sodipodi:nodetypes="ccccccccccccccccccccccccccc" />
</svg>
