<?xml version="1.0" encoding="UTF-8" standalone="no"?>
<!-- Created with Inkscape (http://www.inkscape.org/) -->

<svg
   xmlns:dc="http://purl.org/dc/elements/1.1/"
   xmlns:cc="http://creativecommons.org/ns#"
   xmlns:rdf="http://www.w3.org/1999/02/22-rdf-syntax-ns#"
   xmlns:svg="http://www.w3.org/2000/svg"
   xmlns="http://www.w3.org/2000/svg"
   xmlns:sodipodi="http://sodipodi.sourceforge.net/DTD/sodipodi-0.dtd"
   xmlns:inkscape="http://www.inkscape.org/namespaces/inkscape"
   version="1.1"
   id="svg141"
   width="650.28522"
   height="930"
   viewBox="0 0 650.28523 929.99999"
   sodipodi:docname="smbl_numbersign.svg"
   inkscape:version="0.92.3 (2405546, 2018-03-11)">
  <metadata
     id="metadata147">
    <rdf:RDF>
      <cc:Work
         rdf:about="">
        <dc:format>image/svg+xml</dc:format>
        <dc:type
           rdf:resource="http://purl.org/dc/dcmitype/StillImage" />
        <dc:title></dc:title>
      </cc:Work>
    </rdf:RDF>
  </metadata>
  <defs
     id="defs145" />
  <sodipodi:namedview
     pagecolor="#ffffff"
     bordercolor="#666666"
     borderopacity="1"
     objecttolerance="10"
     gridtolerance="10"
     guidetolerance="10"
     inkscape:pageopacity="0"
     inkscape:pageshadow="2"
     inkscape:window-width="1916"
     inkscape:window-height="1041"
     id="namedview143"
     showgrid="false"
     fit-margin-top="0"
     fit-margin-left="0"
     fit-margin-right="0"
     fit-margin-bottom="0"
     inkscape:zoom="0.36823725"
     inkscape:cx="243.5966"
     inkscape:cy="386.81205"
     inkscape:window-x="0"
     inkscape:window-y="18"
     inkscape:window-maximized="0"
     inkscape:current-layer="svg141"
     inkscape:measure-start="187.224,185.304"
     inkscape:measure-end="79.6903,219.868" />
  <path
     style="fill:#000000;stroke-width:7.46376324"
     d="m 345.07879,882.0734 c 8.41492,-46.37554 21.44638,-95.07464 32.27908,-154.67179 15.35767,-78.59371 33.82155,-80.26695 -29.84399,-79.69363 -29.57747,-0.72921 -49.11147,2.93568 -122.79411,-2.21578 -36.52433,-4.56043 -48.62193,-4.77325 -53.84742,27.92712 -13.71457,74.89138 -24.3291,128.2105 -41.36612,208.43764 -12.24325,72.23856 -83.890626,46.91768 -68.242897,-0.60668 19.132728,-87.13705 25.965779,-136.62457 41.691757,-202.30523 10.58523,-40.3427 5.55147,-40.49564 -24.380234,-39.34061 -9.396686,0.36259 -36.992015,-0.93674 -54.499947,-1.27012 -32.2051765,-5.16592 -36.529746,-61.70174 14.554263,-63.09709 94.945648,-0.2439 87.439298,12.13058 99.027298,-39.95826 23.41166,-98.52738 23.99527,-112.30653 36.30325,-164.26102 3.58383,-22.55037 1.86244,-27.10662 -11.56791,-30.61874 -43.17336,-4.866 -80.56577,1.35484 -130.341578,-2.61904 -51.464843,-14.76524 -28.2177294,-58.83358 -8.143506,-62.45137 15.494773,-3.04693 58.358888,-0.71069 135.350154,-3.02052 34.42506,0.80814 33.84491,6.37647 40.68024,-35.81598 18.3862,-61.66998 32.74012,-157.759169 47.69611,-210.670576 19.5457,-46.333074 67.53068,-22.0884273 61.16165,8.685331 -13.46194,61.721975 -25.54644,145.616015 -40.8238,207.337495 -9.52791,34.9014 -8.32731,26.56408 34.93061,27.37937 35.28259,0.99692 89.41432,1.46142 124.90462,3.12365 58.79667,0.30109 48.66661,-12.07041 60.85011,-58.97269 18.04923,-67.96659 28.80586,-119.06672 41.14932,-185.419588 19.40693,-48.156288 77.39297,-24.095201 70.93105,14.834319 -10.68567,34.258008 -26.67833,115.535059 -44.23955,182.499259 -12.96428,54.48839 -21.0988,44.99409 59.62827,49.87464 47.11722,6.99237 43.84977,65.89801 -9.01953,64.99333 -82.40201,-9.5836 -78.90167,5.17592 -93.43044,61.81265 -7.83576,43.32317 -20.75272,96.34171 -27.72981,130.01253 -11.41937,68.94268 -4.24951,46.38678 128.57097,54.44349 51.56028,4.43512 42.52529,66.76088 3.65207,64.78464 -45.11132,-1.1803 -67.07159,2.68544 -103.61682,-1.60495 -52.7465,-1.30896 -51.82084,-0.9145 -66.96765,80.64268 -22.52133,84.63784 -24.23019,114.8841 -34.38268,154.41045 -12.74238,68.30274 -80.00686,52.81558 -68.12283,-2.58493 z m 74.46469,-356.06731 c 15.45592,-66.45882 21.20807,-98.87826 31.99784,-155.712 11.69755,-34.40282 -9.70909,-31.13285 -18.8909,-33.37998 -25.57988,-0.7506 -50.29439,-3.48376 -83.35258,-3.48376 -95.65562,0.18092 -98.18117,-10.79561 -105.0835,27.85171 -4.47387,12.3152 -18.75302,65.90047 -26.72603,119.07847 -28.06366,112.34282 -33.77473,99.99767 82.69303,102.60219 103.65061,0.72684 108.4917,8.15164 119.36214,-56.95663 z"
     id="path151"
     inkscape:connector-curvature="0"
     sodipodi:nodetypes="ccccccccscccccccccccccccccccccccccccccccccccc" />
</svg>
