<?xml version="1.0" encoding="UTF-8" standalone="no"?>
<!-- Created with Inkscape (http://www.inkscape.org/) -->

<svg
   xmlns:dc="http://purl.org/dc/elements/1.1/"
   xmlns:cc="http://creativecommons.org/ns#"
   xmlns:rdf="http://www.w3.org/1999/02/22-rdf-syntax-ns#"
   xmlns:svg="http://www.w3.org/2000/svg"
   xmlns="http://www.w3.org/2000/svg"
   xmlns:sodipodi="http://sodipodi.sourceforge.net/DTD/sodipodi-0.dtd"
   xmlns:inkscape="http://www.inkscape.org/namespaces/inkscape"
   version="1.1"
   id="svg308"
   width="544.27576"
   height="929.99902"
   viewBox="0 0 544.27576 929.99901"
   sodipodi:docname="smbl_6.svg"
   inkscape:version="0.92.3 (2405546, 2018-03-11)">
  <metadata
     id="metadata314">
    <rdf:RDF>
      <cc:Work
         rdf:about="">
        <dc:format>image/svg+xml</dc:format>
        <dc:type
           rdf:resource="http://purl.org/dc/dcmitype/StillImage" />
        <dc:title></dc:title>
      </cc:Work>
    </rdf:RDF>
  </metadata>
  <defs
     id="defs312" />
  <sodipodi:namedview
     pagecolor="#ffffff"
     bordercolor="#666666"
     borderopacity="1"
     objecttolerance="10"
     gridtolerance="10"
     guidetolerance="10"
     inkscape:pageopacity="0"
     inkscape:pageshadow="2"
     inkscape:window-width="1916"
     inkscape:window-height="1041"
     id="namedview310"
     showgrid="false"
     fit-margin-top="0"
     fit-margin-left="0"
     fit-margin-right="0"
     fit-margin-bottom="0"
     inkscape:zoom="0.33042115"
     inkscape:cx="1072.9831"
     inkscape:cy="572.8433"
     inkscape:window-x="0"
     inkscape:window-y="18"
     inkscape:window-maximized="0"
     inkscape:current-layer="svg308"
     inkscape:measure-start="177.047,339.718"
     inkscape:measure-end="-47.6664,333.665" />
  <path
     style="fill:#000000;stroke-width:4.06654501"
     d="M 307.92304,929.20634 C 123.75557,941.56496 40.766195,807.96865 9.8036307,629.14873 5.4519967,566.46535 -24.541398,392.89061 48.168794,257.64907 112.14051,140.80599 189.14083,36.204434 338.08797,7.2540326 369.28767,1.5328839 390.97888,-0.19063861 408.90276,0.01633756 472.10408,1.5538832 472.07363,72.785377 432.02018,91.443103 314.84383,103.35384 246.75433,133.73763 163.83962,272.60093 c -38.17039,59.38249 -59.42245,111.27516 -53.82354,142.31587 2.51779,15.96831 8.16676,27.98585 28.04652,11.38718 59.21869,-41.99953 73.80313,-50.87581 166.8834,-56.0026 352.54896,40.12224 282.9259,539.00989 2.97704,558.90496 z M 307.36699,475.10597 C 38.487845,486.24324 101.06262,816.31632 305.28803,817.0014 503.06067,783.21421 461.80421,483.06145 307.36699,475.10597 Z"
     id="path318"
     inkscape:connector-curvature="0"
     sodipodi:nodetypes="cccccccccccccc" />
</svg>
