<?xml version="1.0" encoding="UTF-8" standalone="no"?>
<!-- Created with Inkscape (http://www.inkscape.org/) -->

<svg
   xmlns:dc="http://purl.org/dc/elements/1.1/"
   xmlns:cc="http://creativecommons.org/ns#"
   xmlns:rdf="http://www.w3.org/1999/02/22-rdf-syntax-ns#"
   xmlns:svg="http://www.w3.org/2000/svg"
   xmlns="http://www.w3.org/2000/svg"
   xmlns:sodipodi="http://sodipodi.sourceforge.net/DTD/sodipodi-0.dtd"
   xmlns:inkscape="http://www.inkscape.org/namespaces/inkscape"
   version="1.1"
   id="svg64"
   width="235.04852"
   height="931.3645"
   viewBox="0 0 235.04853 931.3645"
   sodipodi:docname="smbl_parenright.svg"
   inkscape:version="0.92.3 (2405546, 2018-03-11)">
  <metadata
     id="metadata70">
    <rdf:RDF>
      <cc:Work
         rdf:about="">
        <dc:format>image/svg+xml</dc:format>
        <dc:type
           rdf:resource="http://purl.org/dc/dcmitype/StillImage" />
        <dc:title></dc:title>
      </cc:Work>
    </rdf:RDF>
  </metadata>
  <defs
     id="defs68" />
  <sodipodi:namedview
     pagecolor="#ffffff"
     bordercolor="#666666"
     borderopacity="1"
     objecttolerance="10"
     gridtolerance="10"
     guidetolerance="10"
     inkscape:pageopacity="0"
     inkscape:pageshadow="2"
     inkscape:window-width="956"
     inkscape:window-height="1041"
     id="namedview66"
     showgrid="false"
     showguides="false"
     fit-margin-top="0"
     fit-margin-left="0"
     fit-margin-right="0"
     fit-margin-bottom="0"
     inkscape:zoom="0.88507403"
     inkscape:cx="-16.897204"
     inkscape:cy="492.15757"
     inkscape:window-x="960"
     inkscape:window-y="18"
     inkscape:window-maximized="0"
     inkscape:current-layer="svg64"
     inkscape:measure-start="39.1473,659.112"
     inkscape:measure-end="179.758,862.838" />
  <path
     style="fill:#000000;stroke-width:3.64939404"
     d="M 20.620399,859.85045 C 166.42633,743.69198 178.8152,489.39823 138.18122,351.6677 117.85392,293.52108 103.04186,249.7455 78.697924,192.58813 60.822084,148.3622 22.983061,97.483972 4.4865885,57.904603 -16.107839,3.8760788 39.053579,-23.561449 71.444123,25.79074 c 18.224765,25.602368 26.924655,39.719503 41.494897,62.81867 14.03012,28.42778 23.18681,41.33516 42.95817,87.08843 9.97689,16.43309 21.56239,50.79922 31.63598,77.00046 28.48814,90.9843 51.83043,179.55068 46.83913,275.49589 -3.51018,37.74385 -8.79405,80.17626 -10.39934,97.37628 C 205.78654,743.28165 177.36825,840.85881 79.046303,914.75342 30.782902,958.98639 -21.978799,905.9425 20.620399,859.85045 Z"
     id="path74"
     inkscape:connector-curvature="0"
     sodipodi:nodetypes="cccccccccccc" />
</svg>
