<?xml version="1.0" encoding="UTF-8" standalone="no"?>
<!-- Created with Inkscape (http://www.inkscape.org/) -->

<svg
   xmlns:dc="http://purl.org/dc/elements/1.1/"
   xmlns:cc="http://creativecommons.org/ns#"
   xmlns:rdf="http://www.w3.org/1999/02/22-rdf-syntax-ns#"
   xmlns:svg="http://www.w3.org/2000/svg"
   xmlns="http://www.w3.org/2000/svg"
   xmlns:sodipodi="http://sodipodi.sourceforge.net/DTD/sodipodi-0.dtd"
   xmlns:inkscape="http://www.inkscape.org/namespaces/inkscape"
   id="svg3799"
   version="1.1"
   inkscape:version="0.91 r13725"
   width="281.80905"
   height="930"
   viewBox="0 0 281.80905 930"
   sodipodi:docname="smbl_parenleft.svg">
  <metadata
     id="metadata3805">
    <rdf:RDF>
      <cc:Work
         rdf:about="">
        <dc:format>image/svg+xml</dc:format>
        <dc:type
           rdf:resource="http://purl.org/dc/dcmitype/StillImage" />
        <dc:title></dc:title>
      </cc:Work>
    </rdf:RDF>
  </metadata>
  <defs
     id="defs3803" />
  <sodipodi:namedview
     pagecolor="#ffffff"
     bordercolor="#666666"
     borderopacity="1"
     objecttolerance="10"
     gridtolerance="10"
     guidetolerance="10"
     inkscape:pageopacity="0"
     inkscape:pageshadow="2"
     inkscape:window-width="1927"
     inkscape:window-height="1032"
     id="namedview3801"
     showgrid="false"
     fit-margin-top="0"
     fit-margin-left="0"
     fit-margin-right="0"
     fit-margin-bottom="0"
     inkscape:zoom="0.86375364"
     inkscape:cx="-376.64551"
     inkscape:cy="570.73566"
     inkscape:window-x="0"
     inkscape:window-y="0"
     inkscape:window-maximized="0"
     inkscape:current-layer="svg3799" />
  <path
     style="fill:#000000"
     d="m 169.11244,907.96211 c -20.1016,-23.6372 -32.69447,-54.02104 -43.0845,-50.53768 -1.56146,0.96511 -3.86427,-3.70952 -5.11717,-10.38802 -1.25287,-6.67845 -3.50205,-12.89921 -4.99813,-13.82385 -1.49604,-0.92461 -1.99815,-4.44247 -1.11539,-7.8174 0.90814,-3.47288 -1.46561,-8.91475 -5.46904,-12.53783 -3.89065,-3.5209 -7.10816,-8.86442 -7.15014,-11.87454 -0.0412,-3.0101 -3.095761,-9.33311 -6.786233,-14.05111 -3.690473,-4.718 -6.744272,-11.28031 -6.786248,-14.58292 -0.04118,-3.3026 -1.620248,-6.00472 -3.507563,-6.00472 -1.8872,0 -3.431273,-3.67112 -3.431273,-8.15806 0,-4.4869 -2.31611,-10.08022 -5.146911,-12.42959 -2.830801,-2.34935 -5.146911,-6.03556 -5.146911,-8.19157 0,-2.15598 -4.745429,-13.64691 -10.54538,-25.53527 -5.799974,-11.88838 -11.338462,-27.30612 -12.307774,-34.26166 -0.96922,-6.95553 -3.746173,-18.05069 -6.170826,-24.65589 -2.424652,-6.60521 -4.220512,-16.64168 -3.9908,-22.30328 0.229667,-5.66161 -1.56489,-12.38663 -3.987895,-14.94446 -2.465531,-2.60274 -3.436901,-7.70264 -2.205852,-11.58135 1.394012,-4.39192 0.888929,-6.1205 -1.378914,-4.71892 -4.126539,2.55033 -9.333479,-25.80853 -6.225679,-33.90734 1.09526,-2.85395 0.40443,-5.18905 -1.53493,-5.18905 -1.93935,0 -2.5718,-1.54407 -1.40544,-3.43127 1.1664,-1.8872 0.66543,-3.43128 -1.11311,-3.43128 -1.77854,0 -3.98725,-3.47416 -4.90816,-7.72036 -0.92096,-4.24621 -2.81019,-10.42249 -4.1984,-13.7251 -1.77374,-4.21973 -0.94497,-6.00472 2.78753,-6.00472 2.92134,0 6.42796,-1.80646 7.79253,-4.01439 1.71495,-2.77487 0.45316,-3.30201 -4.0866,-1.70717 -6.36725,2.23673 -6.36442,2.1498 0.0938,-2.84817 3.66332,-2.83544 4.8757,-5.15532 2.69421,-5.15532 -5.57831,0 -11.45302,-12.16664 -8.98289,-18.60371 1.13461,-2.9567 3.68373,-4.37405 5.66478,-3.1497 2.12122,1.31097 2.58121,0.57462 1.11906,-1.79136 -1.36565,-2.20951 -3.82684,-3.18683 -5.46941,-2.17153 -1.64266,1.01519 -2.96942,-0.88985 -2.94852,-4.23312 0.0209,-3.34337 -1.34277,-14.84417 -3.0305,-25.5573 -1.68773,-10.71312 -2.538,-22.9546 -1.88949,-27.20334 0.64829,-4.24874 -0.72216,-8.89983 -3.04546,-10.33578 -3.20291,-1.97961 -2.80540996,-4.17872 1.64404,-9.09518 6.87893,-7.60112 7.69539,-12.42144 1.5793,-9.32335 -2.359,1.195 -1.88079,0.1281 1.06255,-2.37094 3.45832,-2.93614 4.63346,-7.51071 3.32171,-12.93059 -1.76254,-7.28281 1.13071,-30.61506 8.3212,-67.10099 1.11585,-5.66161 2.94831,-16.47012 4.07233,-24.01892 1.12408,-7.5488 3.17498,-14.49713 4.55767,-15.44073 C 37.811342,235.3037 61.91751,180.52807 81.729349,141.68813 100.12942,103.6207 121.5121,61.556865 134.84795,34.145255 c 14.5737,-39.4353852 88.20356,-46.940731 74.46437,22.505975 -50.53048,100.91611 -47.52029,99.71051 -81.55285,164.31153 -8.54447,17.00911 -11.04574,28.58206 -17.09136,51.27776 -8.77026,54.10224 1.12492,44.75506 -2.4931,90.55784 1.05638,1.05638 0.0503,4.17545 -2.23765,6.9312 -2.975,3.58465 -3.14849,6.89746 -0.60962,11.64122 1.95171,3.64694 2.47663,7.70279 1.16641,9.01304 -1.31029,1.31029 -1.90733,13.70913 -1.32676,27.55301 0.69357,16.53632 -0.58675,28.52706 -3.73225,34.95505 -3.671093,7.50212 -5.685754,33.80324 -2.589327,33.80324 0.585146,0 1.339337,4.59091 4.790787,29.16583 1.19271,8.4924 3.09215,18.37644 4.22088,21.96452 1.52212,4.83826 0.72057,6.01276 -3.10226,4.54582 -3.72666,-1.43015 -4.69318,-0.21274 -3.48915,4.39041 0.91593,3.50262 3.63009,5.61445 6.03141,4.693 2.40132,-0.92142 5.42569,1.08611 6.72081,4.46106 1.29519,3.37507 0.76243,6.66731 -1.18402,7.3161 -2.15484,0.71828 -1.4528,4.36334 1.79547,9.32053 6.76748,10.32847 6.62714,8.93744 1.80988,17.93877 -2.61483,4.88585 -2.83832,7.72036 -0.6087,7.72036 1.95102,0 2.94927,4.9759 2.23696,11.15164 -0.7073,6.1334 0.2594,13.07286 2.1482,15.42102 1.88903,2.34815 2.70508,8.08456 1.81378,12.74759 -0.89145,4.66299 -0.34656,8.91809 1.21078,9.4557 1.55734,0.53757 3.26296,4.83771 3.79037,9.55571 0.5275,4.718 2.19601,9.49026 3.70817,10.60497 21.04882,63.8516 66.36074,106.70218 64.3923,127.90277 -0.7972,4.95894 4.13265,19.33077 6.631,19.33077 1.47797,0 3.65616,3.86018 4.84032,8.57818 1.18402,4.718 4.43968,8.57819 7.23452,8.57819 2.79484,0 5.08153,1.61613 5.08153,3.59158 0,5.52222 8.16829,18.54396 20.52368,33.03835 25.82664,49.62656 -31.01913,87.04073 -70.33009,39.79412 z"
     id="path3809"
     inkscape:connector-curvature="0"
     sodipodi:nodetypes="ccsscccscssssscssscscscscsssccsssccsscssccccscccccccccsssssccccsccsscccccccscsscc" />
</svg>
