<?xml version="1.0" encoding="UTF-8" standalone="no"?>
<!-- Created with Inkscape (http://www.inkscape.org/) -->

<svg
   xmlns:dc="http://purl.org/dc/elements/1.1/"
   xmlns:cc="http://creativecommons.org/ns#"
   xmlns:rdf="http://www.w3.org/1999/02/22-rdf-syntax-ns#"
   xmlns:svg="http://www.w3.org/2000/svg"
   xmlns="http://www.w3.org/2000/svg"
   xmlns:sodipodi="http://sodipodi.sourceforge.net/DTD/sodipodi-0.dtd"
   xmlns:inkscape="http://www.inkscape.org/namespaces/inkscape"
   version="1.1"
   id="svg2683"
   width="445.45798"
   height="930"
   viewBox="0 0 445.45798 929.99999"
   sodipodi:docname="smbl_question.svg"
   inkscape:version="0.92.3 (2405546, 2018-03-11)">
  <metadata
     id="metadata2689">
    <rdf:RDF>
      <cc:Work
         rdf:about="">
        <dc:format>image/svg+xml</dc:format>
        <dc:type
           rdf:resource="http://purl.org/dc/dcmitype/StillImage" />
        <dc:title></dc:title>
      </cc:Work>
    </rdf:RDF>
  </metadata>
  <defs
     id="defs2687" />
  <sodipodi:namedview
     pagecolor="#ffffff"
     bordercolor="#666666"
     borderopacity="1"
     objecttolerance="10"
     gridtolerance="10"
     guidetolerance="10"
     inkscape:pageopacity="0"
     inkscape:pageshadow="2"
     inkscape:window-width="1916"
     inkscape:window-height="1041"
     id="namedview2685"
     showgrid="false"
     fit-margin-top="0"
     fit-margin-left="0"
     fit-margin-right="0"
     fit-margin-bottom="0"
     inkscape:zoom="0.33042115"
     inkscape:cx="-299.22684"
     inkscape:cy="902.90291"
     inkscape:window-x="0"
     inkscape:window-y="18"
     inkscape:window-maximized="0"
     inkscape:current-layer="svg2683"
     inkscape:measure-start="30.2644,63.5553"
     inkscape:measure-end="258.761,55.9892" />
  <path
     style="fill:#000000;stroke-width:4.1861515"
     d="m 149.75158,923.61881 c -40.59125,-25.19783 -41.88941,-69.44863 8.2666,-88.00488 21.03167,-4.51884 48.32418,-10.49846 59.81708,21.40775 10.78632,55.87977 -28.42661,87.24424 -68.08368,66.59713 z M 98.819394,868.32242 v 7e-5 z M 153.71291,675.39287 c -8.78577,-13.997 -22.73599,-38.34247 -21.348,-69.30404 6.34282,-110.2847 63.96566,-180.47385 160.00462,-249.64328 C 454.79377,203.96323 222.49821,-16.538179 84.815955,159.61553 41.269495,211.54411 -24.603664,146.79596 9.4108749,85.676411 242.35941,-146.79363 587.88314,136.42152 383.09182,427.40377 319.03691,509.14735 219.46608,503.0811 215.66901,595.08831 c 8.26135,25.63939 21.51668,32.26318 18.72999,56.47335 -1.95249,19.73439 -51.39823,59.82351 -80.68609,23.83121 z"
     id="path2693"
     inkscape:connector-curvature="0"
     sodipodi:nodetypes="cccccccccccccccc" />
</svg>
