<?xml version="1.0" encoding="UTF-8" standalone="no"?>
<!-- Created with Inkscape (http://www.inkscape.org/) -->

<svg
   xmlns:dc="http://purl.org/dc/elements/1.1/"
   xmlns:cc="http://creativecommons.org/ns#"
   xmlns:rdf="http://www.w3.org/1999/02/22-rdf-syntax-ns#"
   xmlns:svg="http://www.w3.org/2000/svg"
   xmlns="http://www.w3.org/2000/svg"
   xmlns:sodipodi="http://sodipodi.sourceforge.net/DTD/sodipodi-0.dtd"
   xmlns:inkscape="http://www.inkscape.org/namespaces/inkscape"
   id="svg3661"
   version="1.1"
   inkscape:version="0.91 r13725"
   width="437.65979"
   height="930"
   viewBox="0 0 437.6598 929.99999"
   sodipodi:docname="smbl_apostrophe.svg">
  <metadata
     id="metadata3667">
    <rdf:RDF>
      <cc:Work
         rdf:about="">
        <dc:format>image/svg+xml</dc:format>
        <dc:type
           rdf:resource="http://purl.org/dc/dcmitype/StillImage" />
        <dc:title></dc:title>
      </cc:Work>
    </rdf:RDF>
  </metadata>
  <defs
     id="defs3665" />
  <sodipodi:namedview
     pagecolor="#ffffff"
     bordercolor="#666666"
     borderopacity="1"
     objecttolerance="10"
     gridtolerance="10"
     guidetolerance="10"
     inkscape:pageopacity="0"
     inkscape:pageshadow="2"
     inkscape:window-width="1497"
     inkscape:window-height="1045"
     id="namedview3663"
     showgrid="false"
     inkscape:zoom="0.56993582"
     inkscape:cx="-178.10766"
     inkscape:cy="497.65243"
     inkscape:window-x="195"
     inkscape:window-y="0"
     inkscape:window-maximized="0"
     inkscape:current-layer="svg3661"
     fit-margin-top="0"
     fit-margin-left="0"
     fit-margin-right="0"
     fit-margin-bottom="0" />
  <path
     style="fill:#000000"
     d="m 215.91364,891.42751 c 0,-23.10872 -9.37853,-40.71141 -28.29366,-53.10519 -15.56153,-10.19623 -31.60175,-35.07885 -35.64486,-55.29453 -4.04334,-20.21569 -13.0673,-36.75586 -20.05369,-36.75586 -8.90846,0 -8.87204,7.15773 0.11981,23.96293 7.05389,13.17961 8.54014,23.96292 3.30369,23.96292 -16.5218,0 -36.297606,-41.57472 -34.39112,-72.30046 1.00804,-16.24806 -3.249362,-33.10071 -9.461512,-37.4503 C 72.085442,670.85829 75.255655,574.08337 95.63628,557.94497 111.97716,545.00548 111.68953,543.30595 93.101008,542.96815 81.568845,542.76048 71.838777,538.543 71.478614,533.60096 59.376067,367.48423 56.640297,353.56853 21.725757,280.51812 -3.9248812,226.85005 -9.878786,161.14512 9.7510815,148.36914 15.802517,144.4306 24.373972,121.50996 28.798653,97.434448 33.31007,72.885724 45.909135,49.973609 57.485146,45.265376 120.08622,19.804169 148.5568,16.974743 185.75637,32.51768 c 23.8265,9.955369 45.33203,12.181115 55.49678,5.743674 13.93628,-8.826049 13.81176,-10.539622 -0.7748,-10.6937 -35.79685,-0.377815 6.60178,-22.5611107 57.30654,-29.9827808 58.07735,-8.5008472 116.76208,18.4283358 105.29285,48.3166738 -3.53133,9.20346 1.82199,24.977085 11.89768,35.052488 16.4376,16.437594 16.342,18.318923 -0.93056,18.318923 -15.62543,0 -16.80129,4.574762 -6.24554,24.298512 7.76319,14.50604 18.79764,20.72856 27.3798,15.44022 7.90697,-4.87206 4.81575,5.76029 -6.86777,23.62735 -11.68409,17.86709 -17.07574,32.56818 -11.98146,32.66909 5.09451,0.10067 1.55439,5.06145 -7.86703,11.02347 -21.90931,13.86502 -25.81287,60.68184 -5.05938,60.68184 27.37349,0 33.58277,59.9929 10.62204,102.62834 -11.58391,21.51014 -17.67608,44.58742 -13.53808,51.28284 4.1376,6.69539 1.6766,15.78724 -5.46995,20.20405 -7.14654,4.41685 -10.08159,15.6195 -6.52191,24.89487 3.5593,9.27537 0.75084,31.64455 -6.23754,49.7093 -11.22983,29.02142 -17.07183,49.39558 -26.59557,92.75226 -1.44736,6.58981 -6.36376,17.94664 -10.92454,25.23736 -4.56095,7.29032 -5.90127,25.67252 -2.97859,40.84849 3.29171,17.09419 -2.54167,33.37891 -15.33341,42.80041 -19.53281,14.38694 -19.52738,15.64188 0.10385,23.25179 14.95541,5.79823 17.79414,13.56373 10.16763,27.814 -11.2057,20.9357 -12.94486,28.14958 -12.94486,53.68967 0,8.77114 -13.22137,23.02349 -29.38093,31.67179 -16.15948,8.6483 -29.00018,18.99478 -28.53482,22.99218 3.76139,32.3061 -5.15203,49.20308 -25.95449,49.20308 -18.42557,0 -23.96293,-7.98764 -23.96293,-34.56636 z"
     id="path3671"
     inkscape:connector-curvature="0"
     sodipodi:nodetypes="cscscsscsccsssssssscsssccccsscsccccccccsscscc" />
</svg>
