<?xml version="1.0" encoding="UTF-8" standalone="no"?>
<!-- Created with Inkscape (http://www.inkscape.org/) -->

<svg
   xmlns:dc="http://purl.org/dc/elements/1.1/"
   xmlns:cc="http://creativecommons.org/ns#"
   xmlns:rdf="http://www.w3.org/1999/02/22-rdf-syntax-ns#"
   xmlns:svg="http://www.w3.org/2000/svg"
   xmlns="http://www.w3.org/2000/svg"
   xmlns:sodipodi="http://sodipodi.sourceforge.net/DTD/sodipodi-0.dtd"
   xmlns:inkscape="http://www.inkscape.org/namespaces/inkscape"
   id="svg3799"
   version="1.1"
   inkscape:version="0.91 r13725"
   width="281.80905"
   height="930"
   viewBox="0 0 281.80905 930"
   sodipodi:docname="smbl_parenleft.svg">
  <metadata
     id="metadata3805">
    <rdf:RDF>
      <cc:Work
         rdf:about="">
        <dc:format>image/svg+xml</dc:format>
        <dc:type
           rdf:resource="http://purl.org/dc/dcmitype/StillImage" />
        <dc:title></dc:title>
      </cc:Work>
    </rdf:RDF>
  </metadata>
  <defs
     id="defs3803" />
  <sodipodi:namedview
     pagecolor="#ffffff"
     bordercolor="#666666"
     borderopacity="1"
     objecttolerance="10"
     gridtolerance="10"
     guidetolerance="10"
     inkscape:pageopacity="0"
     inkscape:pageshadow="2"
     inkscape:window-width="1510"
     inkscape:window-height="911"
     id="namedview3801"
     showgrid="false"
     fit-margin-top="0"
     fit-margin-left="0"
     fit-margin-right="0"
     fit-margin-bottom="0"
     inkscape:zoom="0.43187682"
     inkscape:cx="-73.455767"
     inkscape:cy="702.77387"
     inkscape:window-x="0"
     inkscape:window-y="0"
     inkscape:window-maximized="0"
     inkscape:current-layer="svg3799" />
  <path
     style="fill:#000000"
     d="m 191.49496,927.74119 c -4.70293,-1.1767 -10.44647,-5.93286 -12.76345,-10.56933 -2.31698,-4.63648 -6.18951,-8.63785 -8.60561,-8.89197 -2.41612,-0.25414 -6.25059,-0.64004 -8.52104,-0.85782 -2.27036,-0.21731 -6.81801,-6.18608 -10.10568,-13.26308 -9.16921,-19.73767 -22.30952,-38.6886 -25.47124,-36.73456 -1.56146,0.96511 -3.86427,-3.70952 -5.11717,-10.38802 -1.25287,-6.67845 -3.50205,-12.89921 -4.99813,-13.82385 -1.49604,-0.92461 -1.99815,-4.44247 -1.11539,-7.8174 0.90814,-3.47288 -1.46561,-8.91475 -5.46904,-12.53783 -3.89065,-3.5209 -7.10816,-8.86442 -7.15014,-11.87454 -0.0412,-3.0101 -3.095761,-9.33311 -6.786233,-14.05111 -3.690473,-4.718 -6.744272,-11.28031 -6.786248,-14.58292 -0.04118,-3.3026 -1.620248,-6.00472 -3.507563,-6.00472 -1.8872,0 -3.431273,-3.67112 -3.431273,-8.15806 0,-4.4869 -2.31611,-10.08022 -5.146911,-12.42959 -2.830801,-2.34935 -5.146911,-6.03556 -5.146911,-8.19157 0,-2.15598 -4.745429,-13.64691 -10.54538,-25.53527 -5.799974,-11.88838 -11.338462,-27.30612 -12.307774,-34.26166 -0.96922,-6.95553 -3.746173,-18.05069 -6.170826,-24.65589 -2.424652,-6.60521 -4.220512,-16.64168 -3.9908,-22.30328 0.229667,-5.66161 -1.56489,-12.38663 -3.987895,-14.94446 -2.465531,-2.60274 -3.436901,-7.70264 -2.205852,-11.58135 1.394012,-4.39192 0.888929,-6.1205 -1.378914,-4.71892 -4.126539,2.55033 -9.333479,-25.80853 -6.225679,-33.90734 1.09526,-2.85395 0.40443,-5.18905 -1.53493,-5.18905 -1.93935,0 -2.5718,-1.54407 -1.40544,-3.43127 1.1664,-1.8872 0.66543,-3.43128 -1.11311,-3.43128 -1.77854,0 -3.98725,-3.47416 -4.90816,-7.72036 -0.92096,-4.24621 -2.81019,-10.42249 -4.1984,-13.7251 -1.77374,-4.21973 -0.94497,-6.00472 2.78753,-6.00472 2.92134,0 6.42796,-1.80646 7.79253,-4.01439 1.71495,-2.77487 0.45316,-3.30201 -4.0866,-1.70717 -6.36725,2.23673 -6.36442,2.1498 0.0938,-2.84817 3.66332,-2.83544 4.8757,-5.15532 2.69421,-5.15532 -5.57831,0 -11.45302,-12.16664 -8.98289,-18.60371 1.13461,-2.9567 3.68373,-4.37405 5.66478,-3.1497 2.12122,1.31097 2.58121,0.57462 1.11906,-1.79136 -1.36565,-2.20951 -3.82684,-3.18683 -5.46941,-2.17153 -1.64266,1.01519 -2.96942,-0.88985 -2.94852,-4.23312 0.0209,-3.34337 -1.34277,-14.84417 -3.0305,-25.5573 -1.68773,-10.71312 -2.538,-22.9546 -1.88949,-27.20334 0.64829,-4.24874 -0.72216,-8.89983 -3.04546,-10.33578 -3.20291,-1.97961 -2.80540996,-4.17872 1.64404,-9.09518 6.87893,-7.60112 7.69539,-12.42144 1.5793,-9.32335 -2.359,1.195 -1.88079,0.1281 1.06255,-2.37094 3.45832,-2.93614 4.63346,-7.51071 3.32171,-12.93059 -1.76254,-7.28281 1.13071,-30.61506 8.3212,-67.10099 1.11585,-5.66161 2.94831,-16.47012 4.07233,-24.01892 1.12408,-7.5488 3.17498,-14.49713 4.55767,-15.44073 5.424819,-3.70207 10.116788,-16.80753 12.379187,-34.57704 1.302969,-10.23426 4.026074,-20.69358 6.051235,-23.24297 2.025138,-2.54937 3.994094,-6.40955 4.375355,-8.57819 1.399731,-7.96174 11.616966,-29.27242 15.052289,-31.39558 1.946676,-1.20301 2.650888,-3.62475 1.565118,-5.38154 -1.085655,-1.75682 -0.247737,-3.19429 1.862267,-3.19429 2.110005,0 3.074925,-1.23183 2.144318,-2.73754 -0.930562,-1.50564 4.308353,-14.24422 11.641969,-28.308 14.878679,-28.53306 19.027501,-36.91387 22.000631,-44.442475 1.11791,-2.8308 4.99086,-9.77913 8.60655,-15.44073 3.61567,-5.6616 6.68682,-12.99595 6.82476,-16.29855 0.13725,-3.3026 2.05213,-6.00473 4.25393,-6.00473 2.20174,0 2.98718,-1.01598 1.74538,-2.25776 -1.24167,-1.24175 -0.34336,-4.56455 1.99677,-7.38399 2.33992,-2.81943 5.80068,-9.89102 7.69058,-15.71464 1.93158,-5.95188 6.28481,-11.13472 9.94157,-11.83603 4.82313,-0.925 5.95223,0.19398 4.36632,4.3267 -1.85243,4.82762 -1.11517,5.00925 5.50408,1.35592 6.6316,-3.6601 6.84844,-4.38508 1.63832,-5.4779 -7.18936,-1.508 -7.91801,-12.05326 -1.21719,-17.6145101 2.63319,-2.18535 15.91016,-4.30450004 29.50438,-4.70923004 21.68067,-0.64547 25.14598,0.10706 28.21109,6.12668004 1.92197,3.7744001 6.78777,9.6986701 10.81309,13.1650301 4.02532,3.46637 5.71629,5.50782 3.75775,4.53656 -3.37898,-1.67565 -5.40595,1.99618 -15.18979,27.51623 -2.29944,5.9978 -6.45338,11.77717 -9.23102,12.84305 -2.77762,1.06587 -4.08921,3.49293 -2.91462,5.39346 1.17464,1.90054 0.40924,3.45551 -1.70077,3.45551 -2.11,0 -2.88199,1.54407 -1.71563,3.43127 1.1664,1.8872 0.24613,3.43128 -2.04504,3.43128 -2.79077,0 -2.37856,1.98179 1.24898,6.00473 4.64645,5.15287 4.76135,7.22168 0.80978,14.582895 -2.53262,4.71801 -5.50191,8.19217 -6.59841,7.72037 -5.71126,-2.45741 -8.81476,0.25597 -12.75466,11.15164 -2.38849,6.6052 -5.57658,12.00946 -7.08464,12.00946 -1.50816,0 -2.55914,1.15817 -2.33565,2.57348 1.11745,7.0765 -1.03647,10.88919 -7.26888,12.86727 -3.7744,1.19797 -6.91166,4.77615 -6.97166,7.95158 -0.0595,3.17542 -2.37613,8.77075 -5.14691,12.43405 -2.7708,3.66329 -5.0378,10.22561 -5.0378,14.58291 0,4.35731 -1.40842,7.92238 -3.12966,7.92238 -1.72136,0 -4.15813,6.0874 -5.41515,13.52757 -1.25699,7.44014 -4.46388,15.33546 -7.12636,17.54515 -2.66251,2.20974 -3.99474,5.38671 -2.96055,7.06008 1.03418,1.67332 -0.0122,3.04249 -2.32531,3.04249 -2.31309,0 -3.30768,0.89807 -2.2102,1.9954 1.09755,1.09755 -0.40763,7.65983 -3.34478,14.58291 -2.93717,6.92308 -5.7499,17.99168 -6.25052,24.59688 -0.50051,6.6052 -1.23709,12.7815 -1.63649,13.7251 -0.3994,0.9436 -0.54352,2.87369 -0.32002,4.28909 0.22417,1.41551 -1.22886,2.57346 -3.22744,2.57346 -1.9986,0 -2.90979,1.17143 -2.02491,2.60317 0.88481,1.43175 0.39734,9.22806 -1.08336,17.32514 -2.30918,12.62798 -1.8991,14.54702 2.88277,13.49163 3.06618,-0.67665 5.168,-3.13133 4.67072,-5.45472 -1.08955,-5.09034 5.89413,-18.97211 8.32271,-16.54352 0.9436,0.9436 0.0412,4.84233 -2.00295,8.66383 -2.27196,4.24538 -2.46184,7.72487 -0.48792,8.94485 1.89795,1.17304 0.60344,9.63316 -3.13811,20.50791 -3.50285,10.18118 -5.5045,19.37551 -4.4481,20.4319 1.05638,1.05638 0.0503,4.17545 -2.23765,6.9312 -2.975,3.58465 -3.14849,6.89746 -0.60962,11.64122 1.95171,3.64694 2.47663,7.70279 1.16641,9.01304 -1.31029,1.31029 -1.90733,13.70913 -1.32676,27.55301 0.69357,16.53632 -0.58675,28.52706 -3.73225,34.95505 -3.671093,7.50212 -5.685754,33.80324 -2.589327,33.80324 0.585146,0 1.339337,4.59091 4.790787,29.16583 1.19271,8.4924 3.09215,18.37644 4.22088,21.96452 1.52212,4.83826 0.72057,6.01276 -3.10226,4.54582 -3.72666,-1.43015 -4.69318,-0.21274 -3.48915,4.39041 0.91593,3.50262 3.63009,5.61445 6.03141,4.693 2.40132,-0.92142 5.42569,1.08611 6.72081,4.46106 1.29519,3.37507 0.76243,6.66731 -1.18402,7.3161 -2.15484,0.71828 -1.4528,4.36334 1.79547,9.32053 6.76748,10.32847 6.62714,8.93744 1.80988,17.93877 -2.61483,4.88585 -2.83832,7.72036 -0.6087,7.72036 1.95102,0 2.94927,4.9759 2.23696,11.15164 -0.7073,6.1334 0.2594,13.07286 2.1482,15.42102 1.88903,2.34815 2.70508,8.08456 1.81378,12.74759 -0.89145,4.66299 -0.34656,8.91809 1.21078,9.4557 1.55734,0.53757 3.26296,4.83771 3.79037,9.55571 0.5275,4.718 2.19601,9.49026 3.70817,10.60497 2.29475,1.69162 4.44886,11.24161 5.59252,24.79349 0.13039,1.54064 4.36506,2.31279 9.41116,1.71564 10.28953,-1.21765 31.01964,15.36604 29.27669,23.42075 -0.5545,2.56264 0.60344,4.65935 2.57345,4.65935 1.97001,0 3.58168,2.99701 3.58168,6.66004 0,3.66302 1.71907,7.72249 3.8201,9.021 2.10109,1.29862 6.80552,9.11003 10.45439,17.35888 3.64886,8.24885 8.09643,14.99792 9.88346,14.99792 3.55055,0 2.86763,9.62415 -1.13804,16.03887 -1.38394,2.21615 -0.56707,4.6967 1.81492,5.51225 2.3821,0.8155 2.01507,1.10762 -0.81573,0.64897 -2.8308,-0.45865 -8.23506,-1.92678 -12.00946,-3.2625 -4.83119,-1.70969 -5.50619,-1.45738 -2.28042,0.8521 2.52018,1.80439 4.42259,4.27312 4.22758,5.48601 -0.7972,4.95894 4.13265,19.33077 6.631,19.33077 1.47797,0 3.65616,3.86018 4.84032,8.57818 1.18402,4.718 4.43968,8.57819 7.23452,8.57819 2.79484,0 5.08153,1.61613 5.08153,3.59158 0,5.52222 37.84414,44.12659 52.4508,53.50445 11.65503,7.48285 12.45175,8.88 7.74669,13.5851 -2.88446,2.88442 -6.6937,4.34875 -8.46497,3.25408 -1.77123,-1.0948 -4.19037,-0.42113 -5.37573,1.49695 -1.18539,1.91786 -4.47134,3.48723 -7.30212,3.48723 -2.90261,0 -4.11886,-1.66348 -2.78919,-3.81489 1.29679,-2.09811 0.42616,-5.00872 -1.93478,-6.46788 -5.69587,-3.52024 -16.52104,5.8685 -22.19618,19.25088 -3.97191,9.36605 -6.16339,10.66962 -17.76858,10.56933 -7.28082,-0.0618 -17.08568,-1.07719 -21.78859,-2.25389 z M 96.632677,730.31566 c -1.086341,-2.8308 -3.542996,-5.14691 -5.459363,-5.14691 -2.008439,0 -1.674919,2.18023 0.787363,5.14691 2.349348,2.8308 4.806071,5.14691 5.459363,5.14691 0.653314,0 0.298978,-2.31611 -0.787363,-5.14691 z m -4.672114,-17.35888 c 0,-2.94218 -1.544073,-4.39512 -3.431263,-3.22876 -1.8872,1.1664 -3.431274,3.5736 -3.431274,5.34942 0,1.7758 1.544074,3.22876 3.431274,3.22876 1.887178,0 3.431263,-2.40724 3.431263,-5.34942 z m -4.49768,-13.97712 c 1.182189,-3.08078 0.361657,-8.4641 -1.823379,-11.9629 -2.185035,-3.4988 -4.02191,-9.08453 -4.081935,-12.41273 -0.1098,-6.07768 -7.527643,-18.06076 -11.180394,-18.06076 -1.075132,0 1.902985,9.49399 6.617967,21.09774 6.853672,16.86697 7.665557,21.673 4.04872,23.96639 -3.57708,2.26807 -3.60373,2.87962 -0.128101,2.92118 2.418225,0.0275 5.364042,-2.46811 6.546253,-5.54892 z m 21.654047,-91.98735 c 0,-0.8322 -1.54407,-2.46743 -3.43127,-3.63379 -1.8872,-1.1664 -3.43127,-0.48541 -3.43127,1.5132 0,1.9986 1.54407,3.63378 3.43127,3.63378 1.8872,0 3.43127,-0.68099 3.43127,-1.51319 z M 83.235851,587.68069 c -3.226655,-5.22082 -8.382007,-3.62606 -6.248784,1.93295 1.082224,2.81996 3.374955,4.25732 5.09519,3.19417 1.720212,-1.06323 2.239249,-3.3704 1.153594,-5.12721 z m -5.000372,-11.56984 c 0,-2.71943 -1.544074,-5.89871 -3.431274,-7.06507 -1.887201,-1.1664 -3.431274,1.05867 -3.431274,4.9444 0,3.88578 1.544073,7.06506 3.431274,7.06506 1.8872,0 3.431274,-2.22506 3.431274,-4.94439 z m 8.578184,-84.26872 c 1.166405,-1.8872 -0.377668,-3.43128 -3.431274,-3.43128 -3.053559,0 -4.597632,1.54408 -3.431273,3.43128 1.166404,1.8872 2.710431,3.43127 3.431273,3.43127 0.720797,0 2.26487,-1.54407 3.431274,-3.43127 z m -1.458291,-14.6687 c -0.424334,-4.10277 -5.130738,-3.30823 -6.605202,1.11516 -0.754881,2.26464 0.480378,3.4999 2.745019,2.74502 2.264641,-0.75488 4.001712,-2.49195 3.860183,-3.86018 z m 15.955568,-91.70077 c -0.28433,-3.7744 -1.897719,-6.86255 -3.585128,-6.86255 -1.6875,0 -2.228498,-2.18824 -1.202089,-4.86294 1.026408,-2.67461 -0.224177,-5.66528 -2.780202,-6.6459 -7.162589,-2.74856 -8.761723,6.38467 -2.646541,15.11531 3.014694,4.30406 3.77694,6.77224 1.693905,5.48485 -2.083012,-1.28741 -4.757221,-0.77135 -5.942589,1.1465 -1.240062,2.00661 1.482768,3.48725 6.412194,3.48725 6.452236,0 8.43981,-1.69436 8.0505,-6.86255 z m 2.65908,-24.01892 c -1.1664,-1.8872 -3.5736,-3.43127 -5.349423,-3.43127 -1.775799,0 -3.22876,1.54407 -3.22876,3.43127 0,1.8872 2.407244,3.43127 5.349403,3.43127 2.94218,0 4.39514,-1.54407 3.22878,-3.43127 z m -2.50119,-13.08407 c 0.83586,-2.50741 -0.73292,-3.27425 -4.074639,-1.99196 -2.988502,1.14673 -5.433628,3.59261 -5.433628,5.43518 0,4.51002 7.798531,1.6859 9.508267,-3.44328 z m 11.07938,-14.36613 c 0,-1.8872 -1.63512,-3.43127 -3.63379,-3.43127 -1.9986,0 -2.67948,1.54407 -1.51319,3.43127 1.1664,1.8872 2.80154,3.43128 3.63379,3.43128 0.83219,0 1.51319,-1.54408 1.51319,-3.43128 z M 71.372931,306.55335 c 0,-1.8872 -1.544073,-3.43127 -3.431274,-3.43127 -1.887201,0 -3.431274,1.54407 -3.431274,3.43127 0,1.8872 1.544073,3.43128 3.431274,3.43128 1.887201,0 3.431274,-1.54408 3.431274,-3.43128 z M 59.991784,206.40304 c -1.095263,-2.73724 -1.908475,-1.92425 -2.073176,2.07295 -0.148688,3.61714 0.662007,5.64372 1.802105,4.50355 1.140098,-1.1401 1.262023,-4.09966 0.270842,-6.57661 z m 54.900376,-24.01891 c -1.09527,-2.73724 -1.90848,-1.92426 -2.07295,2.07317 -0.14869,3.61714 0.66201,5.64372 1.8021,4.50355 1.1401,-1.1401 1.26203,-4.09966 0.27085,-6.57661 z m 24.9855,-57.46271 c 4.21098,-7.86828 4.82829,-20.2512 0.7725,-15.49475 -1.52875,1.79273 -4.58382,7.50592 -6.78898,12.69572 -4.55484,10.71962 0.51514,13.07832 6.01653,2.79903 z m 15.56147,-34.538315 c 1.16641,-1.8872 0.48541,-3.43127 -1.51319,-3.43127 -1.9986,0 -3.63379,1.54407 -3.63379,3.43127 0,1.8872 0.68099,3.43128 1.51319,3.43128 0.8322,0 2.46743,-1.54407 3.63379,-3.43128 z m 13.08663,-34.62997 c 0.94131,-3.59992 0.31202,-6.54531 -1.39836,-6.54531 -1.7106,0 -3.11004,2.31611 -3.11004,5.14691 0,2.8308 -2.31611,5.14691 -5.14691,5.14691 -2.8308,0 -5.14691,1.39952 -5.14691,3.11004 0,5.79267 13.0786,-0.26723 14.80226,-6.85855 z M 115.97948,294.54389 c 0,-2.8308 0.60688,-5.14691 1.34849,-5.14691 0.74161,0 2.23742,2.31611 3.32358,5.14691 1.08634,2.8308 0.47946,5.14691 -1.34849,5.14691 -1.82796,0 -3.32358,-2.31611 -3.32358,-5.14691 z"
     id="path3809"
     inkscape:connector-curvature="0" />
</svg>
