<?xml version="1.0" encoding="UTF-8" standalone="no"?>
<!-- Created with Inkscape (http://www.inkscape.org/) -->

<svg
   xmlns:dc="http://purl.org/dc/elements/1.1/"
   xmlns:cc="http://creativecommons.org/ns#"
   xmlns:rdf="http://www.w3.org/1999/02/22-rdf-syntax-ns#"
   xmlns:svg="http://www.w3.org/2000/svg"
   xmlns="http://www.w3.org/2000/svg"
   xmlns:sodipodi="http://sodipodi.sourceforge.net/DTD/sodipodi-0.dtd"
   xmlns:inkscape="http://www.inkscape.org/namespaces/inkscape"
   version="1.1"
   id="svg61"
   width="558.86377"
   height="929.99902"
   viewBox="0 0 558.86377 929.99903"
   sodipodi:docname="smbl_8.svg"
   inkscape:version="0.92.3 (2405546, 2018-03-11)">
  <metadata
     id="metadata67">
    <rdf:RDF>
      <cc:Work
         rdf:about="">
        <dc:format>image/svg+xml</dc:format>
        <dc:type
           rdf:resource="http://purl.org/dc/dcmitype/StillImage" />
        <dc:title></dc:title>
      </cc:Work>
    </rdf:RDF>
  </metadata>
  <defs
     id="defs65" />
  <sodipodi:namedview
     pagecolor="#ffffff"
     bordercolor="#666666"
     borderopacity="1"
     objecttolerance="10"
     gridtolerance="10"
     guidetolerance="10"
     inkscape:pageopacity="0"
     inkscape:pageshadow="2"
     inkscape:window-width="1916"
     inkscape:window-height="1041"
     id="namedview63"
     showgrid="false"
     fit-margin-top="0"
     fit-margin-left="0"
     fit-margin-right="0"
     fit-margin-bottom="0"
     inkscape:zoom="0.45041646"
     inkscape:cx="406.22483"
     inkscape:cy="474.76675"
     inkscape:window-x="0"
     inkscape:window-y="18"
     inkscape:window-maximized="0"
     inkscape:current-layer="svg61"
     inkscape:measure-start="355.227,620.537"
     inkscape:measure-end="485.107,527.29" />
  <path
     style="fill:#000000;stroke-width:4.19938707"
     d="m 122.35149,465.96226 c 40.94878,-16.68427 62.55389,-20.75804 34.89958,-34.19209 C 132.53262,415.53978 39.354498,360.1444 45.920902,228.8322 50.559211,102.14306 135.34103,7.8495334 276.83177,0 c 168.31891,1.4782202 250.62635,93.625839 251.47448,227.15306 -18.98991,160.9499 -95.29829,189.67581 -122.2107,210.8333 -12.38488,5.06131 -7.94971,11.94347 22.65819,27.96604 C 561.91547,481.37197 692.40873,916.18213 278.65357,929.97957 -6.8599706,932.92644 -97.227359,599.9645 122.35149,465.96226 Z m 155.58568,57.26151 C 76.932323,524.672 32.965528,794.03866 278.27853,826.44592 554.68666,800.97745 458.65132,515.16434 277.93717,523.22377 Z m 0.76103,-422.68778 c -207.362325,27.81158 -141.8359,282.06454 0.90703,280.7011 137.22678,12.10256 251.19706,-270.4494 -0.90703,-280.7011 z"
     id="path71"
     inkscape:connector-curvature="0"
     sodipodi:nodetypes="ccccccccccccccc" />
</svg>
