<?xml version="1.0" encoding="UTF-8" standalone="no"?>
<!-- Created with Inkscape (http://www.inkscape.org/) -->

<svg
   xmlns:dc="http://purl.org/dc/elements/1.1/"
   xmlns:cc="http://creativecommons.org/ns#"
   xmlns:rdf="http://www.w3.org/1999/02/22-rdf-syntax-ns#"
   xmlns:svg="http://www.w3.org/2000/svg"
   xmlns="http://www.w3.org/2000/svg"
   xmlns:sodipodi="http://sodipodi.sourceforge.net/DTD/sodipodi-0.dtd"
   xmlns:inkscape="http://www.inkscape.org/namespaces/inkscape"
   version="1.1"
   id="svg752"
   width="875.17841"
   height="895.92999"
   viewBox="0 0 875.17839 895.92999"
   sodipodi:docname="smbl_asterisk.jpg.svg"
   inkscape:version="0.92.3 (2405546, 2018-03-11)">
  <metadata
     id="metadata758">
    <rdf:RDF>
      <cc:Work
         rdf:about="">
        <dc:format>image/svg+xml</dc:format>
        <dc:type
           rdf:resource="http://purl.org/dc/dcmitype/StillImage" />
        <dc:title></dc:title>
      </cc:Work>
    </rdf:RDF>
  </metadata>
  <defs
     id="defs756" />
  <sodipodi:namedview
     pagecolor="#ffffff"
     bordercolor="#666666"
     borderopacity="1"
     objecttolerance="10"
     gridtolerance="10"
     guidetolerance="10"
     inkscape:pageopacity="0"
     inkscape:pageshadow="2"
     inkscape:window-width="1916"
     inkscape:window-height="1041"
     id="namedview754"
     showgrid="false"
     inkscape:zoom="0.33974271"
     inkscape:cx="755.68932"
     inkscape:cy="191.57375"
     inkscape:window-x="0"
     inkscape:window-y="18"
     inkscape:window-maximized="0"
     inkscape:current-layer="svg752"
     fit-margin-top="0"
     fit-margin-left="0"
     fit-margin-right="0"
     fit-margin-bottom="0"
     inkscape:measure-start="694.114,221.659"
     inkscape:measure-end="221.659,291.382" />
  <path
     style="fill:#000000;stroke-width:19.05271912"
     d="M 576.59221,840.6232 C 554.88398,801.6231 501.65713,718.54596 451.0006,592.61142 440.57914,566.70319 435.29468,571.9295 423.95625,590.69062 346.42833,715.549 315.77487,779.74476 264.01222,859.23891 203.51704,951.94961 33.092305,838.22513 118.69674,743.05463 183.61496,672.55666 231.74758,620.32819 298.26272,561.18996 334.22274,523.28817 330.84103,512.52625 297.42165,508.44359 196.34599,495.68242 149.73389,475.81814 89.986905,454.18439 -70.902518,413.90372 7.5442819,239.39997 141.02097,293.51383 c 110.19867,53.6326 80.14775,41.9758 137.87743,70.17376 94.68195,32.69405 113.86552,56.08821 104.61902,-25.30965 L 366.31695,93.582024 c -9.7353,-139.11827 177.36441,-110.67018 159.61684,3.756468 -5.77447,105.103048 -20.86724,221.082028 -22.72661,241.949628 -5.2618,59.05277 -16.7525,67.81822 52.71984,30.01519 29.30324,-15.94521 154.88465,-63.4519 183.95654,-75.58766 148.7166,-57.0493 191.73661,127.47313 42.72738,159.06657 -63.16157,19.74634 -127.43712,42.06251 -170.03196,51.07157 -87.19334,14.46538 -50.52664,46.13522 -25.35181,77.10257 40.89767,53.90007 109.02145,110.39418 148.02155,156.01092 C 816.70934,841.1881 655.91441,972.1395 576.59221,840.6232 Z"
     id="path762"
     inkscape:connector-curvature="0"
     sodipodi:nodetypes="cscccccccccccsscccccc" />
</svg>
