<?xml version="1.0" encoding="UTF-8" standalone="no"?>
<!-- Created with Inkscape (http://www.inkscape.org/) -->

<svg
   xmlns:dc="http://purl.org/dc/elements/1.1/"
   xmlns:cc="http://creativecommons.org/ns#"
   xmlns:rdf="http://www.w3.org/1999/02/22-rdf-syntax-ns#"
   xmlns:svg="http://www.w3.org/2000/svg"
   xmlns="http://www.w3.org/2000/svg"
   xmlns:sodipodi="http://sodipodi.sourceforge.net/DTD/sodipodi-0.dtd"
   xmlns:inkscape="http://www.inkscape.org/namespaces/inkscape"
   id="svg4451"
   version="1.1"
   inkscape:version="0.91 r13725"
   width="816.08209"
   height="930"
   viewBox="0 0 816.08209 929.99999"
   sodipodi:docname="smbl_percent.svg">
  <metadata
     id="metadata4457">
    <rdf:RDF>
      <cc:Work
         rdf:about="">
        <dc:format>image/svg+xml</dc:format>
        <dc:type
           rdf:resource="http://purl.org/dc/dcmitype/StillImage" />
        <dc:title></dc:title>
      </cc:Work>
    </rdf:RDF>
  </metadata>
  <defs
     id="defs4455" />
  <sodipodi:namedview
     pagecolor="#ffffff"
     bordercolor="#666666"
     borderopacity="1"
     objecttolerance="10"
     gridtolerance="10"
     guidetolerance="10"
     inkscape:pageopacity="0"
     inkscape:pageshadow="2"
     inkscape:window-width="1650"
     inkscape:window-height="1037"
     id="namedview4453"
     showgrid="false"
     fit-margin-top="0"
     fit-margin-left="0"
     fit-margin-right="0"
     fit-margin-bottom="0"
     inkscape:zoom="0.64692985"
     inkscape:cx="406.60843"
     inkscape:cy="431.59091"
     inkscape:window-x="140"
     inkscape:window-y="0"
     inkscape:window-maximized="0"
     inkscape:current-layer="svg4451" />
  <path
     style="fill:#000000"
     d="m 179.41182,927.43591 c -1.34126,-2.17024 -0.50981,-2.65732 1.94566,-1.13972 2.35841,1.45764 4.28787,0.99264 4.28787,-1.03299 0,-2.02563 -3.12221,-4.67389 -6.93826,-5.88503 -9.62414,-3.0546 -20.34856,-15.65244 -21.01399,-24.68497 -0.30554,-4.14887 4.22944,-12.66593 10.07798,-18.92683 7.04935,-7.54634 9.8918,-13.72099 8.43266,-18.31834 -1.21053,-3.81419 -0.46946,-6.93492 1.6468,-6.93492 2.11625,0 2.91547,-2.42947 1.77605,-5.39879 -1.13947,-2.96931 0.58434,-9.19081 3.8306,-13.8255 4.79997,-6.85289 5.90232,-7.23189 5.90232,-2.02935 0,3.5186 -2.08902,6.44825 -4.64254,6.5104 -2.5534,0.0619 -1.29991,2.02984 2.78552,4.37293 4.08544,2.34305 9.38055,6.88564 11.76694,10.09481 6.64329,8.93373 9.03466,3.05432 3.27395,-8.04945 -3.76596,-7.25885 -3.97298,-10.30606 -0.78862,-11.60781 3.24191,-1.32516 3.24765,-1.8382 0.023,-2.05831 -2.4884,-0.17085 -3.4433,-3.54958 -2.27026,-8.03524 1.39326,-5.32829 2.89741,-6.3298 4.82413,-3.21231 4.59859,7.44069 12.33915,-11.04251 13.2995,-31.75705 1.21498,-26.20839 5.07852,-39.6225 14.07276,-48.86108 13.87146,-14.24829 16.54302,-18.77993 19.09693,-32.39351 1.38138,-7.36352 3.80572,-12.58842 5.38738,-11.61088 1.58168,0.97753 4.94382,-3.21539 7.47139,-9.31759 2.52765,-6.10218 6.06425,-11.09488 7.85914,-11.09488 1.79487,0 3.26345,-3.00836 3.26345,-6.68525 0,-3.6769 2.00557,-8.69084 4.45683,-11.1421 2.45127,-2.45126 3.08228,-4.45684 1.40218,-4.45684 -1.67998,0 -0.98917,-2.4886 1.53488,-5.53017 2.5243,-3.04156 5.9842,-4.66824 7.68867,-3.61481 1.70449,1.05354 2.49137,-1.24024 1.74856,-5.09684 -0.7428,-3.8567 3.51578,-14.34706 9.46335,-23.31191 5.94756,-8.96486 10.82088,-18.47753 10.82965,-21.13931 0.007,-2.66177 4.19418,-10.98848 9.30097,-18.50382 5.1068,-7.51529 9.28508,-16.78396 9.28508,-20.597 0,-3.8131 4.59612,-11.36383 10.21359,-16.77953 5.61747,-5.41568 17.7345,-24.88849 26.92673,-43.27295 9.19226,-18.38446 18.67695,-34.69264 21.07711,-36.24043 2.40025,-1.54776 6.39927,-8.9812 8.88686,-16.5186 2.48756,-7.53746 8.46254,-17.95318 13.27766,-23.14612 4.81517,-5.19291 8.75482,-11.32252 8.75482,-13.62128 0,-2.29874 3.46392,-8.5833 7.69762,-13.96558 4.2337,-5.38225 6.32284,-9.81153 4.64254,-9.8428 -1.68023,-0.0297 -1.13921,-1.28481 1.20211,-2.78553 5.68321,-3.64262 32.80391,-55.57045 36.24236,-69.39316 2.84532,-11.43815 17.94487,-28.00216 25.61575,-28.10019 3.19073,-0.0396 3.09438,-0.91761 -0.3402,-3.09671 -3.68113,-2.33538 -1.74461,-8.68095 8.35657,-27.38357 7.23137,-13.38904 13.14797,-26.78659 13.14797,-29.7723 0,-2.98574 4.70322,-11.94678 10.45158,-19.91347 5.74835,-7.96668 14.50386,-22.62913 19.4566,-32.58324 4.95273,-9.95412 11.11307,-18.90732 13.68962,-19.89604 2.57652,-0.98868 4.68461,-4.28003 4.68461,-7.31404 0,-3.034 3.34262,-9.76585 7.42806,-14.95963 4.08543,-5.1938 7.42806,-11.72482 7.42806,-14.51344 0,-2.78858 1.80403,-5.07017 4.00915,-5.07017 2.52086,0 3.10223,-4.129122 1.56608,-11.123382 -2.12096,-9.65674 -1.14862,-11.61556 7.37473,-14.85613 14.45883,-5.49724 26.85119,-4.56186 35.29006,2.66372 7.36886,6.30943 10.6044,14.54893 4.14563,10.55721 -1.82854,-1.13018 -4.28317,0.44249 -5.45445,3.49484 -1.17141,3.05234 -0.41226,5.549712 1.68691,5.549712 2.09917,0 2.71422,1.7838 1.36676,3.96402 -1.34893,2.18273 1.05603,4.88079 5.35185,6.00421 7.89744,2.06525 11.11728,12.31595 3.86853,12.31595 -2.16329,0 -2.98848,1.5287 -1.83374,3.39683 1.15457,1.86816 0.50585,3.95738 -1.44154,4.64254 -1.94739,0.68511 -4.52626,7.09531 -5.73065,14.24482 -2.94233,17.4664 -13.29772,44.45697 -17.2776,45.03267 -1.76515,0.25528 -4.88076,0.88221 -6.92347,1.39276 -2.04272,0.51081 -4.96752,1.16299 -6.49956,1.44971 -1.53216,0.28673 -0.42538,2.01524 2.45943,3.84125 4.45749,2.82168 4.36288,4.20211 -0.63014,9.19505 -4.38882,4.38882 -6.34602,4.70895 -7.73722,1.2655 -1.14541,-2.835 -1.97512,-2.22644 -2.15538,1.58069 -0.16094,3.4045 1.29546,6.74713 3.2374,7.42806 1.94194,0.68091 0.12628,5.41627 -4.03629,10.52307 -4.16184,5.10679 -6.32809,6.93771 -4.81383,4.06869 1.89416,-3.58872 1.31427,-4.32709 -1.85825,-2.36633 -2.53629,1.56757 -3.80272,5.94257 -2.81427,9.72237 0.98843,3.77979 -0.43801,8.7273 -3.1697,10.99447 -2.7318,2.2673 -3.94653,6.78108 -2.69949,10.03091 1.45813,3.80015 0.78144,4.9904 -1.89663,3.3353 -2.61988,-1.61907 -5.86517,3.10448 -8.75145,12.73809 -2.52309,8.42137 -9.04312,20.08134 -14.48888,25.91106 -6.92917,7.41772 -8.72819,11.77271 -5.99303,14.50788 2.73516,2.73516 1.17685,3.92545 -5.19101,3.96524 -6.12476,0.0371 -7.54059,1.04588 -4.33103,3.08245 6.03704,3.83063 1.85504,15.43084 -5.56307,15.43084 -3.40617,0 -4.74693,2.14745 -3.45034,5.52647 1.16646,3.03962 0.92752,5.34866 -0.5311,5.13124 -7.35272,-1.09589 -8.66051,1.10108 -4.15757,6.98394 2.73616,3.57475 3.51239,5.26055 1.72505,3.74626 -1.78744,-1.51433 -5.49278,-0.89186 -8.23411,1.38336 -5.75014,4.77216 -6.82721,12.23251 -1.2702,8.79809 2.04272,-1.26252 3.71403,-0.63807 3.71403,1.38756 0,2.02564 -3.25735,4.7168 -7.23852,5.98034 -4.37963,1.39004 -6.42302,4.42267 -5.17369,7.67836 1.13575,2.95952 0.21541,5.38092 -2.04644,5.38092 -2.26135,0 -4.1114,3.44127 -4.1114,7.64726 0,4.20599 -1.48265,6.73094 -3.29472,5.61101 -1.81195,-1.1199 -3.06556,0.87057 -2.78553,4.42334 0.29118,3.69395 -1.93278,6.29555 -5.19446,6.07643 -3.13707,-0.21047 -5.91839,2.29626 -6.18075,5.57104 -1.29966,16.22193 -2.95723,22.09413 -6.06397,21.48184 -1.8741,-0.36918 -4.25086,1.65027 -5.28187,4.48803 -1.30165,3.58263 -0.33129,4.20567 3.17512,2.03851 2.77736,-1.71638 1.26005,1.81121 -3.37202,7.8396 -16.08534,20.93444 -26.47963,38.33386 -28.03962,46.93682 -1.36206,7.51104 -7.09989,19.35756 -22.95886,47.40122 -2.12244,3.7532 -6.08754,9.50921 -8.81134,12.79115 -2.72375,3.28194 -3.9937,5.96716 -2.82209,5.96716 1.17165,0 -1.05008,7.10309 -4.93682,15.78464 -3.88683,8.68155 -9.23687,15.78894 -11.88898,15.79424 -2.65212,0.004 -4.97926,2.51224 -5.17142,5.57105 -0.59375,9.45389 -8.55181,25.98861 -12.50797,25.98861 -2.06574,0 -6.34923,6.20624 -9.51864,13.79168 -3.16941,7.58542 -7.98351,16.35982 -10.69797,19.49867 -2.71451,3.13883 -4.60139,9.46744 -4.19307,14.06355 0.43157,4.85768 -1.33036,8.35657 -4.208,8.35657 -2.72268,0 -4.71125,1.25361 -4.419,2.78553 1.03745,5.43848 -8.74315,26.92672 -12.25596,26.92672 -1.96348,0 -2.4468,1.81716 -1.07434,4.03792 1.65447,2.6769 -1.60917,3.61581 -9.68204,2.78553 -7.41335,-0.76237 -12.78449,0.56478 -13.72882,3.39267 -0.94064,2.81679 0.57494,3.82911 3.85091,2.57206 7.14691,-2.74251 11.07371,8.11761 6.21664,17.19312 -4.83896,9.04169 -7.12447,9.20805 -4.80803,0.34986 1.13327,-4.33417 -0.21542,-6.80908 -3.70765,-6.80908 -3.06343,0 -4.64382,2.20069 -3.57698,4.98074 1.05132,2.73939 -0.55141,8.73912 -3.56116,13.3327 -3.00985,4.59362 -4.89517,13.62515 -4.1896,20.07006 0.80718,7.37332 -1.21697,14.80505 -5.45901,20.04384 -5.22693,6.45498 -6.74186,6.982 -6.74186,2.34528 0,-3.28929 2.22842,-6.83567 4.95207,-7.8808 2.72362,-1.04513 4.92644,-4.87754 4.89517,-8.51642 -0.0446,-5.17744 -0.75767,-5.50969 -3.28011,-1.52795 -2.60678,4.11499 -4.0505,3.75981 -7.54855,-1.85702 -3.99152,-6.40921 -4.15568,-6.32133 -2.12715,1.13872 2.72313,10.01484 -7.15738,34.73268 -13.72451,34.33417 -3.73575,-0.2278 -3.77875,-0.7183 -0.19065,-2.16652 2.55339,-1.03027 4.63397,-6.33017 4.62352,-11.77739 -0.0186,-9.39616 -0.48827,-9.14217 -9.16915,4.95204 -10.18818,16.54148 -11.22467,20.42717 -5.44876,20.42717 2.1633,0 2.90029,-1.67131 1.63789,-3.71403 -1.26252,-2.04272 0.31025,-3.71403 3.49483,-3.71403 3.18463,0 5.79025,0.99536 5.79025,2.21208 0,4.98665 -15.68148,23.77743 -19.75157,23.66794 -2.41437,-0.0644 -1.16893,-2.55471 2.7673,-5.5327 3.93633,-2.97801 6.07465,-6.49688 4.75181,-7.81969 -1.32294,-1.32269 -7.51044,3.06014 -13.75026,9.73985 -7.7757,8.32393 -10.74214,14.61899 -9.42862,20.00842 1.05405,4.32487 0.95352,5.76388 -0.22284,3.19774 -1.1771,-2.56613 -3.92674,-3.56139 -6.11062,-2.21159 -2.5793,1.59407 -2.86904,0.62619 -0.82699,-2.76239 2.67752,-4.44268 2.21183,-4.46036 -3.14016,-0.11885 -7.38954,5.99412 -8.40607,13.2249 -1.48586,10.56936 6.44223,-2.47206 19.2598,6.93997 13.93368,10.23167 -2.19821,1.35859 -3.16864,3.81029 -2.15637,5.44818 1.0122,1.63789 -1.19344,6.47613 -4.9015,10.7516 -5.12784,5.91245 -7.77706,6.73859 -11.06502,3.45064 -3.28796,-3.28796 -5.39005,-3.2559 -8.77982,0.1337 -3.46643,3.46643 -2.84743,4.46947 2.78552,4.51371 6.03592,0.0471 6.31435,0.65664 1.67132,3.65716 -3.06408,1.98008 -4.25876,3.62591 -2.65484,3.65718 1.60396,0.0297 1.23677,3.19496 -0.81585,7.03044 -4.21941,7.88402 -21.48243,12.57809 -25.04694,6.81059 z m 13.66162,-58.23602 c 0,-4.97318 -1.78175,-6.62779 -5.57105,-5.17367 -3.06407,1.17586 -5.57105,4.46598 -5.57105,7.31152 0,2.84549 2.50698,5.17367 5.57105,5.17367 3.06541,0 5.57105,-3.2884 5.57105,-7.31152 z m 18.57016,-9.83478 c 0,-0.78316 -3.34263,-1.42396 -7.42807,-1.42396 -4.08543,0 -7.42806,1.51483 -7.42806,3.36633 0,1.85157 3.34263,2.49224 7.42806,1.42396 4.08544,-1.06841 7.42807,-2.58324 7.42807,-3.36633 z m 85.42272,-109.13075 c 0,-2.04272 -1.76986,-3.71403 -3.93323,-3.71403 -2.1633,0 -2.90029,1.67131 -1.63789,3.71403 1.26252,2.04272 3.03243,3.71403 3.93323,3.71403 0.90078,0 1.63789,-1.67131 1.63789,-3.71403 z m 29.71225,-40.85434 c 0,-2.04272 -0.73711,-3.71404 -1.63788,-3.71404 -0.90078,0 -2.67076,1.67132 -3.93324,3.71404 -1.26252,2.04271 -0.52541,3.71403 1.63789,3.71403 2.1633,0 3.93323,-1.67132 3.93323,-3.71403 z m 3.71404,-37.14032 c 0,-2.04272 -0.73712,-3.71403 -1.63789,-3.71403 -0.90078,0 -2.67076,1.67131 -3.93324,3.71403 -1.26252,2.04272 -0.52541,3.71403 1.63789,3.71403 2.1633,0 3.93324,-1.67131 3.93324,-3.71403 z m 18.57015,-29.71225 c 0,-2.04272 -1.76986,-3.71403 -3.93323,-3.71403 -2.1633,0 -2.90029,1.67131 -1.63789,3.71403 1.26253,2.04271 3.03243,3.71403 3.93324,3.71403 0.90077,0 1.63788,-1.67132 1.63788,-3.71403 z m -12.31904,-30.40864 c -1.18552,-2.9628 -2.06575,-2.08282 -2.24377,2.24377 -0.16094,3.91519 0.71656,6.10882 1.95061,4.87467 1.23405,-1.2343 1.36602,-4.43752 0.29291,-7.11856 z m 22.45526,-27.54575 c -1.2343,-1.23405 -4.43753,-1.36603 -7.11857,-0.29317 -2.9628,1.18552 -2.08282,2.06575 2.24402,2.24378 3.91519,0.16094 6.10882,-0.71657 4.87467,-1.95061 z m 8.43394,-11.15502 c 0,-3.07384 -7.21166,-4.81208 -8.86507,-2.13681 -1.07261,1.73569 0.48307,3.15561 3.45739,3.15561 2.9742,0 5.40768,-0.45855 5.40768,-1.01888 z m 2.86288,-17.0097 c -0.80867,-2.42576 -3.45593,-5.07238 -5.88305,-5.88139 -2.71405,-0.90474 -3.54408,0.79332 -2.15612,4.41041 2.59061,6.75102 10.26736,8.15572 8.03909,1.47101 z m 60.73652,-133.99916 c -3.66805,-3.64072 -4.09465,-3.21413 -2.07912,2.07911 1.39475,3.66285 3.47146,5.72414 4.61499,4.58062 1.14342,-1.14343 0.002,-4.14036 -2.53587,-6.65973 z M 581.18971,137.41915 c -1.26252,-2.04272 -4.28592,-3.68843 -6.71876,-3.65716 -2.65778,0.0347 -2.19969,1.49378 1.14764,3.65716 7.1351,4.61107 8.42082,4.61107 5.57105,0 z m -7.42806,766.95366 c -14.93301,-4.98594 -20.9484,-9.15719 -18.6256,-12.91554 1.05751,-1.71118 -1.44699,-2.22991 -5.56567,-1.15284 -5.9921,1.56708 -6.98018,0.63386 -4.94501,-4.66968 1.80823,-4.71233 1.21523,-5.80711 -2.05188,-3.78794 -2.95843,1.8283 -5.32189,0.0619 -6.63539,-4.96177 -2.09224,-8.00072 -8.60192,-10.92831 -8.60192,-3.86853 0,2.1633 -1.51483,2.99705 -3.3661,1.8528 -1.85132,-1.14417 -4.51515,-10.43504 -5.91953,-20.64637 -1.40439,-10.21129 -4.14126,-18.566 -6.0818,-18.566 -1.9407,0 -3.10441,-2.08927 -2.5863,-4.64254 0.51823,-2.5534 -1.239,-8.59028 -3.90463,-13.41531 -2.66569,-4.82499 -4.09344,-12.71315 -3.17275,-17.52926 0.92058,-4.81606 0.24512,-7.87278 -1.50369,-6.79267 -1.74758,1.08005 -3.1775,-0.64178 -3.1775,-3.82641 0,-3.18464 -2.08902,-5.92599 -4.64254,-6.09191 -2.5534,-0.16589 0.3714,-2.7536 6.49955,-5.75046 8.65206,-4.2311 9.20902,-5.05427 2.49217,-3.68335 -6.22271,1.26995 -8.10511,0.34541 -6.70821,-3.29467 1.06791,-2.78305 -0.0545,-5.87178 -2.49217,-6.86382 -3.29538,-1.34052 -3.24178,-1.87906 0.20799,-2.09695 2.5534,-0.16094 4.64254,-3.84048 4.64254,-8.17602 0,-6.94892 -0.77004,-7.28653 -6.49956,-2.84955 -5.82035,4.50735 -5.79663,4.20698 0.2278,-2.87407 4.54508,-5.34293 5.31515,-8.37789 2.3745,-9.35814 -5.29925,-1.7664 -6.86048,-57.2076 -1.90678,-67.70994 2.55854,-5.42439 2.20935,-6.40195 -1.47398,-4.1256 -3.26211,2.01598 -4.21929,1.31056 -2.95243,-2.17617 1.03101,-2.83775 3.75481,-4.74171 6.05288,-4.23103 5.32733,1.18379 5.51326,-5.43556 0.20303,-7.20586 -2.45943,-0.81981 -4.02301,-15.45693 -4.0994,-38.3783 -0.19808,-59.35756 -0.22531,-59.11476 6.30806,-53.69168 3.11343,2.58393 6.73461,3.62423 8.04705,2.31186 1.31254,-1.31254 0.25775,-2.38614 -2.34405,-2.38614 -2.67893,0 -3.80327,-2.4161 -2.59257,-5.57105 1.17586,-3.06407 0.51898,-5.57104 -1.45961,-5.57104 -5.30909,0 -4.37743,-12.75656 2.11724,-28.98807 4.29558,-10.73578 7.75401,-14.21286 13.92762,-14.00279 5.81268,0.19808 8.56196,-2.1789 9.40702,-8.13217 0.65664,-4.62642 2.74589,-7.45258 4.64254,-6.28035 4.95024,3.05939 4.25341,-8.26115 -1.02928,-16.71988 -3.63854,-5.8262 -3.3401,-8.42691 1.59233,-13.87723 6.08737,-6.72648 6.59934,-8.06252 6.59934,-17.22182 0,-2.71889 3.99434,-7.08112 8.87629,-9.69387 4.88194,-2.61274 11.01396,-8.74476 13.6267,-13.6267 3.58949,-6.7071 8.0007,-8.94792 18.05045,-9.1695 7.315,-0.16094 11.01782,-1.20063 8.22848,-2.30939 -8.56715,-3.40609 20.29258,-25.77288 39.61914,-30.70553 9.59686,-2.44928 21.14962,-5.92187 25.67279,-7.71667 4.98812,-1.97933 9.09302,-1.85726 10.43279,0.31049 1.21474,1.96572 0.0223,3.59957 -2.65291,3.63084 -3.53273,0.0421 -3.33886,1.04092 0.70938,3.65716 8.03056,5.18974 11.1421,4.54417 11.1421,-2.31186 0,-4.93521 1.00823,-5.18897 5.57105,-1.40217 4.49137,3.72752 5.58209,3.63571 5.62792,-0.47367 0.047,-4.19306 0.64896,-4.16174 3.39492,0.1758 1.83597,2.90066 10.31862,5.92448 18.85037,6.71965 23.66469,2.20564 31.69136,6.59899 38.58081,21.11746 3.47138,7.31538 10.42955,17.74406 15.46256,23.17479 5.03303,5.43069 8.28142,10.74353 7.21869,11.80632 -1.06271,1.0627 -4.51419,-1.28828 -7.66985,-5.22468 -5.48689,-6.84427 -5.5606,-6.79183 -1.6879,1.19963 2.22718,4.59612 6.329,8.35657 9.11497,8.35657 8.01384,0 20.66941,28.33274 22.08438,49.44166 0.90399,13.48642 2.74613,18.92643 6.13907,18.12985 3.74,-0.878 3.64322,0.34144 -0.42365,5.33793 -4.71197,5.78891 -4.53461,6.19948 1.67156,3.87004 5.80615,-2.17914 6.66285,-1.14169 5.23295,6.33834 -1.12387,5.8785 0.63386,10.63345 5.12786,13.87253 8.61071,6.20627 8.74657,10.63043 0.33798,11.00978 -5.17711,0.23275 -5.36603,0.72473 -0.92851,2.41387 6.26119,2.38342 11.02833,8.43771 11.02833,14.00601 0,2.23015 -1.0902,2.12195 -2.72863,-0.27063 -1.50072,-2.19177 -5.33122,-4.9404 -8.51214,-6.10819 -4.92114,-1.80676 -5.43709,0.57716 -3.46014,15.98729 1.27788,9.96086 0.81337,19.62061 -1.032,21.46612 -1.99791,1.9979 -0.6611,8.41153 3.30444,15.85284 7.28007,13.66103 9.15576,32.77098 3.25726,33.18559 -2.04272,0.14361 -0.3714,1.69732 3.71403,3.45296 4.08543,1.7555 5.70156,3.30943 3.59139,3.45299 -2.11006,0.14361 -3.60795,4.85716 -3.32841,10.47463 0.77004,15.47263 -2.02662,19.9809 -10.91638,17.59743 -7.52589,-2.01771 -7.50242,-1.87831 0.47564,2.82467 6.51218,3.83892 7.39716,5.9426 3.95015,9.38962 -6.3512,6.35119 -8.05237,20.71535 -2.1685,18.31106 20.37594,-8.32621 19.76773,-8.55968 10.73766,4.12188 -4.63006,6.50231 -6.51377,11.82239 -4.18609,11.82239 2.57195,0 2.04668,2.18558 -1.33878,5.57104 -3.06408,3.06408 -7.46038,5.57105 -9.76959,5.57105 -2.30914,0 -3.22714,1.57178 -2.03999,3.49265 1.18725,1.9209 -1.25262,6.67057 -5.42182,10.55478 -4.16922,3.88426 -10.56431,15.53535 -14.21134,25.89141 -3.64703,10.35608 -8.83413,21.48389 -11.5269,24.72849 -2.69274,3.24458 -3.43783,5.92485 -1.65571,5.95612 1.78224,0.0297 1.56633,1.28481 -0.47961,2.78552 -2.04593,1.50072 -6.0484,7.24917 -8.89424,12.77419 -2.84584,5.52507 -10.36413,12.51904 -16.7072,15.54216 -6.34312,3.02315 -14.54018,11.11966 -18.21561,17.99225 -3.67548,6.8726 -12.44988,15.60146 -19.49867,19.3975 -7.04883,3.79604 -12.81601,8.31 -12.81601,10.03103 0,1.72108 -3.34263,3.12919 -7.42806,3.12919 -4.08543,0 -7.42806,1.49007 -7.42806,3.31138 0,3.3748 -17.83352,9.65304 -23.60364,8.30963 -1.74708,-0.40681 -5.50751,1.19518 -8.35657,3.55958 -3.87136,3.21293 -5.18011,3.22318 -5.18011,0.0396 0,-2.66177 -5.56837,-3.87675 -14.85068,-3.24032 -8.1679,0.56008 -14.85315,2.09497 -14.85612,3.41087 -0.007,3.31619 -14.49884,2.07491 -27.86069,-2.38639 z m 21.77091,-13.32248 c 1.30362,0.17332 2.00186,-0.93618 1.55147,-2.46834 -1.07954,-3.67333 -11.19377,-1.35661 -15.89439,3.64079 -2.53872,2.69898 -2.24501,3.11904 0.9285,1.32739 2.67876,-1.51235 4.66661,-0.56453 4.69942,2.24055 0.047,3.93138 0.65862,3.91264 3.20077,-0.099 1.72926,-2.72788 4.21053,-4.81702 5.51415,-4.64254 z m -13.98819,-7.6847 c 1.64185,-2.65665 1.01889,-3.27971 -1.63788,-1.63789 -2.35841,1.45764 -4.2879,0.78143 -4.2879,-1.50245 0,-2.28388 -1.74461,-3.07425 -3.87671,-1.75649 -2.1321,1.31774 -6.35087,0.34244 -9.37483,-2.16701 -3.02397,-2.5097 -6.44115,-3.61999 -7.59371,-2.46736 -1.9677,1.9677 15.97435,13.34697 21.55455,13.67031 1.41158,0.0817 3.75888,-1.78075 5.21641,-4.13916 z m 51.9778,-3.68387 c 1.13179,-1.83102 -3.07707,-2.93795 -9.3528,-2.45968 -6.27569,0.47812 -11.41039,1.97636 -11.41039,3.32923 0,3.71881 18.40377,2.9482 20.76319,-0.86958 z m -87.6662,-13.38394 c -8.92964,-28.09756 -13.97352,-38.706 -16.4771,-34.65511 -1.47521,2.38689 -0.8463,6.55175 1.39747,9.25535 3.03166,3.65289 2.63679,6.113 -1.53736,9.57715 -7.61256,6.31781 -7.10153,14.9071 0.8827,14.83726 4.40058,-0.0396 5.06361,-0.96961 2.05311,-2.88358 -2.44556,-1.55469 -3.17718,-4.88051 -1.62575,-7.39075 1.884,-3.04848 4.88237,-0.24017 9.02896,8.4546 7.41395,15.54726 10.80966,17.06451 6.2779,2.80508 z m 46.47583,-67.78107 c -1.26252,-2.04272 -0.62395,-3.71403 1.41876,-3.71403 2.04272,0 4.90342,1.92461 6.35716,4.27668 1.82755,2.95726 4.31846,2.09793 8.07344,-2.78553 3.80191,-4.94446 5.95218,-5.67003 7.17066,-2.41956 1.18997,3.1748 11.00596,4.64254 31.04767,4.64254 28.22136,0 29.50325,-0.37883 34.59355,-10.22236 2.90742,-5.6223 9.0872,-13.56104 13.73293,-17.64162 4.64571,-4.08061 7.09113,-5.11333 5.4343,-2.29502 -2.02861,3.45068 -1.41381,4.59153 1.88177,3.49297 2.69183,-0.89731 6.68489,-4.87452 8.87357,-8.83838 2.18855,-3.96384 4.81502,-8.04266 5.83637,-9.06402 1.02136,-1.02136 1.98206,-3.52833 2.13508,-5.57105 0.57765,-7.71892 9.8327,-27.78346 12.15439,-26.35043 1.33309,0.82278 2.91834,-6.0105 3.52283,-15.18512 0.84779,-12.86721 -0.001,-16.01936 -3.71403,-13.78658 -3.6656,2.2044 -3.86274,1.61783 -0.82674,-2.46092 3.81611,-5.1269 3.84835,-60.63075 0.0545,-94.49224 -4.60486,-41.10349 -8.75234,-64.02939 -12.76609,-70.5666 -1.25411,-2.04272 -2.52834,-8.20928 -2.83141,-13.70349 -0.5883,-10.66591 -13.74045,-30.32829 -17.66289,-26.4059 -1.29248,1.29248 -2.34999,0.22037 -2.34999,-2.38045 0,-2.6017 -2.22892,-3.87514 -4.95294,-2.82979 -3.50099,1.34349 -4.76549,-1.2494 -4.31365,-8.84482 0.51106,-8.58944 -0.35803,-9.9176 -4.33217,-6.61954 -2.73427,2.26927 -4.9714,6.14969 -4.9714,8.62319 0,2.47354 -2.48045,4.49729 -5.51207,4.49729 -4.45966,0 -4.63694,-1.06072 -0.92851,-5.55604 4.9908,-6.04964 3.93148,-5.74692 -16.77212,4.79328 -7.66019,3.89981 -13.92762,8.3195 -13.92762,9.82161 0,1.50195 -5.43177,3.91214 -12.0706,5.35571 -6.63883,1.44352 -16.05895,6.59032 -20.93362,11.43721 -4.87466,4.84688 -12.39558,8.87173 -16.71314,8.94413 -7.35702,0.1238 -7.26687,0.46797 1.43486,5.48785 9.19002,5.30143 9.15553,5.33216 -3.37071,3.00111 -11.4848,-2.1373 -12.46872,-1.63987 -10.63399,5.37636 1.40762,5.38309 0.54398,7.16434 -2.84398,5.86428 -2.67621,-1.0268 -6.72413,1.60496 -8.99539,5.84893 -2.27125,4.24388 -2.81724,7.76926 -1.21325,7.83423 1.60397,0.0644 0.40929,2.15414 -2.65486,4.64254 -3.06408,2.48843 -5.97477,10.37404 -6.46821,17.52355 -0.49347,7.14951 -1.38583,18.01305 -1.98305,24.1412 -0.59721,6.12815 0.0817,15.64657 1.5079,21.15208 1.64804,6.35976 1.03275,10.53035 -1.68716,11.43701 -3.20625,1.06866 -3.16163,3.88421 0.17827,11.21309 3.25,7.13302 3.33736,10.47909 0.32189,12.34257 -2.7622,1.70721 -1.86272,4.21921 2.70693,7.5607 3.76395,2.75227 4.8528,5.00414 2.41957,5.00414 -2.43319,0 -4.42391,1.76986 -4.42391,3.93323 0,2.1633 1.25361,3.15789 2.78552,2.21034 3.48664,-2.15661 2.34802,29.40949 -1.27217,35.26696 -1.69038,2.73511 -1.03201,3.29888 1.80477,1.54553 2.45621,-1.51804 7.14302,-1.73272 10.41526,-0.47688 5.12543,1.96695 4.74749,3.5626 -2.72848,11.52041 -6.69576,7.12732 -7.67121,10.24414 -4.27039,13.64498 3.40086,3.40086 4.40766,2.82402 4.40766,-2.52522 0,-11.32396 3.44407,-4.44481 5.39208,10.77007 0.99412,7.76517 4.6213,16.1759 8.06027,18.69052 3.43897,2.51462 5.06299,6.49693 3.60902,8.84955 -1.45392,2.35246 -0.92603,4.27745 1.17314,4.27745 2.09917,0 2.85465,2.50697 1.67874,5.57102 -1.39251,3.62858 0.10152,5.57105 4.28535,5.57105 4.51218,0 5.39134,1.38112 2.95501,4.64253 -3.00634,4.02438 -3.45836,8.42974 -1.61957,15.78464 0.25528,1.02136 1.39846,1.85701 2.54047,1.85701 1.14194,0 1.04315,-1.67131 -0.21789,-3.71403 z m 79.85168,-312.19783 c 0,-2.1633 1.67132,-2.90029 3.71403,-1.63789 2.04272,1.26252 3.71404,3.03243 3.71404,3.93323 0,0.90078 -1.67132,1.63789 -3.71404,1.63789 -2.04271,0 -3.71403,-1.76986 -3.71403,-3.93323 z m -141.1332,286.19961 c 0,-2.04272 -1.57276,-3.71401 -3.49483,-3.71401 -1.92213,0 -4.52777,1.67131 -5.79024,3.71401 -1.26253,2.04271 0.31024,3.71403 3.49482,3.71403 3.18464,0 5.79025,-1.67132 5.79025,-3.71403 z M 499.48102,586.81697 c 1.26252,-2.04271 0.52541,-3.71403 -1.63789,-3.71403 -2.1633,0 -3.93324,1.67132 -3.93324,3.71403 0,2.04272 0.73712,3.71404 1.63789,3.71404 0.90078,0 2.67076,-1.67132 3.93324,-3.71404 z M 698.1817,473.53901 c -2.54294,-3.06408 -6.29486,-5.57105 -8.33758,-5.57105 -2.07168,0 -1.66958,2.4634 0.90945,5.57105 2.54297,3.06408 6.29488,5.57105 8.3376,5.57105 2.07169,0 1.66958,-2.4634 -0.90944,-5.57105 z m -160.70921,-0.387 c -1.23405,-1.23405 -4.43753,-1.36602 -7.11859,-0.29292 -2.96278,1.18552 -2.08283,2.06575 2.24402,2.24378 3.91518,0.16094 6.10879,-0.71657 4.87467,-1.95061 z m 200.35776,-37.34008 c -1.34398,-1.34423 -0.79282,-4.43305 1.22489,-6.86433 4.49002,-5.4101 -8.59932,-18.71181 -14.70177,-14.94028 -5.57464,3.44533 -1.09589,9.51309 5.2301,7.0856 3.43496,-1.31823 4.80061,0.29168 4.07612,4.80477 -1.15952,7.22298 0.6512,12.35802 4.35763,12.35802 1.24123,0 1.15704,-1.0996 -0.1857,-2.44383 z M 630.45691,394.44705 c 2.66704,-8.00114 -8.74489,-4.72024 -17.97903,5.16892 l -9.00398,9.64271 12.74589,-5.16896 c 7.01021,-2.84292 13.41691,-7.1821 14.23712,-9.64267 z M 232.37252,862.9594 c -3.14992,-8.20853 -0.51278,-10.12809 4.92038,-3.58151 2.63745,3.1779 3.00831,6.20483 0.91835,7.49647 -1.92783,1.19147 -4.55533,-0.57022 -5.8388,-3.91496 z m 20.12542,-5.01815 c 2.18658,-4.08543 4.81104,-7.42806 5.83239,-7.42806 1.02136,0 0.0669,3.34263 -2.11848,7.42806 -2.18657,4.08544 -4.81106,7.42806 -5.83241,7.42806 -1.02136,0 -0.0669,-3.34262 2.11848,-7.42806 z M 315.63648,731.6642 c 0,-2.04271 1.76986,-3.71403 3.93323,-3.71403 2.1633,0 2.90029,1.67132 1.63789,3.71403 -1.26252,2.04272 -3.03243,3.71404 -3.93323,3.71404 -0.90078,0 -1.63789,-1.67132 -1.63789,-3.71404 z M 128.07789,594.24504 c -1.26253,-2.04272 -0.52541,-3.71403 1.63788,-3.71403 2.1633,0 3.93324,1.67131 3.93324,3.71403 0,2.04271 -0.73711,3.71403 -1.63789,3.71403 -0.90078,0 -2.67073,-1.67132 -3.93321,-3.71403 z m 24.19808,-4.13184 c -0.0396,-4.17583 -2.87328,-5.67964 -9.36028,-4.96754 -5.11685,0.56156 -8.40597,-0.43083 -7.30911,-2.20564 1.09687,-1.77481 4.44772,-2.28537 7.44638,-1.13476 2.99864,1.15061 5.4521,0.24265 5.4521,-2.01919 0,-4.98025 -13.55183,-5.51247 -16.55685,-0.65021 -1.24198,2.00954 -6.39609,1.24049 -12.28981,-1.83423 -5.58288,-2.91215 -12.52606,-5.30532 -15.4293,-5.3179 -2.90321,-0.0111 -8.618379,-2.94768 -12.700349,-6.52244 -7.13285,-6.24653 -7.3164,-6.21038 -4.71496,0.92851 2.17171,5.95954 1.78224,6.51025 -1.97017,2.78552 -2.57227,-2.55339 -8.00468,-4.64253 -12.07199,-4.64253 -7.29773,0 -7.30018,-0.0693 -0.1857,-5.32102 8.06303,-5.95105 4.62585,-12.25891 -7.72613,-14.17884 -4.04176,-0.62817 -9.4378,-2.44606 -11.9912,-4.03951 -2.8208,-1.76045 -4.66485,-0.98941 -4.69939,1.96448 -0.0421,3.57706 -0.97283,3.41344 -3.52288,-0.61925 -2.63298,-4.16366 -0.38774,-7.24014 9.34195,-12.80064 15.38444,-8.79215 16.70691,-14.8993 2.59435,-11.98072 -5.61747,1.16175 -8.12444,1.20359 -5.57104,0.0941 2.55339,-1.11049 4.64254,-3.81017 4.64254,-5.99927 0,-2.18905 -3.34263,-0.95525 -7.42807,2.74214 -5.24238,4.7443 -7.42806,5.27799 -7.42806,1.81369 0,-2.69976 -1.07385,-3.83484 -2.38639,-2.52238 -4.14585,4.14585 6.36347,13.35561 12.87142,11.27974 5.13715,-1.63863 5.28727,-1.32021 0.8572,1.81864 -3.49604,2.47689 -7.69859,2.55951 -12.03886,0.2377 -9.87137,-5.28502 -22.36733,-32.92762 -21.98796,-48.6422 0.18323,-7.55137 -1.25138,-14.70797 -3.18589,-15.90359 -1.93452,-1.19567 -2.56771,-4.64855 -1.40713,-7.67324 1.16076,-3.02465 0.45658,-7.56726 -1.56459,-10.09461 -2.0211802,-2.5274 -3.7589702,-21.30841 -3.8618002,-41.73559 -0.10152,-20.42717 -1.80279,-43.40774 -3.77762,-51.06793 -1.97487,-7.66019 -2.51319,-13.93091 -1.19617,-13.935 1.317,-0.004 2.74965,-5.07794 3.18385,-11.27533 0.46524,-6.63987 -0.71681,-10.33711 -2.87756,-9.00164 -4.75193,2.93685 -2.79587005,-6.71133 2.08803,-10.29953 2.30022,-1.68989 1.94664,-2.75029 -0.92851,-2.78553 -2.5534,-0.0322 -4.61694005,-3.81733 -4.58567004572,-8.41344 C 0.04735075,289.43657 0.74613075,288.90354 3.6575108,293.40848 c 3.81208,5.89878 4.10705,5.10643 5.18464,-13.92762 0.37586,-6.63883 -0.73563,-12.0706 -2.46983,-12.0706 -1.73421,0 -1.85355,-2.08902 -0.26518,-4.64254 1.58837,-2.55339 3.14135,-12.16345 3.45105,-21.35568 0.30975,-9.19223 1.9055502,-20.89143 3.5463102,-25.99822 2.80758,-8.73825 2.56258,-8.95698 -4.1603602,-3.71403 -6.77081,5.28031 -6.85289,5.18343 -1.57252,-1.85702 3.0640702,-4.08541 7.7520702,-9.14412 10.4177302,-11.24153 5.81442,-4.57492 11.65542,-28.0099 11.77786,-47.25448 0.0545,-8.64027 2.76933,-16.60833 7.15001,-20.98903 3.88379,-3.88376 8.17156,-10.55914 9.5284,-14.83414 1.35686,-4.275 4.50918,-9.87175 7.00521,-12.43724 2.49602,-2.56549 8.54913,-11.349782 13.4513,-19.520652 9.91332,-16.52329 27.71797,-35.2833 33.486479,-35.2833 2.06129,0 3.74783,-2.50697 3.74783,-5.57105 0,-3.06407 2.3282,-5.57104 5.17369,-5.57104 2.84552,0 6.17636,-2.61291 7.40184,-5.80645 1.22538,-3.19355 3.76851,-4.85445 5.6512,-3.69089 1.88276,1.16356 4.2695,0.016 5.30406,-2.55012 1.03448,-2.56613 2.06599,-1.32306 2.2923,2.76238 0.38427,6.93838 0.73389,7.00324 5.30472,0.98387 2.69136,-3.54431 8.85168,-6.88694 13.68958,-7.42806 13.05046,-1.45972 22.74562,-10.50879 17.73172,-16.55014 -3.04206,-3.66548 -2.55225,-4.8609000000001 1.99172,-4.8609000000001 3.43627,0 6.02581,3.0213900000001 6.02581,7.0307100000001 0,3.86688 2.64365,8.04517 5.87481,9.28507 8.81293,3.38185 10.94676,2.7342 6.30031,-1.91223 -5.05963,-5.05964 -2.08357,-14.4035500000001 4.58767,-14.4035500000001 3.05759,0 4.17192,3.0621300000001 3.04102,8.3565700000001 -1.54776,7.24661 -1.13179,7.60596 3.13323,2.70538 2.70498,-3.10815 8.2608,-5.28549 12.34624,-4.83852 4.08543,0.44697 11.22964,1.25963 15.87605,1.80589 4.66606,0.54859 7.70013,2.94213 6.77744,5.34665 -1.0434,2.71929 0.96193,3.66497 5.3429,2.51936 5.68393,-1.48638 6.71413,-0.17456 5.43445,6.91993 -1.52176,8.43687 -1.38236,8.49283 3.85076,1.54457 2.98637,-3.96516 5.42976,-5.27111 5.42976,-2.90207 0,2.36903 2.3495,3.40571 5.22126,2.30374 5.92457,-2.27349 21.38005,9.39831 18.53681,13.99877 -1.02285,1.65495 1.02433,1.90233 4.54904,0.54972 4.87472,-1.8706 5.84871,-0.99989 4.06914,3.63763 -1.28678,3.35329 -0.71408,7.10156 1.27293,8.32949 1.98676,1.22793 2.6429,3.80124 1.45788,5.71848 -1.18478,1.91723 0.45905,6.09942 3.65347,9.29373 3.19431,3.19431 5.80785,10.5236 5.80785,16.28729 0,5.7637 2.33365,11.375 5.1862,12.46957 7.73856,2.96956 10.93042,34.286892 10.26573,100.722352 -0.43875,43.84425 0.61183,59.97097 4.04844,62.15316 3.26531,2.07342 2.62456,2.96362 -2.16181,3.00364 -5.62505,0.047 -6.49933,2.3069 -5.05076,13.05598 1.00403,7.45072 0.14608,12.99911 -2.0088,12.99911 -2.15463,0 -1.78595,2.37921 0.8629,5.57105 3.66745,4.41903 3.67191,5.57104 0.0223,5.57104 -2.77342,0 -3.83014,2.95145 -2.65947,7.42807 1.0684,4.08543 0.44692,7.42806 -1.38088,7.42806 -1.8278,0 -2.74096,7.52091 -2.0291,16.71314 0.71186,9.19223 -0.14361,16.71314 -1.9001,16.71314 -1.75673,0 -3.19414,2.60562 -3.19414,5.79025 0,3.18464 1.68394,4.74948 3.74223,3.47743 2.16454,-1.3378 1.91323,1.70177 -0.59622,7.20886 -2.38614,5.23693 -5.48332,9.52168 -6.8827,9.52168 -1.39944,0 -2.22792,4.59612 -1.84141,10.21359 0.3865,5.61747 -0.92504,12.31875 -2.91485,14.89168 -1.98973,2.57294 -2.73813,11.23532 -1.66314,19.24971 1.45788,10.8702 0.53061,15.11808 -3.65116,16.72277 -3.38983,1.3009 -4.86085,4.99901 -3.72149,9.35589 1.03622,3.9627 0.80793,7.70283 -0.50709,8.31146 -1.31526,0.60861 -6.35221,8.6275 -11.19342,17.81972 -4.84124,9.19223 -13.52635,25.48755 -19.30029,36.21181 -5.77395,10.72427 -9.33388,19.60459 -7.91093,19.73409 1.42297,0.12875 -1.31329,1.79858 -6.08049,3.7094 -4.76718,1.91074 -7.97321,5.55718 -7.12451,8.1033 1.77531,5.32622 -19.11436,27.4952 -24.37018,25.86251 -1.92387,-0.59771 -2.63362,2.21926 -1.57698,6.2597 1.16299,4.44738 -0.23522,8.17384 -3.54326,9.44327 -7.9538,3.05215 -8.54537,2.75693 -8.82226,-4.40268 -0.20056,-5.17474 -1.07286,-4.79621 -4.28159,1.85701 -2.21653,4.59612 -5.54477,8.35657 -7.39587,8.35657 -1.85108,0 -2.33266,-1.67131 -1.07039,-3.71403 1.26253,-2.04272 0.38626,-3.71403 -1.94739,-3.71403 -2.3334,0 -3.4767,-2.08902 -2.54047,-4.64254 0.93619,-2.5534 4.00034,-4.10534 6.80906,-3.44875 3.89196,0.90969 4.07939,0.14856 0.78787,-3.20471 -4.98965,-5.08115 -12.39466,-1.73743 -12.39466,5.59645 0,3.17559 -2.71424,4.29433 -7.42807,3.06165 -4.31741,-1.12907 -7.42806,-0.1139 -7.42806,2.42402 0,2.40149 1.67131,3.33347 3.71403,2.07095 4.72866,-2.92248 4.72866,5.68202 0,12.99911 -3.14004,4.85884 -3.60756,4.80543 -3.65716,-0.41771 z m -29.76913,-27.04008 c 0,-0.80272 -2.59378,-2.45497 -5.76395,-3.67149 -3.30522,-1.26822 -4.79603,-0.64575 -3.49486,1.45961 2.18113,3.52915 9.25881,5.21993 9.25881,2.21183 z m 56.99528,-52.54567 c -1.2078,-3.14765 -0.73761,-5.45668 1.04513,-5.13124 8.20687,1.49825 12.11361,-0.75568 10.1553,-5.85898 -2.92921,-7.63342 -10.05398,-6.9854 -17.84444,1.62303 -6.90002,7.62444 -5.11655,15.09016 3.60487,15.09016 3.18946,0 4.37708,-2.23634 3.03919,-5.72292 z m -32.85408,-12.84723 c 1.26253,-2.04272 5.95721,-3.84601 10.43277,-4.00727 4.51733,-0.16342 5.9499,-1.1672 3.22024,-2.25813 -2.73705,-1.09366 6.58931,-7.68971 21.03521,-14.87703 30.80625,-15.32721 31.00003,-15.68051 40.34827,-73.56545 0.98967,-6.12816 3.73134,-13.48798 6.0926,-16.35519 2.36113,-2.86723 3.77041,-8.299 3.13145,-12.0706 -0.63907,-3.77162 0.1956,-6.85744 1.85726,-6.85736 3.35944,1.4e-4 4.08041,-12.06912 4.40553,-73.75074 0.15104,-28.56162 1.76144,-44.04648 4.98894,-47.95788 3.78494,-4.58688 3.8105,-6.09836 0.1238,-7.3391 -4.91183,-1.65324 -6.61155,-19.51369 -1.85702,-19.51369 2.54152,0 3.1936,-18.4497 0.88617,-25.06969 -0.53408,-1.53216 -1.42297,-7.79947 -1.97562,-13.92762 -0.55264,-6.12815 -1.73915,-14.48476 -2.63669,-18.57019 -0.89929,-4.09249 1.03028,-9.45977 4.29687,-11.95247 5.28028,-4.02946 5.11627,-4.55029 -1.49923,-4.76067 -7.32977,-0.23275 -7.33267,-0.30827 -0.21789,-5.68916 3.96517,-2.99913 5.21866,-5.45294 2.78552,-5.45294 -2.62592,0 -4.44701,-5.66048 -4.48076,-13.92762 -0.0322,-7.66019 -1.2848,-15.7583 -2.78552,-17.99583 -3.87413,-5.776032 -27.86876,-8.902482 -49.06112,-6.392562 -14.65802,1.73601 -17.626,3.27077 -15.7549,8.146822 2.0244,5.27572 1.08252,5.20659 -7.72944,-0.56725 -11.00985,-7.213922 -13.06059,-6.246132 -4.62964,2.18484 4.73098,4.73097 4.03601,5.67908 -5.57105,7.6005 -10.73058,2.14622 -12.84547,6.55341 -11.83592,24.66513 0.26766,4.8015 -0.29292,4.76931 -4.05746,-0.23274 -5.22965,-6.94812 -23.82511,-7.65324 -26.37816,-1.00007 -0.99388,2.59012 -0.0297,5.80738 2.14126,7.14951 2.17147,1.34201 2.51643,3.48478 0.76633,4.76146 -1.75005,1.27664 -6.43097,6.15366 -10.40189,10.83767 -5.655429,6.6711 -5.938009,8.02454 -1.30412,6.24638 10.37951,-3.983 10.81162,4.78657 0.6304,12.79508 -5.401739,4.249 -7.668909,7.72548 -5.038159,7.72548 2.70642,0 1.21102,3.09817 -3.44432,7.13567 -5.97946,5.18595 -8.37539,11.66931 -8.76873,23.72825 -0.39467,12.10307 -1.87286,16.08156 -5.46279,14.70398 -3.96993,-1.5235 -4.08524,-0.052 -0.59648,7.60418 2.43616,5.34702 3.05524,12.43473 1.41728,16.22916 -5.26066,12.1869 -5.92829,83.43586 -0.84061,89.72216 3.34505,4.13322 3.39482,4.9792 0.17827,3.04984 -3.19558,-1.91744 -4.28166,1.54553 -3.85333,12.28616 0.32807,8.22591 1.49477,14.95871 2.59272,14.96183 3.08457,0.007 2.35865,36.15037 -0.78911,39.29987 -4.78313,4.78538 -3.06088,8.97449 3.71403,9.03377 4.78033,0.0421 5.23827,0.85719 1.73123,3.08244 -5.0157,3.18256 -2.38936,15.43084 3.30869,15.43084 1.82408,0 3.11874,1.25361 2.87686,2.78552 -1.21696,7.70714 1.19815,11.41208 8.79639,13.49434 6.021999,1.65027 7.038949,3.1423 3.640139,5.34061 -3.595999,2.32572 -2.685609,5.41387 3.83226,12.99918 4.7018,5.47181 10.16682,9.98592 12.14449,10.03133 1.9776,0.0446 7.77409,3.35087 12.88088,7.34546 10.6043,8.2948 13.48624,8.93524 16.71314,3.71403 z M 68.653361,482.82409 c 1.26252,-2.04272 0.52541,-3.71403 -1.63789,-3.71403 -2.1633,0 -3.93321,1.67131 -3.93321,3.71403 0,2.04272 0.73711,3.71403 1.63789,3.71403 0.90078,0 2.67074,-1.67131 3.93321,-3.71403 z m -1.85702,-22.28419 c 0,-2.04272 -0.73711,-3.71403 -1.63788,-3.71403 -0.90078,0 -2.67074,1.67131 -3.93321,3.71403 -1.26253,2.04272 -0.52541,3.71403 1.63789,3.71403 2.1633,0 3.9332,-1.67131 3.9332,-3.71403 z m 0,-23.922 c 0,-0.90078 -1.67131,-2.67076 -3.71403,-3.93324 -2.04271,-1.26252 -3.71403,-0.52541 -3.71403,1.63789 0,2.1633 1.67132,3.93324 3.71403,3.93324 2.04272,0 3.71403,-0.73712 3.71403,-1.63789 z M 270.3508,384.30398 c -1.14343,-1.14343 -3.22024,0.91786 -4.61498,4.58064 -2.01548,5.29324 -1.58887,5.71983 2.07911,2.07911 2.53824,-2.51937 3.67939,-5.51622 2.53587,-6.65975 z M 48.226191,354.69 c 0,-3.06407 -1.61883,-5.57105 -3.59746,-5.57105 -1.97859,0 -2.63546,2.50698 -1.45962,5.57105 1.17586,3.06408 2.79466,5.57105 3.59746,5.57105 0.80273,0 1.45962,-2.50697 1.45962,-5.57105 z m 7.3205,-16.56807 c 8.84167,-5.59162 2.81063,-6.77286 -7.3205,-1.43386 -5.11772,2.69703 -6.78465,4.89227 -3.71403,4.89113 3.06407,-0.001 8.02963,-1.55692 11.03453,-3.45737 z m -6.1639,-20.62513 c -3.69378,-2.70094 -7.30501,-4.32175 -8.02499,-3.60182 -2.4104,2.41041 8.6848,12.18477 11.7332,10.3364 1.65423,-1.00304 -0.0145,-4.03361 -3.70821,-6.73458 z m 2.55743,-39.79657 c 0,-2.17369 -2.3599,-1.81294 -5.57105,0.85225 -3.06408,2.54297 -5.57105,5.20212 -5.57105,5.90925 0,0.70715 2.50697,0.32361 5.57105,-0.852 3.06408,-1.17586 5.57105,-3.83496 5.57105,-5.90925 z m -1.17685,-18.41441 c -1.18552,-2.96281 -2.06575,-2.08283 -2.24402,2.24402 -0.16094,3.9152 0.71656,6.10881 1.95061,4.87466 1.23405,-1.23405 1.36602,-4.43747 0.29316,-7.11856 z m 10.61472,-55.26118 c 1.34646,-2.17865 1.68419,-4.72494 0.75073,-5.65847 -2.59044,-2.59046 -13.90258,2.53807 -13.90258,6.30293 0,4.64918 10.18872,4.14991 13.15183,-0.64451 z m 36.9876,-118.601932 c 1.26252,-2.04271 0.52541,-3.71403 -1.63789,-3.71403 -2.1633,0 -3.93321,1.67132 -3.93321,3.71403 0,2.04272 0.73711,3.71404 1.63789,3.71404 0.90077,0 2.67076,-1.67132 3.93321,-3.71404 z m 38.560059,-18.84037 c -5.17176,-3.19632 -10.70488,-1.20339 -10.70488,3.85573 0,1.73094 3.48391,2.23607 7.74202,1.12256 5.64506,-1.47623 6.44756,-2.82462 2.96286,-4.97828 z m -29.27506,-1.5868 c 0,-3.06408 -0.65689,-5.57105 -1.45961,-5.57105 -0.80273,0 -2.4218,2.50697 -3.59746,5.57105 -1.17587,3.06407 -0.51898,5.57104 1.45961,5.57104 1.97859,0 3.59746,-2.50697 3.59746,-5.57104 z m 113.27799,-16.71315 c 1.26252,-2.04271 0.62395,-3.71403 -1.41852,-3.71403 -2.04271,0 -4.74695,1.67132 -6.00942,3.71403 -1.26253,2.04272 -0.62396,3.71404 1.41851,3.71404 2.04272,0 4.74695,-1.67132 6.00943,-3.71404 z m 42.71136,0 c 0,-2.04271 -0.73711,-3.71403 -1.63789,-3.71403 -0.90078,0 -2.67076,1.67132 -3.93323,3.71403 -1.26253,2.04272 -0.52542,3.71404 1.63788,3.71404 2.1633,0 3.93324,-1.67132 3.93324,-3.71404 z m 4.9463,-11.40312 c 2.38638,-0.14361 0.9961,-1.60575 -3.08929,-3.24929 -8.22918,-3.31054 -12.99911,-1.7962 -12.99911,4.12688 0,2.14072 2.64365,2.87773 5.87481,1.63781 3.23113,-1.23991 7.82725,-2.37183 10.21359,-2.51541 z M 244.3735,539.71149 c 2.68104,-1.07286 5.88439,-0.94089 7.11856,0.29316 1.23405,1.23405 -0.95946,2.11205 -4.87467,1.95061 -4.32665,-0.17827 -5.2067,-1.05825 -2.24377,-2.24377 z m 0.75321,-7.67648 c 0.10399,-5.0833 6.93154,-13.74831 9.11371,-11.56614 2.92574,2.92574 -1.7347,14.35166 -5.85391,14.35166 -1.82408,0 -3.29108,-1.25361 -3.2598,-2.78552 z m 261.06351,-36.73227 c 0.23522,-4.89064 2.23213,-7.23818 5.19251,-6.10218 2.64627,1.01542 4.8114,-0.004 4.8114,-2.26506 0,-2.26135 -2.08902,-4.13699 -4.64254,-4.16826 -3.13835,-0.0371 -2.86926,-1.17834 0.83046,-3.51801 7.44671,-4.70924 11.74421,2.86845 6.44184,11.35887 -2.26407,3.62542 -5.31059,5.85369 -6.76999,4.95173 -1.45936,-0.90202 -3.4615,0.45954 -4.44913,3.02574 -0.98769,2.56615 -1.62427,1.08896 -1.41455,-3.28283 z m 88.29184,-259.77122 c 0.17827,-4.32665 1.05825,-5.2067 2.24377,-2.24402 1.07286,2.68108 0.94088,5.88444 -0.29317,7.11856 -1.23429,1.23405 -2.11204,-0.95946 -1.9506,-4.87464 z"
     id="path4461"
     inkscape:connector-curvature="0" />
</svg>
