<?xml version="1.0" encoding="UTF-8" standalone="no"?>
<!-- Created with Inkscape (http://www.inkscape.org/) -->

<svg
   xmlns:dc="http://purl.org/dc/elements/1.1/"
   xmlns:cc="http://creativecommons.org/ns#"
   xmlns:rdf="http://www.w3.org/1999/02/22-rdf-syntax-ns#"
   xmlns:svg="http://www.w3.org/2000/svg"
   xmlns="http://www.w3.org/2000/svg"
   xmlns:sodipodi="http://sodipodi.sourceforge.net/DTD/sodipodi-0.dtd"
   xmlns:inkscape="http://www.inkscape.org/namespaces/inkscape"
   id="svg3595"
   version="1.1"
   inkscape:version="0.91 r13725"
   width="774.1864"
   height="930"
   viewBox="0 0 774.1864 930"
   sodipodi:docname="smbl_ampersand.svg">
  <metadata
     id="metadata3601">
    <rdf:RDF>
      <cc:Work
         rdf:about="">
        <dc:format>image/svg+xml</dc:format>
        <dc:type
           rdf:resource="http://purl.org/dc/dcmitype/StillImage" />
        <dc:title />
      </cc:Work>
    </rdf:RDF>
  </metadata>
  <defs
     id="defs3599" />
  <sodipodi:namedview
     pagecolor="#ffffff"
     bordercolor="#666666"
     borderopacity="1"
     objecttolerance="10"
     gridtolerance="10"
     guidetolerance="10"
     inkscape:pageopacity="0"
     inkscape:pageshadow="2"
     inkscape:window-width="1642"
     inkscape:window-height="1036"
     id="namedview3597"
     showgrid="false"
     fit-margin-top="0"
     fit-margin-left="0"
     fit-margin-right="0"
     fit-margin-bottom="0"
     inkscape:zoom="1.3199105"
     inkscape:cx="273.15616"
     inkscape:cy="632.68576"
     inkscape:window-x="153"
     inkscape:window-y="0"
     inkscape:window-maximized="0"
     inkscape:current-layer="svg3595" />
  <path
     style="fill:#000000"
     d="M 632.10876,910.86868 C 590.9456,875.81903 590.94425,865.12138 545.80888,824.02215 533.31978,805.35219 532.87363,804.12426 517.19121,818.13458 57.2476,1138.7749 -202.06907,582.61544 196.0838,433.55997 c 14.53458,-7.14509 2.90416,-11.91071 -5.1133,-20.02666 C 134.27701,345.38971 70.019756,304.29297 56.41641,195.76486 39.88262,-15.629126 354.95339,-65.591796 441.63287,107.79955 c 73.99294,151.89371 43.4409,208.81693 -15.2545,284.91753 -13.48406,11.20885 -41.55356,33.68975 -50.11254,41.1874 -4.69387,5.64924 -4.14065,7.24419 11.3988,21.25469 57.62813,68.20977 63.61187,88.82676 137.40064,176.53856 17.93843,22.18919 16.92383,23.52453 39.85824,0.2996 45.6124,-53.38199 62.55048,-85.25666 107.30319,-144.2583 51.25942,-70.73385 129.76376,-13.77322 92.05313,48.3663 -41.67486,74.29028 -66.73185,96.37333 -119.19993,160.23463 -46.37249,45.35092 -35.30313,29.46531 2.503,78.17827 31.39474,33.97272 37.87378,37.16704 65.85212,73.9893 39.29053,56.77494 -34.24301,111.587 -81.32626,62.36115 z M 435.62172,740.35053 c 28.86256,-19.44732 25.01837,-17.47334 15.02997,-29.35117 C 406.2956,659.49525 386.92663,617.2321 297.5155,519.96041 280.94623,501.68234 280.52048,500.32052 256.17384,514.26051 -61.47018,633.46705 193.56152,948.66624 435.62172,740.35053 Z M 317.86033,370.66533 c 115.93811,-75.2003 94.12818,-160.63181 46.50791,-228.48615 -70.46191,-108.961266 -224.38945,-40.65323 -224.25872,21.9001 -10.11363,61.29867 78.76863,163.8395 138.33895,222.2677 6.7452,8.29227 21.73299,-3.26106 39.41186,-15.68174 z"
     id="path3605"
     inkscape:connector-curvature="0"
     sodipodi:nodetypes="ccccccccccccccccccccccccccscc" />
</svg>
