<?xml version="1.0" encoding="UTF-8" standalone="no"?>
<!-- Created with Inkscape (http://www.inkscape.org/) -->

<svg
   xmlns:dc="http://purl.org/dc/elements/1.1/"
   xmlns:cc="http://creativecommons.org/ns#"
   xmlns:rdf="http://www.w3.org/1999/02/22-rdf-syntax-ns#"
   xmlns:svg="http://www.w3.org/2000/svg"
   xmlns="http://www.w3.org/2000/svg"
   xmlns:sodipodi="http://sodipodi.sourceforge.net/DTD/sodipodi-0.dtd"
   xmlns:inkscape="http://www.inkscape.org/namespaces/inkscape"
   version="1.1"
   id="svg252"
   width="385.65591"
   height="930"
   viewBox="0 0 385.65591 930.00001"
   sodipodi:docname="smbl_1.svg"
   inkscape:version="0.92.3 (2405546, 2018-03-11)">
  <metadata
     id="metadata258">
    <rdf:RDF>
      <cc:Work
         rdf:about="">
        <dc:format>image/svg+xml</dc:format>
        <dc:type
           rdf:resource="http://purl.org/dc/dcmitype/StillImage" />
        <dc:title></dc:title>
      </cc:Work>
    </rdf:RDF>
  </metadata>
  <defs
     id="defs256" />
  <sodipodi:namedview
     pagecolor="#ffffff"
     bordercolor="#666666"
     borderopacity="1"
     objecttolerance="10"
     gridtolerance="10"
     guidetolerance="10"
     inkscape:pageopacity="0"
     inkscape:pageshadow="2"
     inkscape:window-width="1916"
     inkscape:window-height="1041"
     id="namedview254"
     showgrid="false"
     fit-margin-top="0"
     fit-margin-left="0"
     fit-margin-right="0"
     fit-margin-bottom="0"
     inkscape:zoom="0.64920777"
     inkscape:cx="66.546604"
     inkscape:cy="657.39461"
     inkscape:window-x="0"
     inkscape:window-y="18"
     inkscape:window-maximized="0"
     inkscape:current-layer="svg252" />
  <path
     style="fill:#000000;stroke-width:4.20875883"
     d="m 294.78412,929.62841 c -3.45155,-1.14031 -8.58274,-5.08034 -11.40266,-8.75575 -4.4081,-5.74545 -5.16381,-5.79722 -5.38895,-0.36958 -0.23148,5.61167 -0.65867,5.61167 -3.83349,0 -7.25017,-12.81512 -9.975,-26.47635 -4.62088,-23.16732 3.85236,2.38084 3.99706,1.11663 0.59896,-5.2327 -2.46423,-4.60464 -3.44679,-9.40581 -2.18329,-10.66933 1.26341,-1.26342 0.0658,-6.4665 -2.66117,-11.56225 -4.00864,-7.4902 -3.8724,-8.86933 0.71128,-7.19969 3.11832,1.13584 5.19616,4.19592 4.61745,6.80009 -0.5787,2.60417 0.84175,4.73485 3.15657,4.73485 6.15081,0 5.14116,-6.88384 -2.06676,-14.09179 -4.72599,-4.72601 -4.9858,-6.73065 -1.05219,-8.11862 3.90838,-1.37915 3.37487,-5.06145 -2.11911,-14.62733 -6.2296,-10.84668 -6.42157,-13.13769 -1.26658,-15.11589 4.2988,-1.64957 5.34194,-0.23937 3.56643,4.81945 -1.93787,5.52216 -1.3205,6.05515 2.71057,2.33981 2.73673,-103.72148 1.23688,-106.83851 4.32489,-220.35714 0.24727,-8.10186 -0.15257,-22.30642 -0.88699,-31.56569 -0.73548,-9.25927 -0.1552,-24.95173 1.29051,-34.87218 1.44518,-9.92041 0.9467,-19.07601 -1.1077,-20.3458 -2.05439,-1.26973 -2.64625,-5.74037 -1.31497,-9.93469 2.15147,-6.77923 2.4787,-18.53438 1.52436,-54.79694 -0.15257,-5.78704 0.90672,-19.9916 2.35349,-31.56569 1.44676,-11.57409 2.61416,-37.61578 2.5947,-57.87044 -0.0253,-26.4563 1.43229,-36.84478 5.17661,-36.89108 3.78368,-0.0473 3.89313,-0.91198 0.39931,-3.15657 -6.19109,-3.97775 -5.15857,-22.49345 1.65614,-29.6975 7.68864,-8.12801 6.60089,-15.52059 -1.31681,-8.94943 -5.76363,4.78339 -6.22807,4.06574 -3.75248,-5.7978 1.86738,-7.43908 1.14136,-11.25688 -2.14015,-11.25688 -3.11583,0 -2.50185,-2.4637 1.64799,-6.61377 3.6376,-3.63758 6.46423,-8.84592 6.28149,-11.57409 -0.23411,-3.48998 -0.96144,-3.40086 -2.45502,0.30067 -3.79435,9.40339 -8.72668,5.54906 -6.66962,-5.2119 1.10112,-5.76008 3.49046,-9.55296 5.30961,-8.42864 1.81924,1.12426 2.6525,-5.00487 1.85186,-13.62044 -0.80072,-8.61554 0.57791,-16.92152 3.06347,-18.45772 2.55919,-1.5817 3.04049,-5.18601 1.1098,-8.30991 -6.40505,-10.36356 -5.83684,-45.57769 0.84333,-52.25775 5.59107,-5.59121 5.31958,-6.29773 -2.42056,-6.29773 -8.68483,0 -8.68633,-0.0316 -0.39615,-8.32206 5.09231,-5.09233 7.26482,-11.07713 5.59789,-15.4211 -1.70403,-4.44069 -1.05956,-6.07019 1.72138,-4.35154 2.44502,1.51121 5.46962,-1.16872 6.72131,-5.95516 1.68981,-6.46139 0.67261,-8.08747 -3.94887,-6.31403 -3.42359,1.31366 -5.18937,0.71339 -3.92401,-1.33391 1.26526,-2.0473 -0.0579,-8.18099 -2.938,-13.63025 -3.80354,-7.19364 -8.12094,-9.50904 -15.76049,-8.45227 -13.15982,1.82029 -21.80211,8.64329 -18.24279,14.40235 1.55461,2.51526 0.67683,3.12655 -2.06045,1.43492 -6.52157,-4.03054 -30.95434,14.65869 -28.27878,21.63113 1.18319,3.08347 -0.18676,5.1235 -3.04238,4.53344 -7.76177,-1.60328 -57.31419,35.48591 -57.57635,43.095 -0.12363,3.62219 -6.85572,9.74685 -14.95758,13.61036 -8.10187,3.86351 -14.73066,9.21384 -14.73066,11.88961 0,7.31646 -13.40942,16.02985 -24.90181,16.18108 -5.59415,0.0737 -8.99874,1.30629 -7.56577,2.73927 1.43309,1.43308 0.13153,5.08013 -2.89389,8.10475 -6.972989,6.97299 -37.356048,19.83822 -33.990588,14.39277 3.39526,-5.49361 -3.61333,-5.16791 -9.209209,0.42798 -2.46792,2.46791 -10.48978,5.43317 -17.82633,6.58942 -12.55734,1.97917 -13.18034,1.46938 -10.62904,-8.6959 1.79582,-7.15529 0.98459,-10.79815 -2.40504,-10.79815 -3.01371,0 -4.02616,2.83828 -2.46423,6.90844 2.2167,5.77639 1.60064,6.03678 -3.75848,1.58907 -5.2922,-4.39216 -6.40946,-4.12911 -6.40946,1.5091 0,3.75569 2.2096,6.8285 4.9102,6.8285 2.70063,0 3.80982,1.10033 2.46475,2.44529 -1.34496,1.34496 -6.35283,0.35406 -11.12861,-2.20171 -7.3946993,-3.95752 -8.2788993,-3.59336 -5.9583993,2.45371 1.83975,4.79415 1.12531,6.11233 -2.19908,4.05774 -7.8510498,-4.8522 -6.2502999,-20.79098 1.77873,-17.70998 4.4713393,1.71586 7.4369293,-0.23674 8.9083893,-5.86285 1.21318,-4.63913 3.41796,-8.43483 4.89947,-8.43483 -0.244016,-1.78576 45.023583,-37.0366 39.46435,-37.81281 -2.89352,-0.0368 -5.26095,1.82792 -5.26095,4.14274 0,2.31482 -1.89394,4.20876 -4.20876,4.20876 -2.31481,0 -4.20875,-3.63006 -4.20875,-8.0668 0,-4.43674 -2.29799,-8.83276 -5.10649,-9.76895 -3.51692,-1.1724 -2.38084,-5.16746 3.65002,-12.83426 4.81608,-6.12267 9.60699,-10.28166 10.64645,-9.2422 1.03956,1.03957 10.198719,-6.09394 20.353951,-15.85197 10.155209,-9.75804 20.446334,-17.96001 22.869159,-18.22664 2.422927,-0.26673 7.088237,-0.77309 10.367567,-1.12584 3.27933,-0.35248 4.764,-1.83949 3.2993,-3.30417 -3.07871,-3.0787 15.10129,-18.38067 21.83775,-18.38067 9.01474,0 42.13983,-27.680009 48.55974,-40.577509 7.2886,-14.64268 16.40337,-19.81478 28.27781,-16.04598 4.97094,1.57771 8.77371,0.0708 10.37927,-4.11332 1.39363,-3.63184 5.1722,-6.60334 8.39676,-6.60334 3.22457,0 5.86286,-2.06895 5.86286,-4.59766 0,-2.8849294 8.23125,-4.1740894 22.09598,-3.4606194 12.15279,0.62536 27.18353,-1.34255 33.40169,-4.37314 11.95366,-5.8259899 26.81126,-3.18130988 22.38275,3.98418 -1.59091,2.57399 3.95153,4.2384794 14.11316,4.2384794 9.44811,0 17.65687,2.29036 18.85553,5.26095 1.19791,2.96856 2.26773,1.8377 2.45502,-2.59525 0.242,-5.7277394 2.61443,-7.2594194 8.75561,-5.6534494 4.63282,1.21151 7.36196,0.48542 6.06472,-1.61351 -1.29709,-2.09894 -0.82624,-3.78725 1.0464,-3.7518 8.35736,0.15809 12.3284,7.5223094 12.87291,23.8722794 0.44034,13.22381 -1.19345,18.17703 -6.54488,19.84044 -3.92252,1.21928 -1.90684,1.59736 4.47904,0.84023 9.75377,-1.15644 10.79757,-0.3966 6.52586,4.75047 -2.79677,3.36993 -5.55672,15.12849 -6.13321,26.130189 -0.5766,11.00169 -1.36995,21.71609 -1.76321,23.80979 -0.39352,2.09359 -0.33723,4.75371 0.12626,5.91112 2.63666,6.60283 2.01863,25.25255 -0.83701,25.25255 -3.93504,0 0.8912,22.57513 5.20223,24.33407 3.43219,1.40046 1.59407,58.06561 -2.07623,64.00425 -1.38705,2.24432 -0.15783,8.3809 2.7313,13.63709 7.09202,12.90195 7.95511,20.00952 2.29456,18.89588 -6.14124,-1.20818 -11.40539,34.82256 -6.47559,44.32249 2.68384,5.17194 2.21117,7.38451 -1.58697,7.42975 -4.17961,0.05 -4.11112,0.88674 0.30145,3.68267 3.14823,1.99495 3.94721,4.70784 1.78083,6.04677 -2.24958,1.39047 -2.66717,11.9608 -0.97669,24.72646 1.62405,12.26385 2.15567,23.67924 1.18108,25.36748 -0.97433,1.68823 0.121,6.60648 2.43477,10.92935 2.62942,4.91326 2.72117,9.34497 0.24463,11.82162 -2.17908,2.17908 -4.45778,35.61165 -5.06392,74.29477 -1.00932,64.4049 -3.04846,79.4231 -8.83663,65.07846 -1.53068,-3.79338 -2.21565,-3.86266 -2.45503,-0.24726 -0.1815,2.75692 1.08823,5.88995 2.82429,6.96234 1.73611,1.07244 2.49159,11.72995 1.67877,23.68353 -1.12269,16.51262 -2.89213,21.19108 -7.36533,19.47453 -7.65152,-2.93616 -7.5619,3.61848 0.1552,11.3354 4.68256,4.68251 4.91938,7.25743 1.05219,11.43996 -3.92193,4.2418 -3.71086,4.66683 0.9859,1.98522 4.6546,-2.65765 5.22523,-1.63089 2.58023,4.64352 -1.86763,4.43064 -4.19963,24.15425 -5.18198,43.8302 -0.98222,19.67595 -3.3054,44.77068 -5.1623,55.76603 -2.34612,13.89269 -1.94656,20.01128 1.31024,20.05605 2.65972,0.0368 2.20538,1.63642 -1.05062,3.69929 -4.84373,3.06877 -4.84373,3.99017 0,5.91641 3.15544,1.255 3.82916,2.43109 1.49727,2.6139 -2.59891,0.20255 -3.65715,13.1664 -2.73422,33.48986 0.83228,18.32894 -0.47717,36.86284 -2.92838,41.44281 -3.17974,5.94143 -3.06111,9.65831 0.4193,13.13877 3.66554,3.66554 3.61735,4.85354 -0.19728,4.85354 -2.77778,0 -5.05051,2.00574 -5.05051,4.45718 0,2.45134 1.89394,3.28662 4.20875,1.85607 2.31482,-1.43072 4.20876,-0.59554 4.20876,1.85606 0,2.45134 -1.89394,4.45715 -4.20876,4.45715 -2.31481,0 -4.20875,1.89394 -4.20875,4.20876 0,2.31482 2.84091,4.20876 6.31313,4.20876 6.56312,0 8.35171,4.97602 3.52392,9.80386 -1.53409,1.53409 -3.45342,8.85594 -4.26516,16.27077 -0.81176,7.41481 -3.06095,14.52458 -4.99819,15.79942 -1.93734,1.27499 -5.79483,6.63232 -8.57232,11.90552 -2.77746,5.27316 -6.84891,8.47581 -9.04757,7.11694 -2.19829,-1.35891 -3.99721,-0.46507 -3.99721,1.98653 0,2.45134 -2.70566,4.45716 -6.01251,4.45716 -3.3069,0 -8.53212,2.51973 -11.61167,5.59917 -3.07955,3.0795 -8.42315,4.6662 -11.87473,3.52597 z M 374.78813,36.663921 c 0,-2.31481 -2.00574,-4.20875 -4.45716,-4.20875 -2.45134,0 -3.28662,1.89394 -1.85606,4.20875 1.43071,2.31482 3.43637,4.20876 4.45715,4.20876 1.02089,0 1.85607,-1.89394 1.85607,-4.20876 z"
     id="path262"
     inkscape:connector-curvature="0"
     sodipodi:nodetypes="ccccccccccsscccccccccccsccccccscccccccccscccccccccccccsscccccccsscssccccccccssscccccccssscsscccscccccccsccccscccccccccccccccccccccccccccccccsscsssscccccsscccsscss" />
</svg>
