<?xml version="1.0" encoding="UTF-8" standalone="no"?>
<!-- Created with Inkscape (http://www.inkscape.org/) -->

<svg
   xmlns:dc="http://purl.org/dc/elements/1.1/"
   xmlns:cc="http://creativecommons.org/ns#"
   xmlns:rdf="http://www.w3.org/1999/02/22-rdf-syntax-ns#"
   xmlns:svg="http://www.w3.org/2000/svg"
   xmlns="http://www.w3.org/2000/svg"
   xmlns:sodipodi="http://sodipodi.sourceforge.net/DTD/sodipodi-0.dtd"
   xmlns:inkscape="http://www.inkscape.org/namespaces/inkscape"
   version="1.1"
   id="svg64"
   width="266.12604"
   height="929.99902"
   viewBox="0 0 266.12604 929.99902"
   sodipodi:docname="smbl_parenright.svg"
   inkscape:version="0.92.3 (2405546, 2018-03-11)">
  <metadata
     id="metadata70">
    <rdf:RDF>
      <cc:Work
         rdf:about="">
        <dc:format>image/svg+xml</dc:format>
        <dc:type
           rdf:resource="http://purl.org/dc/dcmitype/StillImage" />
        <dc:title></dc:title>
      </cc:Work>
    </rdf:RDF>
  </metadata>
  <defs
     id="defs68" />
  <sodipodi:namedview
     pagecolor="#ffffff"
     bordercolor="#666666"
     borderopacity="1"
     objecttolerance="10"
     gridtolerance="10"
     guidetolerance="10"
     inkscape:pageopacity="0"
     inkscape:pageshadow="2"
     inkscape:window-width="1916"
     inkscape:window-height="1041"
     id="namedview66"
     showgrid="false"
     showguides="false"
     fit-margin-top="0"
     fit-margin-left="0"
     fit-margin-right="0"
     fit-margin-bottom="0"
     inkscape:zoom="0.88507403"
     inkscape:cx="-20.493677"
     inkscape:cy="496.32923"
     inkscape:window-x="0"
     inkscape:window-y="18"
     inkscape:window-maximized="0"
     inkscape:current-layer="svg64" />
  <path
     style="fill:#000000;stroke-width:3.64939404"
     d="m 19.036124,925.81048 c -5.774914,-7.39342 -7.877284,-20.85506 -3.266596,-20.91609 2.639675,-0.0365 2.362276,-1.23304 -0.740827,-3.19906 -4.137641,-2.62163 -4.167381,-5.33735 -0.180189,-16.36642 2.629868,-7.27276 6.05325,-13.22321 7.607527,-13.22321 1.554186,0 1.189019,-4.30533 -0.811534,-9.56739 -4.175979,-10.98365 1.085011,-20.44753 9.559087,-17.1957 2.863999,1.09893 5.207252,0.38547 5.207252,-1.58543 0,-1.97113 4.926682,-4.56902 10.948183,-5.77332 6.987198,-1.39749 10.948182,-4.4232 10.948182,-8.3632 0,-3.39544 1.015444,-5.15817 2.256466,-3.91712 1.241022,1.24102 9.318021,-4.64358 17.948816,-13.07697 12.005914,-11.73127 17.592726,-21.3347 23.781599,-40.87921 4.44904,-14.05017 9.49565,-27.33907 11.21465,-29.53092 1.7191,-2.19192 2.25716,-4.85352 1.19587,-5.91483 -3.03058,-3.03061 6.34057,-21.11913 9.82544,-18.96535 3.14012,1.94079 4.55547,-3.44569 3.30186,-12.56608 -0.37315,-2.71562 0.44295,-7.64231 1.81398,-10.94818 1.3708,-3.30587 3.2631,-12.57962 4.20494,-20.60829 2.51067,-21.4023 3.72186,-29.19515 4.53761,-29.19515 0.39916,0 1.47413,-5.7478 2.38878,-12.77288 0.91463,-7.02508 2.31413,-16.05733 3.11006,-20.07167 0.7958,-4.01433 1.57266,-13.55405 1.72639,-21.1994 0.15282,-7.64532 1.58932,-13.09092 3.19051,-12.10132 1.60117,0.98967 5.29623,0.29058 8.21114,-1.5535 3.97257,-2.51309 2.78649,-3.36671 -4.736,-3.4086 -11.50935,-0.0639 -11.82149,-1.45999 -5.0847,-22.73705 2.7231,-8.6006 5.24178,-21.35847 5.59705,-28.35083 0.35513,-6.99235 2.23274,-14.30026 4.17235,-16.2398 1.93965,-1.93966 3.52643,-5.11394 3.52643,-7.05421 0,-1.94034 -1.08432,-2.44339 -2.40971,-1.11809 -1.32542,1.32542 -4.69609,-0.85464 -7.49055,-4.8442 -4.24,-6.05348 -4.34122,-12.08556 -0.6115,-36.44931 3.35672,-21.92743 3.43794,-31.24481 0.32617,-37.42793 -3.53453,-7.02351 -6.64081,-29.52367 -9.44965,-68.44756 -0.36198,-5.01792 -2.00466,-11.28555 -3.64994,-13.92803 -1.64543,-2.6425 -2.0797,-5.71641 -0.96527,-6.83093 3.25004,-3.25004 -14.98215,-36.50092 -21.35525,-38.9465 -4.52436,-1.7362 -4.96094,-3.79518 -1.98413,-9.35743 2.53523,-4.73707 2.58804,-7.89077 0.15738,-9.39299 -2.01264,-1.24399 -3.65925,-7.71136 -3.65925,-14.37221 0,-6.66087 -2.46334,-14.15504 -5.47409,-16.65374 -3.01075,-2.49871 -5.474092,-6.60478 -5.474092,-9.12467 0,-5.56414 -8.764522,-25.24395 -17.877583,-40.14215 -3.683288,-6.0215 -5.997392,-12.17985 -5.142453,-13.68523 0.85487,-1.50537 0.06614,-2.73704 -1.75285,-2.73704 -5.14154,0 -26.992584,-44.07152 -24.749393,-49.91721 1.098011,-2.86154 0.548321,-4.30773 -1.221863,-3.21377 -2.918785,1.80394 -9.562462,-14.5591 -8.329583,-20.51528 0.2826,-1.36579 -1.827206,-6.995754 -4.688673,-12.511224 -2.861467,-5.51549 -4.300788,-11.4874 -3.198511,-13.27093 1.102345,-1.78364 -0.484685,-2.7224 -3.526433,-2.08631 -7.56451,1.58178 -24.5718457,-23.71541 -20.3863157,-30.32309 2.8786197,-4.54448 4.8174497,-1.92757 3.7202397,5.0214 -0.80218,5.08081 6.067779,2.78385 8.186344,-2.73704 2.94335,-7.67025 -1.239198,-16.89822 -6.263864,-13.81985 -2.29864,1.40821 -1.54461,-1.43124 1.675298,-6.31025 7.471063,-11.31979 34.550891,-25.25118966 49.342364,-25.38452966 9.533381,-0.0867 11.749795,1.54368996 13.509967,9.93302996 1.157998,5.5197097 8.734688,17.2023797 16.83689,25.9614997 8.102201,8.75912 13.672071,17.63951 12.377471,19.73419 -1.48873,2.40865 0.59439,3.03753 5.6673,1.71088 6.61649,-1.73027 8.38893,-0.25819 10.1218,8.40606 1.15549,5.77702 3.59215,10.15722 5.41495,9.73385 1.82287,-0.42333 6.14649,3.80347 9.60815,9.39304 5.53519,8.93764 5.63405,10.58073 0.81997,13.62934 -4.42566,2.802584 -3.94157,3.477224 2.5275,3.522404 6.02481,0.0411 7.65436,1.85891 6.59599,7.35467 -0.8811,4.57534 0.55881,7.29879 3.85893,7.29879 2.8955,0 5.26455,2.91903 5.26455,6.48677 0,3.56772 2.25738,9.72607 5.01669,13.68523 2.75915,3.95914 6.18793,14.17792 7.61952,22.70838 1.43171,8.53046 3.8271,15.50993 5.32331,15.50993 2.55938,0 3.02687,1.75786 4.54509,17.09091 0.3346,3.37849 3.20841,9.17952 6.38644,12.89119 3.178,3.71166 5.88419,7.92689 6.01365,9.36719 0.8738,9.71779 9.56139,31.98322 14.6908,37.65117 5.3004,5.85686 5.45105,7.66354 1.08729,13.04177 -2.87997,3.54954 -3.19402,5.12046 -0.72805,3.64109 2.3856,-1.43102 5.67006,-0.34487 7.29878,2.41371 1.62877,2.75867 5.42467,5.94801 8.43542,7.08747 3.647,1.38015 2.73344,2.16796 -2.73705,2.35981 -4.98929,0.17563 -8.21113,2.5892 -8.21113,6.15265 0,3.62198 2.02222,5.08853 5.28822,3.83526 3.53453,-1.35643 4.6153,-0.27553 3.25895,3.25893 -1.39315,3.63076 0.48788,5.28825 6.00161,5.28825 4.96177,0 8.76033,2.78937 9.93956,7.29879 1.04989,4.01433 3.63309,7.29879 5.74068,7.29879 2.10753,0 2.84201,0.98989 1.63197,2.1999 -1.21001,1.21 -0.72532,6.0785 1.07702,10.81899 2.01743,5.30617 1.9278,9.45284 -0.23287,10.78834 -1.93053,1.19312 -3.50995,-0.13686 -3.50995,-2.95462 0,-7.04515 -13.25512,-18.46372 -18.01703,-15.52067 -5.3069,3.27983 -4.91022,9.47869 0.53463,8.35326 2.42763,-0.50179 4.66845,2.81802 4.97956,7.37734 0.31134,4.55935 3.50608,11.53881 7.09989,15.50993 4.41794,4.88172 5.02435,7.22023 1.87237,7.22023 -3.66775,0 -3.72135,1.13314 -0.25135,5.31425 2.42571,2.9228 3.42781,6.9041 2.22681,8.84725 -1.20087,1.9433 0.7105,4.28797 4.24758,5.21065 6.07626,1.58498 6.07875,1.70084 0.0456,2.10091 -7.383,0.48947 -7.9708,5.73746 -2.42459,21.64736 2.17891,6.25071 4.40849,16.75973 4.95442,23.35327 1.93258,23.34244 1.53046,22.42165 7.5942,17.38918 3.05924,-2.53895 6.1327,-3.9717 6.82991,-3.18386 2.90809,3.28598 4.49843,39.34352 1.65774,37.58794 -1.70609,-1.05445 -3.10187,-0.17791 -3.10187,1.94763 0,5.82715 1.58726,9.41804 3.83223,8.66968 1.10417,-0.36813 2.38725,4.9692 2.85136,11.86054 0.5709,8.47879 -0.74242,12.52971 -4.06264,12.52971 -3.27054,0 -5.1956,5.58558 -5.77364,16.75216 -0.66579,12.86259 0.23493,16.12754 3.87978,14.06217 3.81257,-2.16044 3.84902,-1.72252 0.18476,2.22476 -2.50896,2.70304 -4.56175,10.33399 -4.56175,16.95764 0,8.27199 -1.71407,12.043 -5.47409,12.043 -3.01075,0 -5.49923,2.8739 -5.52997,6.38644 -0.0433,4.9892 -0.74425,5.30001 -3.20207,1.42075 -1.7305,-2.73111 -2.33488,-8.06835 -1.34321,-11.86053 0.99173,-3.79211 -0.0297,-6.8948 -2.27197,-6.8948 -2.24119,0 -4.09743,2.05279 -4.12484,4.56175 -0.0297,2.50895 -1.04008,8.25675 -2.25031,12.77288 -1.61782,6.03657 -0.63819,8.21113 3.69923,8.21113 6.76196,0 7.5992,6.60559 1.85024,14.59758 -3.34394,4.64864 -3.63473,4.52869 -1.92825,-0.79534 1.10531,-3.44827 0.18247,-7.39862 -2.05004,-8.77862 -3.81672,-2.35885 -3.60348,1.32245 1.41322,24.39974 0.62724,2.8853 2.78267,6.45254 4.78983,7.92719 2.06625,1.51815 0.90916,2.70541 -2.66752,2.73704 -6.20913,0.0548 -8.40814,5.26079 -11.5853,27.42632 -0.86308,6.0215 -1.89381,11.7693 -2.29031,12.77288 -0.39665,1.00358 -1.10258,3.46692 -1.56901,5.47409 -0.46621,2.00717 -1.30763,4.47051 -1.86941,5.47409 -2.68139,4.78928 -2.38034,18.24697 0.40828,18.24697 1.73301,0 3.15111,-1.64222 3.15111,-3.64939 0,-2.00717 2.8739,-3.77904 6.38644,-3.93752 3.81522,-0.17334 4.54984,-1.02912 1.8247,-2.12873 -2.50896,-1.01248 -4.53661,-5.39889 -4.50586,-9.74772 0.0411,-5.72626 0.90733,-6.5638 3.14311,-3.03682 2.34718,3.70284 3.56402,3.04674 5.07651,-2.73704 1.09414,-4.18399 0.40394,-7.60728 -1.53366,-7.60728 -1.93782,0 -2.50816,-1.64223 -1.2677,-3.64939 1.24056,-2.00717 4.654,-3.6494 7.58551,-3.6494 5.39399,0 5.33247,4.38016 -0.37429,26.6391 -1.4406,5.61927 -2.89616,15.47263 -3.2345,21.89636 -0.33826,6.42378 -3.4763,17.03581 -6.97329,23.58234 -3.49696,6.54654 -6.9294,19.153 -7.62764,28.01435 -0.73125,9.28169 -4.85413,21.1458 -9.72564,27.98718 -4.65085,6.53153 -6.27207,10.52572 -3.60263,8.87594 2.66937,-1.64975 -2.05575,7.17476 -10.5005,19.61007 -13.53494,19.93107 -17.25579,29.50268 -18.21189,46.84839 -0.13913,2.50896 -2.30423,4.56375 -4.81318,4.56619 -7.48815,0.007 -23.62744,16.01445 -21.73913,21.5611 1.20636,3.54343 -0.1072,4.43043 -4.22102,2.85157 -3.85842,-1.48097 -5.97135,-0.3955 -5.97135,3.06784 0,3.25058 -3.23108,5.19297 -8.21113,4.93624 -5.33015,-0.27485 -6.14878,-0.97462 -2.33315,-1.9944 3.23288,-0.86399 7.58145,-5.30984 9.66355,-9.8795 3.04457,-6.68215 2.51429,-9.10239 -2.70908,-12.36444 -5.16821,-3.2276 -8.14666,-2.5169 -14.58333,3.47974 -6.14886,5.72852 -6.96507,8.23011 -3.40356,10.43129 3.79129,2.34312 3.74987,4.02243 -0.21668,8.80243 -3.4011,4.09802 -6.06719,4.742 -8.70636,2.10274 -4.90301,-4.90301 -9.64309,-4.87318 -9.64309,0.0616 0,2.12554 1.64223,2.84981 3.64939,1.60938 2.04115,-1.26155 3.59155,1.45794 3.51816,6.17106 -0.12773,8.16926 -0.40075,8.09661 -8.962,-2.37904 -4.856892,-5.94308 -9.99825,-9.6381 -11.425163,-8.21114 -1.426913,1.42692 -0.614467,2.59443 1.80531,2.59443 2.61422,0 1.60368,3.00137 -2.490301,7.39563 -4.437915,4.76355 -9.359054,6.58923 -13.827373,5.12984 -4.224014,-1.3797 -5.282657,-1.0565 -2.706687,0.82613 3.105885,2.26992 2.62079,5.02957 -1.824697,10.38009 -7.191838,8.65597 -44.929745,11.94472 -50.801552,4.42724 z m 50.950173,-25.23951 c -3.406093,-3.40609 -5.352429,-3.40609 -8.758546,0 -3.406094,3.4061 -2.432914,4.37928 4.379273,4.37928 6.81221,0 7.78539,-0.97325 4.379273,-4.37928 z M 41.123079,875.77193 c -0.979635,-3.74581 -3.901043,-5.99703 -6.492204,-5.00271 -2.591161,0.99423 -3.909756,4.8726 -2.930213,8.61846 0.979634,3.7458 3.901066,5.997 6.492227,5.00268 2.591161,-0.99423 3.909755,-4.87258 2.93019,-8.61843 z M 151.36779,868.4563 c -1.24057,-2.00716 -3.89765,-3.64939 -5.90481,-3.64939 -2.00717,0 -2.63448,1.64223 -1.39407,3.64939 1.24057,2.00717 3.89767,3.6494 5.90483,3.6494 2.00717,0 2.63448,-1.64223 1.39407,-3.6494 z m 13.68525,-9.71571 c -2.50896,-1.01225 -6.61455,-1.01225 -9.12351,0 -2.50896,1.01248 -0.45617,1.84066 4.56174,1.84066 5.01794,0 7.07073,-0.82841 4.56177,-1.84066 z m -3.78305,-7.87626 c 3.43905,-1.36487 5.08128,-4.21359 3.64939,-6.33067 -1.69127,-2.50057 -4.8411,-1.54119 -8.98985,2.73791 -6.64872,6.85769 -5.25289,7.79673 5.34046,3.59276 z m 13.81888,-31.67485 c 1.90772,-5.01791 5.10006,-9.12348 7.0939,-9.12348 1.99394,0 2.57654,-2.73274 1.29485,-6.07273 -1.32632,-3.45646 -0.82773,-5.14417 1.15732,-3.91733 1.91821,1.18537 3.60206,-0.59804 3.74202,-3.96311 0.13913,-3.36517 1.48872,-8.9924 2.99718,-12.50494 1.60847,-3.74567 1.17396,-6.38644 -1.05126,-6.38644 -2.08654,0 -4.83636,3.28445 -6.11045,7.29879 -1.2741,4.01433 -4.02382,7.29879 -6.11048,7.29879 -2.08677,0 -2.84865,2.46334 -1.69332,5.47409 1.15526,3.01075 0.67058,5.47409 -1.07725,5.47409 -1.74784,0 -4.98074,5.17174 -7.18425,11.49274 -4.89306,14.03623 -4.89338,14.05302 -0.26686,14.05302 2.05689,0 5.30068,-4.10557 7.20847,-9.12349 z m 24.32931,-18.08642 c 0,-2.92248 -1.39521,-4.45121 -3.10071,-3.39722 -1.70541,1.05399 -2.15588,3.44505 -1.00108,5.31354 2.95097,4.7748 4.10179,4.23718 4.10179,-1.91639 z m -73.59615,-12.93343 c 1.24057,-2.00717 0.51639,-3.64939 -1.60938,-3.64939 -2.12555,0 -3.8648,1.64222 -3.8648,3.64939 0,2.00717 0.72417,3.6494 1.60938,3.6494 0.88521,0 2.62428,-1.64223 3.8648,-3.6494 z m 31.01985,-67.20797 c 0,-1.20567 -3.69501,-0.12545 -8.21114,2.40032 -4.51612,2.52597 -8.66033,4.76816 -9.20938,4.98268 -0.54901,0.2144 0.0365,3.08711 1.30169,6.38361 1.97683,5.15157 3.27068,4.75954 9.20941,-2.79035 3.80018,-4.83114 6.90942,-9.77046 6.90942,-10.97626 z m 1.66891,-12.82653 c 1.15481,-1.86849 0.43063,-4.42874 -1.60938,-5.68947 -2.04001,-1.26064 -3.70892,0.26777 -3.70892,3.39722 0,6.41027 2.18986,7.35412 5.31824,2.29225 z m 5.62997,-40.39551 c 0,-2.00716 -0.72418,-3.64939 -1.60938,-3.64939 -0.88521,0 -2.62428,1.64223 -3.8648,3.64939 -1.24057,2.00717 -0.51639,3.6494 1.60938,3.6494 2.12554,0 3.8648,-1.64223 3.8648,-3.6494 z m 69.33849,-160.78873 c 0,-2.12554 1.80599,-2.74854 4.01349,-1.38426 2.8208,1.74327 2.78262,0.18019 -0.12773,-5.25871 -4.59007,-8.57665 -9.4239,-10.62797 -6.38539,-2.70981 1.06152,2.76617 0.0867,6.87174 -2.16409,9.12348 -3.02587,3.0259 -2.95145,4.0941 0.28511,4.0941 2.4086,0 4.37927,-1.73916 4.37927,-3.86478 z m 26.8735,-5.23775 c -1.15093,-2.99923 -3.5895,-4.52796 -5.41908,-3.39722 -3.82668,2.36501 -0.75474,8.85035 4.19215,8.85035 1.82561,0 2.37786,-2.45392 1.22688,-5.45313 z m -46.94524,-31.04081 c 1.24057,-2.00717 0.51639,-3.64937 -1.60938,-3.64937 -2.12554,0 -3.86478,1.64223 -3.86478,3.64937 0,2.00717 0.72418,3.64939 1.60939,3.64939 0.8852,0 2.62428,-1.64222 3.86477,-3.64939 z M 201.89395,340.96146 c -1.18856,-3.09731 -2.94369,-4.84882 -3.90029,-3.8922 -0.9566,0.9566 -0.65689,3.49079 0.66624,5.6315 3.59849,5.82245 5.70175,4.69132 3.23409,-1.7394 z m -8.5581,-30.86245 c -2.14836,-4.01433 -4.52425,-7.29879 -5.27958,-7.29879 -1.08136,0 -0.2452,8.47006 1.35096,13.68523 0.15281,0.50179 1.97911,0.91235 4.05698,0.91235 2.56133,0 2.52,-2.35026 -0.12773,-7.29879 z m -5.4741,-18.24697 c 1.24057,-2.00717 0.51639,-3.64939 -1.60938,-3.64939 -2.12554,0 -3.86478,1.64222 -3.86478,3.64939 0,2.00717 0.72418,3.64939 1.60939,3.64939 0.8852,0 2.62428,-1.64222 3.86477,-3.64939 z m -10.94818,-51.09152 c 1.24057,-2.00717 0.51639,-3.64939 -1.60938,-3.64939 -2.12555,0 -3.86478,1.64222 -3.86478,3.64939 0,2.00717 0.72418,3.6494 1.60938,3.6494 0.88521,0 2.62428,-1.64223 3.86478,-3.6494 z M 126.72516,130.28793 c -9.43434,-3.57164 -12.1648,-0.99013 -5.96856,5.64299 3.48846,3.73438 5.96717,4.04827 9.09993,1.15252 3.24828,-3.00269 2.47939,-4.67129 -3.13137,-6.79542 z M 107.19915,83.228326 c -1.03369,-1.67256 -3.42484,-3.04115 -5.31357,-3.04115 -1.888786,0 -3.434008,1.36852 -3.434008,3.04115 0,1.67256 2.391128,3.04115 5.313568,3.04115 2.92248,0 4.46777,-1.36852 3.43401,-3.04115 z m -44.329172,-1.80873 c -2.508958,-1.01248 -4.561742,-4.49564 -4.561742,-7.74055 0,-4.33215 -1.079081,-4.82069 -4.061274,-1.83861 -5.17418,5.17416 -1.03506,12.08369 7.013702,11.70792 3.799635,-0.17791 4.418071,-0.99537 1.609383,-2.12874 z M 27.288385,58.290756 c -1.240566,-2.00716 -3.800753,-3.64939 -5.689451,-3.64939 -1.88879,0 -3.434035,1.64223 -3.434035,3.64939 0,2.00717 2.560278,3.6494 5.689474,3.6494 3.129219,0 4.674509,-1.64223 3.434012,-3.6494 z M 74.73051,18.147426 c 1.240566,-2.00717 0.516389,-3.6494 -1.609383,-3.6494 -2.125544,0 -3.864777,1.64223 -3.864777,3.6494 0,2.00716 0.724177,3.64939 1.609383,3.64939 0.885206,0 2.624256,-1.64223 3.864777,-3.64939 z M 126.0776,887.11675 c -1.09984,-1.77976 0.85601,-5.47475 4.34636,-8.21114 5.60609,-4.39496 5.81791,-4.29764 1.81626,0.83458 -2.49156,3.1954 -3.44952,6.89042 -2.12874,8.21113 1.32063,1.32063 1.40342,2.40126 0.18247,2.40126 -1.21958,0 -3.11749,-1.45611 -4.21742,-3.23587 z M 14.515505,833.78706 c 0,-3.04116 3.243924,-5.47409 7.298788,-5.47409 8.701069,0 9.680429,5.60398 1.526132,8.73304 -8.156533,3.13002 -8.82492,2.88316 -8.82492,-3.25895 z M 240.77797,647.88336 c 0,-2.89231 1.48895,-6.17902 3.30904,-7.30383 1.81991,-1.1247 2.44954,1.24171 1.39909,5.25871 -2.22841,8.52129 -4.70811,9.59845 -4.70811,2.04503 z m 3.64939,-25.76117 c 0,-5.26377 2.1016,-9.12348 4.96802,-9.12348 3.33139,0 4.39348,3.00562 3.22396,9.12348 -0.95933,5.01792 -3.19484,9.12349 -4.96803,9.12349 -1.77315,0 -3.22395,-4.10557 -3.22395,-9.12349 z m 2.3105,-18.29696 c -1.1694,-3.04743 -0.14825,-4.96398 2.38258,-4.46796 2.72585,0.53441 4.33012,-3.34366 4.16973,-10.07962 -0.1437,-6.0215 0.81815,-11.7693 2.13649,-12.77288 1.31857,-1.00359 4.25976,-5.10916 6.53616,-9.12349 6.03215,-10.6375 5.29449,-0.80925 -0.82454,10.98513 -2.85191,5.49709 -4.33463,12.21149 -3.29492,14.92092 1.03962,2.70944 -0.57296,7.38956 -3.58373,10.40031 -4.77521,4.77524 -5.73555,4.7928 -7.52188,0.13686 z m 4.98829,-206.35617 c 0,-2.12554 1.64223,-2.84981 3.6494,-1.60938 2.00716,1.24057 3.64939,2.97964 3.64939,3.86478 0,0.8852 -1.64223,1.60938 -3.64939,1.60938 -2.00717,0 -3.6494,-1.73916 -3.6494,-3.86478 z M 213.85835,257.0417 c -3.5216,-9.17709 -2.48273,-11.54504 1.81922,-4.14694 2.13011,3.66308 3.10418,7.42891 2.16455,8.36851 -0.93972,0.93972 -2.73239,-0.96001 -3.98391,-4.22157 z m -5.92493,-16.49658 c 0,-2.12555 1.64223,-2.84982 3.6494,-1.60939 2.00716,1.24057 3.64939,2.97964 3.64939,3.86478 0,0.88521 -1.64223,1.60938 -3.64939,1.60938 -2.00717,0 -3.6494,-1.73916 -3.6494,-3.86477 z M 113.04915,50.430786 c 0,-5.55953 6.65278,-6.43913 10.81053,-1.42919 3.54064,4.26618 2.9454,5.12293 -3.23587,4.65729 -4.16604,-0.31385 -7.57466,-1.76654 -7.57466,-3.2281 z M 2.3508703,33.961506 c -3.40172,-3.40172 -3.03646004,-8.51525 0.6083,-8.51525 1.67257,0 3.04116,2.46334 3.04116,5.47409 0,6.2016 -0.26664,6.42385 -3.6494,3.04116 z"
     id="path74"
     inkscape:connector-curvature="0" />
</svg>
