<?xml version="1.0" encoding="UTF-8" standalone="no"?>
<!-- Created with Inkscape (http://www.inkscape.org/) -->

<svg
   xmlns:dc="http://purl.org/dc/elements/1.1/"
   xmlns:cc="http://creativecommons.org/ns#"
   xmlns:rdf="http://www.w3.org/1999/02/22-rdf-syntax-ns#"
   xmlns:svg="http://www.w3.org/2000/svg"
   xmlns="http://www.w3.org/2000/svg"
   xmlns:sodipodi="http://sodipodi.sourceforge.net/DTD/sodipodi-0.dtd"
   xmlns:inkscape="http://www.inkscape.org/namespaces/inkscape"
   version="1.1"
   id="svg425"
   width="1232.6293"
   height="930"
   viewBox="0 0 1232.6292 930.00001"
   sodipodi:docname="smbl_uni2116.jpg.svg"
   inkscape:version="0.92.3 (2405546, 2018-03-11)">
  <metadata
     id="metadata431">
    <rdf:RDF>
      <cc:Work
         rdf:about="">
        <dc:format>image/svg+xml</dc:format>
        <dc:type
           rdf:resource="http://purl.org/dc/dcmitype/StillImage" />
        <dc:title></dc:title>
      </cc:Work>
    </rdf:RDF>
  </metadata>
  <defs
     id="defs429" />
  <sodipodi:namedview
     pagecolor="#ffffff"
     bordercolor="#666666"
     borderopacity="1"
     objecttolerance="10"
     gridtolerance="10"
     guidetolerance="10"
     inkscape:pageopacity="0"
     inkscape:pageshadow="2"
     inkscape:window-width="1916"
     inkscape:window-height="1041"
     id="namedview427"
     showgrid="false"
     fit-margin-top="0"
     fit-margin-left="0"
     fit-margin-right="0"
     fit-margin-bottom="0"
     inkscape:zoom="0.39111845"
     inkscape:cx="822.03732"
     inkscape:cy="228.90305"
     inkscape:window-x="0"
     inkscape:window-y="18"
     inkscape:window-maximized="0"
     inkscape:current-layer="svg425"
     inkscape:measure-start="779.209,276.61"
     inkscape:measure-end="781.017,276.61" />
  <path
     style="fill:#000000;stroke-width:7.87519789"
     d="M 0.05467746,877.49409 C -0.55750654,843.46895 4.2008095,869.02533 2.8808455,623.19998 3.2272955,478.78863 4.7261055,348.1507 2.8702755,239.7422 0.70126846,83.136925 0.28209446,42.551895 0.76322846,35.73531 2.7894335,-23.671511 100.95041,2.9215808 117.73549,30.215043 273.27037,264.67903 389.10186,445.04525 563.71648,715.53779 c 21.43033,32.67578 22.72505,18.44604 23.54913,-6.33852 -0.68442,-58.74247 0.67193,-121.26157 0.33898,-169.27306 -6.55347,-199.42607 1.18696,-323.60245 -3.61993,-476.83299 -5.02516,-89.719797 112.95557,-78.038025 103.97185,2.717302 0.60679,247.237798 6.77485,517.780818 1.39473,670.069128 C 694.359,1002.4845 586.10289,958.89494 506.60249,817.32701 355.13233,591.13642 236.75194,416.17899 131.19835,239.12428 c -23.45785,-34.23879 -26.93334,-7.82107 -24.30207,11.0474 2.012,113.8596 5.148,220.7236 0.83012,356.30331 2.24284,94.89614 0.40579,179.72355 -0.39089,268.79566 -6.11393,75.39936 -105.9204235,69.04459 -107.28083254,2.22344 z M 837.30921,856.61484 c -62.8688,-1.43063 -57.23968,-76.12306 -4.81539,-78.9707 119.77181,1.89965 238.49618,1.40166 359.58408,1.56619 48.0993,-0.61238 57.5562,71.11723 5.7249,75.43981 -121.9881,1.30272 -240.76442,1.5329 -360.49359,1.9647 z M 1000.7373,193.80463 c 312.6389,11.32326 286.6251,502.73598 2.0981,511.52452 -280.75513,0.86094 -307.47147,-500.16489 -2.0981,-511.52452 z m 0.6526,78.11465 c -181.21601,9.59951 -194.23427,331.23933 3.2937,356.20727 193.217,-13.32848 177.7735,-351.7242 -3.2937,-356.20727 z"
     id="path435"
     inkscape:connector-curvature="0"
     sodipodi:nodetypes="cccccccccccccccccccccccccccc" />
</svg>
