<?xml version="1.0" encoding="UTF-8" standalone="no"?>
<!-- Created with Inkscape (http://www.inkscape.org/) -->

<svg
   xmlns:dc="http://purl.org/dc/elements/1.1/"
   xmlns:cc="http://creativecommons.org/ns#"
   xmlns:rdf="http://www.w3.org/1999/02/22-rdf-syntax-ns#"
   xmlns:svg="http://www.w3.org/2000/svg"
   xmlns="http://www.w3.org/2000/svg"
   xmlns:sodipodi="http://sodipodi.sourceforge.net/DTD/sodipodi-0.dtd"
   xmlns:inkscape="http://www.inkscape.org/namespaces/inkscape"
   version="1.1"
   id="svg539"
   width="482.42978"
   height="930"
   viewBox="0 0 482.42978 930"
   sodipodi:docname="smbl_dollar.svg"
   inkscape:version="0.92.3 (2405546, 2018-03-11)">
  <metadata
     id="metadata545">
    <rdf:RDF>
      <cc:Work
         rdf:about="">
        <dc:format>image/svg+xml</dc:format>
        <dc:type
           rdf:resource="http://purl.org/dc/dcmitype/StillImage" />
        <dc:title></dc:title>
      </cc:Work>
    </rdf:RDF>
  </metadata>
  <defs
     id="defs543" />
  <sodipodi:namedview
     pagecolor="#ffffff"
     bordercolor="#666666"
     borderopacity="1"
     objecttolerance="10"
     gridtolerance="10"
     guidetolerance="10"
     inkscape:pageopacity="0"
     inkscape:pageshadow="2"
     inkscape:window-width="1916"
     inkscape:window-height="1041"
     id="namedview541"
     showgrid="false"
     fit-margin-top="0"
     fit-margin-left="0"
     fit-margin-right="0"
     fit-margin-bottom="0"
     inkscape:zoom="0.37698164"
     inkscape:cx="168.76333"
     inkscape:cy="142.45909"
     inkscape:window-x="0"
     inkscape:window-y="18"
     inkscape:window-maximized="0"
     inkscape:current-layer="svg539"
     inkscape:measure-start="300.113,49.7062"
     inkscape:measure-end="208.203,50.6441" />
  <path
     style="fill:#000000;stroke-width:6.37714195"
     d="m 222.6075,910.33671 c -0.53683,-12.47167 -0.60555,-40.87833 -0.45037,-56.78841 0.7602,-19.88196 -0.47196,-15.57688 -31.02324,-19.18086 C 111.46751,813.46675 38.764412,776.99816 4.4847532,675.29755 -18.747091,599.96933 54.853702,597.23926 74.949227,637.47785 98.728035,730.75943 133.62243,752.59998 192.9488,766.24523 c 31.15638,9.21231 30.0927,6.2038 28.89228,-50.53766 1.40924,-90.13976 -2.5877,-126.01226 -1.61884,-174.23218 2.0699,-80.79645 7.50257,-74.70543 -39.20809,-94.531 C 137.89964,426.30054 18.478779,417.72315 11.69719,272.81766 8.2356795,160.49064 78.696539,81.616212 178.36679,58.746668 c 24.08416,-4.630604 46.75492,1.47665 41.26224,-28.573942 -4.17033,-32.9656438 45.81744,-46.165931 47.73095,-1.829069 -5.09313,28.253388 7.97809,22.11017 71.48058,43.268261 59.60804,20.696019 98.45798,53.131832 115.98218,114.457682 21.45899,50.82532 -52.47908,74.81234 -69.34213,30.67396 -39.1126,-66.16542 -45.48756,-64.46115 -62.87666,-78.11538 -60.99694,-28.60218 -55.53692,-4.03799 -54.86424,32.06054 0.75119,50.88611 2.62343,50.31582 1.405,110.66108 1.96791,107.59694 -9.30889,100.75749 23.45036,118.91306 22.5968,8.06416 27.87118,7.41646 43.13504,16.36166 206.67092,73.28713 200.82581,376.35595 -54.88592,418.2729 -20.32391,0.68636 -10.32489,10.84624 -11.44301,34.9306 -0.79611,17.14826 -0.26109,29.0617 -0.35559,41.89362 -0.9478,27.4178 -44.32287,21.52506 -46.43809,-1.38493 z m 70.35936,-423.99076 c -28.33464,-10.59249 -24.06431,-9.20762 -26.57495,54.23563 0.87183,74.78169 2.80846,148.02928 1.00152,188.69688 -3.22059,66.58434 20.83818,40.95631 30.89808,40.95631 C 485.681,675.28934 421.53691,508.16976 292.96686,486.34595 Z M 222.99826,329.7132 c 0.21313,-19.01654 -0.41519,-52.51432 -1.39626,-74.43946 -0.98108,-21.92516 -1.2428,-67.51626 -0.35954,-84.8388 -0.23523,-39.31128 9.32254,-46.95645 -39.84532,-42.11329 -138.109149,50.12879 -96.411059,211.47056 19.28964,240.54988 27.41481,12.73343 22.12308,-6.13887 22.31148,-39.15833 z"
     id="path549"
     inkscape:connector-curvature="0"
     sodipodi:nodetypes="ccccccccccccccccccccccsccccccccscccc" />
</svg>
