<?xml version="1.0" encoding="UTF-8" standalone="no"?>
<!-- Created with Inkscape (http://www.inkscape.org/) -->

<svg
   xmlns:dc="http://purl.org/dc/elements/1.1/"
   xmlns:cc="http://creativecommons.org/ns#"
   xmlns:rdf="http://www.w3.org/1999/02/22-rdf-syntax-ns#"
   xmlns:svg="http://www.w3.org/2000/svg"
   xmlns="http://www.w3.org/2000/svg"
   xmlns:sodipodi="http://sodipodi.sourceforge.net/DTD/sodipodi-0.dtd"
   xmlns:inkscape="http://www.inkscape.org/namespaces/inkscape"
   version="1.1"
   id="svg1429"
   width="182.00798"
   height="929.99799"
   viewBox="0 0 182.00798 929.99799"
   sodipodi:docname="smbl_bracketleft.svg"
   inkscape:version="0.92.3 (2405546, 2018-03-11)">
  <metadata
     id="metadata1435">
    <rdf:RDF>
      <cc:Work
         rdf:about="">
        <dc:format>image/svg+xml</dc:format>
        <dc:type
           rdf:resource="http://purl.org/dc/dcmitype/StillImage" />
        <dc:title></dc:title>
      </cc:Work>
    </rdf:RDF>
  </metadata>
  <defs
     id="defs1433" />
  <sodipodi:namedview
     pagecolor="#ffffff"
     bordercolor="#666666"
     borderopacity="1"
     objecttolerance="10"
     gridtolerance="10"
     guidetolerance="10"
     inkscape:pageopacity="0"
     inkscape:pageshadow="2"
     inkscape:window-width="1916"
     inkscape:window-height="1041"
     id="namedview1431"
     showgrid="false"
     inkscape:zoom="0.49719102"
     inkscape:cx="-106.77789"
     inkscape:cy="553.00013"
     inkscape:window-x="0"
     inkscape:window-y="18"
     inkscape:window-maximized="0"
     inkscape:current-layer="svg1429"
     fit-margin-top="0"
     fit-margin-left="0"
     fit-margin-right="0"
     fit-margin-bottom="0"
     inkscape:measure-start="103.582,942.042"
     inkscape:measure-end="103.833,846.254" />
  <path
     style="fill:#000000;stroke-width:6.18401051"
     d="m 164.86808,929.46919 c -22.88878,-0.33533 -40.05511,1.15858 -76.409605,-0.32057 -38.209672,1.40661 -61.649513,0.33095 -77.457818,0.72115 C -2.317962,931.60161 0.44263541,915.72753 0.81272971,886.06471 0.71526721,785.93342 -0.55378475,567.01876 0.28539731,434.42554 1.8802223,352.11862 1.9368064,300.5814 0.64066821,110.73251 0.38882441,73.851386 1.5145015,65.696899 1.4577234,41.43468 1.7481557,22.424253 -1.1028464,2.0833329 10.30303,1.2868805 55.069592,-0.08268068 149.1063,-0.86153825 160.95185,1.5896502 193.07859,3.9621422 185.0972,53.118246 159.4233,52.004768 135.9848,50.85148 118.16257,52.40462 91.756618,51.874637 65.428966,51.102277 71.299001,58.456185 71.299001,96.160188 67.233892,331.95143 66.978856,550.0927 63.571223,772.09401 c 4.631753,117.45437 -5.956143,103.91887 28.790078,105.10921 26.290369,-0.7072 54.316289,-0.93944 70.966329,-0.39406 26.49118,0.3511 22.5587,52.69036 1.54033,52.66003 z"
     id="path1439"
     inkscape:connector-curvature="0"
     sodipodi:nodetypes="ccccccccccccccccc" />
</svg>
