<?xml version="1.0" encoding="UTF-8" standalone="no"?>
<!-- Created with Inkscape (http://www.inkscape.org/) -->

<svg
   xmlns:dc="http://purl.org/dc/elements/1.1/"
   xmlns:cc="http://creativecommons.org/ns#"
   xmlns:rdf="http://www.w3.org/1999/02/22-rdf-syntax-ns#"
   xmlns:svg="http://www.w3.org/2000/svg"
   xmlns="http://www.w3.org/2000/svg"
   xmlns:sodipodi="http://sodipodi.sourceforge.net/DTD/sodipodi-0.dtd"
   xmlns:inkscape="http://www.inkscape.org/namespaces/inkscape"
   version="1.1"
   id="svg61"
   width="588.83087"
   height="930"
   viewBox="0 0 588.83087 930"
   sodipodi:docname="smbl_0.svg"
   inkscape:version="0.92.3 (2405546, 2018-03-11)">
  <metadata
     id="metadata67">
    <rdf:RDF>
      <cc:Work
         rdf:about="">
        <dc:format>image/svg+xml</dc:format>
        <dc:type
           rdf:resource="http://purl.org/dc/dcmitype/StillImage" />
        <dc:title></dc:title>
      </cc:Work>
    </rdf:RDF>
  </metadata>
  <defs
     id="defs65" />
  <sodipodi:namedview
     pagecolor="#ffffff"
     bordercolor="#666666"
     borderopacity="1"
     objecttolerance="10"
     gridtolerance="10"
     guidetolerance="10"
     inkscape:pageopacity="0"
     inkscape:pageshadow="2"
     inkscape:window-width="1916"
     inkscape:window-height="1041"
     id="namedview63"
     showgrid="false"
     fit-margin-top="0"
     fit-margin-left="0"
     fit-margin-right="0"
     fit-margin-bottom="0"
     inkscape:zoom="0.8257635"
     inkscape:cx="217.23516"
     inkscape:cy="524.09167"
     inkscape:window-x="0"
     inkscape:window-y="18"
     inkscape:window-maximized="0"
     inkscape:current-layer="svg61" />
  <path
     style="fill:#000000;stroke-width:4.09738064"
     d="m 286.11855,926.00801 c 0,-2.25355 -3.38034,-4.09738 -7.51185,-4.09738 -4.13157,0 -8.7886,-1.27684 -10.34907,-2.8372 -1.56033,-1.56033 -6.93824,-3.42037 -11.9507,-4.13313 -5.01245,-0.71269 -14.15832,-3.33675 -20.32418,-5.83103 -6.16587,-2.49428 -16.87732,-3.70335 -23.80322,-2.68681 -10.59032,1.55419 -13.54781,8.4e-4 -18.60055,-9.77005 -3.30441,-6.39004 -7.57272,-11.6182 -9.48518,-11.6182 -4.67664,0 -35.10351,-28.07289 -35.74969,-32.98391 -1.64229,-12.4808 -2.40773,-13.38182 -5.23351,-6.16062 -2.97895,7.61232 -3.22815,7.56569 -5.4745,-1.02434 -1.29452,-4.94984 -0.68221,-8.9997 1.36036,-8.9997 2.04254,0 0.0256,-3.68764 -4.48101,-8.19476 -4.50712,-4.50711 -8.19476,-10.96049 -8.19476,-14.34083 0,-3.38034 -1.95266,-6.14607 -4.33918,-6.14607 -2.38647,0 -3.05183,-2.083 -1.47839,-4.62894 1.73473,-2.80675 0.62024,-3.89013 -2.83121,-2.75208 -3.13066,1.03228 -6.28484,5.90832 -7.00936,10.83575 -0.72447,4.92744 -2.94876,7.95064 -4.94278,6.71827 -1.99388,-1.23228 -2.46406,-5.26746 -1.04432,-8.96686 1.91758,-4.99714 0.87198,-6.07034 -4.06767,-4.17487 -4.699587,1.80336 -5.974927,0.7954 -4.350317,-3.43819 1.26404,-3.29429 0.36697,-8.31699 -1.99389,-11.16154 -2.36085,-2.84461 -5.57988,-15.26695 -7.15354,-27.60518 -3.35424,-26.29927 -8.59284,-38.1745 -15.64612,-35.4679 -3.51612,1.34932 -4.52845,-1.6789 -3.31809,-9.92565 1.73422,-11.81531 -4.56748,-16.51101 -9.05255,-6.74562 -1.29374,2.81695 -1.26532,0.79105 0.064,-4.50187 2.08761,-8.31755 1.24842,-9.25319 -6.1839,-6.89428 -10.16478,3.22615 -11.03209,-0.0717 -2.31169,-8.79315 7.43797,-7.43798 0.96596,-18.66534 -8.63577,-14.98085 -3.21557,1.23383 -5.8465,0.1639 -5.8465,-2.38006 0,-2.54294 -4.48704,-11.49838 -9.97118,-19.90093 -6.91789,-10.59923 -9.28377,-18.71302 -7.72622,-26.4974 1.23484,-6.17101 3.75568,-10.28635 5.60217,-9.14515 1.84638,1.14112 2.68457,-3.02891 1.86251,-9.26686 -0.82204,-6.23796 -1.62179,-12.7246 -1.77698,-14.41477 -0.15621,-1.69017 -3.96995,-3.07303 -8.47707,-3.07303 -4.50712,0 -8.1947601,-1.84382 -8.1947601,-4.09738 0,-2.25356 2.8899601,-4.09738 6.4221801,-4.09738 4.73988,0 5.70481,-2.4149 3.68365,-9.21911 -1.5063,-5.07051 -4.85714,-11.06293 -7.44653,-13.31649 -5.3316401,-4.64015 -6.4216501,-42.42545 -1.4456101,-50.10822 1.7944001,-2.77039 1.26865,-8.76281 -1.16852,-13.31649 -3.47796,-6.49865 -3.18115,-8.27945 1.38005,-8.27945 5.0065101,0 4.9980101,-2.35957 -0.0615,-17.04494 -3.94314,-11.44501 -4.47595,-17.90809 -1.6218,-19.67204 2.8470701,-1.75957 2.9541601,-7.1478 0.32447,-16.31746 -4.01108,-13.98577 -2.2172,-22.53129 3.9319701,-18.73089 1.88761,1.16673 2.46714,-1.56904 1.2876,-6.07923 -1.17953,-4.51025 -5.0024101,-8.20043 -8.4955101,-8.20043 -3.49309003,0 -5.20139003,-1.14982 -3.79619003,-2.55497 1.40514003,-1.40514 5.86107003,-1.12806 9.90198013,0.61563 13.48576,5.81938 20.32219,5.83065 20.32219,0.0333 0,-6.20141 -17.00884,-12.17539 -23.4069301,-8.22119 -2.14984,1.3296 -3.90895,0.46403 -3.90895,-1.92244 0,-2.38646 5.07051,-4.3405 11.2678001,-4.34212 9.12013,-0.002 11.38009,-1.94958 11.857,-10.21633 0.36236,-6.28128 -1.08888,-9.17636 -3.76934,-7.51972 -2.77213,1.71322 -3.35842,0.0871 -1.61078,-4.46686 1.83588,-4.78436 1.04714,-6.55716 -2.37674,-5.34221 -2.81848,1.00001 -4.6853,5.76373 -4.14847,10.58583 0.53676,4.82208 -1.30706,8.76745 -4.09738,8.76745 -8.1834101,0 -6.1031501,-21.8615 2.84868,-29.93669 5.27187,-4.7556 6.64232,-8.41709 3.834,-10.24345 -6.22971,-4.05146 -5.29817,-17.18318 1.21897,-17.18318 3.00476,0 5.61479,-1.38287 5.80012,-3.07304 0.18438,-1.69017 1.17032,-8.14354 2.18877,-14.34083 1.07659,-6.55023 -0.0235,-11.2678 -2.62744,-11.2678 -2.46355,0 -3.33983,1.84382 -1.94703,4.09738 1.39285,2.25356 0.57978,4.09738 -1.80694,4.09738 -2.38647,0 -4.33921,-3.79648 -4.33921,-8.43658 0,-4.6401 1.46687,-7.53004 3.25957,-6.42205 1.79286,1.10808 3.06448,-2.93181 2.82604,-8.97731 -0.23816,-6.04548 0.54623,-12.83561 1.74369,-15.08917 1.19746,-2.25356 2.71291,-7.78502 3.36772,-12.29214 0.65481,-4.50712 2.36624,-10.96049 3.80293,-14.34083 1.4369,-3.38034 2.79823,-11.67754 3.02535,-18.43822 0.24585,-7.27656 2.44255,-11.89423 5.38726,-11.31696 2.77408,0.54393 3.99047,-1.5885 2.75004,-4.82103 -2.64125,-6.88301 20.81433,-32.82007 26.50147,-29.30523 2.24332,1.38645 3.01324,-1.09324 1.79056,-5.7684 -2.30196,-8.80263 5.124,-11.61807 8.12029,-3.07869 0.98849,2.81695 1.83357,-0.33291 1.87788,-6.99969 0.0435,-6.66679 2.15522,-12.81286 4.6904,-13.65795 2.53525,-0.84508 4.60955,-5.07051 4.60955,-9.38981 0,-4.31933 1.84382,-7.85332 4.09738,-7.85332 2.25356,0 4.09738,-2.70085 4.09738,-6.0019 0,-3.30105 3.845567,-8.05999 8.545697,-10.57543 4.70013,-2.51543 7.67872,-5.44046 6.61912,-6.50007 -1.05969,-1.06027 4.31387,-8.54408 11.94115,-16.63136 7.62727,-8.08726 13.86777,-15.91963 13.86777,-17.40525 105.43636,-56.1362505 6.6405,-8.693817 125.75447,-60.2531 12.74286,-5.32432 15.42782,-5.27231 24.18943,0.46851 6.26894,4.10757 9.85556,4.76898 9.85556,1.81747 0,-2.8903 5.408,-4.00876 14.34083,-2.9659 7.88745,0.92081 14.34083,0.20077 14.34083,-1.60041 0,-1.80103 3.49038,-3.2746200000004 7.75637,-3.2746200000004 10.16401,0 14.43253,11.7170700000004 7.30603,20.0551100000004 -11.85182,13.86674 -11.12185,19.9614 2.64212,22.05935 13.24781,2.01927 21.34825,-0.75412 11.97596,-4.10026 -2.83101,-1.01072 -4.10504,-3.52403 -2.83122,-5.58512 1.27378,-2.06108 0.13829,-3.74742 -2.52475,-3.74742 -3.58518,0 -3.65712,-1.42638 -0.27734,-5.49872 2.5099,-3.0243 3.57806,-6.48416 2.37366,-7.68858 -1.20437,-1.20443 0.56134,-3.24565 3.92421,-4.53606 4.1453,-1.59068 5.38045,-0.43427 3.83574,3.5912 -1.39823,3.64381 0.22792,5.9374 4.20706,5.9374 7.82083,0 24.95482,10.20506 43.56545,25.94777 10.96085,9.27177 12.54667,12.35042 7.88229,15.30243 -3.21153,2.03253 -7.222,3.72374 -8.91217,3.75824 -1.69017,0.0343 -3.07303,3.97615 -3.07303,8.75921 0,7.23704 1.02383,7.84674 6.10095,3.63312 3.3555,-2.78484 5.20994,-6.50504 4.12089,-8.26712 -1.08888,-1.76208 1.08862,-4.38134 4.83926,-5.82059 6.0381,-2.31704 13.38353,3.35232 13.55782,10.46426 0.0333,1.40804 8.4647,11.32912 18.73379,22.04687 10.26906,10.71774 17.75395,21.8767 16.63306,24.79767 -1.12089,2.921 0.61819,7.51529 3.86452,10.20955 3.2464,2.69426 5.95859,3.29002 6.02712,1.32396 0.0691,-1.96597 2.02487,-0.31088 4.34724,3.67835 2.32245,3.98921 3.11332,10.74838 1.75752,15.02036 -2.80916,8.85077 3.96432,15.16727 8.4615,7.89066 1.97648,-3.19821 1.17697,-3.69236 -2.39876,-1.48249 -3.47376,2.14703 -4.37244,1.71117 -2.55062,-1.23664 5.06531,-8.19589 15.0358,-0.15877 25.55511,20.60038 5.68276,11.21437 8.82391,19.45753 6.98035,18.31815 -1.84357,-1.13932 -3.35194,4.18066 -3.35194,11.82233 0,13.79575 7.94354,17.87546 15.30243,7.85913 1.6999,-2.31374 3.0376,-0.9762 3.07304,3.07304 0.0333,3.94373 -1.78108,7.17042 -4.03464,7.17042 -2.25356,0 -4.09738,2.61208 -4.09738,5.8046 0,3.19255 -2.30478,6.79415 -5.12173,8.00357 -2.81695,1.20949 0.25097,1.4305 6.81561,0.49143 9.07608,-1.29836 10.79476,-0.56493 7.17042,3.05936 -17.52684,20.37104 13.41972,38.91357 4.04575,20.672 -2.55395,-4.77186 -2.70527,-10.01536 -0.39463,-13.66743 2.67587,-4.22947 3.91328,-4.45946 4.32366,-0.8036 0.31627,2.81695 1.00872,6.50459 1.53908,8.19476 0.53035,1.69017 2.37417,9.06546 4.09738,16.38953 1.72346,7.32406 5.44439,13.31648 8.2691,13.31648 2.89954,0 8.02874,11.51705 11.77997,26.45072 8.67797,34.54719 8.5907,40.72517 -0.52626,37.25428 -12.33033,-2.95439 12.88703,21.33016 -3.31478,22.33994 -4.0921,0 -5.2333,1.84075 -3.17531,5.12173 1.76699,2.81695 2.67966,8.36098 2.0282,12.32008 6.27937,15.31907 10.33942,20.03201 10.83506,35.53663 0.36339,13.18877 2.48967,28.78986 4.72502,34.66911 2.23538,5.87926 2.65613,10.68958 0.93523,10.68958 -3.67258,0 -2.51195,75.80684 1.2538,81.90013 1.43024,2.31425 -1.41155,4.14486 -6.43366,4.14486 -8.79223,0 -8.75003,0.24584 1.86892,10.86428 5.97534,5.97534 10.08337,11.64514 9.12894,12.59958 -1.55777,1.55777 -11.77226,4.07517 -19.90008,4.90433 -5.40122,0.5511 -3.28707,12.60562 2.21079,12.60562 8.47723,0 5.15538,57.18066 -4.82016,82.97195 -2.39696,6.19729 -5.26784,11.2678 -6.37967,11.2678 -1.11193,0 -0.80641,-3.16628 0.67863,-7.03618 2.35753,-6.14387 1.90835,-6.2966 -3.54308,-1.20437 -8.58074,8.01563 -7.84733,15.73038 1.26865,13.34645 10.86172,-2.84038 9.24267,2.63354 -2.04869,6.92649 -5.25832,1.99927 -9.65896,6.1022 -9.77917,9.1177 -73.74626,81.19119 -7.43052,87.97144 -47.77681,84.08797 -2.22181,-0.41537 -8.29507,7.54226 -13.49623,17.68327 -6.63223,12.93129 -11.60911,18.02999 -16.66349,17.07143 -5.80115,-1.10014 -6.20784,-0.34085 -2.08505,3.89251 5.71735,5.87091 7.07789,17.60507 1.65252,14.25197 -1.9081,-1.17927 -9.61209,3.78242 -17.12003,11.026 -8.13484,7.84843 -12.57973,10.27275 -11.00014,5.9997 3.69034,-9.98325 0.0666,-8.97673 -5.56585,1.54548 -3.63835,6.79832 -3.4447,9.48884 0.88017,12.2294 4.07512,2.58229 3.19173,3.53017 -3.33289,3.57632 -4.88269,0.0333 -9.80767,-2.24204 -10.94431,-5.05899 -1.13676,-2.81695 -2.26841,-1.43408 -2.51476,3.07304 -0.4141,7.57196 -0.76673,7.64735 -4.64262,0.99182 -2.30708,-3.96158 -3.06402,-9.03209 -1.68223,-11.2678 1.38159,-2.23563 0.9698,-4.0649 -0.91525,-4.0649 -6.11621,0 -21.45791,12.48986 -26.18027,21.3137 -4.49252,8.39435 -4.29049,8.37853 8.39899,-0.65712 7.15119,-5.09215 13.97586,-8.28472 15.16592,-7.09469 1.19003,1.19003 -2.10477,4.44812 -7.32179,7.2402 -5.21699,2.79203 -11.96,7.55098 -14.9844,10.57542 -3.02443,3.0244 -8.13296,5.72941 -11.35235,6.01111 -14.03911,1.22844 -16.03085,2.21028 -14.90497,7.34716 0.75597,3.44926 -1.11705,4.50505 -5.12172,2.88679 -19.22307,-7.76812 -20.79293,-8.00413 -15.53271,-2.335 6.8597,7.39304 6.46246,12.07573 -1.02435,12.07573 -3.38034,0 -6.14607,-1.75778 -6.14607,-3.90637 0,-5.5068 -34.10808,-2.3501 -36.00209,3.33207 -1.91834,5.75482 -9.06909,6.20766 -9.06909,0.5744 z M 407.20339,791.81932 c 1.72576,-3.94373 2.83336,-8.58763 2.46176,-10.31972 -0.37158,-1.73216 3.94506,-5.25476 9.59299,-7.82812 5.64785,-2.57333 10.26885,-8.07952 10.26885,-12.23598 0,-4.15641 4.66387,-17.22493 10.3642,-29.04113 5.7003,-11.81618 11.33358,-27.01864 12.51839,-33.78331 1.18491,-6.7646 4.81811,-17.65311 8.07402,-24.19662 3.25588,-6.54352 5.91979,-15.30167 5.91979,-19.46256 0,-4.16089 1.6387,-7.56525 3.64137,-7.56525 2.00285,0 4.84341,-6.91433 6.31253,-15.36518 2.45996,-14.15025 4.59019,-21.52438 12.72451,-44.04684 5.15902,-14.28436 4.44413,-26.9278 -1.80848,-31.98254 -4.88139,-3.94623 -5.38196,-3.77955 -2.58524,0.86097 2.3542,3.90636 1.94882,4.81572 -1.26225,2.83121 -2.60173,-1.60797 -4.73045,-5.68932 -4.73045,-9.06965 0,-3.38034 1.71655,-5.08529 3.81425,-3.78875 2.09786,1.29657 4.9724,0.48349 6.38789,-1.80694 1.41539,-2.29018 -0.3009,-4.16422 -3.81425,-4.16422 -3.51335,0 -6.38789,-1.95266 -6.38789,-4.33921 0,-2.38646 1.84382,-3.19964 4.09738,-1.80694 2.25356,1.39285 4.09738,-0.34213 4.09738,-3.85556 0,-3.51332 -1.84382,-6.38789 -4.09738,-6.38789 -2.25356,0 -4.09738,-1.95266 -4.09738,-4.33921 0,-2.38646 1.69529,-3.2915 3.76705,-2.01104 4.80487,2.96963 16.71985,-8.77303 16.71985,-16.47803 0,-3.21933 -2.30477,-5.88161 -5.12172,-5.91613 -3.23076,-0.041 -3.58501,-1.17415 -0.95956,-3.07303 6.49046,-4.69417 4.3129,-28.47311 -3.38659,-36.98091 -3.81678,-4.21751 -6.15867,-8.44916 -5.20423,-9.40359 0.95443,-0.95443 2.68312,-18.78211 3.84142,-39.61698 1.53652,-27.63724 0.79259,-37.89852 -2.75083,-37.94428 -2.88606,-0.0358 -2.36291,-1.67429 1.2894,-4.03464 4.7893,-3.09509 3.6587,-3.98573 -5.12173,-4.03467 -7.25633,-0.041 -11.2678,-2.25074 -11.2678,-6.20878 0,-3.38034 -1.38286,-6.14607 -3.07303,-6.14607 -1.69017,0 -3.07304,-6.45338 -3.07304,-14.34083 0,-20.50376 4.64933,-17.70082 8.49559,5.12172 2.27686,13.51009 3.77512,16.52292 4.89898,9.85105 2.41105,-14.31348 -8.02077,-46.28352 -14.3143,-43.8685 -2.87447,1.10296 -5.22631,0.22023 -5.22631,-1.96316 0,-2.18288 2.87454,-3.96877 6.38787,-3.96877 3.51335,0 5.29811,-1.76341 3.96613,-3.91843 -1.3319,-2.15522 -4.8211,-2.99772 -7.75365,-1.8725 -2.93257,1.12524 -5.33195,-0.71781 -5.33195,-4.0961 0,-3.37819 1.1675,-5.42061 2.59441,-4.53875 1.42692,0.88196 4.82285,-1.96495 7.54653,-6.3263 4.02719,-6.44851 3.86145,-7.92971 -0.88708,-7.92971 -3.21163,0 -6.61269,1.38286 -7.5579,3.07303 -0.94521,1.69017 -1.1675,0.79643 -0.49399,-1.9862 0.67351,-2.78256 -2.39441,-6.99602 -6.81763,-9.36326 -4.4232,-2.36726 -8.04216,-7.08872 -8.04216,-10.49219 0,-3.40349 -4.1486,-10.48576 -9.21911,-15.73839 -14.47043,-14.99014 -26.72506,-40.24097 -25.39,-52.31641 0.82075,-7.4235 -0.43714,-10.38655 -3.85272,-9.07585 -2.78921,1.07019 -7.60725,-2.79247 -10.70674,-8.58396 -3.12033,-5.83037 -8.03529,-9.60907 -11.0125,-8.4666 -2.95736,1.13472 -5.37702,-0.59719 -5.37702,-3.8489 0,-9.93343 -22.55216,-18.41485 -48.9651,-18.41485 -23.00495,0 -24.78774,-0.66583 -24.78774,-9.25783 0,-9.20053 -14.85723,-22.32192 -19.74292,-17.43625 -1.40541,1.40545 -0.12805,4.05509 2.83702,5.88806 8.51121,5.26021 -13.45382,9.23089 -25.57347,4.62301 -8.89392,-3.38147 -10.45385,-2.69653 -11.64941,5.11503 -0.7593,4.9606 -3.18049,8.72894 -5.38053,8.37408 -2.20004,-0.35494 -7.64638,-1.27685 -12.10292,-2.04869 -4.51526,-0.78209 -8.14352,0.89323 -8.19476,3.78385 -0.0512,2.85306 -5.17732,8.5233 -11.39276,12.60057 -11.71398,7.68428 -11.43121,14.188 0.43355,9.97262 4.09823,-1.45611 2.83349,1.12473 -3.20487,6.53995 -5.48608,4.91986 -14.3542,10.04437 -19.70694,11.38783 -5.79795,1.45508 -8.89831,4.61583 -7.66935,7.81847 1.13446,2.95669 -0.13828,6.35665 -2.82865,7.55546 -2.69034,1.19874 2.48378,1.09426 11.49797,-0.23304 9.01423,-1.32652 18.14115,-4.03207 20.28203,-6.01229 2.14088,-1.98031 8.59426,-3.38651 14.34083,-3.12509 6.59868,0.30013 7.87734,1.15213 3.47046,2.31194 -3.83787,1.01026 -8.14152,5.50296 -9.5637,9.98388 -2.11015,6.64849 -3.69548,7.22617 -8.61848,3.14044 -4.81829,-3.99884 -5.77994,-3.892 -4.77714,0.53061 0.72114,3.1807 -6.95302,9.52692 -18.03152,14.91127 -14.51925,7.05666 -21.16748,13.47572 -26.89392,25.96702 -4.18381,9.12622 -8.7389,15.46115 -10.12243,14.07762 -1.38363,-1.38363 -1.64177,3.0283 -0.57389,9.80406 1.06788,6.77576 0.0127,13.51183 -2.34524,14.96899 -2.35778,1.4579 -4.28693,6.2684 -4.28693,10.69086 0,4.57342 -4.36179,10.02813 -10.11499,12.64946 -5.56322,2.53474 -9.14205,6.18289 -7.95294,8.10694 1.18901,1.92398 -0.82844,3.49822 -4.4834,3.49822 -4.04681,0 -6.18415,2.80391 -5.4658,7.17042 0.64892,3.94372 -0.31602,9.55593 -2.14396,12.4716 -1.883,3.00361 -1.21846,7.8377 1.53345,11.15361 3.81015,4.59093 3.44461,7.26473 -1.69606,12.4053 -7.33032,7.33035 -8.72794,11.89286 -2.45562,8.01632 4.69699,-2.90291 5.08252,-1.18875 1.70964,7.60093 -1.31321,3.42239 -5.00093,5.2197 -8.19476,3.99412 -8.224727,-3.15613 -7.220327,6.8782 1.3634,13.62121 4.40274,3.4586 5.03076,5.2145 1.62717,4.54909 -7.547497,-1.47557 -9.944137,20.13517 -2.5478,22.97342 4.69626,1.80208 4.59513,4.21785 -0.61358,14.65892 -3.430017,6.87568 -8.975927,12.50123 -12.324207,12.50123 -3.3483,0 -4.89614,1.92808 -3.43965,4.28479 5.54875,8.97808 5.20309,36.37209 -0.51883,41.1209 -6.8419,5.67828 -7.6222,16.05502 -1.20719,16.05502 2.49454,0 3.47445,-2.76573 2.17725,-6.14607 -1.29708,-3.38034 -0.57261,-6.14607 1.61027,-6.14607 2.18288,0 3.96877,4.60955 3.96877,10.24345 0,5.6339 -1.84382,10.24345 -4.09738,10.24345 -2.25356,0 -4.09738,2.76573 -4.09738,6.14607 0,3.38034 2.76573,6.14607 6.14607,6.14607 15.831037,8.48029 -2.968774,44.62649 15.103177,45.35921 8.34244,0.25352 8.55968,0.64995 1.80873,3.30272 -7.19658,2.82778 -7.24391,3.44323 -0.76313,9.92403 3.80011,3.80012 5.89011,8.5583 4.64446,10.57381 -1.24561,2.01539 0.48067,5.94304 3.83614,8.72793 3.35553,2.78481 6.10095,7.6033 6.10095,10.70768 0,3.10441 1.95266,5.64437 4.3392,5.64437 2.38647,0 3.32877,1.63486 2.09376,3.63313 -1.2351,1.99824 0.56647,5.96676 4.0032,8.81899 3.92926,3.26098 5.56604,9.51678 4.40973,16.85378 -1.01129,6.41737 -0.15622,11.66791 1.90092,11.66791 2.05689,0 3.32992,1.38286 2.82876,3.07303 -0.50116,1.69017 2.56373,8.6045 6.81084,15.36518 19.60034,31.20025 25.01397,38.87108 27.45133,38.89715 1.44125,0.0164 9.73852,6.37535 18.43821,14.1333 8.69966,7.75788 24.11477,18.21137 34.25579,23.22992 10.14102,5.01855 19.65585,10.95844 21.14405,13.19971 1.48811,2.24127 16.23879,4.59992 32.77904,5.24145 16.54028,0.64149 38.85843,2.07173 49.59585,3.17813 10.73746,1.10655 29.17319,-0.49143 40.96832,-3.5512 11.79508,-3.05959 21.46776,-5.25312 21.4948,-4.87447 0.0282,0.37849 3.19133,4.44949 7.03172,9.04642 6.65453,7.96541 6.58257,8.38819 -1.53114,8.99934 -23.48541,3.20326 0.51231,19.7129 6.96555,6.20258 z M 114.02853,335.9852 c 0,-2.25356 1.95266,-4.09738 4.3392,-4.09738 2.38647,0 3.19965,1.84382 1.80695,4.09738 -1.39285,2.25356 -3.34541,4.09738 -4.33918,4.09738 -0.99387,0 -1.80694,-1.84382 -1.80697,-4.09738 z m 370.63794,-12.00901 c 1.29656,-2.09786 0.48349,-4.97243 -1.80695,-6.38789 -2.29018,-1.41539 -4.16419,0.30064 -4.16419,3.81425 0,7.19715 2.45868,8.25686 5.97106,2.57364 z m -2.05848,-17.697 c -0.25659,-7.10539 -11.36421,-30.78072 -11.77456,-25.09645 -0.70552,9.77212 4.96057,30.21818 8.37415,30.21818 1.97186,0 3.50203,-2.30478 3.40041,-5.12173 z M 343.48188,12.29213 c 0,-2.25356 -1.95266,-4.09739 -4.33923,-4.09739 -2.38647,0 -3.19964,1.84383 -1.80694,4.09739 1.39285,2.25355 3.3454,4.09738 4.3392,4.09738 0.99387,0 1.80694,-1.84383 1.80697,-4.09738 z"
     id="path71"
     inkscape:connector-curvature="0"
     sodipodi:nodetypes="csccsccscccscsscccccccccccccsccscccccssscsccscccccsccscsccccccsscsccscssccsscccccccccsssccsccssssscsccsccccssccsccccsccccccccccsccssccccccccssccccccscscccscscccccccccccccccccccscccccscccsscccccsscccsscscccsccsscssscsccccccccssscccssccsccssccscccccsssccscccccccccccccccccccsscsccscccccccscccsccscsssscccsccsscccsscccsccccccccccscscccsccccsccscsc" />
</svg>
