<?xml version="1.0" encoding="UTF-8" standalone="no"?>
<!-- Created with Inkscape (http://www.inkscape.org/) -->

<svg
   xmlns:dc="http://purl.org/dc/elements/1.1/"
   xmlns:cc="http://creativecommons.org/ns#"
   xmlns:rdf="http://www.w3.org/1999/02/22-rdf-syntax-ns#"
   xmlns:svg="http://www.w3.org/2000/svg"
   xmlns="http://www.w3.org/2000/svg"
   xmlns:sodipodi="http://sodipodi.sourceforge.net/DTD/sodipodi-0.dtd"
   xmlns:inkscape="http://www.inkscape.org/namespaces/inkscape"
   id="svg3595"
   version="1.1"
   inkscape:version="0.91 r13725"
   width="774.1864"
   height="930"
   viewBox="0 0 774.1864 930"
   sodipodi:docname="smbl_ampersand.svg">
  <metadata
     id="metadata3601">
    <rdf:RDF>
      <cc:Work
         rdf:about="">
        <dc:format>image/svg+xml</dc:format>
        <dc:type
           rdf:resource="http://purl.org/dc/dcmitype/StillImage" />
        <dc:title />
      </cc:Work>
    </rdf:RDF>
  </metadata>
  <defs
     id="defs3599" />
  <sodipodi:namedview
     pagecolor="#ffffff"
     bordercolor="#666666"
     borderopacity="1"
     objecttolerance="10"
     gridtolerance="10"
     guidetolerance="10"
     inkscape:pageopacity="0"
     inkscape:pageshadow="2"
     inkscape:window-width="1642"
     inkscape:window-height="1036"
     id="namedview3597"
     showgrid="false"
     fit-margin-top="0"
     fit-margin-left="0"
     fit-margin-right="0"
     fit-margin-bottom="0"
     inkscape:zoom="0.93331766"
     inkscape:cx="218.22017"
     inkscape:cy="395.51955"
     inkscape:window-x="153"
     inkscape:window-y="0"
     inkscape:window-maximized="0"
     inkscape:current-layer="svg3595" />
  <path
     style="fill:#000000"
     d="M 635.13927,916.17207 C 593.97611,881.12242 590.94425,865.12138 545.80888,824.02215 533.31978,805.35219 532.87363,804.12426 517.19121,818.13458 58.762854,1126.6529 -178.49725,575.11531 196.0838,433.55997 c 14.53458,-7.14509 2.90416,-11.91071 -5.1133,-20.02666 C 134.27701,345.38971 70.019756,304.29297 56.41641,195.76486 39.88262,-15.629126 354.95339,-65.591796 441.63287,107.79955 c 73.99294,151.89371 43.4409,208.81693 -15.2545,284.91753 -13.48406,11.20885 -58.22136,51.11518 -66.78034,58.61283 -4.69387,5.64924 -4.14065,7.24419 11.3988,21.25469 57.62813,68.20977 63.61187,88.82676 137.40064,176.53856 17.93843,22.18919 26.01536,32.61606 48.94977,9.39113 45.6124,-53.38199 89.82506,-96.62108 134.57777,-155.62272 41.41026,-53.30842 97.94342,-5.43932 70.83957,45.33579 -53.7969,67.47164 -86.43016,96.37333 -138.89824,160.23463 -46.37249,45.35092 -34.72933,33.43728 3.0768,82.15024 31.39474,33.97272 41.44001,40.86326 69.41835,77.68552 27.92612,47.68342 -28.53389,81.19 -61.22222,47.87432 z M 441.68274,751.71494 c 28.86256,-19.44732 25.92175,-21.33762 8.96895,-40.71558 C 406.2956,659.49525 386.92663,617.2321 297.5155,519.96041 280.94623,501.68234 274.0918,492.82039 249.74516,506.76038 -61.609406,651.15245 175.45461,962.64889 441.68274,751.71494 Z M 317.86033,370.66533 c 115.93811,-75.2003 94.12818,-160.63181 46.50791,-228.48615 -70.46191,-108.961266 -224.38945,-40.65323 -224.25872,21.9001 -10.11363,61.29867 78.76863,163.8395 138.33895,222.2677 6.7452,8.29227 21.73299,-3.26106 39.41186,-15.68174 z"
     id="path3605"
     inkscape:connector-curvature="0"
     sodipodi:nodetypes="ccccccccccccccccccccccccccscc" />
</svg>
