<?xml version="1.0" encoding="UTF-8" standalone="no"?>
<!-- Created with Inkscape (http://www.inkscape.org/) -->

<svg
   xmlns:dc="http://purl.org/dc/elements/1.1/"
   xmlns:cc="http://creativecommons.org/ns#"
   xmlns:rdf="http://www.w3.org/1999/02/22-rdf-syntax-ns#"
   xmlns:svg="http://www.w3.org/2000/svg"
   xmlns="http://www.w3.org/2000/svg"
   xmlns:sodipodi="http://sodipodi.sourceforge.net/DTD/sodipodi-0.dtd"
   xmlns:inkscape="http://www.inkscape.org/namespaces/inkscape"
   id="svg4451"
   version="1.1"
   inkscape:version="0.91 r13725"
   width="812.79431"
   height="889.88666"
   viewBox="0 0 812.79431 889.88665"
   sodipodi:docname="smbl_percent.svg">
  <metadata
     id="metadata4457">
    <rdf:RDF>
      <cc:Work
         rdf:about="">
        <dc:format>image/svg+xml</dc:format>
        <dc:type
           rdf:resource="http://purl.org/dc/dcmitype/StillImage" />
        <dc:title></dc:title>
      </cc:Work>
    </rdf:RDF>
  </metadata>
  <defs
     id="defs4455" />
  <sodipodi:namedview
     pagecolor="#ffffff"
     bordercolor="#666666"
     borderopacity="1"
     objecttolerance="10"
     gridtolerance="10"
     guidetolerance="10"
     inkscape:pageopacity="0"
     inkscape:pageshadow="2"
     inkscape:window-width="1650"
     inkscape:window-height="1037"
     id="namedview4453"
     showgrid="false"
     fit-margin-top="0"
     fit-margin-left="0"
     fit-margin-right="0"
     fit-margin-bottom="0"
     inkscape:zoom="0.32346492"
     inkscape:cx="-40.116555"
     inkscape:cy="707.77247"
     inkscape:window-x="140"
     inkscape:window-y="0"
     inkscape:window-maximized="0"
     inkscape:current-layer="svg4451" />
  <path
     style="fill:#000000"
     d="M 156.43582,853.19214 C 296.17139,608.99602 451.13316,300.45603 582.01647,58.281776 613.02339,9.9340522 654.47961,51.014661 637.66941,82.985203 520.66566,330.01548 331.12124,650.52405 209.08334,876.18764 c -14.1063,21.089 -63.52633,21.01985 -52.64752,-22.9955 z M 487.30674,597.25882 C 527.09685,209.36334 868.5278,246.50786 804.91936,620.98799 789.41146,915.50563 479.10383,974.57798 487.30674,597.25882 Z m 248.00844,13.90052 c 25.85503,-343.04037 -144.89572,-238.773 -180.96918,-5.24011 -3.77962,262.05452 146.20773,249.97002 180.96918,5.24011 z M 3.4967247,242.60832 C 46.560266,-91.79219 343.19339,-74.242845 305.70026,256.61918 248.67604,703.71074 -34.514916,547.56955 3.4967247,242.60832 Z M 236.84967,254.36083 C 248.82473,-55.751492 95.227426,55.333889 77.080689,244.89495 47.847513,503.38028 206.51226,558.84511 236.84967,254.36083 Z"
     id="path4461"
     inkscape:connector-curvature="0"
     sodipodi:nodetypes="ccccccccccccccccc" />
</svg>
