<?xml version="1.0" encoding="UTF-8" standalone="no"?>
<!-- Created with Inkscape (http://www.inkscape.org/) -->

<svg
   xmlns:dc="http://purl.org/dc/elements/1.1/"
   xmlns:cc="http://creativecommons.org/ns#"
   xmlns:rdf="http://www.w3.org/1999/02/22-rdf-syntax-ns#"
   xmlns:svg="http://www.w3.org/2000/svg"
   xmlns="http://www.w3.org/2000/svg"
   xmlns:sodipodi="http://sodipodi.sourceforge.net/DTD/sodipodi-0.dtd"
   xmlns:inkscape="http://www.inkscape.org/namespaces/inkscape"
   id="svg4451"
   version="1.1"
   inkscape:version="0.91 r13725"
   width="816.08209"
   height="930"
   viewBox="0 0 816.08209 929.99999"
   sodipodi:docname="smbl_percent.svg">
  <metadata
     id="metadata4457">
    <rdf:RDF>
      <cc:Work
         rdf:about="">
        <dc:format>image/svg+xml</dc:format>
        <dc:type
           rdf:resource="http://purl.org/dc/dcmitype/StillImage" />
        <dc:title></dc:title>
      </cc:Work>
    </rdf:RDF>
  </metadata>
  <defs
     id="defs4455" />
  <sodipodi:namedview
     pagecolor="#ffffff"
     bordercolor="#666666"
     borderopacity="1"
     objecttolerance="10"
     gridtolerance="10"
     guidetolerance="10"
     inkscape:pageopacity="0"
     inkscape:pageshadow="2"
     inkscape:window-width="1650"
     inkscape:window-height="1037"
     id="namedview4453"
     showgrid="false"
     fit-margin-top="0"
     fit-margin-left="0"
     fit-margin-right="0"
     fit-margin-bottom="0"
     inkscape:zoom="0.45744848"
     inkscape:cx="172.19337"
     inkscape:cy="665.81539"
     inkscape:window-x="140"
     inkscape:window-y="0"
     inkscape:window-maximized="0"
     inkscape:current-layer="svg4451" />
  <path
     style="fill:#000000"
     d="M 156.75752,892.76976 C 296.49309,648.57364 451.45486,340.03365 582.33817,97.859393 613.34509,49.511669 654.80131,90.592278 637.99111,122.56282 520.98736,369.5931 331.44294,690.10167 209.40504,915.76526 c -14.1063,21.089 -63.52633,21.01985 -52.64752,-22.9955 z m 417.00413,11.60305 c -14.93301,-4.98594 -20.9484,-9.15719 -18.6256,-12.91554 1.05751,-1.71118 -1.44699,-2.22991 -5.56567,-1.15284 -5.9921,1.56708 -6.98018,0.63386 -4.94501,-4.66968 1.80823,-4.71233 1.21523,-5.80711 -2.05188,-3.78794 -2.95843,1.8283 -5.32189,0.0619 -6.63539,-4.96177 -2.09224,-8.00072 -8.60192,-10.92831 -8.60192,-3.86853 0,2.1633 -1.51483,2.99705 -3.3661,1.8528 -1.85132,-1.14417 -4.51515,-10.43504 -5.91953,-20.64637 -1.40439,-10.21129 -4.14126,-18.566 -6.0818,-18.566 -1.9407,0 -3.10441,-2.08927 -2.5863,-4.64254 0.51823,-2.5534 -1.239,-8.59028 -3.90463,-13.41531 -2.66569,-4.82499 -4.09344,-12.71315 -3.17275,-17.52926 0.92058,-4.81606 0.24512,-7.87278 -1.50369,-6.79267 -1.74758,1.08005 -3.1775,-0.64178 -3.1775,-3.82641 0,-3.18464 -2.08902,-5.92599 -4.64254,-6.09191 -2.5534,-0.16589 0.3714,-2.7536 6.49955,-5.75046 8.65206,-4.2311 9.20902,-5.05427 2.49217,-3.68335 -6.22271,1.26995 -8.10511,0.34541 -6.70821,-3.29467 1.06791,-2.78305 -0.0545,-5.87178 -2.49217,-6.86382 -3.29538,-1.34052 -3.24178,-1.87906 0.20799,-2.09695 2.5534,-0.16094 4.64254,-3.84048 4.64254,-8.17602 0,-6.94892 -0.77004,-7.28653 -6.49956,-2.84955 -5.82035,4.50735 -5.79663,4.20698 0.2278,-2.87407 4.54508,-5.34293 5.31515,-8.37789 2.3745,-9.35814 -5.29925,-1.7664 -6.86048,-57.2076 -1.90678,-67.70994 2.55854,-5.42439 2.20935,-6.40195 -1.47398,-4.1256 -3.26211,2.01598 -4.21929,1.31056 -2.95243,-2.17617 1.03101,-2.83775 3.75481,-4.74171 6.05288,-4.23103 5.32733,1.18379 5.51326,-5.43556 0.20303,-7.20586 -2.45943,-0.81981 -4.02301,-15.45693 -4.0994,-38.3783 -0.19808,-59.35756 -0.22531,-59.11476 6.30806,-53.69168 3.11343,2.58393 6.73461,3.62423 8.04705,2.31186 1.31254,-1.31254 0.25775,-2.38614 -2.34405,-2.38614 -2.67893,0 -3.80327,-2.4161 -2.59257,-5.57105 1.17586,-3.06407 0.51898,-5.57104 -1.45961,-5.57104 -5.30909,0 -4.37743,-12.75656 2.11724,-28.98807 4.29558,-10.73578 7.75401,-14.21286 13.92762,-14.00279 5.81268,0.19808 8.56196,-2.1789 9.40702,-8.13217 0.65664,-4.62642 2.74589,-7.45258 4.64254,-6.28035 4.95024,3.05939 4.25341,-8.26115 -1.02928,-16.71988 -3.63854,-5.8262 -3.3401,-8.42691 1.59233,-13.87723 6.08737,-6.72648 6.59934,-8.06252 6.59934,-17.22182 0,-2.71889 3.99434,-7.08112 8.87629,-9.69387 4.88194,-2.61274 11.01396,-8.74476 13.6267,-13.6267 3.58949,-6.7071 8.0007,-8.94792 18.05045,-9.1695 7.315,-0.16094 11.01782,-1.20063 8.22848,-2.30939 -8.56715,-3.40609 20.29258,-25.77288 39.61914,-30.70553 9.59686,-2.44928 21.14962,-5.92187 25.67279,-7.71667 4.98812,-1.97933 9.09302,-1.85726 10.43279,0.31049 1.21474,1.96572 0.0223,3.59957 -2.65291,3.63084 -3.53273,0.0421 -3.33886,1.04092 0.70938,3.65716 8.03056,5.18974 11.1421,4.54417 11.1421,-2.31186 0,-4.93521 1.00823,-5.18897 5.57105,-1.40217 4.49137,3.72752 5.58209,3.63571 5.62792,-0.47367 0.047,-4.19306 0.64896,-4.16174 3.39492,0.1758 1.83597,2.90066 10.31862,5.92448 18.85037,6.71965 23.66469,2.20564 31.69136,6.59899 38.58081,21.11746 3.47138,7.31538 10.42955,17.74406 15.46256,23.17479 5.03303,5.43069 8.28142,10.74353 7.21869,11.80632 -1.06271,1.0627 -4.51419,-1.28828 -7.66985,-5.22468 -5.48689,-6.84427 -5.5606,-6.79183 -1.6879,1.19963 2.22718,4.59612 6.329,8.35657 9.11497,8.35657 8.01384,0 20.66941,28.33274 22.08438,49.44166 0.90399,13.48642 2.74613,18.92643 6.13907,18.12985 3.74,-0.878 3.64322,0.34144 -0.42365,5.33793 -4.71197,5.78891 -4.53461,6.19948 1.67156,3.87004 5.80615,-2.17914 6.66285,-1.14169 5.23295,6.33834 -1.12387,5.8785 0.63386,10.63345 5.12786,13.87253 8.61071,6.20627 8.74657,10.63043 0.33798,11.00978 -5.17711,0.23275 -5.36603,0.72473 -0.92851,2.41387 6.26119,2.38342 11.02833,8.43771 11.02833,14.00601 0,2.23015 -1.0902,2.12195 -2.72863,-0.27063 -1.50072,-2.19177 -5.33122,-4.9404 -8.51214,-6.10819 -4.92114,-1.80676 -5.43709,0.57716 -3.46014,15.98729 1.27788,9.96086 0.81337,19.62061 -1.032,21.46612 -1.99791,1.9979 -0.6611,8.41153 3.30444,15.85284 7.28007,13.66103 9.15576,32.77098 3.25726,33.18559 -2.04272,0.14361 -0.3714,1.69732 3.71403,3.45296 4.08543,1.7555 5.70156,3.30943 3.59139,3.45299 -2.11006,0.14361 -3.60795,4.85716 -3.32841,10.47463 0.77004,15.47263 -2.02662,19.9809 -10.91638,17.59743 -7.52589,-2.01771 -7.50242,-1.87831 0.47564,2.82467 6.51218,3.83892 7.39716,5.9426 3.95015,9.38962 -6.3512,6.35119 -8.05237,20.71535 -2.1685,18.31106 20.37594,-8.32621 19.76773,-8.55968 10.73766,4.12188 -4.63006,6.50231 -6.51377,11.82239 -4.18609,11.82239 2.57195,0 2.04668,2.18558 -1.33878,5.57104 -3.06408,3.06408 -7.46038,5.57105 -9.76959,5.57105 -2.30914,0 -3.22714,1.57178 -2.03999,3.49265 1.18725,1.9209 -1.25262,6.67057 -5.42182,10.55478 -4.16922,3.88426 -10.56431,15.53535 -14.21134,25.89141 -3.64703,10.35608 -8.83413,21.48389 -11.5269,24.72849 -2.69274,3.24458 -3.43783,5.92485 -1.65571,5.95612 1.78224,0.0297 1.56633,1.28481 -0.47961,2.78552 -2.04593,1.50072 -6.0484,7.24917 -8.89424,12.77419 -2.84584,5.52507 -10.36413,12.51904 -16.7072,15.54216 -6.34312,3.02315 -14.54018,11.11966 -18.21561,17.99225 -3.67548,6.8726 -12.44988,15.60146 -19.49867,19.3975 -7.04883,3.79604 -12.81601,8.31 -12.81601,10.03103 0,1.72108 -3.34263,3.12919 -7.42806,3.12919 -4.08543,0 -7.42806,1.49007 -7.42806,3.31138 0,3.3748 -17.83352,9.65304 -23.60364,8.30963 -1.74708,-0.40681 -5.50751,1.19518 -8.35657,3.55958 -3.87136,3.21293 -5.18011,3.22318 -5.18011,0.0396 0,-2.66177 -5.56837,-3.87675 -14.85068,-3.24032 -8.1679,0.56008 -14.85315,2.09497 -14.85612,3.41087 -0.007,3.31619 -14.49884,2.07491 -27.86069,-2.38639 z m 21.77091,-13.32248 c 1.30362,0.17332 2.00186,-0.93618 1.55147,-2.46834 -1.07954,-3.67333 -11.19377,-1.35661 -15.89439,3.64079 -2.53872,2.69898 -2.24501,3.11904 0.9285,1.32739 2.67876,-1.51235 4.66661,-0.56453 4.69942,2.24055 0.047,3.93138 0.65862,3.91264 3.20077,-0.099 1.72926,-2.72788 4.21053,-4.81702 5.51415,-4.64254 z m -13.98819,-7.6847 c 1.64185,-2.65665 1.01889,-3.27971 -1.63788,-1.63789 -2.35841,1.45764 -4.2879,0.78143 -4.2879,-1.50245 0,-2.28388 -1.74461,-3.07425 -3.87671,-1.75649 -2.1321,1.31774 -6.35087,0.34244 -9.37483,-2.16701 -3.02397,-2.5097 -6.44115,-3.61999 -7.59371,-2.46736 -1.9677,1.9677 15.97435,13.34697 21.55455,13.67031 1.41158,0.0817 3.75888,-1.78075 5.21641,-4.13916 z m 51.9778,-3.68387 c 1.13179,-1.83102 -3.07707,-2.93795 -9.3528,-2.45968 -6.27569,0.47812 -11.41039,1.97636 -11.41039,3.32923 0,3.71881 18.40377,2.9482 20.76319,-0.86958 z m -87.6662,-13.38394 c -8.92964,-28.09756 -13.97352,-38.706 -16.4771,-34.65511 -1.47521,2.38689 -0.8463,6.55175 1.39747,9.25535 3.03166,3.65289 2.63679,6.113 -1.53736,9.57715 -7.61256,6.31781 -7.10153,14.9071 0.8827,14.83726 4.40058,-0.0396 5.06361,-0.96961 2.05311,-2.88358 -2.44556,-1.55469 -3.17718,-4.88051 -1.62575,-7.39075 1.884,-3.04848 4.88237,-0.24017 9.02896,8.4546 7.41395,15.54726 10.80966,17.06451 6.2779,2.80508 z m 46.47583,-67.78107 c -1.26252,-2.04272 -0.62395,-3.71403 1.41876,-3.71403 2.04272,0 4.90342,1.92461 6.35716,4.27668 1.82755,2.95726 4.31846,2.09793 8.07344,-2.78553 3.80191,-4.94446 5.95218,-5.67003 7.17066,-2.41956 1.18997,3.1748 11.00596,4.64254 31.04767,4.64254 28.22136,0 29.50325,-0.37883 34.59355,-10.22236 2.90742,-5.6223 9.0872,-13.56104 13.73293,-17.64162 4.64571,-4.08061 7.09113,-5.11333 5.4343,-2.29502 -2.02861,3.45068 -1.41381,4.59153 1.88177,3.49297 2.69183,-0.89731 6.68489,-4.87452 8.87357,-8.83838 2.18855,-3.96384 4.81502,-8.04266 5.83637,-9.06402 1.02136,-1.02136 1.98206,-3.52833 2.13508,-5.57105 0.57765,-7.71892 9.8327,-27.78346 12.15439,-26.35043 1.33309,0.82278 2.91834,-6.0105 3.52283,-15.18512 0.84779,-12.86721 -0.001,-16.01936 -3.71403,-13.78658 -3.6656,2.2044 -3.86274,1.61783 -0.82674,-2.46092 3.81611,-5.1269 3.84835,-60.63075 0.0545,-94.49224 -4.60486,-41.10349 -8.75234,-64.02939 -12.76609,-70.5666 -1.25411,-2.04272 -2.52834,-8.20928 -2.83141,-13.70349 -0.5883,-10.66591 -13.74045,-30.32829 -17.66289,-26.4059 -1.29248,1.29248 -2.34999,0.22037 -2.34999,-2.38045 0,-2.6017 -2.22892,-3.87514 -4.95294,-2.82979 -3.50099,1.34349 -4.76549,-1.2494 -4.31365,-8.84482 0.51106,-8.58944 -0.35803,-9.9176 -4.33217,-6.61954 -2.73427,2.26927 -4.9714,6.14969 -4.9714,8.62319 0,2.47354 -2.48045,4.49729 -5.51207,4.49729 -4.45966,0 -4.63694,-1.06072 -0.92851,-5.55604 4.9908,-6.04964 3.93148,-5.74692 -16.77212,4.79328 -7.66019,3.89981 -13.92762,8.3195 -13.92762,9.82161 0,1.50195 -5.43177,3.91214 -12.0706,5.35571 -6.63883,1.44352 -16.05895,6.59032 -20.93362,11.43721 -4.87466,4.84688 -12.39558,8.87173 -16.71314,8.94413 -7.35702,0.1238 -7.26687,0.46797 1.43486,5.48785 9.19002,5.30143 9.15553,5.33216 -3.37071,3.00111 -11.4848,-2.1373 -12.46872,-1.63987 -10.63399,5.37636 1.40762,5.38309 0.54398,7.16434 -2.84398,5.86428 -2.67621,-1.0268 -6.72413,1.60496 -8.99539,5.84893 -2.27125,4.24388 -2.81724,7.76926 -1.21325,7.83423 1.60397,0.0644 0.40929,2.15414 -2.65486,4.64254 -3.06408,2.48843 -5.97477,10.37404 -6.46821,17.52355 -0.49347,7.14951 -1.38583,18.01305 -1.98305,24.1412 -0.59721,6.12815 0.0817,15.64657 1.5079,21.15208 1.64804,6.35976 1.03275,10.53035 -1.68716,11.43701 -3.20625,1.06866 -3.16163,3.88421 0.17827,11.21309 3.25,7.13302 3.33736,10.47909 0.32189,12.34257 -2.7622,1.70721 -1.86272,4.21921 2.70693,7.5607 3.76395,2.75227 4.8528,5.00414 2.41957,5.00414 -2.43319,0 -4.42391,1.76986 -4.42391,3.93323 0,2.1633 1.25361,3.15789 2.78552,2.21034 3.48664,-2.15661 2.34802,29.40949 -1.27217,35.26696 -1.69038,2.73511 -1.03201,3.29888 1.80477,1.54553 2.45621,-1.51804 7.14302,-1.73272 10.41526,-0.47688 5.12543,1.96695 4.74749,3.5626 -2.72848,11.52041 -6.69576,7.12732 -7.67121,10.24414 -4.27039,13.64498 3.40086,3.40086 4.40766,2.82402 4.40766,-2.52522 0,-11.32396 3.44407,-4.44481 5.39208,10.77007 0.99412,7.76517 4.6213,16.1759 8.06027,18.69052 3.43897,2.51462 5.06299,6.49693 3.60902,8.84955 -1.45392,2.35246 -0.92603,4.27745 1.17314,4.27745 2.09917,0 2.85465,2.50697 1.67874,5.57102 -1.39251,3.62858 0.10152,5.57105 4.28535,5.57105 4.51218,0 5.39134,1.38112 2.95501,4.64253 -3.00634,4.02438 -3.45836,8.42974 -1.61957,15.78464 0.25528,1.02136 1.39846,1.85701 2.54047,1.85701 1.14194,0 1.04315,-1.67131 -0.21789,-3.71403 z m 79.85168,-312.19783 c 0,-2.1633 1.67132,-2.90029 3.71403,-1.63789 2.04272,1.26252 3.71404,3.03243 3.71404,3.93323 0,0.90078 -1.67132,1.63789 -3.71404,1.63789 -2.04271,0 -3.71403,-1.76986 -3.71403,-3.93323 z m -141.1332,286.19961 c 0,-2.04272 -1.57276,-3.71401 -3.49483,-3.71401 -1.92213,0 -4.52777,1.67131 -5.79024,3.71401 -1.26253,2.04271 0.31024,3.71403 3.49482,3.71403 3.18464,0 5.79025,-1.67132 5.79025,-3.71403 z M 499.48102,586.81697 c 1.26252,-2.04271 0.52541,-3.71403 -1.63789,-3.71403 -2.1633,0 -3.93324,1.67132 -3.93324,3.71403 0,2.04272 0.73712,3.71404 1.63789,3.71404 0.90078,0 2.67076,-1.67132 3.93324,-3.71404 z M 698.1817,473.53901 c -2.54294,-3.06408 -6.29486,-5.57105 -8.33758,-5.57105 -2.07168,0 -1.66958,2.4634 0.90945,5.57105 2.54297,3.06408 6.29488,5.57105 8.3376,5.57105 2.07169,0 1.66958,-2.4634 -0.90944,-5.57105 z m -160.70921,-0.387 c -1.23405,-1.23405 -4.43753,-1.36602 -7.11859,-0.29292 -2.96278,1.18552 -2.08283,2.06575 2.24402,2.24378 3.91518,0.16094 6.10879,-0.71657 4.87467,-1.95061 z m 200.35776,-37.34008 c -1.34398,-1.34423 -0.79282,-4.43305 1.22489,-6.86433 4.49002,-5.4101 -8.59932,-18.71181 -14.70177,-14.94028 -5.57464,3.44533 -1.09589,9.51309 5.2301,7.0856 3.43496,-1.31823 4.80061,0.29168 4.07612,4.80477 -1.15952,7.22298 0.6512,12.35802 4.35763,12.35802 1.24123,0 1.15704,-1.0996 -0.1857,-2.44383 z M 630.45691,394.44705 c 2.66704,-8.00114 -8.74489,-4.72024 -17.97903,5.16892 l -9.00398,9.64271 12.74589,-5.16896 c 7.01021,-2.84292 13.41691,-7.1821 14.23712,-9.64267 z M 3.8184222,282.18594 C 46.881964,-52.214573 343.51509,-34.665228 306.02196,296.1968 248.99774,743.28836 -34.193218,587.14717 3.8184222,282.18594 Z M 237.17137,293.93845 C 249.14643,-16.173875 95.549124,94.911506 77.402387,284.47257 48.169211,542.9579 206.83396,598.42273 237.17137,293.93845 Z m 269.01885,201.36429 c 0.23522,-4.89064 2.23213,-7.23818 5.19251,-6.10218 2.64627,1.01542 4.8114,-0.004 4.8114,-2.26506 0,-2.26135 -2.08902,-4.13699 -4.64254,-4.16826 -3.13835,-0.0371 -2.86926,-1.17834 0.83046,-3.51801 7.44671,-4.70924 11.74421,2.86845 6.44184,11.35887 -2.26407,3.62542 -5.31059,5.85369 -6.76999,4.95173 -1.45936,-0.90202 -3.4615,0.45954 -4.44913,3.02574 -0.98769,2.56615 -1.62427,1.08896 -1.41455,-3.28283 z"
     id="path4461"
     inkscape:connector-curvature="0"
     sodipodi:nodetypes="cccccccccccscssccccsssccccssccsscscsccsssscccsssssccsscccssccssscscsscsccsccsccscscccscssssssscssscssssssssccsscccccssccccccsscccccccscccssscccccccscscssssscsccscsscssssccssssssscssscsccssccccsssscccssscscscsscsccscssssscsscsssccscscccccccccscssccsscssccccccccscasccc" />
</svg>
