<?xml version="1.0" encoding="UTF-8" standalone="no"?>
<!-- Created with Inkscape (http://www.inkscape.org/) -->

<svg
   xmlns:dc="http://purl.org/dc/elements/1.1/"
   xmlns:cc="http://creativecommons.org/ns#"
   xmlns:rdf="http://www.w3.org/1999/02/22-rdf-syntax-ns#"
   xmlns:svg="http://www.w3.org/2000/svg"
   xmlns="http://www.w3.org/2000/svg"
   xmlns:sodipodi="http://sodipodi.sourceforge.net/DTD/sodipodi-0.dtd"
   xmlns:inkscape="http://www.inkscape.org/namespaces/inkscape"
   version="1.1"
   id="svg3445"
   width="856.63794"
   height="930"
   viewBox="0 0 856.63794 930"
   sodipodi:docname="smbl_at.svg"
   inkscape:version="0.92.3 (2405546, 2018-03-11)">
  <metadata
     id="metadata3451">
    <rdf:RDF>
      <cc:Work
         rdf:about="">
        <dc:format>image/svg+xml</dc:format>
        <dc:type
           rdf:resource="http://purl.org/dc/dcmitype/StillImage" />
        <dc:title></dc:title>
      </cc:Work>
    </rdf:RDF>
  </metadata>
  <defs
     id="defs3449" />
  <sodipodi:namedview
     pagecolor="#ffffff"
     bordercolor="#666666"
     borderopacity="1"
     objecttolerance="10"
     gridtolerance="10"
     guidetolerance="10"
     inkscape:pageopacity="0"
     inkscape:pageshadow="2"
     inkscape:window-width="1916"
     inkscape:window-height="1041"
     id="namedview3447"
     showgrid="false"
     fit-margin-top="0"
     fit-margin-left="0"
     fit-margin-right="0"
     fit-margin-bottom="0"
     inkscape:zoom="0.22172247"
     inkscape:cx="656.46844"
     inkscape:cy="234.00468"
     inkscape:window-x="0"
     inkscape:window-y="18"
     inkscape:window-maximized="0"
     inkscape:current-layer="svg3445"
     inkscape:measure-start="491.927,66.9722"
     inkscape:measure-end="492.325,66.9722" />
  <path
     style="fill:#000000;stroke-width:3.75940609"
     d="m 434.23083,0 c 410.84927,1.0551814 520.36039,442.8486 335.66835,618.29883 -52.59429,82.51622 -171.33743,121.596 -172.0936,48.48745 0,-10.8648 -14.35839,-18.69062 -28.57155,-12.77338 -39.40644,15.35705 -63.65489,43.83093 -135.32255,43.69031 -285.08711,3.80075 -337.355599,-456.32635 1.81447,-468.54497 62.19787,-1.56921 116.67745,50.77495 96.21507,6.79148 -23.10206,-25.48724 -37.6319,-38.36873 8.48214,-39.16209 34.30774,0.33312 64.66699,23.04578 77.41287,38.41674 34.57449,21.8865 44.8384,241.70852 14.54926,329.75387 -19.67513,92.73124 56.06964,34.19374 80.66899,5.60364 C 903.32017,323.96311 645.97175,41.890902 434.6693,75.667126 -12.22718,97.469761 -61.808003,821.00895 434.7035,853.62726 c 68.65549,4.1459 82.16751,3.2378 111.04516,-4.30937 73.52676,-27.31712 73.61452,37.96193 30.87258,63.13102 -26.87971,18.66257 -81.17146,18.95574 -142.21264,16.42008 C -242.7936,817.64127 -37.764083,7.0499532 434.23083,0 Z m -0.39239,304.93828 c -192.08213,4.77939 -216.46463,306.54641 0.40303,319.49454 211.21685,-15.3083 179.27547,-321.38416 -0.40303,-319.49454 z"
     id="path3455"
     inkscape:connector-curvature="0"
     sodipodi:nodetypes="cccccccccccccccccccc" />
</svg>
