<?xml version="1.0" encoding="UTF-8" standalone="no"?>
<!-- Created with Inkscape (http://www.inkscape.org/) -->

<svg
   xmlns:dc="http://purl.org/dc/elements/1.1/"
   xmlns:cc="http://creativecommons.org/ns#"
   xmlns:rdf="http://www.w3.org/1999/02/22-rdf-syntax-ns#"
   xmlns:svg="http://www.w3.org/2000/svg"
   xmlns="http://www.w3.org/2000/svg"
   xmlns:sodipodi="http://sodipodi.sourceforge.net/DTD/sodipodi-0.dtd"
   xmlns:inkscape="http://www.inkscape.org/namespaces/inkscape"
   id="svg3472"
   version="1.1"
   inkscape:version="0.91 r13725"
   width="683.26611"
   height="930"
   viewBox="0 0 683.26612 930.00001"
   sodipodi:docname="V.svg">
  <metadata
     id="metadata3478">
    <rdf:RDF>
      <cc:Work
         rdf:about="">
        <dc:format>image/svg+xml</dc:format>
        <dc:type
           rdf:resource="http://purl.org/dc/dcmitype/StillImage" />
        <dc:title></dc:title>
      </cc:Work>
    </rdf:RDF>
  </metadata>
  <defs
     id="defs3476" />
  <sodipodi:namedview
     pagecolor="#ffffff"
     bordercolor="#666666"
     borderopacity="1"
     objecttolerance="10"
     gridtolerance="10"
     guidetolerance="10"
     inkscape:pageopacity="0"
     inkscape:pageshadow="2"
     inkscape:window-width="1386"
     inkscape:window-height="991"
     id="namedview3474"
     showgrid="false"
     fit-margin-top="0"
     fit-margin-left="0"
     fit-margin-right="0"
     fit-margin-bottom="0"
     inkscape:zoom="0.79301074"
     inkscape:cx="296.3094"
     inkscape:cy="507.77749"
     inkscape:window-x="219"
     inkscape:window-y="0"
     inkscape:window-maximized="0"
     inkscape:current-layer="svg3472" />
  <path
     style="fill:#000000"
     d="m 356.88501,926.80119 c -3.24367,-1.82406 -17.08618,-3.29096 -30.76116,-3.25995 -26.17336,0.0603 -36.84835,-5.46064 -37.8895,-19.59258 -0.28963,-3.93243 -1.77242,-9.16531 -3.29483,-11.6287 -1.81855,-2.94263 -0.22018,-3.81287 4.65707,-2.53727 12.2627,3.20674 13.0053,-5.26745 1.32289,-15.09749 -8.14115,-6.85027 -10.78169,-12.40199 -10.31474,-21.68667 0.44062,-8.76242 -2.15851,-14.90185 -8.72671,-20.61284 -5.1449,-4.47343 -9.35436,-10.65166 -9.35436,-13.72941 0,-3.07778 -1.89089,-6.22627 -4.20214,-6.99665 -3.67307,-1.22434 -11.08061,-39.56822 -12.5786,-65.11091 -0.28544,-4.86551 -1.8888,-8.84637 -3.56324,-8.84637 -4.00462,0 -16.15796,-23.5723 -12.19368,-23.65054 1.67727,-0.0341 0.39579,-1.7753 -2.84783,-3.87151 -4.8919,-3.1614 -4.55668,-3.83186 1.96586,-3.93172 6.31424,-0.097 6.73853,-0.83196 2.15354,-3.73252 -3.14043,-1.98657 -7.56361,-2.50451 -9.82931,-1.15094 -2.26572,1.35356 -1.83402,-0.36015 0.95934,-3.80882 3.61037,-4.45716 3.79587,-6.69758 0.64166,-7.749 -5.17512,-1.72498 -19.77556,-40.9298 -16.47287,-44.2325 1.22854,-1.22853 0.36644,-2.23374 -1.91553,-2.23374 -2.28223,0 -5.53615,-6.63478 -7.23099,-14.74396 -3.37939,-16.16917 -3.35923,-16.09497 -6.6809,-24.57326 -4.17818,-10.66445 -12.04467,-37.33009 -11.32097,-38.37548 0.39003,-0.56329 -2.40307,-6.75572 -6.20669,-13.76103 -3.80363,-7.00531 -6.96237,-14.7087 -7.01944,-17.11864 -0.0577,-2.40988 -2.13833,-6.83317 -4.6248,-9.8293 -2.48668,-2.99618 -4.71694,-7.21683 -4.95633,-9.37928 -0.9575,-8.64955 -9.85651,-29.48791 -12.59267,-29.48791 -1.60388,0 -2.30845,-3.15497 -1.56588,-7.0111 0.74257,-3.8561 -1.05579,-12.73301 -3.99617,-19.72644 -2.94051,-6.99343 -5.26785,-13.81395 -5.17187,-15.15671 0.097,-1.34281 -1.97241,-3.76835 -4.59673,-5.39018 -7.16496,-4.42819 -0.29069,-12.36684 8.3375,-9.62839 5.80744,1.84319 6.94539,0.91714 5.02448,-4.08857 -1.55355,-4.0485 -5.31451,-5.73106 -10.04507,-4.49399 -9.20624,2.40753 -14.58729,-8.46292 -6.67072,-13.47566 3.92247,-2.4838 4.08587,-3.49189 0.57298,-3.53493 -2.70306,-0.0315 -4.91465,-2.52495 -4.91465,-5.53712 0,-3.01233 -2.76604,-6.53838 -6.14677,-7.83569 -3.38071,-1.29747 -5.02102,-4.18028 -3.64508,-6.40661 1.37584,-2.2264 -0.32685,-12.5635 -3.78375,-22.97158 -7.39025,-22.24992 -10.673029,-35.29865 -11.268239,-44.79003 -0.23852,-3.78428 -1.65604,-6.88051 -3.15261,-6.88051 -1.49668,0 -1.8487,-3.98087 -0.78241,-8.84638 1.43455,-6.54524 0.93863,-7.43179 -1.90663,-3.40825 -2.93639,4.15261 -4.61309,2.29377 -7.09295,-7.86344 -4.41113,-18.06765 -4.27208,-28.46472 0.42698,-31.91703 2.16245,-1.58868 -0.49146,-2.94277 -5.89758,-3.009 -7.09534,-0.0865 -8.33111,-1.06943 -4.44292,-3.53258 4.56066,-2.8891 4.56066,-3.9346 0,-6.8203 -6.2651,-3.96415 -7.18009,-17.8172 -1.45474,-22.02361 2.37266,-1.74306 1.80597,-2.91246 -1.42905,-2.94879 -0.644338,-12.68977 -8.40033,-21.02939 -8.40033,-21.02939 0,8.42534 -3.39476,5.10875 -4.93948,-4.82574 -0.65214,-4.19357 -2.46702,-9.67662 -4.03339,-12.18454 -1.5664,-2.50791 -1.76823,-7.37341 -0.44848,-10.81223 1.31948,-3.43881 0.503,-6.25241 -1.81488,-6.25241 -2.31762,0 -6.08652,-3.49873 -8.37509,-7.77495 -3.51821,-6.57384 -3.08405,-7.4341 2.81047,-5.56847 6.02219,1.9061 5.90073,1.22486 -0.89198,-5.00314 -4.67759,-4.28864 -7.76499,-11.98841 -7.62041,-19.00478 0.13368,-6.48734 -0.75096,-12.6798 -1.96586,-13.76103 -1.2149,-1.08122 -5.2765,-8.60064 -9.02579,-16.709814 -3.74932,-8.10918 -9.39503,-14.74396 -12.54607,-14.74396 -7.5006196,0 -9.8498796,-4.2436 -12.38567959,-22.37314 -1.86888001,-13.362 -0.87416,-15.71939 9.12711999,-21.62726 11.7228496,-6.92486 36.3825496,-8.51759 36.3825496,-2.34988 0,1.96099 1.76928,2.47195 3.93172,1.13551 2.16245,-1.33647 3.9588,-0.11402 3.99193,2.71675 0.0446,3.74747 1.11268,3.54333 3.93172,-0.75088 3.44134,-5.2423 4.30836,-5.2423 7.80324,0 3.39598,5.09398 4.42675,5.1282 7.56482,0.2511 3.1152,-4.84156 5.86874,-4.63829 19.31707,1.42604 8.664149,3.90699 18.036529,5.73612 20.940159,4.08671 4.2326,-2.40435 4.29913,-1.95467 0.34154,2.3091 -6.30648,6.79438 -6.30648,20.30858 0,27.10296 3.98836,4.29691 3.8031,4.76068 -0.98293,2.46063 -3.60731,-1.73358 -3.22559,-0.6441 0.98293,2.80543 3.78428,3.10182 6.88051,8.54084 6.88051,12.08674 -3e-5,3.54587 1.85708,6.44705 4.12708,6.44705 3.30402,9.241264 -2.4778,29.907944 8.28311,39.321804 1.41935,1.08374 6.52469,14.3533 11.34501,29.48791 4.82034,15.13461 9.47366,28.77989 10.34074,30.32285 -3.3757,9.41432 -17.52486,31.02032 -0.0901,25.05666 11.35057,-3.087 -7.3155,20.25809 8.39118,21.28443 3.35185,0 4.97704,1.11713 3.61147,2.48275 -1.36562,1.36562 -0.71347,5.78875 1.44897,9.82933 2.78707,5.20764 2.60647,7.34647 -0.61964,7.34647 -3.29499,0 -3.20026,1.628 0.34311,5.89759 2.69202,3.24367 3.35098,5.92468 1.46444,5.95779 -1.88671,0.0341 -0.77639,1.7753 2.46728,3.87151 3.93172,2.54094 4.25937,3.83138 0.98293,3.87151 -2.70306,0.0341 -4.91465,3.43313 -4.91465,7.55557 0,5.55966 2.03087,6.96431 7.86344,5.43903 9.12721,-2.38681 10.87349,5.81596 1.96586,9.23412 -3.24367,1.24479 -5.89758,3.94753 -5.89758,6.00623 0,2.05865 1.94568,2.54068 4.324,1.07074 3.03902,-1.87831 2.99792,-0.19396 -0.13892,5.66556 -3.67954,6.8754 -3.3628,8.33795 1.80571,8.33795 3.44739,0 5.2883,1.58501 4.09093,3.52253 -1.19734,1.93729 0.45661,8.57215 3.67545,14.74396 3.21888,6.17177 5.86341,14.22973 5.87672,17.90657 0.0134,3.67682 3.10573,8.40964 6.87198,10.51733 3.76628,2.10767 5.55091,5.12906 3.96585,6.71415 -1.58501,1.58501 -0.87782,5.29682 1.5719,8.24831 3.51986,4.2412 3.10051,4.84715 -1.99993,2.88989 -3.54953,-1.36195 -6.45371,-0.72422 -6.45371,1.41725 0,2.14148 3.14176,4.7154 6.98166,5.71956 3.8399,1.00416 7.28341,5.83169 7.65223,10.72783 0.3688,4.89612 3.41952,11.93964 6.77936,15.65221 3.35984,3.71257 6.1088,10.48729 6.1088,15.05488 0,4.56763 1.87386,9.46279 4.1639,10.87818 2.2901,1.41542 3.67168,6.3853 3.0701,11.04428 -0.60155,4.65896 0.20707,10.56021 1.79784,13.11384 1.59052,2.55378 1.00417,5.80954 -1.30297,7.23531 -2.6007,1.60729 -0.57744,5.81897 5.32452,11.08392 7.93256,7.07634 18.18891,31.18877 13.80726,32.46055 -0.7174,0.20969 1.04584,3.2108 3.91878,6.67234 2.87283,3.46152 4.88857,10.36821 4.47943,15.34821 -1.21857,14.83172 -0.10222,19.48881 4.05827,16.91802 2.16245,-1.33652 4.1529,-0.55621 4.42319,1.73389 0.67442,5.71368 1.66181,8.94768 5.13365,16.81214 1.639,3.71296 2.2361,8.98262 1.32682,11.71037 -0.90927,2.72775 1.57767,8.42757 5.52672,12.66623 3.94902,4.23866 7.17995,11.69181 7.17995,16.56256 0,4.87077 1.84136,9.99383 4.09167,11.38469 2.25051,1.39078 3.01581,5.91842 1.70086,10.06135 -1.35959,4.28356 -0.53865,7.53255 1.90321,7.53255 4.58717,0 12.3346,16.51664 13.8318,29.48791 2.08539,18.06723 12.12029,45.86982 20.20852,55.98971 9.70074,12.13746 13.4792,10.75703 15.26541,-5.57702 3.48867,-31.90191 7.24781,-52.01334 9.46591,-50.64251 1.3685,0.84585 2.67118,-5.4453 2.89498,-13.9801 0.22279,-8.53482 3.28618,-18.69942 6.80531,-22.588 3.51915,-3.8886 6.39843,-8.14265 6.39843,-9.45343 0,-1.31084 2.07647,-7.36396 4.61414,-13.45144 42.87468,-77.48085 43.2093,-118.67217 83.33959,-198.40547 1.98185,-1.40048 2.6477,-6.20095 1.47964,-10.66765 -1.16798,-4.46675 0.18348,-10.03572 3.00219,-12.37554 2.81928,-2.3399 4.64923,-8.59728 4.0665,-13.90555 -0.58269,-5.3083 0.68333,-9.65144 2.81314,-9.65144 2.12995,0 1.63639,-2.69441 -1.09669,-5.98756 -4.13016,-4.97654 -3.93069,-5.58908 1.18109,-3.62744 4.38301,1.682 5.81777,0.29541 4.99279,-4.82466 -0.63667,-3.95165 0.60103,-9.3964 2.7505,-12.09946 2.14961,-2.70305 2.7066,-4.91464 1.23797,-4.91464 -1.46863,0 -0.0498,-3.74167 3.15371,-8.31481 3.20312,-4.57314 4.88346,-10.7656 3.73399,-13.76102 -1.14938,-2.99542 -0.0262,-5.44622 2.49454,-5.44622 2.52155,0 3.49095,-1.76928 2.15459,-3.93172 -1.33653,-2.16245 -0.45189,-3.93173 1.96586,-3.93173 2.41774,0 3.30233,-1.76927 1.96586,-3.93172 -1.33653,-2.16244 -0.11533,-3.9588 2.71674,-3.99193 3.75631,-0.0446 3.55349,-1.12552 -0.75096,-4.00364 -5.18398,-3.46631 -5.11805,-4.40447 0.54494,-7.75354 4.35868,-2.57764 6.14446,-8.25958 5.52089,-17.56586 -0.69696,-10.39979 1.1554,-15.11673 7.59195,-19.33413 5.62503,-3.68568 10.18402,-13.04231 13.43673,-27.57699 2.7077,-12.09928 7.0078,-22.02575 9.55579,-22.05888 3.02942,-0.0393 2.78659,-1.22984 -0.70168,-3.44026 -3.2999,-2.09089 -3.82546,-4.31262 -1.37794,-5.82523 2.17608,-1.34492 6.12848,-11.73936 8.78326,-23.09887 2.65483,-11.35953 7.53,-23.7499 10.83375,-27.53418 3.53729,-4.05175 4.21339,-6.88051 1.64451,-6.88051 -2.3994,0 0.16513,-4.52883 5.7017,-10.06406 7.02253,-7.02255 9.50976,-12.96368 8.22996,-19.65861 -1.00888,-5.277 -0.20707,-9.594544 1.78448,-9.594544 1.99024,0 2.6007,-1.64703 1.35644,-3.66005 -1.24426,-2.01302 -0.34311,-4.8459 2.00177,-6.29528 2.34514,-1.44936 3.23859,-5.30717 1.98526,-8.57288 -1.60886,-4.19268 -0.47207,-5.2445 3.86792,-3.57906 3.3805,1.29723 5.26036,0.92503 4.17753,-0.82707 -1.08279,-1.75211 0.51794,-7.97904 3.55743,-13.83761 3.03948,-5.85857 4.44418,-13.47194 3.12157,-16.9186 -2.77477,-7.23088 24.02738,-33.2005604 41.90909,-40.6074004 9.07879,-3.76056 13.39836,-3.44709997 23.33956,1.69371 12.62992,6.5311904 16.76672,11.5441304 6.17123,7.4782504 -5.07171,-1.9462004 -5.33786,-0.79895 -1.67806,7.23352 2.39232,5.25061 9.52798,11.50114 15.85703,13.89008 13.1422,4.96065 15.61242,17.9717 4.62677,24.37025 -5.42499,3.15978 -5.63295,4.04556 -0.98293,4.1873 4.29614,0.13106 4.59904,1.00489 1.11556,3.21847 -2.63011,1.67129 -7.28708,12.70216 -10.34876,24.51305 -4.49766,17.350444 -6.977,21.222494 -12.91068,20.162834 -5.91616,-1.05653 -6.38844,-0.33037 -2.42928,3.73514 2.70306,2.77566 4.77495,7.78903 4.60423,11.14082 -0.21755,4.28641 -0.91478,4.58762 -2.34828,1.01541 -1.5567,-3.87991 -3.32949,-4.00677 -7.50977,-0.53744 -3.00955,2.49771 -4.31654,6.41078 -2.90437,8.69569 1.59969,2.58828 0.10223,3.20795 -3.97505,1.64378 -6.88004,-2.64014 -9.1976,3.00106 -2.84567,6.92675 3.90291,2.41198 -1.77347,23.74692 -8.6631,32.56089 -2.104,2.69155 -2.8975,8.4417 -1.76351,12.7781 1.24478,4.76024 0.13106,7.88438 -2.81241,7.88438 -2.68084,0 -5.16912,2.65391 -5.5295,5.89758 l -1.31057,11.79517 c -0.36041,3.24367 -1.83481,5.89758 -3.27641,5.89758 -1.44163,0 -2.95052,2.21146 -3.35313,4.91465 -0.40261,2.70306 -1.34386,9.33784 -2.09168,14.74396 -1.95747,14.15197 -7.00095,32.78246 -10.1112,37.35135 -1.47204,2.16245 -2.95391,8.51116 -3.29295,14.10825 -0.33892,5.59707 -3.30291,15.32808 -6.58645,21.62447 -3.28351,6.29636 -5.98091,13.76396 -5.99422,16.59464 -0.0118,2.83068 -1.3512,4.3364 -2.97301,3.34605 -1.62197,-0.99027 -3.28244,4.45823 -3.69021,12.10795 -0.40785,7.64971 -2.61931,15.78651 -4.91465,18.0818 -2.29534,2.29534 -4.17324,7.21051 -4.17324,10.92271 0,3.7122 -1.32708,7.33922 -2.94879,8.06006 -1.62196,0.72081 -6.16986,11.04156 -10.1067,22.93501 -3.93683,11.89346 -11.28933,33.12476 -16.33889,47.18066 -5.04954,14.0559 -11.50218,33.51795 -14.33915,43.24896 -2.83697,9.73101 -7.41617,22.11593 -10.176,27.52205 -2.75984,5.40612 -5.02875,12.92554 -5.04207,16.70982 -0.0118,3.78428 -1.83139,6.88051 -4.04024,6.88051 -2.20884,0 -6.08945,4.86551 -8.62368,10.81224 -2.53412,5.94673 -7.25827,13.97981 -10.49793,17.85135 -3.23963,3.87151 -6.19503,12.71789 -6.56752,19.65861 -1.28148,23.8776 -1.76691,25.83717 -7.92706,31.99724 -3.39811,3.39816 -4.502,6.17844 -2.45313,6.17844 3.94422,0 -4.64389,30.21719 -13.58179,47.78727 -2.9198,5.73976 -5.30872,14.08937 -5.30872,18.55463 0,4.46525 -3.44851,14.80791 -7.66331,22.98369 -4.21486,8.17575 -9.47889,19.73053 -11.69787,25.67726 -2.21906,5.94673 -5.6507,10.81223 -7.62599,10.81223 -3.50023,0 -10.39325,24.58395 -9.64606,34.40256 0.20445,2.70306 -2.2998,4.91466 -5.56813,4.91466 -5.08655,0 -5.16516,0.95776 -0.54599,6.65231 3.66652,4.52014 3.82085,5.70595 0.48151,3.69967 -4.54955,-2.7333 -7.10405,4.59713 -5.17271,14.8439 0.37037,1.96429 -1.25238,4.76134 -3.60546,6.21569 -2.35327,1.45447 -5.36554,9.57827 -6.69407,18.0531 -4.56704,2.49243 -28.09732,59.384 -19.16232,66.83758 7.8593,5.74684 7.82218,11.95362 -0.0891,14.98964 -7.36883,2.82769 -6.1424,2.93437 -13.43946,-1.16903 z"
     id="path3482"
     inkscape:connector-curvature="0"
     sodipodi:nodetypes="cccscssssscscsccsccsssscsccssscccsssccsccscsccsscssccccscssssssssssssccsssssssssccsccccssscccsscsscscscssccsssssssccsccscccssscsssssccssccccssssccsccscscccscsscccsssccssccscsssssssscssssccsscccsssssscscscccsscsssscscssssssscscssccsccccc" />
</svg>
