<?xml version="1.0" encoding="UTF-8" standalone="no"?>
<!-- Created with Inkscape (http://www.inkscape.org/) -->

<svg
   xmlns:dc="http://purl.org/dc/elements/1.1/"
   xmlns:cc="http://creativecommons.org/ns#"
   xmlns:rdf="http://www.w3.org/1999/02/22-rdf-syntax-ns#"
   xmlns:svg="http://www.w3.org/2000/svg"
   xmlns="http://www.w3.org/2000/svg"
   xmlns:sodipodi="http://sodipodi.sourceforge.net/DTD/sodipodi-0.dtd"
   xmlns:inkscape="http://www.inkscape.org/namespaces/inkscape"
   id="svg3557"
   version="1.1"
   inkscape:version="0.91 r13725"
   width="1111.2251"
   height="930"
   viewBox="0 0 1111.2251 929.99999"
   sodipodi:docname="W.svg">
  <metadata
     id="metadata3563">
    <rdf:RDF>
      <cc:Work
         rdf:about="">
        <dc:format>image/svg+xml</dc:format>
        <dc:type
           rdf:resource="http://purl.org/dc/dcmitype/StillImage" />
        <dc:title></dc:title>
      </cc:Work>
    </rdf:RDF>
  </metadata>
  <defs
     id="defs3561" />
  <sodipodi:namedview
     pagecolor="#ffffff"
     bordercolor="#666666"
     borderopacity="1"
     objecttolerance="10"
     gridtolerance="10"
     guidetolerance="10"
     inkscape:pageopacity="0"
     inkscape:pageshadow="2"
     inkscape:window-width="1518"
     inkscape:window-height="1027"
     id="namedview3559"
     showgrid="false"
     fit-margin-top="0"
     fit-margin-left="0"
     fit-margin-right="0"
     fit-margin-bottom="0"
     inkscape:zoom="1.0727976"
     inkscape:cx="611.05932"
     inkscape:cy="363.51828"
     inkscape:window-x="233"
     inkscape:window-y="0"
     inkscape:window-maximized="0"
     inkscape:current-layer="svg3557" />
  <path
     style="fill:#000000"
     d="M 253.65931,891.75635 C 135.21964,499.03276 133.95377,533.03674 0.14148279,86.777185 -12.659307,26.307424 69.904168,5.8542949 91.571401,63.455223 162.74204,244.12553 230.15393,486.38773 294.83312,695.73109 c 9.13816,25.87772 13.18189,11.85662 17.3844,0.57085 65.73989,-206.02536 99.13386,-526.07304 189.68244,-644.849603 15.21378,-24.564795 46.958,-36.093034 72.53489,1.350406 82.01536,183.076477 156.25213,451.535217 220.82694,634.655577 7.51888,19.32546 13.64858,20.53862 22.0426,-0.69783 C 901.84219,379.46905 901.75699,359.1175 999.81359,65.312497 1012.6998,13.561008 1112.6607,17.861506 1100.7006,82.77406 1023.2741,396.45065 947.80844,647.85832 871.52275,880.6697 852.7935,949.01436 771.09441,942.92801 760.60432,878.98653 663.76189,652.6248 610.61375,438.05997 549.09308,235.39566 543.76297,218.90033 534.29463,222.95233 529.91151,234.33691 473.66808,508.4137 461.7239,622.62002 358.0823,889.04794 c -16.73058,60.20278 -85.26937,45.14719 -104.42299,2.70841 z"
     id="path3567"
     inkscape:connector-curvature="0"
     sodipodi:nodetypes="ccccccccccccccccc" />
</svg>
