<?xml version="1.0" encoding="UTF-8" standalone="no"?>
<!-- Created with Inkscape (http://www.inkscape.org/) -->

<svg
   xmlns:dc="http://purl.org/dc/elements/1.1/"
   xmlns:cc="http://creativecommons.org/ns#"
   xmlns:rdf="http://www.w3.org/1999/02/22-rdf-syntax-ns#"
   xmlns:svg="http://www.w3.org/2000/svg"
   xmlns="http://www.w3.org/2000/svg"
   xmlns:sodipodi="http://sodipodi.sourceforge.net/DTD/sodipodi-0.dtd"
   xmlns:inkscape="http://www.inkscape.org/namespaces/inkscape"
   id="svg3557"
   version="1.1"
   inkscape:version="0.91 r13725"
   width="1111.2251"
   height="930"
   viewBox="0 0 1111.2251 929.99999"
   sodipodi:docname="W.svg">
  <metadata
     id="metadata3563">
    <rdf:RDF>
      <cc:Work
         rdf:about="">
        <dc:format>image/svg+xml</dc:format>
        <dc:type
           rdf:resource="http://purl.org/dc/dcmitype/StillImage" />
        <dc:title></dc:title>
      </cc:Work>
    </rdf:RDF>
  </metadata>
  <defs
     id="defs3561" />
  <sodipodi:namedview
     pagecolor="#ffffff"
     bordercolor="#666666"
     borderopacity="1"
     objecttolerance="10"
     gridtolerance="10"
     guidetolerance="10"
     inkscape:pageopacity="0"
     inkscape:pageshadow="2"
     inkscape:window-width="1518"
     inkscape:window-height="1027"
     id="namedview3559"
     showgrid="false"
     fit-margin-top="0"
     fit-margin-left="0"
     fit-margin-right="0"
     fit-margin-bottom="0"
     inkscape:zoom="0.37929124"
     inkscape:cx="598.39975"
     inkscape:cy="640.87457"
     inkscape:window-x="233"
     inkscape:window-y="0"
     inkscape:window-maximized="0"
     inkscape:current-layer="svg3557" />
  <path
     style="fill:#000000"
     d="m 287.52628,921.28281 c 2.09118,-11.53159 -5.86462,-21.57968 -18.13124,-22.89991 -12.8444,-1.38232 -20.68795,-7.8561 -14.41748,-11.89954 2.76557,-1.78323 1.44518,-2.95747 -3.40956,-3.03184 -5.38158,-0.0819 -6.35089,-1.1198 -3.02178,-3.23438 8.40713,-17.12262 -2.3277,-55.89338 -11.42571,-68.8925 -7.04889,-9.89926 -9.32159,-18.13145 -11.04883,-40.02116 -0.13998,-1.76263 -2.31092,-1.93298 -4.82654,-0.3782 -2.89336,1.78825 -3.49579,1.08257 -1.63982,-1.92057 1.61368,-2.61093 0.84434,-7.26503 -1.70981,-10.34243 -2.55389,-3.07737 -3.49363,-7.45606 -2.08801,-9.7304 1.40556,-2.2742 0.66766,-4.13508 -1.63982,-4.13508 -2.30748,0 -4.19538,-2.77927 -4.19538,-6.17616 0,-3.39688 1.7827,-5.07437 3.96156,-3.72775 2.17886,1.34667 3.96157,0.50444 3.96157,-1.87145 0,-2.37588 -2.82351,-5.40318 -6.27449,-6.72745 -4.2824,-1.64326 -4.84692,-3.29005 -1.77821,-5.18672 6.33848,-3.91735 -3.12071,-23.80967 -11.40075,-23.97534 -5.64027,-0.11356 -5.66219,-0.6291 -0.21129,-4.95196 6.96808,-5.52495 5.75758,-19.18734 -1.45468,-16.41966 -3.23668,1.24209 -4.56455,-2.65892 -4.1203,-12.1043 0.36051,-7.66531 -0.94417,-13.93689 -2.89912,-13.93689 -1.95517,0 -3.55466,-4.54532 -3.55466,-10.10065 0,-5.55535 -2.27605,-14.91455 -5.05796,-20.79822 -2.78186,-5.88369 -4.94981,-16.49136 -4.81766,-23.57266 0.15583,-8.29227 -1.66517,-12.87509 -5.11292,-12.87509 -3.65555,0 -4.50578,-2.66999 -2.68106,-8.41925 1.91106,-6.02145 1.31049,-7.57768 -2.10914,-5.46426 -3.67356,2.27024 -3.75065,1.02921 -0.33277,-5.3571 3.61295,-6.75082 3.39234,-7.90678 -1.17447,-6.15429 -3.16255,1.21356 -8.40301,-1.81123 -11.97637,-6.91299 -7.04612,-10.0597 -8.57066,-21.03039 -2.39173,-17.21167 2.17886,1.34666 3.96157,-0.33093 3.96157,-3.72776 0,-3.39688 -2.67406,-6.17616 -5.94235,-6.17616 -3.60389,0 -5.83277,-3.5077 -5.6639,-8.91352 0.26568,-8.50509 0.43445,-8.55049 3.68312,-0.99039 3.29604,7.67025 3.41357,7.64901 3.68314,-0.66634 0.15318,-4.72424 -0.92463,-11.72473 -2.39516,-15.55662 -2.481,-6.46519 -2.88896,-6.41718 -5.66393,0.66634 -2.73889,6.99158 -3.0138,6.88391 -3.26882,-1.28012 -0.15318,-4.90243 1.60945,-8.91352 3.91693,-8.91352 2.30748,0 3.07563,-1.81175 1.70717,-4.02619 -1.36938,-2.21425 -3.93151,-3.13458 -5.69454,-2.04496 -1.76289,1.08969 -4.28572,-3.4201 -5.60601,-10.02157 -1.32026,-6.60148 -7.09704,-18.16008 -12.83724,-25.68587 -5.74018,-7.52576 -9.11546,-13.68322 -7.50064,-13.68322 1.61473,0 0.71678,-2.67406 -1.99558,-5.94235 -2.71243,-3.26829 -3.60378,-5.94235 -1.98078,-5.94235 1.62292,0 0.73157,-2.67406 -1.98078,-5.94235 -2.71243,-3.26829 -3.7763,-5.94235 -2.364,-5.94235 1.41217,0 -0.0819,-5.12209 -3.31847,-11.38245 -3.237371,-6.2603 -4.750321,-12.51817 -3.362131,-13.90639 1.38813,-1.38813 -0.74319,-4.91302 -4.73653,-7.83296 -4.77286,-3.49004 -6.49702,-8.22854 -5.03219,-13.83004 1.22545,-4.68656 0.61193,-7.52198 -1.36383,-6.30095 -1.97577,1.22096 -3.59214,-3.56406 -3.59214,-10.63353 -16.42364,-5.81194 -14.200797,-71.09947 -21.03951,-68.56538 -3.60436,1.38311 -5.26684,-0.90931 -5.04362,-6.95437 0.20336,-5.49527 -1.98818,-9.04394 -5.60937,-9.08508 -3.90819,-0.0449 -6.16251,-4.45286 -6.58555,-12.87842 -0.3539,-7.04599 -3.47347,-15.64116 -6.93274,-19.1004 -7.02568,-7.02571 -8.38251,-11.44631 -2.37324,-7.73242 2.24225,1.38575 2.91186,-0.19808 1.56667,-3.70227 -1.54528,-4.02714 0.73579,-7.26388 6.66504,-9.45727 5.92397,-2.1914 7.42411,-4.31759 4.3756,-6.20165 -2.55151,-1.57684 -4.63886,-7.13465 -4.63886,-12.3507 0,-11.66813 -7.85631,-29.66434 -12.95007,-29.66434 -2.06529,0 -2.64846,-4.40927 -1.29596,-9.79838 2.01644,-8.03382 1.26322,-9.33943 -4.18196,-7.24991 -4.2834,1.64371 -5.68432,1.00019 -3.94593,-1.81258 1.48242,-2.39856 0.86151,-5.49443 -1.37994,-6.87968 -2.52722,-1.56186 -2.72836,-4.92536 -0.52953,-8.85419 1.95014,-3.48455 2.13502,-11.25368 0.41121,-17.26473 -1.72381,-6.01105 -2.15192,-11.911637 -0.95131,-13.112417 1.20089,-1.20078 -0.10564,-4.9412 -2.90319,-8.31202 -4.28438,-5.16239 -4.06108,-5.73532 1.41613,-3.63346 3.61583,1.38753 6.5027,0.54841 6.5027,-1.89009 0,-2.41199 -2.67406,-4.38541 -5.94235,-4.38541 -3.26829,0 -5.94235,-1.7827 -5.94235,-3.96156 0,-2.17886 -3.1197304,-3.98887 -6.9327404,-4.02223 -4.33091998,-0.038 -5.27468998,-1.15298 -2.5148,-2.97118 19.4334424,-18.7045 -14.4525326,-43.910137 8.2873804,-55.4012596 13.64115,-6.33514 15.1484,-6.24395 22.77003,1.3776796 5.79846,5.79846 7.16137,5.78464 16.24112,-0.16454 10.80699,-7.0810096 19.44022,-4.7616496 15.96693,4.28961 -1.20114,3.13038 0.44977,6.70227 3.66873,7.93753 3.21904,1.23527 4.99133,3.63984 3.9384,5.34352 -1.05298,1.70365 0.35919,4.98457 3.13825,7.2909 3.85883,3.20255 5.258,1.7119 5.92183,-6.3089 1.25397,-15.15138 7.54665,-19.9492096 14.21101,-10.83515 4.118651,5.6326 4.410271,9.25059 1.16443,14.44786 -3.45105,5.52603 -2.58796,8.44437 4.251101,14.37595 7.91109,6.86125 8.07988,7.94365 2.1617,13.86175 -5.569591,5.56958 -5.677801,7.31758 -0.8174,13.20476 4.333,5.24832 4.48026,7.16296 0.64996,8.45209 -8.179051,2.75281 -5.586711,8.89682 3.96156,9.38909 6.00801,0.30974 6.79234,1.0234 2.40626,2.18934 -4.21616,1.12076 -5.79701,4.44602 -4.48994,9.444367 2.37245,9.07203 9.01648,10.37796 9.01648,1.77222 0,-3.26829 1.97338,-5.942347 4.3854,-5.942347 2.41206,0 3.49465,2.321237 2.40599,5.158327 -1.08864,2.83708 2.43134,9.40352 7.82221,14.59209 6.5893,6.34197 9.2267,12.44151 8.04732,18.61106 -0.96504,5.04752 -0.30267,9.17731 1.47159,9.17731 1.77425,0 4.93413,5.79378 7.02185,12.87508 2.08774,7.0813 8.41095,24.35502 14.05167,38.38604 5.64071,14.03103 10.25583,30.60957 10.25583,36.84119 0,6.23165 2.71985,16.58985 6.04408,23.01823 3.32426,6.42838 5.00618,11.68797 3.73761,11.68797 -1.26849,0 0.85279,5.34811 4.71398,11.88469 3.86126,6.53659 8.52402,11.8847 10.36169,11.8847 1.83764,0 2.26232,1.746 0.94338,3.87969 -1.31867,2.13397 -0.41016,7.59348 2.01908,12.13251 2.42923,4.53906 4.57442,13.9351 4.76708,20.88009 0.1928,6.94502 2.64931,14.40999 5.45922,16.58885 4.7346,3.67132 15.47964,29.70873 19.43064,47.08445 0.93413,4.10783 2.6178,8.3883 3.74175,9.5122 1.12403,1.12402 -1.0485,4.45248 -4.82772,7.39682 -4.95101,3.85735 -5.19528,4.77905 -0.87419,3.29813 3.92237,-1.34429 8.2554,2.42131 12.52518,10.88457 8.59084,17.02834 15.0067,37.51394 12.52591,39.99472 -1.08811,1.08811 0.28946,6.14204 3.06095,11.23107 2.77156,5.08908 5.57661,15.49231 6.23344,23.11832 1.71747,19.94014 3.97343,23.99737 11.69571,21.03404 5.14158,-1.97313 6.17697,-1.03027 4.28453,3.90151 -1.37255,3.57679 -0.96899,7.44671 0.8969,8.59984 1.8659,1.15308 3.42694,7.89538 3.46917,14.98272 0.0423,7.0874 2.22482,21.79968 4.85002,32.69398 2.62519,10.89431 5.19086,22.48189 5.70135,25.75018 0.51051,3.26829 3.24888,11.29046 6.08536,17.82704 2.83648,6.53659 4.78401,14.15309 4.32785,16.92556 -0.45611,2.77246 1.9071,7.77737 5.25182,11.12204 4.73415,4.73415 7.62913,5.08697 13.06918,1.59281 6.57197,-4.22128 6.57528,-4.36012 0.0555,-2.33283 -4.43404,1.37862 -6.93274,0.0581 -6.93274,-3.66242 0,-3.19991 2.22825,-5.81856 4.95196,-5.81919 3.08564,-7.4e-4 4.942,-5.5997 4.92555,-14.85587 -0.0147,-8.1701 1.19243,-17.52877 2.68198,-20.79706 1.48955,-3.26829 3.71729,-9.17507 4.9504,-13.12617 1.2331,-3.95111 3.64445,-6.31709 5.35857,-5.25769 1.71404,1.05932 2.8968,-2.8387 2.6281,-8.66244 -0.26859,-5.82374 0.80763,-13.26263 2.39147,-16.53092 11.75695,-24.25889 20.62803,-55.99861 21.20866,-75.88186 0.23241,-7.96267 1.63137,-13.73055 3.10867,-12.81757 1.4774,0.91301 3.91799,-2.22165 5.42375,-6.96594 1.50566,-4.74429 5.53074,-15.02072 8.94429,-22.83655 3.4136,-7.81577 5.87537,-15.54756 5.47058,-17.1817 -0.40487,-1.63428 1.04665,-2.97118 3.22561,-2.97118 2.17886,0 3.96157,-3.69273 3.96157,-8.20609 0,-4.51333 2.80299,-11.00909 6.22887,-14.43497 3.93231,-3.93233 5.35704,-9.70253 3.86425,-15.65032 -3.44296,-12.42501 11.76816,-13.30647 5.79255,-17.14616 -3.27714,-2.02542 -2.67184,-4.74918 2.12023,-9.54125 3.68864,-3.68866 5.74865,-7.6647 4.57774,-8.83558 -4.24724,-4.24725 6.05264,-25.72504 11.35998,-23.6884 3.35735,1.2883 4.47258,-0.0528 3.07433,-3.69614 -1.20669,-3.14482 -4.23573,-4.70454 -6.73096,-3.46605 -2.49526,1.23838 -1.32264,-0.3745 2.60591,-3.58419 4.71736,-3.85434 5.54606,-6.36822 2.44059,-7.40337 -3.22696,-1.0757 -2.58267,-3.68677 2.05368,-8.32325 3.71573,-3.71574 5.17261,-6.7559 3.23755,-6.7559 -1.96705,0 -1.72355,-7.7362 0.55224,-17.54466 2.23881,-9.64956 5.47747,-16.67519 7.19695,-15.61246 2.91849,1.80357 4.95729,-13.73702 3.3546,-25.56987 -0.39061,-2.88521 1.33426,-7.70954 3.83326,-10.72075 2.49896,-3.01122 3.34547,-7.41381 1.88096,-9.78355 -1.46473,-2.36976 -0.49045,-6.92642 2.16512,-10.12594 2.65536,-3.19952 5.69586,-13.33118 6.75669,-22.5148 1.06091,-9.18363 4.69477,-18.72007 8.07549,-21.1921 5.78532,-4.23035 7.2503,-8.0284 10.56072,-27.37925 1.41983,-8.2998 16.61774,-48.078207 21.11192,-55.257657 3.40455,-5.43877 5.40001,-14.24535 5.30921,-23.43105 -0.0396,-4.05929 0.91248,-6.39502 2.11706,-5.19051 1.20458,1.2045 5.83565,-1.2064 10.29139,-5.35757 4.45578,-4.15117 9.61414,-6.61267 11.463,-5.46999 1.84899,1.14267 3.36162,-0.52409 3.36162,-3.70393 0,-3.90632 3.68442,-5.52645 11.35956,-4.99508 16.28612,1.12751 32.21767,12.73508 32.21767,23.47349 0,4.96115 2.22851,11.42105 4.95195,14.35533 4.00987,4.32007 3.88178,4.72401 -0.6732,2.12321 -4.36747,-2.4937 -4.93128,-1.51646 -2.52167,4.37078 1.70691,4.17045 4.01032,10.73993 5.11869,14.59885 1.58595,5.52127 3.19759,6.03495 7.56434,2.41085 4.44831,-3.69178 5.05417,-3.31539 3.05384,1.8973 -1.37228,3.57648 -0.81898,6.50269 1.22994,6.50269 2.04892,0 3.91783,2.228377 4.15328,4.951947 0.74213,8.58458 2.99573,16.67626 5.9686,21.43112 1.57987,2.52695 1.78481,7.42938 0.45505,10.8943 -1.58225,4.12294 -0.2509,6.29985 3.85064,6.29985 5.12666,0 5.54905,1.89135 2.31937,10.38579 -2.78427,7.32321 -2.59008,12.02271 0.65841,15.93694 3.71547,4.47687 3.28746,5.04479 -2.21161,2.93458 -4.70135,-1.80407 -3.64517,0.80774 3.40119,8.41092 5.62098,6.06513 10.21996,14.3326 10.21996,18.37216 0,4.03956 1.88782,7.34466 4.19538,7.34466 2.30748,0 3.1285,1.72621 1.8247,3.83602 -2.27315,3.67787 7.85027,30.31002 19.78905,52.06041 3.12108,5.68614 4.69892,11.31426 3.50622,12.50693 -1.19269,1.19269 0.63702,7.59377 4.06594,14.22463 3.42898,6.63087 6.23448,16.30428 6.23448,21.49649 0,5.19221 1.23997,10.68046 2.75572,12.1961 1.51569,1.5157 3.14931,5.43759 3.6304,8.71545 0.4812,3.27788 4.58913,13.08605 9.12901,21.79595 9.62858,18.47289 10.98803,33.33518 2.76028,30.17794 -6.65014,-2.55204 -4.1556,10.42838 4.61996,24.03952 3.16077,4.90244 4.30973,8.91353 2.55336,8.91353 -1.75656,0 0.26701,2.61727 4.49635,5.81637 4.22944,3.19896 6.45096,5.87302 4.93674,5.94235 -1.51437,0.0687 1.35248,9.48517 6.37044,20.92419 5.01798,11.43902 10.31647,27.31122 11.77443,35.27159 1.45812,7.96037 5.13165,15.42536 8.16381,16.5889 3.24827,1.24657 5.04072,6.4171 4.36345,12.58708 -0.66844,6.08837 1.11505,11.34054 4.26048,12.5476 2.97546,1.14172 4.49973,3.54869 3.38725,5.3487 -1.11241,1.79987 -0.21129,4.39247 2.00349,5.76104 2.21452,1.36859 4.08287,6.3942 4.15215,11.16804 0.0687,4.77385 2.68625,12.06205 5.81547,16.19607 3.12919,4.134 4.64493,9.20644 3.36831,11.27203 -2.97142,4.80789 6.47938,23.26482 15.28409,29.84921 3.72176,2.78321 5.77699,7.6398 4.56721,10.79249 -1.20987,3.15267 0.64758,8.57933 4.12747,12.05925 3.47992,3.47991 6.32713,9.46806 6.32713,13.30703 0,3.83894 1.23442,8.2143 2.74314,9.72303 1.50883,1.50882 3.23816,5.98687 3.8432,9.9514 1.86167,12.19906 18.81915,38.12259 25.21623,38.54904 4.42568,0.29501 6.31859,-4.23016 7.04279,-16.83665 2.02965,-35.32975 2.82212,-41.00952 5.72225,-41.00952 1.63401,0 2.97117,-4.45677 2.97117,-9.90392 0,-6.67212 2.26232,-10.00596 6.93274,-10.21669 4.14161,-0.18752 4.93907,-1.11716 1.98079,-2.31091 -7.31012,-2.94971 -6.01424,-9.2131 1.98078,-9.57381 4.1416,-0.18752 4.93907,-1.11717 1.98078,-2.31092 -6.7893,-2.73955 -6.23268,-15.15116 0.94682,-21.10952 3.24428,-2.69257 4.85529,-6.58386 3.57998,-8.6473 -2.74607,-4.44327 5.35865,-26.29495 13.16944,-35.50693 3.02338,-3.56573 6.25824,-14.26195 7.18865,-23.7694 2.01486,-20.58786 3.17335,-25.69276 9.12433,-40.20268 2.4884,-6.06745 4.24506,-12.30692 3.90349,-13.86548 -1.64299,-7.49795 6.09244,-32.55268 10.067,-32.60611 2.75804,-0.0343 2.44165,-1.37229 -0.8145,-3.43587 -4.40064,-2.78902 -4.22862,-5.49649 0.9904,-15.58889 3.47373,-6.7175 6.35585,-14.53058 6.40469,-17.36235 0.12677,-7.28488 23.484,-53.89431 23.59183,-47.07526 0.0475,3.08672 1.23416,4.46682 2.63418,3.06691 1.40002,-1.40002 0.29025,-5.26244 -2.46594,-8.5834 -4.12666,-4.97229 -3.9168,-6.03808 1.18873,-6.03808 4.04618,0 5.67529,-2.72424 4.6897,-7.84211 -1.49008,-7.73725 5.38696,-9.4786 10.3835,-2.62916 1.36172,1.86669 2.47598,-1.28539 2.47598,-7.005 0,-5.71949 -1.53946,-11.35054 -3.42102,-12.51339 -1.88148,-1.16285 -2.35925,0.65233 -1.0617,4.03382 1.29754,3.38144 0.61431,6.14809 -1.51834,6.14809 -2.13264,0 -3.69384,-7.00696 -3.4693,-15.57104 0.31745,-12.10425 1.52732,-14.64229 5.43456,-11.39962 7.15546,5.93852 6.2359,1.01522 -1.19904,-6.41966 -5.65936,-5.65939 -5.47932,-6.22534 1.98078,-6.22534 4.51339,0 8.26032,2.22825 8.32658,4.95196 0.26886,11.04894 8.98259,-11.2907 10.28357,-26.36398 2.09197,-24.23969 2.52378,-26.12677 5.97816,-26.12677 1.74731,0 2.23907,-2.44402 1.09286,-5.43111 -1.14621,-2.98713 0.69248,-6.4966 4.08591,-7.79882 7.39003,-2.83581 8.17413,-13.03207 1.21805,-15.83891 -3.80847,-1.53674 -3.75446,-2.07039 0.23241,-2.31091 1.33839,-4.21686 3.19604,-51.19224 -0.65287,-51.93357 -2.49314,-0.0663 -1.37572,-1.95852 2.48311,-4.20505 3.85886,-2.24652 6.00478,-5.72087 4.76878,-7.72079 -1.23601,-1.9999 -0.37714,-7.13028 1.90815,-11.4008 2.75907,-5.15538 2.82064,-8.58955 0.18223,-10.21958 -2.1844,-1.35026 -3.97202,-4.23771 -3.97202,-6.41657 0,-2.17886 1.61632,-2.96254 3.59211,-1.74151 1.97576,1.22104 2.67479,-1.28777 1.55372,-5.575087 -1.12112,-4.28733 0.0898,-16.66477 2.68993,-27.50541 3.68489,-15.36041 6.62057,-19.98036 13.30223,-20.93409 7.01242,-1.00095 8.3941,-3.54309 7.587,-13.95902 -0.73922,-9.5395 1.1203,-13.86296 7.4108,-17.22947 6.7956,-3.63687 7.7986,-3.47416 5.2578,0.85292 -1.727,2.94096 0.3764,2.27299 4.6741,-1.4844 6.5747,-5.74822 10.2951,-6.16101 23.4599,-2.60301 7.4739,1.048245 30.9323,16.553042 26.9633,5.4226 -3.3015,-8.60343 5.8741,-17.8756496 15.8357,-16.0024296 4.6757,0.87926 9.2876,1.7311 10.2488,1.89302 0.9611,0.1619 -1.713,2.9728196 -5.9424,6.2464596 -5.3416,4.13445 -5.7457,5.28113 -1.3234,3.75498 4.3729,-1.50906 7.7417,1.27919 10.7579,8.90381 7.6511,19.34128 9.4425,31.9171 4.9427,34.69815 -2.989,1.84725 -2.4763,5.31266 1.6599,11.21756 6.3318,9.04004 7.9991,16.41761 3.0136,13.3355 -1.6343,-1.01025 -2.8332,5.05134 -2.6645,13.47022 -4.4833,47.077757 -20.8052,49.347927 -30.545,100.937317 4.7735,4.7735 3.39,13.06172 -1.845,11.05286 -3.392,-1.30164 -5.5515,0.43707 -5.5515,4.46967 0,3.62999 -1.7827,5.49821 -3.9616,4.15159 -2.1789,-1.34667 -3.9616,-0.66554 -3.9616,1.51306 0,2.17886 1.6515,4.98217 3.6697,6.22959 2.0474,1.26532 2.3168,7.061 0.6098,13.10886 -1.6828,5.9625 -2.3489,12.90591 -1.4797,15.4298 0.8691,2.52404 -0.2966,5.74886 -2.5906,7.16655 -2.294,1.41771 -4.1817,6.4835 -4.1951,11.25734 -0.012,4.77385 -2.308,13.13647 -5.0992,18.58363 -27.9444,88.98461 -41.2318,86.04853 -66.75315,166.38563 -0.30029,9.80487 -1.83236,19.60975 -3.40412,21.78861 -27.01546,102.2957 -17.69732,16.57331 -45.08064,128.75091 -0.52398,3.26829 -2.85941,9.50775 -5.18976,13.86548 -2.33045,4.35772 -6.51619,21.29341 -9.30181,37.63487 -2.78561,16.34146 -6.71675,31.86203 -8.73588,34.49018 -2.01908,2.62811 -2.52114,6.63919 -1.11558,8.91353 1.40556,2.2742 0.56254,4.13505 -1.87356,4.13505 -2.43609,0 -3.32739,1.78271 -1.98078,3.96157 1.34667,2.17886 0.70199,3.96156 -1.43224,3.96156 -2.13422,0 -5.10735,5.58547 -6.60673,12.41214 -2.08906,9.51093 -3.63185,11.13137 -6.60076,6.93274 -2.86674,-4.05411 -3.36646,-3.1608 -1.92109,3.43413 1.07437,4.90243 0.33805,8.91352 -1.63718,8.91352 -1.97498,0 -3.59069,4.45676 -3.59069,9.90391 0,5.44716 -1.88782,9.90392 -4.19538,9.90392 -2.30748,0 -3.14778,1.69502 -1.86748,3.76663 1.28038,2.07163 -1.15651,14.08822 -5.41554,26.70348 -4.25887,12.61524 -6.73984,23.84485 -5.51331,24.9547 1.2265,1.10977 3.02598,-0.21128 3.9987,-2.93407 0.9727,-2.72357 3.62098,-4.95196 5.88506,-4.95196 2.48523,0 2.16223,2.35476 -0.81529,5.94235 -2.71245,3.26829 -3.79206,5.94235 -2.39912,5.94235 1.39289,0 -1.95411,8.85426 -7.43805,19.67615 -5.48386,10.82186 -9.97065,23.30079 -9.97065,27.73096 0,4.43014 -1.78271,8.27766 -3.96157,8.55001 -14.57637,1.82205 -27.59851,7.77687 -26.66012,12.19129 0.50048,2.35423 -4.91691,7.77714 -12.03857,12.05079 -11.55641,6.93494 -13.89889,7.15504 -21.78861,2.04708 -4.86208,-3.14778 -13.74256,-6.93052 -19.73443,-8.40613 -11.81144,-2.90882 -14.1504,-10.74424 -5.38004,-18.02293 3.03281,-2.51718 6.47367,-8.24544 7.64637,-12.72978 1.84926,-7.07115 0.72286,-7.86355 -8.48543,-5.96981 -5.83962,1.20088 -8.38917,1.21435 -5.6656,0.0317 2.72358,-1.18451 4.95196,-4.67919 4.95196,-7.76588 0,-3.08675 1.72671,-5.61225 3.83725,-5.61225 2.11046,0 2.8111,-2.67406 1.5569,-5.94235 -1.25424,-3.26829 -4.55573,-5.94235 -7.3368,-5.94235 -4.61324,0 -11.40616,-13.63288 -10.3676,-20.80704 0.23769,-1.63903 -3.06385,-9.50142 -7.33584,-17.47201 -4.27194,-7.97059 -6.66153,-16.43445 -5.31016,-18.80856 1.35142,-2.3743 1.08996,-3.08677 -0.58103,-1.58357 -1.67099,1.50328 -5.28449,0.63464 -8.03015,-1.93034 -4.00533,-3.74159 -3.90428,-5.45869 0.51131,-8.68739 4.6031,-3.36583 3.91688,-8.07206 -4.19533,-28.77188 -5.33422,-13.61313 -7.97891,-24.74964 -5.87711,-24.74964 2.10174,0 0.18751,-3.90154 -4.25591,-8.67013 -7.59998,-8.1576 -8.87439,-12.68543 -9.42591,-33.49047 -0.12677,-4.80696 -2.24146,-7.71348 -4.87521,-6.70283 -3.0568,1.17315 -4.01196,-1.55452 -2.78757,-7.95948 1.39526,-7.29855 -0.17959,-10.39168 -6.26968,-12.32506 -6.77784,-2.15113 -7.5185,-4.19561 -4.44691,-12.27454 3.76935,-9.91419 1.67627,-11.63842 -11.96472,-9.85558 -4.17066,0.54511 -3.5801,-1.11875 1.98078,-5.58095 7.92313,-6.3576 7.92313,-6.3576 0,-5.25922 -6.84997,0.94972 -7.8023,-0.9373 -7.03114,-13.93047 0.53164,-8.95858 -0.66845,-14.06451 -2.97118,-12.64133 -3.7651,2.32702 -5.45732,-2.93655 -4.15888,-12.93589 0.3539,-2.72358 -0.99488,-4.95196 -2.99697,-4.95196 -2.00192,0 -4.73328,-5.46624 -6.06952,-12.14727 -1.3361,-6.68099 -4.03969,-11.15204 -6.00782,-9.93568 -7.56154,-81.94075 -11.01882,-41.11616 -25.4297,-124.00238 -0.76115,-4.98703 -3.27981,-10.25776 -5.59716,-11.71273 -4.50238,-2.82674 -17.88734,-32.35712 -14.66635,-32.35712 1.05483,0 -0.0159,-3.61533 -2.3817,-8.03408 -2.36479,-4.41873 -5.62003,-7.21811 -7.23374,-6.22077 2.01506,-14.98384 -13.99522,-32.36714 -15.78285,-47.14942 -0.70806,-6.53659 -4.10405,-15.00443 -7.5467,-18.81744 -5.08483,-5.63179 -5.21493,-6.94412 -0.69354,-6.9934 3.59578,-0.0396 4.06013,-1.09076 1.31181,-2.97118 -5.84878,-4.00144 -17.33764,-40.54538 -12.74684,-40.54538 2.03571,0 0.88369,-2.81776 -2.56023,-6.26173 -3.44395,-3.44395 -5.24878,-7.90071 -4.01072,-9.90392 1.23813,-2.00323 0.14526,-3.64215 -2.42949,-3.64215 -3.29579,0 -3.07196,-1.94619 0.75666,-6.57881 4.91178,-5.94327 4.663,-6.0969 -2.57581,-1.59044 -9.97842,6.21216 -17.6772,21.9664 -15.71461,32.15721 1.02367,5.31568 -0.71572,7.70453 -5.61013,7.70453 -5.03985,0 -8.98871,5.86698 -13.63801,20.26278 -3.59927,11.14449 -6.54414,23.24649 -6.54414,26.8933 0,3.64681 -3.36313,13.22717 -7.47365,21.28969 -4.11049,8.06253 -5.7083,13.56807 -3.55064,12.23458 2.15773,-1.33346 0.91036,2.17332 -2.77175,7.79291 -3.68212,5.61961 -5.62062,11.9554 -4.30783,14.07951 1.31286,2.12419 0.77725,4.8569 -1.19032,6.07281 -1.96732,1.21594 -4.83414,8.91152 -6.37054,17.10129 -1.5363,8.18982 -4.73281,16.08911 -7.10307,17.55402 -2.37033,1.46498 -4.70842,5.03441 -5.19598,7.93221 -0.48754,2.89781 -2.25308,8.68093 -3.92317,12.85135 -2.11997,5.2931 -1.65092,6.72618 1.55267,4.74624 2.99848,-1.85322 3.77157,-0.70516 2.2301,3.31166 -1.29755,3.38149 -3.70784,6.14811 -5.35609,6.14811 -1.64828,0 -2.68571,4.01109 -2.30537,8.91353 0.38031,4.90243 -2.98287,12.19922 -7.47365,16.21503 -6.69449,5.98648 -6.91642,6.90073 -1.23231,5.07627 3.813,-1.22386 6.93274,-0.49837 6.93274,1.61209 0,2.11046 -1.97339,3.83725 -4.38543,3.83725 -2.41206,0 -3.35927,2.67406 -2.10518,5.94235 1.25424,3.26829 0.49071,5.94235 -1.69634,5.94235 -2.60486,0 -2.65734,2.46515 -0.15318,7.14619 2.20395,4.11815 2.37377,9.49352 0.40091,12.68596 -1.88306,3.04684 -2.62097,6.8387 -1.63982,8.42633 0.98115,1.58753 -0.029,4.00633 -2.24225,5.3749 -2.21451,1.36859 -4.02619,4.83944 -4.02619,7.71303 0,2.87364 -3.00524,12.12762 -6.67828,20.56446 -3.67308,8.43679 -6.18447,17.12236 -5.58089,19.30122 3.45013,12.45464 3.00334,29.33682 -0.75666,28.58574 -2.35343,-0.47011 -4.61213,4.49334 -5.01946,11.02992 -2.43927,39.14526 -4.13445,51.77703 -7.2518,54.04075 -6.29456,4.57093 -9.45595,50.37492 -4.51595,65.43035 1.94328,5.92257 0.46139,10.89035 -4.82577,16.17753 -5.5309,5.5309 -6.75677,9.99149 -4.45547,16.2125 1.87805,5.07695 1.60893,8.58225 -0.65894,8.58225 -2.10861,0 -3.83392,4.45676 -3.83392,9.90392 0,5.44715 -1.78271,9.90391 -3.96157,9.90391 -2.17886,0 -3.96156,3.29151 -3.96156,7.31448 0,9.3794 -9.31536,28.04931 -19.39168,38.86499 -4.32421,4.64148 -6.93372,9.36747 -5.79897,10.50222 3.43732,3.43734 -6.61819,18.98379 -10.66221,16.48444 -2.06952,-1.27906 -3.7628,0.55885 -3.7628,4.0844 0,3.88524 1.82549,5.28172 4.63479,3.5455 3.26711,-2.01908 3.71675,-0.62699 1.52362,4.71817 -2.96848,7.23506 -6.50946,25.33268 -7.16996,36.64525 -0.55778,9.55128 -17.95981,17.66779 -32.73856,15.26954 -7.58384,-1.23073 -13.78876,-0.78994 -13.78876,0.97982 0,1.7695 -4.29832,3.2173 -9.55178,3.2173 -7.67965,0 -9.24196,-1.70849 -7.97107,-8.71711 z m 500.83387,-43.34978 c 0,-0.85622 -2.76663,-2.61859 -6.14812,-3.91622 -3.52547,-1.35274 -5.11564,-0.68878 -3.72775,1.5569 2.3265,3.76431 9.87587,5.56777 9.87587,2.35924 z M 39.624199,10.411423 c 0,-0.8226396 3.11973,-3.9423796 6.93274,-6.9327496 6.28325,-4.92767 6.42339,-4.78755 1.49562,1.49571 -5.17526,6.5989696 -8.42844,8.6975396 -8.42844,5.4370396 z"
     id="path3567"
     inkscape:connector-curvature="0"
     sodipodi:nodetypes="cscccccsccssscsccccssssscsscscscssssscsssccssssscscsccccccccsscscsscssssscssssscccsscsccsscsssssscsssscsssssssscscsccsssssscccsssscsscsscssccccccscsssccsscccccsscccsccsssscsscssscsscscsscsscssssscssssccscssccsccccsccssscssssssssccccccssscccscccssssscsssssssssscsccssccssscssscsccssssscccccsscscccsccccccsscscscscsssccccsssssscsssccccsssscscccscscccscssscsscsccccscccsccsscsscssssscssccsscscsssssscsccccssssssssssssssssscscsssccccscccsscc" />
</svg>
