<?xml version="1.0" encoding="UTF-8" standalone="no"?>
<!-- Created with Inkscape (http://www.inkscape.org/) -->

<svg
   xmlns:dc="http://purl.org/dc/elements/1.1/"
   xmlns:cc="http://creativecommons.org/ns#"
   xmlns:rdf="http://www.w3.org/1999/02/22-rdf-syntax-ns#"
   xmlns:svg="http://www.w3.org/2000/svg"
   xmlns="http://www.w3.org/2000/svg"
   xmlns:sodipodi="http://sodipodi.sourceforge.net/DTD/sodipodi-0.dtd"
   xmlns:inkscape="http://www.inkscape.org/namespaces/inkscape"
   id="svg3667"
   version="1.1"
   inkscape:version="0.91 r13725"
   width="643.62878"
   height="930"
   viewBox="0 0 643.62878 930.00001"
   sodipodi:docname="X.svg">
  <metadata
     id="metadata3673">
    <rdf:RDF>
      <cc:Work
         rdf:about="">
        <dc:format>image/svg+xml</dc:format>
        <dc:type
           rdf:resource="http://purl.org/dc/dcmitype/StillImage" />
        <dc:title></dc:title>
      </cc:Work>
    </rdf:RDF>
  </metadata>
  <defs
     id="defs3671" />
  <sodipodi:namedview
     pagecolor="#ffffff"
     bordercolor="#666666"
     borderopacity="1"
     objecttolerance="10"
     gridtolerance="10"
     guidetolerance="10"
     inkscape:pageopacity="0"
     inkscape:pageshadow="2"
     inkscape:window-width="1829"
     inkscape:window-height="1048"
     id="namedview3669"
     showgrid="false"
     fit-margin-top="0"
     fit-margin-left="0"
     fit-margin-right="0"
     fit-margin-bottom="0"
     inkscape:zoom="1.065627"
     inkscape:cx="433.75416"
     inkscape:cy="284.19301"
     inkscape:window-x="53"
     inkscape:window-y="0"
     inkscape:window-maximized="0"
     inkscape:current-layer="svg3667" />
  <path
     style="fill:#000000"
     d="m 31.87081,838.48756 c 14.783367,-24.26593 75.89938,-111.53722 69.56427,-117.86115 -1.500715,-0.0304 -0.87922,-1.31364 1.38148,-2.84803 5.64191,-3.8296 32.39075,-50.24284 28.9976,-50.31514 -1.50072,-0.0304 -0.7858,-1.31363 1.58882,-2.84802 4.88635,-3.15749 19.2979,-25.96315 22.75993,-36.01688 1.2586,-3.65497 3.79788,-6.6454 5.64284,-6.6454 1.84502,0 3.35447,-3.08561 3.35447,-6.85698 0,-3.77135 4.21526,-12.57046 9.36728,-19.55359 5.15199,-6.98314 8.46876,-14.15037 7.37061,-15.92723 -1.09815,-1.77692 -0.004,-3.23063 2.43113,-3.23063 2.43512,0 3.7497,-2.13614 2.92099,-4.74671 -1.78958,-5.63744 18.08653,-25.83038 21.99461,-22.34523 1.48579,1.32502 1.50199,0.32125 0.0354,-2.23033 -2.54213,-4.42615 5.39764,-20.04182 15.63924,-30.75749 2.63781,-2.75985 4.79598,-7.27629 4.79598,-10.0365 0,-2.76018 2.56322,-6.00212 5.69605,-7.20431 3.13283,-1.20225 5.69605,-4.80261 5.69605,-8.00103 0,-3.19838 1.70882,-5.81522 3.79737,-5.81522 2.08856,0 3.79737,-3.41763 3.79737,-7.59474 0,-4.1771 3.45639,-11.05112 7.68086,-15.2756 8.30976,-8.30975 6.54735,-10.04401 -12.54757,-12.34704 -12.32985,-1.48705 -26.8719,-12.67367 -23.52176,-18.09431 2.88063,-4.66099 -16.04381,-45.4199 -21.08857,-45.4199 -2.02728,0 -3.68613,-1.83084 -3.68613,-4.06863 0,-2.23766 -2.6615,-6.7301 -5.91442,-9.98305 -3.25296,-3.25293 -5.01539,-8.25733 -3.91656,-11.12085 1.13339,-2.95382 -0.41493,-5.20642 -3.57897,-5.20642 -3.06729,0 -5.16029,-1.28174 -4.65112,-2.84803 -24.23719,-17.30749 -20.18256,-60.59316 -43.83672,-75.7587 -2.7155,-1.67008 -8.85562,-8.65061 -13.64468,-15.512 -7.43637,-10.65422 -7.96288,-13.38336 -3.60682,-18.69604 4.50214,-5.49084 4.09812,-5.9624 -3.4435,-4.01903 -8.71398,2.24551 -11.77058,-2.23969 -4.56232,-6.69466 4.16325,-12.67906 -14.622785,-10.74308 -18.617195,-19.17342 -2.58452,-5.67235 -2.7655,-9.19289 -0.47265,-9.19289 2.04374,0 3.71595,-2.56322 3.71595,-5.69605 0,-6.89318 -6.26971,-7.57664 -8.70878,-0.94934 -0.96074,2.61069 -3.10025,-0.3628 -4.75431,-6.60779 -1.654,-6.24498 -5.38059,-13.72778 -8.28125,-16.62845 -2.90068,-2.90067 -4.34085,-7.70559 -3.20037,-10.6776 1.14045,-2.97201 0.63421,-4.51407 -1.12501,-3.42681 -1.75924,1.08726 -5.29447,-2.6231 -7.8561,-8.24524 -3.24535,-7.1228 -3.4137,-10.63667 -0.55527,-11.58948 6.43573,-2.14525 4.79645,-7.54431 -2.11261,-6.95798 -3.69732,0.31378 -7.92746,-4.09035 -10.44276,-10.87228 C 43.648285,116.32153 30.904753,100.4931 16.768434,74.227143 -9.9541309,14.642335 66.154385,-18.632051 97.294646,38.055648 146.63963,120.01799 145.42166,106.1247 196.54263,184.30619 c 5.77316,8.87635 12.18122,16.13882 14.24013,16.13882 2.05894,0 3.7435,2.50375 3.7435,5.56392 0,3.06015 5.37586,11.68669 11.94637,19.17007 7.29047,8.30338 12.10034,18.04669 12.34145,24.9999 0.30809,8.88775 1.85793,11.01337 7.04571,9.66431 3.65786,-0.95111 5.77816,-0.31771 4.71181,1.40756 -1.06631,1.72552 0.64023,5.71603 3.79212,8.86805 3.15205,3.15217 5.73097,7.56198 5.73097,9.79969 0,2.23766 1.80957,4.06863 4.02149,4.06863 2.21184,0 3.03832,1.59084 1.83666,3.53497 -1.20149,1.94425 -0.42024,4.62552 1.73641,5.95845 2.15665,1.33288 2.93812,4.0142 1.73641,5.95843 -1.20149,1.94425 -0.37493,3.53499 1.83666,3.53499 2.21184,0 4.04767,-2.13589 4.07964,-4.74671 0.0405,-3.3929 1.01542,-3.23508 3.41411,0.5534 1.84578,2.91504 5.78709,4.36715 8.75846,3.22693 6.68742,-2.56618 16.11537,10.81982 10.19684,14.47767 -2.43867,1.5073 -0.92731,4.62241 3.87512,7.98612 4.33049,3.03319 7.87364,8.83562 7.87364,12.8943 0,4.05868 2.13589,6.95222 4.74671,6.43008 2.61069,-0.52201 4.34001,1.12529 3.84291,3.66072 -0.5572,2.84238 1.50173,3.68699 5.36966,2.20273 4.20905,-1.61515 5.36988,-0.94529 3.52773,2.03539 -1.51009,2.44348 -1.11896,4.44269 0.86934,4.44269 1.98831,0 4.59882,-2.56322 5.80104,-5.69605 1.20225,-3.13283 4.80261,-5.69606 8.00101,-5.69606 6.43666,0 7.98898,-6.23113 2.04982,-8.22763 -3.62814,-1.21972 11.54458,-35.24672 19.07383,-42.77597 2.02349,-2.02324 3.67884,-5.88714 3.67884,-8.58636 0,-2.69924 3.72311,-9.18971 8.27365,-14.42324 4.55052,-5.23356 11.72937,-17.63547 15.953,-27.55981 4.22361,-9.92435 8.61732,-18.89867 9.76382,-19.94295 8.59165,-7.82567 26.79821,-39.16997 30.89266,-53.18457 20.66934,-43.90485 56.36529,-105.783601 76.21783,-134.928901 28.5643,-52.276921 90.68159,-15.16026 70.34795,27.870233 -24.76706,48.796818 -62.61849,110.952608 -78.54101,149.391548 0,1.87433 -4.65545,10.63638 -10.34545,19.47121 -5.68998,8.83486 -12.25735,19.48101 -14.5942,23.65812 -2.3369,4.17711 -7.91207,14.01525 -12.38947,21.86257 -4.47738,7.84731 -7.73567,14.89325 -7.24065,15.65766 0.49493,0.76454 -3.67618,6.91372 -9.2693,13.66509 -5.59314,6.75139 -9.25512,14.65756 -8.13779,17.56931 1.11744,2.91172 0.21772,5.29406 -1.99994,5.29406 -2.21741,0 -5.15361,5.98086 -6.52495,13.29079 -1.37135,7.30994 -4.76172,13.2908 -7.53413,13.2908 -3.06303,0 -6.04617,6.70451 -7.60329,17.08816 -1.40933,9.39849 -4.17817,17.08816 -6.15282,17.08816 -1.97464,0 -2.61935,1.5711 -1.43262,3.49122 1.1868,1.92021 -0.23797,5.88585 -3.16372,8.81263 -2.92678,2.92679 -5.93291,8.47659 -6.68031,12.33295 -0.74732,3.8563 -3.49606,7.72309 -6.10816,8.59278 -3.17162,1.05593 -3.93208,-0.73162 -2.28906,-5.38135 1.9078,-5.39917 1.403,-5.98835 -2.24779,-2.62368 -3.52284,3.24675 -3.65724,6.3025 -0.53391,12.1387 3.36981,6.29657 2.88876,8.54831 -2.49613,11.68433 -3.66879,2.13665 -4.58811,3.9366 -2.04299,4.00009 2.54512,0.0633 3.76955,2.35133 2.72094,5.08397 -1.04858,2.73269 1.56832,8.97501 5.81522,13.87181 4.24675,4.89689 7.72157,10.94028 7.72157,13.42983 0,2.48956 3.41763,7.6194 7.59473,11.39963 4.17711,3.78025 7.59474,9.17153 7.59474,11.98067 0,2.80909 1.70881,5.10749 3.79737,5.10749 2.08855,0 3.79737,4.25758 3.79737,9.46127 0,5.34867 3.30125,11.52288 7.59473,14.20421 4.17711,2.60864 7.59474,6.66471 7.59474,9.01351 0,2.3488 3.5812,8.82321 7.9582,14.38764 4.37697,5.56444 7.03622,12.51977 5.90934,15.45625 -1.12681,2.93651 -0.63138,5.87669 1.10123,6.53376 72.71226,84.9259 102.54595,168.44391 154.23659,259.13983 35.13857,61.87966 -54.01049,86.28917 -75.13019,50.53891 -48.8824,-101.93089 -90.75967,-159.98079 -164.91376,-296.34104 -4.27987,1.64223 -5.45814,0.98807 -3.60885,-2.00425 1.51009,-2.44348 0.93618,-4.4427 -1.27566,-4.4427 -2.21184,0 -3.83668,-1.28173 -3.61082,-2.84802 0.86327,-5.9865 -5.25928,-19.93619 -8.75005,-19.93619 -2.01083,0 -2.93083,-4.69924 -2.04425,-10.44276 0.88656,-5.74352 0.89694,-8.30674 0.0228,-5.69605 -0.87364,2.61069 -3.273,4.74671 -5.33165,4.74671 -2.05868,0 -2.7976,-1.52983 -1.64199,-3.39948 1.95692,-3.16579 -5.88977,-7.99268 -12.99267,-7.99268 -1.71843,0 -8.76481,9.82569 -15.65875,21.83487 -6.89395,12.00918 -15.6479,26.96132 -19.45321,33.22698 -3.80535,6.26565 -7.92575,14.38253 -9.15647,18.0375 -1.2306,3.65497 -3.84805,6.64539 -5.81628,6.64539 -1.9683,0 -2.52247,-1.70881 -1.23161,-3.79737 1.29085,-2.08855 0.5372,-3.79736 -1.67464,-3.79736 -5.10724,0 -5.23832,6.39446 -0.19494,9.51142 2.37209,1.46603 1.65059,4.54079 -1.89868,8.09011 -3.14883,3.14886 -5.72517,9.69233 -5.72517,14.54107 0,9.57726 -9.59028,15.81761 -13.01039,8.46577 -1.15997,-2.49335 -1.23187,-0.92984 -0.15949,3.4746 1.12377,4.61636 -0.49948,10.04024 -3.83241,12.8064 -3.18049,2.63919 -5.7823,7.0748 -5.7823,9.85698 0,2.78218 -4.16847,9.22695 -9.26328,14.32172 -5.0948,5.09483 -8.30899,10.21758 -7.14267,11.38391 1.1663,1.1663 -0.21772,4.7059 -3.07817,7.86572 -10.52064,11.6262 -14.6922,17.13567 -14.6922,19.40435 0,1.27819 -5.12645,9.77514 -11.39211,18.88196 -6.26565,9.1068 -11.3921,18.30106 -11.3921,20.43169 0,2.13058 -2.99043,5.6156 -6.6454,7.74441 -3.65497,2.1288 -5.33953,3.92255 -3.74347,3.98604 1.59616,0.0633 -1.603,6.92273 -7.1088,15.24269 -5.50588,8.31996 -11.40758,14.26386 -13.11485,13.2087 -1.70729,-1.05517 -2.97496,1.10883 -2.81704,4.80901 -18.75974,36.03975 -20.07401,29.51369 -45.93971,66.20847 -23.17206,47.63966 -105.20383186,13.9464 -72.90697,-38.51093 z"
     id="path3677"
     inkscape:connector-curvature="0"
     sodipodi:nodetypes="cccccsssscssscsscssssssssscsccsssccsscsssssssscccssscccssscccsccscssccscsssccssssccccssscscsssssscccsscscccsssssssscccccssssscscssscsssssscccssscsssscssccc" />
</svg>
