<?xml version="1.0" encoding="UTF-8" standalone="no"?>
<!-- Created with Inkscape (http://www.inkscape.org/) -->

<svg
   xmlns:dc="http://purl.org/dc/elements/1.1/"
   xmlns:cc="http://creativecommons.org/ns#"
   xmlns:rdf="http://www.w3.org/1999/02/22-rdf-syntax-ns#"
   xmlns:svg="http://www.w3.org/2000/svg"
   xmlns="http://www.w3.org/2000/svg"
   xmlns:sodipodi="http://sodipodi.sourceforge.net/DTD/sodipodi-0.dtd"
   xmlns:inkscape="http://www.inkscape.org/namespaces/inkscape"
   id="svg3667"
   version="1.1"
   inkscape:version="0.91 r13725"
   width="643.62878"
   height="930"
   viewBox="0 0 643.62878 930.00001"
   sodipodi:docname="X.svg">
  <metadata
     id="metadata3673">
    <rdf:RDF>
      <cc:Work
         rdf:about="">
        <dc:format>image/svg+xml</dc:format>
        <dc:type
           rdf:resource="http://purl.org/dc/dcmitype/StillImage" />
        <dc:title></dc:title>
      </cc:Work>
    </rdf:RDF>
  </metadata>
  <defs
     id="defs3671" />
  <sodipodi:namedview
     pagecolor="#ffffff"
     bordercolor="#666666"
     borderopacity="1"
     objecttolerance="10"
     gridtolerance="10"
     guidetolerance="10"
     inkscape:pageopacity="0"
     inkscape:pageshadow="2"
     inkscape:window-width="1829"
     inkscape:window-height="1048"
     id="namedview3669"
     showgrid="false"
     fit-margin-top="0"
     fit-margin-left="0"
     fit-margin-right="0"
     fit-margin-bottom="0"
     inkscape:zoom="0.7535121"
     inkscape:cx="-41.606307"
     inkscape:cy="474.37367"
     inkscape:window-x="53"
     inkscape:window-y="0"
     inkscape:window-maximized="0"
     inkscape:current-layer="svg3667" />
  <path
     style="fill:#000000"
     d="m 57.664565,928.17251 c -1.31085,-3.41608 -4.7815,-5.16267 -7.88911,-3.97015 -3.26351,1.25238 -7.28738,-1.11971 -9.77076,-5.76007 -2.32222,-4.3391 -5.97174,-7.88926 -8.11009,-7.88926 -2.13842,0 -3.04536,1.36325 -2.01564,3.02933 1.02984,1.66604 0.30227,5.51097 -1.61642,8.54408 -2.01437,3.18402 -3.51322,3.6589 -3.54679,1.12352 -0.0329,-2.41513 -3.16794,-3.57796 -6.96883,-2.58403 -3.80086,0.99389 -8.9054905,-0.59644 -11.3436305,-3.53422 -5.42969999,-6.54238 -8.68481,-37.42421 -4.49593,-42.65371 1.67287,-2.08856 3.6313,-7.215 4.35189,-11.39211 1.64046,-9.50937 10.3759505,-16.80966 20.3030805,-16.9674 5.44062,-0.0861 10.61762,-6.3264 18.21568,-21.95563 13.24497,-27.24503 24.10646,-47.26484 28.32797,-52.21382 7.25991,-8.51102 30.861305,-51.26866 28.329095,-51.32263 -1.500715,-0.0304 -0.87922,-1.31364 1.38148,-2.84803 5.64191,-3.8296 32.39075,-50.24284 28.9976,-50.31514 -1.50072,-0.0304 -0.7858,-1.31363 1.58882,-2.84802 4.88635,-3.15749 19.2979,-25.96315 22.75993,-36.01688 1.2586,-3.65497 3.79788,-6.6454 5.64284,-6.6454 1.84502,0 3.35447,-3.08561 3.35447,-6.85698 0,-3.77135 4.21526,-12.57046 9.36728,-19.55359 5.15199,-6.98314 8.46876,-14.15037 7.37061,-15.92723 -1.09815,-1.77692 -0.004,-3.23063 2.43113,-3.23063 2.43512,0 3.7497,-2.13614 2.92099,-4.74671 -1.78958,-5.63744 18.08653,-25.83038 21.99461,-22.34523 1.48579,1.32502 1.50199,0.32125 0.0354,-2.23033 -2.54213,-4.42615 5.39764,-20.04182 15.63924,-30.75749 2.63781,-2.75985 4.79598,-7.27629 4.79598,-10.0365 0,-2.76018 2.56322,-6.00212 5.69605,-7.20431 3.13283,-1.20225 5.69605,-4.80261 5.69605,-8.00103 0,-3.19838 1.70882,-5.81522 3.79737,-5.81522 2.08856,0 3.79737,-3.41763 3.79737,-7.59474 0,-4.1771 3.45639,-11.05112 7.68086,-15.2756 8.30976,-8.30975 6.54735,-10.04401 -12.54757,-12.34704 -12.32985,-1.48705 -26.8719,-12.67367 -23.52176,-18.09431 2.88063,-4.66099 -16.04381,-45.4199 -21.08857,-45.4199 -2.02728,0 -3.68613,-1.83084 -3.68613,-4.06863 0,-2.23766 -2.6615,-6.7301 -5.91442,-9.98305 -3.25296,-3.25293 -5.01539,-8.25733 -3.91656,-11.12085 1.13339,-2.95382 -0.41493,-5.20642 -3.57897,-5.20642 -3.06729,0 -5.16029,-1.28174 -4.65112,-2.84803 -24.23719,-17.30749 -20.18256,-60.59316 -43.83672,-75.7587 -2.7155,-1.67008 -8.85562,-8.65061 -13.64468,-15.512 -7.43637,-10.65422 -7.96288,-13.38336 -3.60682,-18.69604 4.50214,-5.49084 4.09812,-5.9624 -3.4435,-4.01903 -8.71398,2.24551 -11.77058,-2.23969 -4.56232,-6.69466 4.16325,-12.67906 -14.622785,-10.74308 -18.617195,-19.17342 -2.58452,-5.67235 -2.7655,-9.19289 -0.47265,-9.19289 2.04374,0 3.71595,-2.56322 3.71595,-5.69605 0,-6.89318 -6.26971,-7.57664 -8.70878,-0.94934 -0.96074,2.61069 -3.10025,-0.3628 -4.75431,-6.60779 -1.654,-6.24498 -5.38059,-13.72778 -8.28125,-16.62845 -2.90068,-2.90067 -4.34085,-7.70559 -3.20037,-10.6776 1.14045,-2.97201 0.63421,-4.51407 -1.12501,-3.42681 -1.75924,1.08726 -5.29447,-2.6231 -7.8561,-8.24524 -3.24535,-7.1228 -3.4137,-10.63667 -0.55527,-11.58948 6.43573,-2.14525 4.79645,-7.54431 -2.11261,-6.95798 -3.69732,0.31378 -7.92746,-4.09035 -10.44276,-10.87228 -2.32538,-6.26983 -8.50001,-15.99856 -13.72139,-21.6194 C 19.887972,87.857289 -8.3675284,55.267717 7.3886745,38.695065 c 3.0547605,-3.05474 4.5894505,-8.06784 3.4104705,-11.14023 -1.1789605,-3.07239 -0.1519,-5.58616 2.28424,-5.58616 2.43538,0 3.44462,1.59074 2.24298,3.53498 -1.20149,1.94422 -0.44809,4.6083 1.67464,5.92016 2.12248,1.31184 3.85927,0.47467 3.85927,-1.86041 0,-2.38581 2.07944,-2.99639 4.74671,-1.39386 3.26758,1.96309 3.13432,0.86362 -0.42758,-3.52832 -4.46923,-5.51059 -4.21048,-6.69344 1.89868,-8.67963 3.89018,-1.26475 11.71048,-4.02991 17.37843,-6.1447703 7.69144,-2.86988 14.7948,-2.31548 28.00506,2.1856903 9.73486,3.317 19.48557,4.9272 21.66827,3.57822 2.44424,-1.5107 3.04395,-0.0433 1.56123,3.82075 -1.32402,3.45039 -1.18731,6.09158 0.30404,5.8693 10.128055,-1.50961 19.799505,1.31619 19.799505,5.78502 0,7.09231 -9.79704,10.44472 -21.753655,7.44381 -6.83306,-1.715 -8.95197,-1.14486 -7.06888,1.90207 1.47895,2.39316 5.02754,4.35119 7.88551,4.35119 7.304185,0 20.937025,18.38503 20.937025,28.23532 0,9.67302 8.21077,28.652945 12.4138,28.695585 1.60628,0.0163 1.84324,4.32098 0.52682,9.56598 -2.03767,8.11854 -1.34275,9.16004 4.67438,7.00525 3.88729,-1.39212 9.24515,-4.21815 11.9063,-6.28011 2.66117,-2.06194 6.0788,-2.41715 7.59474,-0.78932 1.51591,1.62783 0.62023,3.72256 -1.99033,4.65495 -6.56537,2.34477 -5.95901,11.17671 0.94934,13.82769 3.13283,1.20217 5.69605,4.68748 5.69605,7.74512 0,3.05763 3.41764,6.64405 7.59474,7.96982 4.17711,1.32576 7.59474,3.68192 7.59474,5.23591 0,1.55398 2.99043,6.13808 6.64539,10.18687 3.65497,4.04878 11.3689,14.6239 17.14204,23.50025 5.77316,8.87635 12.18122,16.13882 14.24013,16.13882 2.05894,0 3.7435,2.50375 3.7435,5.56392 0,3.06015 5.37586,11.68669 11.94637,19.17007 7.29047,8.30338 12.10034,18.04669 12.34145,24.9999 0.30809,8.88775 1.85793,11.01337 7.04571,9.66431 3.65786,-0.95111 5.77816,-0.31771 4.71181,1.40756 -1.06631,1.72552 0.64023,5.71603 3.79212,8.86805 3.15205,3.15217 5.73097,7.56198 5.73097,9.79969 0,2.23766 1.80957,4.06863 4.02149,4.06863 2.21184,0 3.03832,1.59084 1.83666,3.53497 -1.20149,1.94425 -0.42024,4.62552 1.73641,5.95845 2.15665,1.33288 2.93812,4.0142 1.73641,5.95843 -1.20149,1.94425 -0.37493,3.53499 1.83666,3.53499 2.21184,0 4.04767,-2.13589 4.07964,-4.74671 0.0405,-3.3929 1.01542,-3.23508 3.41411,0.5534 1.84578,2.91504 5.78709,4.36715 8.75846,3.22693 6.68742,-2.56618 16.11537,10.81982 10.19684,14.47767 -2.43867,1.5073 -0.92731,4.62241 3.87512,7.98612 4.33049,3.03319 7.87364,8.83562 7.87364,12.8943 0,4.05868 2.13589,6.95222 4.74671,6.43008 2.61069,-0.52201 4.34001,1.12529 3.84291,3.66072 -0.5572,2.84238 1.50173,3.68699 5.36966,2.20273 4.20905,-1.61515 5.36988,-0.94529 3.52773,2.03539 -1.51009,2.44348 -1.11896,4.44269 0.86934,4.44269 1.98831,0 4.59882,-2.56322 5.80104,-5.69605 1.20225,-3.13283 4.80261,-5.69606 8.00101,-5.69606 6.43666,0 7.98898,-6.23113 2.04982,-8.22763 -3.62814,-1.21972 11.54458,-35.24672 19.07383,-42.77597 2.02349,-2.02324 3.67884,-5.88714 3.67884,-8.58636 0,-2.69924 3.72311,-9.18971 8.27365,-14.42324 4.55052,-5.23356 11.72937,-17.63547 15.953,-27.55981 4.22361,-9.92435 8.61732,-18.89867 9.76382,-19.94295 8.59165,-7.82567 26.79821,-39.16997 30.89266,-53.18457 2.74238,-9.38673 8.85014,-24.11124 13.57281,-32.72114 4.72266,-8.6099 7.51425,-16.72678 6.2035,-18.0375 -1.31059,-1.31073 -0.38961,-2.38313 2.04704,-2.38313 2.43664,0 4.43029,-2.61685 4.43029,-5.81523 0,-3.19838 2.56322,-6.79884 5.69605,-8.00102 3.13283,-1.20217 5.69605,-4.566175 5.69605,-7.475555 0,-2.90937 1.70882,-5.28977 3.79737,-5.28977 2.08856,0 3.8517,-2.99043 3.91813,-6.6454 0.14936,-8.2141 9.22707,-20.71468 12.59618,-17.34558 1.35996,1.35991 2.47259,0.29612 2.47259,-2.36399 0,-2.73903 2.47031,-3.88861 5.69605,-2.65076 5.64596,2.16655 7.14597,-1.20521 5.95162,-13.37827 -0.34025,-3.46994 1.22402,-7.44803 3.47659,-8.8402 2.38196,-1.47217 3.14078,-7.62088 1.81362,-14.69581 -1.75894,-9.3763 -0.48024,-13.79538 5.57955,-19.2792703 7.38136,-6.68006 8.29277,-6.72449 14.91951,-0.72737 4.82099,4.36294 11.36416,5.8532003 20.64501,4.70208 10.32329,-1.2804 13.11335,-0.45049 11.6147,3.4548803 -1.08478,2.82706 -4.82146,4.26458 -8.30358,3.19448 -5.36834,-1.64976 -5.31252,-1.29136 0.36708,2.35677 5.22369,3.35524 8.00038,3.00037 12.61269,-1.61196 6.31504,-6.31499 12.96667,-7.8280403 12.96667,-2.94952 0,1.63067 5.04931,4.87076 11.22072,7.2002 18.97254,7.16133 21.38047,36.22685 2.70547,32.6569 -7.07336,-1.35217 -10.63552,0.39513 -14.13459,6.93326 -3.26688,6.10421 -3.43265,9.15614 -0.54961,10.11719 2.27083,0.75692 3.13238,3.97229 1.91489,7.1453 -1.79666,4.68211 -2.81879,4.81476 -5.42457,0.70401 -2.32373,-3.66592 -3.22682,-2.79185 -3.26892,3.16415 -0.0304,4.52609 -3.4812,16.21497 -7.66499,25.975285 -4.18377,9.76031 -6.68542,19.2369 -5.55925,21.05909 2.3526,3.80643 -15.85996,34.17082 -20.10023,33.51173 -7.50135,-1.166 -8.98255,1.00754 -4.4272,6.49643 4.30163,5.18317 3.98425,5.85224 -2.25184,4.74672 -5.19804,-0.9215 -9.09546,2.55144 -13.72559,12.2307 -3.55647,7.4347 -9.16913,15.76081 -12.47266,18.50247 -3.30354,2.74167 -6.00638,6.51839 -6.00638,8.39271 0,1.87433 -4.65545,10.63638 -10.34545,19.47121 -5.68998,8.83486 -12.25735,19.48101 -14.5942,23.65812 -2.3369,4.17711 -7.91207,14.01525 -12.38947,21.86257 -4.47738,7.84731 -7.73567,14.89325 -7.24065,15.65766 0.49493,0.76454 -3.67618,6.91372 -9.2693,13.66509 -5.59314,6.75139 -9.25512,14.65756 -8.13779,17.56931 1.11744,2.91172 0.21772,5.29406 -1.99994,5.29406 -2.21741,0 -5.15361,5.98086 -6.52495,13.29079 -1.37135,7.30994 -4.76172,13.2908 -7.53413,13.2908 -3.06303,0 -6.04617,6.70451 -7.60329,17.08816 -1.40933,9.39849 -4.17817,17.08816 -6.15282,17.08816 -1.97464,0 -2.61935,1.5711 -1.43262,3.49122 1.1868,1.92021 -0.23797,5.88585 -3.16372,8.81263 -2.92678,2.92679 -5.93291,8.47659 -6.68031,12.33295 -0.74732,3.8563 -3.49606,7.72309 -6.10816,8.59278 -3.17162,1.05593 -3.93208,-0.73162 -2.28906,-5.38135 1.9078,-5.39917 1.403,-5.98835 -2.24779,-2.62368 -3.52284,3.24675 -3.65724,6.3025 -0.53391,12.1387 3.36981,6.29657 2.88876,8.54831 -2.49613,11.68433 -3.66879,2.13665 -4.58811,3.9366 -2.04299,4.00009 2.54512,0.0633 3.76955,2.35133 2.72094,5.08397 -1.04858,2.73269 1.56832,8.97501 5.81522,13.87181 4.24675,4.89689 7.72157,10.94028 7.72157,13.42983 0,2.48956 3.41763,7.6194 7.59473,11.39963 4.17711,3.78025 7.59474,9.17153 7.59474,11.98067 0,2.80909 1.70881,5.10749 3.79737,5.10749 2.08855,0 3.79737,4.25758 3.79737,9.46127 0,5.34867 3.30125,11.52288 7.59473,14.20421 4.17711,2.60864 7.59474,6.66471 7.59474,9.01351 0,2.3488 3.5812,8.82321 7.9582,14.38764 4.37697,5.56444 7.03622,12.51977 5.90934,15.45625 -1.12681,2.93651 -0.63138,5.87669 1.10123,6.53376 4.59512,1.74274 30.59958,36.67068 30.59958,41.09991 0,2.07058 1.99362,3.76451 4.43029,3.76451 2.43665,0 3.35918,1.07111 2.05007,2.38019 -2.79673,2.79674 7.58699,24.20147 11.74043,24.20147 5.07268,0 16.99102,26.0005 14.67949,32.02425 -1.23642,3.22206 -1.02782,5.60752 0.46328,5.30105 5.16437,-1.0615 15.95031,5.2549 14.09613,8.25497 -1.02427,1.65742 3.17,8.40059 9.32072,14.98492 6.1507,6.58434 12.24806,15.32694 13.5497,19.42808 1.30148,4.10108 3.9947,6.45028 5.98465,5.22042 1.98982,-1.22984 3.37336,-0.82758 3.0743,0.89415 -1.78805,10.2932 1.32655,21.18945 7.95032,27.8132 4.17711,4.1771 6.61829,7.59473 5.42482,7.59473 -1.19338,0 0.61366,2.78355 4.01575,6.18569 3.40214,3.40214 5.33459,8.4036 4.29434,11.11447 -1.04023,2.71084 0.57037,6.97174 3.57897,9.46874 3.00871,2.49689 5.47034,6.99483 5.47034,9.99518 0,3.35348 1.82881,4.35652 4.74671,2.60347 3.22533,-1.93767 3.0763,-0.79238 -0.46505,3.57325 -2.86643,3.53376 -3.4608,6.425 -1.32073,6.425 2.13995,0 5.67793,5.12645 7.86218,11.39211 2.18424,6.26565 6.53018,11.3921 9.65767,11.3921 3.12751,0 7.96075,4.69925 10.74058,10.44277 3.64783,7.53696 7.40373,10.11219 13.49797,9.25472 4.64411,-0.6534 8.44383,0.72909 8.44383,3.07214 0,2.34298 -1.70628,3.20562 -3.79167,1.91692 -2.16982,-1.34098 -3.38804,1.23161 -2.84803,6.01379 0.72302,6.40335 -1.27591,8.61397 -8.54977,9.45567 -9.84319,1.13896 -26.40974,-5.04341 -31.27015,-11.66959 -1.71793,-2.34196 -2.81223,-1.93387 -2.84802,1.0625 -0.0304,2.67626 2.49537,5.84575 5.6161,7.04331 3.12083,1.19769 4.74092,3.6876 3.60014,5.53338 -1.14073,1.84577 0.57796,2.33842 3.81916,1.09465 6.96458,-2.67256 7.98235,4.40647 1.23339,8.57765 -2.56305,1.58401 -15.37917,4.89438 -28.48027,7.35637 -19.99922,3.758 -23.82019,3.62489 -23.82019,-0.82986 0,-3.6901 -2.74853,-4.61608 -9.02535,-3.0407 -7.0745,1.77565 -10.76815,-0.18227 -17.08816,-9.05794 -4.43455,-6.22774 -8.0628,-16.27125 -8.0628,-22.31894 0,-6.04769 -2.05767,-13.05337 -4.57247,-15.56822 -2.51487,-2.51487 -4.73828,-11.18295 -4.94098,-19.26248 -0.31873,-12.69868 -8.56831,-27.61644 -15.03386,-27.18542 -8.02447,0.53493 -9.62901,-0.81643 -9.62901,-8.10946 0,-4.53479 -2.82806,-11.37005 -6.28462,-15.18947 -4.99813,-5.52289 -5.19245,-6.9563 -0.94935,-7.00255 4.40085,-0.0481 4.35521,-0.67796 -0.2605,-3.59695 -3.69053,-2.33386 -6.57985,-1.99083 -8.4859,1.00757 -2.15893,3.39619 -2.90484,3.27683 -2.94828,-0.47163 -0.0304,-2.75985 -2.19412,-7.39981 -4.80483,-10.31095 -12.25968,-13.67073 -16.13882,-18.89629 -16.13882,-21.74059 0,-1.69388 -2.35488,-4.5353 -5.23323,-6.31419 -2.87826,-1.77894 -4.13199,-5.0161 -2.78606,-7.19384 1.34579,-2.17766 0.44632,-5.19606 -1.99893,-6.70734 -2.77671,-1.71616 -3.42872,-1.10174 -1.73641,1.63616 4.898,7.92516 -2.38348,4.57884 -11.54339,-5.30498 -9.92554,-10.70982 -11.48444,-14.81219 -4.23283,-11.13897 2.61069,1.3225 1.61262,-0.15189 -2.21817,-3.27609 -8.02784,-6.5475 -22.93851,-32.82772 -18.67482,-32.91453 1.57059,-0.0304 0.34024,-1.64882 -2.73421,-3.59312 -4.86207,-3.07481 -4.81177,-3.83345 0.38632,-5.82815 -3.53201,-4.94068 -5.92441,-2.68895 -9.72073,-7.8323 -2.98691,-4.05415 -3.9481,-7.90521 -2.13615,-8.55788 1.8121,-0.65264 0.41088,-4.22642 -3.11344,-7.94169 -3.52441,-3.71527 -8.11687,-5.8437 -10.20543,-4.72978 -2.08855,1.1139 -1.23414,-1.19414 1.89869,-5.1287 3.31973,-4.16943 3.7158,-5.96422 0.94934,-4.30219 -6.02172,3.61773 -6.20257,-2.2164 -0.25316,-8.16581 2.47158,-2.47158 3.23298,-5.75415 1.69236,-7.2949 -1.54072,-1.54072 -4.44768,-0.28733 -6.45985,2.78471 -2.5872,3.95026 -3.0723,2.00299 -1.65667,-6.64982 1.68502,-10.29968 0.99618,-11.85005 -4.35269,-9.79744 -4.27987,1.64223 -5.45814,0.98807 -3.60885,-2.00425 1.51009,-2.44348 0.93618,-4.4427 -1.27566,-4.4427 -2.21184,0 -3.83668,-1.28173 -3.61082,-2.84802 0.86327,-5.9865 -5.25928,-19.93619 -8.75005,-19.93619 -2.01083,0 -2.93083,-4.69924 -2.04425,-10.44276 0.88656,-5.74352 0.89694,-8.30674 0.0228,-5.69605 -0.87364,2.61069 -3.273,4.74671 -5.33165,4.74671 -2.05868,0 -2.7976,-1.52983 -1.64199,-3.39948 1.95692,-3.16579 -5.88977,-7.99268 -12.99267,-7.99268 -1.71843,0 -8.76481,9.82569 -15.65875,21.83487 -6.89395,12.00918 -15.6479,26.96132 -19.45321,33.22698 -3.80535,6.26565 -7.92575,14.38253 -9.15647,18.0375 -1.2306,3.65497 -3.84805,6.64539 -5.81628,6.64539 -1.9683,0 -2.52247,-1.70881 -1.23161,-3.79737 1.29085,-2.08855 0.5372,-3.79736 -1.67464,-3.79736 -5.10724,0 -5.23832,6.39446 -0.19494,9.51142 2.37209,1.46603 1.65059,4.54079 -1.89868,8.09011 -3.14883,3.14886 -5.72517,9.69233 -5.72517,14.54107 0,9.57726 -9.59028,15.81761 -13.01039,8.46577 -1.15997,-2.49335 -1.23187,-0.92984 -0.15949,3.4746 1.12377,4.61636 -0.49948,10.04024 -3.83241,12.8064 -3.18049,2.63919 -5.7823,7.0748 -5.7823,9.85698 0,2.78218 -4.16847,9.22695 -9.26328,14.32172 -5.0948,5.09483 -8.30899,10.21758 -7.14267,11.38391 1.1663,1.1663 -0.21772,4.7059 -3.07817,7.86572 -10.52064,11.6262 -14.6922,17.13567 -14.6922,19.40435 0,1.27819 -5.12645,9.77514 -11.39211,18.88196 -6.26565,9.1068 -11.3921,18.30106 -11.3921,20.43169 0,2.13058 -2.99043,5.6156 -6.6454,7.74441 -3.65497,2.1288 -5.33953,3.92255 -3.74347,3.98604 1.59616,0.0633 -1.603,6.92273 -7.1088,15.24269 -5.50588,8.31996 -11.40758,14.26386 -13.11485,13.2087 -1.70729,-1.05517 -2.97496,1.10883 -2.81704,4.80901 0.56227,13.17353 -8.06414,26.85347 -30.73945,48.74756 -13.43678,12.97386 -21.306475,23.23898 -18.93818,24.70264 2.3969,1.48148 -5.156215,12.21115 -18.491315,26.26802 -17.48415,18.43051 -23.06873,22.39481 -24.884,17.66427 z M 431.46044,702.64705 c 4.72342,-6.02285 4.58912,-6.15715 -1.43364,-1.43363 -3.65496,2.86646 -6.64539,5.85689 -6.64539,6.6454 0,3.12538 3.11835,1.11389 8.07913,-5.21166 z"
     id="path3677"
     inkscape:connector-curvature="0"
     sodipodi:nodetypes="cscscccsscscssccccsssscssscsscssssssssscsccsssccsscssssssssccssccscsssscsssscssssssscssssssssscccssscccsccscssccscsssccsssssscsssssscsscsscsscsssssssccccscssssssssscscsssssscccsscscccssssssssccsssssscscccsssscsccsssssscssccccsccssssscssscsscssccscscccscccsscssccscssssscscssscsssssscccssscsssscsssscscccsscc" />
</svg>
