<?xml version="1.0" encoding="UTF-8" standalone="no"?>
<!-- Created with Inkscape (http://www.inkscape.org/) -->

<svg
   xmlns:dc="http://purl.org/dc/elements/1.1/"
   xmlns:cc="http://creativecommons.org/ns#"
   xmlns:rdf="http://www.w3.org/1999/02/22-rdf-syntax-ns#"
   xmlns:svg="http://www.w3.org/2000/svg"
   xmlns="http://www.w3.org/2000/svg"
   xmlns:sodipodi="http://sodipodi.sourceforge.net/DTD/sodipodi-0.dtd"
   xmlns:inkscape="http://www.inkscape.org/namespaces/inkscape"
   id="svg3752"
   version="1.1"
   inkscape:version="0.91 r13725"
   width="629.86884"
   height="930"
   viewBox="0 0 629.86884 930"
   sodipodi:docname="Y.svg">
  <metadata
     id="metadata3758">
    <rdf:RDF>
      <cc:Work
         rdf:about="">
        <dc:format>image/svg+xml</dc:format>
        <dc:type
           rdf:resource="http://purl.org/dc/dcmitype/StillImage" />
        <dc:title></dc:title>
      </cc:Work>
    </rdf:RDF>
  </metadata>
  <defs
     id="defs3756" />
  <sodipodi:namedview
     pagecolor="#ffffff"
     bordercolor="#666666"
     borderopacity="1"
     objecttolerance="10"
     gridtolerance="10"
     guidetolerance="10"
     inkscape:pageopacity="0"
     inkscape:pageshadow="2"
     inkscape:window-width="1518"
     inkscape:window-height="1023"
     id="namedview3754"
     showgrid="false"
     fit-margin-top="0"
     fit-margin-left="0"
     fit-margin-right="0"
     fit-margin-bottom="0"
     inkscape:zoom="0.81944445"
     inkscape:cx="276.09727"
     inkscape:cy="505.71131"
     inkscape:window-x="179"
     inkscape:window-y="0"
     inkscape:window-maximized="0"
     inkscape:current-layer="svg3752" />
  <path
     style="fill:#000000"
     d="m 315.36755,928.45774 c -10.39888,-1.89548 -19.66597,-5.72291 -20.5935,-8.50545 -0.92756,-2.78267 -5.9544,-9.32722 -11.17087,-14.54372 -5.8351,-5.83507 -7.61843,-10.11303 -4.63474,-11.11804 3.42709,-1.15433 3.07888,-3.77835 -1.18685,-8.94489 -4.85999,-5.88617 -4.98028,-7.96422 -0.61697,-10.66081 4.0458,-2.5004 4.28123,-5.47664 0.92868,-11.74081 -2.47012,-4.61523 -3.50944,-9.37277 -2.30978,-10.57231 1.19946,-1.19947 -1.69815,-8.54377 -6.43929,-16.32049 -4.74114,-7.77675 -8.62733,-17.99671 -8.63599,-22.71106 -0.009,-4.71437 -3.67147,-15.74208 -8.13962,-24.50609 -8.4602,-16.59422 -9.01988,-48.78504 -1.01978,-58.65937 5.61713,-6.93317 14.54941,-52.54028 11.72943,-59.88908 -1.27711,-3.32771 -0.016,-6.10795 2.80229,-6.17831 2.81817,-0.0701 1.81279,-2.05638 -2.23438,-4.41362 -5.22093,-3.04074 -7.3586,-9.59125 -7.3586,-22.54817 0,-12.6835 -2.00817,-19.033 -6.57356,-20.78493 -3.61545,-1.38727 -5.3959,-4.42798 -3.95654,-6.75691 1.43941,-2.32885 0.75096,-4.23439 -1.52967,-4.23439 -2.28064,0 -3.42059,-5.73724 -2.5332,-12.7494 1.15517,-9.12758 0.17099,-11.88444 -3.45972,-9.70463 -2.79025,1.67459 -2.23494,-0.51999 1.23366,-4.87657 3.67587,-4.61668 4.11439,-6.604 1.05118,-4.76368 -3.21923,1.93417 -5.25589,0.84487 -5.25589,-2.81085 0,-3.28261 -4.54086,-12.65978 -10.09079,-20.83808 -5.54993,-8.17826 -11.34523,-19.322 -12.8784,-24.76382 -4.01222,-14.24083 -11.43277,-29.4189 -20.01822,-40.94535 -9.36146,-12.56829 -9.38299,-16.18619 -0.11212,-18.60925 5.53721,-1.44698 5.01692,-2.04377 -2.10235,-2.4107 -5.20325,-0.2691 -9.69703,-2.37986 -9.98609,-4.69243 -0.28901,-2.31258 -0.82553,-6.56985 -1.1919,-9.46059 -0.36637,-2.89073 1.28916,-6.64601 3.67912,-8.34505 2.64364,-1.87923 1.87558,-3.12721 -1.96164,-3.18633 -6.83581,-0.10652 -16.81883,-18.09187 -16.81883,-30.30276 -15.98547,-7.87907 -10.61732,-34.08816 -23.22414,-45.49508 -3.16137,-2.62374 -8.83448,-14.06309 -12.60691,-25.42084 -3.77247,-11.35776 -8.63731,-21.74952 -10.81081,-23.09281 -2.17355,-1.34327 -2.86321,-4.20373 -1.53276,-6.35654 1.33037,-2.15281 0.64473,-3.91416 -1.52378,-3.91416 -4.42946,0 -16.01691,-25.31088 -14.19672,-31.01039 0.6464,-2.02387 -1.97145,-7.15675 -5.81727,-11.40634 -3.84585,-4.24961 -5.87627,-10.63521 -4.5121,-14.19021 1.36429,-3.55502 0.65313,-6.46367 -1.58041,-6.46367 -6.96672,0 -15.92516,-26.54925 -11.726,-34.7512 2.71932,-5.31153 2.0006,-8.11083 -2.52927,-9.84903 -6.08836,-2.33641 -13.40993,-17.20116 -11.68623,-23.72625 0.45831,-1.73444 -2.2369,-3.15353 -5.98885,-3.15353 -5.87736,0 -6.0229,-0.98222 -1.05117,-7.09431 5.01829,-6.16928 4.86518,-6.75543 -1.17396,-4.49532 -5.33602,1.99693 -7.55319,-0.64396 -9.57112,-11.40031 -1.44445,-7.69963 -6.40166,-18.79893 -11.01602,-24.66514 -8.52216,-10.83419 -9.28271,-19.43488 -2.17131,-24.55566 2.3266,-1.67535 1.68665,-5.54136 -1.56612,-9.46059 -3.0252,-3.64514 -3.84957,-6.6565 -1.83213,-6.69191 2.0177,-0.0353 1.31243,-1.56048 -1.56695,-3.38907 C 20.968771,57.194568 -20.802674,56.535246 8.67405,18.49391 12.5261,13.85245 12.37307,10.97429 7.99373,5.6973799 2.84857,-0.50215008 5.15194,-0.91835008 33.7583,1.0419699 c 38.69687,2.65176 52.92073,8.88102 61.48386,26.9265101 3.64607,7.68353 9.46657,13.97005 12.93441,13.97005 4.61405,0 5.80864,3.38329 4.45385,12.61412 -1.35195,9.21134 -0.15697,12.61412 4.42826,12.61412 3.4538,0 5.1083,1.17132 3.67671,2.60291 -1.43156,1.4316 0.16258,5.36838 3.54258,8.7484 3.37999,3.38002 4.88968,8.17741 3.35482,10.66087 -1.54285,2.49653 -0.83842,3.30884 1.57564,1.8168 2.41659,-1.49354 6.61692,3.37973 9.4063,10.91328 2.77202,7.48654 6.83074,16.45006 9.01949,19.91894 2.18869,3.46888 5.09134,9.61827 6.45022,13.6653 1.35896,4.04703 4.45746,7.35824 6.88576,7.35824 2.42836,0 3.22765,1.18743 1.77635,2.63876 -1.45118,1.45132 1.98014,10.91192 7.62532,21.02353 6.70292,12.00607 8.46946,18.47724 5.09154,18.65129 -2.84493,0.14661 -1.12462,1.90031 3.82275,3.89712 5.39483,2.17739 12.04043,11.74795 16.60296,23.91054 4.18418,11.15397 8.65081,21.22601 9.92582,22.3823 1.27486,1.1563 2.88395,5.45609 3.57543,9.55506 0.69153,4.09897 7.10752,16.12127 14.25794,26.71618 10.50879,15.57104 11.87972,19.97336 7.15223,22.96703 -4.95256,3.13618 -4.95785,3.71343 -0.0336,3.76795 7.3759,0.0813 22.08817,16.76165 19.07895,21.63067 -1.24488,2.01405 -0.46476,3.66196 1.73374,3.66196 3.84361,0 11.22374,19.7841 9.80311,26.27942 -0.37927,1.73458 1.18741,3.15353 3.48189,3.15353 2.29436,0 7.56757,7.09544 11.71818,15.76765 4.60858,9.62912 10.29797,15.54909 14.61394,15.2063 4.06351,-0.32293 9.34843,4.59182 12.43413,11.56292 2.9517,6.66838 6.79696,12.12433 8.54503,12.12433 5.01394,0 3.7016,15.99911 -1.58013,19.26336 -4.48233,2.77034 -13.81319,-8.39164 -14.05303,-16.81065 -0.0617,-2.11973 -2.77651,-4.74319 -6.03569,-5.8296 -4.32482,-1.44165 -5.09728,0.16819 -2.85906,5.95667 1.68665,4.36261 4.11689,13.13531 5.4003,19.49493 1.28328,6.35962 4.99452,11.56294 8.24692,11.56294 3.2524,0 6.95672,2.71877 8.23181,6.04158 1.33457,3.47749 5.14014,4.95872 8.96721,3.49016 4.94644,-1.898 5.69799,-1.02258 2.93528,3.41902 -5.70047,9.16486 -2.284,26.20931 6.81409,33.99399 5.83372,4.99163 6.66625,7.61074 2.90164,9.12864 -2.90363,1.17087 -1.02202,2.27811 4.18127,2.4606 5.20333,0.1822 9.46059,2.47937 9.46059,5.10373 0,10.15546 16.24038,-16.53322 22.15119,-36.40226 5.62427,-18.90571 19.076,-52.02935 28.33695,-69.77711 1.95211,-3.74096 5.6317,-14.53551 8.17695,-23.98786 2.54525,-9.45238 7.3225,-19.8809 10.61613,-23.1745 3.29358,-3.29357 7.28191,-11.42023 8.86302,-18.05921 1.58097,-6.63898 5.57438,-15.18583 8.87403,-18.99303 4.85319,-5.59974 4.94617,-7.34372 0.48635,-9.12864 -4.13317,-1.65413 -4.1975,-2.2896 -0.25789,-2.53852 2.89074,-0.18221 5.25588,-4.21015 5.25588,-8.95017 0,-4.74002 2.88679,-14.20062 6.41504,-21.02354 3.52826,-6.82292 4.94734,-12.4655 3.15353,-12.53902 -1.79373,-0.0729 -0.42327,-2.43873 3.04556,-5.25589 3.46888,-2.81721 6.96921,-8.90641 7.77851,-13.53158 0.80926,-4.62518 2.70138,-9.35548 4.20471,-10.51177 1.50332,-1.1563 3.3699,-6.83265 4.14797,-12.61412 0.77815,-5.78148 3.14324,-12.30928 5.25588,-14.50624 2.11245,-2.19682 3.84106,-7.26512 3.84106,-11.26259 0,-3.99749 2.54777,-9.81592 5.66172,-12.92985 3.11392,-3.11394 6.9217,-12.37817 8.46172,-20.58719 1.54004,-8.20902 6.08769,-18.5682 10.10593,-23.02041 4.01844,-4.45218 7.99713,-12.82519 8.84177,-18.60666 2.00845,-13.74877 3.95932,-23.12589 4.811,-23.12589 0.74816,0 3.8676,-23.87392 5.082,-38.89354 0.42076,-5.20333 3.22473,-9.46059 6.2311,-9.46059 3.00637,0 5.46612,-2.83818 5.46612,-6.30706 0,-6.11351 6.8648,-8.29747 22.07471,-7.02284 4.19041,0.35118 7.35824,-2.27099 7.35824,-6.09071 0,-3.75234 -2.39164,-5.78956 -5.42878,-4.62412 -3.33532,1.27988 -5.73057,-1.5627 -6.21128,-7.37135 -0.7375,-8.9111001 0.90345,-9.4971101 28.54713,-10.1947401 31.82644,-0.80318 46.16354,4.06955 46.16354,15.6895701 0,4.0813 2.17299,9.59347 4.82871,12.24928 3.58836,3.58832 3.64739,10.71124 0.22986,27.72843 -8.66366,43.1388 -28.89794,74.21684 -46.05461,70.73553 -3.28715,-0.66701 -5.25588,3.72754 -5.25588,11.73195 0,7.03914 1.89212,12.79845 4.20471,12.79845 2.31259,0 4.2047,1.89212 4.2047,4.2047 0,2.31259 -3.06985,4.20471 -6.82188,4.20471 -5.41474,0 -5.80031,1.23097 -1.86913,5.96765 3.91222,4.71394 3.35788,6.89543 -2.6386,10.38391 -4.17527,2.42894 -6.19992,4.4738 -4.4992,4.54412 1.70066,0.0704 -0.66435,9.65849 -5.25589,21.30704 -4.59145,11.64858 -8.34805,24.89341 -8.34805,29.43295 0,4.53957 -2.04966,8.25376 -4.5551,8.25376 -2.50545,0 -3.70704,2.36501 -2.67055,5.25588 1.0366,2.89074 -0.14016,9.04012 -2.61252,13.6653 -2.47349,4.62518 -5.14135,13.13971 -5.92881,18.92118 -0.7874,5.78147 -4.28471,12.6858 -7.77173,15.34298 -4.64965,3.54314 -4.95662,5.29232 -1.15125,6.56077 6.04152,2.01377 -11.09269,41.16686 -18.01554,41.16686 -2.26214,0 -2.90893,3.79356 -1.43745,8.43012 1.77831,5.6028 0.46308,9.27915 -3.92137,10.96162 -3.62832,1.39232 -6.59696,7.23462 -6.59696,12.9829 0,14.20351 -21.10306,72.74304 -26.22333,72.74304 -2.26017,0 -3.10871,2.60776 -1.88567,5.79468 1.22301,3.18708 0.43505,7.58327 -1.75084,9.76924 -2.18617,2.18617 -4.85268,8.56597 -5.92595,14.17768 -7.18309,37.55827 -12.2311,53.75786 -16.02172,51.41514 -2.58646,-1.59863 -3.21935,0.12334 -1.59779,4.35002 1.47669,3.84823 0.87458,6.9968 -1.33822,6.9968 -2.2128,0 -5.2278,7.53408 -6.70023,16.74239 -1.58405,9.90556 -4.44511,15.64983 -7.00644,14.06685 -2.43845,-1.50697 -3.06501,-0.63015 -1.43465,2.0076 2.92788,4.73742 -2.80698,17.62729 -14.04207,31.56155 -4.6901,5.81687 -4.93689,8.35842 -1.04501,10.76363 3.77482,2.33305 3.09604,5.29397 -2.62009,11.42945 -7.23672,7.7677 -13.56994,29.56271 -14.8582,51.13261 -0.31087,5.20332 -1.80466,9.46059 -3.31984,9.46059 -6.84939,0 4.42562,72.98136 15.8909,102.85942 1.66563,4.34029 -0.0841,6.56001 -5.32801,6.7585 -7.43333,0.28116 -7.42265,0.44654 0.22425,3.44464 4.67788,1.83409 10.35704,10.92789 13.60147,21.77915 7.43213,24.85747 7.14944,28.11444 -2.71147,31.24423 -4.62518,1.468 -8.40942,5.3797 -8.40942,8.69275 0,3.31303 -2.12365,6.02372 -4.71953,6.02372 -3.2608,0 -3.10164,1.94958 0.51494,6.30706 4.37318,5.26934 3.76607,6.30706 -3.68988,6.30706 -4.90832,0 -8.92424,2.00369 -8.92424,4.45287 0,2.4491 -1.89212,3.28346 -4.20471,1.85428 -5.88735,-3.63859 -5.2606,3.56929 0.84094,9.67083 7.34667,8.66269 -4.814,1.92026 -5.04565,11.32633 0,6.21549 -13.50022,6.84889 -19.43716,0.91186 -18.45337,8.88117 -31.17161,20.28942 -47.82411,17.36158 z m 63.05657,-18.69983 c 0,-3.47992 -8.16442,-5.44781 -10.03627,-2.4191 -1.21432,1.965 0.54689,3.57251 3.91416,3.57251 3.36713,0 6.12211,-0.51914 6.12211,-1.15349 z m 71.48002,-628.64737 c 0,-2.31259 -1.89212,-3.03533 -4.20471,-1.60592 -2.31258,1.42932 -4.2047,4.49076 -4.2047,6.80335 0,2.31259 1.89212,3.03533 4.2047,1.60592 2.31259,-1.42932 4.20471,-4.49077 4.20471,-6.80335 z"
     id="path3762"
     inkscape:connector-curvature="0"
     sodipodi:nodetypes="csssssccscsscccsccsscccsssscccsccccsccscscssccssssssccccssssssssccsccscssssccssccscsscssccsccsccssccssssscsccsscssscssssccsssssssssscsssssssscssscccssscsssccsccscccscscsccssssscssccccccccsccscscs" />
</svg>
