<?xml version="1.0" encoding="UTF-8" standalone="no"?>
<!-- Created with Inkscape (http://www.inkscape.org/) -->

<svg
   xmlns:dc="http://purl.org/dc/elements/1.1/"
   xmlns:cc="http://creativecommons.org/ns#"
   xmlns:rdf="http://www.w3.org/1999/02/22-rdf-syntax-ns#"
   xmlns:svg="http://www.w3.org/2000/svg"
   xmlns="http://www.w3.org/2000/svg"
   xmlns:sodipodi="http://sodipodi.sourceforge.net/DTD/sodipodi-0.dtd"
   xmlns:inkscape="http://www.inkscape.org/namespaces/inkscape"
   id="svg3837"
   version="1.1"
   inkscape:version="0.91 r13725"
   width="691.63184"
   height="930"
   viewBox="0 0 691.63184 930.00001"
   sodipodi:docname="Z.svg">
  <metadata
     id="metadata3843">
    <rdf:RDF>
      <cc:Work
         rdf:about="">
        <dc:format>image/svg+xml</dc:format>
        <dc:type
           rdf:resource="http://purl.org/dc/dcmitype/StillImage" />
        <dc:title></dc:title>
      </cc:Work>
    </rdf:RDF>
  </metadata>
  <defs
     id="defs3841" />
  <sodipodi:namedview
     pagecolor="#ffffff"
     bordercolor="#666666"
     borderopacity="1"
     objecttolerance="10"
     gridtolerance="10"
     guidetolerance="10"
     inkscape:pageopacity="0"
     inkscape:pageshadow="2"
     inkscape:window-width="1689"
     inkscape:window-height="998"
     id="namedview3839"
     showgrid="false"
     fit-margin-top="0"
     fit-margin-left="0"
     fit-margin-right="0"
     fit-margin-bottom="0"
     inkscape:zoom="0.51889676"
     inkscape:cx="167.29137"
     inkscape:cy="523.06597"
     inkscape:window-x="0"
     inkscape:window-y="0"
     inkscape:window-maximized="0"
     inkscape:current-layer="svg3837" />
  <path
     style="fill:#000000"
     d="M 69.7857,928.83584 C -13.217199,900.6322 1.2652636,819.2788 23.906548,788.68381 215.86229,512.75707 366.58423,315.99677 509.95815,131.05826 521.78631,120.35392 521.42292,115.38264 504.89008,113.22048 337.20108,121.47217 280.05017,129.29104 72.062349,128.8447 -25.698679,131.17768 -20.597873,6.1745305 66.827378,0.0587286 253.27422,9.2181515 452.72273,1.6729735 586.32562,0 685.23141,7.2466113 668.12625,91.821359 649.3552,115.817 484.36559,396.94748 301.72608,584.45692 164.64119,788.74643 c -2.88419,12.06785 -0.87644,19.01591 7.7964,19.01591 160.22936,7.61278 370.09097,-4.03564 475.45669,-1.19581 57.56957,6.41622 62.30573,115.36344 -9.87855,121.81051 -174.32932,-8.64913 -379.70319,5.63626 -568.23003,0.4588 z"
     id="path3847"
     inkscape:connector-curvature="0"
     sodipodi:nodetypes="ccccccccccccc" />
</svg>
