<?xml version="1.0" encoding="UTF-8" standalone="no"?>
<!-- Created with Inkscape (http://www.inkscape.org/) -->

<svg
   xmlns:dc="http://purl.org/dc/elements/1.1/"
   xmlns:cc="http://creativecommons.org/ns#"
   xmlns:rdf="http://www.w3.org/1999/02/22-rdf-syntax-ns#"
   xmlns:svg="http://www.w3.org/2000/svg"
   xmlns="http://www.w3.org/2000/svg"
   xmlns:sodipodi="http://sodipodi.sourceforge.net/DTD/sodipodi-0.dtd"
   xmlns:inkscape="http://www.inkscape.org/namespaces/inkscape"
   id="svg3837"
   version="1.1"
   inkscape:version="0.91 r13725"
   width="714.86487"
   height="930"
   viewBox="0 0 714.86487 930.00001"
   sodipodi:docname="Z.svg">
  <metadata
     id="metadata3843">
    <rdf:RDF>
      <cc:Work
         rdf:about="">
        <dc:format>image/svg+xml</dc:format>
        <dc:type
           rdf:resource="http://purl.org/dc/dcmitype/StillImage" />
        <dc:title></dc:title>
      </cc:Work>
    </rdf:RDF>
  </metadata>
  <defs
     id="defs3841" />
  <sodipodi:namedview
     pagecolor="#ffffff"
     bordercolor="#666666"
     borderopacity="1"
     objecttolerance="10"
     gridtolerance="10"
     guidetolerance="10"
     inkscape:pageopacity="0"
     inkscape:pageshadow="2"
     inkscape:window-width="1689"
     inkscape:window-height="998"
     id="namedview3839"
     showgrid="false"
     fit-margin-top="0"
     fit-margin-left="0"
     fit-margin-right="0"
     fit-margin-bottom="0"
     inkscape:zoom="0.51889676"
     inkscape:cx="-102.97597"
     inkscape:cy="610.28091"
     inkscape:window-x="0"
     inkscape:window-y="0"
     inkscape:window-maximized="0"
     inkscape:current-layer="svg3837" />
  <path
     style="fill:#000000"
     d="m 200.55261,925.46948 c 1.67142,-4.46303 0.83417,-5.92318 -2.63359,-4.59251 -2.79625,1.07295 -8.01967,-0.98462 -11.60758,-4.57251 -4.36604,-4.36606 -11.85375,-6.28093 -22.64098,-5.79013 -52.50112,2.38877 -68.67092,0.30193 -80.3123,-10.36383 -5.65282,-5.17912 -11.95537,-8.37984 -14.00565,-7.11271 -2.05038,1.26705 -5.86942,-0.27652 -8.48693,-3.4305 -2.61751,-3.15391 -7.0227,-5.73439 -9.7893,-5.73439 21.062809,-20.6736 -16.366623,-20.10367 -17.13399,-75.09846 0,-8.68236 4.4759,-11.58833 15.81536,-10.26816 1.28502,0.14891 4.56327,-3.88946 7.2853,-8.97562 16.297713,-18.97543 48.11232,-49.87983 50.07225,-78.36269 0,-4.56594 2.21367,-8.30168 4.91919,-8.30168 94.90184,-115.37861 60.83945,-116.39573 110.71577,-165.60197 2.06373,0 3.75231,-2.65394 3.75231,-5.89766 0,-3.24376 2.59956,-6.89524 5.7768,-8.11446 3.17725,-1.21929 5.77681,-4.57557 5.77681,-7.45855 14.48552,-24.14359 37.00161,-41.69066 53.47674,-81.29009 2.7562,-6.74159 7.06765,-11.46833 9.581,-10.50386 2.72393,1.04522 4.91694,-2.44243 5.42946,-8.63491 0.47292,-5.71365 3.73305,-13.56336 7.24486,-17.44388 18.18815,-21.77241 30.01439,-48.66682 47.9046,-70.19852 5.51431,-6.54633 12.10018,-15.85028 14.63525,-20.67548 2.55258,-4.85868 6.50684,-7.60028 8.86224,-6.14457 2.62177,1.62033 3.15891,0.8583 1.4003,-1.98697 -4.26747,-6.90498 8.69546,-24.61387 15.97316,-21.82116 4.86861,1.86835 5.14916,1.24856 1.4519,-3.20633 -2.81169,-3.38786 -3.14936,-6.4081 -0.87371,-7.81456 2.04011,-1.26089 4.4398,-0.9818 5.33261,0.62004 0.89297,1.60185 1.03521,0.58975 0.31657,-2.2491 -1.56307,-6.17443 10.44129,-27.57391 15.46819,-27.57391 4.99093,0 21.59866,-19.41046 25.9942,-30.38096 3.89095,-10.20776 33.97845,-30.1998 33.12049,-32.55632 -1.21287,-3.16084 0.28499,-6.70253 3.32829,-7.87045 3.04348,-1.16794 5.53365,-4.50881 5.53365,-7.42422 0,-2.91544 3.46608,-8.43756 7.70241,-12.27138 11.17589,-10.11404 9.46983,-13.44846 -4.78859,-9.35918 -16.26739,4.6654 -27.08273,4.56466 -24.12272,-0.22593 1.35331,-2.1898 -0.20797,-2.82476 -3.67297,-1.49479 -3.31425,1.27167 -8.401,0.34122 -11.30388,-2.06809 -4.06587,-3.37435 -5.8343,-2.93074 -7.70018,1.93176 -1.72483,4.49472 -4.90346,5.55151 -11.04056,3.67053 -4.74014,-1.45293 -10.70851,-2.8048 -13.26301,-3.0044 -2.55463,-0.20026 -3.60006,-2.24037 -2.32356,-4.53505 1.34741,-2.42164 0.27164,-2.27863 -2.56439,0.34096 -2.68701,2.48223 -7.27388,3.59654 -10.19301,2.47633 -2.91911,-1.12019 -5.3075,0.0847 -5.3075,2.67571 0,2.74558 -3.07619,3.90797 -7.37026,2.78506 -5.1705,-1.35203 -7.99849,0.47524 -9.47527,6.12227 -1.96155,7.50099 -8.18731,6.31248 -8.18731,-1.56308 0,-1.94178 -1.29991,-3.53027 -2.8884,-3.53027 l -8.74778,0 c -3.22267,0 -7.87215,4.41748 -10.33215,9.81664 -3.78704,8.31165 -4.99909,8.87621 -7.90567,3.68242 -2.26657,-4.05008 -6.11669,-5.28249 -11.33179,-3.62727 -11.11038,-0.52297 -16.44465,-22.52408 -12.24971,4.05155 0.79232,5.39769 0.22594,5.40604 -5.65529,0.0822 -4.00418,-3.62373 -8.53496,-4.67901 -11.69745,-2.72447 -4.29879,2.65679 -4.28408,3.53925 0.0873,5.27792 3.93367,1.56436 4.01259,2.16386 0.31477,2.39185 -2.71315,0.16689 -5.9276,-2.28556 -7.14214,-5.45073 -1.21467,-3.16508 -3.75972,-4.79583 -5.65593,-3.62391 -1.89633,1.17205 -3.44768,-0.57101 -3.44768,-3.87334 0,-3.30225 -1.67861,-6.00408 -3.73033,-6.00408 -2.05166,0 -2.73278,2.59956 -1.51352,5.77681 1.6211,4.22454 -0.48114,5.77681 -7.82329,5.77681 -5.52203,0 -10.04006,-1.79389 -10.04006,-3.98672 0,-2.601 -2.34256,-2.73525 -6.73961,-0.38615 -6.75982,3.61133 -22.32321,5.5434 -38.51206,4.78099 -48.70112,-4.46384 -16.16651,6.39294 -99.65774,11.3197 -58.01901,1.10452 -67.15299,0.17458 -78.64729,-8.01049 -5.84588,-4.16264 -12.52764,-7.56844 -14.84838,-7.56844 -3.86099,0 -5.82266,-5.25142 -4.67554,-12.51641 0.25161,-1.58875 -1.12353,-2.88841 -3.05439,-2.88841 -1.93074,0 -3.05683,-3.03282 -2.50252,-6.73961 0.63494,-4.24526 4.13068,-6.5641 9.44532,-6.2654 4.77179,0.26831 7.74123,-1.40492 6.83506,-3.8512 -0.88115,-2.37902 -3.61959,-3.86962 -6.08521,-3.3125 -2.46554,0.55714 -7.44813,-4.21147 -11.07224,-10.59682 -3.62409,-6.385379 -8.70005,-10.816219 -11.2799201,-9.846329 -5.88981,2.21419 -11.12026,-5.59359 -5.97659,-8.9216 2.08941,-1.35177 3.95483,-9.38998 4.14562,-17.86264 0.18999,-8.47265 0.4927,-20.94345 0.67088,-27.71287 0.2208,-8.38595 3.9701301,-15.74933 11.7658401,-23.10723 13.0359,-12.3037904 17.15299,-13.1824704 30.79026,-6.5713104 5.64697,2.7375704 12.13513,3.3887304 15.42434,1.548 8.77633,-4.91148 64.36407,-7.4414 77.94198,-3.54731 20.22278,5.7998204 89.83383,5.7684404 96.83697,-0.0437 3.34908,-2.7795 6.08924,-3.49087 6.08924,-1.58081 0,4.91444 120.939,2.44343 122.58839,-2.5047 0.71941,-2.15831996 3.32636,-2.61361996 5.79314,-1.01178996 4.3496,2.82442996 22.07447,4.09701996 62.5749,4.49270996 10.76776,0.10526 32.4308,2.21421 48.14007,4.6866804 37.45266,5.89465 53.76786,5.44659 69.52268,-1.9092804 12.37123,-5.77608 17.31124,-6.04228 30.28693,-1.63204 34.51628,11.7316004 46.21447,13.4787804 46.21447,6.9023404 0,-2.11816 3.46608,-3.8512104 7.70241,-3.8512104 4.23632,0 7.70241,1.8353304 7.70241,4.0784904 0,2.24318 1.874,2.92026 4.16462,1.50462 2.56516,-1.58541 3.67453,0.3186 2.88863,4.95788 -0.70169,4.14247 1.18771,10.50033 4.19889,14.12859 5.33801,6.43191 9.15019,44.65212 4.45372,44.65212 -1.29812,0 -2.07478,6.06565 -1.72611,13.47921 C 552.50821,223.62573 298.28435,663.9051 234.3147,683.60773 c -3.10713,0 -8.5571,13.09151 -9.35476,22.47133 -0.24134,2.82747 -4.6179,7.37832 -9.72768,10.11298 -16.80912,18.66675 -34.02713,46.88757 -38.84272,66.58424 -2.72514,11.40236 -2.19082,12.51641 6.00375,12.51641 4.94733,0 9.98733,1.60544 11.2,3.56748 1.3148,2.1274 6.93712,2.21033 13.92716,0.2054 6.44731,-1.8491 14.22263,-2.40239 17.27851,-1.22982 3.05586,1.17256 5.55611,0.47729 5.55611,-1.54511 0,-2.02239 4.76587,-3.92864 10.59082,-4.23604 16.53676,-0.87268 30.2507,-3.06941 34.13051,-5.46725 3.65266,-2.25757 77.44458,-7.22322 128.58294,-8.65281 15.88623,-0.44417 29.75057,-1.16332 30.80965,-1.59825 1.77386,-0.72865 39.20103,-4.39708 54.87968,-5.37926 3.70678,-0.23107 6.73961,-2.01059 6.73961,-3.95203 0,-1.94152 6.10447,-2.53923 13.56551,-1.32841 7.46102,1.21082 12.62271,0.67576 11.4704,-1.18874 -1.15228,-1.8645 0.97513,-3.5258 4.72769,-3.69176 3.75254,-0.16689 18.80475,-1.0804 33.44931,-2.03216 21.20523,-1.37796 27.53011,-0.49449 31.06467,4.33931 3.55885,4.86705 8.58437,5.53862 25.36481,3.38952 32.3339,-4.14104 77.11018,-3.815 79.97129,0.58231 1.41596,2.17644 6.6176,6.08742 11.55908,8.69114 8.24851,4.34634 8.76658,6.36519 6.32455,24.64658 -1.46294,10.95188 -5.07267,22.64848 -8.02167,25.99254 -7.02568,7.96691 -6.80061,14.79117 0.58127,17.62388 5.10668,1.95949 5.18904,3.1621 0.58539,8.54436 -2.94671,3.44506 -6.44831,9.33589 -7.78131,13.09071 -3.39392,9.56008 -13.10096,12.36748 -23.50676,6.79848 -5.92985,-3.17357 -11.2267,-3.52819 -16.10782,-1.07833 -32.4289,16.27573 -41.81932,19.16614 -72.74311,22.39044 -12.70898,1.32507 -25.7068,3.61914 -28.88404,5.09777 -3.17725,1.4786 -12.70898,1.55357 -21.18163,0.16688 -8.47265,-1.3872 -12.94968,-2.76804 -9.94895,-3.06859 3.00071,-0.30039 4.15882,-1.84344 2.57353,-3.42888 -1.58541,-1.58541 -5.24534,0.34918 -8.13344,4.29895 -4.65726,6.36915 -11.97088,7.31975 -64.67306,8.40582 -49.32431,-10.84818 -113.60363,33.54326 -159.23061,12.15515 -2.23549,-1.38156 -5.11363,-1.4632 -6.39564,-0.18229 -1.28194,1.28194 -19.6251,2.67643 -40.76239,3.09868 -26.48618,0.52915 -40.51718,2.46528 -45.14176,6.22955 -5.93229,4.82859 -6.42619,4.70317 -4.25976,-1.08167 z M 52.15534,812.2244 c -1.27963,-1.27963 -4.6014,-1.41647 -7.38148,-0.30399 -3.07223,1.22931 -2.15976,2.14204 2.3269,2.32664 4.05981,0.16689 6.33441,-0.74302 5.05471,-2.02265 z M 290.04751,159.84624 c -1.30915,-2.11817 -0.54482,-3.85121 1.69838,-3.85121 2.2432,0 4.07848,1.73304 4.07848,3.85121 0,2.11816 -0.76434,3.8512 -1.69838,3.8512 -0.93405,0 -2.7694,-1.73304 -4.07851,-3.8512 z"
     id="path3847"
     inkscape:connector-curvature="0"
     sodipodi:nodetypes="ccssscscccccccsccccscccsccsscsscccsssccccccccsscsssssscccsccccsscssscccscsccccssccssssssscssssssssccsscccccsccssscsccssscssscssscssscsscccscccssccccccccssscc" />
</svg>
